<svg width="1920" height="574" viewBox="0 0 1920 574" fill="none" xmlns="http://www.w3.org/2000/svg"><mask id="a" style="mask-type:alpha" maskUnits="userSpaceOnUse" x="0" y="0" width="1920" height="574"><path fill="#F5F5F6" d="M0 0h1920v574H0z"/></mask><g mask="url(#a)" fill-rule="evenodd" clip-rule="evenodd" fill="#FFC000"><path d="M154.193 329.585c3.616.851 6.381 2.553 9.997 5.531a9.443 9.443 0 002.339 1.701c1.064.638 1.915 1.064 3.191 1.489 1.914-1.063 3.616-2.127 5.742-3.403 1.064 1.489 1.915 2.552 2.978 4.254 5.53 1.276 10.635 5.53 16.803 7.657.638-.638 1.064-1.276 1.702-1.914-3.191-2.765-6.168-5.956-9.572-8.296-3.19-2.126-7.019-3.828-9.784-6.38.639-4.467 4.68-1.915 6.169-3.829 1.488-2.127 4.679-1.063 6.168-3.616-1.064-.638-2.127-1.489-3.616-2.552-.213.425-.851 1.489-1.489 2.552-1.914-.638-3.403-1.276-4.679-1.701v-5.956h-6.381c-6.594-4.466-12.336-9.784-20.206-12.123-1.702-2.127-2.978-4.68-4.892-6.594-1.914-1.914-4.254-3.403-6.594-5.317.426-1.277.638-2.553 1.064-4.042-2.765-1.914-6.168-2.977-10.21-2.552-1.063-1.489-2.339-2.978-3.828-4.892h-5.318c-2.977-2.552-6.806-4.041-8.933-8.295 1.914-.213 3.403-.213 4.68-.426l2.339 2.34h3.616c.851-.638 1.702-1.489 2.127-2.127l7.657 4.467c.638-.426 1.063-1.064 1.702-1.489-.213-.213-.213-.638-.426-.851-2.765-3.616-7.019-4.892-10.422-7.231-6.381-4.254-12.974-7.87-19.781-11.061-3.828-1.701-7.019-4.466-10.847-6.168-1.489-.638-2.552-2.552-4.467-4.892 2.978.638 5.318.426 6.594 1.489 2.978 2.765 7.232 2.978 9.784 5.956 1.701 1.914 4.679 1.488 6.593 3.828 1.277 1.702 3.829 2.34 5.743 3.616 2.127 1.489 3.829 3.616 6.168 4.467 3.404 1.488 7.019 2.977 9.997 5.104l1.702-1.701c-4.042-2.978-8.083-6.169-12.124-9.146 0-1.702-.213-3.191-.213-3.616-2.127-5.318-8.295-5.743-9.571-10.848 2.127 1.489 5.53 1.064 6.381 4.254 2.978-.212 5.317 2.127 7.87 2.978 2.765.851 5.317 1.914 7.869 3.191 2.553 1.488 4.467 3.19 7.657 3.828 2.553.638 4.892 2.978 7.232 4.679 3.191-.212 5.955.638 8.933 2.34 5.743 2.978 11.486 5.955 16.803 9.571 1.702 1.064 4.467 3.403 6.806-.425-2.339-1.489-4.679-2.552-6.806-4.254-2.339-1.914-4.254-4.041-7.657-4.892-.213-.851-.213-2.127-.638-3.19-.425-1.064-1.489-1.915-2.127-2.766-.851-.212-2.339.639-2.552-1.276-1.489 0-3.191.213-4.467-1.276-1.063-1.063-2.339-2.127-3.828-2.339-6.169-1.489-10.635-5.743-14.676-10.21 0 0-.213.213-.213.425-.638 0-1.489 0-2.34-.212 0-.851 0-1.489.213-2.34 1.063.638 1.914 1.276 2.552 2.127 1.915-.213 4.254.638 5.53 2.127 3.191 3.19 7.445 4.679 11.273 6.806 2.34 1.276 5.105 2.127 6.168 4.892.851.213 2.34-.638 2.553 1.276 2.978 1.064 5.955 1.915 9.571 3.191.426-.213 1.489-.638 2.552-1.276-3.828-3.403-9.784-4.254-12.336-9.146l-.213.213c-.425-.213-.638-.639-1.063-.851l.425-.426c.213.426.638.638.851 1.064.638.213 1.489.213 2.127.425 4.041 2.34 7.87 5.743 12.336 7.232 5.105 1.701 8.296 7.019 14.251 7.232 2.765 3.615 8.082 3.828 10.848 8.082 1.063 1.701 3.828 2.127 5.955 2.978 3.828 1.489 7.232 3.19 10.422 5.955 2.552 2.34 5.956 3.403 9.571 5.53.426-.851.638-1.914 1.064-2.977-1.702-1.277-4.041-3.404-7.019-5.531.851-.85 1.701-1.276 2.552-1.914 1.276.426 2.978.638 3.616 1.489 2.552 3.829 7.019 3.616 10.635 5.53 1.063.638 2.765-.213 4.254-.638 4.254.638 7.444 6.168 12.336 2.127l3.403 1.702c.213-1.064.426-1.915.213-2.127-1.702-1.489-3.191-2.978-5.105-3.829-2.552-1.063-3.828-3.19-5.743-5.317 1.064.425 2.34.638 4.254 1.276.213-.426.426-1.489.851-2.765-4.041-4.679-10.635-7.657-16.59-11.698.213-.426.425-1.064.638-1.915 2.978 1.702 6.168 2.553 8.508 5.105 1.063 1.276 2.978 1.702 4.466 2.552 2.765 1.702 5.743 2.978 8.295 5.105 3.616 2.978 8.083 4.892 12.337 7.232.638.425 1.489 0 2.978 0-.638-1.276-.851-2.34-1.489-2.765-1.276-1.276-1.915-2.553-1.064-4.467h5.318c2.977 3.19 6.593 5.53 10.847 7.444 1.064-1.914.851-3.403-.638-4.466-1.489-1.276-1.702-2.553-.638-4.254 1.701.425 3.19 1.063 5.317 1.701.213-1.914.426-3.403.638-4.892 1.489-.638 3.191-1.488 4.68-2.127.212-2.339-1.702-3.615-2.978-4.253-5.53-2.34-9.359-6.807-14.463-9.572-1.915-1.063-2.765-3.403-4.892-3.828-2.553-.426-3.191-2.978-5.105-3.829-2.127-.851-4.041-2.339-5.955-3.403-3.191-1.489-5.318-4.254-8.721-5.53-3.19-1.063-5.743-4.041-8.721-5.743-4.253-2.765-8.295-5.317-12.761-7.444-4.254-2.127-8.295-4.679-12.337-7.232-3.828-2.765-7.869-4.466-12.123-5.955-1.702-.638-2.978-1.276-2.127-4.041 8.933 4.679 18.292 7.657 25.736 14.676 2.127.425 4.467.85 7.232 1.488-.851-1.276-1.064-2.765-1.702-3.19-2.552-1.276-5.105-2.552-7.232-4.679-1.063-1.064-2.765-1.276-4.041-1.702-4.892-1.914-8.72-5.53-13.612-7.232-8.721-2.977-15.74-9.358-24.248-12.549-1.276-.425-2.127-1.701-3.403-2.339-8.082-5.53-16.59-9.997-25.098-14.889-7.444-4.254-14.889-8.295-22.546-12.336-3.19-1.702-6.168-3.829-9.358-5.53-2.553-1.489-5.105-3.191-8.083-4.042-1.488-.425-2.977-1.063-4.041-2.127-3.403-3.403-7.657-4.891-12.123-6.593-3.404-1.276-6.594-3.19-9.359-5.317-3.616-2.765-8.082-4.254-11.911-7.019-5.743-3.829-11.91-6.807-18.08-9.784-.85-.426-1.488-1.489-2.339-2.765v.638c-1.276-.213-2.552-.213-3.828-.426.212-.851.425-1.489.638-2.127.638.426.85.851 1.276 1.064.638.212 1.276.425 1.914 1.063 1.914 1.064 4.254 1.276 5.956 2.127 7.657 4.467 16.377 7.019 24.034 11.486 10.635 6.168 21.908 11.485 32.755 17.015 1.915 1.064 4.254 1.489 6.381 2.127 1.064 1.064 1.915 2.553 2.978 3.191 9.359 5.104 18.717 9.996 28.288 14.676 3.829 1.914 7.445 4.041 10.423 7.231 1.701.426 3.828-.638 5.104 1.489a9509.14 9509.14 0 011.702-3.403c-1.489-4.679-6.381-4.466-8.295-8.082a451.821 451.821 0 0013.4 5.104c.638-.638 1.488-1.488 2.552-2.339 1.914-.851 4.467.638 6.593-1.276.639-.638 2.765 0 3.829.425 3.19 1.276 6.168 2.978 9.359 4.254.638.213 1.701 0 2.765 0 0-.851.212-1.914.212-2.765-6.168-3.191-12.549-6.381-18.504-9.571.638-1.915 1.063-3.404 1.276-4.892 0-.639-.851-1.277-1.276-2.127h-4.254c-.213.638-.638 1.488-1.064 2.127-.425 0-1.063.212-1.276 0-1.914-2.553-4.679-3.616-7.231-4.68-2.553-1.276-4.467-3.403-7.657-4.041-2.978-.638-5.105-4.041-8.508-4.679-4.892-4.467-10.848-7.019-16.803-9.784-1.914-.851-2.553-2.34-2.127-4.68 1.063-.212 2.127-.425 3.616-.638 0-1.063-.213-2.127-.213-3.403-3.829 1.489-3.829 1.489-5.105 3.616h-4.466c-3.616-1.489-6.594-2.552-10.848-4.254h3.616c1.064-.213 3.191-.213 5.743-.425v-3.403c-1.064-.213-1.914-.213-3.403-.426v-7.019a114.628 114.628 0 01-6.807 4.042c-1.063 1.488-2.552 2.977-4.041 4.892-2.765-1.277-5.317-2.34-8.082-3.616-.638-1.915-1.276-3.616-2.127-5.956.851-.638 1.914-1.701 3.616-2.978v-3.615h-5.105c-.851-1.277-1.489-2.765-2.34-3.404-1.063-.638-2.552-.85-4.466-1.276a186.95 186.95 0 00-7.232 3.403c-3.616-1.276-4.041-5.104-6.38-6.806 1.063-2.978 1.913-5.743 3.19-8.933h2.765c0-1.702.212-3.19.212-4.892-.85 0-1.489-.425-1.914-.213-1.701.426-3.19 1.064-5.105 1.49v-3.83c-1.701 0-3.19-.212-4.679-.212-.638 1.489-1.276 2.552-1.702 3.829.639 2.552 2.978 2.126 5.318 2.977-.85.851-1.489 1.49-2.552 2.765-.426.851-1.277 2.553-2.127 4.467-1.915-.638-3.404-1.064-4.892-1.702a179.274 179.274 0 00-3.616-2.127c1.063-1.276 1.914-2.552 3.403-4.04a234.413 234.413 0 00-4.68-3.404c-.637 1.064-1.063 2.127-1.701 3.19l1.064 1.064c-.426.638-1.064 1.063-1.702 1.914-.638-.638-1.276-1.489-1.914-1.914-.638-.425-1.702-.85-2.978-1.489 1.063-.85 1.914-1.489 2.978-2.127v-4.041h-4.254c-3.19-1.914-5.53-3.19-7.87-4.68.425-1.488 1.064-3.19 1.489-4.679-1.489-.638-2.34-1.276-3.403-1.701-1.49.85-2.978 1.489-4.892 2.552-3.829-2.127-7.657-4.466-12.55-7.232l7.02-2.34a41.923 41.923 0 012.765-2.552c-.426-.638-.426-1.276-.851-1.701-2.552-1.914-4.892-3.616-8.082-4.467-2.127-.425-3.829-1.489-5.53-2.765-2.127-1.701-5.105-2.552-7.87-4.041a60.035 60.035 0 002.977-3.829l-4.679-2.34c-1.063 1.915-1.489 4.893-5.105 3.617l-1.701-1.702c0-2.127 1.276-2.765 5.53-2.978l4.467-4.466c-.851-.213-1.49-.426-2.34-.638.213-.213.425-.638.638-.851h-5.955c-.639-2.127-1.064-4.041-1.702-6.381-2.127-1.702-4.892-1.914-7.444-2.765-.638 3.829-1.064 7.019-1.702 10.422 0 2.127 4.041 1.276 3.403 4.68-1.914-.852-3.616-1.277-4.68-2.34-1.275-1.064-2.339-1.915-4.253-1.702-.85 0-1.702-.85-2.552-1.276C2.54 34.577.2 32.875-2.14 32.45c-1.914-.426-3.402-1.49-3.828-2.553-1.489-4.679-6.38-4.466-9.358-7.231-.639-.638-2.127-.213-3.19-1.276-.639-.851-1.915-1.277-2.979-1.915 2.34-2.127 4.254 1.49 6.594.638 1.702 2.978 5.53 3.19 7.87 5.105 2.552 2.127 5.742 1.914 8.507 3.403 1.277.851 3.19-.212 5.318-2.34-.85-1.276-1.914-2.339-3.19-3.828 1.063-.85 1.914-1.701 3.19-2.765 1.063 2.127 1.914 3.829 2.765 5.318h2.552c.851-1.064 1.702-2.128 2.765-2.978-.425-.851-.85-1.915-1.489-3.19-1.063.425-1.914.85-2.977 1.275-2.553-.425-2.765-2.34-2.553-4.466C-.438 12.457-5.968 5.437-14.05 2.034c.638-.212 1.276-.638 2.34-1.063-.639-1.276-1.064-2.765-1.702-4.041-1.49-.638-2.765-1.277-3.829-1.49-1.276-1.7-2.127-2.977-3.403-4.891 1.49-.638 2.978-1.064 4.467-1.702 1.063 1.915 2.127 3.403 2.978 4.892 2.127.638 4.466 1.276 6.806 1.914.638 1.064 1.489 2.34 2.127 3.404 3.403-.638 3.403-.638 5.317-3.829 1.489.85 2.978 2.127 4.467 2.34 1.914.425 2.765 1.276 3.403 3.19C7.008 2.247 3.179.12 2.54 4.587c.425.212 1.489.425 2.552.85l-.638.639h5.318c.425-.639 1.063-1.277 1.701-2.127h4.467c.425 1.276 1.063 2.977 1.701 4.253l3.829-3.828c-.213-.425-.425-1.702-1.064-3.403 8.721 1.276 17.016 4.041 25.098 7.444 4.254-2.34 9.146-.212 13.826-1.489-.213-2.552-1.915-3.828-3.616-4.466-2.765-1.064-5.53-2.553-8.295-3.829-2.553-1.063-5.105-2.552-7.657-3.616-3.19-1.276-4.041-1.701-6.594-4.679-.85-.85-1.914-1.063-2.978-1.702-1.914-1.276-3.615-2.552-6.38-4.679 2.34 0 3.828-.425 4.04 0 2.979 4.041 8.934 2.978 11.912 6.807 5.317 0 9.146 3.828 13.825 5.317 1.914.638 3.828 1.489 6.168 2.552.213-.638.638-1.489 1.064-2.34 2.127-.425 4.253-.638 5.742 1.702-1.276.85-2.552 1.914-4.679 3.403 3.403 1.49 6.168.426 8.933.851l2.34-2.34h3.616c2.765 3.19 7.657 2.765 11.06 5.105.638-1.276 1.063-1.914 1.489-3.19 1.276.85 2.34 1.701 3.403 2.552l2.978-1.489V-.093c-.426 0-1.064-.425-1.702-.212C92.3.12 90.81.758 89.32 1.184l-.637-.638c.638-1.277 1.488-2.553 2.127-4.042-.213-.212-.638-.638-1.276-1.489h5.742c.851 2.553 4.041 2.553 5.318 5.318 1.489-.851 2.552-1.49 3.403-2.127 1.063-.426 2.127-.851 3.19-1.489 1.489 2.765 2.765 5.317 4.254 8.295 1.702-.85 3.403-1.914 5.53-2.978.426.213 1.489.638 2.553 1.064 4.466 1.701 8.72 3.616 13.187 5.104 4.041 1.277 7.657 3.829 10.422 7.658 1.276-.426 2.552-1.064 4.041-1.49V6.715c7.657 2.552 14.251 6.593 22.758 8.508 2.553-.851 5.53 1.914 9.359 3.403.638-1.276 1.063-2.553 1.702-4.042.212.638.212.213 0 0-2.978-.85-5.318-2.552-8.721-2.977-2.765-.213-5.105-2.978-8.295-3.616-1.489-.213-2.978-1.489-4.467-2.34-5.53-3.616-12.123-5.53-17.653-9.146-2.553-1.701-5.743-2.765-8.295-4.892 2.552-1.701 4.466 0 5.955 1.064 3.403 2.552 7.019 2.765 11.06 3.19-1.701-2.127-4.892-4.254-7.232-4.892-.638-.212-1.488.213-1.701-.213-2.552-3.828-7.019-3.828-10.422-5.955-1.702-1.276-3.403-2.765-4.892-4.041.638-.851 1.063-1.489 1.914-2.553-10.422-2.127-18.079-8.933-27.863-11.698-1.702-2.34-4.892-2.127-7.019-4.041-1.489-1.489-4.467-.638-5.53-2.978-3.829-.425-6.38-3.403-9.571-4.892-3.19-1.489-6.381-3.403-9.572-5.317-5.53 3.403-9.358-.425-13.825-3.19.638-.851 1.064-1.702 1.489-2.553l-1.489-1.489c-1.489 0-3.616-.85-4.892.851-2.552-.425-5.105-.85-7.87-1.489-2.552-2.552-7.444-1.489-10.634-6.168 3.403 1.276 5.742 2.34 8.295 2.765 2.552.425 5.317 0 8.082 0v-3.403c-.85-.638-1.914-1.276-3.403-2.127v-4.254c-1.489-2.127-2.552-4.254-4.254-5.743-1.914-1.701-4.467-3.19-7.019-3.828-2.127-.638-3.828-1.49-5.743-2.765-1.276-.851-2.765-1.276-4.253-1.702-2.978-1.063-5.956-2.34-8.934-3.403l-2.127 2.127c2.34 1.914 4.467 3.828 6.807 5.317 2.552 1.702 5.317 2.978 8.082 4.254-3.829 1.064-9.146-.638-13.825-2.978-1.702.426-2.34 3.404-4.68 2.553-6.168-3.83-9.996-9.785-15.314-14.677-2.977-.426-6.168-1.064-9.146-1.702-3.403 2.34-6.593 4.254-9.783 6.594-5.53-2.552-11.273-5.105-17.442-7.87.639-1.276 1.064-2.552 1.702-3.616-1.276-1.276-2.978-1.063-6.38.426-.852-.426-1.49-.851-2.766-1.489l-4.466 4.466c-3.404-1.914-7.02-2.977-10.635-4.254-1.915-.638-1.702-2.765-2.127-4.679h-4.254c-.213.638-.213 1.064-.425 2.127-.851 0-1.915.213-2.978.213-.851-3.403-.851-3.403-4.467-6.381-1.276 1.702-2.552 3.19-4.254 5.317-2.977 1.064-5.53-2.127-8.72-2.765.425-3.19 1.063-6.593 1.489-9.784-.851-.85-1.49-1.701-2.553-2.765-2.34 1.702-4.466 3.191-6.593 4.467 0 1.276.212 2.127.212 2.552 1.064.851 1.915 1.276 3.403 2.553-1.701.425-2.552.85-3.19.638-2.765-1.064-5.53-2.34-8.295-3.616-.426-.213-1.064-.213-1.914-.426 0-1.488-.213-2.765-.213-4.466h-4.041c-.638-1.276-1.064-2.127-1.915-3.616 1.277-.851 2.978-1.914 4.68-3.19v-4.254c-.426 0-1.064-.426-1.489-.213a61.238 61.238 0 00-4.467 1.276c-2.765-1.063-2.127-5.317-6.168-4.892a640.597 640.597 0 005.317 14.676c-2.977-.638-5.53-1.063-8.507-1.701-.851-.639-2.127-1.702-3.616-2.553 1.276-1.063 2.978-2.339 4.467-3.403-1.702-2.34-5.531-2.34-5.318-6.593 0-1.915-3.19-2.127-4.892-.639-.425.426-.638 1.064-.851 1.489l-.851 1.702c-1.488-1.276-2.552-2.127-4.041-3.403-1.701 1.914-3.403 3.616-5.317 5.53-3.403-2.34-6.594-4.467-9.359-6.381 0-1.489-.212-2.552-.212-3.403-3.403-1.276-4.467 1.063-5.318 2.978-2.339.425-4.679.638-7.444 1.063-2.552-1.914-6.594.425-9.359-1.063-2.977-1.489-6.593.425-8.72-2.34-.851.638-1.489 1.063-2.127 1.489a416.14 416.14 0 01-7.445-2.765c-.212 1.276-.212 2.552-.212 3.616 1.489.212 2.552.425 4.466.638-1.488 1.701-2.339 3.19-3.615 4.466-4.042.213-7.019-1.276-10.21-3.403-2.765-1.701-6.593-1.701-10.422-2.765-.638.426-1.489 1.276-2.552 2.127.425.638.851 1.702 1.276 1.914 4.892 1.702 8.082 5.743 11.485 9.146 4.467.426 4.467.426 11.486 7.87 1.489-.425 2.765-1.064 4.041-1.489 1.489 1.489 2.553 2.765 3.616 4.041 5.955-.85 10.209 1.915 15.101 4.042-1.488.85-2.765 1.701-3.828 2.552v2.552c2.765 1.064 5.53 2.127 8.508 3.19 0 4.255-4.467 4.68-5.956 7.658 1.914 2.34 6.381 1.489 6.807 5.317 5.53 0 5.742.213 9.145 3.829-3.403-.426-6.38-1.064-9.145-3.829-.639-.213-2.127.213-2.978-.425-2.978-2.34-6.168-2.127-9.571-1.915-.426 1.064-1.064 2.127-1.489 2.978.638.426 1.489 1.064 2.127 2.34v-.638c.85.212 1.488.212 2.339.425 0 .213 0 .425-.212.85-.851 0-1.489-.212-2.34-.637-2.127-.426-4.467 0-6.381-2.34-1.702 2.553-3.403 4.68-5.105 7.02 1.489 1.063 2.765 1.913 4.041 2.977v2.127c1.489.638 2.978 1.276 4.68 2.127v-4.892c-.638-.638-1.276-1.49-2.127-2.34.425-.213.851-.638 1.063-.425 4.467 1.489 8.721 3.616 13.4 4.68 3.616.85 6.594 2.126 7.87 5.955.213.425 1.276.425 2.127.85-2.765 2.34-5.105-.638-8.083-.638-.638 1.064-1.488 1.915-1.914 2.765h-5.53c-.213-.638-.425-1.276-.851-2.127h-3.19v7.87c-2.765.85-5.105 1.489-7.445 2.127v2.978c1.064.212 2.128.425 3.404.638 0 .212 0 .638-.213.85-2.34 1.49-4.679 2.766-7.019 4.255.638.638 1.276 1.276 1.489 1.701 3.19.638 6.168 1.064 9.997 1.702-.638-2.34-1.489-4.254-1.489-5.956 0-1.701.85-3.19 1.276-5.105 1.489 0 2.765-.212 4.467-.212.638-.851 1.276-1.702 2.126-3.19 1.489-.426 2.978-2.553 5.318-1.277-1.276 3.19-.851 5.105 1.063 5.743 2.127.85 3.616-.638 4.68-4.892 4.892 2.127 9.784 4.041 14.463 6.168 1.702.85 3.403 1.914 3.616 4.892a559.839 559.839 0 01-14.038-4.467c0-.212 0-.425.213-.638h-5.743c.212.851.212 1.915.638 2.127 4.254 2.127 7.87 5.318 12.549 6.594 1.914.425 3.616 2.34 5.53 3.828-2.765 1.702-4.679.639-6.806-.638-1.064 1.49-2.34 2.765-3.191 3.829-3.403-.213-6.168.638-9.146-1.914-.638 1.063-1.063 2.127-1.489 2.765-2.552 0-4.041.425-5.955-.851-1.702-1.276-3.829-1.702-5.743-2.34-.851-.212-2.127-.85-2.765-.425-4.466 2.552-8.082.425-11.698-1.914-1.702-1.064-3.829-1.49-6.168-2.34.425-.85.638-1.702 1.063-2.765-.212-.638-.851-1.702-1.276-2.765h-5.105c-.638-1.276-1.063-2.34-1.914-3.616.851 0 1.914-.213 2.978-.213 1.063-1.914 2.339-4.04 3.616-6.168.212.213.638.213.85.426-.212 1.063-.638 1.914-.85 2.977 2.339.426 4.892.851 8.082 1.49.425-.214 1.064-1.064 1.914-1.915-1.063-2.765-2.127-5.53-3.19-8.083 1.063-.638 1.914-1.063 3.19-1.488-.638-1.064-1.276-1.915-1.701-2.765h-6.806c1.914 1.063 2.977 1.488 3.828 1.914-2.765 3.403-5.743 2.552-8.933 2.765a103.548 103.548 0 01-2.978 7.232c-1.701-.426-3.403-1.064-5.105-1.49-1.063 1.49-1.914 2.766-2.765 4.255-.638-.426-1.276-.639-2.127-1.064l-3.828 2.552c-2.34-1.488-4.041-2.552-6.168-4.04-1.276 1.7-2.765 3.402-4.254 5.53 1.701 1.275 3.19 2.552 5.105 4.04-.426.639-1.064 1.702-1.702 2.766-.638-.426-1.064-.851-1.702-1.49a97.235 97.235 0 01-4.466 2.128c3.403 1.701 6.168 3.19 9.146 4.679.212-.213.212-.425.425-.638 1.489 1.701 2.978 3.403 4.254 4.466 2.765.639 5.105 1.064 7.232 1.915 1.914.85 3.403 2.765 5.317 3.19 2.34.638 4.254 1.489 7.019 3.829l-3.403-.851c-4.892-1.702-9.997-3.616-14.889-5.53-1.489-.426-2.978-.851-4.254-1.49-2.552-1.275-5.317-2.339-8.295-2.126-1.489.213-2.552-.425-3.828-1.063-2.34-1.064-4.68-2.553-7.657-.213-1.702 1.276-4.467 1.063-6.381 1.489a238.371 238.371 0 00-4.68-3.404c.213-.212.426-.638.851-.85 2.978-1.915 5.956-3.616 9.571-5.956 1.277-.425 1.915 1.915 3.829 2.765.638-1.489 1.063-2.765 1.702-4.254-2.34-1.276-4.467-2.34-6.169-3.19-.85-2.34 2.553-4.041.213-6.38-1.276-1.277-1.701-3.191-2.765-5.318-2.127 1.914-3.828 3.616-5.743 5.317-1.701.426-3.403 1.064-5.53 1.489v-3.403h-5.104c.425 2.765-.639 4.68-3.616 4.892v3.19h3.19a26.37 26.37 0 00.638-2.127h2.978v2.765c1.489.851 2.765 1.702 4.041 2.553l-1.276 1.276c.425.638.638 1.063 1.063 1.701l-1.914 5.105c-.638 0-.851-.212-1.489-.212.426-.851.638-1.49 1.064-2.34l-4.254-4.254c-.425 1.489-.638 2.765-.851 2.978-5.955.425-9.358-1.702-12.549-4.892 2.127-2.553 3.829-.426 6.168.212.638-.425 1.489-1.276 2.978-2.765-1.489-1.276-2.552-1.914-3.616-2.765-.851.426-1.489 1.064-2.127 1.49-.851-.639-1.701-1.49-2.765-2.766l-4.466 3.829h-2.766c.213-.426.213-.851.426-1.064 1.276-1.701 2.978-3.19 3.828-5.105.851-2.34 2.34-3.403 4.467-4.254 2.765-1.063 1.489-4.466 3.403-5.955-1.063-.638-2.339-1.276-3.19-2.127-.638-.85-.638-2.127-.851-3.19h-3.616c.426 2.127.851 3.828 1.489 6.593-2.765-2.127-4.467-4.466-6.806-5.317-2.34-.85-4.892-1.276-6.806-3.403v-5.318h-3.191c-1.489 1.702.638 3.19.638 4.68 0 1.701-.851 3.19-1.276 4.679-2.34.85-4.679-.85-6.594 1.489-1.914-2.127-4.041-4.041-5.742-5.956h-4.467v4.254c2.127 1.914 3.616-1.063 5.53-.638 1.489 1.914-.851 4.892 1.064 6.168-1.489 1.49-2.978 2.978-4.892 4.68-2.553-1.915-3.404-4.892-3.191-8.295-1.914.425-3.403.638-4.679 1.063-2.34-1.489-4.254-2.978-6.168-4.254 1.489-1.489 2.765-2.978 4.679-4.892-1.914-.425-3.19-.638-4.254-.85-.213 1.063-.425 1.488-.638 2.126-.425.213-.638.426-1.063.426-1.064 0-2.553-.426-2.978 0-2.765 3.19-5.105-.851-7.657-.213-3.191-3.829-8.721-2.765-12.124-5.956-3.616.639-4.466-1.701-4.254-5.317-4.892 2.765-9.146 1.702-13.4-.85-2.127-1.277-4.466-1.915-7.657-3.404l-4.041-4.041c-1.914 0-3.828.425-5.53-.213-3.19-1.276-6.594-1.701-9.784-2.978-2.765-1.063-5.53-2.765-8.508-4.253h-5.105c.426.85.851 1.701.639 2.552 5.53-.638 9.571 2.127 13.187 3.828-.213.851-.638 1.702-.851 2.34-4.679-1.276-7.87-4.041-12.336-6.168-1.702-.425-4.68.851-5.53-2.978v.638c-1.277-.212-2.34-.212-3.616-.425.638-.638 1.063-.851 1.489-.851.638 0 1.488.213 2.127.851 1.701.425 3.19.425 4.891.425-.638-2.552-2.765-2.339-4.679-2.765-3.19-.851-6.593-1.701-9.571-3.403-5.53-2.978-11.911-3.828-17.654-7.444v-4.68h-3.19c-.851 1.277-1.489 2.34-1.914 3.191-6.807-2.34-13.4-4.467-20.207-6.806-.85.638-1.914 1.276-4.253 2.765 2.339.425 3.615.212 4.466.638 2.127 1.701 5.53 1.914 6.381 5.104 4.041 1.915 8.082 4.042 12.336 5.743 1.276.638 3.191.426 4.254 1.276 2.553 2.127 5.318 2.765 8.295 3.829 2.127.851 4.254.638 6.168 1.489 1.915 1.063 3.829 1.701 5.531 2.765 1.489 1.063 3.828 1.489 5.742 2.339 3.191 1.49 6.594 2.766 9.997 4.042 2.978 1.063 5.743 2.978 8.721 3.828 1.276.426 2.339 2.127 3.615 3.616-2.765 2.127-4.892 2.34-8.082 1.489-6.594-1.914-12.762-4.68-19.355-6.381-1.489-.425-2.553-1.702-3.829-2.34-4.041-1.701-7.87-3.828-12.123-4.679-2.553-.425-3.829-3.19-6.807-2.978-2.127.213-4.466-1.701-6.593-2.765-1.702-.85-3.191-2.127-5.318-1.914-.638 0-1.489-.213-2.127-.851-1.701-1.701-4.041-1.914-6.168-2.977-4.679-2.553-9.784-4.042-14.676-5.956-2.552-1.063-5.104-1.701-7.444-2.552-1.914-.638-3.829-1.489-6.594-2.553-.212.426-.425 1.489-1.063 2.978-.426-.213.213.213.851.425 5.317 1.489 10.209 4.042 15.101 6.381 4.467 1.915 9.146 3.403 13.825 4.892 3.829 1.277 7.445 2.978 11.698 4.254-4.466.638-4.466.638-8.72-1.914-4.254 1.276-7.657-1.914-11.486-2.978-3.19-.851-6.168-2.765-9.784-3.19-1.914-.213-3.828-1.702-5.742-2.34-6.169-1.701-12.124-4.254-18.718-5.317-.425 0-.638-.638-.425-.426-.851.426-1.702 1.064-2.765 1.489.851 1.064 1.276 1.702 1.702 2.34-.213.213-.426.638-.851.638-4.467-.213-8.721-1.702-12.762-3.19-5.53-2.127-10.847-4.467-16.378-6.381-1.276-.426-2.765 0-4.892 0 .851 1.489 1.277 2.765 1.915 3.19 4.041 1.702 7.444 3.829 10.847 6.594 3.191 2.552 6.806 4.041 10.848 4.892 1.701.425 2.977 1.276 2.552 3.19-5.53.426-5.53.426-9.359-.851-.212.638-.425 1.064-.638 1.915 7.232 2.765 14.676 4.041 22.546 5.742-.425-.85-1.063-1.488-2.127-2.765 1.702.213 2.34.213 3.19.426-.212 1.063-.425 1.701-1.063 2.339-.213 2.127 1.914.851 2.978 1.277 7.231 2.552 14.038 5.53 21.269 7.657 7.445 2.34 14.251 6.168 21.695 8.082 2.34.638 4.254 2.765 6.594 2.978 2.765.212 4.892 2.34 7.444 2.765 2.553.425 4.68 1.701 6.806 2.552 2.34 1.064 4.892 2.127 7.445 2.978 4.892 1.702 9.146 4.467 13.825 6.806 4.254 2.127 9.146 3.403 13.825 5.105.213.213.426.425 1.702 1.276-3.829-.638-6.594-.85-9.359-1.276.213 1.276-.638 2.978.851 3.828.851.638 2.127.851 3.19 1.064 2.553.212 4.042 2.765 6.807 3.19 2.977.426 5.53 2.127 8.507 3.403v2.34c4.892 3.403 10.21 4.68 15.102 7.019 4.679 2.34 9.784 4.254 14.676 6.168 4.466 1.702 8.72 3.829 13.187 5.318.851.212 1.276 1.488 2.34 2.765-2.34.212-4.467.85-5.105.212-1.914-2.127-4.679 0-6.594-2.127-1.489-1.488-4.041-1.914-5.955-2.977-7.444-3.404-15.101-6.807-22.971-9.572h-.638c-5.743-4.466-13.4-5.317-19.568-8.933-4.041-2.552-8.934-2.765-13.4-5.105 0-.212-.213-.85-.213-1.489-2.765-.638-5.317-2.126-8.508-1.701.851.85 1.702 2.552 2.34 2.34 3.19-1.064 4.892 1.701 6.806 2.765 2.34 1.489 4.467 3.616 7.232 4.466 2.552.638 4.892 2.127 7.444 2.978 3.191 1.063 5.956 3.19 9.359 4.041 3.19.638 5.743 3.19 9.146 3.19 5.105 4.467 12.336 4.68 18.079 8.083 4.467-.213 7.232 4.254 11.698 4.467.638 0 1.064 1.063 1.702 1.701-.426.638-.851 1.276-1.702 2.34 4.679 1.914 9.146 4.041 13.613 5.743 1.488.425 2.339 1.063 2.765 2.977v-.638c.85.213 1.489.213 2.339.426 0 .212 0 .425-.212.85-.851 0-1.489-.212-2.34-.638-2.34-.212-4.679-.85-6.806-1.701-5.956-1.914-11.911-3.829-17.654-6.168-.851-.426-1.702-1.064-2.978-1.915 1.702-.425 2.978-.638 4.68-.85-2.553-.638-4.042-2.765-6.594-1.49.213.426.638.852 1.064 1.49-.426.212-.851.425-1.064.638-.425.212-1.063.425-2.127 1.063-1.489-1.063-3.403-2.552-5.317-3.828.638-.638.85-1.064 1.701-2.127-1.701 0-2.765 0-5.53.638-.638-.213-.425-.638-.213-.638.639 0 1.064.425 1.702.425-.638.213-1.489.425-1.489.213.638-2.978-1.701-1.914-3.403-2.978-1.914-1.276-4.892-1.276-7.232-1.276-2.339 0-4.254-1.914-6.806-1.489-.851.213-2.127-.85-3.19-1.063-7.232-2.553-14.464-5.53-21.908-8.083-4.041-1.276-8.082-3.19-12.124-4.68-6.38-2.339-12.549-5.104-18.93-7.656-2.339-.851-4.679-1.49-7.018-2.127-2.34-.638-4.042-2.552-6.169-2.978-2.339-.425-3.828-1.914-5.742-2.552-3.191-.851-5.743-2.978-8.721-4.041-2.765-1.064-5.955-1.277-8.295-3.616-.425-.426-1.489 0-2.34 0-1.063-1.064-1.914-2.127-2.977-2.978l1.063-1.064c-1.914-.85-3.616-1.914-5.955-2.977h-7.657c.638 2.552 2.127 3.616 4.041 4.68 5.53 3.615 12.123 4.466 17.866 7.23 2.978-.637 4.254 3.617 7.444 2.766 1.277 1.489 2.978.638 4.467.85 3.191 4.255 9.784 2.766 13.187 7.445-2.552 1.063-2.552 1.063-6.168-.213-.851 2.34.638 2.978 2.552 3.616 1.915.638 3.829 1.489 5.743 2.34 0 1.914.213 3.19.213 4.679 1.489.85 2.978 1.914 4.466 2.978.213 1.063.426 2.127.426 3.403 5.105 3.828 11.06 5.317 16.59 7.444 5.105 1.914 10.635 2.978 15.527 5.105 4.892 2.127 9.997 2.978 14.889 5.743 2.339 1.276 5.317 1.914 8.082 2.765.851.212 1.702.638 2.552 1.063 6.381 2.978 13.187 4.254 19.568 7.657 1.064.638 2.553.638 3.829 1.276 2.127 1.277 4.466 1.915 6.806 2.553 2.978.85 6.381 2.127 8.721 4.679l.212-.213c.426.213.638.638 1.064.851l-.426.426c-.212-.426-.638-.639-.85-1.064-5.956.425-11.06-2.34-17.016-4.892-3.616.85-7.657-2.765-12.336-.85 5.104 1.488 9.996 3.402 15.101 4.253 3.403.426 6.381 2.127 9.146 3.19 2.765 1.277 6.168.851 8.508 2.978 3.403-.85 5.955 1.49 8.508 2.765 2.977 1.49 5.742 2.765 8.933 3.829 2.34.638 4.466 1.489 5.955 3.403.638.85 2.127.85 3.616.638 1.276 1.276 2.34 2.765 2.978 3.403 3.828 1.49 6.806 2.553 9.784 3.829.638.425 1.063 1.489 1.489 2.552 1.276.638 2.977 1.276 4.466 2.127 0 .638-.212 1.064-.212 1.702-.426.212-1.064.425-1.277.212-4.679-2.765-9.996-3.403-14.675-5.955-2.34-1.276-4.467-2.553-7.232-3.403-3.829-1.064-7.232-3.19-10.848-4.68-2.977-1.276-6.168-1.276-9.571.213-.425-.638-1.063-1.701-1.702-2.765-3.828 3.403-7.444.85-10.634-.213-5.318-1.701-10.422-4.466-15.953-5.955-1.701-.425-3.403-.85-4.891-1.276-6.381-2.34-13.188-3.19-19.356-6.806-.851-.426-2.339 0-3.616 0-.212-.639-.425-1.064-.638-2.127-1.276 0-2.765-.213-4.679-.426 0 1.276-.425 2.552 0 2.978 1.276 1.276 2.765 2.978 4.254 2.978 3.403 0 5.955 1.701 8.72 3.19.851 3.616 4.467 4.041 7.87 4.892-.425 1.914-.638 4.041-1.276 6.594 7.87 4.04 16.165 8.507 24.46 12.761-.213.213-.213.426-.425.851-4.68-1.063-9.359-2.127-14.038-2.978-.851.426-1.702.639-2.553 1.064 0 .213 0 .638.213.85 1.489 1.915 3.403 3.404 5.743 3.616 1.276.213 2.127.639 3.19 1.49 1.702 1.275 3.403 2.552 5.743 2.339.638 0 1.702.213 2.127.85 1.064 1.915 3.191 1.277 4.679 2.128l-1.701 2.552c.85.638 1.914 1.276 2.977 2.127 4.467-2.552 8.296-.425 12.337 1.489 2.339 1.063 4.892 1.914 7.232 3.19 2.339 1.49 4.891 2.34 7.018 3.616 1.064.638 2.127 1.064 3.404 1.702-2.127 1.063-5.105.425-5.318 3.403-.213 1.914.638 2.978 2.552 3.616.639-1.49 1.277-3.19 1.915-4.892 2.127 0 4.466 3.828 6.168 0 8.082 3.615 15.527 7.019 23.609 10.634.426 1.277 1.064 3.404 1.702 5.956-1.276.85-2.765 1.489-4.892 2.978-.213 0-1.489-.638-3.403-1.276-.426.638-.851 1.488-1.489 2.34 3.616 4.678 9.784 5.955 14.676 9.57 1.063.639 2.765.426 4.254.639 2.127 2.34 5.317 4.04 7.231 7.019 1.276 2.126 4.254 1.276 6.168 2.552 1.064.638 2.127 1.063 3.191 1.701-3.191 2.127-4.679-1.276-7.019-1.701h-6.168c-.851 1.276-1.702 2.552-2.553 4.254a78.756 78.756 0 01-6.168-2.765c-1.489 1.063-3.403 2.977-5.317 3.19-2.34.426-4.254 1.276-6.381 2.34-1.276.425-2.978 0-4.467-.426-1.488-.425-2.977-1.063-4.041-1.914-2.765-1.914-5.317-3.19-8.933-2.127-1.914-4.466-6.381-4.892-9.784-6.168-4.254-1.701-8.295-3.616-12.549-5.317-11.698-4.254-23.184-9.359-35.095-12.975-5.317-1.701-10.847-3.828-16.803-4.254-1.489 0-2.978-2.127-5.105-.425 1.915 3.19 4.68 4.892 8.296 5.743 2.552 1.914 5.317 4.254 8.082 6.38-4.679 2.34-7.87-1.914-11.911-1.914-.425.851-.638 1.702-.851 2.34-3.19.85-6.168 0-8.082-1.489-3.829-.85-7.232-1.063-9.784-2.552-2.765-1.702-5.53-1.702-8.508-1.915-2.552-.212-5.105.639-7.657-1.063-1.276-.85-3.403 0-5.317 0 .425 2.552 2.127 3.828 3.828 4.68 2.978 1.276 5.318 3.615 8.933 3.615 4.254 3.829 10.21 4.041 14.889 7.232 3.403 2.34 7.232 3.19 10.848 4.679 3.403 1.489 7.019 2.765 10.422 4.254 3.828 1.702 7.657 3.19 11.485 5.105 2.34 1.276 4.679 3.828 7.87 3.403 2.34 2.765 7.019 1.914 8.508 5.955.425.851 2.339 1.064 3.616 1.489 4.466.851 8.082 4.041 12.549 5.318.85.212 1.276 1.701 2.765 3.615-2.34-.638-3.616-.638-4.892-1.063-7.445-2.978-14.889-5.318-22.546-7.657-.638-.213-1.276 0-1.914 0 3.19 2.127 5.104 2.978 9.784 4.041v1.702c-.426.212-.851.425-1.064.425-3.19-1.276-6.168-2.552-9.358-3.829-1.702-.638-3.616-1.063-5.318-1.701-1.701-.638-3.19-1.702-5.317-1.914-2.34-.213-4.892-1.064-7.019-2.34-5.53-3.403-12.124-4.467-17.654-7.444-.213-.213-.213-.638-.425-1.064-.851-.213-2.34.638-2.127-1.701-.426.212-.638.212-.851.425l-.425.425c-1.064-.212-1.915-.638-2.765-.85.212-.213.425-.638.638-.851 1.063 0 2.127.213 3.615.851.639.638 2.127-.213 2.127 1.701 4.467-.638 8.083 1.914 11.911 2.978 1.277.425 2.553.425 3.829.638-2.978-2.765-7.019-3.19-10.422-4.892-2.765-1.276-5.743-1.702-8.508-3.403-2.34-1.489-5.317-2.127-8.082-2.765-4.892-1.064-9.784-1.489-14.464-3.616-2.127-.85-5.104 0-7.657 0v1.702c4.041 2.552 8.933 3.615 13.613 7.869-6.594-1.276-11.486-4.254-17.654-3.403 2.978 3.403 5.956 6.168 9.784 7.657 5.105 2.127 9.571 5.53 14.889 6.806 2.339 2.765 5.955 2.127 8.933 3.616 2.978 1.489 6.168 2.127 8.72 3.829 3.191 2.127 6.594 3.616 10.21 5.104.425.213 1.063.851 1.489.851 3.828-.425 5.955 2.765 8.933 4.254-2.978 1.702-5.318 2.553-8.721.851-5.104-2.34-10.847-3.403-16.164-5.105-.851-.212-1.702-1.063-2.553-1.063-1.276-.213-2.765 0-4.041 0-1.276 2.127.851 3.616 1.276 3.616 3.191-.426 5.105 2.552 8.083 2.765 2.765.212 5.104 3.19 7.657 3.19 4.892.213 8.295 3.829 12.974 4.467 6.594 1.063 11.698 5.317 17.867 7.019 6.168 1.701 11.91 4.892 17.866 7.231 2.765 1.064 5.743 2.34 7.87 4.68.638.638 1.488 1.063 2.765 1.914 0 1.489.638 3.19 2.127 4.679 1.488 1.276 4.041 1.064 4.253 4.041-.85.426-1.701.638-2.765 1.277.639 1.063 1.064 2.339 1.915 2.765 5.317 1.914 9.358 6.806 15.101 7.869 2.978 3.403 7.232 4.042 11.06 5.956 2.34 1.063 4.467 2.127 6.381 4.041 1.064 1.064 2.553 1.914 3.829 2.552 2.765 1.702 5.53 3.191 8.508 4.68 2.552 1.489 5.955 1.489 8.082 4.254 5.317.638 8.933 4.254 13.187 6.593-.638 1.914-1.063 3.616-1.701 5.105 4.892 3.19 9.358 6.381 14.25 9.146 6.806 3.616 13.4 7.657 19.993 14.038-2.127-.638-2.765-.851-3.615-1.064-3.616-1.276-6.594-3.403-10.422-4.466-1.915-.638-3.829-.213-6.381-1.277-.638-.425-1.489-1.276-3.191-2.765-.85 1.489-1.701 2.978-2.765 4.68 0 0 .426 1.063 1.064 1.914.425 0 .851.213 1.063.213 5.743-1.489 7.444-1.489 12.124 2.127 2.339 1.701 5.317 1.488 7.231 3.403 1.915 1.914 4.254 3.403 7.019 2.977.213 1.064.426 1.489.638 2.127 1.064.213 2.34.426 3.191.851 2.552 1.276 4.892 3.191 7.444 4.254 2.127.851 3.829 2.552 6.381 2.552.851 0 1.489 1.489 2.34 2.34 2.339-.213 4.679.213 6.168 2.552l.213-.212c.425.212.638.638 1.063.851l-.425.425c-.213-.425-.638-.638-.851-1.064-2.127-.212-5.105 1.064-6.168-2.552-1.914.213-3.403-.638-5.105-1.063-1.702-.426-3.403-.426-4.892-1.915-1.063-1.063-3.403-.638-4.892-1.488-6.593-3.616-14.038-4.68-20.631-7.87-2.978 1.276-3.616-3.403-6.381-2.553-1.702-1.701-4.467-.85-6.168-2.977-.851-1.064-3.191-.851-4.892-1.489-2.127-.638-4.254-1.489-6.594-2.127-.638.851-1.276 1.489-1.914 2.127.212.213.212.638.425.638 5.105 2.978 10.21 6.168 15.314 9.146.851.425 1.915.638 3.191 1.063 1.063 1.064 2.339 2.553 3.616 4.042l2.552 5.104c-.851.638-2.127 1.489-3.829 2.553 1.064 1.063 1.702 2.765 2.34 2.765 4.467 0 7.657 3.615 11.698 4.466.426 0 .638.638.851.851-.425 1.276-.851 2.34-1.276 4.041 4.466 2.34 8.933 4.467 13.187 6.594 4.254 2.127 8.295 4.466 12.549 6.381 2.765 1.276 5.53 2.977 8.508 3.19 2.765.213 3.616 2.127 5.955 3.616h-5.317c-3.829-1.702-7.019-3.403-10.422-4.679-3.191-1.064-6.381-2.127-9.571-3.616-1.915-1.064-4.254-1.489-6.381-2.127-4.254-1.489-8.721-2.765-12.975-4.254-3.616-1.276-7.231-2.127-10.635-4.254-1.276-.851-3.403-.213-5.955-.425.425 1.914.851 3.615 1.489 5.317-.426.638-.851 1.489-1.276 2.34 2.339 3.615 7.019 3.19 10.422 5.53-1.064.85-2.127 1.489-2.978 2.127 0 3.403 2.978 3.828 4.679 4.254 4.042 1.063 7.445 2.977 10.422 5.955 1.064 1.064 2.34 2.127 3.829 2.552 4.254 1.489 9.146 1.702 12.549 5.105 4.041-.425 6.806 2.34 10.209 3.616 2.127.851 3.616 2.34 4.042 4.679 1.914.426 4.041.213 4.466 3.191 0 0 .213-.426.213-.851 2.127.638 4.041 1.489 6.168 2.127-.213.851-.213 1.276-.425 1.914-1.915-.851-4.042-1.701-5.956-2.978-2.127-.85-4.892-.85-6.593-1.914-4.254-2.765-9.359-3.828-14.038-6.381-3.191-1.701-6.381-3.828-9.784-4.254-3.829-.638-6.381-3.403-9.997-4.041-2.978-.425-5.743-2.765-8.72-4.254-.851-.425-1.915-.425-3.616-.851-.638-.85-1.702-2.127-2.553-3.19-1.489 0-2.552-.213-3.828-.213 1.276-1.276 2.127-2.127 2.765-2.977v-4.042c-1.064 0-1.914 0-2.978-.212a758.788 758.788 0 01-5.743 6.38c2.978 2.766 6.807 3.829 10.21 5.956 3.19 1.914 6.593 3.828 9.784 5.743 0 .425 0 .85-.213 1.701-1.701-.425-3.19-1.063-5.317-1.701-.426 1.063-.638 2.127-1.277 3.828l2.127 2.127c-2.552.851-5.104.213-7.444 1.489s-2.34 4.467-5.955 4.467c-2.765-1.276-6.169-2.765-9.572-4.254-1.489 1.701-3.19 1.701-4.892 0l-1.701 1.701c1.489 2.765 3.19 5.53 1.914 9.146-3.829 1.276-7.232-.851-11.273-2.339a19.44 19.44 0 01-1.701 2.765h-10.848c.638 3.19.638 3.403 4.467 5.317v5.956c2.977 3.615 6.593 6.168 11.06 6.806 1.701.212.851 2.978 3.19 2.765.851-.213 1.915 1.489 2.978 2.765v-.638c.851.212 1.489.212 2.34.425 0 .213 0 .426-.213.851-.851 0-1.489-.213-2.34-.638-2.765-.851-5.317 0-8.082-1.489-1.914-1.276-5.105.638-7.444-1.276-.851-.638-2.765 0-4.254-.213-1.276 0-2.34-.425-3.616-.638-.851-.213-1.489-.425-2.765-.638-1.914 1.489-4.467 3.19-7.019 5.105l-3.191-1.064c-.212.213-.85.638-1.063 1.064l3.828 3.828c-.85.638-1.063 1.064-1.488 1.064-3.616.425-6.807-1.064-10.21-1.915-3.19-.85-6.168-2.127-9.784-1.701-2.339.212-4.892 0-7.657 0 2.34 1.701 4.041 3.19 5.956 4.892 1.063 0 2.552-.213 3.615.425 4.892 2.765 10.423 3.616 15.315 5.743 2.765 1.276 5.742 2.127 8.507 3.19 4.254 1.915 8.721 1.702 13.4 1.489-2.765-3.828-6.806-6.168-8.933-9.996 2.978-2.978 5.743 1.488 8.508 0 .212-.426.213-1.064.425-2.127 2.978 0 6.168-.213 9.359 0 2.765.212 5.743.85 9.571 1.276-2.127-1.276-3.19-2.553-4.041-2.553-3.191.213-6.168-.638-9.359-1.276-.638 0-1.276.851-1.489.851-1.914-.425-3.615-.638-5.317-1.063-1.914-.426-3.829-.639-5.53-1.277-1.489-.638-2.978-1.914-5.105-3.19 4.467-.851 7.87-.851 11.273 2.127 6.594-1.064 12.549 3.828 17.866 2.552 5.318 1.702 9.359 2.978 13.188 4.254v1.276c-3.616-.638-7.232-1.276-10.848-2.127 3.616 3.829 8.083 5.318 12.549 4.892 2.765-1.914 1.702-4.254 1.914-6.38-1.914-3.191-5.317-4.68-7.869-7.87 2.765.425 5.104.638 7.444 1.063 0 .213.213.851.638 1.702 1.914.425 4.254 1.063 6.806 1.489v-3.191c-1.063-.85-3.828-.851-3.19-4.041 6.381.425 11.273 6.168 18.292 6.168-.426-2.765-1.914-4.041-3.829-4.892-.851-.425-1.489-1.489-2.127-2.765 0 0-.212.213-.212.426-.638 0-1.489 0-2.34-.213 0-.851 0-1.489.213-2.34 1.063.638 1.914 1.276 2.552 2.127 4.467.213 8.933 1.276 13.187 3.191 3.191 1.489 6.594 2.339 10.848 3.828a71.523 71.523 0 01-5.53 4.041c-3.404 1.489-5.956-2.765-9.784-2.339-1.064 1.701-2.127 3.828-2.978 5.317.638 4.467 3.616 3.191 5.955 3.616.213.638.213 1.063.426 2.127 1.276 0 2.765.213 3.615.213 1.489-2.34 2.553-4.467 3.616-6.169h4.254c1.702 2.127 5.105 2.978 5.53 6.381-.425.851-.85 1.489-1.489 2.765 1.277.638 2.553 1.489 4.467 2.34.638-1.064 1.276-2.127 1.914-3.403.638-1.064 1.064-2.34 1.915-3.829 1.701 1.489 2.765 2.34 4.041 3.403 1.276-1.488 2.339-2.977 2.765-3.403 5.53-1.276 8.082.851 10.847 3.829-1.489 1.063-2.765 2.127-4.254 3.19l3.191 3.191c2.978.638 5.317 1.063 7.869 1.489l.851-.851c.213 0 .638.212.851.212.638.639 1.276 1.064 1.702 1.702.638 1.276.85 3.19 1.914 4.041 1.063 1.064 3.19.851 4.041 1.915 1.702 1.914 3.403 1.701 5.53 1.488.213-.212.426-.212.426-.425v-4.254c-1.064-.638-2.553-1.276-4.68-2.34-1.489-2.127-3.403-5.104-6.168-8.933-.425-.212-1.914-.851-3.616-1.063-2.552-.638-2.977-2.34-2.552-4.467.213-.213.213-.425.425-.425h3.616c1.702-1.064 3.191-2.127 4.892-3.403 1.489.85 3.403 1.701 5.53 2.765-.212 1.063-.425 2.339-.85 4.041.212.638.85 1.701 1.701 2.978 1.914-1.064 3.829-1.915 5.53-2.765 3.616.85 6.594 2.339 9.571 4.466 0 .851.213 1.702.213 2.765h5.318c.85 1.064 1.914 2.127 2.977 3.403-4.679 1.915-9.358-1.276-14.038-.638-1.489 1.276-2.552 2.553-1.489 4.68 5.105.638 10.21 1.276 15.74 1.914-1.276 1.063-2.552 1.914-4.041 2.978.212.85.638 2.339 1.276 4.253 2.552-1.914 4.467-3.19 6.593-4.679-.638-2.765-1.063-5.105-1.701-8.295 4.892 2.552 8.933 5.105 13.4 6.806 4.466 1.915 9.571 1.915 13.612 5.743 0-1.276 0-1.701.213-2.34-.851-.212-1.489-.638-2.552-1.063.425-1.489.85-3.19 1.488-5.105a743.27 743.27 0 01-6.593-1.489c-2.552 1.064-2.552 1.064-7.019-.85.425-1.489.851-3.191 1.489-4.68-2.553-3.403-6.594-3.19-9.571-4.892-1.064-2.127-1.915-4.466-3.404-7.444 4.68.851 8.083 5.53 12.549 1.914-.425.851-.85 1.489-1.276 2.34.638.638 1.064 1.276 1.489 1.701 4.041.426 7.87 1.064 11.911 1.489v9.146l3.403 1.702c2.978-2.34 6.594-3.829 10.21-5.105v-2.978c-3.829.213-3.404-4.254-6.169-5.742 1.277-1.064 2.553-1.915 4.042-2.978 6.381 4.466 14.676 6.806 21.695 10.847 4.04.638 4.679-3.403 7.231-5.104 3.616 1.276 7.445 2.339 10.635 4.041 1.914 1.063 3.616 1.276 5.53.638 2.127-.851 4.467-1.914 6.594-1.702 3.616.426 8.082.213 9.146 5.53-.213.213-.639.851-1.277 1.702.638.638 1.277 1.489 2.127 2.127h4.041c.851 1.276 2.127 2.552 3.191 4.041 2.765-2.127 5.105-3.828 7.019-5.53v-2.765l-5.53-2.765c1.701-1.702 2.765-2.978 4.041-4.254 3.403 1.489 6.381 2.978 10.21 4.679 3.19.851 7.018 1.915 11.272 2.978-.638.851-1.063 1.489-1.489 2.34a66.175 66.175 0 002.34 2.978c1.489-.851 2.978-1.702 4.467-2.34 2.34.851 4.68 1.701 7.231 2.552 1.915.851 1.064 3.616 4.042 4.68 1.488.425 2.552 3.19 3.828 5.317 1.276-1.064 1.914-1.702 2.765-2.34-1.276-2.977-5.105-3.19-5.743-6.381 2.765-.425 2.765-.425 5.318 1.915 1.701-2.34 4.254-.638 6.168-1.277 2.127-2.977-1.914-4.253-2.765-7.018 5.104 0 8.72 1.914 12.762 3.403 4.892-1.915 10.21-2.978 16.165-2.34a47.41 47.41 0 00-.851-4.892c.212-.425.638-1.489 1.489-3.19a593.816 593.816 0 004.679 4.041c1.063-.851 2.127-1.914 3.616-3.403-1.276-1.489-2.553-2.765-3.616-4.042-2.34.639-4.68 1.064-6.168 1.489-6.169-4.254-11.699-8.082-17.441-11.911.212-.425.638-1.063 1.276-1.701-.425-.638-1.064-1.276-1.489-1.914.213-.213.638-.639.85-.426 3.404 1.064 6.594 2.765 9.572 4.892 1.064.851 2.34 1.064 3.829 1.702.425 1.063.85 2.552 1.063 3.19l1.064 1.064c1.276-.426 2.34-1.064 3.828-1.702.425 1.276.638 1.914.85 2.765h2.979l2.552-2.552c.425 1.063.85 2.127 1.489 3.616 1.276-1.489 1.701-2.127 2.552-2.978-.425-1.489-.85-3.403-1.489-5.318H47.42c-1.064.851-2.127 1.702-3.616 2.765-.638-1.276-1.276-2.339-1.914-3.828.638-.425 1.701-1.064 2.34-1.276v-3.403c-3.616-1.277-6.594.212-9.572 2.127-1.276-.638-2.552-1.064-3.616-1.702-1.063-.851-1.914-1.914-2.765-2.765.638-2.552 2.127-3.19 4.68-2.978.85 1.064 1.914 2.553 2.977 3.829 1.915-1.276 3.403-2.127 4.68-2.978v-2.765l-1.915-1.914c-1.489.425-3.19 1.063-4.892 1.489-.425-1.064-.638-1.702-1.063-2.978-1.702.213-3.403.425-6.168.851-.213-.213-.851-1.276-1.702-2.553-1.276 1.064-2.127 1.915-3.19 2.765l1.276 3.829c-.426 0-1.276.425-1.49 0-1.275-1.064-2.339-2.34-3.615-3.616-4.892.851-8.933-1.063-12.762-4.041-1.701-1.276-3.828-1.702-5.742-2.34-3.616-1.489-7.02-3.828-10.635-5.317-3.403-1.489-6.806-3.403-10.422-4.68-.426-.212-.851-.85-1.702-1.701 2.765-.213 4.892-1.276 6.38-3.616v-2.552a46.74 46.74 0 00-3.828-.638c.639-1.064 1.277-2.127 1.277-2.978 0-1.276-.851-2.552-.851-3.616 0-1.063.85-2.127 1.063-3.19-1.488-1.064-2.765-1.702-4.466-2.978 2.552-1.064 5.742.638 6.806-2.978-.425-.425-1.063-1.276-1.702-2.127h-5.317c-.213-.638-.425-1.276-.425-1.914.425-1.489 1.063-2.765 1.488-4.254 4.254-1.063 7.02 1.914 10.21 3.403 1.914-.425 3.828-.851 5.955-1.276.639 1.914 1.277 3.616 1.702 5.105h4.68c1.275-5.318 1.488-5.53 7.444-3.403.85 2.765 1.914 5.955 2.765 9.358H2.54c0-.425-.213-1.063-.425-1.914h-3.19v5.105c1.488-.638 2.339-1.277 3.19-1.489 2.126 2.127 4.253 4.254 6.38 6.168 1.277-1.489 2.34-2.765 3.404-4.254-.213-.213-.639-.851-1.277-1.702 1.064-.212 1.915-.212 3.19-.425.639-1.063 1.277-2.34 1.915-3.616-.425-.638-.85-1.276-1.276-2.127h6.168c-1.489 1.064-2.765 2.127-4.466 3.403 1.914 1.064 3.403 1.915 4.679 2.765 1.063-1.488 1.914-2.765 2.765-4.041l1.914 1.915c-.425.425-.638.85-.85.85a91.34 91.34 0 002.764 6.807h4.467c.638-.639 1.701-1.915 2.978-3.404 3.403 4.892 9.996 6.594 12.336 12.975-.213.213-.425.851-1.063 1.701.638.851 1.489 1.489 2.34 2.765l2.551-1.914v-6.593c.213 0 .426.212.639.212 1.276-3.403 2.552-6.806 3.615-9.996 2.34 2.127 2.978 3.403 3.19 7.019-1.063 1.701-2.339 3.403-3.615 5.317 3.403 3.616 7.019 1.702 11.06.213-.213-1.276-.425-2.765-.85-4.254 1.063-.426 2.34-1.064 3.828-1.702.85 1.702 1.489 3.403 2.34 5.105h7.444c1.063 1.276 2.34 2.552 4.041 4.254-2.552 1.063-4.68 1.914-7.019 2.765.851 1.914 1.915 3.828 3.403 6.381.638.425 1.915 1.489 3.616 2.765-1.063.638-1.489 1.063-1.914 1.063-2.765-.425-5.317-1.063-7.87-1.489-.638 1.277-1.276 2.34-1.914 3.616.85.638 1.914 1.276 3.403 2.34 0 .425.213 1.489.213 2.339 1.276.639 2.34 1.277 3.403 1.702 4.041-1.276 5.317-5.105 7.232-7.87a12.148 12.148 0 01-.851-1.489c.212-.212.425-.425.85-.638 1.277.851 2.553 1.915 3.616 2.765 2.34-.85 4.467-1.701 7.02-2.552l1.275 2.552h2.553c1.276-1.488 2.765-2.765 4.254-4.466.212-2.978-1.702-5.318-4.041-7.445 1.276-1.488 2.339-2.765 3.403-3.828h3.19c-.425 2.978 1.064 4.679 3.829 5.317v1.489c-.638 1.914-1.277 3.829-2.127 5.956a884.748 884.748 0 014.254 7.869c1.276-1.701 2.339-2.552 2.552-3.828.213-.851-.425-1.914-1.064-3.829 1.064.638 2.34 1.064 2.34 1.489.213 2.978 1.914 5.105 3.829 6.806-.426 1.702-1.064 3.404-1.489 4.892 1.489.639 2.339 1.277 3.403 1.702l1.701-1.702c2.127.213 3.829.639 5.743.851.851-2.977 0-4.679-2.978-5.317-.212-1.064-.212-2.127-.638-3.191-.425-1.063-1.488-1.701-2.339-2.552 1.063-2.978 1.914-5.743 2.977-8.72-.85-1.277-1.914-2.553-2.977-4.042 1.276-.638 2.339-1.276 3.616-1.914 1.489 3.191 6.593 2.127 8.082 6.806-1.276.213-2.34.426-3.828.638v4.467c1.276 1.064 2.977 2.552 4.679 3.829v-1.915c.851-.425 1.701-.638 2.127-1.063-.426-1.064-.638-1.914-1.489-4.041 2.552 1.489 4.466 2.127 5.743 3.19 2.127 1.914 3.828 1.276 5.955 0-.425-.851-1.063-1.489-2.127-2.765 1.702.213 2.34.213 3.191.425-.213.851-.426 1.702-1.064 2.34-.425.638-.425 1.489-.425 2.552l3.828 3.829c1.064-1.064 2.127-2.127 3.403-3.19a98.89 98.89 0 014.042 4.891c1.488-2.977 1.488-5.104-.851-6.806l-1.914 1.276c-1.702-1.063-3.191-2.127-5.105-3.403.213-.638.638-1.489 1.063-1.914 2.34 3.19 1.915 2.127 1.702 1.063-2.127 0-4.254.213-4.892-2.552l-.638.638c-.638-.851-1.064-1.701-1.914-2.977.85 0 1.488-.001 2.339-.213 0 1.063.213 1.701.213 2.339 2.127.213 4.254 0 4.892 2.765zM-420.936 88.176l.213-.213c.425.213.638.639 1.063.851l-.425.426c-.213-.426-.638-.639-.638-1.277 0 0 0 .213-.213.213-.212-.213-.638-.638-1.063-.85l.425-.426c.426.425.638.638.638 1.276zm150.801-129.957l.213-.213c.425.213.638.639 1.064.851l-.426.425c-.213-.425-.638-.637-.638-1.276 0 0 0 .213-.213.213-.212-.213-.638-.638-1.063-.85l.425-.426c.426.425.638.638.638 1.276zm-13.187 383.49l-.213.213c-.425-.213-.638-.638-1.063-.851l.425-.425c.213.425.638.638.638 1.276l.213-.213c.213.213.638.638 1.064.851l-.426.425c-.425-.425-.638-.638-.638-1.276zm98.053-96.776l-.213.212c-.425-.212-.638-.638-1.063-.85l.425-.426c.213.426.638.638.638 1.276 0-.212.213-.212.213-.212.213.212.638.638 1.063.85l-.425.426c-.213-.426-.638-.851-.638-1.276zm245.238 52.748l-.213.213c-.425-.213-.638-.638-1.063-.851l.425-.425c.213.425.638.638.638 1.276 0-.213 0-.213.213-.213.212.213.638.638 1.063.851l-.425.425c-.426-.425-.638-.85-.638-1.276zm117.62-66.361l-.212.213c-.426-.213-.638-.638-1.064-.851l.426-.425c.212.425.638.638.638 1.276 0 0 .212 0 .212-.213.213.213.639.638 1.064.851l-.425.425c-.213-.425-.639-.638-.639-1.276zM-352.235 23.942v-1.064c.851.213 1.489.213 2.339.426 0 .213 0 .425-.212.85-.851 0-1.489-.212-2.34-2.126v1.063c-.851-.213-1.489-.213-2.34-.425 0-.213.001-.425.213-.85.851.212 1.702.212 2.34 2.126zm100.605 143.57v-1.064c.851.213 1.489.213 2.34.425 0 .213-.001.426-.213.851-.851 0-1.489-.213-2.34-2.127v1.064c-.851-.213-1.489-.213-2.34-.426 0-.212.001-.425.213-.85.851 0 1.702.212 2.34 2.127zm47.856 69.764v-1.064c.851.213 1.489.213 2.34.426 0 .212 0 .425-.213.85-.851 0-1.489-.212-2.127-1.276l-.212.213c-.426-.213-.638-.638-1.064-.851l.426-.425c.425.425.638.85.85 2.127zm365.411 10.209c-.851-.213-2.339.638-2.339-1.276l-.213.213c-.425-.213-.638-.639-1.064-.851l.426-.426c.212.426.638.638.638 1.064.851.213 2.34-.638 2.552 1.276 0 0-.212 0 0 0 .426.213.851.425 1.064.638l-.426.425c-.212-.425-.638-.638-.638-1.063zm-239.07 15.952c.851.213 2.34-.638 2.553 1.276 3.19 0 5.743.638 7.444 3.616.851.213 2.34-.638 2.34 1.276l.212-.212c.426.212.638.638 1.064.85l-.425.426c-.213-.426-.639-.638-.639-1.064-.85-.212-2.34.638-2.552-1.276-2.34-1.276-6.168 0-7.444-3.616-1.064-.212-2.553.426-2.553-1.276-.425-.213-.85-.425-1.063-.638l.425-.425c.213.212.426.638.638 1.063zm37.86 19.355v-1.063c.851.213 1.49.213 2.34.425 0 .213 0 .426-.213.851-.85 0-1.489-.213-2.34-2.127v1.064c-.85-.213-1.488-.213-2.34-.426 0-.212.001-.425.214-.85.85 0 1.701 0 2.34 2.126zm-170.369 13.613c.851.213 2.34-.638 2.34 2.127v-.851h7.231c.851 1.064 2.127 2.553 3.191 3.829h4.892c.213.425.851 1.489 1.489 2.765h6.593c-.638 1.276-1.063 2.127-1.701 3.19-2.978-2.765-7.445-1.489-10.848-4.254-2.978-2.339-7.019-3.19-10.635-5.53-.85-.213-2.339.638-2.339-2.127-.213.213-.213.638-.213.851-.851 0-1.701-.213-2.34-.425 0-.213.001-.426.213-.851.638.213 1.489.425 2.127 1.276zm163.138 72.104v-1.064c.85.213 1.489.213 2.34.426 0 .212 0 .425-.214.85-.85 0-1.488-.212-2.34-2.127v1.064c-.85-.213-1.488-.213-2.339-.425 0-.213 0-.426.213-.851.85 0 1.489.213 2.34 2.127zm-261.191-421.35c.851.213 2.34-.638 2.34 2.127v-1.064c.851.213 1.489.213 2.34.426 0 .212 0 .425-.213.85-.851 0-1.489-.212-2.34-1.063-.85-.213-2.339.638-2.339-2.127.213.213.212.425.212.85-.85 0-1.701-.212-2.339-.425 0-.212 0-.425.213-.85.638.212 1.488.212 2.126 1.276zm245.238 1.063c.851.213 2.34-.638 2.553 1.277 2.552-.426 4.254 1.063 6.38 1.914 1.915.85 3.616 2.127 5.956 1.701 1.276-1.701 2.34-1.701 3.616 0 2.34-.425 4.254.638 6.168 2.127-.212.426-.425 1.064-.638 1.702-1.063-1.914-2.765-1.276-4.467-1.276.213.425.639.85.851 1.276.851.85 1.915 1.701 2.553 2.552l.212-.212c.426.212.638.638 1.064.85l-.426.426c-.212-.426-.638-.638-.638-1.064-1.276-.212-2.552 0-3.828-.638-4.254-2.127-8.508-4.68-13.187-5.955-1.49-.426-3.404-.851-3.829-2.978-.85-.213-2.34.638-2.34-2.127v.425c-.85 0-1.701-.212-2.34-.425 0-.213 0-.425.213-.85.638.212 1.277.425 2.127 1.275zm44.028 6.169c.851.212 2.34-.639 2.127 1.488h3.829c-.213.213-.425.639-.638.851.85.213 1.489.426 2.765.638-3.19 1.276-4.467.213-5.743-1.701-.85-.213-2.34.638-2.34-2.127v.85c-.85 0-1.701-.212-2.34-.425 0-.213 0-.425.213-.85.639.212 1.49.212 2.127 1.276zM-263.754-35.4v1.063c-.851-.212-1.489-.212-2.339-.425 0-.213-.001-.425.212-.85.851 0 1.489.212 2.127 1.275l.213-.212c.425.212.638.638 1.063.85l-.425.426c-.425-.425-.851-.85-.851-2.127zM22.96 270.03v.638c-1.276-.213-2.553-.213-3.829-.426.213-.85.426-1.488.426-1.914 1.276.638 2.34 1.276 3.403 3.403v-1.063c.85.213 1.489.213 2.34.425 0 .213 0 .426-.213.851-.426-.213-1.276-.213-2.127-1.914zm-246.302-44.241c-1.914.638-4.041 1.276-4.892-1.914 1.915.851 3.403 1.276 4.892 3.616v-1.064c.851.213 1.489.213 2.34.426 0 .212 0 .425-.213.85-.638 0-1.489 0-2.127-1.914zm-45.516-67.637c-2.34-.213-3.616-.426-5.318-.638.426-1.064.851-1.702 1.276-2.765 1.276 1.063 1.914 1.701 2.765 3.19l.213-.212c.425.212.638.638 1.064.85l-.426.426c-.213-.213-.425-.638.426-.851zm-225.458-268.209c-1.914.638-4.041 1.276-4.892-1.914 1.915.85 3.403 1.276 4.892 3.615v-1.063c.851.213 1.702.213 2.34.425 0 .213 0 .426-.213.851-.638 0-1.276-.213-2.127-1.914zm127.192 215.673c.213-.213.213-.425.426-.638 1.701.638 3.403 1.489 4.892 2.127-.213.851-.213 1.063-.426 1.914-1.701-1.063-3.19-2.127-4.466-4.679v1.063c-.851-.212-1.489-.212-2.34-.425 0-.213 0-.425.213-.851.425 0 1.276 0 1.701 1.489zm261.403-116.132c2.127-.425 4.892-1.914 5.955 1.915-2.127-.639-4.041-1.277-5.742-2.766l-.213.213c-.425-.212-.638-.638-1.063-.85l.425-.426c.213.425.425.85.638 1.914zm67.637-7.019h-3.828c.212-.212.425-.638.638-.85-.851-.213-1.49-.426-2.765-.639 2.977-1.276 4.466-.425 5.53 1.702 2.34-.213 4.68.213 6.168 2.552h3.616c2.127 1.277 3.403 2.34 4.892 3.19v1.702c.85.213 1.489.213 2.34.426 0 .212 0 .425-.213.85-.851 0-1.49-.212-2.34-1.063-3.19-1.063-6.594-1.489-8.508-4.892-1.914-.213-4.254-.425-5.53-2.978zm-239.282-23.822c-2.127.426-4.892 1.915-5.956-1.914 2.127.638 4.041 1.276 5.743 2.765l.213-.212c.425.212.638.638 1.063.85l-.425.426c-.213-.426-.426-.851-.638-1.914zm-133.573-41.688v.85c-1.702-.212-3.191-.212-5.105-.424.213-1.064.426-1.49.638-2.34 1.702.638 3.191 1.276 4.467 3.616v-1.064c.851.213 1.489.213 2.34.426 0 .212 0 .425-.213.85-.638-.212-1.489-.212-2.127-1.914zM-463.9-90.7h3.828c-.213.213-.425.638-.638.85.851.214 1.489.426 2.552.639-2.977 1.489-4.253.425-5.317-1.914l-.425.425c-.213-.425-.426-.638-.851-.85l.425-.426c.213.213.426.638.426 1.276zm455.806 449l.638-.638c1.915.426 3.616.851 5.53 1.277.213 0 .213.425.426 1.063h-4.254l.85-.851c-1.063-.213-2.126-.638-2.552-1.489l-.212.213c-.426-.213-.638-.638-1.064-.851l.426-.425c.212.425.638.638.212 1.701zm-215.46-57.64l-6.381-2.127c3.19-1.489 4.679.638 6.593 1.702 1.276.425 3.191-1.064 3.616 2.126 0-.212 0-.638.213-.85 2.552.425 5.317.212 7.231 1.489 2.765 1.701 5.956 2.339 8.721 4.253-.213.639-.213 1.064-.638 2.34-5.318-2.34-10.422-4.679-15.527-7.87-1.276-.85-2.978.851-3.828-1.063zM18.28 266.84c-4.466.426-6.806-.85-8.295-3.615 2.34 1.063 4.68 2.126 6.807 3.828l.212-.213c.426.213.638.638 1.064.851l-.426.425c-.212-.212-.638-.638.639-1.276zM36.147 61.164h-3.829l1.064-1.064c-1.276-.638-2.765-1.276-4.254-2.127 3.828-1.489 4.68 1.49 6.168 3.19l.213-.212c.425.213.638.638 1.063.85l-.425.426c-.425-.425-.638-.638 0-1.063zm-483.883-146.76c0 .425.001.638-.212 1.063-2.765-.638-5.53-1.276-8.721-1.914.213-.638.426-1.489.638-2.127 2.978 1.064 5.53 2.127 8.083 4.892v-1.063c1.276.212 2.34.212 3.616.425v.85c-1.064-.212-2.127-.212-3.404-2.126zm236.518 327.976c5.105-.85 6.381 0 7.444 3.829-1.276-1.064-2.127-1.914-3.19-2.553-1.276-.638-2.765-.85-4.041-2.552h-3.404a70.113 70.113 0 00-1.914-3.616c2.34.638 3.829 1.276 5.318 1.702-.213.638-.213 1.063-.213 3.19zm382.427-85.929c5.104-.425 6.38.213 7.444 4.042-2.552-1.489-4.892-2.766-6.594-5.531l-.638.639c-.638 0-1.489 0-2.339-.213 0-.851 0-1.489.212-2.34.851.638 1.915 1.276 1.915 3.403zm-600.44-242.047c0 .425 0 .85-.213 1.063-3.19-.638-6.38-1.276-9.571-2.127-.638-.212-.851-.85-2.34-2.34 4.892 1.277 8.508 2.34 12.124 3.617 1.914.637 3.829 1.276 6.594 2.34-3.191 1.488-4.68-.639-6.594-2.553zm239.07 327.976c-5.318.638-7.657-1.489-10.21-4.679 4.254 0 5.956 3.403 8.934 5.955v-1.063c.85.213 1.489.213 2.339.425 0 .213 0 .426-.212.851-.639-.212-1.489-.425-.851-1.489zm340.951-1.063c-4.467.638-6.381-3.616-9.784-4.467 4.466-1.063 7.231 1.064 9.146 4.68h3.828c-.212.212-.425.638-.638.85.851.213 1.489.426 2.553.638-2.765 1.489-4.042.426-5.105-1.701zM9.347 345.325c4.254.851 7.87 3.403 12.55 2.552 0 1.064 0 1.702-.213 2.34h-5.53c-1.915-1.914-5.53-1.702-6.594-4.892l-.213.213c-.425-.213-.638-.638-1.063-.851l.425-.426c.426.426.638.851.638 1.064zm-57.428-50.196c-5.317-1.489-9.996-4.041-14.463-7.232 5.318 1.489 10.635 2.978 14.463 7.232.851.213 2.34-.426 2.34 2.127 1.702-1.064 2.978-.638 4.68.212 1.063.639 3.19-.638 4.679-.85.638 1.276 1.489 2.339 2.127 3.403h4.254c1.276-2.127 0-3.616-1.49-4.68h-4.891c-6.594-3.615-12.124-7.018-18.08-9.783-2.977-1.277-5.742-2.978-8.72-4.042-1.701-.638-3.828-1.701-5.53-2.765-1.702-1.063-3.616-2.339-5.53-3.19-.85-.426-1.489-1.489-2.552-2.553 1.063-1.063 1.914-1.914 2.552-2.339 5.317 2.34 10.21 4.466 14.676 7.019 4.466 2.339 9.146 4.679 13.825 6.806 4.68 2.34 8.933 5.743 14.038 7.232l1.914-1.915v-2.339c-1.489-2.127-5.317-1.064-5.53-4.68 4.467 1.064 7.657 4.68 11.911 5.956.638.213.85 1.489 1.276 2.127-2.34 1.063-4.466 1.701-6.593 2.552 2.127 4.254 2.552 8.508 5.742 10.422-1.488 4.042 2.128 7.445.213 10.635-2.977.638-2.765 5.105-6.38 5.105-1.915-2.34.212-4.467.85-6.594-.85-1.063-1.701-1.914-2.765-2.977v-2.766c-1.276.213-2.552 0-2.978.426-1.063 1.276-1.701 2.978-2.34 4.254-1.488-1.064-2.977-2.127-4.253-3.191 1.914-2.127 3.616-4.254 5.105-6.168-1.49-1.489-2.553-2.552-3.19-3.403-2.553-.851-4.893-1.489-6.807-2.978-1.064 0-2.34.851-2.553-1.063zm-225.244-95.288c0 .426-.213.851-.213 1.276-4.892-.638-9.358-2.552-14.25-6.168 1.488 0 2.339-.425 2.977 0 3.829 1.702 7.657 3.403 11.061 6.806 3.403-.638 9.145 1.915 11.698 4.68-4.68-1.914-8.083-3.403-11.273-6.594zm264.38 53.812c5.956.851 10.635 4.679 15.527 7.657.213.213.213.638.213 1.064l.213-.213c.425.213.638.638 1.063.851l-.425.425c-.213-.425-.638-.638-.638-1.063-1.49 0-2.978.212-4.467-1.064-1.702-1.489-4.041-3.19-6.168-3.616-2.765-.425-4.254-1.701-5.318-4.041-4.679 0-8.295-2.978-12.549-4.466-.425-.213-.638-1.277-1.063-1.915.213-.425.425-.638.638-1.063 4.892 1.063 8.72 4.466 12.974 7.444zm-342.014-132.722c0-.425.213-.851.213-1.276 2.339.638 4.892.851 7.019 2.127 7.019 3.828 14.038 8.082 21.057 12.336-1.489.426-2.766.426-3.829-.212a512.907 512.907 0 01-15.101-7.87c-3.191-1.702-6.381-3.403-8.721-6.381h-6.381c0-.638 0-1.276-.212-1.276-3.616-1.702-7.232-3.403-11.061-5.318 4.467-.425 11.699 2.127 17.016 7.87zm157.182 171.433c9.146 1.276 15.74 6.168 23.184 8.082v1.702c-2.765 1.276-5.318.425-7.657-.851-4.041-2.127-7.87-5.105-12.549-6.381-.638-.213-1.064-1.063-1.702-2.978-1.914.638-4.041 1.277-4.892-1.914 1.702.851 3.191 1.489 3.616 2.34zm-114.005-168.455c-.212.425-.212 1.063-.425 1.489-2.553-.851-5.105-1.489-7.445-2.765-5.104-2.34-9.996-5.956-15.314-7.445-5.955-1.701-10.209-5.742-15.952-7.657-1.914-.638-1.914-.85-3.616-3.616.638 0 1.277-.212 1.915 0 5.104 2.766 10.847 4.68 15.739 7.658 1.064.638 2.552.638 3.616 1.488 1.276.851 2.552 1.489 4.041 2.127 5.956 2.553 11.486 5.743 17.016 10.635v-1.063c.851.212 1.489.212 2.339.425 0 .213 0 .425-.212.851-.426-.213-1.064-.213-1.702-2.127zM-95.086 337.03c4.466-.851 8.082.851 11.698 2.339 4.254 1.489 7.87 4.254 12.549 5.105 2.127.426 4.892 1.489 6.594 2.765 4.892 3.829 11.272 4.467 16.164 8.508.426.425 1.064.638 1.49.638 1.914-.213 3.403.426 4.679 1.914.85.851 2.34 1.489 3.403 1.702 4.892 1.276 8.933 4.254 13.612 5.317-.212.851-.425 1.489-.425 1.915-2.34-.426-5.53-.213-6.594-1.702-1.914-2.34-4.466-1.276-6.38-2.34-2.766-1.276-4.892-4.041-8.296-3.403-4.466-2.552-9.358-4.041-14.038-5.743-4.892-1.701-8.933-4.892-14.25-5.317-6.594-3.828-14.25-5.53-19.78-12.762v1.064c-.852-.213-1.49-.213-2.34-.426 0-.212 0-.425.212-.85.638 0 1.49.212 1.702 1.276zM-364.36-51.778h-5.104c-10.21-5.742-21.483-7.657-32.118-12.123-1.063-1.49-2.339-2.765-3.403-4.254-4.466-1.064-8.295-3.403-11.911-5.956h-3.403c.213-.425.638-.638.851-1.063l-3.403-3.403c4.254 1.489 9.358 3.403 14.463 5.104 2.765 1.064 5.318 2.127 8.295 2.127 2.127 2.978 5.743 2.766 8.721 3.829 4.254 1.701 8.295 4.041 12.549 5.105 4.041 1.063 7.657 2.977 11.698 4.466 1.064.426 1.914 1.064 2.978 1.702v5.317c-.213-.212-.213-.425-.213-.85.851 0 1.702.212 2.34.425 0 .212 0 .425-.213.85-.638-.212-1.276-.212-2.127-1.276zM163.977 217.92c.213-.425.213-.85.425-1.276 4.254 0 8.295 1.914 11.486 4.041 5.743 3.829 11.911 7.019 17.654 10.635 7.019 4.254 14.25 8.295 20.844 12.975.638.425 1.914.425 3.19.85 5.105 5.318 12.124 7.87 18.505 11.273.425 1.276.85 2.127 1.701 4.041-3.403-1.914-5.743-3.19-8.295-4.466-5.743-3.191-10.847-7.019-16.59-9.784-3.829-1.914-7.657-4.254-11.486-6.168-1.489-.851-2.339-2.978-4.466-2.34-1.702-2.34-4.68-2.34-7.019-4.041-5.318-3.829-10.848-7.019-16.378-10.422-3.19-1.915-6.381-3.616-9.571-5.318zM2.754 345.538c-5.318.212-8.295-3.829-12.55-4.042-2.977-3.19-7.656-3.403-11.06-5.955-.638-.425-1.488-.638-2.127-.851-2.765-1.276-5.742-1.701-8.507-3.403-5.105-2.978-10.422-5.53-15.74-7.87-2.978-1.276-5.53-3.403-8.082-5.317-.213-.213 0-1.064 0-1.702h4.041c2.978 2.765 6.806 2.978 9.784 4.892 3.19 2.127 6.594 3.616 10.21 5.105 3.19 1.276 6.593 2.978 9.57 4.892 3.191 1.914 6.807 3.191 10.21 5.105 2.978 1.914 6.38 3.403 9.359 5.104 0-.212.212-.212.212-.425 1.49 1.064 2.765 2.552 4.68 4.467zM37.21-35.825c-2.34-.851-4.892-1.49-7.231-2.553-3.403-1.489-6.806-3.616-10.21-4.68-1.488-.425-2.765-1.063-4.04-2.126-2.553-2.127-5.318-4.68-8.721-5.317-5.956-1.49-11.273-4.467-16.803-6.807-.638-.212-1.064-1.701-1.915-3.403 2.553.425 4.042.638 5.53 1.064 2.127.638 4.254.85 5.53 2.977 3.829-.85 6.381 2.34 9.572 3.616 3.19 1.064 6.168 2.765 9.146 4.254 2.977 1.489 5.53 3.829 8.508 4.254 3.828.425 5.53 4.041 9.358 4.254 1.702 0 2.553 2.34 1.276 4.467zm-451.34 3.828c2.978.213 5.105 0 7.445.85 6.381 1.915 12.336 4.68 18.717 6.382 1.914.425 2.765 2.34 5.105 2.765a48.97 48.97 0 0110.634 3.828c3.616 1.915 8.296.638 11.061 4.467.212.213 1.276 0 1.701 0 5.53 1.063 10.422 2.765 15.74 7.657-4.254-1.276-7.019-1.914-9.997-2.765-2.765-.85-5.53-1.702-8.082-2.765-2.766-1.276-6.381-1.064-8.508-2.765-2.553-1.914-5.956-1.702-7.87-3.829-2.34-.425-4.254-.638-6.168-1.276-4.041-1.276-7.232-4.466-11.698-4.254-5.105-3.828-11.911-4.254-18.08-8.295zm124.64-25.098c-2.552 2.552-4.892 2.552-6.806.425.425-2.552.638-4.679.851-6.806 1.276-1.701 2.765-3.403 4.253-5.317h4.254c-.638 1.701-1.063 2.978-1.488 4.254 3.19 1.276 4.892-1.064 7.231-1.915 1.489 1.49 2.765 3.19 4.254 4.68-3.403-.851-1.702 4.04-4.892 3.828-1.702-.212-3.828 1.489-5.53 2.34-.638-.213-1.063-.425-2.127-1.489zm120.386 341.164c-.213.425-.426 1.063-.638 1.489-1.064-.213-2.34-.213-3.191-.639-3.19-1.276-6.168-2.977-9.146-4.466-2.977-1.489-5.955-4.467-8.933-4.679-4.041-.213-6.168-2.978-9.359-4.042-5.53-1.914-10.634-4.679-15.952-7.231-1.701-.851-2.978-1.915-4.466-2.765 3.19.212 5.955.85 8.72 2.339 2.765 1.489 5.53 3.403 8.508 4.254 11.06 3.403 21.482 8.083 31.692 13.613.85.425 1.701 1.276 2.765 2.127zm199.295-.851c-1.488-.213-2.552-.213-3.403-.638-8.508-6.381-18.291-9.997-27.225-15.314-4.466-2.765-9.358-5.105-14.038-7.445-2.127-1.063-4.04-1.914-4.254-5.104 5.53 3.19 10.848 5.317 15.953 8.508 5.104 3.19 10.847 5.317 16.164 8.082 2.553 1.489 4.467 3.828 7.87 4.467 2.978.638 5.743 2.765 8.933 4.466v2.978zm-47.43-369.24c7.444.213 14.25 4.68 21.056 8.508.213.213.426.638.638.851L-.01-75.387c-.426-.213-1.064-.425-1.915-.85-2.552-1.277-5.53-.851-8.295-2.34-2.127-1.276-4.466-2.34-7.019-.213-.85.638-2.552 0-3.828 0-.638-1.489-1.064-2.34-1.49-3.403 1.915-1.064 3.404-2.127 5.318-3.829zm-96.777 81.888c1.489-.638 3.616.638 5.53 1.914 3.828 2.127 7.444 4.892 11.06 7.232 2.127 1.276 4.254 2.552 6.594 3.829-5.743-1.064-11.061-3.404-16.591-4.254l-2.339 2.34h-3.403c.638-3.191-1.064-4.467-3.616-5.105.212-2.127-.638-4.254 2.765-5.956zm-135.7 332.443c-3.403-.425-7.657 1.064-11.273-2.552-3.616.425-7.444 1.063-11.273 1.489a361.583 361.583 0 001.489-5.105h5.105l2.34 2.34h4.253c2.127-4.679 5.743-7.019 11.486-5.53-.638 2.127-2.765 4.466-.638 6.168-.425 1.063-.851 1.914-1.489 3.19zM39.55 231.533c1.914.213 2.978 0 4.041.425 2.978.851 5.318 2.765 8.083 4.254 2.552 1.489 5.317 2.978 8.082 4.254 2.978 1.489 5.956 2.34 8.508 4.467 1.702 1.276 4.041 2.977 6.806 2.552.213 0 .426.425.85.851-1.488.851-2.977 1.701-4.253 2.552-11.06-5.743-21.482-11.911-32.117-19.355zm-475.8-123.364c3.829-1.276 6.168 1.489 8.721 1.702 2.765.213 5.317 1.276 7.869 1.914 2.765.851 5.318 2.127 8.295 2.127 1.064 3.191 5.956 1.276 6.594 4.892-.851 2.127-2.765 3.403-4.254 2.34-2.127-1.276-4.467-1.276-6.381-2.34-3.616-2.127-7.444-3.616-11.273-5.317-2.977-1.489-5.955-3.191-9.571-5.318zm406.461 123.789c0-.425.213-1.063.426-1.701 6.38-.213 10.422 5.955 16.377 6.381 5.743 3.615 11.273 7.231 17.016 10.847l.425.425c0 .213 0 .213 0 0-.638.851-1.063 1.489-1.063 1.489-11.698-5.104-22.12-11.698-33.18-17.441zM-198.03 354.684c-2.978 1.488-6.381 2.977-10.422 4.892-.851-1.277-1.489-2.34-2.127-3.616h-5.743l1.489-1.489c-.425-.426-.638-.851-1.489-1.702h6.168c.851-1.063 1.489-1.914 2.127-2.552h4.68c1.914 1.914 3.616 3.19 5.317 4.467zm359.243-42.752c5.743 3.828 12.123 6.168 16.803 11.273.425.425.638 1.276 1.276 2.552-1.489 0-2.765.425-3.403 0-2.127-1.063-4.254-2.765-6.381-3.829-3.403-1.701-5.53-5.53-9.571-6.168-.213 0-.426-.638-.851-1.276.425-.638 1.276-1.276 2.127-2.552zm-526.847-386.68a722.63 722.63 0 00-9.146-1.49c-.213 0-.213-.212-.425-.425l-.213.213c-.638-.851-1.276-1.49-1.702-2.127-6.168-.213-7.869-1.49-10.209-7.657 3.403 1.276 6.168 3.828 9.359 2.765a497.004 497.004 0 0112.336 8.72zm49.133 257.148c1.063.213 2.339 0 3.403.426 5.317 2.977 11.485 3.828 16.803 6.806 2.977-.638 4.254 2.552 6.593 3.19v1.276c-9.784-1.701-18.292-6.168-26.799-11.698zm400.93 144.846h10.21l2.552-2.552h2.978c0 .212 0 .425.213.638-.638.212-1.064.425-1.914.85-.638 1.277-1.276 2.765-1.915 4.467-3.828 2.127-7.87 1.489-11.91 1.276-.213-1.701-.213-2.978-.213-4.679zM-400.941-78.79h-6.169v-2.127h2.765c.851-1.489 1.702-2.765 2.553-3.828.851.85 1.489 1.276 2.127 1.914l-2.553 1.276c3.404 2.552 7.019 3.403 10.848 2.978 1.489 2.34 5.105 2.765 4.892 6.593-4.892-2.552-10.21-3.19-14.463-6.806zM-179.1 256.418c-.213.426-.638.851-.851 1.276-3.616-1.701-7.019-3.615-10.635-5.104-3.403-1.489-6.593-3.829-10.422-4.467-.638 0-.85-.851-1.488-1.276l1.488-1.489c5.743 1.914 10.422 5.956 16.378 7.444 1.914.213 3.616 2.34 5.53 3.616zM51.036 4.587c-7.445.212-12.55-2.978-17.867-5.318-.85-.425-1.276-1.701-2.127-2.977 1.064-.213 1.702-.426 2.127-.426C37.423-2.432 41.677-.73 45.72.971c1.7 1.063 2.977 2.127 5.316 3.616zm-.426 305.218c-1.701-2.127-4.041-.851-6.168-1.276-2.127-.426-4.467-1.064-7.232-1.702.638-1.914 1.276-3.828 1.915-5.53 3.19 1.489 5.317 4.041 8.933 3.828 1.276 0 2.765 1.702 4.254 2.553-.426.851-.851 1.276-1.702 2.127zm-60.83-325.85v3.829c-4.042-1.064-7.87-1.915-11.699-2.978-1.064-1.063-2.34-2.127-3.403-3.403-.425-.638-.425-1.489-.638-2.978 5.53 2.34 9.784 5.743 15.74 5.53zm-77.635 372.43c1.915.426 3.19.213 4.042.851 1.276.851 2.552 1.489 4.04 2.127 3.404 1.489 6.594 3.616 10.635 3.828 1.277 2.765 4.042 1.915 5.956 2.127-.638.851-1.063 1.702-1.914 2.765-3.616-1.701-7.232-3.615-11.06-5.104-2.553-1.064-5.105-2.553-8.083-2.553-1.914-.212-2.552-1.489-3.616-4.041zM-237.592-33.06c2.127 0 3.616-.213 4.892-.213 2.765 2.34 14.25 7.87 20.418 9.571-2.552.213-4.041.638-5.317.213-6.594-2.552-13.4-4.892-19.993-9.571zM5.731-73.898c2.765 1.914 5.105 3.403 7.445 5.105.638.425.85 1.063 2.127 2.552-6.381-.638-10.848-3.403-16.378-5.53 2.765-.85 4.68-1.489 6.806-2.127zM-43.827 33.088c4.467 2.552 8.72 5.105 12.975 7.657l-.638 1.276c-5.53-2.765-11.486-4.467-17.441-8.933h5.104zm2.34 274.164c-4.68-.212-11.06-3.615-11.273-5.317.638-.638 1.064-1.276 1.702-1.914 4.679 0 6.593 4.041 9.571 7.231zM-101.68-31.997c-3.19-.213-5.105-2.552-7.657-2.765-.425-4.68-5.53-2.765-7.657-5.317 3.403-1.49 6.806 0 8.508 1.701 2.34 1.914 4.892 3.403 6.806 6.381zm-28.926-96.138c-1.489 2.765-2.127 4.041-2.765 5.317-3.191.425-5.743-.851-8.083-2.978.851-.638 1.702-1.489 2.552-2.127.851.638 1.489 1.064 1.915 1.489a88.056 88.056 0 016.381-1.701zm-152.929 210.78c-6.38.639-8.72-.212-10.847-3.828 3.19-.638 4.041-.212 10.847 3.829zm261.403 286.289c0-.425-.212-.851-.212-1.276 1.914-.851 3.828-1.489 5.742-2.34 1.064 1.064 2.127 2.553 3.19 4.042-1.488.85-2.764 1.276-3.402 1.701-1.915-.851-3.616-1.489-5.318-2.127zm-209.718-29.565c1.277.213 2.553.213 3.616.639 2.978 1.063 5.53 3.615 9.146 2.977.638 0 1.276 1.064 2.978 2.765-6.806-.638-11.486-2.977-15.74-6.381zM-352.235 93.493c.851-.212 1.276-.425 1.701-.425 2.765 1.064 5.743 1.914 8.508 3.19.638.213.851 1.702 1.489 2.978-2.978-.638-5.105-1.276-6.381-1.489-2.339-1.701-3.616-2.977-5.317-4.254zM91.448 314.91v7.231H88.47c-.425-1.489-.85-2.765-1.276-4.466.425-.639.85-1.702 1.489-2.765h2.765zM-202.923-35.613c-4.467-1.701-8.295-4.041-11.486-7.444 4.254 1.489 8.083 3.403 12.124 5.317-.213.851-.425 1.276-.638 2.127zM-363.295 39.47c2.552-1.49 4.679.212 6.168 1.276 1.489 1.063 4.466-.213 4.892 2.978h-5.105c-2.127-1.49-4.041-2.765-5.955-4.254zm144.633 190.575c0-.425.212-.638.212-1.063 1.064.212 2.34.212 3.191.425 3.403 1.489 5.104 2.765 8.082 6.593-4.466-2.339-7.87-4.253-11.485-5.955zM25.087-69.006c-5.105.213-8.933.638-11.911-3.19 4.466-.213 5.104-.213 11.91 3.19zm163.988 309.259c-1.063-1.489-2.127-2.765-2.765-3.615-3.616-.639-3.616-.639-6.168-4.254 2.339 1.063 4.254 1.914 6.168 2.977 1.702.851 3.19 2.127 4.679 3.191-.851.425-1.276.851-1.914 1.701zM-421.999-87.723c1.489 1.063 3.615-.426 4.466 1.914 0 .213.213.638.426 1.064h-4.042c-1.063-.851-1.914-1.49-2.765-2.34-.638-.425-1.063-1.064-2.339-2.127h5.955c-.851.638-1.063.85-1.701 1.489zm410.077 319.469l-10.21-5.743c4.467-.213 7.87 1.701 10.21 5.743zm-271.4-84.441c4.041-.212 7.87 1.277 10.635 4.467-4.467.425-7.444-2.34-10.635-4.467zm232.69-115.919c-2.979 1.277-5.318-.212-7.445-1.701-.638-.426-.851-1.49-1.702-3.616 3.616 2.765 7.445 1.914 9.146 5.317zm-244.813-79.122c4.041 0 7.444 1.914 11.91 4.04-5.53 1.277-8.507-2.126-11.91-4.04zM76.134 250.037c5.317-.85 7.019 3.829 10.422 4.467h-4.041c-1.915-1.489-3.829-2.552-6.381-4.467zM-103.17-40.505c2.553-.425 4.68-.638 5.956 1.702l-1.915 1.914c-1.276-.213-2.765-.213-4.253-.425.212-1.064.212-1.915.212-3.19zm94.863 273.952c5.104-.638 7.018.213 8.72 4.679-2.978-1.701-5.53-2.977-8.72-4.679zm15.74 144.846c-4.041 1.063-5.53-1.276-6.806-4.041 4.892 1.063 4.892 1.063 6.806 4.041zM-429.87-87.297c-2.127-1.49-4.467-2.978-7.019-4.68 4.041-.85 5.956 1.914 8.933 2.765l-1.914 1.914zm-74.443-13.401c-1.915-1.488-3.829-2.977-6.381-5.104 1.701.212 2.977.212 3.828.638 1.702.851 3.191 2.127 4.679 3.403.213.213.213.638.213 1.063h-2.339zm187.597 229.499c3.829-1.489 5.743 2.127 8.933 2.552-.425 1.064-.638 1.489-.851 2.34-2.552-1.702-5.317-3.191-8.082-4.892zm511.533 68.488c2.978 1.489 5.743 2.978 8.72 4.466-4.041 1.489-5.955-2.126-8.933-2.339.213-1.064.213-1.489.213-2.127zm-80.186 121.236c-2.127 0-2.978-.212-3.829 0-.851.213-1.702.851-3.19 1.489 1.276-4.679 2.127-4.892 7.019-1.489zM-36.382-56.67c.638 1.064 1.063 2.127 1.701 3.404h-4.892c.213-1.277.213-2.34.426-3.404h2.765zm152.715 35.733c1.064 1.064 2.127 2.127 2.978 3.19-2.34 1.277-3.829-1.063-5.743-1.488.213-.638.213-1.064.213-1.702h2.552zm-548.329-55.939c3.616-2.552 4.467 2.34 7.019 1.915.213 0 .425.212.425.425s-.212.213-.425.638h-2.978c-1.701-1.276-2.765-2.127-4.041-2.978zm534.291 50.622l1.064-1.064c1.489.639 2.977 1.49 4.892 2.34-1.064 1.064-1.702 1.914-2.553 2.978-1.276-1.702-2.339-2.978-3.403-4.254zm-202.911-.213c-3.829.213-3.829.213-8.934-3.403 3.616.638 6.594.85 8.934 3.403zm-38.711 397.103c-2.978 1.063-4.467.638-4.467-.638.213-1.064.426-2.127.851-3.829 1.702 2.127 2.34 2.978 3.616 4.467zm135.913 4.041h-5.53c-.426-1.064-.639-2.34-1.277-4.467 2.765 1.915 4.467 2.978 6.807 4.467zM203.75 203.882c4.041-.212 4.041-.212 6.168 3.404-1.914-1.064-3.616-2.127-6.168-3.404zM17.004 291.726h4.68v2.127h-4.68v-2.127zm219.502-24.248c-2.127-1.063-3.616-1.701-5.105-2.339-.212 0 .213-1.064.213-1.702h2.978c.638 1.276 1.063 2.34 1.914 4.041zm-524.72-194.829c1.914.851 4.892.638 4.892 4.041-2.977.213-3.403-2.552-4.892-4.04zm17.654 265.87c1.489-.213 2.34-.213 3.616-.426.85 1.064 1.914 2.34 2.977 3.403-1.488 0-2.127-.425-2.977-1.063-1.064-.638-2.127-1.063-3.616-1.914zM-6.392 14.796c-.213.426-.638.85-.851 1.276-1.276-1.701-4.254-1.063-5.105-4.68 2.34 1.49 4.254 2.34 5.956 3.404zm-59.768 9.997c2.553-1.49 3.829.85 5.743 1.701-2.34 0-4.68 1.276-5.743-1.701zm-45.729-56.152c-2.127 1.489-3.403-.213-4.892-.638-1.914-.425-1.489-1.276-.851-2.34 2.127.851 3.829 1.915 5.743 2.978zm50.834 302.24c1.914 1.064 4.467.851 5.956 4.042-2.766-1.276-5.105-1.489-5.956-4.042zm-183.343 21.27c2.977-1.702 4.253.638 6.593 1.064-2.978 1.914-4.467-.426-6.593-1.064zm179.302 23.184c-1.702-1.276-3.403-1.702-2.34-3.829 1.276.638 2.34 1.277 3.829 1.915-.638.638-.851 1.063-1.49 1.914zm204.613 5.53c-1.276-.638-2.34-1.063-3.403-1.489-.213 0-.213-.425-.213-.638.213-.425.425-.851.638-1.489 1.702.426 3.191 1.064 2.978 3.616zm-291.606 37.86c-4.466.212-4.679-.213-4.466-2.978 1.276.638 2.552 1.702 4.466 2.978zM-316.502-56.457c2.127-.213 3.828-.213 4.679 2.34-1.914.212-3.616.212-4.679-2.34zM223.319 258.12c-1.489.212-2.552.212-3.616.212.426-.638.851-1.063 1.276-1.701-1.063 0-2.127-.213-3.19-.213.213-.212.425-.425.425-.638h2.765c.851.851 1.277 1.489 2.34 2.34zM-29.789 13.945c.213-.212.638-.425.851-.638.425.426.638 1.064 1.276 1.276.426.213 1.064.213 1.915.426l-2.128 2.127c-.85-1.064-1.488-2.127-1.914-3.19zm-88.694 349.246c-1.276-1.063-2.339-1.701-3.828-2.765h4.466c-.212.851-.425 1.702-.638 2.765zm143.995-66.148l1.702-1.702c.638.426 1.489 1.064 2.127 1.489-1.064.851-1.49 1.489-2.127 1.915-.638-.426-1.064-1.064-1.702-1.702zm75.294-315.215c2.765.213 2.765.213 2.553 2.553l-2.553-2.553zm66.361 171.007h-4.466c.212-.85.212-1.701.425-2.765 1.489.851 2.34 1.702 4.041 2.765zm30.416 89.12c1.276 1.063 2.339 1.701 3.828 2.765h-4.466c.212-.851.425-1.489.638-2.765zm-554.072-114.643c-.425 1.276-.851 1.914-1.064 2.552-1.488-.85-1.488-.85-2.765-2.552h3.829zM-89.982 8.841c2.34 1.276 3.829 1.914 5.956 2.977-2.978.426-4.68.426-5.956-2.977zm-247.152 21.056c-2.339-1.276-3.828-1.914-5.53-2.765 2.552-.85 4.254-.425 5.53 2.765zm478.14 293.52c1.063-1.489 1.489-1.914 2.127-2.977 1.063 1.063 1.701 1.701 2.765 2.977h-4.892zM-91.471-4.559c2.766-1.064 4.254-.426 5.743 2.34-2.127-.851-3.616-1.49-5.743-2.34zM54.013-27.105v-2.552c.851.212 1.49.212 2.127.425-.212.85-.425 1.489-.425 2.127h-1.702zm198.445 303.729c-2.127.426-2.977-.638-4.041-2.127 2.127-.425 2.978.638 4.041 2.127zM-360.53 137.521c-.213.426-.426.639-.638 1.064-.638-.213-1.276-.425-1.915-.851-.425-.213-.85-.851-1.276-1.276.213-.213.426-.425.638-.851l3.191 1.914zm517.063 10.21h-3.616c.212-.851.212-1.489.425-2.553 1.064.851 1.702 1.489 3.191 2.553zM-362.232-67.942c-.851-.426-1.701-.851-2.339-1.277.212-.212.212-.638.425-.85 1.063.212 2.127.212 3.616.425l-1.702 1.702zm101.456 230.561h-1.914c.212-.85.212-1.488.638-3.19.638 1.702 1.063 2.552 1.276 3.19zm65.936 134.424c1.914-.425 1.914-.425 1.701 2.552-.851-1.276-1.276-2.127-1.701-2.552zM-423.276-93.041v.638h-3.615v-.638h3.615zM2.541 361.915c-3.19 1.276-2.978 0-2.552-1.489.85.426 1.701 1.064 2.552 1.489zm-397.528-269.91v.638h-3.616v-.638h3.616zM-43.401-23.276v1.063c-1.064-.213-2.127-.213-3.19-.425v-.638h3.19zm-313.513-58.066v-.638h3.615v.638h-3.615zm-98.691-12.124c.213-.638.638-1.702 1.063-2.552.213.212.426.212.638.425v2.127h-1.701zM-29.151 41.808h1.915c-.213.851-.213 1.49-.639 3.19-.638-1.7-.85-2.551-1.276-3.19zm-14.038 329.04v-.638h3.616v.638h-3.616zM11.261-1.156h1.915c-.213.85-.213 1.489-.638 3.19-.426-1.701-.851-2.552-1.276-3.19zM-9.156-89.425v1.064c-1.064-.213-2.127-.213-3.19-.426v-.638h3.19zm-178.665 456.019c-.638-.212-1.488-.425-2.552-.85.213-.213.213-.426.425-.638h2.127v1.488zM-370.74 132.842c-1.914.425-1.914.426-1.701-2.552.851 1.276 1.276 2.127 1.701 2.552zM-82.324-18.385v.639h-2.553v-.639h2.552zm-406.036-89.544v1.063c-.638-.212-1.276-.212-2.127-.425v-.638h2.127zm302.665 82.1v1.064c-.638-.213-1.276-.213-2.127-.426v-.638h2.127zm-95.5-1.063c0 .425 0 .638-.213 1.063-.638-.212-1.276-.425-1.914-.425v-.638h2.127zm24.885-4.254c0-.426.001-.638.213-1.064.638.213 1.276.213 1.914.426v.638h-2.127zm-72.741-1.914v1.063c-.638-.213-1.276-.213-2.127-.425v-.638h2.127zM33.807-60.073c0 .426 0 .638-.212 1.064-.639-.213-1.277-.426-1.915-.426v-.638h2.127zM-362.87-83.682c0-.425 0-.638.213-1.063.638.212 1.276.212 1.914.425v.638h-2.127zm-118.897-19.781v-1.063c.638.213 1.276.213 2.127.425v.638h-2.127zm333.294 470.908c0-.425 0-.638.213-1.063.638.213 1.276.213 1.914.425v.638h-2.127zm89.12-51.259c0 .425 0 .638-.213 1.063-.638-.213-1.276-.213-1.914-.425v-.638h2.127zM34.02 299.17v.638h-2.552v-.638h2.552zM-231 296.618c0 .425 0 .638-.212 1.063-.638-.213-1.277-.213-1.915-.425v-.638H-231zm27.438-7.657c0-.426 0-.638.213-1.064.638.213 1.276.213 1.914.426v.638h-2.127zm149.525-13.613c0-.425 0-.638.213-1.063.638.212 1.276.212 1.914.425v.638h-2.127zm-28.288-13.612v-.638h2.552v.638h-2.552zm322.021.425h-.639v-2.552h.639v2.552zm-469.42-39.136c0 .425 0 .638-.212 1.063-.638-.212-1.276-.212-1.915-.425v-.638h2.127zm410.928-61.682v-.638h2.553v.638h-2.553zm-447.511-1.276v-.638h2.552v.638h-2.552zm8.72.213c0-.426 0-.638.213-1.064.638.213 1.276.213 1.914.426v.638h-2.127zm-76.357-195.893v1.064c-.638-.213-1.277-.213-2.127-.426v-.638h2.127zm67.424 190.15c0 .425 0 .638-.213 1.064-.638-.213-1.276-.213-1.914-.426v-.638h2.127zm411.141-12.762v-1.063c.638.213 1.276.213 2.127.425v.638h-2.127zm-399.868-12.336v-.638h2.552v.638h-2.552zm-121.449-38.71v.638h-2.553v-.639h2.553zm14.676-1.277c0 .426 0 .638-.213 1.064-.638-.213-1.276-.213-1.914-.426v-.638h2.127zM-1.5 60.1v.638h-2.553V60.1H-1.5zm-19.781-14.676c0 .426 0 .638-.213 1.064-.638-.213-1.276-.213-1.914-.426v-.638h2.127zm-51.472-24.672v1.063c-.638-.213-1.276-.213-2.127-.425v-.638h2.127zm69.764-2.553h-.638v-2.552h.638v2.552zM-82.112-.518c0-.425 0-.638.213-1.063.638.212 1.276.425 1.914.425v.638h-2.127zM131.01-10.94v.638h-2.552v-.638h2.552zm-545.564-94.224v.425h-1.276v-.425h1.276zm244.387-.426h.426v1.277h-.426v-1.277zm-42.114-24.885v-.425h1.277v.425h-1.277zm156.119 261.403h.425v1.276h-.425v-1.276zm-269.06-85.291v.425h-1.276v-.425h1.276zm-6.806-4.254h.425v1.276h-.425v-1.276zm8.082 86.78v-.426h1.277v.426h-1.277zm343.29-96.139v.426h-1.276v-.426h1.276zm-254.597 263.317h.426v1.277h-.426v-1.277zm349.034-179.515v-.425h1.276v.425h-1.276zM-8.945 231.958v.426h-1.276v-.426h1.276zm14.464 8.083h-.426v-1.276h.426v1.276zm67.424 72.316h-.425v-1.276h.425v1.276zm31.054 4.041v.426h-1.276v-.426h1.276zM-288.426 143.69v.425h-1.277v-.425h1.277zm10.209 9.358h.425v1.276h-.425v-1.276zM96.978 322.141h.425v1.276h-.425v-1.276zM-170.168-5.197h.426v1.276h-.426v-1.276zm64.022 337.122h-.426v-1.276h.426v1.276zM80.174-6.261h-.425v-1.276h.426v1.276zm-451.126 112.729h-.426v-1.276h.426v1.276zm-48.92-1.276h-.426v-1.277h.426v1.277zM-97.426-7.537h-.425v-1.276h.425v1.276zm-228.435 111.452h.425v1.277h-.425v-1.277zm-7.444-2.339h.425v1.276h-.425v-1.276zM22.96-16.47v-.426h1.276v.426H22.96zm-50.622 365.624h-.425v-1.277h.425v1.277zm-223.543-186.322h.426v1.276h-.426v-1.276zm-15.952-183.981h.425v1.276h-.425v-1.276zM42.74 354.47v.425h-1.276v-.425h1.276zm-116.131 2.127h.425v1.276h-.425v-1.276zm-219.927-386.68v-.426h1.276v.425h-1.276zM-411.79 91.791h.425v1.276h-.425v-1.276zm111.24-125.49v-.426h1.276v.425h-1.276zM43.804 248.335v-.426h1.276v.426h-1.276zM-272.474-39.016v.425h-1.276v-.425h1.276zm9.146-.425h.425v1.276h-.425v-1.276zM-417.107 90.09v-.425h1.276v.425h-1.276zm34.456-1.701v.425h-1.276v-.425h1.276zm476.864.425v-.425h1.276v.425h-1.276zM-23.621-47.524v.426h-1.276v-.426h1.276zm235.454 299.05v.426h-1.276v-.426h1.276zm-582.36-165.477v.425h-1.276v-.425h1.276zm67.424 47.857v.425h-1.276v-.425h1.276zm94.437-187.173v-.425h1.276v.425h-1.276zM-42.338 374.89h-.425v-1.277h.425v1.277zm-358.817-449v-.426h1.276v.425h-1.276zm24.46-14.677v-.425h1.276v.425h-1.276zm-69.764-1.276v-.425h1.276v.425h-1.276zm63.808-1.276v-.425h1.277v.425h-1.277zM-245.037 169h.426v1.277h-.426V169zM-476.662-95.806h.425v1.277h-.425v-1.277zm32.542.426v.425h-1.276v-.425h1.276zm198.658 358.392v-.426h1.276v.426h-1.276z"/><path d="M40.189 384.461c0 .851-.213 1.489 0 1.914.425.851 1.276 1.489 2.127 2.553 2.34-2.553 5.53-3.404 8.72-4.254 1.914.638 2.765 4.041 6.168 2.127.638-.851 1.49-2.34 2.553-4.254 2.34 1.276 4.892 2.127 7.231-.851-2.765-1.276-2.127-5.956-6.168-6.381 1.064-.213 2.34-.425 3.403-.638v-2.978c-1.063-.638-2.34-1.063-4.254-2.127-.638.638-1.276 1.489-2.127 2.553.639.85 1.064 1.488 1.277 1.914-.851 1.701-1.702 3.403-2.978 5.743-4.892-.213-10.848.212-15.952 4.679zm17.866-29.352c.85 2.127 1.489 3.403 2.127 5.104h4.466c2.766 1.489 4.68 2.553 7.02 3.616.85-1.063 2.126-2.339 3.615-4.254-1.276-.212-2.127-.425-2.765-.638h-2.34c-1.488-1.489-1.701-4.466-.638-6.806l-2.127-2.127c-.212-1.702-.638-3.403-.85-5.743.212-.425.425-1.701 1.063-3.403-4.041.213-6.806-3.828-11.06-2.552-.213 2.765-.213 2.765 2.127 4.892.638-.426 1.276-.851 1.702-1.276 1.488.85 2.764 1.701 4.466 2.765-2.34 4.041-1.914 7.869 1.489 11.911-2.978-.426-5.105-.851-8.295-1.489zm47.855-4.254c.638-1.064 1.064-1.702 1.489-2.34-1.276-.638-2.765-1.276-5.317-2.339a120.516 120.516 0 001.701 6.168c-.425.212-1.063.425-1.914 1.063-.425.638-1.063 1.914-1.701 3.191.212.425.425.85.85 1.914-.425 1.063-1.063 2.339-1.914 3.828l2.765 2.765 2.978-1.488c1.701-2.127.213-7.019 4.892-7.232 1.276-3.829-1.489-4.467-3.829-5.53zm-99.115-27.65c.425-.851 1.276-1.915 2.127-3.191 1.063-.425 2.765-1.276 4.254-1.914-.638-4.892-1.49-5.318-5.956-3.191-1.701-1.063-3.615-1.914-5.53-3.19-2.127 4.254 1.915 7.657.213 11.486h4.892zm-.425-3.829c-.213-3.19-.213-3.19 1.488-2.765-.425.425-.85 1.276-1.488 2.765zm29.352-2.34c-.213 1.277-.426 1.702-.639 2.553h-2.977c-.638-1.064-1.276-2.127-1.702-3.191-2.34-.85-3.828-.212-4.892 1.702 0 3.19 4.68 7.232 9.359 7.657 1.914-2.552 3.828-4.892 5.955-7.87-1.914-.425-3.403-.638-5.104-.851zm44.665 51.686h6.168v-2.765l2.552-2.553v-4.679c-2.126.425-4.253.638-6.593 1.063a38.82 38.82 0 01-4.041-1.276v5.105c.638.213 1.276.425 1.914.425v4.68zm81.25-68.276c0-2.127-.213-3.616-.213-5.105h-4.466v4.254c1.489 1.276 3.19 2.978 5.104 4.041 1.915 1.064 4.254 1.489 7.658 2.553h4.041v-3.403c-4.041 0-7.232-4.042-12.124-2.34zm-54.875 80.825c-.638.638-1.489 1.701-2.552 2.765 1.276 2.977 5.317 2.339 11.06-2.127 1.063.425 2.34.851 3.616 1.489 2.127-.638 2.552-2.127 2.339-4.254-.85-.426-1.914-1.064-2.977-1.489-1.702.638-3.616 1.489-5.53 2.127-1.915.638-3.616 1.063-5.956 1.489zm75.719-240.985c1.702.638 2.765 1.276 4.041 1.702 1.702-2.127.851-3.403-1.063-4.892h-3.829l-1.701 1.701 1.063 1.064c-.85.425-1.914 1.063-2.339 1.276v4.467l3.403 3.403h3.616v-3.191c-.426-.212-1.064-.425-1.702-.638-.425-1.063-.851-2.552-1.489-4.892zm-56.364-34.669c-.638.851-1.914 2.127-3.403 4.254 4.892.213 8.933 1.063 12.974-1.489v-2.765l-1.701-1.701c-2.34.425-4.892 1.063-7.87 1.701zM84.003 74.776a215.765 215.765 0 00-4.254-2.765c-2.127-.213-5.53.638-8.295 2.34l3.616 3.615c.638-.212 2.34-.85 4.254-1.063 1.914 0 4.04.85 4.679-2.127zM59.544 326.182c-1.276.638-2.127.851-3.828 1.489 1.276.638 2.34 1.276 2.765 1.489v4.466c1.063.639 2.34 1.277 3.615 2.127 1.702-1.063 3.404-2.127 5.105-2.977-.638-2.765-2.127-3.403-4.466-3.191-1.064-1.276-2.127-2.339-3.19-3.403zm-21.697 2.127c.639 1.702.851 2.978 1.49 4.467h10.209c1.063-2.34 0-3.616-2.127-4.679-.851.425-1.702 1.063-2.765 1.489-1.064-.851-2.127-1.702-3.404-2.978a25.35 25.35 0 01-3.403 1.701zm-14.462 55.514c1.489.638 2.34 1.063 3.403 1.488-.213.213-.425.213-.638.426h9.146v-4.254c-1.064-.425-2.34-1.702-3.616-1.702-1.914 0-3.828.638-5.53 1.277-1.063.425-1.489 1.488-2.765 2.765zm69.977 3.615c-.426-1.489-.851-2.339-1.49-3.615 1.064-.639 2.34-1.489 3.83-2.553-.852-1.063-1.702-1.914-3.191-3.403-.638 1.489-.851 2.34-1.276 3.19-1.915 0-3.829.213-6.169.213 1.49 4.041 4.467 5.105 8.296 6.168zm-66.574-75.719c-.638-.213-1.489-.426-2.552-.851l.638-.638c-2.553.425-5.318.851-7.87 1.489-.213 5.317-.213 5.317 4.892 3.616 1.914-.638 4.254-.213 4.892-3.616zm85.717-230.988v4.041c2.765 2.34 2.765 2.34 5.743.426v-7.445c-1.914 1.064-3.616 1.915-5.743 2.978zm44.879 289.692c.85-1.914 1.276-3.19 1.914-4.254-.213-.425-.638-.851-.851-.851h-8.933c0 1.064-.213 2.127-.213 3.403 2.765.426 5.317 1.064 8.083 1.702zM5.944 406.794c1.276-1.489 2.127-2.34 2.978-3.403-1.276-1.489-2.34-2.553-3.403-3.829.638-.851 1.063-1.276 1.489-1.914-1.276-1.276-3.616-.638-6.381 1.701 1.489 1.915 2.978 4.254 5.317 7.445zm170.369-41.901a111 111 0 011.489-4.254c-1.489-.851-2.978-1.489-4.254-2.34-1.914 2.127-3.403 4.041-5.318 6.381 2.978.213 5.318.213 8.083.213zm-1.276-13.187c-.425.638-.851 1.488-1.701 2.977.85.426 1.914.638 2.977 1.276-.212.213.213-.212.851-.638 1.914.639 4.254 2.978 6.381-.425-.851-.638-1.914-1.489-3.829-2.978-.85-.212-2.765-.212-4.679-.212zM-9.37 391.693c.85 1.063 1.489 1.701 1.914 2.552h8.508c-.213-4.254-4.467-2.765-6.168-4.679l-4.254 2.127zm98.053-.638c-1.49.85-2.978 1.914-4.467 2.765l2.127 2.127c2.765-.638 6.168 1.488 8.933-1.489-.85-4.042-5.317-.851-6.593-3.403zM59.757 15.434v4.68c1.276.637 2.765 1.276 4.254 2.126.85-1.914 1.489-3.403 2.127-5.317-.851-.85-1.49-2.127-2.553-2.34-.85-.212-2.34.638-3.828.851zm9.995 369.452c1.702.851 2.553 1.276 4.254 1.914h5.53c-.425-3.828-3.616-3.615-5.955-5.104-1.064 1.063-1.915 1.701-3.829 3.19zm95.502-45.729v8.295c2.765.213 2.765.213 5.104-1.914-2.127-1.489-.425-5.743-5.104-6.381zm-27.226 0c-.851 3.828-1.489 7.444-2.553 12.123 1.914-1.276 2.978-1.914 4.254-2.552-.638-1.276-1.063-2.127-1.701-3.19a249.205 249.205 0 004.466-3.829c-1.701-1.063-2.978-1.701-4.466-2.552zm94.224 18.504c-3.19.638-5.955.851-7.231 5.105 3.19-.426 6.168 1.489 8.72-1.489-.425-1.276-.851-2.127-1.489-3.616zm-77.846-8.508c0 1.064-.213 1.915-.213 3.404 2.765.638 5.317 1.276 8.083 1.914 1.276-2.553.638-4.041-1.277-5.105-2.552 1.064-2.552 1.064-6.593-.213zM47.207 32.663h2.552c.638-2.34.85-4.467-1.489-5.956h-4.04c0 .638-.426 1.276-.214 1.702.851 1.488 1.915 2.765 3.19 4.254zM19.131 328.522h-4.679c0 .638-.213 1.489.213 1.701.85 1.489 2.127 2.765 3.19 4.042h2.34c.212-.426.425-1.064.425-1.489-.425-1.277-1.063-2.553-1.489-4.254zm193.979 61.044c.212 4.041.851 4.892 2.978 4.892 2.126 0 2.765-1.064 2.765-4.467-.213-.212-.213-.425-.426-.425h-5.317zM86.981 413.175c2.553-.638 4.892-1.277 7.445-1.915-.426-2.977-3.19-2.339-4.254-3.403-2.978.638-3.829 2.127-3.19 5.318zM216.3 161.556c-2.552 0-2.978 2.339-4.679 3.19.638 2.765 2.34 3.403 4.679 2.978a55.173 55.173 0 011.489-4.467c-.425-.425-1.063-1.063-1.489-1.701zM82.515 347.877h-3.829c-.425 1.064-1.063 2.127-1.701 3.191.425.425 1.276 1.063 1.701 1.701 1.702-.638 3.403-1.063 5.105-1.701-.213-.851-.638-1.914-1.276-3.191zM59.968 62.653v5.53h4.68c0-1.064.425-2.553.212-3.616-.85-2.34-3.19-.213-4.892-1.914zm75.508 303.729h-4.254c0 1.489-.213 2.978-.213 4.892 1.276-.213 2.552 0 3.403-.426 1.489-.85 1.914-2.339 1.064-4.466zM69.753 35.215c-2.34.85-3.19 2.552-2.34 4.892h4.041c1.49-2.34.213-3.829-1.701-4.892zm36.371 357.116c-2.552-1.064-3.616.425-4.892 1.701.851 2.553 2.552 3.191 4.892 2.553v-4.254zm110.814-66.574h7.019v-3.191h-4.467c-.425.426-1.063 1.277-2.552 3.191zm0-163.776c1.914-.851 3.19-1.489 4.679-2.127v-2.978h-4.679v5.105zm-23.396-8.295c-.638-3.829-.638-3.829-4.467-4.041-.425 4.253.213 4.679 4.467 4.041zM60.181 364.042c-1.488.638-2.34 1.276-2.977 1.489 0 2.127 1.276 2.765 4.466 2.978.426-1.064 1.064-1.915 1.49-2.978-1.064-.638-2.553-1.276-2.978-1.489zM3.179 327.033c-.638-1.063-1.064-1.914-1.489-2.552-2.765.638-3.403 2.339-3.19 4.466 3.403.426 3.403.426 4.679-1.914zm257.361 13.825c-1.702.638-3.191 1.277-5.53 2.127 2.127 1.277 3.615 2.127 5.317 2.978.638-.851 1.276-1.701 1.914-2.978-.638-.638-1.276-1.489-1.701-2.127zM84.003 71.373l2.552 1.914c1.702 0 2.34-1.063 2.552-4.68-2.34-.85-3.828 0-5.104 2.766zM32.744 332.989v-2.978c-1.063-.638-2.127-1.064-3.403-1.702-.425 1.276-1.064 2.765-1.914 4.68h5.317zm17.441 14.038c1.702-.426 3.19-.851 4.892-1.489-.85-1.489-1.276-2.552-1.701-3.829h-2.978c-.213 1.702-.213 2.978-.213 5.318zm67.423 3.615v5.743h3.191v-4.254c-.851-.425-2.127-1.064-3.191-1.489zm7.233 40.838v-2.978c-1.489 0-2.978-.213-4.254-.213-1.276 2.127-.425 3.404 1.063 4.68.851-.426 2.127-.851 3.191-1.489zM60.182 43.51c-1.488.638-2.977 1.489-4.892 2.34 1.277 1.488 2.127 2.34 2.766 3.403 2.765-1.49 3.828-2.978 2.127-5.743zM34.233 412.324c-1.063-2.765-2.552-3.403-4.679-2.765-.213 2.765-.213 2.765 1.276 4.467 1.064-.639 2.127-1.064 3.403-1.702zM9.986 329.16c-1.276.638-2.765 1.064-4.68 1.914 1.702 1.277 2.765 2.127 4.042 2.978.425-.638 1.276-1.701 2.127-3.19-.213 0-1.064-.426-1.915-.851.213-.213.213-.425.426-.851zm112.09 110.176v-5.955c-1.914.851-3.19 1.701-5.53 2.765 2.127 1.063 3.403 1.914 5.53 3.19zM24.024 15.221c.85 2.552 2.552 3.19 4.892 2.552v-2.977c-.85-.426-1.914-1.064-2.978-1.702-.638.851-1.063 1.49-1.914 2.127zm18.079 393.7c-.425.851-.85 1.701-1.276 2.765.638.638 2.127 1.701 3.616 2.978 1.489-2.978.425-4.467-2.34-5.743zm74.229-38.073c-.638-2.765-2.127-3.616-4.467-3.19-.638 3.616-.638 3.616 4.467 3.19zm25.737-264.806c.851-.425 1.915-.85 3.191-1.488-1.276-1.277-1.915-2.127-2.978-3.404-1.064 1.064-2.127 1.915-3.403 2.978 1.489.851 2.552 1.489 3.19 1.914zm133.573 263.956h3.19l1.489-1.489c-.425-1.064-1.063-1.914-1.489-2.978-1.063.638-2.126 1.064-3.19 1.702v2.765zm-44.028 52.748c1.701 0 3.19-.213 4.892-.213-.426-3.19-2.34-3.829-4.892-3.403v3.616zm-55.938-71.466c-1.064-1.489-1.915-2.552-2.765-3.828-1.064 1.063-1.915 1.701-2.978 2.552.638.851 1.063 1.702 1.702 2.553 1.063-.426 2.127-.639 4.041-1.277zm-49.558 5.105h3.19c.639-2.34.213-4.041-2.765-4.892-1.063 1.489-.425 3.191-.425 4.892zM75.92 323.63c-1.702 0-3.19-.213-4.892-.213v3.191s.425.425.638.425c2.34.213 3.829-.638 4.254-3.403zM53.375 59.462c2.978.851 4.467.213 5.53-2.34a79.148 79.148 0 01-3.403-2.126c-.638 1.488-1.276 2.765-2.127 4.466zm114.856 323.084c1.914 1.064 3.403 1.702 4.892 2.34 1.914-2.552-1.276-3.403-1.063-5.955-1.489 1.489-2.553 2.339-3.829 3.615zm18.93-49.345h3.19l1.915-1.914c-1.489-.851-2.765-1.914-4.68-2.978-.212 1.702-.212 3.191-.425 4.892zM9.56 396.372c1.276 1.063 2.552 2.339 3.828 3.403 2.127-2.765.426-4.041-1.276-5.956l-2.552 2.553zm99.329-383.49c-1.702 1.489-2.765 2.552-3.828 3.616l1.701 1.701h3.616c-.425-1.914-.851-3.403-1.489-5.317zm93.161 319.681v-2.765h-4.892c1.489 3.403 1.489 3.403 4.892 2.765zm65.084 43.39c-.851-3.19-2.34-3.828-4.892-3.19 0 .851-.213 1.914-.213 3.19h5.105zm-112.941 40.2c1.064-1.489 1.915-2.34 3.404-4.042-2.34-.212-4.042-.212-6.807-.425 1.489 1.914 2.34 2.978 3.403 4.467zM29.766 389.566h-4.041c0 1.063-.213 2.127-.213 2.978l2.127 2.127a206.24 206.24 0 002.127-5.105zM136.114 84.135c-.638 2.978 0 4.68 2.765 5.105.425-3.19.425-3.19-2.765-5.105zM19.981 394.458c.426-3.403.426-3.403-2.552-4.892-.425 3.403-.425 3.403 2.552 4.892zm71.892 35.945v4.042c1.914 1.063 3.403.425 4.892-1.702-1.49-.638-2.978-1.276-4.892-2.34zM123.14 427c.851 1.702 1.489 2.978 2.127 4.467 1.064-1.064 1.915-2.127 2.978-3.191-.851-1.701-2.34-2.339-5.105-1.276zm14.25-66.999c-.638 2.978 0 4.679 2.765 5.105.426-3.404.426-3.404-2.765-5.105zm68.063 2.339v-4.041s0-.213-.213-.213c-.425-.213-.638-.212-1.063-.212-1.064-.213-2.34-.639-3.616-1.064.638 2.552 2.34 3.829 4.892 5.53zM92.724 345.112c-1.915 2.553-.851 3.829.638 5.105 1.063-.638 2.127-1.064 3.403-1.702-1.49-1.063-2.765-2.339-4.041-3.403zM168.23 128.8c-1.063-1.063-1.914-2.127-3.403-3.615-.425 1.488-.425 2.127-.85 2.552-.213.425-.851.851-1.064 1.276l1.702 1.702c1.063-.426 2.127-1.064 3.615-1.915zM29.978 30.323h3.616c.426-.85 1.064-1.915 1.489-2.978-2.978-.425-2.978-.425-5.105 2.978zM200.986 144.54h-3.403c-.638 1.064-1.063 2.127-1.489 2.978.213 0 .426.425.851.425 2.127.426 3.616-.425 4.041-3.403zM51.461 422.746c2.553.213 3.19-1.063 3.616-3.403-1.276 0-2.34-.213-3.616-.213v3.616zm147.61-45.942c-1.063-1.276-1.701-2.127-2.339-2.765-.426-.426-1.064-.426-1.489-.638-.638 3.828-.638 3.828 3.828 3.403zM52.737 32.662c-.213 1.276-.213 2.34-.426 3.829h3.616c.426-2.553-1.063-3.19-3.19-3.829zm98.691 324.361c1.064.851 1.915 1.702 3.404 2.765.212-1.914.425-2.977.638-5.104-1.702 1.063-2.765 1.701-4.042 2.339zm17.014 66.999l-1.063-1.063c-1.276-.425-1.914 1.489-1.702 4.467.851-1.064 1.915-2.127 2.765-3.404zm-46.366-23.609c.638.851 1.276 1.702 2.127 2.765.851-.851 1.489-1.701 2.765-3.19-1.914-.213-2.978-.426-4.254-.638-.213.425-.426.85-.638 1.063zm104.859-224.607c1.063 2.552 1.488 4.041 2.339 5.956.851-1.702 1.276-2.765 1.914-3.829-.85-.425-1.914-.851-4.253-2.127zm7.657 174.411h4.467c-.851-1.489-1.277-2.553-2.127-4.041-.851 1.488-1.489 2.552-2.34 4.041zM47.845 404.454c-.638-2.552-1.276-3.828-3.616-3.616-.213.638-.213 1.276-.425 1.915 1.276.425 2.34.85 4.04 1.701zm168.88-258.212c.213-3.191-1.064-3.829-2.978-4.254-.212.638-.425 1.063-.851 2.127.851.212 1.489.212 2.127.638.426 0 .638.425 1.702 1.489z"/><path d="M92.724 387.226c.213.425.638.638.85 1.063l.426-.425c-.425-.213-.638-.638-1.064-.851 0 .213 0 .213-.212.213z"/></g></svg>