<svg width="32" height="25" viewBox="0 0 32 25" fill="none" xmlns="http://www.w3.org/2000/svg"><path d="M7.273 10.57c-.356 0-.697.054-1.037.103.11-.371.224-.75.405-1.09.182-.494.466-.922.749-1.353.236-.466.652-.782.958-1.181.321-.388.758-.647 1.104-.969.34-.336.785-.505 1.14-.742.37-.213.692-.449 1.036-.561l.86-.356.756-.316L12.47.998l-.952.23c-.305.078-.676.168-1.099.275-.432.08-.893.3-1.407.5-.507.228-1.094.382-1.64.747-.549.35-1.182.642-1.74 1.11-.541.482-1.194.9-1.675 1.515-.527.574-1.047 1.177-1.45 1.863-.468.654-.785 1.372-1.12 2.082-.303.71-.548 1.437-.747 2.142a19.441 19.441 0 00-.613 3.907 20.07 20.07 0 00.045 2.801c.024.327.069.644.1.864l.04.27.042-.01a7.226 7.226 0 001.884 3.53 7.17 7.17 0 003.468 1.977 7.145 7.145 0 003.981-.188 7.179 7.179 0 003.269-2.293 7.246 7.246 0 00.896-7.645 7.203 7.203 0 00-2.65-2.994 7.153 7.153 0 00-3.829-1.112zm17.548 0c-.356 0-.697.054-1.037.103.11-.371.223-.75.405-1.09.182-.494.466-.922.748-1.353.236-.466.653-.782.96-1.181.32-.388.757-.647 1.103-.969.34-.336.785-.505 1.139-.742.37-.213.692-.449 1.037-.561l.86-.356.756-.316-.774-3.107-.952.23c-.305.078-.676.168-1.1.275-.432.08-.893.3-1.406.5-.506.23-1.095.382-1.64.749-.549.35-1.182.641-1.74 1.11-.541.482-1.194.9-1.676 1.513-.526.574-1.046 1.177-1.45 1.863-.467.654-.785 1.372-1.12 2.082-.303.71-.547 1.437-.746 2.142a19.446 19.446 0 00-.613 3.907 20.062 20.062 0 00.045 2.801c.024.327.069.644.1.864l.04.27.042-.01a7.226 7.226 0 001.884 3.53 7.17 7.17 0 003.467 1.977 7.144 7.144 0 003.982-.188 7.179 7.179 0 003.269-2.293 7.247 7.247 0 00.896-7.645 7.203 7.203 0 00-2.65-2.994 7.153 7.153 0 00-3.83-1.112z" fill="#fff"/></svg>