<svg width="40" height="30" viewBox="0 0 40 30" fill="none" xmlns="http://www.w3.org/2000/svg"><path d="M9.091 11.964c-.444 0-.871.068-1.296.13.138-.465.28-.938.507-1.362.227-.618.582-1.153.935-1.692.295-.583.816-.978 1.198-1.477.401-.485.948-.807 1.38-1.21.425-.421.981-.632 1.424-.928.463-.267.865-.561 1.296-.702l1.075-.444.945-.395L15.588 0l-1.19.289c-.381.096-.846.208-1.374.342-.54.1-1.117.375-1.76.626-.633.284-1.367.476-2.049.933-.686.437-1.478.802-2.175 1.387-.676.603-1.492 1.126-2.094 1.894-.658.717-1.308 1.47-1.813 2.329-.584.817-.981 1.715-1.4 2.603A22.272 22.272 0 00.8 13.08a24.302 24.302 0 00-.766 4.884c-.067 1.439-.028 2.635.056 3.5.03.41.086.806.126 1.081l.05.337.052-.012a9.032 9.032 0 002.354 4.413 8.962 8.962 0 004.335 2.47 8.932 8.932 0 004.977-.234 8.973 8.973 0 004.086-2.867 9.058 9.058 0 001.12-9.556 9.004 9.004 0 00-3.312-3.742 8.94 8.94 0 00-4.787-1.39zm21.935 0c-.445 0-.871.068-1.296.13.138-.465.28-.938.506-1.362.228-.618.583-1.153.936-1.692.295-.583.815-.978 1.198-1.477.4-.485.947-.807 1.38-1.21.425-.421.981-.632 1.424-.928.462-.267.865-.561 1.296-.702l1.075-.444.945-.395L37.523 0l-1.19.289c-.382.096-.846.208-1.375.342-.54.1-1.116.375-1.758.626-.633.286-1.368.476-2.05.935-.686.437-1.478.802-2.176 1.387-.676.603-1.491 1.126-2.094 1.892-.658.717-1.308 1.47-1.812 2.329-.584.817-.981 1.715-1.4 2.603a22.258 22.258 0 00-.933 2.677 24.298 24.298 0 00-.766 4.884c-.068 1.439-.028 2.635.056 3.5.03.41.086.806.126 1.081l.05.337.051-.012a9.032 9.032 0 002.355 4.413 8.962 8.962 0 004.335 2.47 8.931 8.931 0 004.977-.234 8.973 8.973 0 004.086-2.867 9.058 9.058 0 001.12-9.556 9.004 9.004 0 00-3.312-3.742 8.941 8.941 0 00-4.787-1.39z" fill="#161921"/></svg>