<svg width="29" height="35" viewBox="0 0 29 35" fill="none" xmlns="http://www.w3.org/2000/svg"><path fill-rule="evenodd" clip-rule="evenodd" d="M20.447.088c-1 .2-2.145.683-3.034 1.28-.61.41-1.602 1.436-2.036 2.105-.465.716-.89 1.636-1.09 2.358-.115.415-.153.745-.158 1.367l-.006.82.65-.004c.47-.003.79-.047 1.159-.16 2.967-.905 5.198-4.022 5.198-7.261 0-.69.053-.652-.683-.505zm-1.208 8.476c-.56.102-1.438.384-2.723.874-1.307.499-1.66.596-2.16.597-.503 0-.773-.078-2.354-.684-2.248-.862-3.37-.99-5.066-.575-2.766.675-4.839 2.489-6.046 5.29-1.194 2.769-1.186 6.777.021 10.7.97 3.152 2.756 6.28 4.834 8.463.948.995 1.828 1.535 2.76 1.693.916.154 1.513.021 3.658-.815 1.087-.424 1.602-.523 2.712-.518 1.145.004 1.564.101 3.045.703 1.156.47 1.776.626 2.48.626 1.656 0 2.841-.724 4.337-2.652 1.523-1.963 2.425-3.5 3.189-5.435.474-1.202.48-1.126-.11-1.442-1.049-.56-2.266-1.62-2.836-2.468-.786-1.167-1.183-2.39-1.29-3.968-.114-1.687.42-3.515 1.42-4.85.43-.574 1.295-1.432 1.879-1.862.33-.243.41-.337.365-.422-.032-.06-.276-.36-.543-.668-1.147-1.324-2.868-2.247-4.818-2.583-.728-.126-2.072-.128-2.754-.004z" fill="#fff"/></svg>