<svg width="26" height="26" viewBox="0 0 26 26" fill="none" xmlns="http://www.w3.org/2000/svg"><path fill-rule="evenodd" clip-rule="evenodd" d="M12.02.024C10.095.21 8.66.617 7.039 1.441c-1.922.977-3.646 2.522-4.904 4.393C1.602 6.626.951 7.964.64 8.908a14.66 14.66 0 00-.575 2.49c-.085.597-.085 2.603 0 3.2.213 1.497.609 2.807 1.227 4.065.7 1.422 1.385 2.377 2.516 3.508 1.12 1.118 2.09 1.817 3.46 2.488.956.469 1.573.697 2.542.94a12.93 12.93 0 007.577-.364c.759-.267 2.073-.926 2.744-1.375a13.802 13.802 0 003.91-4.003c.365-.577.954-1.792 1.194-2.468 1.194-3.363.986-6.973-.583-10.127a12.557 12.557 0 00-2.33-3.294c-1.09-1.128-2.186-1.926-3.615-2.631A12.454 12.454 0 0014.131.043c-.518-.048-1.696-.058-2.11-.019zm2.771 1.742c3.225.541 5.953 2.32 7.745 5.053.863 1.313 1.451 2.863 1.72 4.527.126.78.126 2.523 0 3.303-.548 3.392-2.406 6.209-5.296 8.028-1.237.779-2.728 1.325-4.321 1.582-.783.127-2.525.126-3.305 0-2.528-.412-4.608-1.465-6.385-3.232-1.754-1.746-2.823-3.855-3.231-6.378-.127-.78-.127-2.523 0-3.303.532-3.287 2.269-6.01 4.997-7.83 1.555-1.038 3.43-1.692 5.357-1.868.55-.05 2.127.018 2.72.118zm-2.135 4.797a.871.871 0 00-.429.455c-.035.095-.054.999-.054 2.654v2.51l-2.589.014c-2.524.014-2.593.017-2.73.119-.266.199-.35.361-.35.683 0 .321.084.483.35.682.137.103.206.106 2.729.12l2.588.013.014 2.586c.013 2.522.016 2.59.118 2.727.2.266.362.35.684.35.321 0 .484-.084.683-.35.102-.137.105-.205.119-2.727l.014-2.586 2.588-.014c2.523-.013 2.59-.016 2.728-.119.267-.199.35-.361.35-.682 0-.322-.084-.484-.35-.683-.137-.102-.205-.105-2.728-.119l-2.588-.014-.014-2.586c-.014-2.521-.017-2.59-.12-2.726a1.416 1.416 0 00-.237-.24c-.168-.126-.573-.16-.776-.067z" fill="#161921"/></svg>