<svg width="22" height="26" viewBox="0 0 22 26" fill="none" xmlns="http://www.w3.org/2000/svg"><path fill-rule="evenodd" clip-rule="evenodd" d="M10.706.121c-.178.168-.202.346-.181 1.35l.018.875.151.123c.084.068.22.122.306.122a.575.575 0 00.307-.122l.15-.123.019-.875c.01-.481.002-.954-.017-1.052C11.412.184 11.21 0 11 0a.444.444 0 00-.294.121zm-5.2 1.276c-.155.08-.275.333-.224.472.088.24 1.023 1.709 1.13 1.775.162.1.47.047.58-.1.153-.208.098-.386-.362-1.153-.243-.407-.504-.802-.578-.878-.168-.171-.361-.213-.546-.116zm10.476.09c-.249.238-1.055 1.61-1.055 1.795 0 .083.037.2.082.261.11.148.417.201.58.101.107-.067 1.041-1.535 1.132-1.78.052-.142-.103-.436-.262-.493-.221-.079-.294-.061-.477.115zm-5.573 2c-1.49.179-2.467.514-3.61 1.239-.479.304-1.535 1.316-1.877 1.8-.511.721-.92 1.652-1.14 2.594-.045.196-.07.657-.069 1.296.002.9.015 1.039.144 1.524.393 1.47.948 2.388 2.102 3.473.382.36.734.737.781.838.062.133.096.422.12 1.024.028.72.049.868.148 1.048.135.245.389.498.61.606.139.068.155.101.155.326 0 .362.097.734.245.94l.128.179-.128.179c-.158.22-.259.636-.213.882.018.101.1.299.183.44.148.252.148.256.047.374a1.42 1.42 0 00-.188.399c-.211.687.25 1.417 1.004 1.588.457.103.75-.047.75-.384 0-.207-.194-.43-.376-.43-.193 0-.416-.142-.476-.304-.065-.178-.038-.282.117-.445.106-.11.14-.114 1.114-.114 1.04 0 1.304-.04 1.398-.206.096-.169.061-.43-.072-.548-.118-.105-.172-.11-1.121-.11-.606 0-1.066-.023-1.173-.058-.21-.07-.35-.328-.277-.511.11-.273.166-.286 1.333-.304 1.063-.016 1.088-.019 1.224-.14.182-.162.19-.447.018-.6-.114-.1-.191-.108-1.197-.124-1.2-.018-1.28-.038-1.378-.346a1.055 1.055 0 01-.039-.356l.018-.178 1.235-.013c1.18-.014 1.24-.019 1.358-.124.176-.155.169-.44-.015-.603l-.139-.123-1.549-.016-1.549-.016-.128-.128c-.12-.121-.129-.172-.156-.975-.028-.819-.035-.858-.2-1.192-.142-.287-.29-.456-.864-.991-.768-.716-1.081-1.104-1.43-1.771-.506-.965-.704-1.851-.662-2.964.043-1.138.321-2.004.961-2.986.358-.55 1.25-1.416 1.843-1.79a7.02 7.02 0 012.577-.965c.5-.076 1.63-.062 2.127.026 2.015.362 3.716 1.589 4.647 3.352.705 1.335.83 3.031.33 4.483-.345 1.003-.815 1.686-1.782 2.59-.597.558-.746.728-.888 1.016-.166.333-.172.373-.2 1.192-.028.808-.035.853-.16.978-.128.13-.142.131-.902.131-.875 0-1.11.056-1.203.288-.063.157-.039.298.077.449.068.088.16.105.662.127l.582.025.018.178c.025.246-.072.52-.213.603-.065.038-.311.085-.546.104-.445.036-.543.09-.609.337-.084.315.23.531.774.531.26 0 .335.02.424.114.162.17.186.28.104.466-.09.204-.297.284-.73.284-.231 0-.332.025-.421.103-.157.138-.197.317-.11.489.1.198.285.27.695.27.298.002.37.02.462.116.155.163.183.267.117.445-.104.281-.227.304-1.622.304h-1.26l-.141.134c-.18.17-.184.374-.012.562l.13.143.974.025.975.025-.16.24c-.468.695-1.426.778-2.145.186-.333-.275-.819-.121-.819.26 0 .368.773.872 1.501.979 1.124.164 2.235-.526 2.53-1.57.045-.163.094-.224.211-.262.372-.123.704-.55.786-1.012.043-.246-.073-.679-.235-.875-.101-.124-.101-.126.048-.381a1.76 1.76 0 00.184-.44c.045-.247-.055-.663-.213-.883l-.129-.18.129-.178c.148-.206.245-.578.245-.94 0-.225.015-.258.155-.326.22-.108.475-.36.61-.606.099-.18.12-.328.148-1.048.024-.606.057-.89.12-1.025.049-.105.395-.476.781-.839 1.29-1.211 1.893-2.283 2.198-3.902.094-.496.104-1.54.021-2.059-.476-2.966-2.945-5.362-6.05-5.868-.506-.083-1.48-.134-1.802-.095zM1.658 5.028c-.252.1-.316.487-.111.679.228.213 1.738 1 1.92 1 .37 0 .562-.418.312-.682-.15-.157-1.672-.993-1.864-1.022a.587.587 0 00-.257.025zm18.328-.012c-.254.095-1.665.904-1.77 1.016-.243.256-.04.675.327.675.173 0 1.69-.795 1.91-1 .12-.112.158-.326.088-.497-.063-.155-.37-.262-.555-.194zM8.03 8.81c-.375.145-.61.324-.829.633-.233.328-.31.582-.309 1.008.003.661.413 1.236 1.089 1.53.26.113.395.135.959.153l.657.021.015 2.454.016 2.454.13.131c.162.163.417.174.615.026l.142-.105v-4.972h.968v4.972l.142.105c.199.148.454.137.616-.026l.13-.13.015-2.455.016-2.454.657-.021c.563-.018.7-.04.959-.153a1.78 1.78 0 00.916-.837c.143-.274.17-.387.172-.693.002-.425-.075-.68-.308-1.01-.609-.862-1.898-1.012-2.718-.316a1.97 1.97 0 00-.42.518c-.134.26-.152.358-.177.95l-.027.66h-.914l-.027-.66c-.024-.591-.042-.69-.177-.95-.415-.798-1.443-1.17-2.308-.833zm1.178.875c.324.228.364.334.384.988l.018.606h-.53c-.397-.002-.582-.025-.748-.096-.684-.294-.716-1.145-.056-1.537.22-.13.72-.11.932.04zm4.515-.036c.66.38.627 1.24-.057 1.534-.165.07-.35.094-.744.095l-.524.001v-.53c0-.564.044-.744.232-.937.257-.264.78-.342 1.093-.163zM.265 10.03c-.214.088-.318.312-.238.512.108.267.154.277 1.334.278 1.088.002 1.092.002 1.224-.123.235-.222.154-.573-.159-.686-.222-.08-1.957-.064-2.16.02zm19.293-.016a.404.404 0 00-.142.683c.131.125.135.125 1.224.123 1.19-.001 1.234-.011 1.337-.292.077-.209-.047-.437-.28-.513-.21-.07-1.956-.07-2.14-.001zm-16.33 4.139c-.521.26-1.507.813-1.643.92-.318.254-.145.728.265.728.193 0 1.786-.834 1.956-1.024.13-.144.118-.368-.027-.52-.159-.168-.35-.205-.551-.104zm15.16-.03c-.268.105-.372.456-.193.654.051.058.473.312.937.565.927.505 1.115.553 1.326.342.159-.16.157-.44-.005-.583-.157-.14-1.677-.969-1.831-1a.493.493 0 00-.233.022z" fill="#161921"/></svg>