<svg width="18" height="26" viewBox="0 0 18 26" fill="none" xmlns="http://www.w3.org/2000/svg"><path fill-rule="evenodd" clip-rule="evenodd" d="M2.677.063c-.277.079-.749.52-.833.778-.044.134-.069.574-.068 1.22 0 .965.007 1.023.138 1.278.133.259.134.268.03.318-.49.237-1.237 2.207-1.629 4.296C-.005 9.657 0 9.526 0 17.485v7.346l.152.26c.225.384.395.542.79.735l.354.174h15.385l.355-.174c.394-.193.564-.351.789-.736l.152-.26.015-7.04c.017-7.767.038-7.276-.331-7.761-.208-.273-.516-.463-1.093-.674-1.726-.633-3.233-1.462-4.114-2.263-.837-.761-1.116-1.254-1.209-2.142-.058-.55-.216-.914-.52-1.192l-.195-.179.13-.253c.122-.238.13-.317.131-1.265 0-.635-.024-1.085-.066-1.212-.037-.111-.177-.312-.31-.446-.42-.42-.285-.407-4.156-.401-2.295.003-3.448.023-3.582.061zM4.48 2.03v1.22h-.763c-.736 0-.769-.004-.902-.125-.137-.123-.138-.132-.138-1.095s0-.972.138-1.095c.133-.12.166-.125.902-.125h.763v1.22zm2.705 0v1.22H5.382V.81h1.803v1.22zM9.752.935c.137.123.138.132.138 1.095s-.001.972-.138 1.095c-.133.12-.167.125-.902.125h-.763V.81h.763c.735 0 .769.005.902.125zm.173 3.259c.3.202.371.342.42.825.026.251.077.568.113.704.097.368.457 1.017.771 1.39.863 1.028 2.64 2.107 4.804 2.92 1.019.382 1.07.453 1.07 1.477v.688h-.312c-.376 0-.59.147-.59.406 0 .26.214.407.59.407h.312v1.627h-.312c-.376 0-.59.147-.59.406 0 .26.214.407.59.407h.312v1.627h-.312c-.376 0-.59.147-.59.407s.214.406.59.406h.312v1.627h-.312c-.376 0-.59.147-.59.407s.214.407.59.407h.312v1.626h-.312c-.257 0-.337.023-.45.125-.184.165-.184.399 0 .564.113.103.193.125.453.125h.316l-.017.962c-.02 1.053-.032 1.096-.406 1.348-.155.104-.168.105-7.699.105-7.53 0-7.543 0-7.698-.105-.374-.252-.387-.295-.406-1.348l-.017-.962h.316c.26 0 .34-.022.454-.125.183-.165.183-.399 0-.564-.114-.102-.194-.125-.451-.125H.873v-1.626h.313c.376 0 .59-.148.59-.407 0-.26-.214-.407-.59-.407H.873v-1.627h.313c.376 0 .59-.147.59-.406 0-.26-.214-.407-.59-.407H.873v-1.627h.313c.376 0 .59-.147.59-.407s-.214-.406-.59-.406H.873V13.01h.313c.257 0 .337-.022.45-.125.184-.165.184-.399 0-.564-.114-.103-.193-.124-.459-.124H.856l.035-1.03c.085-2.46.491-4.522 1.222-6.209.227-.524.4-.739.677-.84.09-.032 1.371-.047 3.56-.04 3.357.01 3.422.012 3.575.115zM4.65 6.187c-.215.157-.68 1.84-.918 3.316-.115.713-.12.951-.14 7.08l-.02 6.341.141.127.141.128h10.718l.138-.125.138-.125v-5.42c0-3.559-.02-5.453-.057-5.516-.031-.053-.384-.244-.785-.426-1.496-.677-2.523-1.325-3.472-2.189-.909-.828-1.496-1.654-1.88-2.645-.097-.252-.23-.498-.294-.547-.106-.08-.283-.089-1.852-.089-1.577 0-1.746.008-1.858.09zm3.32 1.218c.871 1.907 2.787 3.604 5.405 4.79l.572.258v9.912H4.475l.021-6.037c.019-5.345.032-6.107.117-6.647.144-.915.44-2.19.63-2.708.018-.05.302-.061 1.268-.05l1.245.013.215.469zm.836 6.047c-.187.045-1.12 1.28-1.531 2.025-.41.744-.507 1.048-.51 1.604-.003.46.007.505.207.87.253.462.58.75 1.104.974.34.146.427.161.911.161.485 0 .572-.015.912-.16.524-.225.85-.513 1.104-.976.2-.364.21-.408.207-.87-.003-.555-.1-.859-.51-1.603-.285-.518-.565-.923-1.077-1.558-.38-.472-.501-.541-.817-.467zm.506 1.478c.635.897 1.028 1.709 1.028 2.126 0 .652-.642 1.242-1.353 1.242-.354 0-.64-.116-.931-.38-.452-.407-.523-.776-.277-1.441.2-.54 1.072-1.94 1.208-1.94.025 0 .172.176.325.393z" fill="#161921"/></svg>