<svg width="26" height="20" viewBox="0 0 26 20" fill="none" xmlns="http://www.w3.org/2000/svg"><path fill-rule="evenodd" clip-rule="evenodd" d="M7.7.13c-.473.243-.736.703-.735 1.286 0 .63.331 1.15.856 1.347.178.067.483.085 1.413.085h1.185l-.014.713-.014.712-1.295.028c-1.237.027-1.302.034-1.48.156-.368.25-.652.715-.652 1.063 0 .27-.104.512-.256.599-.11.062-.345.082-.972.083-.691 0-.861.018-1.03.103-.306.153-.511.37-.657.69-.127.282-.13.319-.13 1.396v1.106h-1.32V8.391c0-1.077-.004-1.114-.131-1.396C1.957 5.866.454 5.96.088 7.143c-.117.377-.117 8.187 0 8.563.225.73.946 1.112 1.655.878.278-.092.595-.412.735-.742.113-.267.12-.345.12-1.386v-1.104h1.314l.016 1.411c.018 1.557.022 1.582.364 1.958.342.376.438.4 1.745.43l1.179.029 1.181 1.295c.843.925 1.247 1.329 1.41 1.41.225.112.31.114 5.102.114l4.873.001.254-.13c.14-.072.331-.227.425-.345.309-.386.331-.498.352-1.747l.019-1.134.414.017.414.016.03.447c.037.537.084.676.336.984.28.342.55.454 1.157.483 1.26.061 2.05-.32 2.528-1.22.277-.519.29-.68.289-3.57 0-2.039-.016-2.72-.069-2.935-.174-.719-.582-1.258-1.2-1.585-.377-.2-.386-.202-1.15-.222-.611-.016-.822-.002-1.017.07-.56.204-.878.717-.878 1.413v.408h-.855l-.018-1.355c-.02-1.492-.033-1.569-.352-1.969a1.554 1.554 0 00-.425-.344c-.234-.12-.32-.13-1.108-.13l-.854-.001-.149-.164c-.146-.161-.148-.171-.148-.796 0-.348-.024-.725-.053-.838-.092-.366-.354-.727-.65-.896-.273-.156-.275-.156-1.308-.156h-1.035V2.848h1.184c.929 0 1.233-.018 1.412-.085.716-.269 1.063-1.19.735-1.954-.144-.336-.334-.541-.64-.694-.225-.112-.31-.114-4.848-.114L7.954 0 7.7.13zm9.495.956c.235.257.127.7-.19.785-.064.017-2.111.024-4.55.015l-4.434-.015-.097-.132a.542.542 0 01.028-.653l.125-.137h8.994l.124.137zm-3.327 2.489V4.3H11.28V2.848h2.589v.727zm2.883 1.79c.144.146.158.23.174 1.031.016.74.07.932.357 1.254.332.375.473.417 1.496.45.878.027.931.035 1.04.156l.116.127v10.399l-.142.134-.143.135h-9.507l-1.195-1.307c-.658-.719-1.276-1.354-1.373-1.41-.155-.09-.32-.106-1.27-.12-.6-.007-1.142-.026-1.204-.042a.51.51 0 01-.215-.149c-.102-.12-.103-.18-.103-4.36V7.425l.124-.137c.122-.134.143-.137.931-.137.887 0 1.165-.059 1.46-.307.251-.21.464-.65.506-1.043.027-.257.062-.351.163-.439.126-.109.21-.111 4.402-.111 4.222 0 4.274.001 4.383.113zM1.611 7.287l.125.137v8l-.125.137a.426.426 0 01-.593.03l-.12-.107-.014-3.93C.876 9.394.882 7.57.897 7.501c.077-.343.485-.465.714-.213zm22.765 2.845c.247.143.497.413.627.677.107.219.11.279.124 2.87.016 2.954.009 3.035-.315 3.451a1.44 1.44 0 01-.446.36c-.236.114-.35.131-.92.133l-.652.003-.123-.157-.122-.157v-7.039l.13-.142c.127-.141.135-.142.824-.122.551.016.732.042.873.123zM3.92 11.453v.95H2.6v-1.9h1.32v.95zm17.767 2.346v1.9h-.863v-3.8h.863v1.9z" fill="#161921"/></svg>