<svg width="26" height="26" viewBox="0 0 26 26" fill="none" xmlns="http://www.w3.org/2000/svg"><path fill-rule="evenodd" clip-rule="evenodd" d="M20.727.073c-.188.04-.45.12-.581.176-.328.14-.834.509-1.059.77-.261.305-.524.87-.584 1.258-.032.202-.052 1.862-.052 4.273v3.942l-.251.03c-.528.062-1.01.434-1.253.967-.356.778-.016 1.754.748 2.144.327.167.754.225 1.658.226h.776V26h2.543V13.86l.775-.002c1.26-.002 1.654-.102 2.087-.532.322-.32.466-.68.466-1.168 0-.33-.025-.46-.13-.686-.235-.503-.734-.883-1.255-.958l-.24-.034-.025-4.165c-.025-4.142-.026-4.166-.138-4.462-.507-1.342-1.992-2.1-3.485-1.78zm-17.9.142a4.146 4.146 0 00-1.2.665C.563 1.68-.077 3.079.008 4.417c.086 1.324.704 2.429 1.8 3.215l.267.192v12.195l-.32.338a3.65 3.65 0 00-.819 1.48c-.103.421-.106 1.202-.005 1.6.279 1.098 1.156 2.04 2.226 2.392.58.19 1.406.202 1.97.027A3.408 3.408 0 007.44 23.46c.114-.432.115-1.19 0-1.625-.165-.63-.57-1.303-1.004-1.667l-.142-.12V7.82l.242-.165a4.19 4.19 0 00.726-6.303C6.76.804 5.953.317 5.138.07L5.024.035V3.75H3.345V1.896c0-1.02-.017-1.853-.038-1.852a6.483 6.483 0 00-.48.171zm9.317.602v.317L11.33 2.15c-.518.647-.823 1.072-.84 1.169-.03.184-.38 2.99-.38 3.058 0 .026-.17.155-.377.286-.715.453-1.177 1.094-1.305 1.812-.123.685.116 1.366.695 1.979l.325.344-.307.725c-.639 1.511-1.176 3.28-1.425 4.698-.137.78-.186 2.24-.102 3.034.092.879.287 1.951.54 2.976.242.98.73 2.544.896 2.87.154.303.419.562.739.724.252.126.354.148.702.149.336 0 .457-.023.698-.136.906-.424 1.185-1.36.78-2.62-.43-1.332-.811-2.935-.971-4.07-.266-1.89.179-4.58 1.104-6.686.11-.251.225-.521.255-.6.046-.123.076-.14.231-.126.173.015.185.03.4.51.39.865.791 2.112.986 3.059.268 1.298.352 2.858.208 3.863-.152 1.071-.502 2.521-.979 4.064-.187.605-.202.696-.18 1.094.027.517.14.806.444 1.136.118.127.343.294.5.371.405.198.975.202 1.38.009.334-.158.629-.442.788-.756.266-.527.925-2.84 1.167-4.096.33-1.714.397-3.33.189-4.59-.266-1.609-.78-3.312-1.518-5.026l-.25-.58.316-.316c.448-.447.685-.948.72-1.524a2.289 2.289 0 00-.038-.668c-.168-.627-.645-1.232-1.299-1.65l-.358-.23-.397-2.179a317.61 317.61 0 00-.422-2.288c-.017-.074-.346-.323-1.026-.775C12.669.8 12.201.5 12.181.5c-.02 0-.037.143-.037.318zm9.905.11c.548.146 1.027.518 1.261.979l.15.295.014 4.127.013 4.128h-.815v-.813h-.865v.813h-.814V2.07l-.42.015-.419.014-.013 4.179-.013 4.178h-.815l.014-4.102.013-4.102.14-.28c.249-.495.603-.803 1.142-.993a2.698 2.698 0 011.427-.052zM2.532 2.677c0 1.33.002 1.367.114 1.536.064.095.218.225.344.289.22.112.268.116 1.275.102l1.047-.015.186-.143c.352-.268.362-.313.39-1.806l.026-1.34.316.238a3.325 3.325 0 011.299 2.644c0 .566-.103.99-.377 1.547A3.3 3.3 0 015.82 7.102l-.39.213V20.45l.208.144c.522.36.93 1.018 1.029 1.658.199 1.285-.682 2.568-1.95 2.84-.384.082-1.08.032-1.416-.103a2.579 2.579 0 01-1.347-1.222 2.474 2.474 0 01.663-3.07l.32-.258v-6.562l.001-6.561-.325-.182C1.407 6.46.803 5.383.864 4.012c.038-.847.32-1.523.88-2.11.255-.267.662-.59.744-.59.024 0 .044.614.044 1.364zm10.73-.47c.17.111.207.17.252.393.086.431.758 4.162.774 4.303.012.099-.076.246-.357.597-.205.257-.39.467-.41.467-.022 0-.083-.048-.136-.107a1 1 0 00-.237-.18l-.14-.072V4.841c0-1.522.012-2.767.027-2.767.014 0 .116.06.226.132zm8.579-.1c-.019.02-.034 1.528-.034 3.354v3.318h.865V2.074h-.399c-.219 0-.413.015-.432.034zm-9.746 5.546a1.562 1.562 0 00-.22.132l-.172.116-.391-.644-.392-.643.194-1.548.194-1.547.405-.503.405-.503.014 2.562c.008 1.633-.005 2.567-.037 2.578zm-.687 1.52c.234.783 1.206 1.13 1.875.669a1.39 1.39 0 00.5-.678c.039-.132.286-.488.684-.986l.624-.778.28.265c.98.925.665 2.068-.76 2.768-.543.267-.898.365-1.555.428-1.675.163-3.365-.565-3.738-1.61-.228-.637.088-1.384.778-1.84l.233-.155.503.838c.277.461.536.947.576 1.08zm1.486-.617c.278.31-.043.762-.444.622-.179-.062-.255-.177-.255-.386 0-.383.436-.53.699-.236zm-2.445 2.768c.135.058.432.155.66.216l.416.11-.226.533c-.803 1.897-1.204 3.816-1.203 5.765 0 1.499.283 2.938 1.11 5.665.22.722.14 1.122-.282 1.41-.346.234-.93.082-1.118-.293-.215-.428-.726-2.152-.987-3.332-.437-1.968-.523-3.405-.295-4.876l.087-.555.52-.014.52-.015v-.86h-.824l.033-.14c.018-.076.067-.26.109-.406l.075-.266h1.016v-.864h-.356c-.196 0-.357-.017-.357-.038 0-.021.06-.204.134-.407l.135-.368h.851v-.863h-.5l.107-.254c.06-.14.112-.254.119-.254.006 0 .121.047.257.105zm4.646.127c.055.128.1.242.1.253 0 .012-.114.022-.254.022h-.254v.86l.441.014.441.015.143.393.143.394h-.761v.864h1.046l.087.326c.048.18.101.363.118.406.027.07-.027.08-.381.08h-.413v.864h1.001l.092.52c.12.682.158 2.023.078 2.748-.153 1.404-.519 3.043-1.022 4.583-.31.95-.408 1.139-.66 1.268-.209.108-.599.096-.799-.026-.425-.259-.482-.762-.192-1.695.715-2.304 1.045-4.015 1.044-5.413-.001-1.862-.45-3.975-1.22-5.749a5.76 5.76 0 01-.203-.506c0-.02.165-.078.368-.127a5.42 5.42 0 00.648-.207 6.77 6.77 0 01.295-.118c.008-.001.06.102.114.23zm9.696 0c.505.374.505 1.04 0 1.413-.141.105-.188.106-3.28.12-3.51.017-3.44.023-3.71-.332-.116-.152-.139-.232-.139-.49 0-.364.125-.582.424-.74.18-.096.3-.1 3.374-.088 3.146.01 3.19.012 3.331.117zm-2.984 8.047v5.638h-.814V13.86h.814v5.639zm-18.08 1.541c-.475.156-.825.45-1.044.878-.108.213-.126.316-.125.73 0 .423.017.515.134.737.182.344.47.622.806.78.376.177.972.185 1.339.019a1.68 1.68 0 00.9-2.157c-.285-.757-1.257-1.234-2.01-.987zm.934.935c.254.19.337.356.337.673 0 .223-.027.334-.106.441-.183.247-.416.372-.692.372-.307 0-.501-.096-.687-.339-.185-.242-.203-.69-.037-.911.305-.409.816-.51 1.185-.236z" fill="#161921"/></svg>