<svg width="26" height="26" viewBox="0 0 26 26" fill="none" xmlns="http://www.w3.org/2000/svg"><path fill-rule="evenodd" clip-rule="evenodd" d="M5.665.073c-.246.09-.507.332-.65.604-.282.53-.021 1.294.54 1.584.209.109.643.142.87.068l.19-.063L7.91 3.554c.712.71 1.326 1.363 1.365 1.453.049.112.071.37.071.825v.662l-.47.002c-.642.003-.897.06-1.043.23-.088.101-.11.173-.087.27.07.282-.222.267 5.11.276l4.945.01.203.109c.26.139.463.342.602.601l.109.204.009 4.948c.01 5.45-.012 5.102.321 5.102s.45-.29.454-1.121l.003-.47h3.34l.088.14c.269.423.608.631 1.036.635.527.005.955-.292 1.148-.796.212-.557-.099-1.245-.672-1.486-.212-.088-.683-.088-.896.002-.234.098-.514.355-.614.565l-.084.178h-3.346v-.858l.893-.016.893-.015.126-.147c.137-.16.13-.334-.02-.501-.07-.079-.188-.09-.986-.09H19.5v-.863h3.008c1.869 0 3.079-.02 3.194-.052a.363.363 0 000-.709c-.115-.032-1.325-.051-3.194-.051H19.5v-.864h.906c.798 0 .915-.01.986-.09.15-.166.157-.34.02-.5l-.126-.147-.893-.016-.893-.016v-.848l.8-.018c.718-.016.823-.03 1.028-.136.145-.075.72-.61 1.581-1.467l1.353-1.348.165.058c.585.204 1.24-.111 1.494-.719.273-.652-.204-1.447-.951-1.587-.337-.064-.682.06-.98.35-.355.348-.468.771-.32 1.198l.058.166-1.289 1.295c-.709.712-1.363 1.327-1.452 1.366-.113.049-.37.071-.826.071H19.5v-.42c-.001-.864-.17-1.362-.617-1.808-.446-.446-.944-.616-1.808-.617h-.419V3.153l.14-.089c.423-.269.631-.608.635-1.036.005-.528-.292-.956-.795-1.148-.557-.213-1.245.098-1.486.672-.088.211-.087.682.002.896.098.234.355.514.565.614l.177.084v3.348h-.856l-.016-.893-.016-.894-.147-.126c-.16-.138-.333-.13-.5.02-.079.07-.09.188-.09.987v.906h-.863v-3.01c0-1.87-.02-3.08-.052-3.195a.363.363 0 00-.708 0c-.032.115-.052 1.326-.052 3.195v3.01h-.863v-.906c0-.8-.01-.917-.09-.987-.166-.15-.34-.158-.5-.02l-.147.126-.016.894-.016.893h-.847l-.018-.8c-.016-.718-.03-.824-.136-1.029-.076-.145-.61-.72-1.466-1.582L7.148 1.73l.058-.166A1.236 1.236 0 007.14.671 1.183 1.183 0 005.665.073zm.599.74c.272.145.32.454.104.67-.168.168-.374.173-.56.014-.368-.318.028-.913.456-.684zm10.164.804c.152.058.275.307.24.488-.03.164-.242.325-.426.325-.206 0-.397-.202-.397-.42 0-.183.067-.297.228-.385.128-.07.189-.071.355-.008zm8.696 4.196c.358.4-.235.927-.615.547-.153-.153-.172-.347-.052-.519.168-.24.467-.253.667-.028zM6.732 7.825c-.17.147-.225.401-.228 1.044l-.002.47h-3.34l-.089-.14c-.268-.423-.607-.631-1.036-.635-.527-.005-.955.292-1.147.795-.213.558.098 1.246.672 1.486.21.089.682.088.895 0 .235-.099.514-.357.614-.566l.084-.178H6.5v.857l-.893.016-.893.016-.126.147c-.137.16-.13.334.02.5.07.08.188.09.986.09h.907v.863h-3.01c-1.867 0-3.078.02-3.192.052a.363.363 0 000 .71c.114.031 1.325.05 3.193.05l3.009.001v.864h-.907c-.798 0-.915.01-.986.089-.15.167-.157.34-.02.5l.126.148.893.015.894.016v.849l-.8.018c-.718.016-.823.03-1.029.136-.145.075-.72.609-1.58 1.466l-1.354 1.349-.165-.058c-.585-.204-1.24.111-1.494.718-.303.726.3 1.581 1.115 1.582a1.2 1.2 0 001.074-.646c.11-.211.144-.645.07-.872l-.064-.192 1.288-1.294c.709-.712 1.362-1.326 1.452-1.365.112-.05.37-.071.825-.071h.662v.419c0 .864.17 1.362.616 1.809.446.446.944.616 1.808.616h.42v3.341l-.14.09c-.424.268-.632.607-.636 1.036-.005.527.292.956.795 1.148.558.213 1.245-.099 1.486-.672.088-.212.087-.683-.002-.896-.098-.235-.355-.515-.565-.614l-.177-.084V19.5h.856l.016.893.016.894.147.126c.16.137.334.13.5-.02.08-.07.09-.188.09-.987V19.5h.863v3.01c0 1.869.02 3.08.052 3.194a.363.363 0 00.708 0c.032-.114.052-1.325.052-3.195V19.5h.863v1.822l.134.105c.175.137.286.133.46-.017l.143-.122.016-.894.016-.893h.848l.017.8c.016.718.03.823.137 1.028.075.146.608.721 1.466 1.582l1.347 1.354-.057.165c-.257.737.329 1.561 1.116 1.57.73.01 1.352-.762 1.168-1.447-.18-.671-.786-1.044-1.447-.892l-.256.06-1.29-1.285c-.709-.706-1.32-1.358-1.36-1.448-.049-.112-.07-.37-.07-.825V19.5l.469-.003c.643-.003.897-.058 1.043-.229.088-.102.11-.173.087-.271-.069-.282.222-.266-5.109-.276l-4.945-.009-.204-.11a1.448 1.448 0 01-.601-.6l-.11-.204-.009-4.948c-.01-5.334.006-5.043-.275-5.112-.098-.024-.17 0-.272.087zm4.843.754c-.716.117-1.224.686-1.224 1.371 0 .289-.01.313-.135.359-.434.158-.882.533-1.064.89-.254.498-.236 1.152.042 1.608l.148.243-.146.29c-.408.808-.262 1.63.402 2.268.25.24.306.324.306.457 0 .395.472.998.945 1.207.655.29 1.467.177 1.982-.275l.17-.15.17.15c.515.452 1.327.565 1.982.275.459-.203.946-.811.946-1.182 0-.103.045-.166.177-.248.514-.318.835-1.046.734-1.665-.048-.298-.218-.677-.362-.808-.118-.106-.118-.232 0-.338.376-.341.493-1.263.226-1.786-.205-.401-.652-.792-1.055-.925-.146-.047-.153-.062-.162-.37-.037-1.195-1.422-1.805-2.466-1.084l-.19.131-.19-.131a1.637 1.637 0 00-1.236-.287zm-9.236.9a.41.41 0 01-.33.673c-.444 0-.582-.61-.175-.782.206-.087.38-.049.505.11zm9.981-.029c.09.053.185.158.213.234l.122.34c.05.142.112.218.208.251.222.079.402-.014.484-.25l.122-.341c.166-.453 1.134-.472 1.347-.027.173.361.12.488-.245.58-.368.093-.525.214-.545.42a.337.337 0 00.101.293c.125.133.155.134.702.02.71-.149 1.434.358 1.434 1.005 0 .322-.06.43-.448.797-.221.209-.326.347-.326.428 0 .081.105.219.326.428.178.17.353.364.386.43.108.215.076.588-.073.841l-.135.23-.29-.294c-.28-.285-.67-.517-.867-.517-.175 0-.362.195-.362.378 0 .185.055.246.396.434.558.309.643.906.185 1.306-.428.374-1.178.298-1.515-.153-.1-.133-.11-.227-.133-1.245-.033-1.457-.006-1.89.133-2.076.149-.2.361-.312.71-.376.165-.03.34-.091.389-.135.113-.102.116-.407.005-.53-.14-.153-.67-.114-1.148.085-.074.03-.089.008-.089-.135 0-.244-.083-.5-.188-.58a.39.39 0 00-.436 0c-.154.117-.188.373-.188 1.409v.999l-.2-.097a.97.97 0 00-.321-.097c-.18 0-.342.178-.342.375 0 .186.06.252.414.454.39.223.449.368.449 1.113 0 .573-.011.65-.115.804-.333.494-1.121.575-1.557.158-.334-.319-.362-.692-.08-1.075.236-.32.108-.66-.25-.66-.139 0-.205.037-.328.186-.133.162-.164.177-.236.117-.16-.134-.288-.466-.29-.757-.005-.522.338-.954.928-1.169.166-.06.325-.153.353-.206a.4.4 0 00-.056-.464c-.09-.09-.148-.103-.352-.08a1.636 1.636 0 00-.46.14c-.208.106-.218.107-.284.017-.199-.272-.177-.685.054-1.034.154-.233.544-.436.934-.486.2-.025.292-.066.368-.163.13-.164.128-.2-.025-.53-.124-.268-.126-.36-.012-.593.062-.124.28-.266.494-.32.178-.044.448.005.639.118zm11.875 6.423c.131.05.242.312.205.482-.07.314-.51.42-.723.173-.302-.352.073-.826.518-.655zm-22.702 3.76c.168.169.173.374.013.56-.317.369-.911-.027-.683-.456.145-.272.453-.32.67-.104zm8.54 4.055c.208.208.164.538-.088.668-.194.1-.425.05-.533-.114-.28-.427.263-.912.62-.554zm10.16.809c.37.317-.026.912-.455.684-.272-.145-.32-.454-.104-.67.169-.169.374-.174.56-.014z" fill="#161921"/></svg>