<svg width="26" height="26" viewBox="0 0 26 26" fill="none" xmlns="http://www.w3.org/2000/svg"><path fill-rule="evenodd" clip-rule="evenodd" d="M5.393.054c-.415.135-.741.44-.944.88-.11.24-.113.29-.128 2.668l-.016 2.424-.467.035c-.686.05-1.123.16-1.636.408a3.856 3.856 0 00-2.16 2.907C.006 9.61-.007 11.87.003 16.26l.015 6.536.117.381c.211.686.49 1.143 1.025 1.679.547.546 1.01.825 1.703 1.026l.406.118h19.462l.407-.118c.693-.2 1.156-.48 1.702-1.026.535-.536.814-.993 1.025-1.679l.117-.381.015-6.536c.01-4.39-.003-6.65-.039-6.884a3.856 3.856 0 00-2.16-2.907c-.514-.248-.95-.357-1.639-.409l-.47-.035v-.623c0-.744-.05-.927-.284-1.025-.222-.092-4.38-.104-4.643-.013-.249.087-.306.281-.306 1.034v.638H7.36V3.647c0-2.267-.006-2.402-.102-2.661A1.492 1.492 0 005.924.003a1.65 1.65 0 00-.531.05zm.726.875a.77.77 0 01.274.248c.097.156.103.25.103 1.648v1.482H5.169l.015-1.49c.018-1.65.02-1.661.362-1.87.197-.12.347-.125.573-.018zm.377 4.675v.432H5.175v-.399c0-.219.015-.413.034-.432.018-.019.315-.034.66-.034h.627v.433zm14.319.012l.015.42h-3.511v-.399c0-.219.016-.414.035-.433.019-.019.802-.028 1.74-.02l1.706.013.015.42zm2.031 1.408c.984.262 1.736.944 2.107 1.911l.166.432.014 6.496c.012 5.63.004 6.545-.063 6.867-.239 1.157-1.188 2.112-2.339 2.354-.535.113-18.927.113-19.462 0-1.15-.242-2.1-1.197-2.34-2.354-.066-.322-.074-1.238-.062-6.867l.014-6.496.166-.432c.367-.955 1.117-1.642 2.085-1.909.37-.101 19.332-.104 19.714-.002zM2.838 9.153c-.265.134-.255-.16-.242 6.937l.012 6.621.124.131.123.132H19.65l.143-.123.142-.123.014-6.545c.009-4.458-.004-6.608-.04-6.743-.103-.381.604-.352-8.648-.351-6.554 0-8.324.014-8.424.064zm11.523 1.016l.095.216-.13.014c-.382.043-.462.2-.462.908 0 .524.003.538.148.684.149.148.15.149.785.149h.636l-.124.364c-.201.593-.202.59.43 1.23.673.681.652.677 1.469.267l.569-.285v.375c0 .337.013.388.134.509.126.126.161.134.635.134h.501v7.375h-5.582l-.016-.937c-.017-.907-.02-.941-.138-1.066-.108-.115-.168-.131-.534-.144l-.412-.015-.762-1.152c-.832-1.258-.906-1.355-1.09-1.425-.228-.087-.383.039-.897.727l-.49.657-.286-.42c-.399-.584-.436-.6-1.057-.45-.275.065-.528.13-.562.143-.043.015-.03-.07.038-.27.055-.16.1-.347.1-.413 0-.17-.482-1.112-.619-1.208-.088-.061-.248-.08-.687-.08h-.572l-.177-.352c-.29-.574-.385-.601-1.273-.36-.307.084-.564.152-.571.152-.007 0-.013-1.247-.013-2.771V9.952h10.82l.094.217zm4.686 1.742v1.958h-.407v-.511c0-.475-.008-.52-.124-.636-.117-.117-.202-.146-.384-.13-.042.003-.413.171-.826.373l-.75.368-.228-.229-.229-.229.184-.548c.294-.881.198-1.05-.6-1.054-.343 0-.403-.012-.32-.06.28-.16.293-.373.05-.854a4.072 4.072 0 01-.177-.38c0-.015.857-.027 1.905-.027h1.906v1.959zm3.19-1.906c-1.037.175-1.679 1.31-1.307 2.313.155.419.57.834.987.988.361.134.861.147 1.188.032.316-.112.685-.4.868-.676.55-.83.269-2-.591-2.467-.2-.108-.763-.26-.876-.237a20.55 20.55 0 01-.269.047zm-10.642.851c-.197.032-.295.202-.323.56l-.025.333-.258.087c-.659.224-1.153.762-1.411 1.537-.025.073-.09.089-.358.089-.294 0-.34.014-.434.134-.144.184-.137.43.018.575.094.088.204.123.454.143.299.024.333.038.361.152.156.62.792 1.279 1.414 1.462l.214.063.025.336c.031.407.15.563.432.563.278 0 .392-.149.428-.555l.03-.338.255-.09c.348-.122.619-.301.872-.577.215-.234.432-.613.49-.856.03-.123.057-.135.375-.16.288-.024.36-.05.458-.163.153-.179.15-.405-.009-.564-.105-.105-.173-.125-.433-.125-.289 0-.312-.009-.365-.14-.346-.849-.696-1.227-1.364-1.474l-.28-.104-.029-.333c-.016-.183-.057-.367-.091-.409-.08-.095-.304-.169-.446-.146zm11.373.094c.283.143.484.55.431.872-.124.768-1.105.991-1.574.358-.135-.184-.173-.634-.07-.833a.894.894 0 011.213-.397zm-10.635 1.797c.11.056.27.187.356.291.697.846.112 2.116-.974 2.115-.549 0-.95-.255-1.185-.75-.529-1.117.682-2.229 1.803-1.656zm8.603 1.697a.427.427 0 00.02.599c.116.108.18.123.513.123.355 0 .39-.01.504-.143.16-.186.16-.41-.002-.571-.111-.112-.168-.125-.524-.125-.353 0-.414.014-.511.117zm2.193-.003c-.153.17-.176.28-.098.467.157.376.988.389 1.18.018.093-.18.06-.353-.093-.496-.09-.085-.179-.103-.498-.103-.338 0-.402.014-.491.114zm-2.179 1.74a.41.41 0 00.15.687c.21.08 2.765.069 2.927-.013a.423.423 0 00.091-.696c-.106-.098-.174-.103-1.577-.103h-1.466l-.125.125zm-16.286.226c.24.474.316.514 1 .514h.58l.107.221.107.222-.184.554c-.215.645-.23.855-.074 1.021.15.16.333.152 1.158-.058.377-.096.688-.17.691-.165l.326.494c.435.657.49.712.708.71.1 0 .218-.03.261-.064.044-.034.29-.342.548-.684.258-.343.476-.624.485-.624.009 0 .342.491.74 1.091.777 1.168.808 1.198 1.23 1.198h.196v1.272H3.446l.013-2.861.013-2.861.508-.136.52-.14c.007-.002.08.131.164.296zM20.95 17.91a.426.426 0 00.192.716c.064.016.738.022 1.5.014 1.352-.015 1.385-.018 1.495-.129a.417.417 0 00-.027-.605l-.14-.12h-2.895l-.125.124zm.104 1.664a.422.422 0 00-.104.68l.125.125h2.895l.14-.12c.107-.092.14-.166.14-.312 0-.145-.033-.22-.14-.312l-.14-.12-1.407.001c-.92.001-1.442.021-1.509.058zm0 1.73c-.26.153-.31.474-.104.68l.125.125h2.934l.12-.129c.16-.169.163-.442.008-.597-.11-.111-.14-.114-1.547-.126-1.024-.009-1.463.005-1.536.047z" fill="#161921"/></svg>