<svg width="26" height="20" viewBox="0 0 26 20" fill="none" xmlns="http://www.w3.org/2000/svg"><path fill-rule="evenodd" clip-rule="evenodd" d="M17.231.087c-.37.13-.619.345-.799.696l-.152.298-.016 1.346-.016 1.347-.417-.394C14.39 2.02 12.874 1.225 11.012.851c-.494-.1-.747-.118-1.628-.119C8.27.731 7.802.782 6.992.994c-1.68.439-3.04 1.223-4.278 2.466a9.243 9.243 0 00-2.65 5.287c-.085.591-.085 2.013 0 2.604a9.243 9.243 0 002.65 5.288c.794.797 1.5 1.309 2.484 1.802 2.6 1.304 5.804 1.267 8.397-.098.866-.456 1.486-.91 2.287-1.672l.366-.348.016 1.296.015 1.297.154.3c.095.187.236.364.372.468.432.331.361.326 4.441.31l3.685-.014.255-.117a1.32 1.32 0 00.679-.648l.135-.256V1.037l-.135-.255a1.32 1.32 0 00-.68-.648l-.254-.118-3.715-.012c-3.495-.01-3.731-.006-3.985.083zm.855 9.917v9.248l-.306-.022c-.352-.025-.539-.137-.674-.402-.084-.165-.088-.67-.076-8.89l.013-8.715.105-.144c.147-.2.41-.322.696-.322h.242v9.247zm5.293-7.983v1.265l-1.03.771a47.64 47.64 0 01-1.14.838c-.1.06-.196.001-1.207-.747l-1.099-.813-.001-1.29L18.9.757h4.479v1.265zM25.047.977l.19.19V18.83l-.19.19c-.172.173-.218.191-.521.21l-.333.022V.745l.333.02c.303.02.349.039.521.212zm-16.122.695c0 .156.03.224.135.306.272.215.564.077.614-.292l.029-.218.31.03c1.017.1 2.098.403 3.008.841.533.257 1.419.83 1.803 1.166l.224.196-.116.157c-.157.213-.15.412.02.56.174.149.267.147.496-.009l.185-.126.31.377.311.377v10.027l-.253.319c-.37.468-.378.471-.564.314-.194-.164-.308-.168-.484-.015-.17.146-.178.345-.02.558l.115.158-.224.195c-.123.108-.419.33-.657.495-1.251.866-2.555 1.339-4.178 1.514l-.286.03-.03-.218c-.049-.37-.34-.51-.613-.294-.105.083-.135.15-.135.31v.205l-.343-.033a8.682 8.682 0 01-4.701-1.922l-.337-.278.12-.151c.159-.199.155-.403-.01-.568-.105-.105-.16-.124-.29-.099a.662.662 0 00-.275.141l-.115.11-.104-.123c-1.217-1.437-1.957-3.19-2.1-4.98l-.021-.264.196-.031c.246-.04.398-.188.398-.388s-.152-.348-.398-.387L.748 9.63l.02-.263c.14-1.72.924-3.622 2-4.848l.216-.245.11.104a.65.65 0 00.27.136c.13.026.185.007.29-.099.165-.165.167-.368.006-.565l-.12-.15.34-.28c1.278-1.056 3.016-1.777 4.614-1.914.467-.04.432-.054.432.166zM8.34 3.26c-2.22.348-4.105 1.7-5.103 3.658a6.302 6.302 0 00-.625 1.765c-.749 3.684 1.601 7.269 5.296 8.079.606.133 1.75.158 2.417.053 2.9-.457 5.157-2.67 5.701-5.592.107-.573.106-1.77-.003-2.35a7.123 7.123 0 00-.84-2.301c-.31-.533-.482-.71-.686-.71-.187 0-.38.188-.38.368 0 .055.135.317.3.582.36.574.58 1.089.753 1.752.173.665.217 1.805.095 2.504-.636 3.668-4.374 5.92-7.875 4.745-2.933-.985-4.67-4.033-4.014-7.041.419-1.92 1.771-3.559 3.56-4.316 1.776-.751 3.721-.624 5.425.354.458.263.62.287.78.116.158-.169.142-.373-.043-.546-.344-.322-1.51-.834-2.34-1.028-.5-.116-1.918-.17-2.418-.092zm15.04 1.345v.326l-1.128.848-1.128.849-.157-.117-1.111-.828-.954-.712v-.32c0-.176.013-.32.03-.32.016 0 .457.32.98.71 1.077.805 1.152.85 1.332.776.07-.029.56-.385 1.093-.791.532-.407.984-.741 1.005-.743.02-.002.038.143.038.322zm-14.534.04C6.08 4.84 3.887 7.23 3.887 10.048c0 2.806 2.172 5.183 4.936 5.405 2.285.183 4.343-.995 5.355-3.065.971-1.987.587-4.432-.952-6.06a4.91 4.91 0 00-1.362-1.054c-.973-.517-1.896-.71-3.019-.63zm1.633.886c.387.107 1.055.42 1.427.667A4.606 4.606 0 0113.703 8.6a4.67 4.67 0 01-1.43 5.023c-.416.35-1.297.81-1.82.952-.25.068-.533.09-1.146.092-.893.002-1.255-.068-1.933-.377-1.266-.576-2.245-1.77-2.6-3.17-.145-.57-.136-1.668.019-2.211.513-1.8 1.793-3.03 3.573-3.431.436-.098 1.678-.068 2.112.052zm-2.112.31c-.74.323-.832 1.365-.161 1.833.216.152.232.154.964.172.855.02 1.048-.02 1.334-.28.397-.36.461-.922.156-1.367-.257-.375-.456-.44-1.355-.437-.563.002-.806.022-.938.08zm15.011 1.106l-.002 1.034-1.116.835c-.614.459-1.14.826-1.167.817a31.67 31.67 0 01-1.117-.81l-1.067-.79-.004-1.038c-.003-.817.01-1.028.06-.998.035.022.507.368 1.048.77.6.444 1.03.73 1.102.73.073 0 .527-.305 1.179-.79.583-.434 1.066-.79 1.073-.791.007-.002.012.463.011 1.031zm-13.374-.336c.121.11.118.248-.009.375-.09.09-.17.102-.696.102-.644 0-.78-.05-.78-.285 0-.237.111-.277.776-.277.502 0 .633.016.709.085zm-1.07 1.553c-1.499.296-2.069 2.159-.991 3.24 1.04 1.044 2.823.567 3.2-.856A1.917 1.917 0 009.642 8.16c-.309-.059-.398-.059-.708.003zm-3.178.37c-.27.085-.54.318-.652.564-.079.175-.095.337-.095.951 0 .853.057 1.048.383 1.317.489.405 1.19.297 1.551-.239.118-.174.126-.232.141-1.012.018-.94-.012-1.058-.349-1.363-.292-.265-.605-.335-.979-.218zm6.455.006c-.289.107-.444.237-.588.493-.114.202-.13.293-.145.891-.025.957.097 1.3.554 1.554a1.028 1.028 0 001.42-.432c.122-.238.13-.3.13-.997 0-.696-.008-.759-.13-.996-.23-.45-.79-.68-1.241-.513zm-2.68.39c.352.075.626.289.787.614.176.355.177.655.002 1.007-.542 1.09-2.158.714-2.158-.502 0-.551.35-.994.89-1.126.217-.053.2-.053.48.007zm11.474 1.576c.178.068.316-.015 1.393-.828.51-.386.94-.701.954-.701.015 0 .027.148.027.328v.328l-1.122.834c-.618.458-1.135.83-1.15.827a44.44 44.44 0 01-1.117-.815l-1.09-.808V8.98l.99.74c.544.406 1.046.76 1.115.787zM6.266 9.349c.1.077.089 1.33-.013 1.415-.112.094-.338.078-.415-.029-.092-.125-.095-1.245-.004-1.36.111-.14.273-.15.432-.026zm6.414-.037c.107.075.113.115.113.739 0 .643-.003.662-.123.741-.096.063-.148.069-.228.026-.173-.093-.209-.227-.209-.793 0-.507.008-.55.125-.667.147-.148.173-.151.322-.046zm10.697 2.333l-.002 1.034-1.11.83c-.61.456-1.125.83-1.145.83-.019 0-.526-.368-1.127-.816l-1.092-.816v-1.023c0-.562.01-1.022.025-1.022.014 0 .484.345 1.045.766.657.493 1.064.766 1.143.766.08 0 .497-.28 1.178-.792.58-.435 1.063-.791 1.071-.791.009 0 .015.465.014 1.034zm-14.926.652c-.715.215-.939 1.25-.382 1.77.24.226.448.271 1.246.271.887 0 1.088-.065 1.344-.439a1.02 1.02 0 00-.072-1.284c-.274-.313-.467-.368-1.28-.365-.392.002-.777.023-.856.047zm1.543.816c.124.124.13.242.018.366-.073.08-.169.093-.71.093-.5 0-.64-.016-.704-.08-.103-.104-.102-.27.005-.388.072-.08.167-.093.687-.093.535 0 .614.011.704.102zm10.53 1.77c.315.238.47.323.588.323.127 0 .374-.159 1.19-.766.566-.42 1.04-.765 1.053-.765.013 0 .024.144.024.32v.32l-1.114.836c-.613.46-1.134.834-1.158.831-.024-.003-.53-.368-1.123-.812l-1.08-.806-.002-.346-.002-.345.598.444c.33.243.79.588 1.026.766zm2.855 2.391v1.966h-4.478V17.3c0-1.067.01-1.94.024-1.94.013 0 .472.334 1.02.742s1.06.755 1.138.77c.122.025.286-.08 1.203-.767a49.1 49.1 0 011.077-.797c.009 0 .016.885.016 1.966z" fill="#161921"/></svg>