<svg width="27" height="26" viewBox="0 0 27 26" fill="none" xmlns="http://www.w3.org/2000/svg"><path fill-rule="evenodd" clip-rule="evenodd" d="M9.09.182c-.77.284-1.009.384-1.51.634-.416.208-.458.219-.6.157a1.532 1.532 0 00-.466-.07c-.363-.002-.619.114-1.47.664a11.509 11.509 0 00-3.476 3.476c-.55.851-.666 1.107-.663 1.47.001.172.032.382.069.466.062.142.051.183-.155.597a15.156 15.156 0 00-.73 1.787c-.138.422-.117.75.071 1.07.197.337.448.476 1.25.69.393.104.727.202.741.216.015.014.004.127-.024.252-.21.935-.273 2.754-.135 3.86A12.117 12.117 0 004.71 21.7c1.866 2.246 4.543 3.741 7.534 4.205.805.125 2.581.125 3.426 0a12.128 12.128 0 009.616-7.781c.243-.65.503-1.68.62-2.449.127-.846.128-2.614.001-3.433-.464-2.995-1.959-5.67-4.21-7.537-1.826-1.514-3.92-2.425-6.245-2.715-1.106-.138-2.925-.075-3.86.135-.125.028-.236.04-.249.028-.012-.013-.11-.347-.218-.743C10.906.6 10.77.355 10.43.156c-.368-.215-.702-.209-1.34.026zm.856.886c.05.06.774 2.707.77 2.814 0 .025-.287.158-.636.294a10.528 10.528 0 00-5.903 5.903c-.136.35-.271.636-.3.637-.136.004-2.755-.726-2.815-.785-.058-.057-.051-.122.045-.416.158-.48.573-1.442.815-1.891.23-.427.26-.684.1-.888a.47.47 0 01-.102-.224c0-.111.481-.916.904-1.513.388-.547 1.605-1.763 2.165-2.163.62-.443 1.408-.917 1.524-.917a.47.47 0 01.224.101c.206.162.472.133.894-.098.43-.235 1.048-.508 1.689-.745.522-.192.552-.198.626-.109zm5.68 1.967c2.746.454 5.052 1.765 6.843 3.893 2.04 2.422 2.944 5.864 2.362 8.99a11.125 11.125 0 01-5.162 7.492 10.996 10.996 0 01-10.57.451c-2.235-1.112-3.986-2.86-5.042-5.032-.872-1.793-1.215-3.504-1.112-5.543.03-.576.161-1.557.223-1.657.012-.019.176.009.364.061.434.12.546.119.829-.013.19-.09.335-.108.865-.114.62-.006.645-.011 1.017-.19.535-.258.8-.516 1.308-1.278.792-1.185 1.36-1.753 2.546-2.545.747-.5.997-.756 1.271-1.306.187-.374.19-.386.194-1.017.004-.484.025-.677.088-.798.137-.265.15-.522.044-.897-.054-.189-.083-.353-.064-.365.1-.062 1.081-.194 1.657-.223.746-.038 1.807.004 2.34.091zm-7.801.277c-.397.22-.313.843.125.925.534.1.837-.518.423-.866a.456.456 0 00-.548-.059zm6.352.817c-.081.045-.32.409-.659 1-.604 1.056-.636 1.184-.362 1.43.2.178.452.188.638.026.17-.148 1.146-1.856 1.146-2.005a.511.511 0 00-.763-.45zm-3.682 1.625c-.138.329-.345.54-.866.88-1.352.886-2.103 1.637-2.993 2.994-.46.703-.787.937-1.306.937h-.255l.1-.254c.86-2.181 2.874-4.208 5.086-5.115l.28-.115.015.245c.008.138-.019.326-.061.428zm8.463-.189c-.042.014-.485.258-.984.542-.914.52-1.05.637-1.05.898 0 .268.248.508.525.508.14 0 1.724-.897 1.954-1.106.128-.117.165-.192.165-.335 0-.302-.35-.592-.61-.507zM3.502 7.635a.475.475 0 00-.131.735c.234.279.659.254.814-.048.095-.182.094-.318-.003-.505-.129-.25-.418-.327-.68-.182zm9.383.316a6.18 6.18 0 00-3.834 2.4c-1.82 2.454-1.51 5.914.716 8.03.635.603 1.604 1.196 1.953 1.196.37 0 .598-.345.454-.69-.061-.146-.146-.215-.447-.367-1.366-.687-2.288-1.82-2.698-3.318-.088-.32-.108-.543-.112-1.23-.004-1 .082-1.4.477-2.212a5.032 5.032 0 012.459-2.417c.627-.293 1.125-.41 1.892-.441.763-.032 1.298.047 1.978.293 1.64.594 2.865 2.043 3.241 3.836.09.432.077 1.493-.025 1.964a5.766 5.766 0 01-.675 1.662c-.463.744-1.3 1.492-2.138 1.912-.145.072-.3.183-.344.245-.207.297.028.763.385.763.4 0 1.438-.645 2.094-1.303.863-.863 1.424-1.91 1.692-3.157.129-.601.122-1.736-.015-2.365-.548-2.517-2.468-4.375-4.967-4.805-.555-.096-1.545-.094-2.086.004zm7.396 1.246c-.196.079-.301.197-.335.377-.036.19.077.45.23.531.058.032.552.053 1.235.053h1.138l.137-.143a.503.503 0 00-.277-.843c-.253-.05-1.99-.03-2.128.025zm-6.668.855c-.393.394.067 1.05.56.795.145-.076.309-.307.309-.437 0-.133-.166-.395-.285-.448-.222-.102-.422-.07-.584.09zm-1.649.366c-.315.181-.377.566-.13.812.202.202.45.203.675.001.321-.287.163-.786-.268-.847a.52.52 0 00-.277.034zm3.56 0c-.314.181-.377.566-.13.812.202.202.45.203.675.001.321-.287.163-.786-.267-.847a.52.52 0 00-.277.034zm-4.94 1.356c-.387.314-.196.9.295.9.27 0 .5-.237.5-.512 0-.381-.5-.626-.794-.388zm6.145.037c-.19.16-.234.332-.141.556.215.514.945.358.945-.202 0-.135-.039-.223-.148-.333-.193-.193-.443-.2-.656-.021zm-3.351.2a2.14 2.14 0 00-1.247 1.087c-.3.608-.244 1.391.142 1.979.435.664 1.288 1.032 2.035.879a2.058 2.058 0 001.649-1.649c.196-.955-.426-1.976-1.386-2.275-.35-.11-.88-.118-1.193-.02zM4.38 13.03c-.342.148-.434.539-.184.783.077.075.535.362 1.019.638.793.452.897.498 1.068.471a.477.477 0 00.418-.496c0-.143-.034-.236-.115-.316-.124-.123-1.779-1.077-1.945-1.122a.495.495 0 00-.26.042zm10.146.094a.993.993 0 01.14 1.543.986.986 0 01-1.7-.639c-.03-.432.163-.765.575-.99.238-.13.723-.088.985.085zm6.99-.092c-.159.068-.32.299-.32.458 0 .242.159.376 1.084.91 1.047.604 1.165.637 1.411.391.192-.191.207-.495.035-.681-.133-.144-1.732-1.075-1.92-1.118a.562.562 0 00-.29.04zm-11.463.581c-.16.162-.192.362-.09.584.054.119.315.285.448.285.13 0 .361-.164.437-.31.254-.492-.4-.952-.795-.559zm7.12 0a.497.497 0 00.259.844c.192.042.434-.086.536-.285.255-.492-.4-.952-.794-.559zm-6.588 1.722c-.388.314-.197.9.294.9.27 0 .5-.237.5-.512 0-.381-.5-.626-.794-.388zm6.144.037c-.19.16-.234.333-.141.556a.475.475 0 00.596.287c.24-.072.35-.222.35-.477a.482.482 0 00-.805-.366zm-4.72 1.194c-.171.07-.324.303-.324.495 0 .252.23.473.493.473.255 0 .405-.11.477-.35a.475.475 0 00-.285-.596c-.196-.081-.211-.082-.36-.022zm3.56 0a.506.506 0 00-.176.819.485.485 0 00.823-.205.475.475 0 00-.286-.591c-.196-.082-.211-.083-.36-.023zm5.053.459a.48.48 0 00-.168.563c.095.271.99 1.791 1.114 1.89.28.222.722.035.78-.33.028-.173-.016-.273-.47-1.068-.276-.482-.563-.94-.639-1.017a.457.457 0 00-.617-.038zm-7.009.148a.497.497 0 00.259.844c.192.042.433-.086.536-.285.254-.492-.4-.952-.795-.559zm-8.367.737c-.191.19-.219.354-.1.585.126.243.265.266 1.475.25l1.106-.016.122-.143a.577.577 0 00.07-.598c-.118-.221-.286-.251-1.424-.251H5.419l-.173.173zm8.367 1.298a.484.484 0 00.133.79c.206.097.246.098.432.001a.494.494 0 00-.232-.94c-.135 0-.223.04-.333.149zm4.449.766a.69.69 0 00-.219.185c-.108.137-.11.174-.096 1.28l.015 1.139.143.122c.21.18.505.17.7-.026l.15-.148V20.27l-.174-.173c-.175-.175-.311-.207-.52-.123zm-8.633.964c-.472.275-.906.548-.965.608-.075.074-.108.171-.108.316 0 .17.03.235.165.356.105.094.22.147.319.147.2 0 1.992-1.024 2.072-1.184.193-.386-.006-.75-.408-.746-.181.002-.36.086-1.075.503zm4.824.303a.618.618 0 00-.184.139c-.102.117-.997 1.654-1.06 1.821-.066.172.025.459.175.558.15.098.476.104.598.01.149-.113 1.117-1.822 1.144-2.02.02-.15 0-.212-.12-.343-.154-.17-.383-.237-.553-.165z" fill="#161921"/></svg>