<svg width="26" height="26" viewBox="0 0 26 26" fill="none" xmlns="http://www.w3.org/2000/svg"><path fill-rule="evenodd" clip-rule="evenodd" d="M11.912.062C8.9.569 6.572 2.889 5.967 5.987c-.126.644-.125 2.075.002 2.733.503 2.615 2.27 4.723 4.684 5.586.858.307 1.35.388 2.333.388.938 0 1.428-.074 2.178-.326 1.802-.604 3.355-1.976 4.2-3.71.836-1.713.98-3.77.395-5.59a9.611 9.611 0 00-.387-1.005A7.28 7.28 0 0014.43.133c-.64-.142-1.886-.178-2.518-.071zm2.334.917c.82.182 1.641.54 2.327 1.017.488.337 1.342 1.246 1.685 1.792a6.657 6.657 0 010 7.128c-.342.545-1.197 1.455-1.682 1.791-1.114.773-2.218 1.12-3.564 1.12-1.092.002-1.773-.154-2.756-.628l-.446-.215 1.155-1.179c1.03-1.05 1.201-1.204 1.58-1.405.545-.29.895-.383 1.68-.446.963-.077 1.525-.319 2.084-.896a3.18 3.18 0 00.728-1.2c.095-.27.115-.471.136-1.356l.023-1.04-.134-.14a.417.417 0 00-.304-.138c-.148 0-.271.105-.99.843l-.823.843-.596-.155-.597-.154-.15-.616-.149-.616.816-.849c.715-.743.817-.87.817-1.024a.44.44 0 00-.13-.308c-.125-.13-.147-.133-.96-.133-1.016 0-1.333.055-1.879.326-.998.494-1.65 1.582-1.65 2.75 0 .5-.147 1.095-.404 1.64-.234.498-.28.555-1.387 1.708l-1.144 1.193-.208-.461c-.455-1.007-.61-1.73-.609-2.846.001-1.178.178-1.934.696-2.977.89-1.792 2.628-3.094 4.566-3.42.571-.097 1.722-.07 2.269.05zM13.1 4.444c-.382.4-.535.599-.534.691.003.232.46 2.012.539 2.093.078.08 1.802.554 2.027.556.09.001.284-.158.676-.554l.55-.556-.03.406a2.148 2.148 0 01-1.217 1.798c-.279.135-.436.169-.96.21-.872.068-1.33.189-1.955.513-.5.26-.783.507-1.952 1.701l-1.141 1.165-.12-.103a7.236 7.236 0 01-.787-.801l-.16-.208 1.1-1.148c1.2-1.25 1.33-1.407 1.611-1.937.354-.664.487-1.173.557-2.122.04-.541.073-.704.204-.992.35-.772 1.055-1.25 1.867-1.268l.26-.005-.535.561zM8.078 15.627c-1.774.248-2.78.812-4.436 2.487-.924.935-1.058 1.05-1.38 1.188-.823.353-1.5.996-1.87 1.775-.322.679-.395 1.03-.392 1.887.003.898.194 1.936.43 2.331.159.269.54.563.84.649.107.03.65.056 1.207.056 1.005 0 1.014-.001 1.141-.133.165-.17.166-.383.002-.632-.57-.867-.247-2.076.678-2.54.365-.183 1.043-.188 1.393-.012.369.185.594.407.778.762.303.587.275 1.259-.075 1.79-.163.249-.163.462.002.632l.129.133h12.502l.13-.133c.164-.17.164-.383 0-.632-.57-.867-.247-2.076.68-2.54.363-.183 1.041-.188 1.392-.012.368.185.594.407.778.762.303.587.275 1.259-.075 1.79-.164.249-.163.462.002.632.128.132.134.133 1.168.132 1.124 0 1.418-.047 1.817-.289.784-.475 1.23-1.621 1.036-2.672-.212-1.154-1.195-2.39-2.402-3.02-.5-.262-1.03-.405-2.326-.63-1.435-.248-1.928-.371-2.32-.576-.147-.077-1.1-.687-2.118-1.355-1.969-1.292-2.376-1.522-3.042-1.713-.405-.116-.512-.12-2.966-.13-1.4-.005-2.617 0-2.703.013zm5.673 1.031c.567.205.556.198 2.81 1.676.977.641 1.906 1.225 2.066 1.298.54.247.944.35 2.338.595 1.272.224 1.891.376 2.1.515.063.042.055.052-.042.053-.067 0-.182.064-.257.141-.127.132-.134.164-.104.497a2.15 2.15 0 001.168 1.728c.33.169.45.2.859.224l.475.028v.419h-1.26v.867l.433.002.433.001-.167.158c-.228.214-.468.272-1.124.272h-.557l.071-.282c.432-1.72-1.119-3.443-2.829-3.142-1.45.256-2.422 1.732-2.068 3.142l.071.283H7.385l.07-.283c.433-1.72-1.119-3.443-2.828-3.142-1.451.256-2.423 1.732-2.068 3.142l.07.283-.556-.001c-.596-.001-.746-.046-.905-.27-.103-.145-.281-.957-.34-1.543l-.035-.355h.303c.463 0 .7-.096 1-.404.33-.34.391-.547.391-1.3 0-.625-.034-.748-.242-.86-.132-.072-.128-.075.288-.272.233-.11.451-.2.485-.2.035 0 .55-.495 1.144-1.102.595-.606 1.232-1.206 1.416-1.334.683-.475 1.609-.851 2.4-.975.17-.026 1.432-.044 2.803-.04l2.494.01.476.171zm-7.782.81c-.13.132-.135.161-.105.528.077.931.488 1.666 1.28 2.285l.417.324.202 1.273c.174 1.091.22 1.291.322 1.397l.12.123h7.042l.129-.133a.441.441 0 00.129-.306c0-.664.611-1.296 1.255-1.296a.415.415 0 00.296-.133c.125-.13.128-.155.128-.943 0-.693-.013-.825-.091-.918-.051-.06-.875-.612-1.832-1.226l-1.74-1.117H6.105l-.135.141zm4.917 2.894v2.169H9.811c-1.072 0-1.075 0-1.102-.122a54.257 54.257 0 01-.186-1.125 29.758 29.758 0 00-.187-1.094c-.015-.05-.237-.253-.494-.451-.258-.198-.543-.448-.635-.556-.164-.194-.468-.79-.468-.921 0-.053.45-.068 2.074-.068h2.073v2.168zm3.933-1.179l1.526.99v.338c0 .25-.018.34-.071.34-.172 0-.823.396-1.028.626-.205.23-.528.832-.528.986 0 .052-.334.068-1.496.068h-1.496v-4.337h1.566l1.527.99zM1.648 21.53c0 .402-.146.567-.5.567-.278 0-.278.004-.039-.556.129-.302.14-.311.336-.311h.203v.3zm22.464.32c.41.075.478.126.702.517l.094.164h-.168c-.39 0-.794-.232-1.047-.599-.128-.185-.132-.184.419-.082z" fill="#161921"/></svg>