<svg width="18" height="16" viewBox="0 0 18 16" fill="none" xmlns="http://www.w3.org/2000/svg"><path fill-rule="evenodd" clip-rule="evenodd" d="M17.188.197c-.974.514-2.518 1.49-3.527 2.23-2.02 1.48-3.822 3.232-5.09 4.951A15.511 15.511 0 007.315 9.36l-.253.482-.164-.19c-.09-.103-.679-.787-1.308-1.52-.63-.731-1.2-1.36-1.266-1.397-.108-.06-.327-.065-2.122-.054L.2 6.694l-.097.113c-.157.184-.133.383.074.625.094.11 1.885 2.067 3.981 4.348 2.227 2.425 3.858 4.169 3.924 4.196.157.066.383-.011.456-.155.03-.06.13-.39.222-.735 1.085-4.049 3.296-8.125 6.258-11.537.62-.715 1.752-1.863 2.388-2.423.302-.266.56-.511.572-.545A.602.602 0 0017.96.2c-.045-.085-.239-.2-.337-.2-.034 0-.23.088-.434.197z" fill="#FFC000"/></svg>