<svg width="40" height="40" viewBox="0 0 40 40" fill="none" xmlns="http://www.w3.org/2000/svg"><path fill-rule="evenodd" clip-rule="evenodd" d="M8.717 4.91C4.044 7.61.17 9.885.11 9.967c-.088.12-.11 2.166-.11 10.04 0 9.294.01 9.9.151 10.063.235.27 17.06 9.933 17.292 9.93.111-.001 1.638-.832 3.392-1.846l3.19-1.843.716.76c.896.952 1.673 1.531 2.71 2.022 3.4 1.606 7.33.932 9.962-1.71.807-.81 1.305-1.515 1.767-2.5 1.74-3.712.638-8.216-2.61-10.66-.383-.289-.924-.64-1.203-.78l-.506-.256v-6.542c0-6.105-.01-6.553-.151-6.717C34.474 9.653 17.658-.003 17.422 0c-.114.002-4.031 2.211-8.705 4.91zm16.379.99c4.184 2.416 7.607 4.415 7.607 4.443 0 .055-7.392 4.338-7.56 4.38-.125.032-14.292-9.388-14.223-9.457.094-.094 6.468-3.783 6.518-3.772a1450 1450 0 017.658 4.405zm-8.506 4.885c3.855 2.566 7.04 4.692 7.075 4.725.036.032-1.352.877-3.084 1.878l-3.149 1.818-2.484-1.435-7.638-4.409c-2.834-1.635-5.153-2.994-5.153-3.019 0-.067 7.188-4.215 7.314-4.22.06-.003 3.263 2.095 7.119 4.662zm-7.03 5.464l7.176 4.139.002 8.864c.001 4.875-.027 8.848-.063 8.828l-1.488-.859a4099.65 4099.65 0 00-9.605-5.539l-4.197-2.414-.002-8.864-.002-8.864.501.286c.276.156 3.731 2.147 7.678 4.423zm23.884 6.402c-.02.02-.396-.025-.835-.1-2.442-.42-4.946.25-6.923 1.848-1.398 1.13-2.487 2.826-2.963 4.61-.2.75-.23 1.032-.232 2.156-.003 1.428.096 1.994.561 3.213.15.392.256.728.237.746a597.51 597.51 0 01-5.104 2.954c-.035.021-.063-3.951-.061-8.826l.003-8.864 3.082-1.784 3.081-1.783.044 2.847.043 2.847.203.165c.284.23.665.21.922-.047l.212-.211.002-3.216.001-3.215 3.86-2.221 3.86-2.22.022 5.531c.012 3.043.006 5.55-.015 5.57zm-1.086 1.232c2.883.454 5.137 2.448 6.011 5.317.205.672.231.899.231 2.008 0 1.114-.025 1.334-.235 2.022-.457 1.502-1.28 2.751-2.44 3.708-.722.595-1.67 1.09-2.665 1.393-.688.21-.908.235-2.023.235-1.11 0-1.337-.026-2.01-.231-4.594-1.398-6.73-6.375-4.541-10.58 1.433-2.753 4.608-4.355 7.672-3.872zm2.402 3.467c-.073.06-1.039 1.31-2.146 2.78a310.43 310.43 0 01-2.201 2.904l-.19.23-1.142-1.351c-1.22-1.445-1.486-1.651-1.88-1.462-.298.143-.493.495-.423.763.073.279 2.883 3.617 3.186 3.785.213.118.262.118.474 0 .13-.072 1.286-1.511 2.567-3.197a261.679 261.679 0 012.568-3.346c.45-.53.228-1.214-.394-1.214-.157 0-.345.049-.419.108z" fill="#E30D16"/></svg>