<svg width="36" height="40" viewBox="0 0 36 40" fill="none" xmlns="http://www.w3.org/2000/svg"><path fill-rule="evenodd" clip-rule="evenodd" d="M16.787.049a8.709 8.709 0 00-5.615 3.361c-.5.658-1.182 2.06-1.389 2.856-.262 1.011-.357 2.124-.244 2.862.355 2.313 2.34 5.736 5.556 9.578.954 1.139 2.367 2.698 2.52 2.78.18.097.59.097.772 0 .289-.155 2.654-2.89 3.927-4.54 1.824-2.367 3.316-4.916 3.857-6.588.581-1.796.403-3.655-.535-5.579-1.42-2.91-4.147-4.678-7.361-4.773-.56-.017-1.23.003-1.488.043zm2.97 1.714c2.212.577 4.09 2.33 4.803 4.484.288.87.443 1.946.371 2.58-.192 1.7-1.65 4.34-4.183 7.57-.968 1.235-2.653 3.209-2.74 3.209-.075 0-.854-.873-1.817-2.035-2.514-3.035-4.194-5.666-4.86-7.612-.214-.623-.248-.83-.25-1.541-.016-3.306 2.358-6.125 5.706-6.776.752-.146 2.17-.088 2.97.12zM17.43 5.135c-1.024.172-1.987.898-2.461 1.857-.256.517-.292.665-.32 1.306-.039.883.088 1.377.529 2.057 1.261 1.952 4.266 2.001 5.58.092.477-.692.63-1.233.594-2.108-.026-.633-.067-.82-.277-1.269a3.49 3.49 0 00-2.566-1.94c-.522-.084-.55-.084-1.079.005zm1.41 1.73c.62.293.962.866.959 1.609-.004 1.036-.779 1.821-1.799 1.821-1.03 0-1.794-.783-1.798-1.846-.005-1.362 1.364-2.184 2.638-1.584zm-9.02 8.31c-.085.058-1.088.64-2.229 1.294l-2.074 1.189-2.063 1.971-2.76 2.637c-.652.622-.696.685-.694.978.002.174.063.389.138.485.074.094 1.227.8 2.561 1.57l2.427 1.398.039 2.928c.026 1.947.068 2.979.126 3.077.048.08 2.883 1.763 6.3 3.739 5.563 3.215 6.243 3.588 6.488 3.557.377-.047 12.485-7.04 12.665-7.315.115-.175.136-.562.17-3.13l.04-2.93 2.348-1.357c1.291-.746 2.427-1.446 2.524-1.557a.767.767 0 00.1-.814c-.042-.078-1.266-1.283-2.72-2.678l-2.644-2.536-2.277-1.307c-2.54-1.457-2.666-1.501-3.09-1.077-.275.274-.306.668-.076.961.084.107.878.61 1.764 1.118.887.509 1.584.952 1.55.986-.034.033-2.299 1.351-5.032 2.929-2.733 1.577-5.06 2.92-5.172 2.986-.198.117-.293.066-4.735-2.496a5614.933 5614.933 0 00-5.263-3.035c-.623-.357-.709-.43-.587-.498 1.571-.875 3.007-1.748 3.176-1.932.299-.325.293-.712-.014-1.02-.256-.256-.71-.312-.986-.122zm1.645 7.242c2.841 1.64 5.175 3.008 5.186 3.041.034.1-3.832 3.732-3.966 3.727-.068-.003-1.515-.809-3.216-1.79-1.7-.982-4.05-2.336-5.223-3.008-1.172-.672-2.132-1.244-2.133-1.271 0-.027.887-.896 1.973-1.93 1.499-1.43 2.002-1.866 2.093-1.816.066.036 2.445 1.407 5.286 3.047zm20.455-1.268c1.061 1.02 1.93 1.886 1.93 1.923 0 .037-2.374 1.437-5.275 3.112L23.3 29.228l-.478-.427a102.878 102.878 0 01-1.987-1.897l-1.51-1.47 5.306-3.063c2.918-1.684 5.317-3.066 5.332-3.07.015-.005.896.827 1.957 1.848zm-11.505 7.524c1.586 1.516 2.436 2.274 2.578 2.3a.942.942 0 00.453-.06c.133-.055 1.5-.826 3.038-1.714 1.539-.887 2.813-1.613 2.833-1.613.019 0 .025.953.014 2.119l-.02 2.118-5.558 3.212c-3.056 1.766-5.61 3.225-5.674 3.242-.065.016-2.636-1.424-5.714-3.201L6.77 31.844l-.02-2.09c-.012-1.15-.005-2.09.016-2.09.02 0 1.35.757 2.952 1.682 1.72.993 2.996 1.682 3.114 1.682.11 0 .305-.068.434-.15.13-.083 1.239-1.12 2.466-2.304 1.227-1.184 2.25-2.155 2.275-2.158.024-.002 1.108 1.014 2.41 2.257z" fill="#E30D16"/></svg>