<svg width="20" height="18" viewBox="0 0 20 18" fill="none" xmlns="http://www.w3.org/2000/svg"><path fill-rule="evenodd" clip-rule="evenodd" d="M9.29 1.654c-.636.91-1.26 1.76-1.388 1.888-.479.486-.966.75-1.742.947-1.273.322-1.97.796-2.885 1.965l-.351.448H0v8.565h2.882l.222.269c.473.573 1.263 1.194 1.985 1.56.79.401 1.514.6 2.433.666.706.051 3.428.05 3.81-.001.723-.099 1.32-.653 1.502-1.394.096-.391.083-.6-.077-1.204-.017-.065.016-.109.155-.201.516-.344.853-1.098.784-1.753a2.515 2.515 0 00-.125-.512l-.098-.263.22-.245c.129-.144.272-.362.345-.527.118-.265.126-.311.126-.74 0-.252-.014-.5-.032-.55l-.032-.095h2.044c1.126 0 2.167-.02 2.318-.042a1.888 1.888 0 001.323-.952c.556-1.087-.015-2.44-1.15-2.725-.215-.054-.81-.063-4.168-.063-2.155 0-3.917-.01-3.917-.019 0-.01.291-.454.648-.987.357-.534.7-1.077.761-1.207.416-.869.429-1.96.035-2.856a3.58 3.58 0 00-.63-.947C11.207.519 10.526 0 10.472 0c-.013 0-.545.744-1.181 1.654zm6.544-.437c-.22.235-.4.445-.4.467 0 .022.153.204.34.404l.342.365h-2.325l.01.613.011.614 1.152.01 1.15.012-.349.374-.35.373.41.437.41.436L17.3 4.189l1.064-1.134L17.3 1.922 16.234.79l-.4.427zm-4.992.753c.35.634.354 1.464.012 2.057-.048.083-.646.989-1.329 2.012A116.5 116.5 0 008.283 7.92c0 .011 2.285.025 5.077.031 5.059.011 5.077.011 5.185.097.2.158.269.297.269.538 0 .255-.084.406-.297.54-.13.082-.213.084-4.187.095l-4.054.01v1.244l1.214.012 1.214.012.154.175c.14.16.153.196.153.4 0 .266-.103.457-.312.575-.123.07-.241.077-1.28.077h-1.143v1.246h.903c.856 0 .911.005 1.055.091.16.096.309.352.309.533 0 .145-.143.424-.265.52-.099.076-.179.084-1.054.095l-.948.013v1.236l.525.014c.457.012.539.025.633.1.199.158.268.297.268.537 0 .255-.083.407-.297.54-.128.081-.2.084-2.086.082-2.176-.002-2.33-.017-3.093-.288a5.497 5.497 0 01-2.564-1.943l-.203-.283H1.172V8.15h2.299l.548-.7c.597-.762.73-.904 1.096-1.168.379-.274.685-.408 1.336-.582.87-.234 1.316-.45 1.891-.914.408-.33.71-.7 1.536-1.882.443-.633.819-1.142.835-1.131.017.011.075.1.13.198z" fill="#161921"/></svg>