<svg width="28" height="24" viewBox="0 0 28 24" fill="none" xmlns="http://www.w3.org/2000/svg"><path fill-rule="evenodd" clip-rule="evenodd" d="M1.498.076C1.03.227.624.546.347.976c-.367.572-.357.387-.34 6.352l.014 5.376.128.326c.076.195.245.457.42.651.492.548 1.03.742 2.061.742.53 0 .538.002.51.127-.123.562-.586 3.335-.59 3.536-.006.315.118.566.38.772.26.205.741.225.984.04.085-.064 1.018-1.09 2.073-2.282l1.917-2.165 5.111-.028 5.112-.028.316-.132a2.208 2.208 0 001.252-1.29l.127-.325v-5.41c0-4.475-.013-5.457-.076-5.682a2.256 2.256 0 00-1.343-1.45C18.11 0 17.873-.003 9.909.001 3.486.004 1.67.02 1.498.076zm16.64 1.223a.868.868 0 01.372.357l.136.239v5.283c0 5.88.024 5.514-.372 5.825l-.194.152-5.282.028c-2.906.016-5.324.05-5.373.075-.05.025-.86.919-1.8 1.986-.941 1.067-1.72 1.93-1.733 1.918-.012-.013.103-.729.255-1.592.153-.864.277-1.665.277-1.78a.547.547 0 00-.16-.395l-.159-.184-1.167-.028c-.775-.018-1.206-.051-1.284-.097-.185-.11-.393-.395-.455-.623-.037-.137-.055-1.967-.054-5.31.002-5.396 0-5.355.252-5.646.055-.064.2-.164.32-.22.209-.1.572-.104 8.201-.105l7.983-.002.236.119zM3.79 5.47c-.272.136-.297.279-.297 1.708 0 1.493.024 1.61.358 1.754.267.115 2.518.115 2.786 0 .333-.143.357-.26.357-1.754 0-1.445-.024-1.576-.312-1.711-.17-.08-2.733-.076-2.892.003zm4.633.028c-.248.178-.28.375-.28 1.715 0 1.863-.062 1.8 1.747 1.8 1.3 0 1.49-.034 1.664-.29.077-.112.09-.33.09-1.559V5.736l-.16-.165-.16-.164H9.938c-1.194 0-1.405.013-1.514.092zm4.584.072l-.16.165v1.429c0 1.586.006 1.617.361 1.77.28.12 2.535.112 2.786-.01.322-.159.354-.31.354-1.711 0-1.34-.032-1.537-.28-1.715-.11-.08-.32-.092-1.514-.092h-1.387l-.16.164zm7.99.425v.594l2.53.001c2.345.002 2.547.01 2.753.106a.92.92 0 01.517.629c.036.14.05 2.091.04 5.702l-.014 5.489-.154.24c-.281.437-.361.453-2.3.454-1.832.002-1.918.015-2.054.324-.084.19-.076.357.077 1.594.075.604.137 1.124.137 1.154 0 .031-.659-.62-1.463-1.445-.805-.825-1.517-1.529-1.583-1.563-.084-.044-1.4-.063-4.458-.063-4.093-.002-4.351-.008-4.557-.105-.52-.246-.57-.429-.572-2.134l-.003-1.367H8.746v1.425c0 1.1.019 1.502.084 1.761a2.252 2.252 0 001.205 1.448l.27.128 4.348.015 4.349.015 1.696 1.74c.932.957 1.749 1.768 1.815 1.802.163.086.53.078.746-.014a.956.956 0 00.508-.64c.022-.124-.021-.697-.108-1.422-.08-.668-.146-1.27-.145-1.338v-.123l1.464-.018c1.45-.017 1.466-.019 1.77-.166.58-.28 1.01-.805 1.167-1.427.074-.292.085-1.055.085-5.89 0-4.836-.011-5.6-.085-5.89a2.187 2.187 0 00-1.166-1.429l-.308-.148-2.721-.016-2.722-.016v.593zM5.846 7.182v.591H4.643V6.59h1.203v.592zm4.65 0v.591H9.347V6.59h1.149v.592zm4.65 0v.591h-1.149V6.59h1.149v.592zm5.852 1.803v.592h4.65V8.393h-4.65v.592zm0 2.423V12h4.65v-1.184h-4.65v.592zm0 2.395v.62h4.65v-1.24h-4.65v.62zm-9.9 2.395v.592h14.55v-1.184h-14.55v.592z" fill="#FFC000"/></svg>