<svg width="32" height="35" viewBox="0 0 32 35" fill="none" xmlns="http://www.w3.org/2000/svg"><path fill-rule="evenodd" clip-rule="evenodd" d="M2.087.1A2.835 2.835 0 00.255 1.62L0 2.137v30.707l.255.517c.617 1.248 1.966 1.872 3.298 1.525.56-.146 26.372-14.888 26.851-15.335.206-.192.421-.496.581-.82.246-.497.255-.541.255-1.24 0-.7-.009-.744-.255-1.24a2.975 2.975 0 00-.58-.82C29.924 14.983 4.111.24 3.552.096A2.793 2.793 0 002.087.1zM19.66 12.078c.042.046-2.363 3.24-2.47 3.28-.043.016-6.193-7.99-6.38-8.306-.045-.076 8.758 4.923 8.85 5.026zm5.59 3.167c1.79 1.021 3.309 1.903 3.374 1.96.066.056.12.185.12.286 0 .1-.054.23-.12.286-.219.188-17.861 10.234-17.808 10.14.149-.261 11.066-14.528 11.117-14.528.034 0 1.526.836 3.316 1.856z" fill="#fff"/></svg>