<svg width="70" height="70" viewBox="0 0 70 70" fill="none" xmlns="http://www.w3.org/2000/svg"><path fill-rule="evenodd" clip-rule="evenodd" d="M24.85.2c-.722.239-1.953 1.578-2.175 2.365-.135.484-.178 4.857-.178 18.178v17.542l-1.508.887c-.83.488-2.487 1.61-3.684 2.492-1.197.883-2.226 1.605-2.287 1.605-.06 0-.454-.52-.875-1.156-.813-1.228-1.234-1.495-1.876-1.187-.334.16-9.863 7.114-11.504 8.395-1.339 1.046-1.67.375 5.499 11.128 6.456 9.683 6.487 9.724 7.298 9.496.518-.145 12.065-8.703 12.272-9.095.275-.522.238-.758-.246-1.56l-.44-.73.657-.437c2.016-1.343 4.753-1.702 8.263-1.082 2.76.487 5.155.465 7.112-.068 1.71-.465 25.534-9.55 26.524-10.115 1.435-.819 2.178-2.12 2.276-3.992.058-1.12.022-1.356-.34-2.2-.414-.971-1.493-2.207-2.105-2.41l-.32-.108V20.675c0-13.267-.043-17.627-.178-18.11-.24-.848-1.458-2.129-2.266-2.38C63.943-.07 25.626-.056 24.85.2zm14.121 4.743v2.473H24.85V5.322c0-2.016.013-2.107.361-2.472l.361-.38h13.4v2.473zm9.414 2.811v5.284l-1.523-1.575c-1.309-1.353-1.591-1.575-2.007-1.575-.416 0-.698.222-2.007 1.575l-1.523 1.575V2.47h7.06v5.284zM64.5 2.85c.348.365.36.456.36 2.472v2.094H50.74V2.47h13.398l.36.38zM38.97 13.218c0 3.33 0 3.33.361 3.709.234.245.528.38.835.38.412 0 .746-.286 2.58-2.196l2.108-2.195 2.107 2.195c1.834 1.91 2.17 2.195 2.581 2.195.307 0 .6-.134.835-.38.36-.378.36-.379.36-3.708v-3.33H64.86v27.793l-.477.11c-.263.059-1.438.481-2.611.938l-2.133.83H55.47c-3.903.001-4.192-.018-4.532-.298-.61-.505-1.532-.73-7.553-1.846-7.961-1.475-7.868-1.462-10.517-1.45-2.57.012-4.813.346-6.877 1.024l-1.14.374V9.888h14.12v3.33zm-4.045 25.258c1.992.191 13.989 2.435 14.498 2.712.895.486 1.421 1.711 1.164 2.713-.302 1.18-1.18 1.879-2.333 1.858-.373-.007-3.456-.532-6.85-1.167-3.396-.635-6.19-1.138-6.21-1.117-.078.083-.382 2.277-.323 2.338.172.181 12.818 2.439 13.623 2.432 1.667-.014 3.15-.99 3.975-2.614l.453-.894 6.032-2.3c5.286-2.017 6.114-2.292 6.69-2.223 1.975.234 2.731 2.8 1.251 4.241-.423.413-24.816 9.776-26.527 10.183-1.587.378-3.796.354-6.048-.065-3.896-.725-6.976-.267-9.752 1.451l-.804.497-3.65-5.477c-2.007-3.013-3.65-5.539-3.65-5.614 0-.184 4.023-3.127 5.413-3.96 2.691-1.61 5.996-2.691 9.127-2.984 1.803-.169 2.262-.17 3.921-.01zM17.739 51.804c2.9 4.354 5.272 8 5.272 8.104 0 .102-1.621 1.382-3.604 2.843a26105.92 26105.92 0 00-4.735 3.491l-1.13.835L8.23 59.09c-2.922-4.392-5.325-8.053-5.341-8.136-.032-.162 9.127-7.028 9.408-7.052.094-.008 2.543 3.548 5.442 7.902z" fill="#E30D16"/></svg>