<svg width="70" height="60" viewBox="0 0 70 60" fill="none" xmlns="http://www.w3.org/2000/svg"><path fill-rule="evenodd" clip-rule="evenodd" d="M15.805 5.561v5.562H9.033v11.123H2.26v11.091l-.49.09c-.614.115-1.323.693-1.575 1.286-.26.614-.26 3.37 0 3.984.252.593.961 1.172 1.575 1.286l.49.09v5.217c0 3.69.05 5.385.172 5.79.229.763 1.398 1.915 2.173 2.14.379.11 1.664.17 3.703.17 2.917 0 3.123.016 3.123.25 0 .5.6 1.984 1.123 2.783 1.038 1.583 2.49 2.68 4.38 3.308 1.076.359 3.438.359 4.514 0 2.666-.887 4.67-2.92 5.317-5.39l.248-.952h10.268c9.807 0 10.269.012 10.269.252 0 .499.6 1.983 1.123 2.782 1.038 1.583 2.49 2.68 4.38 3.308 1.076.359 3.438.359 4.514 0 2.666-.887 4.67-2.92 5.316-5.39l.25-.952h1.962c2.437 0 2.912-.128 3.835-1.038.447-.44.773-.911.881-1.272.275-.915.24-11.974-.041-13.036-.436-1.65-1.551-2.908-3.355-3.788l-1.05-.512-.666-3.976c-.366-2.187-.76-4.445-.877-5.019-.409-2.014-1.464-3.376-3.267-4.217l-.942-.44H44.94l-.933.435c-.512.24-1.238.724-1.612 1.077l-.68.643h-3.336V11.123h-6.772V0H15.805v5.561zM20.32 4.45v2.225h6.772v-4.45h2.257v8.898H18.062V2.225h2.258v2.224zm4.514-1.112V4.45h-2.256V2.225h2.256v1.112zM13.547 15.572v2.225h6.773v-4.45h2.258v8.899H11.29v-8.899h2.257v2.225zm4.515-1.112v1.112h-2.257v-2.225h2.258v1.113zm9.03 1.112v2.225h6.772v-4.45h2.258v8.899H24.834v-8.899h2.258v2.225zm4.515-1.112v1.112h-2.258v-2.225h2.258v1.113zm27.673 7.947c.7.206 1.606.97 1.957 1.65.181.349.563 2.245 1.125 5.58.467 2.779.879 5.179.914 5.333.045.194.51.496 1.498.974.8.386 1.67.925 1.97 1.218.587.577.982 1.521.982 2.349v.531H63.21v5.143l2.257 1.114 2.258 1.114v1.534c0 1.445-.02 1.556-.347 1.877-.334.33-.414.34-2.294.34h-1.949l-.174-.722c-.242-1.003-.881-2.292-1.493-3.01l-.516-.604V32.224l-.58-3.077c-.318-1.693-.665-3.242-.77-3.444-.274-.523-.982-1.07-1.51-1.165-.25-.045-2.943-.063-5.983-.04-5.328.04-5.541.052-5.917.328-.214.158-.52.46-.68.671-.288.38-.291.503-.329 13.026l-.037 12.642h-2.253V38.147c0-9.815.042-13.16.172-13.591.212-.708 1.393-1.914 2.085-2.129.71-.22 13.39-.238 14.13-.02zM6.775 26.695v2.224h6.772V24.47h2.258v8.898H4.518V24.47h2.258v2.225zm4.515-1.113v1.113H9.033V24.47h2.257v1.113zm9.03 1.113v2.224h6.772V24.47h2.257v8.898H18.062V24.47h2.258v2.225zm4.514-1.113v1.113h-2.256V24.47h2.256v1.113zm9.03 1.113v2.224h6.772v4.449h-9.029V24.47h2.257v2.225zm6.858-2.005c-.047.121-.086.622-.086 1.112v.893h-4.514V24.47h2.343c2.078 0 2.333.025 2.257.22zm17.292 4.02c.21 1.071.386 2.053.391 2.182.008.21-.255.239-2.521.278-2.296.04-2.566.07-2.919.33-1.145.844-1.31 2.076-.527 3.92.057.134-.491.173-2.478.173h-2.55v-8.902l5.111.037 5.112.036.382 1.947zm.682 5.783v1.125l-1.542-.047c-1.29-.04-1.606-.094-1.931-.334-.543-.4-.882-.886-.987-1.417l-.09-.452h4.55v1.125zm-18.06 2.212v1.113H2.26v-2.225h38.376v1.112zm18.06 4.797c0 2.026-.022 3.684-.048 3.684-.027 0-.424-.134-.882-.299-1.147-.411-3.585-.444-4.714-.063-2.795.943-4.667 2.895-5.416 5.646-.192.704-.21.234-.218-5.944l-.01-6.709h11.288v3.685zm-18.06 4.101v5.562H27.013l-.248-.951c-.646-2.471-2.65-4.504-5.317-5.39-1.076-.36-3.438-.36-4.515 0-1.889.628-3.34 1.724-4.379 3.307-.524.8-1.123 2.284-1.123 2.783 0 .234-.205.25-3.11.25H5.21l-.347-.34c-.284-.28-.346-.48-.346-1.11v-.768l2.707-.037 2.707-.038.816-3.198c.449-1.759.818-3.245.82-3.302.002-.058-1.583-.104-3.523-.104H4.518v-2.225h36.118v5.561zm27.09-2.014v1.322l-1.13-.559-1.128-.559v-1.526h2.258v1.322zM8.435 45.603l-.284 1.113H4.518V44.49h4.2l-.283 1.112zm13.074 1.644c1.273.587 2.097 1.385 2.728 2.644.498.993.527 1.124.527 2.386s-.03 1.393-.527 2.386c-.635 1.266-1.451 2.054-2.763 2.666-.853.398-1.071.44-2.283.44s-1.43-.042-2.283-.44c-1.312-.612-2.129-1.4-2.763-2.666-.497-.992-.527-1.125-.527-2.379 0-1.202.042-1.415.447-2.256.566-1.18 1.373-2.043 2.426-2.596 1.112-.584 1.72-.716 3.017-.655.847.04 1.298.146 2 .47zm36.119 0c1.273.587 2.096 1.385 2.728 2.644.498.993.527 1.124.527 2.386s-.03 1.393-.527 2.386c-.635 1.266-1.452 2.054-2.763 2.666-.853.398-1.071.44-2.283.44s-1.43-.042-2.283-.44c-1.312-.612-2.129-1.4-2.763-2.666-.498-.992-.527-1.125-.527-2.379 0-1.202.042-1.415.446-2.256.567-1.18 1.374-2.043 2.427-2.596 1.111-.584 1.72-.716 3.017-.655.847.04 1.298.146 2 .47zm-39.566 1.875c-.271.084-.813.47-1.204.855-.997.985-1.272 2.024-.882 3.327.23.764 1.398 1.915 2.173 2.141 1.323.385 2.378.114 3.375-.869 1.378-1.359 1.42-3.087.108-4.525-.914-1-2.233-1.344-3.57-.929zm36.12 0c-.693.215-1.874 1.42-2.087 2.129-.39 1.303-.115 2.342.882 3.325.73.72 1.445 1.038 2.333 1.038.887 0 1.602-.318 2.333-1.038 1.378-1.359 1.42-3.087.108-4.525-.914-1-2.233-1.344-3.57-.929zm-34.209 2.384c.7.69.204 1.883-.782 1.883-.58 0-1.129-.54-1.129-1.112 0-.571.549-1.112 1.129-1.112.275 0 .564.126.782.341zm36.12 0c.217.215.345.5.345.771s-.128.556-.346.771a1.144 1.144 0 01-.782.341c-.275 0-.564-.126-.782-.34a1.112 1.112 0 01-.347-.772c0-.27.128-.556.347-.77.218-.216.507-.342.782-.342s.564.126.782.341z" fill="#E30D16"/></svg>