<svg width="70" height="70" viewBox="0 0 70 70" fill="none" xmlns="http://www.w3.org/2000/svg"><path fill-rule="evenodd" clip-rule="evenodd" d="M22.548.4l-.4.4v24.067l.33.384.33.384h24.384l.33-.384.33-.384V11.5l-.308-.35c-.471-.535-1.054-.588-1.582-.144l-.435.366v12.007H24.473V2.324h5.879v6.302l.335.335.336.336h7.954l.336-.336.335-.335V2.325h5.88l.004 2.7c.004 2.825.033 2.971.636 3.293.481.256.857.186 1.284-.241l.4-.4V.8l-.4-.4-.4-.399H22.948l-.4.4zm14.776 4.248v2.325h-4.648V2.324h4.648v2.324zm-9.786 9.487c-.572.255-.836.892-.602 1.456.094.229.282.475.418.547.135.072 1.5.131 3.033.131 2.737 0 2.793-.005 3.085-.316a1.148 1.148 0 00-.055-1.608c-.344-.323-.413-.332-2.905-.364-1.927-.025-2.656.012-2.974.154zM27.21 19c-.617.618-.394 1.618.424 1.903.646.225 3.716.195 4.283-.042.58-.242.81-.654.697-1.252-.15-.8-.41-.879-2.908-.879-2.034 0-2.249.024-2.496.27zm29.87 6.19c-.232.2-.361.453-.367.718-.005.226.535 1.948 1.2 3.828 1.592 4.503 1.618 4.53 3.656 3.77.602-.226 1.043-.33 1.007-.24l-1.537 3.96c-.811 2.088-1.515 3.78-1.564 3.76-.737-.313-7.222-4.012-7.147-4.077.057-.049.503-.23.992-.401.96-.337 1.505-.8 1.502-1.276-.004-.505-2.58-7.397-2.835-7.587-.635-.47-1.42-.282-1.755.419-.214.447-.203.49.836 3.365.579 1.601 1 2.96.935 3.018-.065.058-.875.37-1.8.692-1.07.373-1.754.69-1.88.87-.27.384-.25 1.087.041 1.433.367.438 11.381 6.445 11.817 6.445.761 0 .945-.36 3.313-6.494 1.27-3.291 2.269-6.075 2.268-6.324 0-.49-.36-.939-.851-1.062-.192-.048-.992.163-2.077.548-.971.345-1.813.578-1.87.52-.058-.06-.546-1.339-1.086-2.843-1.042-2.904-1.314-3.35-2.046-3.35-.217 0-.556.14-.752.308zm-43.914.891a361.08 361.08 0 00-2.023 2.393c-.676.807-1.278 1.467-1.338 1.467-.06 0-.737-.525-1.503-1.167-.767-.643-1.538-1.204-1.714-1.248-.417-.105-.911.128-1.198.567-.213.325-.218.823-.068 6.808.146 5.84.185 6.49.407 6.798.136.188.4.397.59.464.244.088 2.15-.159 6.684-.864 6.767-1.052 6.816-1.065 7.015-1.86.143-.57-.15-.964-1.617-2.182l-1.443-1.198.36-.427c2.759-3.264 3.546-4.248 3.62-4.526.122-.452-.276-1.2-.719-1.354-.729-.252-.975-.042-3.527 3-2.277 2.715-2.473 2.99-2.473 3.48 0 .49.077.6.96 1.36.529.454.944.83.923.833-.02.004-1.89.3-4.153.656l-4.116.65-.088-2.127a124.679 124.679 0 01-.088-4.22v-2.096l.918.762c.935.777 1.394.925 1.946.63.387-.208 5.047-5.834 5.141-6.207.096-.383-.233-1.106-.56-1.232-.122-.046-.43-.085-.683-.085-.4 0-.566.123-1.253.925zm17.521 4.606l-.335.336v6.301h-1.853c-2.39 0-2.796.18-2.796 1.237 0 .235.156.576.385.843 1.869 2.18 7.306 8.378 7.8 8.892.516.537.708.65 1.112.65.404 0 .596-.113 1.113-.65.493-.514 5.93-6.712 7.799-8.892.23-.267.385-.608.385-.843 0-1.057-.406-1.237-2.796-1.237h-1.853v-6.301l-.335-.336c-.564-.564-1.445-.417-1.83.305-.216.405-.222 7.548-.007 8.02.226.495.611.63 1.912.67l1.175.035-2.703 3.076c-1.487 1.692-2.774 3.076-2.86 3.076-.086 0-1.373-1.384-2.86-3.076l-2.703-3.076 1.175-.036c1.3-.039 1.686-.174 1.912-.67.215-.471.209-7.614-.007-8.019-.385-.722-1.266-.869-1.83-.305zM.535 48.027C.011 48.429 0 48.603 0 56.12v7.33l.336.335.335.336h15.004l.297-.316.298-.317V48.523l-.336-.336-.336-.335-7.423.004c-5.62.003-7.476.045-7.64.17zm4.113 4.532c0 1.312.062 2.545.136 2.741.25.658.838.776 3.629.729 2.433-.041 2.513-.052 2.856-.374l.352-.332v-5.147h2.324v11.62H2.325v-11.62h2.323v2.383zm4.649-.6v1.782l-1.128-.04-1.128-.039-.038-1.743-.039-1.743h2.333v1.783zm44.77-1.448l-.337.336V65.85l.317.297.316.297H69.33l.335-.335.336-.336V58.46c0-5.07-.047-7.417-.152-7.648a1.139 1.139 0 00-.485-.484c-.23-.106-2.578-.152-7.647-.152h-7.314l-.336.335zm4.312 4.563v2.574l.353.331c.35.328.378.331 3.14.331 3.678 0 3.397.263 3.454-3.216l.042-2.594h2.308v11.621H56.055V52.5h2.324v2.574zm4.618-.83l-.038 1.742-1.128.04-1.128.04V52.5h2.332l-.038 1.743zM27.21 54a1.5 1.5 0 00-.346.58c-.042.172-.06 3.562-.038 7.535l.04 7.224.383.33.384.33h14.734l.384-.33.384-.33.039-7.224c.021-3.973.004-7.363-.038-7.535a1.5 1.5 0 00-.346-.58c-.263-.263-.485-.27-7.79-.27s-7.527.007-7.79.27zm4.261 4.572c.041 2.45.052 2.529.374 2.871l.332.353h5.646l.332-.353c.288-.307.331-.482.331-1.356 0-.874-.042-1.049-.331-1.356a1.015 1.015 0 00-.812-.353c-.536 0-1.113.437-1.113.844 0 .223-.13.25-1.23.25h-1.23v-3.418h7.109v11.62H29.12v-11.62h2.307l.043 2.518z" fill="#FFC000"/></svg>