<svg width="22" height="20" viewBox="0 0 22 20" fill="none" xmlns="http://www.w3.org/2000/svg"><path fill-rule="evenodd" clip-rule="evenodd" d="M.217.055C-.034.181-.077.527.14.691c.079.06.207.083.566.103.256.014.552.052.659.084.31.095.559.2.559.235 0 .018-.128.18-.283.359-.374.431-.448.576-.448.874.002.402.067.474 1.308 1.43 1.176.907 1.31.983 1.657.938.265-.035.453-.174.808-.601l.328-.394.084.098c.138.161.399.74.484 1.074.105.413.105 1.248.001 1.76-.153.752-.602 1.863-1.03 2.548-.082.131-.265.462-.408.736-.943 1.819-1.385 3.533-1.204 4.678.113.711.305 1.088.786 1.542.525.494 1.342.756 2.267.726.488-.016.512-.021.865-.19.771-.37 1.175-1.027 1.343-2.189.12-.818.05-1.74-.215-2.872-.186-.792-.12-1.387.222-2.019.281-.517.877-1.023 1.426-1.21l.177-.06v8.579l-.274.021c-.477.037-.778.276-.888.703-.032.123-.044.469-.035.955.015.747.017.765.136.96.066.108.2.248.298.31l.177.114 5.872.011c6.555.013 6.088.033 6.382-.28a.97.97 0 00.196-.32c.062-.216.06-1.664-.003-1.844-.126-.363-.432-.574-.885-.61l-.27-.02-.01-8.06-.012-8.059-.107-.185a1.15 1.15 0 00-.294-.311l-.186-.127H10.7l-.187.127a1.15 1.15 0 00-.294.311l-.107.185-.012 3.37-.012 3.37-.224.071c-.44.137-.97.44-1.32.754-.995.893-1.352 2.12-1.018 3.498.182.753.255 1.395.23 2.036-.054 1.412-.474 2.079-1.417 2.246-.249.045-.324.04-.683-.04-.492-.11-.787-.238-1.025-.445-.424-.37-.596-.765-.633-1.45-.056-1.068.37-2.502 1.203-4.047.83-1.54 1.014-1.917 1.203-2.476.275-.815.355-1.274.353-2.03-.001-.651-.043-.919-.218-1.407-.221-.617-.49-.976-1.304-1.74C3.91 1.266 2.626.438 1.557.136c-.5-.141-1.14-.18-1.34-.08zm19.755.9c.075.072.075 15.854 0 15.926-.04.038-1.11.05-4.553.05-4.065 0-4.504-.006-4.528-.066-.014-.036-.026-3.62-.026-7.963 0-6.087.012-7.909.052-7.947.075-.072 8.98-.072 9.054 0zM3.729 2.315c.508.391.947.743.976.783.045.061.008.126-.258.453-.17.21-.344.393-.385.407-.091.03-2.096-1.488-2.096-1.588 0-.071.576-.785.657-.813.08-.028.123 0 1.106.758zm8.663-.127c-.095.042-.225.13-.288.196-.257.264-.25.172-.249 3.2.001 2.611.006 2.783.08 2.94.044.091.136.216.204.278.274.248.178.24 3.315.24 2.703-.001 2.88-.006 3.043-.078a1.11 1.11 0 00.288-.196c.256-.265.25-.174.25-3.192 0-3.018.006-2.928-.25-3.192a1.11 1.11 0 00-.288-.196c-.162-.073-.34-.077-3.053-.077s-2.89.004-3.052.077zm5.842.734c.015.036.026 1.238.026 2.67 0 1.97-.012 2.616-.051 2.654-.075.071-5.455.071-5.53 0-.038-.038-.05-.684-.05-2.654 0-1.432.01-2.634.025-2.67.024-.059.31-.066 2.79-.066s2.767.007 2.79.066zm-4.983 7.571c-.266.106-.338.441-.13.614l.114.095h4.451l.09-.094c.204-.21.141-.519-.123-.608-.162-.054-4.265-.06-4.401-.007zm7.923 7.22c.042.026.052.21.043.778l-.012.744-5.692.01c-4.17.009-5.707-.001-5.75-.035-.079-.063-.085-1.406-.007-1.482.04-.038 1.365-.05 5.707-.049 3.111 0 5.681.016 5.711.034z" fill="#161921"/></svg>