<svg width="22" height="20" viewBox="0 0 22 20" fill="none" xmlns="http://www.w3.org/2000/svg"><path fill-rule="evenodd" clip-rule="evenodd" d="M9.7.062C5.515.597 1.966 3.625.594 7.83c-.813 2.492-.79 5.342.061 7.789.5 1.436 1.55 3.189 2.483 4.144.201.207.399.275.622.217.079-.02.45-.378 1.058-1.017 1.013-1.066 1.078-1.165.979-1.483-.09-.29-.33-.428-.635-.368-.131.026-.281.159-.86.764-.423.442-.716.715-.74.69-.334-.38-.884-1.193-1.196-1.771-.678-1.257-1.148-2.84-1.241-4.179l-.03-.437h.984c.9 0 .996-.008 1.122-.089a.622.622 0 00.271-.466c0-.17-.145-.409-.303-.498-.13-.074-.26-.083-1.11-.083h-.964l.03-.421c.143-1.97.983-4.102 2.255-5.718.109-.138.203-.26.21-.27.008-.012.319.298.69.688.372.39.719.732.77.76.052.027.173.05.268.05.212 0 .453-.2.492-.41.059-.308.004-.398-.727-1.182l-.699-.75.338-.288c1.005-.855 2.01-1.437 3.195-1.849.616-.214 1.433-.405 1.944-.453.165-.016.364-.039.44-.051l.14-.023v.951c0 .523.013 1.018.028 1.099a.748.748 0 00.174.3c.126.134.174.155.358.155s.232-.02.358-.154a.748.748 0 00.173-.301c.016-.081.028-.576.028-1.099v-.951l.14.023c.077.012.275.035.44.051.512.048 1.33.239 1.944.453 1.186.412 2.191.994 3.196 1.85l.338.287-.7.75c-.73.784-.785.874-.727 1.183.04.208.281.409.493.409a.698.698 0 00.267-.05c.052-.028.398-.37.77-.76s.682-.7.69-.689c.007.012.102.133.21.271 1.272 1.616 2.113 3.748 2.255 5.718l.03.42h-.963c-1.082 0-1.184.025-1.335.322-.1.198-.1.347.006.529.155.269.235.286 1.317.286h.976l-.03.437c-.093 1.338-.563 2.922-1.241 4.179-.312.578-.862 1.391-1.197 1.77-.023.026-.316-.247-.739-.69-.74-.773-.834-.835-1.14-.764-.245.057-.42.365-.37.656.022.138.174.322.936 1.134.5.534.961.999 1.025 1.035.148.082.35.082.502 0 .26-.143 1.09-1.185 1.595-2.005.357-.579.874-1.666 1.099-2.312.96-2.76.856-6.045-.277-8.704C19.45 3.117 16.137.54 12.254.06 11.599-.02 10.34-.02 9.7.062zm3.464 4.965c-.26.053-.342.224-1.152 2.378l-.779 2.069-.342.029c-1 .083-1.735.805-1.877 1.845-.042.3-.038.407.025.704.094.443.292.866.518 1.103.47.493 1.37.704 2.054.48.96-.313 1.574-1.421 1.356-2.445-.094-.435-.292-.85-.53-1.106l-.193-.209.8-2.119c.767-2.03.8-2.126.756-2.295a.693.693 0 00-.142-.273c-.093-.092-.307-.2-.37-.187a35.42 35.42 0 01-.124.026zm-1.672 5.74c.266.137.411.433.412.841.001.766-.682 1.205-1.358.872-.294-.145-.411-.353-.438-.782-.024-.373.037-.554.265-.788.285-.292.719-.347 1.12-.142z" fill="#161921"/></svg>