<svg width="20" height="20" viewBox="0 0 20 20" fill="none" xmlns="http://www.w3.org/2000/svg"><path fill-rule="evenodd" clip-rule="evenodd" d="M9.047.043c-3.074.29-5.871 2.026-7.536 4.675C-.39 7.745-.506 11.668 1.216 14.8a10.264 10.264 0 003.26 3.55c1.276.846 2.683 1.37 4.298 1.6.456.065 2.002.065 2.463 0 2.466-.345 4.505-1.406 6.168-3.209 1.363-1.478 2.238-3.372 2.54-5.5.078-.542.066-1.965-.02-2.58a12.187 12.187 0 00-.513-2.076c-.177-.48-.655-1.463-.905-1.855A10.642 10.642 0 0015.5 1.648c-.52-.346-1.53-.853-2.11-1.057A10.244 10.244 0 009.047.043zm2.08 1.033c1.372.18 2.732.68 3.826 1.408 1.998 1.33 3.411 3.41 3.869 5.697.154.773.19 1.223.168 2.082-.038 1.405-.297 2.463-.91 3.718a9.039 9.039 0 01-6.55 4.907c-.615.108-1.864.15-2.464.081-1.787-.202-3.479-.917-4.815-2.033a9.002 9.002 0 01-3.18-5.805 11.005 11.005 0 01-.004-2.217 9.019 9.019 0 016.084-7.442 8.875 8.875 0 011.7-.396c.558-.073 1.718-.073 2.275 0zm-1.669.94l-.504.06c-2.048.238-4.074 1.427-5.351 3.14-.558.747-1.067 1.737-1.067 2.074a.47.47 0 00.351.457c.14.042.19.03.736-.175 1.88-.706 3.94-1.042 6.382-1.042 2.48 0 4.643.361 6.49 1.083.519.203.642.202.85-.007.19-.189.18-.376-.044-.88-1.088-2.455-3.424-4.226-6.115-4.637-.377-.057-1.467-.103-1.728-.073zm1.754 1.087c1.675.314 3.097 1.132 4.136 2.38.302.362.62.808.593.834-.008.009-.393-.079-.854-.195a22.671 22.671 0 00-2.892-.519c-.773-.086-3.426-.099-4.184-.019a20.76 20.76 0 00-3.168.562c-.79.207-.795.208-.777.156.053-.158.591-.836.953-1.202a7.148 7.148 0 011.85-1.364 7.472 7.472 0 012.041-.645l.392-.058c.224-.039 1.599.012 1.91.07zM9.508 8.076A2.01 2.01 0 008.01 10.01c0 1.291 1.24 2.258 2.482 1.935 1.508-.393 2.014-2.276.904-3.362a2.022 2.022 0 00-1.89-.507zm.967 1.068c.7.345.694 1.383-.01 1.742a.988.988 0 01-1.434-.68c-.11-.512.208-1.015.732-1.158.236-.065.443-.037.712.096zm-8.161.982c-.294.133-.33.297-.226 1.014.468 3.209 2.85 5.856 5.965 6.63.368.092.43.098.566.053a.48.48 0 00.241-.183c.11-.162.114-.349.028-1.027-.266-2.096-.906-3.58-2.03-4.707-.923-.926-2.088-1.498-3.536-1.737-.749-.123-.825-.126-1.008-.043zm14.73-.018c-.856.121-1.666.356-2.308.667-1.499.728-2.58 2.012-3.16 3.754a10.972 10.972 0 00-.502 2.599c-.02.346-.015.38.073.508.06.088.149.156.247.188.139.046.198.04.624-.07.259-.066.7-.212.98-.325a8.044 8.044 0 004.925-6.29c.075-.515.076-.672.004-.812-.126-.243-.338-.296-.882-.219zm-13.401 1.15c1.865.471 3.071 1.55 3.76 3.364.194.511.337 1.099.473 1.947l.02.126-.223-.077a9.679 9.679 0 01-1.278-.611 7.104 7.104 0 01-3.23-4.52c-.058-.268-.063-.342-.023-.342.028 0 .253.05.5.113zm13.202.229c-.404 1.857-1.62 3.559-3.222 4.515-.534.318-1.506.746-1.506.663 0-.017.036-.233.08-.479.44-2.473 1.553-3.987 3.464-4.713.273-.104 1.076-.323 1.194-.327.06-.001.059.027-.01.34z" fill="#161921"/></svg>