<svg width="20" height="18" viewBox="0 0 20 18" fill="none" xmlns="http://www.w3.org/2000/svg"><path fill-rule="evenodd" clip-rule="evenodd" d="M4.18.054a1.47 1.47 0 00-.834.779c-.046.1-.197.708-.336 1.352-.139.644-.261 1.206-.273 1.249-.018.07-.129.08-1.1.093l-1.08.014-.178.131a.821.821 0 00-.284.386c-.098.237-.104.296-.089.798.021.676.108.926.436 1.258.286.29.513.376.988.376.203 0 .37.015.369.034 0 .02-.236.38-.524.801l-.522.767v3.54c0 3.479 0 3.542.083 3.633.046.051.103.093.126.093.025 0 .042.2.042.509 0 .954.16 1.39.672 1.818.358.3.544.328 2.05.311l1.32-.014.24-.131a1.81 1.81 0 00.76-.865c.116-.278.127-.347.144-.94l.018-.641h7.647l.015.662c.014.64.02.674.15.97.162.363.425.648.758.821l.237.123h2.849l.237-.123a1.68 1.68 0 00.758-.822c.13-.293.136-.332.15-.953l.015-.647.142-.149.143-.149V8.125l-.548-.806-.548-.806.433-.026c.262-.015.494-.055.589-.101.236-.116.555-.472.666-.745.088-.215.099-.311.099-.846 0-.706-.056-.882-.353-1.114l-.178-.14-1.076-.014-1.076-.013-.266-1.24c-.146-.682-.303-1.32-.347-1.419a1.684 1.684 0 00-.657-.714l-.236-.129-5.739-.01c-4.65-.008-5.767.002-5.891.052zm11.598.775a.665.665 0 01.28.29c.068.13.252.902.566 2.361.255 1.192.465 2.19.465 2.217 0 .035-2.106.05-7.082.05-6.725 0-7.081-.004-7.06-.082l.443-2.054c.512-2.39.519-2.418.656-2.6.22-.288-.142-.271 5.96-.275l5.59-.004.182.097zM2.538 4.365a64.95 64.95 0 00-.159.743l-.134.639H1.048L.91 5.592a1 1 0 01-.19-.342c-.066-.244-.066-.86 0-.933.036-.04.305-.056.947-.056h.897l-.025.104zM19.3 4.317c.063.07.067.69.006.931a.955.955 0 01-.19.337l-.145.162h-1.167l-.041-.174c-.023-.096-.096-.43-.163-.743l-.122-.57h.886c.633 0 .9.017.936.057zM17.837 7.19c.26.386.463.713.45.728-.014.015-.474.084-1.023.153-.62.078-1.045.153-1.124.198-.225.13-.36.358-.928 1.578-.468 1.006-.553 1.22-.53 1.335.055.28.025.276 2.082.276h1.876v1.161l-2.604-.012-2.604-.012-.328-1.09c-.252-.842-.352-1.116-.435-1.196l-.108-.105H10.04c-1.937.001-2.546.015-2.626.06-.09.05-.157.227-.459 1.206L6.6 12.62H1.423v-1.161h1.871c1.864 0 1.873 0 1.97-.101a.363.363 0 00.096-.237c0-.207-1.094-2.527-1.277-2.707-.197-.195-.328-.23-1.32-.345a13.86 13.86 0 01-.951-.131c-.085-.029-.057-.084.388-.74l.48-.707h14.682l.474.7zM2.596 8.792c.758.093 1 .138 1.051.198.037.042.24.447.45.9l.384.825H1.423V8.672h.094c.052 0 .537.054 1.078.12zm16.043.901v1.022h-1.53c-.84 0-1.528-.008-1.528-.017 0-.01.18-.406.4-.882.303-.652.424-.871.493-.89.138-.036 1.784-.242 1.987-.249l.178-.005v1.021zm-6.182 2.032c.128.428.233.793.233.812 0 .02-1.206.035-2.68.035-1.475 0-2.681-.006-2.681-.013 0-.035.457-1.52.48-1.563.019-.033.738-.049 2.22-.049h2.194l.234.778zM3.6 13.988v.627H1.422v-1.254h2.18v.627zm12.19-.007v.62l-1.264.03c-1.632.04-7.36.04-8.993 0l-1.263-.03v-1.24h11.52v.62zm2.848.007v.627H16.46v-1.254h2.18v.627zM5.52 15.973c-.013.502-.027.593-.12.776a1.23 1.23 0 01-.285.348l-.182.142H2.267l-.181-.142a1.225 1.225 0 01-.286-.348c-.092-.183-.106-.274-.12-.776l-.015-.569h3.871l-.015.57zm12.823-.023c0 .606-.056.813-.276 1.042-.247.256-.327.27-1.629.27-1.301 0-1.382-.014-1.628-.27-.22-.229-.275-.436-.277-1.042v-.545h3.811v.545z" fill="#161921"/></svg>