<svg width="70" height="70" viewBox="0 0 70 70" fill="none" xmlns="http://www.w3.org/2000/svg"><path d="M52.895 58.763c.122-.061.182-.122.263-.203a.699.699 0 00-.263.203zm-.608.425l-.283.182-.608.425-.629.385-.628.385-.648.364-.629.344-.648.324-.649.324c-.223.101-.445.203-.668.284-.183.06-.365.141-.548.222-.08.04-.182.081-.263.122l-.264.101-1.094.405a.28.28 0 01-.081.06c.02 0 .06-.02.081-.02.04 0 .081-.02.122-.04.182-.101.364-.121.547-.182.182-.06.385-.122.567-.203.162-.08.345-.162.527-.222.04-.02.081-.04.102-.061l.202-.081.588-.263c.142-.061.263-.122.385-.183l.284-.141c.284-.122.547-.243.83-.385.264-.142.528-.304.811-.425a.49.49 0 00.223-.162c.081-.04.162-.102.243-.142l.223-.142c.163-.101.304-.202.466-.283.163-.102.305-.182.467-.284.162-.101.304-.202.466-.283l.243-.182c0-.02.02-.02.04-.04l-.04.04c.101-.081.223-.142.324-.223.101-.081.223-.162.324-.284a.848.848 0 01-.243.162c-.04.02-.08.061-.142.102zm-10.011 4.616c.364-.08.668-.202 1.033-.284-.344.041-.689.163-1.033.244-.203.06-.041.04 0 .04zm-9.039.79c-.264-.02-.507-.02-.77-.06l-.77-.082-.386-.04a2.492 2.492 0 00-.385-.04l.122.02c-.04 0-.081-.02-.122-.02l-.628-.102-.304-.04c-.101-.02-.203-.02-.304-.041l-.588-.122c-.04 0-.162-.04-.121 0 .02.02.101.04.162.061l.567.122c.102.02.203.04.284.04l.284.04.588.082c.202.02.385.06.587.081.183.02.426.06.69.081.121.02.263.02.384.04.061 0 .142.02.203.02h.203c.506.021.973.021 1.094 0-.284-.02-.527-.02-.79-.04zm6.931-.384c-.04 0-.06 0-.101.02-.203.06-.446.08-.649.121l-.425.061c-.142.02-.284.04-.426.04-.284.02-.568.041-.851.102-.507.06-1.014.06-1.52.121.284-.02.587-.02.871-.02.142 0 .284-.02.426-.04l.425-.061a7.9 7.9 0 00.67-.04l.12-.02.122-.021.244-.04c.162-.021.324-.041.466-.062l.466-.06c.08-.02.162-.02.243-.04l.243-.041.426-.082.203-.08c-.223 0-.487.06-.73.121-.102-.02-.162 0-.223.02zM28.778 1.903c-.486.101-.506.203-.466.284.365-.081.385-.183.466-.284zm2.372-.87c-.183.02-.284.04-.365.08a.56.56 0 00-.162.102c.141-.04.283-.06.385-.08.121-.021.162-.062.142-.102zM34.98.79c-.345 0-.345.04-.406.101.365-.02.345.04.669.02 0-.04.06-.06.142-.08-.345.02-.446.06-.405-.041zm34.168 41.287c-.04.142-.06.263-.1.385a7.574 7.574 0 00-.143.526c.102-.08.061-.08.122.02.101-.425.142-.283.243-.79-.081.082-.101.122-.101.102-.02.02-.02-.06-.02-.243zm-.607 2.248c.122-.06-.182.688-.081.688.081-.323.324-.951.304-1.053-.101.264-.121 0-.223.365zm-1.784 5.164c.122-.284.223-.547.223-.649-.162.304-.344.649-.223.649zm-2.938 5.121c-.142.183-.284.406-.405.527.08 0 .162-.1.283-.263.061-.08.122-.182.183-.283.06-.102.142-.203.223-.304-.041-.02-.142.142-.284.324zm-.629.528c.183-.284.304-.486.426-.71-.263.305-.426.568-.426.71zm-3.667 4.778c-.122 0-.345.183-.77.588.1 0 .506-.385.77-.588zm-1.946 1.559c.121.06-.547.406-.608.568.283-.183.506-.304.993-.75-.122.04-.061-.102-.385.182zm-3.689 2.855c.304-.182.284-.223.304-.304-.405.223-.364.264-.304.304zm-7.295 2.694c-.183.06-.325.101-.446.121-.122.02-.223.02-.345.04-.223.203-.405.386-1.337.67-.406 0-.892.202-1.46.283 0 .04-.06.1-.243.162-.202-.02-.85.08-.932.182.324-.04.466 0 .81-.04.365-.061-.12-.082.244-.163.527-.1 1.054-.243 1.601-.384.527-.162 1.034-.345 1.52-.486-.183-.04-.203-.02-.304-.061.385-.182.79-.223.892-.324zm-5.027.85a6.11 6.11 0 00.649-.142c.203-.06.405-.1.567-.162.365-.121.67-.222.953-.222 0 .04-.324.1-.243.141.263-.08.486-.162.73-.222a4.73 4.73 0 01.79-.223c-.081-.04-.142-.081-.547.04-.041.061.202 0 .02.061-.122-.02-.79.203-.79.122-.365.1-.77.202-1.156.303-.344.081-.71.183-.973.304zm2.29.952c.02-.081-.324 0-.304-.06-.243.06-.446.12-.527.182.487-.142.406-.02.831-.122zm-1.742-1.681c.162-.02.364-.04.608-.101-.081-.02-.223 0-.406.02-.182.02-.365.04-.506.061.04.02.141.02.304.02zm-1.419.912c.02.02.04.02.1.02.062 0 .143 0 .264-.04.284-.102-.08-.061-.02-.143-.04.02-.101.02-.162.041-.06 0-.101.02-.162.02-.102.02-.183.04-.203.061.142-.02.142.02.183.04zm-.142.931c-.243.04-.405.06-.405.101.081 0 .324-.02.567-.081.122-.02.244-.04.365-.081.102-.02.203-.061.264-.081-.244.08-.548.101-.79.142zm-1.155.728c-.406.02-.79.02-1.379.102 0 .06 1.095-.02 1.379-.102zm-3.466-.242c.162.04.993.04 1.094-.061-.222-.02-.73 0-1.094.06zm-.263-.224c.162.021.405 0 .607-.02.203-.04.345-.08.325-.121-.223.02-.406.04-.568.06-.142.02-.263.062-.364.082zm-2.169-.06c-.1.061.568.142.67.082-.264-.02-.244-.082-.67-.082zm-1.196.02c.264.02.507.02.507-.02a5.41 5.41 0 00-1.094-.04c.06 0 .324.04.587.06zm-.264-.425c.345.04.69.04.67-.02-.081-.02-.264-.02-.446-.04-.162 0-.284.02-.223.06zm.224.466c-.466-.04-.75-.081-1.074-.122-.061.04-.304.02-.284.081l.669.061c-.385-.162 1.155.081.689-.02zm-1.257-.182c.223.02.406.04.466.02-.182-.02-.445-.081-.648-.102-.101-.02-.203-.02-.284-.02-.08 0-.121 0-.142.04.081 0 .183.021.284.041.101 0 .223.02.324.02zm-.769-.02a4.53 4.53 0 00-.831-.203l-.467-.06c-.162-.021-.303-.041-.445-.041.142.06.324.101.506.121.183.02.345.02.446.02 0 .041.568.203.79.163zm-4.398-.871c.526.121 1.215.324 1.337.263-.527-.121-1.054-.243-1.338-.263zm.648.769c-.06.02-.304-.02-.304.04.182.041.365.082.547.143-.182-.122.162-.04-.243-.183zm-2.148-1.862c.101.1.506.141.892.243a4.863 4.863 0 00-.892-.243zm1.196-1.195c-.203-.02-.527-.121-.81-.223-.284-.121-.548-.223-.67-.182.406.142.527.202.65.263.12.061.222.102.567.203-.163-.162.344.02.263-.06zm-2.696 1.377c-.446-.142-.486-.223-.871-.365-.142.061.364.102.223.162.142.041.993.345.648.203zm.507-1.377c-.385-.122-.628-.223-.75-.223.203.06.304.122.385.162.081.04.142.081.203.122-.081-.081.203.02.162-.061zm-.791-3.037c-.202-.081-.628-.325-.668-.284.202.142.142.06.446.203.02.02-.02.04.08.101.02-.02.02-.02.122.02.02 0 .02-.02.02-.04zm-3.201 2.025c-.466-.243-.547-.284-1.054-.588-.081.02-.284-.101-.284-.04.284.182.466.243.628.304.163.06.325.142.568.304 0 0 .142.08.142.02zm-.689 1.336c-.224-.182-.365-.182-.73-.385-.122.02.223.183.324.264-.162-.183.426.202.405.121zm.04-1.822c-.386-.182-.426-.304-.69-.385-.04.04.061.121.305.263.04 0 .02-.04.141.02.142.082.203.163.244.102zm-1.256-.487c.486.263-.143-.02.303.263.183.061.122-.06.304.02-.324-.202-.628-.385-.608-.283zm-.102-.344c.466.243-.02.122.283.284-.04-.102.244.101.284.06-.06-.06-.506-.364-.567-.344zm-.648.689c-.183-.102-.426-.243-.548-.304.183.142.284.203.385.263.102.061.203.122.406.264.08-.02-.061-.122-.244-.223zm-.081-.79c.04.02.162.122.283.203.122.081.264.162.284.142-.162-.102-.162-.142-.182-.203-.02-.04-.081-.101-.325-.243-.06.02.122.142.183.203-.081-.041-.223-.122-.243-.102zm-.852 1.114c-.527-.345-.932-.69-1.074-.649.243.102.851.568 1.074.649zm.183-1.56c.202.142.384.223.465.264-.06-.06-.506-.385-.547-.365.081.06.122.081.081.101zm-.243.385c.223.121.344.304.445.304-.121-.081-.101-.122-.08-.142a4.502 4.502 0 00-.345-.203l-.02.04zm.364.406c-.243-.122-.81-.548-.73-.365.285.162.73.466.73.365zm-.912-1.055c-.182-.06 0 .163-.324 0 .486.446.506.163 1.155.71 0-.061.06-.061.182-.02a14.094 14.094 0 01-.81-.608 4.667 4.667 0 00-.71-.506c.264.202.426.344.507.425zm.446-.16l.446.283c-.04-.081 0-.122-.162-.243.04.121-.324-.163-.284-.04zm-2.229.242a24.34 24.34 0 00-.872-.648c.142.162.446.405.75.648.325.243.67.466.851.668.02-.04.082 0 .163.02a15.523 15.523 0 00-.892-.688zm-1.115-3.28c.163.202.629.587.973.89.02-.02.081 0 .142.02-.081-.08-.142-.12-.203-.181-.06-.061-.1-.102-.162-.142-.101-.102-.182-.183-.284-.324.041.142-.486-.385-.466-.263zm.182-.102c.162.142.304.264.466.365l-.486-.486c-.081-.081-.182-.162-.264-.263-.08-.081-.182-.183-.263-.284l-.081.081c.263.263.466.446.628.587zm-1.398-1.093c-.121-.02.304.344.101.263.426.425.548.446.831.668-.141-.202-.628-.607-.385-.546-.344-.345-.162.04-.547-.385zm1.399.062c-.284-.264-.507-.588-.65-.608.021.1.812.81.65.608zm-2.615.647a10.39 10.39 0 00-.831-.81c.162.182.324.344.466.506.081.081.142.162.223.223.04.04.06.08.101.101l.102.101c.283.264.506.446.709.547-.243-.122-.507-.385-.77-.668zm.648-.891c.163.142.325.324.467.466.121.142.223.223.223.162-.304-.243-.548-.588-.69-.628zm-1.864-.385a1.44 1.44 0 00-.263-.243c.04.081.162.243.283.385.122.142.243.243.264.223-.102-.142-.203-.243-.284-.365zm-.446-1.68c-.06.182.75.91.73 1.133.04-.1-.04-.162.203 0-.426-.465-.629-.688-.933-1.134zm-.283-.405c.101.142.202.263.263.344.081.081.142.142.162.121a2.965 2.965 0 01-.324-.384c-.101-.142-.182-.264-.263-.385-.163-.243-.304-.425-.426-.486.162.203.385.526.588.79zm.324-.122c-.203-.222-.446-.567-.547-.587.182.243.202.344.466.648.02-.02.06-.04.08-.06zm-.486.041c-.264-.365-.183-.122-.264-.142.304.365.264.223.264.142zM6.567 54.61c.04.062.1.122.1.102-.303-.425-.506-.688-.668-.931l-.122-.183c-.04-.06-.08-.141-.121-.202-.081-.142-.162-.304-.264-.486-.121-.06.04.203-.02.182.101.142.183.264.243.365.061.1.122.202.183.283.121.182.223.344.385.608 0-.081.101-.02.284.263zm-.304.225c-.304-.467-.345-.527-.588-.77.182.263.567.912.588.77zm-1.581-2.411c.08.142.608 1.114.81 1.276-.202-.344-.709-1.174-.81-1.276zm.506.486c-.223-.121.487.872.284.467-.06 0-.08-.223-.284-.467zm.628-2.065c0 .06.04.182.122.344l.122.243c.04.081.1.162.162.263.223.344.466.668.527.73-.467-.71-.244-.568-.061-.426-.446-.911-.405-.182-.872-1.154zm-.182.566c-.284-.506-.507-1.073-.69-1.275.143.425.507 1.093.69 1.275zm-.851-.303c.162.304.284.486.365.568-.06-.183-.345-.69-.365-.568zm.607-1.073c-.08 0-.06-.223-.223-.466-.1-.06 0 .182.102.385.101.183.223.325.121.081zm.467-.952a4.182 4.182 0 00-.264-.526 2.215 2.215 0 01-.121-.223l-.142-.284c-.061-.02-.04.102.04.264.081.162.183.385.284.567.04 0 .182.324.203.202zm-.689-1.356c-.101-.223-.243-.69-.365-.811.102.243.284.79.365.81zm-1.682.728c-.244-.547-.305-.89-.487-1.093.101.344.304.79.487 1.093zm-.77-.101a3.98 3.98 0 01-.264-.506c-.04-.081-.081-.183-.122-.264-.04-.1-.08-.182-.1-.283-.143-.385-.285-.75-.447-1.093.081.202.284.79.466 1.336.223.547.446 1.033.507 1.073-.223-.425-.162-.425-.04-.263zm-.041-.87c.04.101.081.182.122.283.081.182.162.324.243.446-.08-.223-.182-.425-.263-.628l-.122-.304c-.04-.1-.081-.182-.101-.283-.142-.365-.264-.689-.406-.932.102.284.244.71.385 1.114.061.101.102.203.142.304zm1.965-.911c-.02-.142-.283-.933-.303-.71.101.203.223.588.304.71zm-.749-.831c.122.142.223.364.304.709.061.04.122.161.183.202-.183-.506-.345-.83-.548-1.438-.04.102.02.324.061.527zm-.304-.041c.04.162.081.283.162.364-.02-.121-.08-.303-.121-.485-.02-.081-.06-.162-.081-.243a.435.435 0 00-.081-.142c.04.182.08.364.121.506zm-1.155-.263c-.06-.182-.121-.384-.182-.567-.122-.384-.223-.729-.304-.85.101.324.202.688.304 1.053.101.344.202.668.324.85-.02-.06-.04-.141-.081-.222a5.323 5.323 0 01-.06-.264zm0-.992c-.02.02-.02.02.02.142.041.02.102.284.122.385.02-.02.06.04.101.102-.04-.264-.08-.223-.202-.629-.02-.02-.02-.02-.04 0zM2.533 44c-.04.021.102.345.081.386-.02-.081-.04-.142-.06-.122.08.243.141.426.202.487-.121-.345.162.06.04-.284-.06.081-.202-.608-.263-.466zm-.223-.08c-.202-.668.041-.04-.04-.405-.04-.02-.081-.142-.122-.243.02-.02.02-.02 0-.142-.02.081-.182-.344-.121.02.101.102 0 .203.101.527.06-.101.142.263.182.243zm.77-.891c-.08-.284-.202-.628-.222-.87-.081.02.101.586.162.89l.06-.02zM.426 41.328c-.142-.264.04.628.08.69-.08-.427.021-.285-.08-.69zm1.033-2.875c-.04-.264-.142-1.074-.162-.648.121.142 0 .648.142.911a.487.487 0 01.02-.263zM.122 37.075c0-.242-.02-.506-.02-.769-.02-.263-.02-.526-.041-.709 0-.1-.02-.182-.02-.263 0-.06-.02-.121-.02-.142 0 .183.02.669.04 1.154.02.244.02.507.04.73 0 .121.02.222.041.324.02.1.02.182.04.242 0-.06 0-.141-.02-.242a1.573 1.573 0 01-.04-.325zm.527.345c.04.04.08.02.121.02-.04-.425-.122-.365-.203-.385 0 .122.02.203.041.264 0 .04.02.08.04.101zm.749-3.178c0-.345 0-.568-.06-.527-.02.344 0 .567.06.527zm-.081-.932c-.08.06-.162.162-.182.527.04-.182.162.02.182-.527zm.284.405c.04-.162.04-.466.06-.79-.1 0-.1.689-.06.79zM.69 32.5c0-.102.02-.183.02-.284 0-.102.02-.203.02-.284.04-.384.06-.729.04-.911-.04.405-.08.688-.121.972-.02.283-.041.547-.082.911.02 0 .02.182.061.142.04-.182.04-.365.061-.547zm.972-.081c0-.223.06-.608.121-.952.04-.344.06-.668 0-.75 0 .244-.04.527-.06.81-.041.304-.082.588-.061.892zm-.527-2.309c0 .101-.02.183-.02.264a.91.91 0 00-.02.223c-.02.141-.02.243.02.304.02-.203.04-.426.06-.588 0-.142 0-.243-.04-.203zm-.892-.81c-.04-.141-.121.142-.182.466-.02.162-.04.345-.061.486 0 .142 0 .243.02.264a5.63 5.63 0 01.102-.73c.04-.222.08-.384.121-.485zm1.804-.163c.02-.1.02-.182.04-.283.02-.101.02-.203.04-.304-.08.324-.141.689-.202 1.033-.04.365-.101.709-.101 1.033.04-.284.101-.587.142-.932.04-.182.06-.364.08-.547zm-1.155.527c.04.142 0 .506.02.688.081-.546.142-1.032.142-1.336-.061.365-.122.304-.162.648zm.688-1.498a5.49 5.49 0 01-.141.567c-.04.223-.061.426 0 .486.02-.202.04-.303.08-.384.021-.102.061-.183.082-.385-.04-.06 0-.243-.02-.284zm.305-.486c-.061.182-.345 1.296-.183.91-.02-.161.244-.647.183-.91zm-.223-3.523c.02.1-.365.972-.264 1.053.04-.345.467-1.276.264-1.053zm-.244-.081c.041-.08.102-.243.142-.385.04-.142.081-.264.04-.284-.1.162-.242.629-.182.67zM3.12 21.95c-.04.121-.1.243-.14.344a3.975 3.975 0 01-.123.283c-.08.162-.121.304-.1.385.06-.142.161-.364.222-.567.101-.223.182-.405.142-.445zm-.972.202c-.162.406-.101.426-.02.426.101-.324.122-.628.02-.426zm1.257-2.733c-.203.485-.203.668-.264.93.081-.161.162-.323.223-.485 0-.122.04-.284.04-.445zm.851.405c.04-.101.081-.202.122-.283l.06-.122.062-.121c.08-.162.162-.304.243-.446.142-.263.283-.486.405-.688.122-.203.223-.385.324-.567.102-.183.183-.385.264-.608-.223.385-.588.952-.872 1.499a9.063 9.063 0 00-.385.77c-.06.12-.101.222-.142.323a.575.575 0 00-.08.243zM4.053 17.9c.02.02.061.02.081.041.061-.122.122-.243.203-.365-.06.04-.122 0-.284.325zm2.331-3.119c.04-.04.121-.141.223-.283.121-.223-.081 0-.183.04-.121.183-.223.345-.304.466-.08.142-.162.263-.243.385-.142.243-.283.445-.466.77.264-.385.75-.952.871-1.378.02.061.041.061.102 0zm-.649.447c.122-.406.426-.71-.121-.081.04-.162.365-.446.263-.487-.182.284-.365.547-.425.71.06.06.141.02.283-.142zm1.055.222l.181-.304c.061-.101.142-.182.183-.263.101-.142.182-.243.081-.263-.446.587-.71.951-.851 1.194.162-.121.324-.324.405-.364zm.222-.83c.243-.325.101-.264.142-.406-.122.162-.304.406-.304.446.121-.142.121-.06.162-.04zm1.014-2.106c-.406.607-.304.303-.588.587.121-.04.02.08-.081.243-.102.162-.223.344-.223.385.202-.345.425-.547.588-.73.162-.202.263-.323.304-.485zm-.892.506c.202-.263.648-.769.669-.87-.284.304-.608.668-.67.87zm1.905-.202l-.102-.101c-.364.425-.04.243.102.101zm-.081-2.046c.06.061-.527.648-.669.891.122-.121.223-.223.304-.283.223-.264.69-.871.365-.608zm3.648-1.68c-.082.08-.163.142-.223.203-.061.06-.122.1-.183.141-.101.081-.162.142-.162.203.223-.182.568-.446.568-.547zm1.601-1.175c-.142.163-.04.244.304-.02-.142.04-.101-.122-.304.02zm3.566-2.53c.345-.223.426-.223.71-.365-.304.02-.304.06-.71.365zm4.743-2.654c-.02 0-.06 0-.122.02-.06.02-.141.041-.223.082.04.02.082.02.142.02.061 0 .162-.02.284-.06 0-.021-.02-.062-.081-.062zm.426-.91c-.284.04-.406.162-.628.263 0 .061.1.061.303.02-.243-.04.406-.222.325-.283zm.75.891c-.122-.02.324-.264-.061-.163-.061.082-.365.305.06.163zm1.904-1.377c.041-.04.041-.081.142-.122-.121.02-.202.061-.263.081a.315.315 0 00-.122.082c-.04.04-.04.08-.101.121l.243-.081c.06-.02.081-.04.101-.081zm1.52-.811c-.507.142-.689.203-1.074.244.02.02-.04.06-.122.101.527-.142.973-.243 1.196-.264v-.08z" fill="#E30D16"/><path d="M38.911.081A9.133 9.133 0 0037.553 0v.121c-.79-.06-.75.061-1.357.041.06.06.02.101-.102.121-.06.02-.142.02-.243.02s-.203.021-.324.021c-.162.121.121.182-.406.243.284 0 .122.081.406.101.02-.08.446.04.405-.02-.142-.02-.324-.04-.142-.04.081.04.75.02.79.08-.547.02-.729.081-.911.162-.183.081-.365.142-.953.183-.08-.04-.405-.04-.527-.061-.04-.02 0-.06.02-.101.02-.04 0-.061-.141-.061-.122.06-.264.101-.385.162-.061-.06-.69.04-.79 0 0 .04-.102.06-.264.08-.081 0-.162.021-.264.021-.08.02-.182.02-.263.04.365.082-.649.163-.628.284.486-.06.83-.08 1.054-.06.182-.082.303-.163.648-.223.162 0 .182.02.405 0 .04-.04-.202-.061 0-.081.223.06.547.06.122 0h.588c.121.02.202.04.263.06.122.04.162.122.466.162a5.15 5.15 0 00-.79 0c-.243.02-.385.061-.243.102-.223-.02-.527 0-.811.02-.142.02-.284.02-.426.04-.06 0-.121.02-.182.02-.06.02-.101.02-.142.041-.263.02-.263-.04-.527-.02-.628.121-.932.283-1.52.445.081.061.061.061.04.102-6.809.567-12.99 3.32-17.854 7.532.02-.101-.06-.121-.304.142l.06.08c-1.357 1.216-2.634 2.532-3.769 3.97-.02 0-.04 0-.06.02-.183.223-.223.304-.203.324-.04.04-.081.101-.122.142-.101.06-.324.344-.506.567-.102.141-.04.121-.122.243-.06.02-.223.243-.344.405-.122.162-.203.263-.122.08-.203.487-.466.871-.79 1.317-.142.222-.304.465-.467.729-.162.263-.364.546-.526.91 0 .264-.284.77-.406 1.135v-.02c-.06.1-.101.222-.142.324.02-.183-.04-.142 0-.385-.121.364-.547 1.012-.648 1.438.121-.162.324-.628.466-.81-.081.303-.365.749-.264.749a3.58 3.58 0 01.264-.547 31.391 31.391 0 00-1.378 3.645c-.02.06-.04.101-.061.162-.081.223-.122.425-.162.607.02-.06.04-.1.04-.141-.243.89-.466 1.781-.628 2.693v.04c-.02.06-.02.122-.04.182-.102.446-.163.81-.142.932a32.162 32.162 0 00-.345 4.677c0 4.475.953 8.728 2.635 12.555v.06c.101.304.142.304.142.284.06.162.142.303.223.465-.02-.04-.061-.1-.102-.161.081.202.142.404.223.587.02-.02.02-.04.02-.061.041.101.082.223.142.344l.284.648.142.324.162.324.304.648.162.324.081.162.081.162.608 1.154c.04.102.102.182.162.284l.163.283.344.547c.223.385.466.729.71 1.093l.364.547c.122.182.264.344.385.527.122.222.304.425.466.627.102.142.223.284.345.425l.365.426.364.425c.122.142.244.284.365.405l.75.83.79.79.345.344.345.324.709.648.73.608.364.303c.061.04.122.102.183.142l.202.142c.02.02.04.04.081.06.304.223.608.466.912.689l1.156.79c.182.141.385.243.587.364.203.122.406.223.608.344l.284.162c.365.223.73.425 1.115.608l.283.141c.102.041.203.102.284.142.203.102.385.182.588.284.142.08.304.142.466.223l.122.06.121.04c.081.021.162.061.223.082.325.182.69.324 1.054.465.486.162.973.324 1.46.507.182.08.384.141.567.202-.081-.02-.142-.04-.223-.04.223.06.385.1.527.141.04.02.06.02.101.04.04.021.081.021.101.041.04.02.081.02.122.04-.284-.04 0 .082.081.143.243.06.446.1.628.141.183.04.365.081.507.102.324.08.608.162.952.303 0-.04.102-.04.264-.02.06.06.588.122.628.182-.507-.08.203.203-.527.061-.263-.06-.263-.08-.121-.101-.244-.06-.426-.081-.548-.101a.773.773 0 01-.324-.122c-.02.02 0 .081-.142.04-.06-.04-.263-.222-.486-.202.263.162-.71-.202-.527-.04-.203-.04-.284-.081-.365-.122-.08-.02-.121-.04-.243-.06 0-.02.101 0 .142 0-.385-.102-1.642-.406-.973-.325a.596.596 0 00-.182-.04l-.183-.06a7.442 7.442 0 00-.385-.122c-.243-.081-.506-.183-.73-.264l-.182-.06c-.06-.02-.121-.04-.162-.061-.101-.04-.223-.081-.304-.122-.203-.06-.385-.121-.547-.141-.486-.223-.081-.061-.446-.263-.142.08-1.074-.527-1.338-.486-.1-.102-.405-.284-.526-.406.202.102.486.243.587.243-.121-.121-.446-.202-.446-.263.081-.06.304.162.365.142-.142-.162-1.236-.709-1.175-.526.263.121.425.222.425.283a1.046 1.046 0 00-.364-.122c.263.183.506.183.567.304-.264-.101-.75-.364-.851-.344l.04-.06c-2.573-1.378-4.904-3.078-6.424-4.496.02.101.081.223-.284-.08-.04-.122.182.08.182 0a.501.501 0 00-.121-.102c-.04-.02-.06-.06-.081-.081-.06-.04-.101-.06-.142-.081-.081-.04-.142-.101-.243-.243-.02.06-.06.101-.264-.101.061-.081-.06-.142.102-.102-.142-.141-.325-.303-.527-.506-.183-.202-.405-.405-.608-.628l-.325-.324-.162-.162a1.149 1.149 0 00-.142-.162c-.202-.222-.384-.445-.547-.627-.1-.061-.121.04-.283-.102.02-.04-.061-.141-.142-.222-.102-.102-.203-.223-.223-.304.06.06.162.182.243.283.101.102.182.183.203.183-.04-.04-.122-.162-.243-.304-.102-.142-.244-.324-.365-.486-.243-.324-.466-.607-.466-.526.02-.04.283.364.405.506-.02.02.223.445-.02.182-.142-.223-.142-.385-.426-.648-.06 0 .06.162.101.243a1.976 1.976 0 01-.324-.425c-.08-.142-.162-.284-.243-.446.081.04.284.405.344.405-.141-.243-.506-.83-.608-.85.082.142.163.263.102.243-.102-.06-.243-.284-.385-.486-.142-.203-.243-.365-.264-.344 0 .06.04.121.122.222.08.081.162.183.243.324-.04.04-.162-.162-.081.061.365.547.101.02.304.263 0 .061.101.142.223.324.203.345.446.669.669.972.121.162.243.304.344.446.061.08.122.141.183.222.06.082.121.142.182.203.243.283.486.547.73.81.06.06.121.121.182.202a783.574 783.574 0 01.547.547c-.04-.06-.08-.121.02-.02 0 .04.061.101.163.202-.02.02-.142-.1-.142-.04.425.466 1.114 1.012 1.459 1.397-.06-.08 0-.101.101 0 .061.06.122.142.183.182l.142.142c.08.081.141.162.182.223.101.121.142.223.223.385.324.222-.223-.284.06-.081.061.121.467.465.527.587.345.142.487.405.69.607.101-.02-.183-.263.182-.02.223.182.183.223.122.263.121.101.263.182.385.263.121.081.263.162.385.223-.304-.263-.608-.506-.69-.607.163.121.325.222.467.344.142.101.263.223.385.324.223.223.405.405.527.547.284.141.101 0 .263.08.466.345.264.203.75.527.06-.04-.405-.324-.365-.385.629.466.67.385.79.446.305.202.71.445 1.095.668.101.06.203.121.284.182.101.061.182.102.284.162.182.102.324.203.425.304-.365-.203-.446-.223-.608-.263-.06-.061-.142-.122-.203-.183-.08-.06-.162-.1-.263-.162-.203-.12-.446-.242-.73-.425-.06.061.568.385.629.486.04 0 .02-.04.142.02.304.203.425.304.445.385.02.061-.06.102-.141.142.385.101.526.344.83.385-.344-.162-.628-.324-.547-.365.325.203.649.344 1.014.527.364.162.73.344 1.074.587.344.121.71.223 1.074.364.182.061.365.142.527.223.08.04.182.081.263.122.081.04.183.06.264.1.344.143.689.264 1.013.386.081.02.162.06.243.08l.243.061c.162.04.304.081.466.102 1.054.324 1.196.567.649.567-.567-.223-.547-.122-1.135-.345.385.04-.304-.141-.344-.202.364.142.567.08.283-.04-.121 0-.466-.122-.527-.082.264.142-.182.04.203.223-.284-.04-1.074-.385-1.155-.304.324.122.608.223.851.304l.365.122c.122.04.223.06.344.1.223.062.466.143.75.224.142.04.284.1.446.162.162.06.345.121.547.182-.385-.122-.486-.081-.77-.182-.02-.02 0-.04-.121-.081-.122.02.02.08.202.162.04.02.081.04.142.04.04.02.081.02.122.04.08.02.142.061.142.082h-.142a.916.916 0 01-.264-.061 9.242 9.242 0 00-1.135-.385c-.101-.04-.223-.06-.324-.08-.101-.041-.223-.062-.324-.102-.223-.06-.446-.122-.669-.162a3.988 3.988 0 00-.507-.243 21.643 21.643 0 00-.648-.243 22.445 22.445 0 01-.649-.243l-.304-.122c-.101-.04-.182-.1-.243-.141-.142-.02-.162.02-.284 0 .122.06.304.162.487.283.182.101.365.203.446.284.385.182.263.04.648.222-.02.02.04.081.102.122.1.04.182.08.263.101.101.04.182.06.284.101l.547.183c.182.06.365.121.527.202.08.04.182.06.263.101.081.04.183.061.264.102.142 0 .243 0 .425.02.04.04.142.08-.02.06.669.223.588.082.69.082.141.06.141.08.161.121.02.04.081.081.325.142-.081-.122.364-.122.972 0 0 .04.162.08.122.101-.446-.182-.567-.06-.567.04.405.081.263.041.648.162.142-.02-.365-.182.02-.1.061.02.122.04.162.08.061.02.102.061.142.081.101.061.243.102.466.081-.142-.04-.304-.101-.121-.08.385.1.689.181 1.054.283.141-.04 1.053.101 1.337.182.081-.081.669-.06.426-.182.405.06 1.256.121.81.02-.121 0-.486-.06-.77-.081-.284-.04-.486-.04-.304.081-.344-.02-.77-.081-.932-.162.264.02.588 0 .142-.081-.162.02-.122.081-.547.02-.406-.101-.061-.06-.244-.162-.486-.06-.932-.141-1.378-.222a21.961 21.961 0 01-1.236-.345c.527.081.79.04 1.216.081-.08 0-.04.04.04.081.082.02.183.04.203.02-.324-.1.122.041.385.082.284-.02-.506-.183-.1-.122.526.162.587.243.506.223.162.06.385.02.648.141.345 0 .325-.06.933.061.1-.06-.122-.101-.102-.162.568.122.183-.08.669 0-.101.081-.446.101-.162.263.223.02.223-.04.405-.04.02.06.912.142 1.196.142-.203-.04.04-.04-.122-.102.568.061.79.02.993 0 .203-.02.385-.06.872-.02v.081c.973-.02 2.371-.04 2.371-.142.02.02.203.02.405 0v.082c.406-.02.71-.041.973-.082.264-.04.486-.06.75-.04.02-.02-.04-.06.121-.081.203.02.406 0 .608-.02.203-.02.406-.061.588-.04.183-.082.365-.122.608-.163.122-.02.264-.04.406-.06.08-.02.162-.02.243-.041.08-.02.182-.04.283-.06.163-.102-.405-.021-.02-.122.426-.061.69-.06 1.176-.142-.142-.02.527-.202.101-.142-.284.122-.304.02-.02-.04-.629.162-1.156.263-1.642.344-.486.081-.952.162-1.439.304.02-.04.203-.081.243-.102-.162.02-.324.061-.506.082l-.507.06c-.324.04-.567.04-.689.02a3.307 3.307 0 01-.628.102c-.243.02-.507.04-.669.06-.182-.06-.507-.04-.83 0-.325.02-.67.061-.872.061.04-.04.223-.04.263-.08-.324-.021-.588-.041-.83-.041h-.325c-.101 0-.203 0-.284.02.04-.04-.608-.101-.263-.101.08 0 .162 0 .142-.02-.183 0-.527.02-.831 0h-.223c-.061 0-.142-.02-.183-.02-.101-.021-.182-.041-.182-.082.344.061.689.081.973.081.304 0 .587 0 .85-.02v.122h.812c.182 0 .344 0 .628.06-.162-.08-.102-.101.121-.141-.304-.02-.567-.041-.83-.041-.122 0-.244-.02-.365-.02h-.183c-.06 0-.121 0-.182-.02.02-.02 0-.041.122-.041.709.04.952-.04 1.682.04-.04-.121 1.013-.08 1.155-.182-.608 0 .08-.06 0-.101-.162-.04-.426-.04-.75-.04-.081 0-.162 0-.264.02h-.283c-.183 0-.385 0-.568.02-.182 0-.385 0-.547.02h-.507c-.283-.02-.506-.04-.587-.08.283 0 .547.02.79.02s.466 0 .69.02c.425 0 .81 0 1.215-.122-.304 0-.344-.06-.648-.08-.325.04.223.08-.122.1-.426 0-.79-.02-1.115-.04-.08 0-.162 0-.263-.02h-.264c-.182 0-.364 0-.547.02-.06-.101-.223-.101-.466-.08h-.202c-.061 0-.142 0-.224-.021a2.98 2.98 0 01-.526-.101c-.304.04-.588 0-.852-.04-.263-.041-.486-.102-.689-.062-.344-.06-.445-.121-.75-.182-.02.02.02.06-.141.06 0-.04-.345-.08-.365-.12.182 0 .04-.061.162-.142-.284-.102-.547-.04-.872-.203h.102c.527.101 1.054.203 1.6.284 0 0 .021 0 .021.02.264.04.547.08.831.121.04.02.102.04.223.061.04-.02.101-.02.264 0h-.02c.12.02.263.02.384.04-.121.02.406.163.122.163.08 0 .162.02.263.02 0-.02.102-.02.142-.04-.182-.041-.304-.061-.385-.102.06 0 .101 0 .122-.02.304.02.608.06.912.08.263.021.506.041.77.041.263.02.527.04.77.04.264 0 .527 0 .77.021h.77a29.125 29.125 0 003.263-.263c.06 0 .081-.02.122-.02a27.16 27.16 0 002.513-.426c.162-.04.304-.06.446-.06.06 0 .141-.02.222-.04.02-.021.02-.021 0-.021l.163-.04c.101-.02.223-.061.324-.082l.121-.04c.02 0 .02-.02.02-.02l.082-.02c0 .08-.122.222-.324.323-.163 0-.203.04-.284.061-.04.02-.06.04-.122.06-.02 0-.06.021-.101.041-.04 0-.081.02-.122.02-.608.102-.06-.1-.405-.08-.182.121-.203-.02-.507.08-.02.041.142.102-.243.142 0-.04.162-.06.122-.1-.162.04-.345.06-.507.1-.06.122.304.061.527.061-.203-.02.405-.162.365-.101-.02.04-.142.06-.243.101-.223.04-.527.101-.649.081.081-.121-.81 0-.547-.101-.628.08-.06.08-.365.142-.71.08-.77.1-1.013.182-.588.121-.77.04-.264-.04-.405.04-.709.1-1.013.12-.142.021-.284.021-.446.041h-.466c-.101.061.588.04.142.122-.304-.04-.385-.04-.507.04.304 0 .588 0 1.034-.02-.061.122.77-.04.405.101.486-.02.02-.101.507-.121 0 .08.162.101.283.142.203-.02.406-.041.568-.061.162-.02.284-.02.344 0a1.95 1.95 0 00-.303.06c-.061.02-.082.041-.082.061.284-.04.365-.04.406-.02.02.02-.02.081 0 .101.142-.141.912-.121 1.277-.303-.203.02-.467.08-.527.06.628-.1-.122-.04-.02-.121.202 0 .405-.04.384-.101-.223-.04-.567.182-.891.141.162-.02.101-.06.243-.08.203 0 .507-.082.77-.142.122 0 .06.04.04.08-.02.041.041.061.365-.02-.101-.04-.06-.08-.08-.1 0-.021-.021-.021-.082-.021-.04 0-.121 0-.263.02.142-.02.243-.06.324-.06.081-.02.142-.041.182-.041.081-.02.102-.02.122-.02.02 0 0 .04.405-.02.081-.082.406-.183.75-.264.325-.101.649-.182.75-.182-.405.182.385.06.446.182-.851.182.101.162-.487.223.183.06.527 0 .892-.122.04-.02.102-.02.142-.04.04-.02.101-.04.142-.06l.304-.122a8 8 0 01.628-.223c.081-.101-.223 0-.283-.04.547-.163-.122-.02.243-.122.02.02.223-.04.263-.04.223.08-.02.202-.385.344-.182.06-.405.141-.608.202-.101.04-.203.06-.304.101-.101.02-.182.061-.243.081.344-.08.527-.121.669-.141.142-.02.263-.04.486-.102-.142.102-.689.243-.73.324.69-.263.345-.06.67-.08.486-.122.182-.142.607-.264.061.101-.182.142-.344.263.04.04.304-.121.628-.202.04-.06-.203 0-.02-.06.405-.082.85-.244 1.297-.426.121-.04.223-.101.344-.142.122-.06.223-.101.345-.142.243-.1.486-.182.75-.263-.365.223-.02.142-.304.304-.102.02-.467.121-.811.223-.345.1-.669.222-.689.324.324-.122.426-.183.628-.203-.547.162.02.122-.324.243-.02-.02-.06-.04-.263.04-.102.102-.102.183-.061.203.283-.162.223.142.324.101-.243.04-.912.304-1.013.385.567-.162.912-.304 1.256-.445.162-.061.324-.142.507-.223.182-.081.385-.182.608-.304.02.04 0 .081-.081.142.243-.142.628-.365.993-.446a.534.534 0 01.223-.182c.284-.08.892-.385 1.398-.648.486-.283.851-.486.71-.283.162-.081.324-.183.465-.264.041-.08-.405.102-.06-.1.101-.061.202-.102.263-.122.081-.04.142-.061.203-.081.142-.061.304-.142.608-.344-.06-.041.101-.163.304-.284.101-.06.223-.101.304-.142.08-.04.162-.08.182-.08a3.37 3.37 0 01.385-.385 2.63 2.63 0 00.527-.304c.081-.06.183-.122.304-.203.122-.08.264-.182.426-.283.06-.162-.385.243-.487.243.163-.162.77-.567.852-.648.02.04-.284.243-.284.283.324-.263-.223.264.142-.02-.102 0 .365-.445.608-.547.02.04-.284.243-.284.284.527-.385.446-.466.932-.79.264-.283-.284.06.122-.283.08-.04.284-.203.486-.385.203-.182.385-.364.466-.385-.182.162-.263.264-.364.344a3.206 3.206 0 01-.345.284c0 .06-.162.223-.243.324.263-.223.203-.06.486-.284-.04-.02-.02-.06.02-.121l.244-.243c.202-.182.446-.405.567-.527-.08.061-.202.183-.223.163.122-.122.547-.588.568-.567-.061.1-.284.364.06.06-.04-.101.507-.506.588-.546.02-.102-.06-.081.406-.547 0 .162.162-.06.263-.122 0 .04-.081.142-.162.223-.081 0-.101-.04-.345.223.102-.04.244-.122.446-.263.183-.142.406-.385.71-.71.202-.262-.223.143.02-.161.142-.081.365-.304.506-.486a.672.672 0 00.163-.223c.02-.04.02-.06-.04-.02.303-.405.303-.223.648-.689.02-.141-.264.243-.325.264.203-.223.385-.466.548-.648a.617.617 0 00.1-.142c.021-.04.062-.081.082-.121.04-.081.081-.142.081-.183.223-.324.425-.587.466-.506-.101.122-.223.223-.243.324.122-.101.223-.243.344-.405.061-.081.122-.182.183-.263.04-.04.06-.101.101-.142.04-.06.061-.101.102-.162-.02.162.202-.223.344-.425-.122.283.101-.02.122.08.141-.222.243-.384.263-.485-.324.486-.101-.06.04-.284.142-.121.02.04.183-.06.243-.365.101-.284.223-.507.06.02.243-.384.284-.465.02.04-.081.202-.081.263.223-.405.304-.425.506-.81-.02-.06-.141.142-.06-.04.182-.325.222-.385.445-.689.122-.364-.446.486-.324.142.203-.385.385-.446.547-.932.02.02.061.02.081.04.264-.546.487-1.032.426-.688.121-.283.243-.567.365-.83.101-.283.223-.547.324-.81.06-.142.122-.263.162-.405.061-.142.122-.263.162-.405a7.22 7.22 0 01.365-.81l-.121-.04c.08-.223.08-.344.141-.385-.08.364 0 .405.223-.223.061-.324-.142.203-.06-.162.1-.222.182-.465.283-.729.04-.141.081-.263.122-.405.04-.141.08-.283.121-.445.081-.304.142-.628.223-.952.04-.162.081-.324.122-.506.04-.162.081-.344.121-.506-.02-.142-.162.384-.1-.02.1-.304.202-.547.303-1.053-.06 0-.08-.081-.08-.284.04-.283.08-.425.12-.385-.04.223-.04.345-.02.405.02-.1.041-.162.061-.121.02-.365.122-1.033.223-.932.061-.384.06-.445.06-.445-.02 0-.04.04-.04-.101.082-.223.122-.486.142-.81.02-.162.02-.324.04-.507 0-.08 0-.182.021-.283v-.304c-.04-.02-.081.04-.081-.141.081-.122-.02-.345.04-.689.122-.263.082.142.041.689.142-.203.081-1.013.04-1.357.02-.446.041-.891.082-1.316 0-.102.02-.223.02-.324 0-.102 0-.223-.02-.324a5.876 5.876 0 00-.081-.628c0 .101-.061.425-.061.142.02-.243.06-.628.04-1.033-.02-.405-.06-.83-.141-1.134v-.445c0-.162-.041-.324-.061-.506a26.17 26.17 0 00-.223-1.094c.02 0 .04 0 .06-.02a8.716 8.716 0 00-.121-.628c-.04-.182-.101-.344-.162-.567 0-.202-.04-.425-.081-.628-.02-.06-.02-.1-.04-.162a.59.59 0 01-.041-.162c-.04-.121-.061-.243-.102-.364l.102-.02a14.166 14.166 0 00-.264-.992l-.06-.244c-.02-.08-.061-.162-.082-.242-.06-.162-.101-.324-.162-.466-.101-.304-.202-.628-.304-.932-.101-.303-.223-.607-.324-.91-.06-.163-.101-.325-.162-.487-.04-.162-.081-.303-.122-.445a7.182 7.182 0 00-.263-.79c-.04-.081-.406-.607-.345-.75-.101-.1.081.406-.08.041a91.8 91.8 0 00-.75-1.62c-.244-.465-.487-.951-.832-1.579-.04 0-.04.081-.162-.06 0-.062-.06-.183.02-.163a19.1 19.1 0 00-.466-.77 7.474 7.474 0 01-.202-.323c-.061-.101-.142-.203-.203-.284-.263-.364-.507-.688-.689-1.032-.243-.284.06.243-.182-.04-.122-.244.04-.082.121-.082-.344-.526-.202-.142-.405-.385-.101-.141-.223-.283-.324-.445.121.06-.04-.223-.223-.446a1.052 1.052 0 00-.243-.263c-.061-.04-.081-.04 0 .061.08-.02.385.466.324.445a2.043 2.043 0 01-.203-.263c-.081-.101-.182-.222-.263-.324-.163-.202-.223-.324.02-.101a4.795 4.795 0 01-.547-.567 8.34 8.34 0 01-.426-.587c-.243-.182.081.344-.486-.304.121.04-.081-.182 0-.182a8.7 8.7 0 00-.527-.567 4.965 4.965 0 01-.487-.547c-.182-.101-.304-.162-.223.02l-.486-.486c.04-.162-.547-.688-1.236-1.295-.04.02-.122 0-.284-.102h-.02s-.02-.02-.04-.02l-.102-.101a521.6 521.6 0 00-.284-.284c-.182-.182-.304-.303-.04-.08a5.044 5.044 0 00-.345-.304 6.377 6.377 0 00-.385-.304 14.911 14.911 0 00-.79-.567c-.122-.081-.243-.182-.365-.243a1.81 1.81 0 00-.324-.182c-.183-.102-.325-.183-.385-.183-.122-.243-.79-.587-1.338-.951-.142-.04-.223-.061-.405-.122 0-.04.06-.04-.081-.121-.061.04-.142-.02-.243-.101-.061-.041-.102-.081-.163-.122a.822.822 0 00-.182-.101c-.426-.162-.02.121-.426-.061-.243-.142-.04-.162-.425-.364-.142-.02.324.263-.04.08l-.244-.121c-.02-.06.06-.081.183-.04a4.98 4.98 0 00-.345-.162c-.122-.041-.223-.102-.324-.142-.203-.081-.406-.182-.588-.263l-.547-.243c-.183-.081-.365-.142-.568-.243-.223 0 .426.182.345.222-.487-.222-.973-.425-1.44-.627a61.727 61.727 0 00-1.418-.507c-.121-.04-.223-.08-.344-.1-.102-.041-.223-.062-.325-.102-.222-.06-.425-.122-.607-.162-.203-.04-.386-.101-.568-.122-.182-.04-.344-.06-.486-.08l-.79-.244c-.122-.04-.264-.08-.386-.121-.142-.04-.263-.06-.405-.101-.04.04-.203.04-.466.02-.122-.02-.264-.04-.406-.06-.142-.021-.304-.062-.486-.082-.669-.101-1.378-.202-1.642-.162.446.101 1.034.101 1.48.243-.507-.04-.73-.06-.568.061-.243-.081-.344-.06-.486-.04-.142.02-.284.02-.588-.061-.06.04.183.08 0 .08-.324-.04-.547-.06-.669-.12.568.06 0-.041 0-.082.163 0 .365 0 .67.04-.061-.364-.061-.425-.224-.465zM12.727 59.268c.04-.02.426.365.608.507-.121 0-.425-.325-.608-.507zm12.18 6.946c0 .06-.223.02-.405-.02-.182-.082 0-.02.122.02.02-.04-.325-.142-.223-.183.263.081.344.122.506.183zm-.121.384l-.304-.121c-.102-.04-.183-.081-.264-.101a2.265 2.265 0 01-.506-.223c-.142-.04-.122 0-.142.02-.406-.223-1.804-.628-2.047-.89-.142.04-.588-.264-.628-.183-.304-.182-.588-.304-.912-.445-.325-.162-.67-.325-1.075-.567.041 0 .122.04.142.02.102.06.122.04.122.04.142.142.304.223.486.284.183.06.385.141.588.222.081.082.405.243.75.406.182.08.345.162.507.222.162.061.304.101.405.122-.264-.081-.993-.425-1.013-.587.223.1.243.141.466.243-.04-.061-.365-.183-.203-.203.284.121.365.203.446.263.081.061.122.122.324.223.122-.02.385.06.426 0 .304.101.547.324.101.121-.06.02.669.324.487.183.182.141.121.121.466.243.202.04.283.02.628.162-.02.02-.162-.04-.243-.061.06.06.243.142.466.223-.102 0-.284-.061-.507-.122.061.081.628.223.466.263.061 0 .223.02.345.02.121 0 .182 0 .08-.06.548.08.244.283.953.466.04.06-.101.04-.162.06-.324-.121-.588-.344-.648-.243zm-3.142-.303c.487.222.284.04.77.263-.06.06-.81-.142-.77-.263zm2.128.79c.345.1.365.141.386.202.02.04.02.101.344.182-.365.04-.608-.304-.73-.385zm5.33 1.376c.041.061-.526-.02-.405-.08-.101-.021-.142 0-.263-.021-.081.06.324.142.506.203-.202.04-.506-.142-.932-.183.264-.08-.466-.162-.506-.202.1-.081 1.276.222 1.6.283zm-1.236-1.397a.442.442 0 01-.162-.101.44.44 0 00-.162-.101c.203.06.304.1.405.162.102.04.223.1.446.141-.243 0-.405-.04-.527-.1zm4.844 1.094c-.081 0-.182.02-.284.02-.08 0-.162 0-.203.02-.182-.02-.1-.06-.121-.101.405.04.669.02.79-.02.122.04 0 .06-.182.08zm.446-.304c.08.04.284.06.527.08-.365.041-.79-.1-.527.062-.122 0-.264-.02-.385-.02-.203-.102.871-.122.142-.203-.325-.04 1.155.04.141-.04.04-.02.325 0 .527 0-.263.06.203.161-.425.12zm-2.21-.122c.021-.04.548.04.791.061-.02.06-.628-.02-.79-.06zm5.452-.06c.02.02-.243.06-.527.08-.283.02-.547 0-.506-.04.486.04.547-.06 1.033-.04zm-7.417.02l.365.121c-.75-.121 0 .122.1.223a2.115 2.115 0 01-.344-.081c-.121-.02-.223-.06-.344-.081-.223-.06-.466-.121-.73-.182-.162-.02-.182.04-.02.06-.04.02-.385-.06-.405-.04-.061-.04-.507-.304-.507-.142-.506-.162.04-.04.02-.121-.02-.06-.344-.06-.506-.142-.061.02.08.06.243.101-.122 0-.426-.06-.649-.121.081-.122.831.06 1.46.162-.061-.04-.122-.06-.122-.101-.142-.081-.487-.162-.628-.223.263.02.506.101.668.182.163.081.244.142.183.203-.06 0-.142-.02-.223-.02a3.994 3.994 0 00-.304-.061c.04.04.223.1.243.141.142-.06.872.122 1.317.162-.08-.04-.283-.08-.243-.121-.142-.02-.121.02-.142.04a1.988 1.988 0 01-.385-.1c-.04 0-.08-.021-.121-.041.04.02.08.02.121.04.142.02.223-.08-.02-.101.223.02.426.04.628.101.122.06.223.101.345.142zm-.081-.324c.263.04.344.08.507.121-.082 0-.142.02-.142.061-.345-.08-.325-.142-.365-.182zm1.013.283a4.394 4.394 0 01-.506-.1c.141-.041.506.04.283-.082.101.02.203.06.385.081-.142.02-.202.04-.162.101zm2.23-.08c-.568-.082-.345.04-.79 0 0-.041.1-.061.262-.041-.162-.081-.344.02-.648-.02.101-.04-.04-.04-.182-.081-.142-.02-.284-.04-.183-.081.101.02.223.06.324.06.102.02.203.02.284.02.142 0 .203-.04.04-.1.386.08.71.141.892.242zm-2.716-.203c.101 0 .202 0 .385.04-.081.02-.203 0-.345 0-.06 0-.142-.02-.223-.02-.08-.02-.142-.04-.223-.04-.283-.081-.506-.162-.486-.183.547.04.73.122.892.203zm-.223-.223c-.081.06-.669-.08-.507-.142.183.061.304.102.507.142zm9.91.263c0 .04-.425.061-.385.122-.385 0-.06-.06-.264-.101l-.891.08c-.02-.04.223-.08 0-.08.223-.061.689-.02 1.155-.122.162.02.182.081.385.101zm9.18-1.012c-.161.06-.324.142-.445.202a1.765 1.765 0 00-.345.183c-.162.06-.142 0-.02-.04-.04-.021-.122.04-.122.04-.506.08.608-.385.163-.324a.815.815 0 01.263-.081c.04 0 .02.02 0 .04-.04.06-.142.142-.081.142.04 0 .142-.02.142 0 .405-.243.932-.446 1.358-.608-.244.162-.588.304-.912.446zm8.33-5.65a3.318 3.318 0 00-.385.385c-.06.04-.101.04-.101.02s.04-.06.08-.1a3.42 3.42 0 01.467-.386l.04.061c-.06.061-.06.02-.1.02zm-1.58.527c-.244.182.08-.142.04-.162.08-.06.121-.06.223-.142.08-.08.182-.162.182-.202.304-.162-.324.364-.446.506zm-2.98 2.673c-1.094.506-.952.445-.04-.061.182-.101-.02.04.04.06zm-4.154 1.032s-.02-.02 0-.02l.182-.08.264-.122a4.28 4.28 0 01-.446.222zm1.925.122l-.04-.06c.263-.163.465-.163.465-.224.365-.162-.141.162-.425.284zm-26.367-1.762l-.08-.02s-.021 0-.021-.02c-.04-.02-.081-.02-.101-.04-.243-.122-.507-.223-.75-.325-.243-.121-.507-.222-.73-.364-.142-.101-.344-.182-.527-.263-.243-.122-.486-.243-.73-.385l-.709-.385-.283-.162c-.122-.08-.264-.142-.385-.223-.102-.06-.223-.121-.264-.182-.121-.06-.223-.142-.344-.202l-.325-.223c-.08-.06-.162-.101-.243-.162-.02 0-.04-.02-.06-.04l.425.242c.02.02.04.02.04.041.082.06.163.101.244.162l.243.142c.081.02.223.121.324.182l.608.364c.203.122.405.223.628.324.203.122.386.223.588.324l.162.081.162.081c.102.04.203.102.304.142 0 0 .02 0 .061.02.162.081.325.162.487.223.162.081.324.162.486.223l.182.08c.183.082.386.163.568.244l.284.121c.1.04.182.081.283.122.04.02.061.02.102.04l.73.243c.242.081.486.182.729.243l.324.102.73.222c.101.04.223.061.324.102.101.02.223.06.324.08.223.061.446.122.669.162.223.061.446.102.669.142.121.02.223.061.344.081h-.08c-.102-.02-.183-.02-.284-.02h-.041c-.264-.04-.547-.142-.892-.203-.142-.04-.284-.06-.425-.1-.04-.021-.102-.021-.142-.041-.122-.02-.223-.061-.345-.081a1.859 1.859 0 01-.466-.183l-.203-.06a14.05 14.05 0 01-.506-.182c-.081-.02-.162-.041-.264-.061-.08-.02-.182-.04-.263-.061-.365-.081-.81-.203-1.196-.425l-.365-.122zm15.16.446c.08 0 .162 0 .283-.02l.203-.041c.203-.02.405-.06.608-.08.142-.021.284-.041.446-.062l.425-.08.872-.183c.142-.02.284-.06.426-.101l.425-.101.426-.102c.142-.04.283-.06.425-.121.243-.081.466-.142.71-.223l.344-.101c.122-.04.243-.06.345-.122.466-.182.932-.344 1.378-.546.446-.162.892-.304 1.358-.547.182-.122.385-.223.587-.324.183-.081.365-.162.547-.263.082-.04.142-.061.203-.102a.95.95 0 01.203-.1c.203-.122.425-.223.628-.345l.304-.182.304-.182c.182-.102.365-.203.547-.345l.243-.162c.082-.06.163-.1.244-.162.121-.06 0 .142.324-.141.02-.02.04-.02.06-.04 0 0 0 .02-.02.04-.08.06-.182.121-.263.202a7.104 7.104 0 01-.405.243c-.142.081-.264.162-.406.243-.06.04-.121.06-.202.101l-.183.122a.9.9 0 01-.223.162c-.08.04-.162.08-.263.121-.06.04-.122.061-.203.102-.08.06-.162.1-.243.162-.02.02-.04.02-.06.04a6.403 6.403 0 00-.528.263c-.182.081-.364.182-.547.263a7.39 7.39 0 01-.567.284l-.142.08c-.04.021-.102.041-.142.062l-.304.121c-.264.101-.547.223-.81.324-.143.06-.264.101-.406.162-.142.06-.264.101-.405.162-.02 0-.02.02-.04.02h-.041a2.41 2.41 0 00-.406.162l-.202.081-.203.081c-.365.102-.73.223-1.094.345l-.163.06-.162.04-.344.102-.69.182c-.12.02-.222.061-.344.081l-.344.081-.69.142-.243.04c-.08.02-.162.041-.243.041l-.486.06c-.325.041-.649.102-.973.142-.284.041-.567.082-.871.102l-.365.04-.183.02h-.182l-.71.02-.364.021c-.122 0-.243.02-.365.02h-.486c.912-.06 1.824-.162 2.715-.283.345 0 .67 0 .933-.081zm25.029-20.512c.04.121-.122.263-.163.567-.02-.061-.06-.02-.1.04.04-.121.08-.222.12-.344-.04.182 0 .162.143-.263zm-.67 2.146a1.17 1.17 0 00-.141.365l-.162.405c-.04.06-.081.08-.102.06.122-.263.284-.546.183-.567.081-.202.162-.263.223-.263 0-.02 0-.02 0 0zm-.587 1.134s-.02 0 0 0v-.04.04zm-.122.263v.04a.434.434 0 01-.08.143c.02-.041.06-.122.08-.183zm.264-.688s0-.02.02-.02-.04.141-.101.263c.04-.081.06-.162.08-.243zm-4.418 7.431c-.04.06-.102.142-.162.243-.02 0-.04.02-.04.04.06-.1.141-.182.202-.283zm4.094-6.46l.202-.425a.7.7 0 00-.02.183c-.04.101-.081.182-.122.283-.04 0-.06 0-.06-.04zm1.54-4.393a.221.221 0 01-.04.08c.04-.12.06-.242.1-.364-.04.122-.08.264-.06.284zm.344-1.478c.02 0 .02 0 0 0 .02 0 0 0 0 0zM48.355 64.715l-.202.081c.06-.04.121-.06.203-.08 0 0 0-.021 0 0zm-18.442.527c.081 0 .183.02.264.02-.061.02-.142 0-.264-.02zm16.152.121l.365-.142c-.06.061-.101.102-.405.203-.06 0-.02-.04.04-.06zm3.223-1.336c.243-.142.486-.264.75-.385.06-.04.141-.081.202-.122-.223.162-.79.385-.79.466a.942.942 0 00-.183.061c0-.02 0-.02.02-.02zm-20.003.951c.06.02.101.02.101.041.122.02.243.04.365.04.02.041 0 .041-.04.041h-.041c-.04 0-.06-.02-.101-.02a.602.602 0 00-.183-.04l-.101-.062a.609.609 0 01-.183-.04c-.02 0-.04-.02-.06-.02.06.02.141.04.243.06zm-1.622-.222c.02.04.082.06.122.101h-.04c-.102-.02-.203-.06-.304-.081a.459.459 0 00-.102-.081c.122.02.223.04.325.06zm17.612.91c0-.02-.02-.02-.02-.02l.121-.04c0 .02.04 0 .142-.02-.486.182-.648.304-1.175.486.08-.101.567-.263.932-.405zm1.804-.323c.02-.02.04-.06.08-.081.021-.02.062-.02.082-.04l.162-.061c-.04.08-.223.182-.162.243-.122.04-.183 0-.162-.061zm4.864-2.794l.182-.102c.02-.02.04-.02.081-.04-.02.04-.06.08-.08.101a.415.415 0 01-.183.04zm2.026-.77c.102.06-.304.344-.567.567-.183.081.365-.385.567-.567zm1.804-.628c0 .081-.405.365-.466.466-.304.203.08-.202.466-.466zm.466-1.275l-.04-.061c.141-.101.121-.02.162-.02-.183.182-.426.465-.67.607.062-.162.305-.263.548-.526zm.02.628c.203-.102.629-.446 1.034-.81-.06.08-.06.141-.04.161-.183.041-.933.75-.994.649zm5.574-12.413l-.122.202-.426.79c-.06.081-.121.142-.162.223a.343.343 0 01.122-.122c0 .02-.02.02-.02.04-.163.305-.345.608-.527.912-.081.142-.183.304-.264.446l-.304.445-.04.04-.02.02-.284.385-.081.102v-.02c-.446.688-.892 1.376-1.46 2.004-.1.122-.202.243-.243.344v.02c-.08.102-.162.183-.243.284-.081.101-.162.203-.243.284l-.142.162-.243.303c-.04.04-.081.102-.122.142l-.06.06c.02-.02.04-.04.04-.06.02-.04.04-.081.06-.101.041-.061.062-.101.062-.122-.061.081-.122.142-.183.223-.06.06-.101.121-.162.182-.101.122-.182.223-.264.324.041-.02.082-.08.142-.121a8.02 8.02 0 01-.587.587.536.536 0 01-.122.101 9.644 9.644 0 01-.486.446l-.426.405-.101.1-.122.102-.223.182-.446.385-.223.182-.121.102-.122.08c-.304.244-.628.466-.932.71l-.122.08-.121.081-.243.162-.466.345a.283.283 0 01-.081.06c-.061.02-.122.061-.183.102-.06.06-.122.1-.182.161l-.852.547-.222.142-.102.06-.101.062-.446.242-.446.243c-.142.081-.304.162-.446.243l-.912.446s-.142.06-.364.162c-.223.101-.507.223-.852.364a5.51 5.51 0 00-.506.223c-.183.06-.365.142-.527.203-.345.121-.669.243-.953.324.061-.02.122-.061.183-.081l.02-.02-.122.04-.121.04c-2.372.81-4.824 1.296-7.317 1.54-.121.04-.405.04-.547.06-1.114.06-2.229.06-3.344 0h.04a6.127 6.127 0 00-.627-.04h-.142c-.73-.061-1.46-.142-2.189-.243 0 0 0-.02-.02-.02-.183-.061-.446-.102-.69-.142-1.053-.203-2.127-.426-3.16-.73.445.102.89.183 1.337.243.08.02.182.041.263.061a.375.375 0 00-.142-.04 42.12 42.12 0 001.683.223c.141.02.263.04.405.06l.912.142c.08.02.162.02.223.04l.223.02.466.041.608.061.142.02h.142l.303.02c.183 0 .345.02.527.02.02 0 .04-.02.061-.02h.02c.163 0 .325.02.487.02h.486c.325 0 .628 0 .912.021.547.02.953-.02 1.399-.081h.243l1.074-.101.263-.02.264-.041.547-.081c.73-.081 1.439-.243 2.148-.385 1.297-.303 2.574-.648 3.81-1.134a29.197 29.197 0 001.845-.749c.08-.04.162-.06.223-.101l.222-.101.446-.223c.304-.142.608-.284.892-.446l.83-.445.204-.121.202-.122.406-.243.405-.243c.142-.081.263-.162.385-.263l.77-.527c.081-.04.162-.08.223-.162.162-.141.344-.263.527-.405a.95.95 0 00.243-.182c.06-.06.122-.121.183-.162.1-.08.202-.142.303-.223l.284-.243.568-.465c.101-.081.182-.162.283-.243l.264-.243.547-.507c.345-.323.669-.668.993-1.012a.523.523 0 01.122-.101c.04-.04.08-.061.101-.101l.101-.102a3.98 3.98 0 01.406-.405c-.02 0-.02-.04 0-.08.06-.061.121-.142.182-.203-.02.06-.182.223-.08.223.1-.142.222-.284.344-.426.121-.141.243-.283.344-.405.183-.202.324-.384.365-.486 0 .02-.02.02-.04.04-.02-.02.04-.08.04-.12-.122.182-.182.222-.223.242.02-.02.02-.04.04-.06l.122-.142s0-.02.02-.02c0 0 .02-.02.02-.04 0 0 0-.021.021-.041.162-.203.304-.405.466-.608l.486-.648c.163-.223.305-.445.446-.668l.122-.182c-.02.182-.264.445-.385.668.101-.06.304-.364.486-.668a1.7 1.7 0 00.223-.425.867.867 0 00.061-.203c.122-.223.243-.425.385-.648l.081-.142c-.02.061-.04.142-.06.203a2.66 2.66 0 00.303-.506c.081-.162.183-.324.264-.385.101-.263.202-.466.304-.668.02-.04.04-.102.06-.142.02-.04.041-.081.061-.142a.538.538 0 00.061-.243l.04-.08c.062-.061.163-.142.224-.203v.04l.02-.02c-.081.142-.142.284-.203.425-.02.142-.08.243-.121.385zM6.263 16.989l.04-.04c-.02.04-.04.06-.061.1-.02 0-.02 0 .02-.06zm10.801 42.968c-.223-.162-.446-.345-.669-.507.304.183.588.365.892.547-.04 0 0 .04.061.081.06.04.162.101.182.142l.568.385.284.182.141.101.142.081c.385.243.79.466 1.176.709.263.142.527.263.79.405l.385.202c.122.081.264.122.406.183.526.243 1.053.526 1.6.729l.811.344.831.303c.122.041.243.102.365.142l.182.061.183.06c.263.082.506.163.77.244.04.02.101.02.142.04a1.125 1.125 0 00-.345-.06c-.02 0-.02 0-.02.02l-.324-.102-.385-.121c-.02 0-.04-.02-.081-.02.08.02.182.04.243.04a6.73 6.73 0 00-.487-.162c-.121-.04-.263-.06-.445-.142v.02l-.67-.242-.688-.284c-.04-.02-.102-.04-.142-.06-.142-.061-.284-.102-.426-.162-.142-.061-.263-.122-.405-.183l-.405-.182c-.142-.06-.284-.142-.426-.202a.442.442 0 00-.101-.061 3.312 3.312 0 00-.264-.122 39.373 39.373 0 01-3.87-2.41zm10.458 6.439s-.02 0-.02-.02c.02 0 .06.02.08.02h-.06zm16.07-.263l.244-.061h.02c.081 0 .203 0-.02.08.162-.12-.425.102-.385.021.02 0 .02 0 .04-.02l.102-.02zm2.818.02c0 .06-.182.182-.588.324.203-.122.122-.182.588-.324zm-1.885.526c-.121.04-.223.061-.304.102-.101.02-.182.04-.263.06-.163.02-.304.061-.446.081.08-.08.425-.162.608-.263-.162 0-.507.101-.527.04.06-.06.121-.04.142 0 .06-.02.162-.06.263-.08.102-.02.223-.061.365-.102.06.061.203.04.162.162zm-.466-.202c-.426.08-.344.06-.648.101.243-.08.486-.162.729-.263.324-.04-.243.121-.081.162zm.385-.04l-.02-.102c.263-.101.243-.04.263 0l.365-.121c.04.06-.426.162-.608.222zm.669.425c-.223 0 .75-.284.223-.162.02-.04.223-.081.365-.142-.02.02.06 0 .142-.02-.102.08-.345.182-.73.324zm.466-.324c-.162.141-.365.08-.507.121.203-.08.304-.142.426-.223.122-.08.263-.141.527-.243-.04.04-.182.142-.284.223-.121.06-.223.122-.162.122zm1.925-.466c-.101.04-.202.06-.324.101a5.28 5.28 0 00-.912.304c-.243 0 .547-.324-.04-.122.06-.04.121-.08.1-.121a.638.638 0 00.244-.081c.162-.06.122.02.162.04-.203.081-.324.142-.365.183.142-.02.385-.122.649-.223.263-.101.527-.203.73-.243-.082.08-.163.121-.244.162zm-.182-.284c-.06-.02 0-.08.284-.182-.061.101.243-.02.182.081-.223.081-.405.122-.466.101zm2.189-.425c-.102.02-.284.081-.446.162-.183.06-.345.122-.446.122.182-.102.324-.142.486-.203.162-.06.345-.142.608-.263.02.04-.304.182-.202.182zm-.426-.303l.345-.163c-.142.102-.02.142-.183.243-.304.102.081-.141-.162-.08zm1.682-.183c-.284.183-.425.102-.486.223-.162.081-.122 0-.162-.02.162-.02.547-.304.223-.162.08-.081.162-.102.263-.122a.956.956 0 00.345-.142c-.122.082-.082.122-.183.223zm1.56-.89c-.12.08-.242.141-.324.181-.08.041-.1.081-.06.081-.203.122-.264.102-.487.244 0-.041.203-.142.345-.223.202-.122.243-.182.182-.203.061-.04.122-.06.183-.101.06-.02.121-.06.162-.081.101-.04.162-.081.101-.121.162-.082.122 0 .162.02.04.02.223-.102.345-.182-.04.08-.345.242-.608.384zm.467-.628c.547-.324.162-.122.182-.223.304-.182.183-.182.304-.263.122-.04.406-.264.365-.162-.284.141-.345.222-.345.303-.02.081.02.142-.08.243-.122.081-.082.02-.02-.02-.082-.02-.467.243-.406.122zm1.337-1.114c-.344.182-.83.405-.08-.122-.224.223.08.02.08.122zm.386.101c-.102.203-.284.425-.872.83.385-.405.182-.283.871-.83zm-.588 1.033c.142-.162.668-.466.79-.506 0 .02-.648.405-.79.506zm1.114-1.195c-.121.081-.283.203-.304.263.122-.02.284-.08.325-.02-.527.344-.426.324-.284.304-.122.06-.142.04-.365.182.081-.08.081-.121.06-.162l.325-.223c-.121.02-.223 0-.243-.1.101-.041.324-.183.324-.224.122-.08.102-.02.243-.121.122-.06.041 0-.08.101zm-1.358.142c-.162.101-.324.223-.466.324-.162.101-.304.182-.405.243 0-.06.162-.142.304-.243.081-.04.142-.101.203-.142.06-.04.101-.08.101-.121.345-.183.324-.183.872-.567-.02.08-.284.303-.608.506zm.852-.446c-.061 0-.081-.06 0-.162.142-.1.182-.08.344-.202-.344.364.162.02 0 .243-.08.04-.142.08-.203.101-.06 0-.1.02-.141.02zm1.702-.121c.06-.06.06-.101.101-.162.041-.06.102-.122.264-.243.02.06.06.101.284-.081-.142.202-.304.182-.649.486zm.122-.304c-.04 0 .06-.08.121-.142.061-.06.102-.1-.06.02.06-.1.324-.344.506-.445-.162.162-.203.284-.567.567zm1.155-.89c-.264.181-.223.12-.527.424-.081-.02.182-.222.365-.404.08-.061.142-.061.162-.02zm-.79-.122c-.082.06-.082.08-.082.101a6.383 6.383 0 00-.526.405c.1-.182.202-.203.567-.547l.04.04zm.81-.284c-.122.102-.263.183-.243.122l.203-.162c.06-.061.121-.122.202-.182.04 0-.04.121-.162.222zm1.48-.951c-.284.182-.487.445-.811.708.223-.243.405-.506-.04-.04.02-.101.182-.223.364-.365s.385-.283.507-.486c.06.02.04.081-.02.183zm-.264-.223c-.122.121-.243.182-.223.101.06-.06.101-.101.162-.142.04-.04.081-.06.122-.1.081-.062.142-.102.223-.203-.02.06-.162.222-.284.344zm1.763-.85c-.04.04-.101.1-.142.161-.06.061-.121.122-.182.162-.02-.02.04-.1.122-.182.08-.101.182-.223.304-.344.02.02-.02.101-.102.202zm1.966-2.653c-.04.08-.122.182-.182.263-.142.182-.284.324-.243.223a3.18 3.18 0 01.283-.345c.081-.08.142-.161.243-.283-.02.02-.04.06-.1.142zm1.763-2.41c.102-.121.162-.202.223-.263.061-.06.122-.142.223-.263-.101.283-.385.546-.446.526zm-8.167-46.47c-.04.04-.466-.345-.669-.467.081-.02.446.284.669.466zm-19.172-4.72c-.122.06-.324-.04-.648-.04.364-.102.648-.243.911-.304.446.162-.891.182-.263.344zm.69-.466c.242.081.1.081-.123.081s-.547-.04-.648-.08c.182-.061.75.08.77 0zm-1.805-.162a.61.61 0 00.365-.04c.243.02.79 0 .649.08-.406-.02-.629-.02-.77 0-.082 0-.142.021-.203.021-.061.02-.122.02-.203.04-.466-.02-.02-.06-.121-.141.101 0 .202.02.283.04zm1.723-.83c.101.02.182.04.162.061-.243 0-.446-.101-.527-.04-.243-.02-.02-.041 0-.082.101.041.264.041.365.061z" fill="#E30D16"/><path d="M30.014 66.922c0-.02-.02-.04-.04-.04l.04.04zM66.19 50.48c-.122.223-.203.405-.061.223-.04 0 .121-.243.263-.466.122-.223.223-.425.122-.263-.04 0-.203.283-.324.506zm-1.013 1.924c-.122.182-.223.364-.305.506a3.199 3.199 0 01-.243.385c.264-.405-.283.506.061.04l.06-.121c.021-.04.062-.102.082-.142.06-.101.122-.203.182-.284.122-.182.203-.303.122-.283.142-.142.365-.486.547-.79.061-.263.304-.547.324-.77-.162.304-.324.568-.446.81-.141.244-.263.466-.385.649zm-6.607.688c0 .02 0 .04-.02.061.02-.04.02-.06.02-.06zm-3.182 3.585c.06-.04.263-.203.425-.344.162-.142.284-.264.183-.203-.244.284-.446.284-.608.547zm-9.262 10.226c-.385.182-.425.04-.506.141.02.04.202-.02.405-.08.203-.061.425-.143.507-.163-.081 0 .1-.162-.163-.06 0 .02-.202.1-.243.1-.02-.02-.02-.02-.142.021-.04.06.142 0 .142.04zm-1.763.667c.203 0 .527-.12.912-.263.203-.08.406-.162.608-.223.061-.02.102-.04.162-.06.041-.02.081-.02.102-.041-.345.101-.71.162-1.074.243-.061.061.1.122-.71.345zm2.148-.729c-.101.04-.203.061-.304.102-.02 0-.02.02-.04.02.121-.04.243-.081.344-.122zM41.91 68.26c.264-.061.528-.102.791-.162-.04-.122.871-.244 1.277-.426-.628.101-.568.02-.568-.081-.364.121-.425.223.04.162-.425.081-.77.284-1.033.243 0-.04.365-.08.385-.142-.08.02-.202.061-.303.081l-.365.061c-.223.04-.446.081-.507.122.871-.142.142.08.284.142zm.548.87c-.365.06-.77.12-1.297.222-.06.162-.81.183-1.358.264.345 0 .77-.04 1.216-.102.102-.02.223-.02.325-.04.1-.02.222-.04.324-.061.203-.04.425-.081.608-.122-.102-.04-.953.183-.973.102.405-.081.79-.142 1.155-.183.183-.02.365-.04.527-.08.162-.041.324-.082.486-.143-.162.04-.324.061-.486.102a1.57 1.57 0 00-.527.04zm-.831-1.66c.203-.102.426-.142.629-.183.101-.02.202-.04.283-.06.081-.021.163-.041.223-.082-.121.02-.223.04-.304.04-.08 0-.142 0-.223-.02-.142 0-.324 0-.668.061-.02.142-.284.183.06.243zm.811-.487c.162-.08.08-.08-.081-.06-.162.02-.406.06-.588.08.122.082-.486.061-.486.183.466-.04.608-.122 1.013-.223.04 0 0 .04.142.02zm-1.298 1.519c-.02.04-.1.06-.182.08-.08.021-.202.041-.324.062a4.54 4.54 0 01-.689.06c0 .061-.486.122-.649.162-.283-.08.608-.101.264-.101-.101 0-.264.04-.426.04-.142.02-.263.02-.263-.04.121-.02.263-.04.405-.06.142-.021.284-.061.426-.082.284-.04.567-.08.77-.08 0-.041.284-.122.547-.183.264-.081.486-.142.345-.142a6.02 6.02 0 01-.446.102c-.203.04-.406.08-.466.121-.223 0-.507.06-.811.101-.162.02-.324.061-.507.081-.182.02-.364.02-.547.02.02.061.263.041-.122.102a4.143 4.143 0 00-.709 0c-.06 0-.142 0-.203.02h-.222c-.142 0-.304.02-.446.02-.304.02-.608.04-.892.061-.06 0-.142.02-.203.02-.06 0-.121 0-.182.02-.122.02-.243.02-.324.041a4.322 4.322 0 00-.79-.06h-.487c-.162 0-.345 0-.527-.021-.365 0-.73 0-1.094-.02a7.3 7.3 0 01-1.014-.122c.102.102.365.122-.02.142.567.081.547-.02.81-.02.244.101.386.162-.141.162.365.02.263.08.527.101.04-.06.506-.121.142-.203.527 0 .83.02 1.074.061.121.02.243.04.364.04.122 0 .264 0 .446-.02-.121.082.203.082.406.102.02-.04-.04-.081.142-.102.162.02.344.041.567.041.101 0 .223 0 .344-.02.122 0 .244-.02.365-.04.243-.021.507-.041.75-.061h.649c.02-.041-.142-.102.263-.122-.425.162.365 0 .669.02-.06.081-1.682.183-.932.183-.081.02-.162.02-.243.02h-.203c-.122 0-.203 0-.223.02.628 0-.04.081-.264.101h.588c.162 0 .325-.02.466-.04.284-.04.568-.061.973-.081.183-.04.02-.102.264-.122.121.081.79-.08.79-.141.365 0 .973-.203.952-.041a1.5 1.5 0 01.365-.06c.102 0 .142-.021.162-.041-.405.06.284-.102.244-.122-.264.102-.163-.02-.527.04z" fill="#E30D16"/><path d="M37.108 68.462c.081 0 .081.04.122.081.06.04.182.081.547.02.04-.06-.183-.02-.264-.04.345-.04.608-.06.912-.162v.08c.223-.04.385-.04.547-.06.081 0 .183-.02.284-.04a6.71 6.71 0 01.365-.061c-.081-.02.142-.162-.142-.122-.081.02-.182.02-.284.04-.101.02-.182.02-.284.041-.182.02-.385.061-.567.081-.182.02-.365.061-.527.061-.162.02-.304.02-.446.02-.08.061.385.061-.121.081-.02-.04-.122-.04-.142-.02zm1.277.788c.425-.04.547-.12.79-.182-.06.041.02.041.142.041.121-.02.284-.04.405-.06.02-.062-.182-.041-.466 0-.284.02-.628.08-.892.1.223.061-.425.183.02.244.345-.02.568-.061.67-.122-.203-.04-.548 0-.67-.02zm-1.055-1.397c-.526.041-2.431.203-.911.163.243-.081.952-.102.263-.02.507-.02.81-.041.912-.082-.243.04-.081-.04-.263-.06zm-.141 1.944c0 .081-.75.183-1.095.122.162-.02.325-.02.284-.06-.203 0-.426.04-.649.04-.223 0-.486 0-.73-.02.082 0 .163-.02 0-.02-.04.04-.364.04-.425.1.547.041.933.041 1.318.041.385-.02.81-.04 1.438-.04-.283-.041.122-.142-.141-.163zm-1.135-1.235c-.061 0-.183-.02-.325-.04a.975.975 0 00-.344 0h.263c-.385.04.264.121.406.04zm-.933.709c-.709 0 .264-.142-.405-.142-.223.081-.425.04-.669.061.183.02.163.061.264.081.324-.02 1.094.061.81 0zm-1.762-.749c-.406-.02-.79-.04-1.034.04.608.021.993.041 1.378.062.385.04.75.02 1.297-.02-.486.02-.121-.102-.527-.102a1.32 1.32 0 01-.506.04c-.203.02-.405 0-.608-.02zm.466-1.235c-.386-.02-1.176-.02-.892.02.142-.04.851.04.892-.02zm-.73 1.883c.263 0 1.033-.122.405-.101.081 0 .162.02.142.04-.182 0-.912.02-.547.061zm-9.019-1.538c-.142-.061-.243-.122-.04-.102a1.821 1.821 0 01-.385-.162c-.223 0 .344.223.202.264-.304-.102-.486-.183-.628-.244-.122.061.527.244.608.325-.101-.02-.263-.081-.263-.061.304.122.364.122.425.101.061-.02.101-.04.385.061.02-.04-.162-.121-.304-.182zm-2.938-1.864c.08.04.142.08.202.1.061.021.122.062.183.082.121.04.203.081.304.101.182.061.304.081.425.162 0-.02.02-.04.02-.06-.465-.183-.709-.264-.87-.304.08.04.141.06.12.08a.749.749 0 01-.222-.1 2.794 2.794 0 00-.162-.061zm-1.541-.506a15.362 15.362 0 00-1.094-.527c.527.264.365.264.81.466.224.142-.141.081.305.284.142.02-.325-.243.04-.081.162.08.101.08.223.162-.162-.162.547.141.527.162 0 .02 0 .04.122.08-.061-.121-.487-.344-.933-.546zm-.12.568c.141.06.324.161.486.222 0-.04-.183-.162-.365-.263-.04-.02-.101-.061-.142-.081-.04-.02-.08-.061-.121-.081-.082-.04-.142-.081-.163-.081.081.06.122.08.102.1-.385-.222-.77-.424-1.155-.607-.041-.02-.102-.04-.142-.06-.04-.02-.081-.04-.142-.081-.081-.04-.183-.102-.264-.142-.162-.081-.324-.182-.486-.263.182.121.345.222.507.324.162.1.304.202.466.283.324.162.648.324 1.054.486-.142-.04-.162-.02.08.122.041.02.143.06.285.121zm-2.413-2.472c-.121-.121-.304-.243-.385-.243.203.142.223.183.244.243.02.061.04.102.243.224.101.02.02-.102-.102-.224zm-.101.588c.121 0-.162-.284-.406-.365.406.264-.283-.081.082.142.02 0 .04-.02.121.06-.02.021 0 .041.203.163zm-3.344-1.519c.06.04.101.081.162.122.223.162.466.344.69.506.12.08.222.162.344.243.06.04.1.08.162.101.06.04.101.06.162.101-.06-.182.142-.222-.304-.506.02.122-.405-.142-.892-.445-.243-.162-.486-.344-.71-.486-.222-.162-.404-.284-.526-.324.122.08.284.202.466.344.101.081.182.142.284.223.06.04.101.08.162.121zm.121-.465l.143.141c.06.061.142.142.223.203.142.122.243.203.162.101-.183-.141-.02-.1-.183-.222 0 .04-.08-.02-.162-.102-.06-.081-.142-.162-.182-.121zm-.587-.122c.08.02.263.162.466.324.04.04.101.081.142.121.04.041.1.082.142.102.1.06.182.121.263.142-1.013-.83-2.047-1.479-2.067-1.762-.122 0-.284-.06-.629-.324-.06-.06-.121-.142-.202-.203-.04-.04-.061-.08-.102-.1-.04-.041-.08-.082-.1-.122-.143-.162-.305-.324-.487-.507-.162-.182-.345-.344-.527-.526-.183-.182-.365-.385-.547-.567a13.175 13.175 0 01-.527-.547.88.88 0 01-.122-.142c-.04-.04-.08-.08-.121-.141-.082-.081-.163-.182-.244-.263-.304-.345-.567-.628-.77-.85.385.445.77.93 1.135 1.335.385.405.75.79 1.074 1.074-.02 0-.02.04.02.101.041.06.122.142.224.243.263.223.526.466.79.729l.202.202c.061.061.142.122.203.183.142.121.264.263.405.384.142.122.284.264.426.385.081.06.142.122.223.182.081.061.142.122.223.182.304.243.628.466.952.689-.02-.06-.486-.243-.445-.324z" fill="#E30D16"/><path d="M13.031 61.314c.04 0 0-.061-.101-.142-.101-.101-.264-.223-.405-.365-.305-.263-.629-.526-.609-.486-.141-.121-.06-.121-.162-.222-.121-.081-.08.04-.344-.223-.02-.06.182.081.04-.06-.06.02-.304-.203-.405-.365-.02.06-.365-.284-.284-.081.142.121.284.243.406.364l.182.182c.06.061.122.102.182.162.223.203.426.365.568.426-.203-.081.486.506.486.465-.182-.141-.405-.425-.162-.222.081.08.162.182.264.263.08.08.182.162.263.243.183.162.385.344.69.587-.122-.243.141.04.303.06-.506-.384-.466-.202-.912-.586zm-4.478-5.832a14.61 14.61 0 01-.73-.81c-.06-.081-.122-.142-.182-.223a1.665 1.665 0 01-.163-.243c-.1-.162-.223-.324-.324-.486-.466-.648-.871-1.377-1.358-2.106-.121.061.284.567.446.81.101.162.183.304.284.466.04.08.101.162.142.243.06.08.101.162.162.223.203.303.425.607.628.91.101.163.203.305.324.446.102.142.223.284.325.426.101.141.202.263.304.384l.304.365c-.102-.061-.183-.122-.244-.122-.06 0-.08.04-.04.182.101.041.405.365.71.73.141.182.303.344.405.485.121.142.202.243.223.284.141.02.385.223.04-.203 0 .02-.081-.02-.203-.121-.1-.101-.243-.263-.385-.425-.263-.324-.527-.648-.446-.648.244.142.973 1.113 1.318 1.478-.102-.263.142-.101-.183-.547.102.182-.02.101-.141 0-.122-.101-.244-.222-.163-.08-.08-.102-.121-.102-.182-.183-.04-.243-.75-.891-.567-.891-.061-.04-.142-.081-.223-.162-.081-.142.223.203-.081-.182zm-.831 1.174a2.075 2.075 0 00-.203-.243c-.263-.324-.567-.648-.75-.77.386.547.71.669.75.972.203.243.284.284.547.608a1.473 1.473 0 00-.182-.364 2.592 2.592 0 01-.162-.203zm-1.014-1.539c-.121-.182-.223-.364-.142-.182l.304.425c.102.142.183.284.264.405.182.243.344.466.506.587-.263-.384-.385-.506-.73-.992.062.142-.06-.04-.202-.243z" fill="#E30D16"/><path d="M6.688 55.178c-.223-.304-.446-.628-.487-.79-.182-.121-.121-.182-.202-.344-.203-.223-.061.06-.02.182-.183-.283-.365-.546-.426-.546.304.405.628.951.506.648.102.162.102.222.203.364.203.223-.04-.182.142.081.223.284.101.243.182.385.183.263.284.304.507.648.02-.081-.182-.344-.405-.628zM5.067 52.83c-.081-.142-.04-.142-.02-.163-.183-.283-.183-.344-.163-.364.02-.02.04-.04-.08-.284.08.162.1.081.182.203.101.162.02.121.101.263.04 0 .142.162.243.344-.121-.445.183.081-.142-.546-.06-.061-.101-.142-.162-.223-.04-.081-.101-.162-.142-.223a12.541 12.541 0 01-.263-.445c-.162-.284-.324-.507-.426-.567.649 1.174.548 1.397.507 1.437.122.122.263.588.365.567zM3.81 50.4c-.162-.386-.669-1.48-.77-1.459.06.142.142.263.203.385.06.121.121.223.142.364.04-.263.263.567.425.71zm-.365-1.337c-.02.061-.06.122.142.527-.04-.182.243.284.081-.04-.08-.081-.04-.304-.223-.486zm-1.662-4.009c-.04.101-.101-.02-.182-.365.08-.04.02-.162.142-.04-.02-.162-.122-.466-.203-.79-.121-.182-.284-.668-.425-1.235-.02-.081-.041-.142-.061-.223-.02-.08-.04-.142-.04-.223-.021-.141-.062-.303-.082-.465-.06-.304-.122-.608-.162-.891-.101-.142.06.425-.04.283-.02-.101-.061-.263-.082-.263.142.587.183.992.284 1.478.04.02.081-.06.122.122.04.344.142.445.142.668-.061-.223-.102-.324-.142-.385.04.182.02.223.06.405.061.142.122.344.183.567.02.122.06.223.101.344.02.061.04.122.04.183l.062.182c.141.466.304.911.425 1.053-.02-.081-.06-.162-.08-.264-.041 0-.042-.02-.062-.141zm-.709-6.379c0 .102 0 .223.02.365.02.283.082.627.122.972.02.182.06.344.081.506.04.162.06.324.101.446.061.263.122.465.142.526.061.263-.02.182.061.526.02.081.06.183.101.284.04.101.081.202.122.283.081.162.142.223.142.04-.04.041-.101-.08-.162-.364.08-.08-.061-.384.02-.405 0 .324.223.912.182.628-.02.04-.04-.08-.06-.223-.02-.141-.04-.283-.02-.303.02.1.04.162.06.243.02.08.04.141.061.202.04.122.081.263.142.446-.04.182.02.405.101.648.04.121.06.263.101.384.02.142.041.264.041.405.06.04.162.345.203.223-.102-.364-.183-.729-.061-.668a31.519 31.519 0 01-.466-1.742 9.632 9.632 0 01-.162-1.336c-.122-.385 0 .364-.102.02 0-.08 0-.162-.02-.263-.02-.081-.04-.182-.081-.263-.06-.183-.101-.365-.081-.527.04.304.08.486.121.506-.08-.445-.182-1.073-.263-1.295.02.162-.02.141-.06.141.12.648.02.628-.062.284.061.283.163.688.244 1.053.101.364.182.709.162.89-.04-.242-.102-.384-.142-.506l-.06-.182a2.404 2.404 0 01-.062-.202c.02.101.04.222.04.303.021.081 0 .122-.02.102-.08-.264-.1-.446-.141-.588a.773.773 0 00-.122-.324c.142-.283-.162-1.052-.223-1.842-.04-.506-.08-.972-.08-1.417a7.751 7.751 0 00-.143-1.236c.061-.303.061-.931.061-1.62 0-.344.02-.708.04-1.032.02-.162.02-.344.041-.486a.74.74 0 01.04-.223c.021-.081.02-.142.041-.203-.121.082.04-.263-.02-.263-.081.365.02-.931-.101-.405 0 .223 0 .446-.02.648 0 .102-.021.203-.041.284-.02.101-.02.182-.04.243.04.283.04.607.02.931 0 .162-.02.324-.02.486 0 .162-.021.324-.021.486-.02.648-.06 1.255.04 1.721 0 .243.02.466.02.689v.648c.041.121.102.121.143.384-.102.142.02.345.08.79-.02.02-.04.081-.04.182z" fill="#E30D16"/><path d="M2.31 41.004a2.386 2.386 0 00-.08-.365l-.061-.364a74.27 74.27 0 01-.244-1.62c-.02.202.02.486.061.83.02.162.06.364.081.547.04.182.061.384.102.567.08.364.162.729.222 1.032.061.304.082.527.061.628.122.304.223.709.325 1.053.04.182.1.344.141.486a.99.99 0 00.183.304l-.102-.284c-.04-.101-.06-.202-.08-.283-.061-.203-.102-.385-.163-.587-.101-.405-.223-.81-.304-1.256a6.886 6.886 0 00-.142-.688zM.912 39.506c.061.404.102.728 0 .627.02.243.04.385.081.527.04.142.061.283.102.526.1.04.202.263.324.75-.04.06-.02.202.02.364.04.162.101.364.142.567.06-.142.263.688.284.89 0-.303-.142-.83-.284-1.396-.122-.567-.284-1.175-.345-1.62 0 .324-.202-.182-.182-.507.02-.02.06.183.081.304.02.061.02.122.04.122v-.162c-.121-.162.061-.04 0-.264a4.97 4.97 0 01-.12-.728 86.87 86.87 0 01-.143-.972c-.04 0-.06-.061-.08-.122-.021.122 0 .304.02.506 0 .162.04.385.06.588zm1.054 3.684c-.041 0-.061.021-.102.021.04.183.081.284.122.385.02 0 .04 0 .04-.02-.101-.324-.02-.487-.142-.649l.082.264zM.263 38.715c.02.102.02.183.04.284.021.08.021.182.041.263.02.182.04.344.061.526.04.345.081.669.182.952-.06-.405-.121-.79-.162-1.134-.02-.344-.101-.648-.162-.89zm-.162-6.762c.02-.243.061-.466.122-.587-.02.364.101-.223.101.141.02-.364 0-.972-.101-.425.02-.263-.02-.344.02-.688.02.02.04-.02.06-.081.021-.061.041-.142.062-.183-.04.142-.061.324-.061.446 0 .101.02.142.06-.02 0-.183.102-.527.061-.81-.02.162-.06.141-.08.121-.102.385-.183 1.093-.244 1.701-.02.142-.02.284-.04.425v.344c0 .183.02.304.04.264a3.43 3.43 0 010-.648zm1.237-3.564c.06.02.04.223.04.364 0-.02 0-.04.02-.06.02-.142.061-.284.102-.446.06-.304.142-.648.203-1.012.08-.345.162-.71.243-1.033.08-.344.142-.648.203-.911.141-.061.222-.77.364-1.013-.08.081-.121.284-.283.608-.041.162-.102.405-.183.688-.06.284-.162.628-.243.952-.04.162-.101.344-.142.506-.04.162-.08.344-.121.506-.082.324-.163.628-.203.85zm.04.405v-.04c0 .02 0 .04-.02.06l.02-.02zm-.04.668c-.061.02-.041-.222-.041-.405.02-.08.04-.162.04-.242-.08.182-.222.951-.243 1.154.102 0 .183-.426.244-.507zm-.973.121c.02-.141.04-.384.06-.627.021-.122.041-.243.061-.345a.683.683 0 01.082-.243c-.122.507.141-.08.182-.1-.101-.163.162-.851.162-1.216-.101.061-.203.466-.304.911.04.223.122-.587.183-.384-.061.324-.122.546-.183.668.02-.101.02-.162-.02-.142-.04.142-.081.284-.102.425-.04.142-.06.304-.08.446-.061.283-.082.526-.041.607zm.972-5.386c-.162.486.203-.77-.02-.162.04.06-.162.587-.142.689.04-.082.223-.486.162-.527zm1.804-.687c.101-.203.182-.406.263-.608.082-.203.142-.405.223-.608.142-.405.284-.83.467-1.235-.081.101-.122-.06-.264.324-.162.385.183-.283.02.142-.101.182-.182.202-.364.709.121-.122.1-.041.02.283-.102.203-.264.729-.365.85-.04 0-.02-.08-.02-.141-.385.83-.507 1.64-.304 1.296.06-.324-.02-.102 0-.284.02-.08.04-.162.08-.243.062-.08.041.02.041.081 0 .06-.02.122.04-.04-.02-.102.143-.223.224-.486 0-.061-.102.162-.061-.04zm.041-1.115c0-.243.121-.345.142-.365.02-.243.283-.81.304-.729-.041-.283.668-1.356.526-1.377-.162.345-.324.689-.466 1.033-.141.344-.283.688-.425 1.012-.061.162-.142.345-.203.507-.06.162-.121.344-.182.506a9.95 9.95 0 00-.304 1.033c.223-.588.365-1.195.608-1.62zm-.71-.404c-.02.061-.04.142.02 0 0-.162.224-.466.224-.648-.163.385-.244.405-.385.73.02.04.1-.122.141-.082zm4.844-7.472c.406-.405-.1.465.406-.203-.04-.04-.162-.02.04-.304.04-.04.102-.1.162-.182.061-.08.142-.182.223-.263.142-.182.244-.324.162-.304-.202.203-.344.385-.486.567-.142.203-.263.385-.405.587-.02 0-.04 0-.102.102zm10.701 50.096c.02 0 .101.02.182.04.162.061.365.102.102-.08-.304-.163-.568-.305-.71-.365.203.121.284.182.325.243-.304-.122-.507-.365-.608-.304 0 .04.445.243.547.385-.365-.183-.446-.284-.71-.365.325.183.912.568 1.054.588-.162-.101-.202-.142-.182-.142zM8.533 56.92c-.162-.183-.325-.365-.466-.527-.142-.162-.284-.304-.385-.405-.102-.142-.142-.243-.102-.263-.121-.142-.283-.345-.446-.507-.08-.08-.141-.182-.202-.243l-.162-.162c.04.041.08.081.1.142.041.04.082.081.102.122a1.3 1.3 0 01.203.263c.121.162.243.324.344.486.102.162.183.304.264.445.08.142.142.243.182.365.122.04.142.142.365.405 0-.081.162.06.324.263.081.101.183.203.264.304.08.101.142.162.162.223a.955.955 0 01-.203-.203c-.06-.06-.121-.121-.121-.06l.263.263c.081.08.182.162.264.243.182.162.344.324.486.465.304.304.567.567.69.81-.123-.101-.264-.263-.305-.263.223.243.466.466.69.648-.406-.405.02-.02.04-.06-.406-.345-.244-.325-.203-.365-.324-.284-.203-.264-.345-.405-.141-.081-.385-.345-.526-.446-.082-.263-.568-.688-.568-.587a8.327 8.327 0 00-.324-.385c-.081-.202-.243-.384-.385-.567z" fill="#E30D16"/><path d="M47.437 30.901l-.03-.21-.033.008a5.625 5.625 0 10-5.5 6.801c.28 0 .547-.042.813-.081-.086.29-.175.585-.317.85-.143.385-.365.718-.586 1.055-.185.364-.512.61-.752.921-.25.303-.593.504-.865.755-.266.263-.615.394-.892.579-.29.166-.543.35-.813.437l-.673.278-.593.246.605 2.424.746-.18c.24-.06.53-.13.862-.214.338-.063.7-.234 1.102-.39.396-.179.858-.297 1.285-.584.43-.272.926-.5 1.364-.865.424-.376.935-.702 1.312-1.18.413-.447.82-.917 1.137-1.452.366-.51.615-1.07.877-1.624.238-.554.429-1.12.585-1.67.296-1.102.429-2.15.48-3.046a15.57 15.57 0 00-.035-2.184 8.762 8.762 0 00-.079-.674zm-13.75 0l-.03-.21-.033.008a5.625 5.625 0 10-5.5 6.801c.28 0 .547-.042.813-.081-.086.29-.175.585-.317.85-.143.385-.365.718-.586 1.055-.185.364-.512.61-.752.921-.25.303-.593.504-.865.755-.266.263-.615.394-.892.579-.29.166-.543.35-.813.437l-.673.278c-.377.154-.592.244-.592.244l.605 2.423.747-.18c.238-.06.53-.13.86-.213.34-.063.7-.234 1.103-.39.397-.18.858-.298 1.285-.584.43-.273.927-.5 1.364-.865.424-.377.935-.703 1.313-1.18.412-.448.82-.918 1.136-1.453.366-.51.615-1.07.877-1.623.238-.554.43-1.12.585-1.67.297-1.103.43-2.15.48-3.047.043-.897.018-1.644-.035-2.183a9.407 9.407 0 00-.08-.672z" fill="#fff"/></svg>