<svg width="50" height="35" viewBox="0 0 50 35" fill="none" xmlns="http://www.w3.org/2000/svg"><path d="M12.422 16.172l-3.985-.86c-1.093-.234-2.109.626-2.109 1.72v1.64c0 1.328 1.016 1.64 2.266 1.64h4.375c.86 0 1.719-.156 1.719-1.093v-.235c0-1.406-.938-2.578-2.266-2.812zm-4.61 2.5v-1.719c0-.156.157-.312.313-.234l3.984.86c.547.155.938.624 1.016 1.171-2.734 0-5.078 0-5.313-.078z" fill="#FFC000"/><path d="M47.89 7.813l-5.624-2.657c-1.875-.86-3.907-1.172-5.86-.781l-.86-1.719C34.923 1.094 33.439 0 31.72 0H13.437A4.08 4.08 0 009.61 2.578L6.563 8.906a3.816 3.816 0 00-3.125-1.64H2.109A2.1 2.1 0 000 9.375v.86a2.1 2.1 0 002.11 2.109h2.03c-.859 1.094-1.25 2.5-1.25 3.906v4.688c0 1.796.626 3.515 1.876 5v3.515a2.8 2.8 0 002.812 2.813h2.89a2.8 2.8 0 002.813-2.813v-1.406h15.625c3.438 4.687 8.828 6.719 8.907 6.719.156.078.312.078.546 0C38.437 34.688 50 30.469 50 19.922v-8.75c0-1.406-.86-2.735-2.11-3.36zm-36.874-4.61c.39-1.015 1.328-1.64 2.421-1.64H31.72c1.093 0 2.031.625 2.5 1.718l.703 1.485c-.313.078-.625.234-.938.39L28.36 7.813c-1.25.625-2.109 1.875-2.109 3.28H7.11c.312-.468 0 .313 3.906-7.89zm-9.454 7.031v-.859c0-.313.235-.547.547-.547h1.329c1.562 0 2.109 1.406 2.265 1.64-.078.157-.156.235-.312.391H2.109c-.312-.078-.546-.312-.546-.625zM11.72 29.375c0 .703-.547 1.25-1.25 1.25H7.5c-.703.078-1.25-.547-1.25-1.25v-2.266c.938.547 2.031.86 3.125.86h2.344v1.406zm-2.422-2.89c-2.813 0-5-2.735-5-5.626v-4.687c0-1.328.547-2.578 1.484-3.594H26.25v6.875h-8.594a.783.783 0 00-.781.781c0 .47.313.782.781.782h8.672c.078.547.078 1.015.235 1.484h-8.907a.783.783 0 00-.781.781c0 .469.313.782.781.782h9.219c.313.859.625 1.718 1.094 2.421H9.297zm39.14-6.563c0 8.672-8.75 12.656-10.312 13.281-5.625-2.266-10.313-7.11-10.313-13.281v-8.75c0-.86.47-1.563 1.25-1.953l5.625-2.656c2.266-1.094 4.766-1.094 7.032 0l5.625 2.656c.703.39 1.25 1.094 1.25 1.953v8.75h-.157z" fill="#FFC000"/><path d="M45.781 11.016l-5.156-2.422c-1.563-.781-3.516-.781-5.078 0l-5.078 2.422c-.235.156-.469.39-.469.703v8.203c0 6.172 5.39 9.531 7.734 10.703.235.078.47.078.703 0 2.344-1.172 7.735-4.531 7.735-10.703v-8.203a.82.82 0 00-.39-.703zm-1.093 8.906c0 5-4.376 7.969-6.563 9.14-2.578-1.406-6.563-4.218-6.563-9.14v-7.735l4.688-2.265a4.49 4.49 0 013.75 0l4.688 2.265v7.735z" fill="#FFC000"/><path d="M35.078 19.688c-.312-.235-.78-.157-1.093.156-.313.312-.157.781.156 1.093l2.969 2.266c.312.235.781.156 1.093-.156l4.375-5.703c.235-.313.157-.782-.156-1.094-.312-.234-.781-.156-1.093.156l-3.907 5.078-2.343-1.797z" fill="#FFC000"/></svg>