<svg width="40" height="40" viewBox="0 0 40 40" fill="none" xmlns="http://www.w3.org/2000/svg"><path fill-rule="evenodd" clip-rule="evenodd" d="M28.416.207c-.195.196-.205.256-.205 1.21v1.005l-.589.233-.588.232-.684-.682c-.387-.385-.787-.707-.92-.74-.216-.052-.333.043-1.564 1.274-1.647 1.646-1.622 1.543-.619 2.558l.713.72-.201.458c-.11.252-.224.524-.25.605-.044.13-.174.147-1.083.147-.895 0-1.052.02-1.171.154-.12.133-.139.403-.139 2.048 0 2.075-.005 2.053.507 2.158.246.05.165.132-2.65 2.638l-2.906 2.586-.042-1.521c-.038-1.382-.056-1.533-.204-1.641-.131-.097-.64-.12-2.685-.12h-2.524l-.173.222c-.16.205-.173.331-.173 1.71v1.487l-.355.106a9.54 9.54 0 00-.975.393l-.62.288-1.056-1.052c-.939-.935-1.088-1.053-1.342-1.053-.26 0-.44.157-2.059 1.787-1.494 1.506-1.772 1.825-1.772 2.03 0 .2.19.439 1.053 1.317l1.054 1.072-.342.802c-.188.441-.366.898-.395 1.015l-.053.213H.346l-.173.221C.007 24.3 0 24.407 0 26.78v2.471l.205.207c.202.203.223.206 1.704.206h1.5l.1.315c.055.174.233.63.395 1.015l.295.7-1.056 1.066c-.877.884-1.056 1.108-1.056 1.315 0 .211.263.514 1.775 2.036C5.375 37.634 5.675 37.9 5.885 37.9c.205 0 .428-.18 1.306-1.063l1.058-1.063.696.296c.382.164.836.343 1.008.398l.313.1v1.51c0 1.492.003 1.513.205 1.717l.205.206h2.454c2.357 0 2.464-.007 2.675-.174l.22-.174V36.58l.355-.106c.195-.058.647-.24 1.005-.405l.65-.298 1.068 1.063c.878.875 1.111 1.064 1.312 1.064.206 0 .517-.275 2.017-1.786 1.613-1.626 1.773-1.812 1.773-2.073 0-.254-.12-.407-1.05-1.354l-1.05-1.068.247-.494c.135-.271.314-.711.397-.977l.15-.483h1.476c1.367 0 1.492-.013 1.696-.174l.22-.174v-2.541c0-2.06-.022-2.572-.118-2.704-.108-.148-.257-.167-1.63-.205l-1.511-.042 2.568-2.925c2.49-2.836 2.57-2.918 2.62-2.669.105.515.082.51 2.158.51 1.731 0 1.909-.014 2.035-.154.112-.125.138-.343.138-1.179 0-.902.017-1.032.146-1.075.08-.028.35-.141.6-.253l.455-.202.716.717c1.008 1.01.906 1.035 2.54-.623 1.568-1.588 1.542-1.471.546-2.485-.365-.37-.663-.711-.663-.756 0-.046.1-.319.22-.608l.222-.525h.993c.943 0 1.003-.01 1.198-.206.204-.206.205-.21.205-1.964 0-2.301.063-2.2-1.37-2.2h-1.024l-.222-.57c-.122-.312-.222-.603-.222-.645 0-.042.32-.405.71-.806.39-.402.709-.775.709-.83 0-.242-.313-.625-1.35-1.656-1.059-1.052-1.351-1.291-1.577-1.291-.054 0-.425.321-.824.714-.399.393-.76.715-.801.715-.042 0-.33-.101-.642-.224l-.565-.223V1.38c0-1.443.1-1.38-2.185-1.38-1.742 0-1.746 0-1.95.207zm2.966 1.883c0 1.037.112 1.295.606 1.4.15.032.586.205.97.385.386.18.8.327.921.327.164 0 .389-.171.884-.672l.664-.673.732.734.732.734-.668.675c-.49.496-.667.734-.667.894 0 .12.146.535.325.922.179.388.35.828.382.977.104.498.36.61 1.39.61h.907v2.018h-.923c-.508 0-.993.037-1.078.083-.088.047-.235.328-.34.65a9.474 9.474 0 01-.425 1.05c-.366.737-.338.852.388 1.578.344.344.625.665.625.714 0 .048-.299.388-.665.754l-.665.666-.65-.635c-.356-.35-.73-.661-.83-.693-.126-.04-.396.045-.877.276-.382.183-.844.374-1.028.423-.633.173-.71.328-.71 1.43v.846H29.38l.001-.483v-.483l1.93-2.185c2.299-2.606 2.592-2.988 2.822-3.682.51-1.545.171-3.014-.958-4.151-.916-.923-2.108-1.325-3.35-1.13-1.125.176-1.435.385-4.128 2.785l-2.451 2.185h-.48l-.48.002V8.404h.84c1.095 0 1.25-.078 1.42-.715.05-.184.24-.65.421-1.035.23-.484.313-.756.274-.882-.032-.101-.341-.478-.688-.837l-.631-.653.661-.67c.364-.369.701-.67.75-.67.047 0 .367.283.709.63.72.73.834.759 1.567.39a9.347 9.347 0 011.042-.428c.32-.106.6-.254.647-.342.045-.085.082-.574.082-1.085v-.93h2.003v.913zm.214 4.758a3.01 3.01 0 011.348 1.374c.193.398.23.584.231 1.148.001.565-.037.756-.24 1.197a2.805 2.805 0 01-4.462.905c-.651-.593-1.013-1.655-.855-2.513a2.907 2.907 0 012.137-2.33c.455-.123 1.366-.015 1.841.219zm-2.049.943c-1.117.59-1.325 1.992-.43 2.894.895.901 2.287.691 2.874-.434.844-1.616-.838-3.31-2.444-2.46zm1.297 1.155a.68.68 0 01.204.466c0 .3-.319.672-.576.672a.761.761 0 01-.759-.764c0-.259.37-.58.668-.58a.67.67 0 01.463.206zm-4.394.97c.267 1.801 1.658 3.201 3.425 3.447.342.048.633.098.646.112.058.058-1.576 1.82-1.687 1.82-.181 0-1.13-.375-1.458-.577-.16-.099-.362-.18-.448-.18-.086 0-.472.31-.858.69l-.703.69-.724-.73-.724-.728.685-.707c.377-.389.686-.755.686-.813 0-.059-.13-.38-.29-.712a7.316 7.316 0 01-.389-.982l-.1-.377.369-.339c.598-.551 1.444-1.281 1.46-1.262.01.01.06.302.11.648zm-2.694 2.414l.196.484-.708.717c-.992 1.002-1.013.909.563 2.498 1.577 1.59 1.485 1.569 2.483.569l.712-.713.483.198c.267.109.488.226.492.261.01.08-5.376 6.247-5.462 6.255-.034.003-.143-.167-.242-.38l-.18-.384 1.056-1.066c.878-.887 1.055-1.107 1.055-1.315 0-.214-.258-.512-1.772-2.037-1.52-1.531-1.809-1.787-2.023-1.787-.209 0-.425.176-1.308 1.063l-1.058 1.064-.383-.182c-.21-.1-.38-.209-.377-.243.009-.09 6.199-5.566 6.242-5.523.02.02.124.254.231.52zm-8.9 3.768c0 .766.033 1.456.072 1.534.058.115-.443.598-2.677 2.578-1.512 1.34-2.95 2.658-3.195 2.927-1.503 1.652-1.8 4.151-.737 6.216.424.822 1.439 1.845 2.256 2.271 2.035 1.062 4.538.766 6.16-.728.275-.254 1.59-1.708 2.92-3.23 1.968-2.25 2.447-2.755 2.562-2.696.077.04.763.072 1.523.072h1.383v3.446h-1.448c-1.274 0-1.463.017-1.578.147-.07.08-.248.506-.393.945a10.903 10.903 0 01-.592 1.414c-.181.339-.33.694-.33.79 0 .112.372.555 1.02 1.214l1.02 1.039-1.205 1.215-1.205 1.216-1.011-1.007c-1.163-1.157-1.188-1.166-1.985-.718-.283.16-.909.422-1.39.585-.533.18-.935.367-1.023.476-.127.157-.146.373-.146 1.6v1.42h-3.423v-1.455c0-1.034-.03-1.495-.104-1.593-.057-.077-.423-.24-.814-.362-.39-.123-1.037-.39-1.438-.592-.4-.203-.813-.368-.917-.368-.129 0-.508.322-1.212 1.028l-1.024 1.029-1.23-1.238-1.23-1.238 1.022-1.031c.702-.709 1.022-1.09 1.022-1.221 0-.104-.165-.52-.366-.923a11.78 11.78 0 01-.588-1.448c-.122-.393-.284-.762-.36-.82-.097-.074-.555-.104-1.582-.104H1.168v-3.446h1.41c1.219 0 1.434-.02 1.59-.147.108-.09.294-.494.472-1.03.162-.485.423-1.115.581-1.4.446-.802.437-.828-.712-1.998l-1-1.018 1.207-1.213 1.207-1.214 1.031 1.027c.655.652 1.095 1.027 1.206 1.027.095 0 .449-.15.785-.332.336-.182.968-.45 1.405-.596.436-.146.858-.324.939-.396.128-.115.146-.306.146-1.588v-1.458h3.422v1.392zm6.78 2.115c.633.635 1.15 1.194 1.15 1.241 0 .048-.451.54-1.002 1.092-.55.554-1.002 1.068-1.002 1.144 0 .075.192.541.427 1.035.38.802.413.913.303 1.04-.067.079-.741.848-1.499 1.71l-1.377 1.566-.047-.726c-.051-.804-.367-1.807-.77-2.452-.33-.527-1.157-1.375-1.688-1.73-.687-.458-1.689-.793-2.539-.849l-.721-.047 1.556-1.387c.856-.762 1.62-1.442 1.698-1.51.126-.109.236-.076 1.033.307.49.236.953.429 1.028.429.076 0 .586-.454 1.136-1.009.55-.554 1.037-1.008 1.082-1.008.047 0 .601.52 1.233 1.154zm-7.422 4.35c3.142.824 4.294 4.688 2.111 7.088-1.371 1.509-3.748 1.813-5.439.697-1.284-.847-1.955-2.09-1.955-3.619 0-1.26.37-2.166 1.242-3.032.886-.88 1.738-1.244 2.934-1.254.346-.003.844.05 1.107.12zm-1.499 1.727c-1.162.23-1.94 1.12-2.012 2.301-.05.828.17 1.399.757 1.957.564.538 1.11.733 1.893.676 1.65-.119 2.667-1.713 2.13-3.34-.356-1.079-1.64-1.818-2.768-1.594zm1.217 1.407c.698.523.694 1.615-.008 2.142-.315.236-.968.285-1.353.102-.844-.404-.964-1.693-.208-2.25.445-.328 1.128-.326 1.569.006z" fill="#FFC000"/></svg>