<svg width="45" height="53" viewBox="0 0 45 53" fill="none" xmlns="http://www.w3.org/2000/svg"><path d="M44.283 4.974a3.851 3.851 0 00-2.517-1.57 3.85 3.85 0 00-2.892.661L20.991 16.803 18.989 9.26l-.103-.354c-.68-2.343-1.453-4.999-4.338-5.082l-3.913-.113.356 4.738 1.547-.116-.227-3.022 2.193.064c1.673.048 2.166 1.464 2.892 3.964l.096.328 2.149 8.096-1.458 1.039.9 1.263L39.773 5.33a2.31 2.31 0 011.736-.396 2.31 2.31 0 011.51.941c.36.504.5 1.12.396 1.735a2.31 2.31 0 01-.941 1.51l-12.573 8.956.9 1.264 2.46-1.752a2.311 2.311 0 011.723-.387 2.31 2.31 0 011.51.94 2.33 2.33 0 01-.545 3.246l-3.646 2.598.9 1.263 2.314-1.648a2.31 2.31 0 011.735-.396 2.31 2.31 0 011.51.941 2.33 2.33 0 01-.544 3.246l-2.947 2.098.9 1.264 1.683-1.199a2.312 2.312 0 011.735-.396 2.31 2.31 0 011.51.942 2.33 2.33 0 01-.545 3.245l-4.107 2.925.9 1.264 4.107-2.925a3.883 3.883 0 00.91-5.41 3.845 3.845 0 00-2.288-1.525 3.885 3.885 0 00-.05-4.429 3.844 3.844 0 00-2.258-1.518 3.885 3.885 0 00-.01-4.485 3.841 3.841 0 00-1.984-1.444l7.6-5.413a3.851 3.851 0 001.571-2.517 3.852 3.852 0 00-.662-2.893z" fill="#FFC000"/><path d="M28.661 41.815l-8.749 2.423-3.074 2.175L6.942 32.42l3.147-2.23 3.143-12.637-.577-7.673-1.547.116.558 7.425-2.943 11.837-7.74 5.483a2.31 2.31 0 00-.949 1.507 2.31 2.31 0 00.392 1.737l9.893 13.987a2.31 2.31 0 001.507.948 2.306 2.306 0 001.737-.392l5.066-3.583-.896-1.267 2.854-2.018 8.752-2.424 4.218-3.004-.9-1.264-3.996 2.846zm-15.994 9.448a.77.77 0 01-.579.13.77.77 0 01-.502-.316L1.693 37.09a.77.77 0 01-.13-.579.77.77 0 01.316-.503l3.798-2.69 10.79 15.257-3.8 2.688zm21.267-13.17l1.264-.9.9 1.265-1.265.9-.9-1.265zM20.184 1.08l1.425-.612 2.328 5.429-1.426.611-2.327-5.429zM25.555 0h1.551v5.43h-1.551V0zm3.17 5.905L31.052.476l1.426.611-2.328 5.43-1.425-.612zM26.121 26.24l1.266-.897.897 1.266-1.266.897-.897-1.266zm1.766 2.562l1.266-.896.895 1.266-1.266.895-.895-1.265z" fill="#FFC000"/></svg>