<svg width="40" height="40" viewBox="0 0 40 40" fill="none" xmlns="http://www.w3.org/2000/svg"><path fill-rule="evenodd" clip-rule="evenodd" d="M13.89.28c-1.176.436-1.542.59-2.308.976-.637.32-.7.336-.917.24-.128-.056-.449-.104-.713-.106-.553-.004-.945.174-2.245 1.02a17.645 17.645 0 00-5.311 5.348c-.84 1.31-1.017 1.703-1.013 2.26.002.266.049.59.105.718.094.219.078.282-.237.918-.368.743-.837 1.9-1.114 2.75-.212.65-.179 1.154.108 1.647.301.518.685.73 1.91 1.059.6.161 1.11.311 1.132.333.022.022.005.197-.037.387-.32 1.44-.418 4.237-.207 5.939a18.703 18.703 0 004.154 9.614c2.85 3.456 6.942 5.756 11.511 6.47 1.23.192 3.944.192 5.234 0 6.72-1 12.317-5.56 14.694-11.971.37-1 .768-2.584.946-3.767.195-1.302.197-4.022.002-5.28-.71-4.608-2.992-8.723-6.432-11.595-2.79-2.33-5.99-3.73-9.543-4.178-1.69-.212-4.468-.114-5.898.208-.19.043-.36.062-.38.043-.018-.019-.168-.533-.332-1.143C16.664.926 16.455.547 15.936.24c-.562-.331-1.072-.321-2.046.04zm1.307 1.364c.075.09 1.183 4.163 1.178 4.328-.002.039-.44.242-.974.453-4.082 1.608-7.42 4.97-9.018 9.08-.21.537-.415.978-.458.98-.21.006-4.21-1.117-4.302-1.208-.09-.088-.079-.188.07-.64.24-.737.874-2.217 1.244-2.909.352-.657.396-1.052.152-1.365-.086-.11-.156-.265-.156-.346 0-.17.736-1.409 1.382-2.327.593-.841 2.452-2.712 3.308-3.327.947-.681 2.152-1.411 2.328-1.411.08 0 .235.07.343.156.315.249.72.204 1.366-.152.656-.361 1.601-.78 2.58-1.145.797-.296.844-.304.957-.167zm8.679 3.026c4.196.697 7.718 2.714 10.455 5.987 3.117 3.727 4.498 9.022 3.61 13.83-.892 4.819-3.737 8.976-7.888 11.526-4.873 2.994-11.035 3.258-16.151.694-3.414-1.711-6.09-4.4-7.704-7.74-1.332-2.76-1.856-5.392-1.698-8.529.044-.885.246-2.395.34-2.548.018-.03.269.013.557.094.662.184.834.182 1.266-.022.292-.136.512-.165 1.321-.174.947-.01.986-.017 1.555-.293.818-.396 1.221-.793 1.999-1.965 1.21-1.824 2.077-2.697 3.89-3.916 1.141-.767 1.523-1.163 1.942-2.008.286-.576.29-.594.296-1.565.005-.745.038-1.041.134-1.228.21-.408.23-.802.067-1.379-.082-.291-.126-.544-.097-.562.153-.095 1.652-.298 2.531-.343 1.14-.058 2.762.006 3.575.14zm-11.92.425c-.606.338-.478 1.296.19 1.423.817.154 1.28-.797.648-1.332-.26-.22-.55-.251-.838-.09zm9.705 1.258c-.123.069-.49.628-1.006 1.536-.923 1.626-.973 1.823-.554 2.2.305.274.69.29.975.041.26-.227 1.75-2.855 1.75-3.084a.78.78 0 00-1.165-.694zm-5.626 2.499c-.21.505-.527.83-1.322 1.355-2.067 1.362-3.213 2.516-4.573 4.604-.704 1.082-1.203 1.441-1.997 1.441h-.39l.153-.39c1.314-3.356 4.392-6.473 7.772-7.87l.427-.176.023.378c.013.212-.027.5-.093.658zm12.93-.29c-.063.02-.74.395-1.502.832-1.396.8-1.605.98-1.605 1.382 0 .412.38.782.804.782.214 0 2.634-1.38 2.984-1.702.196-.18.252-.295.252-.516 0-.464-.534-.91-.932-.779zM5.352 11.744a.734.734 0 00-.2 1.131c.357.429 1.006.39 1.244-.073.144-.28.143-.49-.004-.777-.198-.385-.64-.504-1.04-.28zm14.336.486c-2.314.421-4.432 1.756-5.858 3.693-2.78 3.774-2.308 9.098 1.095 12.352.97.928 2.45 1.84 2.983 1.84.567 0 .914-.53.694-1.061-.093-.225-.222-.331-.684-.565-2.086-1.057-3.494-2.8-4.122-5.104-.134-.492-.165-.835-.17-1.892-.007-1.538.125-2.155.728-3.403.81-1.678 2.068-2.922 3.757-3.718.958-.451 1.72-.63 2.89-.679 1.167-.049 1.984.073 3.024.452 2.507.913 4.377 3.142 4.952 5.9.139.665.117 2.296-.039 3.021a8.903 8.903 0 01-1.031 2.557c-.708 1.144-1.987 2.296-3.267 2.94-.221.112-.457.283-.524.379-.318.456.041 1.173.587 1.173.612 0 2.197-.992 3.2-2.003 1.318-1.329 2.175-2.94 2.584-4.858.198-.924.187-2.67-.023-3.638-.836-3.872-3.77-6.73-7.588-7.392-.849-.147-2.361-.144-3.188.006zm11.3 1.918c-.298.12-.46.302-.511.579-.054.291.118.692.35.818.09.048.845.08 1.89.08h1.738l.209-.22a.775.775 0 00-.424-1.296c-.387-.078-3.04-.046-3.251.039zM20.8 15.464c-.601.606.103 1.614.854 1.222.223-.116.474-.471.474-.672 0-.204-.254-.607-.435-.69-.34-.156-.646-.108-.893.14zm-2.52.562c-.48.279-.575.87-.2 1.25.31.311.688.312 1.033.001.49-.44.25-1.209-.409-1.303-.147-.02-.338.003-.423.052zm5.44 0c-.48.279-.576.87-.2 1.25.31.311.688.312 1.033.001.49-.44.249-1.209-.41-1.303-.146-.02-.337.003-.422.052zm-7.548 2.086c-.592.484-.3 1.384.45 1.384.412 0 .765-.363.765-.786 0-.587-.766-.964-1.215-.598zm9.39.057c-.292.247-.36.512-.217.855.329.792 1.445.552 1.445-.31 0-.208-.06-.343-.227-.512-.295-.296-.676-.31-1.002-.033zm-5.122.31c-.803.252-1.517.878-1.905 1.67-.458.936-.372 2.14.216 3.044.665 1.021 1.97 1.588 3.11 1.352 1.313-.27 2.25-1.215 2.52-2.536.3-1.47-.65-3.04-2.117-3.5-.535-.168-1.345-.181-1.824-.03zM6.693 20.042c-.523.227-.664.829-.282 1.204.117.116.818.558 1.557.982 1.212.696 1.371.767 1.632.725.39-.063.638-.359.638-.763 0-.22-.052-.364-.175-.487-.19-.189-2.718-1.656-2.972-1.725-.086-.023-.265.006-.398.064zm15.502.144c.81.54.912 1.671.215 2.374-.953.959-2.5.373-2.598-.982-.048-.665.247-1.177.878-1.524.363-.2 1.104-.135 1.505.132zm10.68-.141c-.243.105-.49.46-.49.705 0 .372.244.578 1.657 1.4 1.6.93 1.78.98 2.157.601.292-.294.316-.761.052-1.048-.203-.22-2.646-1.653-2.933-1.72a.854.854 0 00-.442.062zm-17.514.895c-.246.247-.294.556-.139.898.083.182.482.438.685.438.2 0 .552-.252.668-.477.389-.756-.612-1.465-1.214-.86zm10.88 0a.767.767 0 00.394 1.297c.293.064.662-.133.82-.438.388-.756-.613-1.465-1.215-.86zm-10.069 2.648c-.592.483-.3 1.383.45 1.383.412 0 .765-.363.765-.786 0-.586-.766-.963-1.215-.597zm9.39.057c-.292.247-.36.512-.217.855.159.383.522.56.91.442.367-.11.535-.341.535-.734a.736.736 0 00-1.229-.563zm-7.212 1.837c-.263.107-.497.465-.497.761 0 .388.352.727.754.727.39 0 .62-.17.73-.538a.732.732 0 00-.437-.916c-.299-.125-.323-.127-.55-.034zm5.44 0c-.506.206-.65.877-.27 1.26a.74.74 0 001.258-.316.732.732 0 00-.438-.91c-.299-.125-.323-.127-.55-.034zm7.72.705a.743.743 0 00-.258.867c.145.418 1.514 2.756 1.703 2.907.426.341 1.103.053 1.191-.507.042-.266-.025-.42-.718-1.643-.421-.742-.86-1.446-.976-1.565a.695.695 0 00-.942-.059zm-10.71.23a.767.767 0 00.395 1.296c.293.065.663-.132.82-.437.388-.757-.613-1.466-1.215-.86zM8.015 27.55c-.291.294-.333.545-.15.9.191.374.403.41 2.251.384l1.69-.024.187-.22c.201-.235.25-.652.108-.92-.182-.34-.438-.386-2.178-.386H8.28l-.265.266zM20.8 29.547a.746.746 0 00.204 1.215c.314.15.375.15.66.002a.761.761 0 00-.356-1.446c-.206 0-.34.06-.508.229zm6.797 1.178c-.09.037-.24.165-.334.284-.165.212-.17.268-.147 1.97l.024 1.752.218.188a.77.77 0 001.07-.04l.227-.228V31.18l-.264-.266c-.267-.269-.476-.318-.794-.19zm-13.19 1.483c-.72.423-1.384.844-1.475.935-.114.115-.165.264-.165.487 0 .262.046.361.252.547.16.144.338.227.487.227.306 0 3.044-1.575 3.167-1.822.295-.593-.01-1.155-.623-1.147-.278.003-.552.132-1.643.773zm7.37.467a.945.945 0 00-.28.213c-.157.18-1.524 2.546-1.622 2.802-.099.264.04.706.27.857.228.151.726.16.913.018.228-.174 1.706-2.804 1.748-3.109.031-.232-.001-.326-.184-.528-.235-.26-.585-.364-.844-.253z" fill="#FFC000"/></svg>