<svg width="40" height="41" viewBox="0 0 40 41" fill="none" xmlns="http://www.w3.org/2000/svg"><path fill-rule="evenodd" clip-rule="evenodd" d="M13.48.08c-1.852.222-3.826 1.014-5.522 2.215C3.8 5.239.962 10.507.15 16.788c-.178 1.384-.203 4.76-.044 6.055.697 5.685 2.829 10.298 6.256 13.537 2.049 1.937 4.443 3.134 6.992 3.498 1.206.172 12.126.164 13.193-.009 9.48-1.54 15.472-14.368 12.349-26.44C37.042 6.263 32.138.957 26.586.112c-.66-.1-1.74-.118-6.656-.11-3.227.005-6.13.04-6.45.079zm7.151 1.728c-.755.502-2.329 1.917-2.699 2.427-.114.158-.236.287-.271.287-.035 0-.625-.263-1.31-.585-.697-.328-1.353-.586-1.49-.586-.162 0-.551.192-1.18.582-.515.32-.977.56-1.027.532-.05-.028-.478-.29-.951-.583-.994-.613-1.054-.622-2.14-.33l-1.16.31-.417.109.333-.278c.864-.722 2.373-1.517 3.627-1.91 1.28-.403 1.844-.448 5.81-.456l3.61-.007-.735.488zm6.066-.285c3.572.635 7.016 3.547 9.137 7.726 1.656 3.264 2.44 6.716 2.44 10.742 0 4.156-.815 7.631-2.574 10.977-1.276 2.427-3.054 4.507-4.925 5.762-1.96 1.317-4.438 2.08-5.897 1.817-5.07-.912-9.21-6.607-10.394-14.298-.246-1.596-.322-2.99-.27-4.988.067-2.601.278-4.15.858-6.322 1.004-3.754 2.704-6.8 4.979-8.924 1.493-1.394 3.027-2.217 4.799-2.574.563-.113.81-.102 1.847.082zM11.48 5.343c.692.422 1.037.586 1.231.586.199 0 .518-.156 1.21-.594l.942-.595.959.416c.527.229.97.435.985.458.015.023-.123.27-.305.55-.372.567-1.4 2.477-1.546 2.873l-.095.256-1.335-.628c-.788-.37-1.437-.627-1.586-.627-.175 0-.535.178-1.177.58l-.925.58-.925-.58c-.64-.4-1.002-.58-1.176-.58-.173 0-.535.179-1.17.576l-.918.576-.578-.383c-.317-.211-.61-.413-.648-.45-.078-.073.485-.986 1.139-1.85l.42-.553 2.126-.59c1.17-.325 2.19-.594 2.268-.599.079-.004.575.256 1.104.578zm13.986.04c-1.235.21-2.277.758-3.334 1.751-2.274 2.138-3.785 5.748-4.288 10.24-.053.473-.097 1.65-.097 2.617 0 .967.044 2.145.097 2.618.698 6.237 3.404 10.818 6.998 11.846.793.226 1.967.243 2.7.037 3.528-.99 6.18-5.228 7.012-11.21.21-1.5.21-5.081 0-6.582-.827-5.941-3.49-10.225-6.957-11.191-.566-.158-1.588-.218-2.131-.126zm1.479 1.364c.783.156 1.473.525 2.228 1.191 2.515 2.22 4.158 6.984 4.158 12.053 0 5.057-1.645 9.835-4.147 12.044-.777.686-1.457 1.046-2.275 1.206-2.065.405-4.195-1.095-5.732-4.036l-.268-.514.292-.385c.729-.96 1.408-2.607 1.762-4.271.316-1.484.407-2.392.407-4.044 0-1.65-.091-2.56-.407-4.043-.354-1.667-1.033-3.311-1.764-4.274l-.295-.388.384-.706c.425-.783.997-1.612 1.488-2.159.74-.825 1.993-1.569 2.874-1.708.583-.092.676-.09 1.295.034zM8.942 10.2c.446.28.881.495 1 .494.121 0 .62-.258 1.199-.62l.99-.619 1.09.512c.6.28 1.1.519 1.112.529.012.01-.092.366-.232.792-.223.68-.437 1.434-.618 2.173l-.055.228-.516-.477c-.552-.51-.842-.633-1.152-.484-.107.051-.57.44-1.029.866l-.834.773-.789-.748c-.88-.834-1.15-1.004-1.486-.934-.14.028-.566.365-1.096.864l-.868.817-.792-.73c-1.296-1.197-1.35-1.21-2.137-.501-.628.566-.623.62-.09-.956.3-.886.558-1.542.93-2.364l.133-.294.87.548c.56.352.953.547 1.102.547.15 0 .553-.202 1.147-.578.89-.562.92-.574 1.123-.455.115.067.564.345.998.617zm11.83 3.467c1.286 2.798 1.562 7.377.65 10.77-.13.489-.339 1.14-.461 1.445-.228.566-.593 1.297-.648 1.297-.048 0-.527-1.69-.666-2.344-.642-3.045-.658-6.45-.043-9.453.244-1.19.668-2.6.758-2.516.041.038.226.4.41.801zm-16.267 1.49c1.189 1.102 1.125 1.104 2.378-.068l.895-.837.895.837c1.255 1.174 1.187 1.172 2.396.053l.956-.886.546.504c.544.503.546.506.497.856a35.375 35.375 0 00-.28 2.874l-.058 1.038-1.036-.595c-1.422-.816-1.646-.917-1.907-.857-.123.028-.615.418-1.114.883l-.895.834-.895-.836c-1.264-1.183-1.177-1.184-2.469.015l-1.028.955-.697-.37a35.34 35.34 0 01-.99-.544l-.294-.174.064-.888c.035-.49.102-1.124.148-1.41l.084-.522.887-.866c.488-.475.908-.865.933-.865.024 0 .467.392.984.87zm7.047 5.224c.634.36 1.165.691 1.179.737.053.174.247 2.702.207 2.698-.023-.001-.171-.107-.33-.234-.198-.16-.377-.231-.575-.231-.254 0-.394.1-1.21.856l-.921.856-.925-.856c-1.236-1.145-1.186-1.145-2.405.002l-.91.858-.927-.858c-.826-.765-.959-.858-1.22-.858-.394 0-.622.186-1.148.938-.294.42-.464.6-.503.532-.095-.168-.322-1.819-.41-2.994-.103-1.349-.104-1.445-.01-1.445.041 0 .467.211.945.469 1.223.659 1.194.664 2.349-.396.518-.475.966-.828.995-.784.03.044.462.433.963.864 1.22 1.05 1.152 1.054 2.406-.11.88-.818.978-.887 1.13-.796.092.054.686.393 1.32.752zm-2.813 5.47C9.979 27 9.92 27 11.169 25.833c1.068-1 .94-.98 1.746-.293.41.349.417.362.646 1.289a30.3 30.3 0 00.674 2.322c.036.108-.098.071-.642-.176-1.102-.5-1.182-.474-1.983.653l-.435.613-.854-.789c-1.149-1.06-1.108-1.062-2.328.067l-.924.856-.922-.856c-1.171-1.087-1.207-1.092-2.067-.309-.33.3-.624.547-.651.547-.072 0-.493-1.053-.857-2.141-.337-1.008-.341-.955.098-1.204.051-.03.29-.345.531-.702l.438-.65.85.786c1.16 1.072 1.16 1.072 2.359-.032.489-.45.905-.82.925-.82.02-.002.455.384.966.857zm5.265 4.758l.98.46.565 1.082c.502.961.8 1.469 1.194 2.034.113.162.09.187-.508.566-.344.218-.666.397-.715.397-.05 0-.481-.247-.959-.547-1.124-.709-1.156-.709-2.289 0-.48.3-.9.546-.934.546-.033 0-.458-.245-.944-.546-1.15-.711-1.194-.712-2.307-.014-.468.293-.893.556-.945.585-.205.113-1.969-2.099-2.764-3.466l-.343-.59.457-.424.457-.423.894.827c.492.455.96.849 1.04.875.278.09.606-.115 1.457-.908l.853-.795.853.79c.47.435.937.831 1.039.88.385.184.59.035 1.238-.903.338-.488.634-.887.658-.887.024 0 .484.207 1.023.46zm-3.83 5.437c.549.33 1.066.586 1.183.586.122 0 .603-.247 1.151-.59l.942-.592.272.195c.924.662 1.59 1.065 1.757 1.065.105 0 .642-.279 1.191-.62l1-.62.595.64c.714.767 1.745 1.652 2.531 2.172l.575.381h-3.53c-3.922 0-4.599-.055-5.927-.472-1-.315-2.178-.898-3.09-1.531l-.733-.51.53-.34c.292-.187.541-.343.555-.345.013-.003.462.259.998.581z" fill="#FFC000"/></svg>