<svg width="51" height="35" viewBox="0 0 51 35" fill="none" xmlns="http://www.w3.org/2000/svg"><path d="M12.485 16.253L8.48 15.39c-1.099-.236-2.12.628-2.12 1.727v1.65c0 1.334 1.021 1.648 2.277 1.648h4.397c.864 0 1.728-.157 1.728-1.1v-.235c0-1.413-.942-2.59-2.277-2.826zm-4.633 2.513V17.04c0-.157.157-.314.314-.236l4.005.864c.55.157.942.628 1.02 1.178-2.748 0-5.103 0-5.339-.079z" fill="#FFC000"/><path d="M48.132 7.852l-5.653-2.67c-1.885-.863-3.926-1.178-5.889-.785l-.864-1.727C35.098 1.1 33.606 0 31.88 0H13.505a4.101 4.101 0 00-3.847 2.591l-3.062 6.36a3.836 3.836 0 00-3.141-1.649H2.12C.942 7.302 0 8.245 0 9.422v.864a2.11 2.11 0 002.12 2.12h2.042c-.864 1.1-1.257 2.513-1.257 3.926v4.711c0 1.806.628 3.534 1.885 5.025v3.534a2.815 2.815 0 002.826 2.826h2.906a2.815 2.815 0 002.826-2.826v-1.414h15.704c3.455 4.712 8.873 6.753 8.951 6.753.157.079.314.079.55 0 .079-.078 11.7-4.319 11.7-14.919v-8.794c0-1.413-.864-2.748-2.12-3.376zm-37.06-4.633c.392-1.02 1.334-1.649 2.433-1.649H31.88c1.1 0 2.041.629 2.512 1.728l.707 1.492c-.314.078-.628.235-.942.392l-5.653 2.67c-1.257.628-2.12 1.884-2.12 3.298H7.145c.314-.471 0 .314 3.926-7.93zM1.57 10.286v-.864c0-.314.236-.55.55-.55h1.335c1.57 0 2.12 1.414 2.277 1.65-.079.157-.157.235-.314.392H2.12c-.314-.078-.55-.314-.55-.628zm10.208 19.237a1.24 1.24 0 01-1.256 1.257H7.538c-.707.078-1.256-.55-1.256-1.257v-2.277c.942.55 2.041.864 3.14.864h2.356v1.413zm-2.434-2.905c-2.827 0-5.025-2.748-5.025-5.653v-4.712c0-1.334.55-2.59 1.491-3.611h20.573v6.91h-8.638a.787.787 0 00-.785.785c0 .47.314.785.785.785h8.716c.079.55.079 1.02.236 1.492h-8.952a.787.787 0 00-.785.785c0 .47.314.785.785.785h9.266c.314.864.628 1.727 1.099 2.434H9.344zm39.338-6.596c0 8.716-8.794 12.72-10.365 13.349-5.653-2.277-10.364-7.146-10.364-13.349v-8.794c0-.863.471-1.57 1.256-1.963l5.654-2.67c2.277-1.099 4.79-1.099 7.066 0l5.654 2.67c.706.393 1.256 1.1 1.256 1.963v8.794h-.157z" fill="#FFC000"/><path d="M46.012 11.071L40.83 8.637c-1.57-.785-3.533-.785-5.104 0l-5.104 2.434c-.235.157-.47.393-.47.707v8.245c0 6.203 5.417 9.579 7.773 10.757.235.078.47.078.707 0 2.355-1.178 7.773-4.554 7.773-10.758v-8.244a.825.825 0 00-.393-.707zm-1.099 8.952c0 5.025-4.397 8.009-6.596 9.186-2.59-1.413-6.595-4.24-6.595-9.186v-7.774l4.71-2.277a4.513 4.513 0 013.77 0l4.711 2.277v7.774z" fill="#FFC000"/><path d="M35.256 19.787c-.314-.236-.785-.157-1.1.157-.313.314-.157.785.158 1.1l2.983 2.276c.314.236.786.157 1.1-.157l4.397-5.732c.235-.314.157-.785-.157-1.099-.314-.236-.786-.157-1.1.157l-3.926 5.104-2.355-1.806z" fill="#FFC000"/></svg>