<svg width="30" height="30" viewBox="0 0 30 30" fill="none" xmlns="http://www.w3.org/2000/svg"><path fill-rule="evenodd" clip-rule="evenodd" d="M18.721.022c-3.673.4-6.791 2.595-8.36 5.883-.588 1.234-.986 2.937-.986 4.221 0 .3.023.38.144.5a.44.44 0 00.64.01c.12-.119.139-.21.17-.806.171-3.157 1.85-5.943 4.567-7.574a9.465 9.465 0 013.608-1.246c3.94-.52 7.837 1.576 9.59 5.159.335.684.688 1.754.83 2.52.151.813.151 2.41 0 3.225-.683 3.693-3.355 6.567-6.951 7.476-.524.133-.703.204-.806.322-.155.178-.163.266-.043.498.123.238.321.27.908.15 2.377-.485 4.68-2.014 6.184-4.109.43-.596 1.114-1.936 1.347-2.635.38-1.134.436-1.563.437-3.276 0-1.737-.056-2.183-.413-3.277-.248-.76-.918-2.08-1.388-2.737a10.465 10.465 0 00-6.548-4.17c-.63-.118-2.354-.197-2.93-.134zm-.272 1.95c-.132.107-.14.155-.167 1.002l-.03.889-.318.112c-1.034.364-1.916 1.283-2.27 2.365-.214.658-.225 1.562-.027 2.203a3.81 3.81 0 002.083 2.375c.51.225.806.276 1.832.315.832.031.967.05 1.11.157.307.23.403.417.403.787 0 .371-.096.558-.404.788-.153.115-.257.122-2.164.15-2.263.033-2.253.031-2.668.502-.511.582-.481 1.315.077 1.874.382.382.582.438 1.577.438h.799v.794c0 .765.005.8.143.938.143.142.153.144 1.263.144 1.11 0 1.12-.002 1.262-.144.14-.14.144-.17.144-.998 0-.763.011-.858.103-.887 1.901-.598 3.021-2.473 2.622-4.39-.267-1.283-1.315-2.414-2.608-2.814-.22-.068-.64-.112-1.328-.138-.89-.033-1.026-.051-1.169-.158-.307-.23-.403-.417-.403-.788 0-.37.096-.558.403-.788.154-.115.258-.122 2.165-.15 2.264-.033 2.253-.03 2.654-.487.525-.597.501-1.324-.064-1.889-.382-.382-.582-.437-1.576-.437h-.799v-.794c0-.765-.005-.8-.144-.938-.142-.143-.153-.144-1.253-.144-1.004 0-1.123.01-1.248.112zm1.708 1.62c0 .766.005.8.143.939.143.142.153.143 1.263.143 1.11 0 1.12.002 1.262.144a.458.458 0 01.032.627l-.112.138-2.012.03c-1.994.029-2.015.03-2.305.174a2.09 2.09 0 00-.907.91c-.197.406-.203 1.163-.012 1.555.202.416.44.664.841.878.366.195.383.198 1.367.239 1.128.046 1.413.113 1.94.453.448.29.75.64.996 1.154.783 1.633-.16 3.54-1.955 3.955-.495.115-.541.214-.541 1.152v.784h-.938v-.794c0-.765-.005-.8-.144-.938-.142-.143-.153-.144-1.262-.144-1.11 0-1.12-.001-1.263-.144a.458.458 0 01-.032-.626l.112-.139 2.012-.029 2.013-.03.369-.2c.411-.223.589-.407.818-.848.132-.254.156-.374.157-.798.001-.456-.015-.529-.199-.869a1.792 1.792 0 00-.88-.84c-.225-.107-.417-.133-1.262-.17-1.127-.048-1.414-.115-1.94-.455-.447-.29-.748-.639-.995-1.153-.783-1.633.16-3.54 1.954-3.956.496-.115.542-.213.542-1.152V2.8h.938v.794zM6.707 5.288c-.119.118-.144.202-.144.47v.324h-.325c-.391 0-.613.17-.613.47 0 .298.222.468.613.468h.325v.325c0 .391.17.613.468.613.3 0 .47-.222.47-.613V7.02h.324c.391 0 .613-.17.613-.469 0-.3-.222-.469-.613-.469H7.5v-.325c0-.391-.17-.613-.469-.613a.472.472 0 00-.325.144zm2.39 6.042c-.15.106-.177.19-1.274 4.014-.678 2.362-.83 2.833-1.01 3.107-.234.355-.724.85-1.006 1.014l-.182.106v-.27c0-.208-.033-.303-.144-.413l-.144-.144H.288l-.144.144L0 19.03v10.68l.144.143.144.144h5.049l.144-.144c.106-.105.144-.207.144-.38 0-.131.017-.238.037-.238.02 0 .626.172 1.347.383L8.32 30l4.263-.016 4.263-.016.334-.164c.42-.206.826-.65.957-1.043.18-.545.089-1.313-.203-1.692l-.11-.144.266-.235c.397-.35.602-.822.602-1.39 0-.388-.026-.497-.191-.827l-.192-.38.258-.224c.387-.337.593-.818.593-1.383 0-.387-.025-.497-.19-.826l-.19-.378.274-.246c.155-.138.347-.392.44-.58.14-.285.164-.407.163-.805-.002-.42-.023-.508-.201-.84-.215-.4-.461-.636-.88-.845-.264-.132-.275-.132-3.537-.149l-3.27-.017.034-.218c.204-1.281.391-3.086.36-3.477-.113-1.422-.916-2.448-2.175-2.776-.438-.114-.728-.114-.89 0zm.998 1.025a1.7 1.7 0 01.864.844c.333.677.338.919.064 3.092a80.245 80.245 0 00-.242 2.03c0 .064.05.179.112.255l.112.138 3.576.03c3.496.028 3.579.032 3.737.15.307.23.403.417.403.787 0 .371-.096.558-.403.788-.15.113-.264.123-1.628.15-1.454.03-1.467.03-1.578.168a.477.477 0 000 .602c.11.136.136.14 1.344.168 1.348.032 1.383.041 1.675.433.17.227.17.783 0 1.01-.298.4-.3.4-1.91.433-1.453.029-1.467.03-1.578.168a.477.477 0 000 .602c.11.136.137.14 1.344.168 1.348.032 1.383.041 1.676.433.17.227.17.783 0 1.01-.3.4-.3.4-1.91.433-1.454.029-1.467.03-1.578.167a.477.477 0 000 .603c.11.135.136.139 1.343.167 1.127.027 1.246.04 1.394.15.307.23.403.418.403.788 0 .371-.096.558-.404.788-.159.12-.224.121-4.288.137l-4.126.015-1.04-.297c-.573-.164-1.219-.35-1.436-.414l-.396-.116.002-3.823.001-3.822.464-.22c.575-.272 1.057-.708 1.493-1.351l.326-.48.878-3.078c.483-1.693.891-3.11.906-3.15.038-.101.11-.093.4.044zM4.688 24.37v4.69H.938v-9.38h3.75v4.69zm19.362-1.732c-.118.118-.143.202-.143.469v.325h-.325c-.391 0-.613.17-.613.469 0 .3.222.469.613.469h.325v.325c0 .391.17.613.468.613.3 0 .47-.222.47-.613v-.325h.324c.391 0 .613-.17.613-.47 0-.298-.222-.468-.613-.468h-.325v-.325c0-.391-.17-.613-.469-.613a.472.472 0 00-.325.144z" fill="#161921"/></svg>