<svg width="24" height="30" viewBox="0 0 24 30" fill="none" xmlns="http://www.w3.org/2000/svg"><path fill-rule="evenodd" clip-rule="evenodd" d="M10.74.063C8.617.281 6.483 1.122 4.72 2.438c-.647.482-1.758 1.578-2.247 2.216C1.105 6.44.305 8.444.062 10.7c-.34 3.137.743 6.456 2.91 8.922l.46.523-1.596 2.726C.958 24.37.223 25.66.203 25.738c-.052.202.071.426.261.473.104.025.961-.119 2.35-.395 1.203-.24 2.193-.428 2.2-.419.008.01.327.943.708 2.075.392 1.162.744 2.107.809 2.171.15.149.45.146.59-.005.06-.065.88-1.439 1.823-3.052l1.712-2.933h2.691l1.775 3.037c.976 1.67 1.836 3.098 1.91 3.173a.478.478 0 00.282.137c.08 0 .203-.061.272-.137.071-.077.427-1.02.826-2.185.552-1.612.724-2.05.806-2.05.057 0 1.065.193 2.24.43l2.136.43.16-.117c.326-.239.315-.263-1.494-3.349l-1.687-2.878.459-.523c1.676-1.914 2.661-4.172 2.912-6.68.293-2.912-.576-5.905-2.397-8.266C19.014 1.393 14.9-.363 10.74.063zm2.42.848a11.198 11.198 0 018.215 5.007c1.337 2.043 1.967 4.63 1.706 7.002-.16 1.447-.465 2.466-1.14 3.81-.535 1.067-1.068 1.824-1.863 2.65a11.194 11.194 0 01-11.702 2.835 11.346 11.346 0 01-5.44-4.003c-.492-.677-1.257-2.165-1.519-2.956a10.912 10.912 0 01.281-7.57c.936-2.26 2.694-4.218 4.874-5.426 1.38-.766 2.672-1.162 4.476-1.373C11.464.837 12.6.85 13.16.91zm-2.204 2.186c-4.801.59-8.323 4.91-7.82 9.593.62 5.776 6.5 9.39 11.994 7.373a8.892 8.892 0 005.653-6.714c.143-.763.144-2.25.004-3.01-.665-3.604-3.436-6.395-7.074-7.126-.726-.146-2.056-.202-2.757-.116zm2.56.939a8.714 8.714 0 013.011 1.235c.573.374 1.723 1.506 2.107 2.075a8.172 8.172 0 011.258 2.931c.188.876.188 2.25 0 3.126-.68 3.159-3.106 5.551-6.305 6.22-.822.171-2.22.186-3.017.03-1.677-.325-3.052-1.045-4.237-2.217-1.182-1.17-1.874-2.428-2.22-4.033-.189-.883-.19-2.255 0-3.126.352-1.623 1.01-2.822 2.194-4 1.158-1.153 2.448-1.864 4.01-2.21.89-.198 2.29-.211 3.2-.031zM11.742 6.45c-.056.041-.411.854-.79 1.807-.38.952-.692 1.734-.696 1.738-.004.004-.824.054-1.823.11-1 .056-1.893.132-1.986.167-.177.067-.256.24-.22.48.017.118 1.35 1.263 2.78 2.388l.173.137-.466 1.765c-.256.971-.466 1.823-.466 1.893 0 .177.214.371.408.371.103 0 .735-.36 1.756-1.002l1.595-1.002 1.59 1.002c1.027.648 1.648 1.002 1.753 1.002.195 0 .409-.194.409-.37 0-.071-.21-.923-.466-1.894l-.466-1.765.173-.137c1.43-1.125 2.763-2.27 2.78-2.388.036-.24-.043-.413-.22-.48-.093-.036-.987-.111-1.986-.168-.999-.056-1.819-.105-1.823-.11-.004-.003-.317-.785-.696-1.737-.379-.953-.734-1.766-.79-1.807a.51.51 0 00-.261-.076.511.511 0 00-.262.076zm.81 2.868c.284.717.566 1.349.627 1.403.088.08.387.116 1.484.183a71.26 71.26 0 011.482.1c.073.01-.268.323-1.004.918-.613.496-1.144.967-1.18 1.045-.054.117.002.401.301 1.528.202.761.36 1.394.35 1.406-.008.012-.565-.323-1.235-.744-.726-.456-1.282-.766-1.373-.766-.092 0-.648.31-1.374.766-.67.421-1.227.756-1.236.744-.01-.012.146-.635.346-1.385.212-.796.348-1.422.327-1.504-.023-.087-.474-.498-1.171-1.067-.722-.588-1.097-.93-1.03-.94.058-.01.723-.054 1.478-.1 1.087-.067 1.396-.105 1.483-.182.06-.054.342-.685.627-1.403.285-.719.532-1.306.55-1.306.016 0 .263.587.547 1.304zM4.54 21.093c1.299 1.023 2.95 1.835 4.48 2.203.387.093.704.188.704.211 0 .045-2.696 4.671-2.766 4.747-.023.026-.33-.79-.68-1.812-.552-1.611-.657-1.868-.788-1.927-.124-.056-.498 0-2.064.308-1.052.207-1.92.37-1.927.363-.012-.012.739-1.308 2.27-3.917.162-.275.309-.5.326-.5.018 0 .218.145.445.324zm16.768 2.008a226.52 226.52 0 011.344 2.311c0 .008-.864-.156-1.92-.365-1.908-.378-2.118-.397-2.238-.205-.026.04-.327.888-.67 1.885l-.626 1.811-1.444-2.467c-.794-1.358-1.451-2.498-1.46-2.534-.01-.038.28-.139.677-.236 1.576-.385 3.303-1.237 4.51-2.224.204-.166.395-.295.426-.287.03.008.661 1.048 1.4 2.311z" fill="#161921"/></svg>