<svg width="50" height="40" viewBox="0 0 50 40" fill="none" xmlns="http://www.w3.org/2000/svg"><path fill-rule="evenodd" clip-rule="evenodd" d="M23.431 4.831c-4.7 2.658-8.646 4.948-8.767 5.09-.201.236-.22.356-.22 1.459v1.202H2.806l-.285.294a1.095 1.095 0 00-.185 1.222c.258.497.27.497 6.39.497h5.72v3.624H8.47l-.286.294A1.095 1.095 0 008 19.735c.24.462.492.498 3.557.498h2.886v5.234H10.24c-4.56 0-4.62.006-4.86.55-.198.45-.14.755.216 1.12l.332.343h8.501l.032 1.256c.028 1.098.057 1.28.228 1.449.107.106 4.02 2.358 8.693 5.003 6.605 3.739 8.575 4.81 8.84 4.812.27.001 2.153-1.023 8.84-4.808 4.674-2.646 8.586-4.898 8.694-5.006.186-.186.195-.327.195-2.919v-2.724l-.274-.243a.99.99 0 00-1.308 0l-.274.243-.03 2.2-.029 2.199-6.808 3.85a5816.157 5816.157 0 00-7.419 4.202l-.611.35.025-8.376.025-8.375 2.247-1.282c1.235-.705 2.28-1.285 2.32-1.288.04-.003.073.94.073 2.094 0 1.237.043 2.226.105 2.409.2.59.852.793 1.487.463 1.31-.68 3.716-2.117 3.832-2.289.118-.173.143-.717.143-3.046v-2.837l2.237-1.268c1.23-.698 2.263-1.269 2.295-1.269.033 0 .06 1.123.06 2.494 0 2.77.012 2.832.647 3.105.283.122.375.122.658 0 .658-.283.648-.22.648-4.17v-3.558l-.269-.273c-.147-.15-1.983-1.242-4.078-2.427L37.16 2.648C34.499 1.145 32.367 0 32.226 0c-.143 0-3.866 2.045-8.795 4.831zm16.145 1.476c3.987 2.251 7.283 4.123 7.324 4.159.041.036-.917.624-2.13 1.306-2.001 1.127-2.226 1.23-2.45 1.125-.21-.099-5.6-3.137-12.476-7.034-1.066-.604-1.945-1.131-1.953-1.172-.018-.086 4.127-2.463 4.31-2.471.07-.003 3.388 1.836 7.375 4.087zm-6.443 3.708c4.01 2.27 7.292 4.15 7.293 4.178 0 .028-.344.242-.765.476l-.767.427-4.63-2.622c-2.547-1.442-5.85-3.31-7.34-4.15-1.49-.842-2.71-1.555-2.71-1.585-.002-.072 1.494-.904 1.57-.873.031.012 3.338 1.88 7.349 4.15zm-7.748-.266l7.228 4.086c2.23 1.26 4.089 2.324 4.132 2.366.072.07-4.328 2.622-4.521 2.622-.069 0-14.637-8.209-14.73-8.3-.048-.047 4.42-2.553 4.57-2.562.08-.005 1.575.8 3.32 1.788zm-1.625 6.623c3.983 2.25 7.296 4.143 7.364 4.206.097.091.117 1.858.098 8.42l-.025 8.303-3.956-2.238c-2.176-1.23-5.505-3.112-7.398-4.18l-3.441-1.943-.002-8.33c-.001-4.581.025-8.33.059-8.33.033 0 3.318 1.841 7.301 4.092zm17.74 1.37v1.836l-.773.428c-.425.235-.798.428-.829.428-.031 0-.057-.806-.057-1.79v-1.79l.806-.464a87.8 87.8 0 01.83-.476c.014-.005.024.817.024 1.827zm-37.222.771c-.718.741-.003 1.973.956 1.646.15-.051.375-.248.5-.438.287-.436.227-.843-.18-1.225-.409-.384-.892-.378-1.276.018zm44.112 1.745c-.55.493-.392 1.348.306 1.648.31.133.377.13.701-.033.951-.48.669-1.842-.381-1.842a.911.911 0 00-.626.227zM.487 25.608c-.576.328-.653 1.03-.167 1.53.332.342.333.342 1.275.342 1.33 0 1.714-.237 1.714-1.058 0-.271-.074-.443-.286-.661-.279-.288-.307-.294-1.294-.29-.648.002-1.092.05-1.242.136z" fill="#fff"/></svg>