<svg width="50" height="50" viewBox="0 0 50 50" fill="none" xmlns="http://www.w3.org/2000/svg"><path fill-rule="evenodd" clip-rule="evenodd" d="M24.468.094c-.216.105-.412.592-.413 1.028 0 .356-.344 1.164-.672 1.58-.492.626-1.56 1.182-2.27 1.182-.658 0-1.025.486-.79 1.048.135.325.224.367.967.466 1.46.193 2.555 1.293 2.763 2.772.045.319.13.672.19.784.208.392.968.392 1.176 0 .06-.112.145-.465.19-.784.207-1.48 1.303-2.58 2.762-2.772.743-.099.832-.141.968-.466.234-.562-.133-1.048-.791-1.048-.71 0-1.778-.556-2.27-1.182-.327-.416-.671-1.224-.672-1.58-.002-.873-.51-1.333-1.139-1.028zm1.005 3.863l.667.66-.655.657-.654.656-.655-.656-.655-.657.63-.647c.348-.355.636-.652.643-.66.006-.006.311.285.679.647zM3.526 10.25c-.244.123-.422.477-.424.846-.001.438-.431 1.23-.877 1.613-.41.355-.89.555-1.333.556-.296 0-.757.247-.833.444-.211.556.148.956.989 1.102 1.125.195 1.858.966 2.043 2.148.098.623.324.9.738.9.367 0 .729-.343.73-.691.002-1.17.958-2.217 2.182-2.39.571-.082.921-.362.921-.737 0-.434-.275-.672-.89-.771-1.26-.205-2.046-.984-2.185-2.168-.032-.27-.128-.572-.213-.673a.74.74 0 00-.848-.178zm41.996-.013c-.27.11-.377.323-.452.903-.15 1.162-.934 1.928-2.18 2.13-.615.1-.89.337-.89.77 0 .375.35.655.919.738 1.188.172 1.998.989 2.15 2.168.075.588.346.912.764.912.413 0 .64-.276.737-.899.186-1.182.919-1.953 2.044-2.148.84-.146 1.2-.546.988-1.101-.075-.198-.536-.444-.832-.445-.443-.001-.923-.201-1.334-.556-.445-.383-.875-1.175-.877-1.613-.001-.385-.182-.725-.452-.85-.273-.124-.3-.125-.585-.01zM4.257 14.425l-.41.413-.414-.409-.413-.41.405-.417.406-.418.418.414.418.415-.41.412zm41.971-.006l-.411.422-.41-.413-.41-.413.407-.417.406-.417.414.409.415.408-.411.421zm-33.22-1.043c-1.123.188-2.242 1.068-2.745 2.157-.13.285-1.017 2.75-1.97 5.48-.952 2.729-1.761 4.928-1.798 4.886-.037-.042-.141-.384-.231-.76-.345-1.44-.337-1.423-.69-1.571-.404-.17-3.92-.2-4.383-.037-.16.056-.342.212-.402.347-.163.36-.145 3.65.021 3.87.236.314.638.371 2.59.371 1.064 0 1.934.025 1.934.056s-.536.812-1.191 1.735c-.656.923-1.287 1.835-1.403 2.026-.483.795-.51 1.134-.508 6.489.002 2.934.042 5.16.099 5.407.153.667.474 1.267.973 1.817l.463.51.032 1.43c.034 1.554.083 1.706.7 2.17.252.19.415.202 2.985.23 2.572.027 2.74.018 3.127-.171.651-.318.834-.745.834-1.948v-.988h26.577v.988c0 1.203.183 1.63.834 1.948.388.189.556.198 3.128.17 2.57-.027 2.732-.04 2.985-.23.616-.463.665-.615.7-2.17l.031-1.428.463-.51c.5-.551.82-1.151.974-1.818.13-.572.127-10.249-.004-10.823-.157-.686-.457-1.202-1.771-3.05-.676-.95-1.229-1.753-1.229-1.784 0-.03.867-.056 1.926-.056 2.07 0 2.446-.064 2.62-.45.149-.328.149-3.462 0-3.791-.06-.135-.242-.29-.403-.347-.463-.163-3.979-.133-4.382.037-.353.148-.346.131-.69 1.57-.09.377-.194.719-.231.76-.037.043-.846-2.156-1.799-4.885-.952-2.73-1.839-5.195-1.97-5.48a3.86 3.86 0 00-2.834-2.164c-.78-.127-22.596-.121-23.361.007zm23.269 1.46c.57.13 1.103.491 1.401.947.224.34 3.837 10.457 3.837 10.74 0 .105-.462.13-2.328.13-2.2 0-2.34.011-2.522.196-.21.21-.252.588-.1.875.18.34.632.395 3.208.395h2.498l1.56 2.2c.858 1.21 1.637 2.343 1.732 2.517.155.287.173.734.199 4.884l.028 4.569H32.494l-.002-2.712c-.001-1.491-.042-2.986-.09-3.322-.218-1.518-1.264-2.767-2.681-3.2-.705-.215-9.27-.215-9.974 0-1.417.433-2.464 1.682-2.682 3.2-.048.336-.088 1.83-.09 3.322l-.001 2.712H3.678l.028-4.569c.025-4.15.043-4.597.199-4.884.094-.174.873-1.306 1.73-2.515l1.56-2.2 13.568-.025 13.568-.026.213-.214c.261-.264.279-.736.036-1.006-.175-.195-.271-.197-13.402-.197-10.906 0-13.225-.022-13.225-.13 0-.24 3.59-10.352 3.793-10.684.277-.451.787-.824 1.33-.972.588-.159 22.514-.189 23.2-.03zm-23.03.92c-.718.257-.758.342-2.346 4.878-.821 2.346-1.493 4.328-1.493 4.404 0 .076.105.262.234.413l.234.274h29.715l.234-.274c.13-.151.234-.337.234-.413 0-.076-.673-2.064-1.497-4.416-1.628-4.651-1.643-4.681-2.45-4.907-.25-.07-3.95-.102-11.427-.1-9.208.004-11.121.027-11.437.14zm22.545 1.349c0 .015.545 1.582 1.212 3.482.667 1.9 1.213 3.491 1.213 3.538 0 .048-5.908.085-13.483.085s-13.483-.037-13.483-.085c0-.047.546-1.639 1.213-3.538a405.41 405.41 0 001.212-3.482c0-.016 4.976-.029 11.058-.029s11.058.013 11.058.029zM4.922 25.77c.107.428.17.801.141.83-.029.03-.7.053-1.491.053H2.133v-1.661h2.595l.194.778zm42.392.028l-.028.806-1.353.028c-.745.015-1.406.007-1.47-.018-.087-.034-.067-.245.08-.834l.196-.788h2.603l-.028.806zm-39.45 6.585c-.232.296-.246.418-.089.765.184.406.585.46 3.218.426 2.398-.031 2.41-.032 2.595-.262.24-.3.236-.744-.009-.99-.185-.187-.323-.196-2.854-.196h-2.66l-.202.257zm28.025-.062c-.245.247-.25.692-.01.99.185.23.198.232 2.596.263 2.633.033 3.034-.02 3.218-.426.157-.347.143-.47-.089-.765l-.2-.257h-2.661c-2.531 0-2.67.01-2.854.195zm-6.202 2.321c.517.264 1.158.958 1.158 1.253 0 .12-.892.14-6.111.14-5.219 0-6.111-.02-6.111-.14 0-.295.64-.989 1.158-1.253l.526-.269h8.854l.526.269zm-20.648.027c-1.785.47-2.865 1.557-2.865 2.88 0 1.745 1.934 3.014 4.592 3.014 1.602 0 2.894-.446 3.77-1.302 1.35-1.32.914-3.2-.963-4.158-1.234-.63-3.112-.81-4.534-.434zm28.049-.005c-1.355.358-2.31 1.029-2.717 1.908-.738 1.592.413 3.22 2.708 3.83.815.218 2.442.214 3.271-.006 1.327-.353 2.31-1.021 2.741-1.865.444-.867.2-1.99-.601-2.773-1.148-1.123-3.494-1.598-5.402-1.094zm-24.546 1.562c.756.292 1.328.842 1.328 1.276 0 .713-1.194 1.447-2.63 1.615-1.709.2-3.846-.81-3.625-1.712.131-.534.832-1.044 1.817-1.323.756-.214 2.379-.139 3.11.144zm27.948.005c.64.247 1.278.796 1.366 1.174.209.907-1.922 1.912-3.628 1.712-1.407-.165-2.63-.903-2.63-1.587 0-.568.703-1.148 1.748-1.443.786-.221 2.39-.148 3.145.144zm-9.472 2.075l-.028.807H18.477l-.028-.806-.028-.807h12.626l-.029.806zm.02 3.152v.83H18.43v-1.66h12.61v.83zm14.55 2.435c0 .275-.64.979-1.113 1.224l-.482.25H5.474l-.481-.25c-.473-.245-1.114-.949-1.114-1.224 0-.12 2.889-.139 20.855-.139s20.854.02 20.854.14zM9.99 47.713v.83H5.237v-1.661H9.99v.83zm34.24 0v.83h-4.753v-1.661h4.753v.83z" fill="#E30D16"/></svg>