<svg width="56" height="50" viewBox="0 0 56 50" fill="none" xmlns="http://www.w3.org/2000/svg"><path fill-rule="evenodd" clip-rule="evenodd" d="M28.046.063c-.03.05-.73 1.55-1.555 3.332-.825 1.783-1.534 3.275-1.575 3.316-.062.061-6.707.665-7.32.665-.124 0-.24.187-.351.569l-.167.569.812.776c.446.428 1.656 1.565 2.687 2.528 1.032.962 1.89 1.781 1.908 1.82.026.056-1.447 6.569-1.619 7.159-.03.103.142.311.437.529l.487.359 2.548-1.418a490.68 490.68 0 013.288-1.817l.739-.399 3.212 1.94 3.213 1.94.45-.312c.247-.17.451-.387.453-.481.002-.094-.303-1.749-.679-3.677-.375-1.929-.654-3.553-.618-3.61.035-.058 1.309-1.182 2.83-2.499l2.768-2.394-.177-.554c-.21-.659.252-.54-4.233-1.09-1.844-.226-3.37-.446-3.39-.487-.02-.042-.685-1.586-1.478-3.432L29.274.04l-.586-.034c-.323-.019-.612.007-.642.057zm1.797 5.794c1.001 2.387 1.133 2.638 1.405 2.69.165.031 1.491.199 2.947.372 1.455.172 2.632.352 2.615.4-.018.047-.902.836-1.965 1.754a125.765 125.765 0 00-2.186 1.914l-.253.246.566 2.891c.311 1.59.553 2.901.538 2.915-.016.013-1.169-.666-2.562-1.509l-2.533-1.532-2.579 1.428c-1.418.785-2.597 1.408-2.62 1.385-.042-.042 1.21-5.516 1.292-5.649.025-.04-.946-.987-2.158-2.104-1.211-1.118-2.186-2.05-2.167-2.071.02-.021 1.203-.137 2.63-.257 1.428-.12 2.754-.245 2.947-.276.335-.055.405-.176 1.584-2.73.68-1.47 1.27-2.633 1.314-2.586.043.048.577 1.271 1.184 2.72zm-15.722.235c-.17.033-.318.194-.428.468-.092.23-.67 1.493-1.284 2.806l-1.115 2.389-1.526.13-3.144.271-1.62.14-.194.618-.195.619.393.303c.215.168 1.185 1.042 2.154 1.943l1.919 1.783c.131.12.043.628-.56 3.22l-.715 3.075.275.226c.667.548.523.59 3.44-1.021 2.287-1.263 2.748-1.48 2.956-1.384.135.061 1.36.786 2.723 1.609l2.478 1.497.486-.35.487-.349L20.049 21l-.602-3.086.472-.406c.26-.224.55-.465.646-.537.15-.111.098-.22-.37-.767-.3-.351-.584-.638-.633-.638-.048 0-.505.36-1.014.802-.6.52-.926.884-.926 1.037 0 .128.179 1.18.398 2.336.218 1.156.397 2.127.397 2.159 0 .07-.692-.33-2.426-1.405-.829-.513-1.469-.835-1.663-.835-.187 0-1.098.437-2.234 1.07-1.055.59-1.933 1.057-1.95 1.04-.018-.017.174-.916.426-1.997.252-1.082.458-2.155.458-2.386 0-.395-.1-.511-1.649-1.943-1.29-1.19-1.605-1.537-1.45-1.592.11-.039 1.044-.135 2.075-.213 1.032-.078 2.004-.178 2.16-.222.31-.088.543-.496 1.687-2.956l.655-1.408.938 2.22.939 2.221 1.16.135c.637.075 1.243.159 1.346.187.152.042.202-.064.262-.55.04-.33.1-.737.132-.903.057-.299.047-.304-.717-.379a17.23 17.23 0 01-.868-.098c-.052-.012-.525-1.045-1.05-2.294C15.135 6 15.14 6.009 14.73 6.028a5.201 5.201 0 00-.609.065zm28.084.058c-.074.089-.694 1.354-1.378 2.81-.683 1.457-1.286 2.691-1.338 2.743-.053.052-.352.11-.665.13l-.568.035.038.797c.021.438.073.832.115.877.134.141 2.089-.115 2.272-.297.093-.093.59-1.072 1.105-2.175.515-1.103.962-1.963.992-1.911.276.46 1.56 3.745 1.56 3.99v.315l2.302.271c1.266.149 2.387.302 2.491.34.141.05-.255.453-1.563 1.588-.963.835-1.752 1.597-1.752 1.692 0 .095.183 1.115.406 2.266.223 1.151.39 2.137.37 2.191-.02.054-.878-.409-1.907-1.027-1.119-.674-1.992-1.126-2.172-1.126-.166 0-.732.247-1.257.548-2.316 1.331-2.971 1.654-2.903 1.43.157-.514.983-4.162.983-4.343 0-.176-.782-1.001-1.906-2.01l-.37-.333-.568.558c-.312.308-.567.609-.567.67 0 .06.345.427.767.813l.767.702-.712 3.058-.712 3.059.429.367c.235.203.47.37.521.37.052.001 1.298-.669 2.77-1.489 2.248-1.252 2.716-1.473 2.92-1.379.133.062 1.362.786 2.73 1.61l2.488 1.497.444-.308c.245-.17.463-.338.486-.375.022-.036-.228-1.44-.556-3.119l-.596-3.052 2.194-1.922c1.207-1.057 2.253-2.03 2.324-2.164.097-.182.096-.362-.006-.727l-.136-.485-.927-.118a461.1 461.1 0 00-3.107-.376l-2.18-.257-1.155-2.737c-.635-1.506-1.22-2.806-1.3-2.889-.222-.23-1.011-.303-1.173-.108zM0 28.019v.853h8.868v18.766H0v1.706h4.69c4.479-.001 4.706-.011 5.06-.227.204-.124.472-.393.596-.597.221-.362.226-.592.226-10.265 0-9.674-.005-9.903-.226-10.266a2.128 2.128 0 00-.596-.596c-.354-.216-.581-.227-5.06-.227H0v.853zm12.581 1.384c-.041.041-.075.45-.075.91v.833l2.756.002c1.988.001 2.95.047 3.446.164.38.09 1.889.71 3.354 1.377 1.466.667 3.023 1.374 3.46 1.57l.797.356 4.32.057c4.191.055 4.332.064 4.718.305.536.334.796.81.796 1.458 0 .648-.26 1.124-.796 1.458-.39.243-.49.248-5.258.28l-4.86.034v1.706l5.087-.034 5.088-.035 6.764-2.898 6.764-2.9 1.137.003c.973.002 1.22.043 1.706.28.62.305 1.69 1.295 1.622 1.502-.057.172-21.396 11.516-22.457 11.938-1.118.446-2.384.608-3.458.444-.458-.07-2.086-.53-3.618-1.024l-5.482-1.766-2.697-.868-1.595-.069-1.594-.068v1.855h2.749l5.315 1.708c2.923.94 5.694 1.79 6.157 1.887 1.012.215 2.881.16 3.912-.114.954-.255 2.018-.799 14.21-7.273 9.941-5.277 10.799-5.756 10.772-6.004-.016-.148-.213-.646-.439-1.106-1.149-2.348-3.835-3.632-6.353-3.036-.375.088-2.928 1.111-5.672 2.273-2.744 1.161-5.027 2.111-5.072 2.111-.045 0-.116-.285-.157-.633-.137-1.175-.92-2.277-1.991-2.805-.509-.251-.642-.26-4.843-.315l-4.32-.057-3.184-1.457c-3.711-1.7-4.21-1.882-5.51-2.02-1.127-.118-5.387-.141-5.499-.03zM4.674 43.816c-.362.2-.572.603-.577 1.105a1.172 1.172 0 001.62 1.085c.517-.216.764-.59.76-1.152-.005-.934-.98-1.495-1.803-1.038z" fill="#E30D16"/></svg>