<svg width="44" height="50" viewBox="0 0 44 50" fill="none" xmlns="http://www.w3.org/2000/svg"><path fill-rule="evenodd" clip-rule="evenodd" d="M18.858.118c-.622.275-.905.783-.98 1.763-.025.315-.07.355-.635.566-2.023.755-4.003 2.258-5.105 3.876-.78 1.144-1.525 3.013-1.525 3.826 0 .123-.057.24-.127.26-.07.021-.354.097-.633.169-.38.098-.633.257-1.016.64-.75.75-.956 1.67-.567 2.527l.183.403-.331.48c-1.676 2.436-.717 5.894 1.906 6.88.52.194.535.221.637 1.11.239 2.082 1.462 4.54 3.094 6.22l.667.685-.312.098c-.172.054-1.52.467-2.995.919-1.476.451-2.956.963-3.29 1.137-.925.481-1.888 1.489-2.368 2.479-.22.452-.43.996-.465 1.21-.06.348-.108.399-.49.511-1.597.47-3.307 1.889-4.094 3.398-.494.946-.53 1.256-.181 1.603l.248.247h5.065l.51.752c.28.413.509.801.509.862 0 .06-.23.448-.51.862l-.509.751H.48l-.248.248c-.35.348-.313.667.182 1.591 1.016 1.902 2.79 3.207 4.956 3.65.692.14 2.566.159 16.468.159 16.973 0 16.44.016 17.815-.54 1.509-.611 2.87-1.838 3.644-3.285.486-.908.521-1.228.173-1.575l-.248-.248h-5.066l-.51-.751c-.28-.414-.509-.802-.509-.862 0-.06.23-.448.51-.862l.509-.752h5.064l.248-.247c.329-.328.313-.639-.07-1.395-.837-1.654-2.28-2.931-3.98-3.523-.624-.216-.655-.243-.718-.616-.037-.214-.252-.76-.478-1.212-.497-.992-1.447-1.984-2.351-2.455-.334-.174-1.815-.686-3.29-1.137a1256.12 1256.12 0 01-3.003-.922l-.32-.1.685-.698c1.633-1.666 2.851-4.11 3.09-6.202.103-.889.118-.916.639-1.11 2.622-.986 3.58-4.444 1.905-6.88l-.33-.48.182-.403c.369-.814.187-1.722-.495-2.478-.43-.477-.576-.55-1.72-.86-.07-.02-.127-.135-.127-.258 0-.762-.745-2.685-1.426-3.683-1.188-1.74-2.909-3.094-5.003-3.935l-.81-.325-.061-.616c-.065-.65-.25-.99-.737-1.353-.264-.197-.43-.21-3.082-.232-2.175-.018-2.87.007-3.11.113zm5.32 1.517c0 .023-.136 1.252-.303 2.73-.167 1.48-.304 2.73-.304 2.782 0 .053-.74.093-1.721.093-.981 0-1.721-.04-1.721-.093a203 203 0 00-.304-2.781 405.032 405.032 0 01-.303-2.731c0-.024 1.047-.043 2.328-.043 1.28 0 2.328.02 2.328.043zM18.413 6.23c.121 1.137.262 2.146.313 2.242.185.348.455.38 3.174.38h2.694l.248-.247c.137-.136.248-.306.248-.378-.002-.214.41-3.944.462-4.188l.048-.225.58.254c2.015.884 3.521 2.183 4.506 3.888.32.553.783 1.885.783 2.25v.26H12.232v-.26c0-.423.486-1.738.907-2.453.83-1.411 2.106-2.544 3.849-3.417.954-.478 1.072-.515 1.134-.353.038.099.169 1.11.29 2.247zm15.338 6.097a.811.811 0 01.249.56.811.811 0 01-.249.559l-.248.247H10.198l-.248-.247a.811.811 0 01-.249-.56.81.81 0 01.249-.559l.248-.247h23.304l.248.247zM10.195 15.27l.316.063v2.307c0 1.269-.037 2.307-.083 2.307-.045 0-.275-.164-.51-.364-1.103-.941-1.326-2.64-.514-3.916.314-.493.313-.492.79-.397zm24.101.397c.812 1.276.59 2.975-.514 3.916-.235.2-.464.364-.51.364-.046 0-.083-1.04-.083-2.313v-2.312l.228-.044c.515-.099.59-.066.879.389zm-2.754 3.246c-.046 3.876-.073 4.111-.646 5.56-.503 1.272-1.141 2.22-2.214 3.288-1.387 1.382-2.794 2.178-4.67 2.642-.992.246-3.271.246-4.288 0-3.634-.878-6.304-3.473-7.315-7.113-.195-.703-.217-1.09-.254-4.377l-.04-3.605h19.47l-.043 3.605zm-16.03 12.909a6.455 6.455 0 003.698 4.688c3.773 1.723 8.169-.574 8.978-4.693.137-.694.207-.874.323-.83.081.031.351.108.6.17.247.062.473.172.5.243.028.072-.047.485-.166.918-1.014 3.68-3.284 6.268-6.138 6.995-3.38.86-6.91-1.394-8.532-5.45-.36-.9-.751-2.277-.695-2.446.032-.093.84-.409 1.199-.468.033-.005.138.388.234.873zm2.347-.321c1.443.54 2.302.69 3.991.69 1.69 0 2.548-.15 3.991-.69.38-.143.726-.259.769-.259.13 0-.093.817-.407 1.491-.744 1.595-2.567 2.745-4.353 2.745-1.785 0-3.608-1.15-4.352-2.745-.315-.674-.538-1.491-.408-1.491.044 0 .39.116.769.259zm-5.157 1.283c.638 2.395 1.8 4.379 3.49 5.963l.815.765-1.856-.003-1.856-.003-.353-.614c-.445-.774-1.782-2.046-2.614-2.489l-.627-.332v-3.406l1.19-.364c.654-.2 1.235-.38 1.29-.4.224-.081.297.043.52.883zm20.107-.484l1.19.365v3.406l-.627.332c-.832.443-2.17 1.715-2.614 2.489l-.353.614-1.855.003-1.854.003.846-.798c1.636-1.543 2.817-3.55 3.422-5.819.292-1.096.28-1.068.478-1.01.098.027.713.214 1.367.415zM8.082 34.522v1.062l-.684-.067c-.376-.037-.698-.08-.717-.095-.103-.087.441-1.018.85-1.454.263-.279.494-.507.514-.507.02 0 .037.477.037 1.061zm28.719.329c.144.293.244.547.223.566-.021.018-.346.063-.722.1l-.684.067V33.42l.46.45c.254.247.579.689.723.982zM8.006 37.239c1.006.212 2.034.785 2.809 1.563 3.112 3.126 1.547 8.422-2.79 9.441-1.296.304-2.903.056-4.086-.631-.475-.276-1.73-1.408-1.73-1.561 0-.047.892-.085 1.982-.085 1.177 0 2.06-.043 2.177-.105.108-.058.606-.714 1.107-1.46.65-.968.91-1.442.91-1.662 0-.22-.26-.695-.91-1.663-.5-.745-.999-1.402-1.107-1.46-.117-.062-1-.104-2.177-.104-1.09 0-1.981-.039-1.981-.085 0-.152 1.253-1.285 1.724-1.558 1.233-.717 2.634-.933 4.072-.63zm30.692.149c.33.114.808.33 1.063.478.475.276 1.73 1.408 1.73 1.56 0 .047-.892.086-1.981.086-1.178 0-2.061.042-2.178.105-.108.057-.606.714-1.107 1.46-.65.967-.91 1.442-.91 1.662 0 .22.26.694.91 1.662.5.746.999 1.402 1.107 1.46.117.062 1 .105 2.178.105 1.089 0 1.98.038 1.98.085 0 .153-1.254 1.285-1.729 1.56-2.214 1.287-5.06.902-6.877-.93a5.57 5.57 0 010-7.88c.755-.756 1.793-1.344 2.763-1.564.845-.192 2.269-.122 3.051.15zm-9.002 5.35v1.614H14.004v-3.227h15.692v1.614zm1.05 3.83c.19.327.616.87.95 1.207l.606.611h-20.9l.7-.745c.383-.41.81-.954.945-1.21l.248-.465 8.555.003 8.555.003.342.595z" fill="#E30D16"/></svg>