<svg width="40" height="40" viewBox="0 0 40 40" fill="none" xmlns="http://www.w3.org/2000/svg"><path fill-rule="evenodd" clip-rule="evenodd" d="M9.79.067c-1.107.2-1.982.65-2.823 1.449-.457.434-.747.792-.95 1.172-.522.98-.597 1.29-.596 2.461 0 .946.023 1.114.219 1.628.304.801.672 1.353 1.302 1.956 1.003.96 2.074 1.415 3.48 1.478 1.086.049 1.674-.064 2.635-.506.65-.298.883-.46 1.442-1 1.118-1.08 1.642-2.37 1.554-3.83-.163-2.693-2.33-4.744-5.12-4.846-.427-.016-.941.001-1.143.038zm18.378.047c-.292.06-.825.249-1.184.42-1.39.66-2.32 1.692-2.789 3.092-.263.782-.295 1.978-.074 2.773.493 1.782 2.002 3.223 3.847 3.674 1.847.452 3.762-.047 5.103-1.328 1.048-1 1.569-2.188 1.578-3.596.006-.905-.113-1.41-.522-2.227C33.052.78 30.586-.383 28.167.115zM11.442 1.982c2.533.513 3.501 3.474 1.743 5.334C12.15 8.412 10.35 8.668 9 7.911 7.482 7.06 6.915 5.22 7.7 3.699c.564-1.091 1.679-1.77 2.987-1.82.112-.005.451.042.753.103zm18.391-.038c2.232.35 3.475 2.606 2.516 4.567-.98 2.004-3.764 2.468-5.402.9-.678-.647-.993-1.367-.99-2.262.003-.992.326-1.712 1.063-2.371.466-.417 1.12-.736 1.702-.83.545-.088.576-.088 1.111-.004zm-24.119 9.81c-1.671.352-2.962 1.091-4.072 2.332-.524.586-1.188 1.826-1.427 2.666-.17.595-.18.811-.208 4.428-.019 2.514 0 3.907.057 4.11.131.465.512.911.958 1.121l.395.186h4.084c3.883 0 4.097-.007 4.344-.15a.92.92 0 00.033-1.588c-.184-.12-.462-.14-2.15-.162l-1.94-.024V21.55c0-3.322-.025-3.546-.397-3.737-.208-.106-.629-.108-.833-.003-.39.2-.404.328-.404 3.705v3.168H1.937l.03-3.575c.035-3.968.024-3.876.618-4.98.415-.775 1.405-1.705 2.222-2.09 1.143-.537 1.194-.541 6.24-.5 2.476.019 4.572.04 4.658.046.691.05 1.14-.89.687-1.44-.39-.476-.31-.469-5.459-.486-3.786-.012-4.798.007-5.219.096zm18.697-.034c-.678.127-1.011.503-.953 1.072.065.626.541.9 1.354.778.244-.037 2.394-.056 4.779-.043 4.221.023 4.35.028 4.868.196a5.24 5.24 0 013.302 3.143l.25.668.024 3.574.025 3.575h-2.209l-.023-3.288-.023-3.289-.23-.188c-.426-.351-1.096-.195-1.275.297-.057.156-.088 1.334-.088 3.348v3.108l-1.94.025c-1.687.023-1.967.044-2.15.163a.92.92 0 00.033 1.588c.246.143.46.15 4.343.15h4.084l.396-.186c.445-.21.826-.656.957-1.121.057-.203.077-1.611.058-4.149l-.028-3.842-.226-.698c-.686-2.122-2.17-3.705-4.227-4.506-1.145-.445-1.364-.461-6.258-.452-2.462.005-4.641.04-4.843.077zm-4.985 1.57c-2.004.174-3.873 1.628-4.502 3.501-.243.725-.294 1.92-.115 2.69.412 1.772 1.85 3.26 3.663 3.787 3.04.886 6.256-1.002 6.83-4.01.41-2.143-.708-4.329-2.77-5.42-.867-.458-1.949-.65-3.105-.549zm1.59 1.988c1.623.53 2.622 2.045 2.343 3.557-.436 2.368-3.138 3.519-5.196 2.212-2.373-1.507-1.84-4.955.893-5.78.482-.147 1.495-.14 1.96.011zm-5.807 9.83c-2.367.423-4.236 1.806-5.25 3.885-.62 1.267-.604 1.13-.638 5.57-.034 4.405-.038 4.367.485 4.88.57.557-.265.513 10.12.536l9.362.021.44-.22c.32-.16.505-.322.685-.6l.246-.382V34.69l-.001-4.108-.234-.664c-.881-2.506-2.731-4.153-5.323-4.74-.781-.177-8.97-.235-9.892-.07zm9.827 2.014c.886.252 1.498.609 2.203 1.281.436.415.668.722.92 1.211.552 1.07.578 1.296.58 5.129v3.38h-2.205v-6.541l-.197-.204c-.368-.38-.906-.356-1.227.055-.163.208-.17.323-.191 3.452l-.024 3.237h-9.791l-.023-3.237c-.022-3.129-.029-3.244-.191-3.452-.321-.411-.86-.435-1.228-.055l-.197.204v6.54H11.26v-3.425c0-3.82.027-4.056.59-5.157.554-1.084 1.953-2.158 3.208-2.462.803-.195.82-.195 5.146-.17 4.139.024 4.17.025 4.832.214z" fill="#fff"/></svg>