<svg width="40" height="40" viewBox="0 0 40 40" fill="none" xmlns="http://www.w3.org/2000/svg"><path fill-rule="evenodd" clip-rule="evenodd" d="M18.837.051c-2.041.365-3.472 1.616-4.063 3.552-.165.541-.192.787-.196 1.8-.004.862.033 1.348.14 1.837.31 1.433.976 2.93 1.747 3.929l.428.553-.034.646c-.028.53-.07.7-.238.955-.323.488-.646.642-1.52.724-1.615.153-2.573.585-3.626 1.633-.56.557-.733.793-1.037 1.411-.494 1.007-.596 1.595-.596 3.451 0 1.615.047 1.834.428 2.007.29.133 6.277.133 6.568 0 .38-.173.525-.663.316-1.068-.2-.386-.322-.402-3.135-.402h-2.614v-.974c0-.535.039-1.16.086-1.387.2-.957.886-1.957 1.704-2.482.574-.369 1.184-.552 2.106-.632.708-.062.914-.113 1.387-.347.674-.333 1.125-.8 1.463-1.514.241-.51.247-.549.247-1.625v-1.104l-.333-.362c-1.078-1.17-1.837-3.05-1.947-4.82C15.953 3.17 17.43 1.535 20 1.535c2.57 0 4.047 1.634 3.882 4.297-.11 1.77-.87 3.65-1.947 4.82l-.333.362v1.104c0 1.076.006 1.116.247 1.625.338.715.79 1.181 1.463 1.514.473.234.68.285 1.387.347.922.08 1.532.263 2.106.632.818.525 1.504 1.525 1.704 2.482.047.228.086.852.086 1.387v.974h-2.614c-2.813 0-2.935.016-3.135.402-.209.405-.064.895.316 1.068.291.133 6.278.133 6.568 0 .382-.174.428-.39.428-2.017 0-1.83-.102-2.417-.595-3.428a5.592 5.592 0 00-2.811-2.653c-.523-.22-.992-.322-1.882-.406-.843-.08-1.171-.239-1.49-.722-.168-.254-.211-.424-.239-.95l-.033-.643.44-.583c.792-1.051 1.427-2.48 1.734-3.907.217-1.005.203-2.732-.03-3.543-.527-1.839-1.727-3.022-3.583-3.533-.55-.15-2.24-.218-2.832-.113zm.781 21.137c-.677.376-.394 1.455.382 1.455.396 0 .782-.382.782-.775 0-.587-.649-.966-1.164-.68zM6.161 22.791c-.103.082-.568.918-1.037 1.862l-.851 1.713-1.884.267c-1.86.264-1.887.27-2.138.515-.28.275-.323.533-.142.874.062.116.706.78 1.433 1.475l1.32 1.264-.296 1.707c-.163.94-.297 1.855-.3 2.035-.004.418.237.715.632.778.251.04.477-.057 2.002-.863l1.72-.908 1.708.9c1.016.533 1.8.899 1.932.899.256 0 .754-.444.754-.673 0-.078-.143-.972-.317-1.987l-.318-1.846 1.412-1.402c1.34-1.33 1.412-1.418 1.411-1.7 0-.358-.1-.564-.334-.695-.095-.053-1.017-.222-2.047-.375l-1.872-.28-.834-1.685c-.54-1.092-.91-1.745-1.049-1.855-.265-.208-.658-.217-.905-.02zm26.824-.05c-.127.06-.44.604-1.063 1.851l-.882 1.765-1.867.276c-1.027.152-1.945.32-2.041.373-.235.13-.334.337-.335.694 0 .284.07.369 1.412 1.698l1.413 1.399-.318 1.849c-.175 1.017-.318 1.912-.318 1.99 0 .23.498.673.754.672.13-.001.94-.376 1.939-.897l1.716-.896 1.715.905c1.514.799 1.748.9 1.995.86.392-.062.633-.36.629-.777-.002-.18-.137-1.096-.3-2.035l-.296-1.707 1.322-1.264c.726-.695 1.37-1.359 1.432-1.475.18-.34.137-.6-.143-.878-.252-.25-.264-.253-2.138-.515l-1.884-.264-.85-1.713c-.47-.944-.935-1.78-1.038-1.86-.205-.164-.574-.186-.854-.052zm-25.77 3.635c.318.634.65 1.218.736 1.296.116.104.503.194 1.435.33.702.104 1.307.189 1.344.19.037.001-.354.406-.869.9-.515.492-.979 1-1.032 1.128-.081.196-.062.429.121 1.487.12.69.198 1.273.176 1.296-.023.023-.513-.21-1.089-.515-.576-.307-1.175-.575-1.331-.597-.243-.035-.45.047-1.43.563-.631.332-1.162.59-1.18.572-.017-.018.055-.54.16-1.162.293-1.712.356-1.5-.798-2.666-.545-.552-.959-1.004-.918-1.005.381-.006 2.585-.405 2.717-.492.094-.063.433-.646.754-1.296.322-.65.594-1.182.605-1.182.012 0 .282.519.6 1.153zm27.558 1.352c.13.069 2.375.457 2.687.464.04.001-.372.454-.918 1.006-1.157 1.17-1.098.971-.798 2.682.107.611.18 1.125.163 1.142-.017.018-.547-.239-1.177-.57-.99-.52-1.184-.596-1.433-.56-.158.023-.758.293-1.332.599-.576.306-1.065.537-1.089.514-.024-.024.055-.608.174-1.298.182-1.053.202-1.291.122-1.485-.053-.126-.515-.634-1.027-1.129-.513-.494-.904-.9-.87-.901.034-.001.637-.086 1.34-.19.931-.136 1.318-.226 1.434-.33.087-.078.422-.67.745-1.314l.587-1.172.614 1.227c.364.726.681 1.263.778 1.315zm-15.217-.256c-.094.075-.556.911-1.027 1.86l-.855 1.724-1.926.278c-1.675.242-1.95.301-2.115.455-.22.208-.308.524-.214.776.036.099.685.8 1.443 1.56l1.377 1.38-.322 1.876c-.201 1.177-.3 1.958-.266 2.094.063.245.46.525.747.525.102 0 .956-.404 1.897-.899l1.71-.9 1.704.9c.937.495 1.789.9 1.892.899.288 0 .685-.28.748-.525.035-.136-.064-.917-.266-2.094l-.322-1.877 1.377-1.38c.758-.759 1.407-1.46 1.443-1.559.094-.251.007-.568-.212-.773-.158-.15-.445-.215-1.93-.44-.959-.145-1.823-.264-1.92-.264-.152-.001-.296-.242-1.04-1.74-.475-.958-.94-1.801-1.035-1.875a.836.836 0 00-.444-.136.83.83 0 00-.444.136zm1.043 3.612c.374.777.626 1.207.762 1.296.124.081.69.206 1.468.322.696.104 1.278.2 1.293.216.015.015-.378.408-.874.873-.496.466-.954.957-1.018 1.092-.107.225-.098.354.106 1.528.122.706.21 1.295.197 1.311-.013.016-.534-.24-1.156-.567-.697-.366-1.225-.595-1.372-.595-.147 0-.68.23-1.377.596-.625.327-1.148.582-1.163.566-.015-.015.074-.605.198-1.31.208-1.187.216-1.3.105-1.533-.066-.139-.524-.63-1.018-1.093-.494-.463-.886-.853-.871-.868.014-.015.596-.112 1.292-.216.778-.116 1.344-.24 1.469-.322.135-.089.387-.519.761-1.296.308-.64.578-1.163.6-1.163.02 0 .29.523.598 1.163z" fill="#fff"/></svg>