<svg width="40" height="40" viewBox="0 0 40 40" fill="none" xmlns="http://www.w3.org/2000/svg"><path fill-rule="evenodd" clip-rule="evenodd" d="M18.828.116c-2.023.415-3.563 1.604-4.45 3.436-.467.96-.642 1.708-.641 2.734 0 2.856 1.753 5.194 4.545 6.064.5.156.75.183 1.718.183s1.218-.027 1.718-.183c2.29-.714 3.95-2.485 4.426-4.722.158-.742.153-1.975-.011-2.709-.176-.787-.792-2.033-1.314-2.656C23.366.526 20.986-.327 18.83.116zm2.454 1.339c1.321.33 2.576 1.354 3.222 2.63.292.577.495 1.478.495 2.201a5.027 5.027 0 01-3.46 4.777c-.547.181-.773.212-1.539.212-.766 0-.992-.031-1.54-.212-2.505-.825-3.958-3.464-3.308-6.007.69-2.7 3.39-4.286 6.13-3.601zm-3.135 5.712c-.222.036-.49.373-.49.616 0 .265.537.816 1.044 1.073 1.102.558 2.529.322 3.333-.551.355-.385.39-.63.133-.916-.28-.313-.645-.302-1.023.03-.686.604-1.63.62-2.237.04-.232-.22-.52-.332-.76-.292zm.096 6.859a11.086 11.086 0 00-6.393 3.544c-1.642 1.848-2.7 4.512-2.705 6.81-.001.6.017.687.18.84.172.162.247.17 1.704.17 1.492 0 1.527-.004 1.694-.181.247-.264.23-.698-.036-.908-.185-.145-.312-.162-1.244-.162h-1.038l.043-.449c.073-.759.47-2.162.83-2.931 1.3-2.786 3.803-4.766 6.851-5.423.916-.198 2.826-.198 3.742 0 3.048.657 5.55 2.637 6.852 5.423.36.769.757 2.172.83 2.931l.043.45H14.604l-.192.191a.588.588 0 000 .867l.192.191h15.913l.17-.18c.147-.157.17-.27.168-.84 0-.363-.051-.958-.112-1.323a10.934 10.934 0 00-9.061-9.027c-.864-.14-2.591-.137-3.44.007zM5.95 28.155c-.124.068-.476.654-1.042 1.735-.47.898-.862 1.639-.869 1.646a89.7 89.7 0 01-1.848.33c-1.681.289-1.85.332-2.01.518-.371.426-.302.536 1.447 2.312l1.047 1.063-.274 1.821c-.178 1.187-.25 1.882-.208 1.996.084.219.371.424.595.424.095 0 .913-.368 1.818-.82l1.647-.818 1.646.819c.906.45 1.733.819 1.84.819.281 0 .575-.329.575-.644 0-.144-.107-.975-.239-1.847-.13-.872-.227-1.632-.214-1.688.013-.056.616-.724 1.34-1.484 1.252-1.313 1.315-1.393 1.268-1.629-.094-.466-.192-.504-2.16-.836l-1.845-.31c-.008 0-.388-.72-.844-1.6-.974-1.88-1.166-2.087-1.67-1.807zm13.763-.017c-.15.073-.66.966-1.577 2.76a9.782 9.782 0 01-.304.564c-.036.052-.885.235-1.897.408-1.676.287-1.848.331-2.009.515-.37.425-.325.495 1.648 2.509l.852.87-.245 1.669c-.304 2.066-.306 2.194-.038 2.405.114.09.287.162.385.162.098 0 .919-.368 1.825-.82L20 38.363l1.646.819c.906.45 1.727.819 1.825.819.099 0 .271-.073.385-.162.268-.211.266-.339-.038-2.405l-.245-1.668.852-.871c1.973-2.014 2.019-2.084 1.648-2.509-.161-.184-.333-.228-2.009-.515-1.012-.173-1.861-.356-1.897-.409a9.695 9.695 0 01-.304-.563c-1.457-2.853-1.594-3.028-2.15-2.76zm13.696.066c-.116.091-.556.843-1.03 1.758-.457.88-.837 1.6-.845 1.6l-1.845.31c-1.968.332-2.066.37-2.16.836-.047.236.016.316 1.268 1.63.724.759 1.327 1.427 1.34 1.483.013.056-.083.816-.214 1.688-.132.872-.24 1.703-.24 1.847 0 .315.295.644.577.644.106 0 .933-.368 1.839-.82l1.646-.818 1.647.819c.905.45 1.73.819 1.83.819.102 0 .282-.083.4-.185.27-.232.27-.252-.048-2.385l-.25-1.672 1.047-1.063c1.748-1.774 1.817-1.885 1.447-2.311-.161-.186-.33-.229-2.011-.519a84.831 84.831 0 01-1.848-.33c-.007-.006-.398-.747-.869-1.645-.99-1.888-1.18-2.08-1.681-1.686zm-26.531 3.09c.322.624.66 1.205.75 1.291.126.118.48.209 1.466.375.715.12 1.314.233 1.33.25.017.017-.405.496-.938 1.065-1.12 1.194-1.05.952-.78 2.717.1.645.171 1.183.16 1.196-.01.013-.55-.241-1.198-.566-.69-.346-1.277-.591-1.415-.591-.138 0-.726.245-1.415.59-.649.326-1.192.579-1.207.563-.016-.015.058-.588.163-1.274.105-.685.191-1.331.192-1.435.001-.139-.271-.465-1.024-1.225l-1.026-1.036.264-.048c.146-.027.745-.129 1.332-.227.588-.099 1.156-.236 1.263-.307.12-.078.43-.584.8-1.302.333-.646.626-1.174.651-1.173.025 0 .31.512.632 1.137zm13.764.02c.332.637.67 1.22.752 1.293.1.09.573.206 1.448.353.714.12 1.316.236 1.338.258.022.022-.4.501-.938 1.064-.778.815-.978 1.069-.976 1.242 0 .12.085.763.187 1.429s.175 1.222.163 1.235c-.013.013-.553-.241-1.202-.566-.69-.346-1.277-.591-1.415-.591-.138 0-.726.245-1.415.59-.649.326-1.19.58-1.202.567-.012-.013.06-.57.163-1.235.102-.666.186-1.31.187-1.429.002-.173-.198-.427-.976-1.242-.538-.563-.96-1.042-.938-1.064.022-.022.624-.138 1.338-.258.875-.147 1.348-.262 1.448-.353.081-.074.42-.655.752-1.292s.622-1.159.643-1.159c.021 0 .31.522.643 1.159zm13.76.016c.37.718.682 1.224.801 1.302.107.07.675.208 1.263.307.587.098 1.186.2 1.331.227l.265.048-1.026 1.036c-.753.76-1.025 1.086-1.024 1.225 0 .104.087.75.193 1.435.104.686.178 1.259.162 1.274-.015.016-.558-.237-1.207-.562-.689-.346-1.276-.591-1.415-.591-.138 0-.726.245-1.415.59-.648.326-1.188.58-1.199.567-.01-.013.062-.552.16-1.196.27-1.765.34-1.523-.78-2.717-.532-.569-.954-1.048-.938-1.065.017-.017.616-.13 1.331-.25.986-.166 1.34-.257 1.466-.375.09-.086.428-.667.75-1.291.323-.625.607-1.136.632-1.137.025 0 .318.527.65 1.173z" fill="#161921"/></svg>