<svg width="40" height="50" viewBox="0 0 40 50" fill="none" xmlns="http://www.w3.org/2000/svg"><path fill-rule="evenodd" clip-rule="evenodd" d="M7.608.156a2.864 2.864 0 00-1.803 1.931c-.078.266-.136.873-.136 1.419v.953l-1.774.032c-2.03.037-2.336.124-3.052.863C.06 6.16-.13 7.116.079 9.18c.36 3.554 1.534 6.301 3.522 8.237 1.035 1.008 2.297 1.788 3.49 2.158.386.12.456.189.696.697.777 1.639 2.095 3.63 3.37 5.095.726.832 2.111 2.107 3.171 2.919.959.733 1.208.997 1.483 1.567.215.447.222.54.25 3.494l.03 3.035-.71.362c-1.127.575-1.826 1.535-2.056 2.825l-.114.636-.813.042c-.98.051-1.526.276-2.092.86-.794.82-.8.857-.832 4.755L9.446 49.3l.28.324.28.325 9.8.025 9.8.026.31-.286.311-.287v-3.5c0-3.375-.007-3.517-.203-3.955a3.658 3.658 0 00-.601-.864c-.565-.583-1.113-.809-2.086-.86l-.809-.041-.118-.642c-.24-1.308-.99-2.301-2.175-2.879l-.597-.291.03-3.041c.029-2.96.035-3.053.25-3.5.275-.57.524-.834 1.483-1.567 2.752-2.108 4.912-4.721 6.406-7.75.386-.784.43-.835.834-.96 1.206-.378 2.537-1.205 3.531-2.196 1.973-1.965 3.122-4.674 3.479-8.2.208-2.065.018-3.02-.765-3.827-.715-.738-1.024-.826-3.042-.862L34.08 4.46l-.038-1.14c-.028-.894-.08-1.24-.236-1.595-.255-.578-.87-1.216-1.435-1.485l-.44-.21L20.007.008C8.889-.012 8.05-.002 7.608.156zm24.25 2.099l.262.27-.002 5.151c-.003 5.655-.02 5.886-.62 8.218-.496 1.925-1.46 4.149-2.483 5.725-1.183 1.825-2.957 3.722-4.8 5.138-1.15.882-1.543 1.311-1.931 2.11-.492 1.01-.527 1.352-.527 5.177v3.544l.26.295c.201.229.39.32.829.4.918.167 1.563.765 1.707 1.58l.064.365h-9.504l.064-.366a1.931 1.931 0 011.66-1.557c.36-.044.587-.138.796-.33l.293-.27.027-3.582c.029-3.888-.003-4.222-.505-5.253-.39-.802-.782-1.23-1.932-2.113-1.845-1.417-3.623-3.32-4.8-5.138-1.005-1.552-2-3.843-2.48-5.715-.603-2.344-.62-2.57-.623-8.22-.003-5.007.002-5.148.187-5.36.104-.12.274-.253.378-.297.104-.045 5.416-.073 11.804-.062l11.614.019.263.27zM19.675 5.913c-.497.144-.605.304-1.53 2.27a88.373 88.373 0 01-.976 2.037c-.018.019-.898.16-1.957.316-1.059.155-2.08.328-2.27.384-.419.123-.648.459-.648.95 0 .348.093.465 1.601 2.015l1.602 1.646-.365 2.209c-.325 1.97-.35 2.243-.237 2.523.07.173.213.362.318.42.456.252.826.128 2.734-.914l1.867-1.02 1.905 1.02c2.1 1.124 2.416 1.212 2.83.784.126-.13.253-.339.283-.464.03-.126-.108-1.205-.308-2.398l-.362-2.17 1.581-1.63c1.013-1.045 1.598-1.722 1.628-1.885.074-.395-.166-.867-.522-1.028-.172-.078-1.1-.255-2.063-.395-.963-.14-1.87-.278-2.015-.308-.236-.048-.37-.273-1.25-2.089-.543-1.12-1.033-2.064-1.088-2.1-.183-.116-.613-.214-.758-.173zM5.67 9.05c0 3.5.21 5.538.767 7.475.106.368.174.688.152.712-.09.093-1.474-.959-1.977-1.503-1.66-1.797-2.63-4.578-2.667-7.657-.011-.912.01-1.065.176-1.257.3-.345.477-.378 2.059-.384l1.49-.007V9.05zm31.867-2.3c.256.265.262.298.25 1.319-.038 3.087-1.005 5.866-2.668 7.665-.502.544-1.886 1.596-1.976 1.503-.023-.024.045-.344.15-.712.56-1.938.768-3.975.768-7.481V6.416l1.607.03 1.607.031.262.272zm-17.009 3.76c.34.681.721 1.312.852 1.408.193.143 2.347.557 2.962.57.063.002-.387.502-.998 1.112-1.288 1.284-1.237 1.116-.923 2.989.103.618.188 1.2.188 1.292.001.134-.258.029-1.26-.513-.695-.375-1.382-.681-1.527-.681-.145 0-.834.31-1.53.69-.696.38-1.265.645-1.265.589 0-.056.105-.722.234-1.48.205-1.206.218-1.418.107-1.688-.07-.17-.56-.743-1.091-1.272-.53-.53-.949-.98-.93-1 .02-.02.65-.129 1.402-.241.751-.113 1.457-.265 1.569-.34.112-.073.485-.736.83-1.471.345-.735.659-1.305.696-1.267.038.039.346.625.684 1.304zm7.545 31.993l.263.27.028 2.636.028 2.636H11.339l.028-2.628c.026-2.468.04-2.64.217-2.844a1.32 1.32 0 01.379-.298c.104-.045 3.712-.072 8.018-.062l7.829.02.262.27zm-12.335 1.73c-.298.124-.604.577-.604.893 0 .17.108.403.276.597l.276.319 2.225.03 2.225.029.312-.288c.26-.24.312-.358.312-.699 0-.34-.053-.46-.307-.694l-.307-.283-2.104.006c-1.157.004-2.194.044-2.304.09zm7.571 0c-.298.124-.604.577-.604.893 0 .39.435.86.862.93.288.047.392.01.66-.238.266-.245.319-.361.319-.704 0-.34-.053-.46-.307-.694-.311-.287-.567-.338-.93-.187z" fill="#E30D16"/></svg>