<svg width="32" height="40" viewBox="0 0 32 40" fill="none" xmlns="http://www.w3.org/2000/svg"><path fill-rule="evenodd" clip-rule="evenodd" d="M6.128.125A2.298 2.298 0 004.675 1.67c-.062.213-.109.698-.109 1.135v.763l-1.429.025c-1.634.03-1.882.099-2.458.69-.63.646-.784 1.41-.616 3.062.29 2.843 1.236 5.04 2.837 6.59.834.806 1.85 1.43 2.812 1.726.31.096.366.15.56.557.626 1.311 1.687 2.905 2.715 4.076.585.666 1.7 1.686 2.554 2.335.772.587.973.798 1.194 1.254.173.358.179.433.202 2.796l.024 2.427-.572.29c-.908.46-1.47 1.228-1.656 2.26l-.092.509-.655.034c-.789.04-1.229.22-1.685.687-.64.656-.645.686-.67 3.805l-.023 2.75.226.258.226.26 7.893.02 7.893.021.25-.23.25-.228v-2.8c0-2.7-.005-2.814-.163-3.164-.09-.2-.308-.511-.484-.692-.455-.466-.897-.647-1.68-.687l-.652-.034-.095-.513c-.193-1.046-.798-1.841-1.752-2.303l-.48-.233.023-2.433c.024-2.368.029-2.442.202-2.8.221-.456.422-.667 1.194-1.254 2.217-1.686 3.957-3.776 5.16-6.2.311-.627.346-.667.671-.768.972-.302 2.044-.963 2.845-1.756 1.589-1.572 2.514-3.74 2.802-6.56.168-1.652.014-2.416-.616-3.062-.576-.59-.825-.66-2.45-.69l-1.422-.025-.03-.913c-.023-.714-.064-.99-.19-1.275-.205-.463-.701-.973-1.156-1.188l-.354-.168-9.605-.018C7.16-.01 6.484-.002 6.128.125zM25.66 1.804l.211.216-.002 4.121c-.002 4.524-.016 4.708-.5 6.575-.398 1.54-1.174 3.318-1.998 4.58-.954 1.459-2.382 2.977-3.868 4.11-.925.705-1.242 1.049-1.555 1.687-.396.808-.424 1.082-.424 4.142v2.835l.21.237c.162.183.314.255.667.32.74.133 1.26.611 1.375 1.263l.052.293h-7.656l.052-.293a1.551 1.551 0 011.337-1.246c.29-.035.473-.11.641-.264l.235-.216.022-2.866c.024-3.11-.002-3.377-.406-4.202-.314-.642-.63-.984-1.556-1.69-1.487-1.134-2.919-2.656-3.867-4.11-.81-1.242-1.61-3.075-1.998-4.573-.485-1.875-.499-2.056-.501-6.575-.002-4.006.002-4.12.15-4.288.084-.096.221-.203.305-.239.084-.035 4.362-.057 9.507-.05l9.355.016.212.217zM15.847 4.73c-.4.115-.487.242-1.232 1.816a71.005 71.005 0 01-.786 1.63c-.014.014-.724.127-1.576.252-.853.124-1.675.262-1.828.307-.338.099-.523.367-.523.76 0 .278.075.372 1.29 1.612l1.29 1.316-.294 1.768c-.262 1.576-.282 1.794-.19 2.018.056.139.17.29.256.337.366.2.665.102 2.202-.732L15.959 15l1.535.815c1.691.9 1.946.97 2.28.627a.996.996 0 00.227-.371c.024-.1-.087-.964-.248-1.919l-.292-1.736 1.274-1.304c.816-.835 1.287-1.377 1.311-1.507.06-.316-.134-.694-.42-.822-.139-.063-.887-.205-1.662-.317a67.536 67.536 0 01-1.623-.246c-.19-.039-.298-.218-1.007-1.671-.437-.895-.832-1.651-.876-1.68-.148-.093-.494-.172-.61-.138zM4.568 7.239c0 2.8.168 4.43.617 5.98.086.295.14.55.122.57-.073.074-1.187-.767-1.592-1.203-1.338-1.437-2.118-3.662-2.148-6.125-.01-.73.008-.852.142-1.006.24-.276.384-.302 1.658-.307l1.2-.005v2.096zM30.232 5.4c.206.213.211.238.201 1.055-.03 2.47-.809 4.693-2.148 6.132-.405.436-1.52 1.277-1.592 1.203-.018-.02.037-.275.122-.57.45-1.55.618-3.18.618-5.985V5.132l1.294.025 1.294.025.212.217zm-13.7 3.009c.274.544.581 1.049.687 1.126.155.114 1.89.445 2.386.456.05.001-.312.401-.805.889-1.037 1.027-.995.893-.743 2.391.083.495.152.96.152 1.034 0 .107-.208.023-1.016-.41-.559-.3-1.112-.545-1.23-.545-.116 0-.67.248-1.231.552-.561.303-1.02.515-1.02.47 0-.044.085-.577.189-1.184.165-.964.176-1.134.087-1.35-.057-.136-.452-.594-.88-1.017-.427-.424-.764-.784-.748-.8.016-.016.524-.103 1.129-.193.605-.09 1.174-.212 1.263-.271.09-.06.391-.59.67-1.178.277-.588.53-1.044.56-1.013.03.03.278.5.55 1.043zM22.612 34l.211.217.023 2.108.022 2.109H9.133l.022-2.102c.022-1.974.032-2.113.175-2.276.084-.095.221-.202.305-.238.084-.036 2.99-.058 6.459-.05l6.305.016.212.217zm-9.935 1.384c-.24.1-.487.462-.487.715 0 .135.087.322.222.478l.222.255 1.793.023 1.792.024.251-.23c.21-.192.252-.287.252-.56 0-.272-.043-.367-.248-.555l-.247-.226-1.695.005c-.932.002-1.767.035-1.855.071zm6.098 0c-.24.1-.487.462-.487.715 0 .313.35.688.694.744.232.038.316.008.532-.19.214-.196.257-.29.257-.564 0-.272-.043-.367-.248-.555-.25-.23-.456-.27-.748-.15z" fill="#fff"/></svg>