<svg width="40" height="40" viewBox="0 0 40 40" fill="none" xmlns="http://www.w3.org/2000/svg"><path fill-rule="evenodd" clip-rule="evenodd" d="M9.209.104C8.111.4 7.276 1.362 7.092 2.544c-.042.273-.064 1.87-.05 3.677.024 3.075.031 3.208.197 3.612.346.851.905 1.407 1.763 1.755.39.159.558.167 3.885.193l3.478.026 1.367 1.354c1.434 1.418 1.594 1.526 2.266 1.526.673 0 .833-.108 2.267-1.526l1.367-1.354 3.477-.027c3.329-.025 3.495-.034 3.886-.192.83-.336 1.436-.935 1.756-1.733.173-.43.178-.527.203-3.644.027-3.365-.01-3.907-.31-4.545-.26-.556-.798-1.09-1.38-1.375l-.52-.255L28.63.011c-2.06-.024-2.117-.02-2.325.142-.291.23-.294.628-.007.854.196.154.303.162 2.13.163 1.862 0 1.936.007 2.323.187.464.216.779.59.935 1.11.138.459.162 6.116.028 6.738-.099.462-.493.957-.96 1.207-.318.17-.396.174-3.88.212-2.8.031-3.597.062-3.75.146-.108.059-.796.7-1.53 1.427-1.195 1.182-1.36 1.319-1.597 1.319-.236 0-.402-.137-1.597-1.32-.733-.725-1.42-1.367-1.528-1.426-.154-.084-.95-.115-3.751-.146-3.484-.038-3.562-.042-3.88-.212-.467-.25-.862-.745-.96-1.207-.103-.477-.11-6.226-.008-6.663.113-.487.46-.917.936-1.158l.423-.215h7.245c6.962 0 7.252-.006 7.425-.146.251-.203.251-.677 0-.88-.173-.14-.46-.146-7.459-.14-5.507.003-7.365.028-7.635.1zm1.975 2.38c-.873.313-1.373.986-1.372 1.85.001.32.052.568.163.781.286.552.508.695 1.995 1.286 1.16.461 1.467.853 1.067 1.362-.24.304-.556.439-1.03.439-.551 0-1.06-.18-1.448-.512-.545-.467-1.11-.317-1.11.294 0 .227.06.332.323.57.177.16.555.4.84.533.707.331 1.698.387 2.372.133 1.357-.511 1.81-2.036.898-3.025-.387-.42-.52-.495-1.776-1.004-1.114-.452-1.258-.596-1.092-1.097.217-.66 1.196-.765 2-.217.401.275.704.271.946-.01.243-.282.19-.543-.177-.87-.61-.547-1.832-.787-2.599-.513zm6.73-.027c-.187.131-2.604 6.079-2.604 6.41 0 .424.621.676.945.383.075-.068.249-.402.386-.742l.25-.619h2.692l.219.567c.27.7.455.918.782.918.279 0 .587-.27.587-.514 0-.273-2.422-6.238-2.592-6.382-.197-.167-.445-.175-.665-.021zm4.62.076l-.191.192v3.119c0 3.036.004 3.124.162 3.324l.162.206h1.44c1.335 0 1.45-.011 1.596-.156.197-.198.2-.553.007-.792-.14-.175-.207-.186-1.172-.21l-1.023-.026V2.725l-.192-.192c-.105-.105-.283-.192-.394-.192-.112 0-.289.087-.394.192zm4.829-.096c-.314.151-.342.476-.317 3.627.023 2.803.033 2.991.173 3.146.141.156.224.164 1.61.164 1.64 0 1.719-.025 1.719-.56 0-.49-.176-.569-1.337-.599l-1.008-.025V6.483h.967c.859 0 .989-.018 1.172-.162.235-.185.279-.567.095-.82-.097-.133-.238-.156-1.152-.19l-1.043-.04-.022-.878-.022-.88h1.019c.914 0 1.034-.016 1.175-.156a.588.588 0 00-.05-.854c-.19-.15-.305-.161-1.504-.156-.765.003-1.371.04-1.475.09zM19.06 6.656c0 .034-.384.061-.852.061h-.852l.437-1.095.437-1.095.415 1.034c.228.568.415 1.061.415 1.095zm-6.786 10.457c-1.808.245-3.506 1.528-4.19 3.167-.07.165-.39 1.216-.712 2.336-.634 2.2-.744 2.429-1.33 2.75-.2.109-.861.266-1.908.453-1.98.353-2.35.456-2.862.796-.473.314-.739.64-1.03 1.26l-.21.449-.024 2.492c-.022 2.332-.013 2.526.137 3.009.202.65.59 1.179 1.128 1.536.638.424 1.005.504 2.311.504H4.73l.096.464c.127.613.623 1.586 1.067 2.09.458.52 1.306 1.083 2.02 1.34.485.175.687.202 1.498.202.811 0 1.013-.027 1.498-.202 1.543-.555 2.75-1.897 3.072-3.416l.1-.478h6.767l.162-.206c.201-.257.206-.504.012-.743l-.15-.184-3.388-.022-3.388-.022-.136-.518c-.23-.875-.582-1.49-1.227-2.138-.957-.962-2-1.403-3.322-1.403-1.336 0-2.32.41-3.287 1.368-.693.687-1.11 1.412-1.29 2.246l-.097.45H3.63c-1.026 0-1.133-.014-1.502-.198a1.744 1.744 0 01-.886-1.059c-.042-.146-.076-.838-.076-1.536v-1.27l.527-.002c1.261-.004 2.107-.284 2.726-.904.59-.59.888-1.4.888-2.413v-.498l.41-.086c.886-.187 1.692-.785 2.077-1.54.087-.17.424-1.234.75-2.366.326-1.13.69-2.234.808-2.451.473-.87 1.402-1.633 2.363-1.941.403-.13.788-.172 1.863-.205 1.236-.038 1.368-.055 1.505-.201.19-.205.19-.531 0-.767-.143-.177-.196-.185-1.231-.197-.595-.007-1.305.018-1.577.054zm4.86.007c-.166.084-.34.375-.34.57 0 .056.072.195.161.308l.162.206 3.257.002c1.791 0 3.503.036 3.804.078.788.11 1.699.577 2.3 1.178.438.438.577.68 1.852 3.217 1.133 2.255 1.442 2.807 1.74 3.105.537.537 1.05.751 2.192.915l.972.14.551 1.204c.629 1.373.956 1.8 1.668 2.18.56.299 1.193.402 2.465.405l.924.001-.025 1.426c-.028 1.544-.058 1.67-.507 2.123-.425.43-.734.511-1.941.512l-1.094.002-.178-.638c-.238-.853-.56-1.398-1.224-2.066-.907-.913-1.985-1.359-3.287-1.359-1.298 0-2.361.442-3.287 1.364-.66.658-.985 1.204-1.224 2.056l-.178.634-1.433.024c-1.398.024-1.437.03-1.582.21-.194.238-.19.485.012.742l.162.206h2.86l.09.453c.346 1.766 1.952 3.294 3.795 3.615 2.034.355 4.112-.73 5.017-2.62a5.32 5.32 0 00.356-.999l.093-.45h1.144c.758 0 1.267-.036 1.51-.11.888-.267 1.614-.99 1.926-1.92.158-.472.168-.622.136-2.072-.03-1.346-.058-1.638-.21-2.11-.516-1.605-1.831-2.96-3.384-3.484-.28-.094-1.345-.278-2.482-.43-2.425-.323-2.326-.302-2.757-.576-.337-.214-.407-.334-1.727-2.949-1.509-2.99-1.831-3.477-2.73-4.119a5.712 5.712 0 00-1.812-.876c-.406-.117-.94-.138-4.024-.158-2.428-.016-3.608.003-3.723.06zm-5.38 2.564c-.216.125-.469.344-.563.487-.25.379-1.352 4.08-1.352 4.541 0 .754.507 1.454 1.204 1.66.55.164 14.847.167 15.304.004.736-.263 1.192-.913 1.182-1.686-.005-.38-.112-.654-.925-2.383-.506-1.075-1.015-2.075-1.132-2.224a2.046 2.046 0 00-.55-.45l-.339-.178h-6.22l-6.219.001-.39.228zM18.2 22.97v2.344h-3.389c-3.31 0-3.393-.003-3.594-.162a.478.478 0 01-.206-.394c0-.34 1.061-3.81 1.218-3.984.128-.14.286-.148 3.053-.148H18.2v2.344zm6.272-2.247c.107.081 1.625 3.174 1.867 3.805.1.26-.049.594-.312.703-.142.059-1.215.08-3.412.065l-3.204-.02-.02-2.325-.021-2.325h2.487c1.869 0 2.518.024 2.615.098zM4.135 27.412c0 .593-.19 1.112-.525 1.433-.464.445-.723.54-1.629.59l-.815.047v-.344c0-.526.138-.91.448-1.253.378-.418.6-.52 1.491-.69 1.095-.208 1.03-.222 1.03.217zm31.847-.135c.823.254 1.665.898 2.177 1.665.353.528.332.542-.762.5-1.516-.058-1.831-.273-2.45-1.669l-.335-.755.446.055c.246.031.661.123.924.204zm-16.964.576c-.105.105-.192.282-.192.394 0 .111.087.289.192.394.19.19.211.192 1.566.192 1.356 0 1.378-.003 1.567-.192.105-.105.192-.283.192-.394 0-.111-.087-.289-.192-.394-.19-.19-.211-.192-1.567-.192-1.355 0-1.377.003-1.566.192zm-8.513 4.106c2.485.855 3.237 3.973 1.401 5.809-1.412 1.412-3.586 1.413-5.002.002-1.831-1.824-1.093-4.92 1.384-5.811.583-.21 1.607-.21 2.217 0zm21.567.153c1.415.683 2.253 2.246 1.997 3.722-.36 2.075-2.354 3.398-4.339 2.882-1.757-.458-2.915-2.196-2.622-3.934.223-1.325 1.083-2.356 2.357-2.828.34-.125.572-.15 1.24-.13.746.021.869.047 1.367.288zm-23.428.97c-.782.292-1.296.869-1.506 1.69-.269 1.048.236 2.108 1.256 2.64.538.28 1.379.29 1.971.025a2.315 2.315 0 001.364-2.133c0-.934-.474-1.689-1.342-2.137-.362-.186-1.341-.234-1.743-.084zm21.177 0c-.975.364-1.553 1.196-1.553 2.237 0 2.068 2.484 3.084 3.975 1.625 1.089-1.065.828-2.929-.514-3.682-.344-.193-.53-.241-1.016-.263-.384-.017-.7.012-.892.084zm-19.619 1.39c.496.497.488 1.202-.018 1.68-.627.59-1.552.357-1.869-.472-.104-.273-.112-.396-.043-.643.106-.378.208-.512.553-.729.215-.134.36-.163.688-.14.35.027.46.075.69.305zm21.067-.125c.48.358.621.924.357 1.436-.253.489-.529.669-1.025.669-.696 0-1.177-.496-1.166-1.203.006-.39.17-.657.573-.933.216-.148.342-.177.663-.151.226.018.483.096.598.182z" fill="#161921"/></svg>