<svg width="40" height="40" viewBox="0 0 40 40" fill="none" xmlns="http://www.w3.org/2000/svg"><path fill-rule="evenodd" clip-rule="evenodd" d="M13.51.052c-.982.121-2.048.46-3.045.969a9.124 9.124 0 00-4.951 7.407 9.294 9.294 0 00.87 4.82c2.148 4.554 7.549 6.515 12.025 4.366a9.26 9.26 0 005.251-7.88c.217-4.04-2.217-7.791-5.956-9.176-1.233-.456-2.939-.662-4.195-.506zm2.168 1.778a7.507 7.507 0 015.886 5.003c.461 1.376.493 3.245.078 4.558-.892 2.82-3.112 4.794-5.906 5.251-.859.14-2.328.061-3.13-.17-4.658-1.34-6.812-6.682-4.427-10.98.48-.865 1.719-2.15 2.554-2.647 1.54-.919 3.313-1.283 4.945-1.015zM12.8 20.672c-3.601.538-6.51 2.058-8.828 4.612-2.36 2.6-3.795 6.126-3.95 9.707-.04.942-.027 1.257.062 1.425.255.485-.407.46 11.97.455l11.396-.005.503.474c1.05.987 2.336 1.765 3.613 2.188 4.223 1.397 8.912-.391 11.124-4.244 2.194-3.82 1.587-8.602-1.485-11.703a9.621 9.621 0 00-4.319-2.51c-1.11-.293-2.905-.367-3.975-.162-1.907.365-3.453 1.139-4.832 2.417l-.46.428-.697-.511c-.857-.629-2.762-1.598-3.823-1.944-1.514-.494-2.288-.61-4.255-.639-.986-.014-1.906-.009-2.044.012zm3.111 1.729c1.533.169 3.099.626 4.397 1.284.698.353 1.948 1.159 2.115 1.362.076.093.016.28-.282.872a9.66 9.66 0 00-1.066 4.52c.004 1.456.323 2.905.89 4.04.12.242.22.48.22.528 0 .06-3.246.088-10.23.088H1.725l.056-.657c.08-.91.347-2.206.641-3.11.348-1.07 1.132-2.658 1.757-3.556.694-.999 2.176-2.493 3.116-3.143 2.566-1.773 5.609-2.56 8.616-2.228zm15.469.166c4.063.472 7.085 4.061 6.879 8.168-.105 2.082-.895 3.854-2.365 5.302-1.452 1.431-2.975 2.086-5.04 2.167-1.698.066-2.962-.246-4.326-1.069-.7-.422-1.808-1.465-2.302-2.167-2.185-3.108-1.854-7.391.78-10.102 1.416-1.456 3.247-2.26 5.396-2.371.138-.007.578.025.978.072zm.097 6.77c-1.186.979-2.18 1.779-2.208 1.779-.029 0-.4-.42-.826-.934-.426-.514-.841-.971-.924-1.016-.083-.045-.296-.082-.474-.082-.566 0-.96.608-.736 1.135.125.294 2.103 2.67 2.397 2.878.223.159.59.175.844.038.222-.12 4.888-3.976 5.1-4.214.099-.11.154-.301.154-.528 0-.474-.366-.833-.849-.833-.297 0-.5.146-2.478 1.778z" fill="#161921"/></svg>