<svg width="40" height="40" viewBox="0 0 40 40" fill="none" xmlns="http://www.w3.org/2000/svg"><path fill-rule="evenodd" clip-rule="evenodd" d="M9.975.053c-1.206.163-2.651.61-3.758 1.16-2.077 1.034-4.09 3.082-5.087 5.18C.366 8 .065 9.326.06 11.11c-.005 1.465.065 1.826.723 3.73.338.98.454 1.436.5 1.977.123 1.41.835 2.239 2.145 2.5l.437.087.057.45c.296 2.333 2.041 4.63 4.287 5.643l.693.312v.949l.001.948-2.119.928c-2.418 1.06-3.237 1.545-4.193 2.488C1.46 32.234.706 33.547.274 35.147c-.183.675-.206.93-.238 2.6L0 39.6l.203.2.203.2h20.168l.195-.192a.583.583 0 000-.867l-.195-.192H14l-.039-1.505c-.034-1.336-.061-1.583-.247-2.192a9.793 9.793 0 00-.532-1.318l-.323-.632.269-.398.268-.398.512-.005c.956-.01 1.436-.474 1.63-1.572.068-.384.136-.74.152-.793.02-.064.295.021.846.261 1.088.474 1.53.728 2.3 1.326.728.566.978.625 1.298.31.286-.282.249-.535-.139-.95-.612-.654-1.712-1.288-3.931-2.264l-2.083-.915v-1.895l.581-.257a7.597 7.597 0 002.917-2.268c.748-.975 1.348-2.36 1.483-3.43l.057-.45.439-.087c1.254-.247 2.03-1.118 2.115-2.374.03-.44.17-.99.542-2.12.683-2.077.714-2.24.705-3.752-.006-.998-.046-1.462-.175-2.047-.508-2.305-1.5-4.116-3.146-5.737C17.838 1.65 15.852.602 13.58.163c-.798-.154-2.825-.216-3.604-.11zm3.61 1.392c2.607.586 4.838 2.092 6.323 4.27.97 1.422 1.553 3.155 1.66 4.93.069 1.13-.05 1.91-.495 3.256l-.354 1.07-.266-.178a3.518 3.518 0 00-.513-.279l-.246-.1V9.109l-.195-.192c-.261-.258-.465-.243-1.193.089-2.157.982-4.375 1.45-6.864 1.45-2.413 0-4.492-.423-6.586-1.341-.989-.434-1.201-.464-1.463-.206l-.203.2v5.316l-.374.163c-.206.09-.435.218-.51.284-.125.112-.16.044-.492-.96-.448-1.357-.567-2.134-.498-3.266.19-3.145 1.847-5.983 4.532-7.761 1.217-.806 2.977-1.445 4.443-1.614.687-.08 2.62.023 3.293.174zm22.573 5.102c-.087.047-1.27 1.177-2.63 2.511l-2.471 2.426-.243-.17c-.797-.56-1.759-.667-2.594-.291-.405.182-.8.533-2.757 2.456-2.705 2.656-2.79 2.776-2.742 3.861.047 1.046.115 1.142 2.48 3.472 2.365 2.33 2.462 2.398 3.523 2.444 1.102.047 1.223-.036 3.919-2.701 1.951-1.93 2.308-2.319 2.496-2.721.381-.817.27-1.765-.298-2.552l-.173-.24 1.356-1.34c.746-.738 1.393-1.44 1.44-1.561.045-.121.083-.415.083-.654 0-.382.016-.426.138-.377.077.031.29.074.473.097.322.038.352.022.86-.459.29-.274.578-.593.639-.71.084-.158.111-.571.111-1.667V6.915l-.232-.229-.232-.228-1.494.002c-.92.002-1.554.035-1.652.087zm2.34 2.046c0 .876-.002.887-.232 1.104l-.232.22-.497-.166c-.629-.21-.847-.209-1.076.004-.171.158-.184.232-.184 1.037v.867l-1.27 1.25-1.27 1.249-.892-.88-.891-.878 2.379-2.346 2.38-2.345h1.786v.884zm-32.72 2.211c1.886.631 3.572.899 5.664.899 2.118 0 3.616-.234 5.554-.866a59.7 59.7 0 001.29-.431c.13-.052.138.09.138 2.368 0 2.809-.021 2.724.717 2.839.46.072.722.223.984.57.23.303.23 1.044 0 1.347-.33.436-.541.528-1.312.574-.914.055-.98.119-1.048 1.033-.084 1.12-.409 2.087-1.003 2.984a6.378 6.378 0 01-8.632 1.927 6.202 6.202 0 01-3.011-4.91c-.069-.916-.134-.98-1.048-1.034-.77-.046-.982-.138-1.312-.574-.23-.303-.23-1.044 0-1.347.262-.347.524-.498.984-.57.738-.115.717-.03.717-2.84 0-2.275.008-2.42.139-2.37.076.03.607.21 1.18.401zm24.072 1.404c.11.056 1.079.976 2.155 2.043 2.14 2.123 2.215 2.228 2.043 2.877-.07.265-.428.657-2.28 2.49-1.207 1.196-2.292 2.225-2.41 2.287-.275.144-.883.144-1.158 0-.373-.194-4.125-3.97-4.186-4.212-.03-.12-.037-.397-.016-.615l.038-.395 2.3-2.266c2.41-2.375 2.509-2.45 3.078-2.352.13.022.327.087.436.143zM8.463 15.172c-.17.168-.195.262-.195.746 0 .485.025.579.195.747a.644.644 0 00.44.192.644.644 0 00.44-.192c.17-.168.195-.262.195-.747 0-.484-.025-.578-.195-.746a.644.644 0 00-.44-.192.644.644 0 00-.44.192zm5.078 0c-.17.168-.195.262-.195.746 0 .485.025.579.195.747a.643.643 0 00.44.192.644.644 0 00.44-.192c.17-.168.195-.262.195-.747 0-.484-.025-.578-.195-.746a.644.644 0 00-.44-.192.644.644 0 00-.44.192zm18.408.625c-.394.388-.115 1.06.44 1.06.326 0 .635-.305.635-.626s-.309-.625-.635-.625a.644.644 0 00-.44.191zm-5.828-.021c-.396.11-.77.414-.959.78-.203.392-.216 1.043-.03 1.408.177.342 2.614 2.742 2.972 2.925.433.222 1.072.195 1.521-.065.436-.252.78-.842.78-1.339 0-.55-.254-.896-1.685-2.288-1.215-1.181-1.412-1.342-1.742-1.423-.428-.104-.48-.104-.857.002zm4.559 1.273c-.394.387-.115 1.059.44 1.059.326 0 .634-.305.634-.626s-.308-.625-.635-.625a.644.644 0 00-.44.192zm-2.782 1.13c1.295 1.276 1.36 1.38.997 1.572-.156.082-.274-.011-1.393-1.106-.8-.783-1.223-1.252-1.223-1.359 0-.176.138-.351.275-.351.047 0 .651.56 1.345 1.243zm-2.216 6.292c-.088.06-.507.888-.947 1.869l-.79 1.76-.96.027c-.887.026-.987.044-1.284.237-.652.426-.898 1.209-.593 1.89.09.2.275.464.41.585l.244.22-.164.205c-.09.113-.26.41-.38.66l-.215.453-.025 2.331c-.027 2.543-.011 2.65.423 2.758l.197.049v1.05c0 1.012.007 1.058.195 1.243l.195.192h4.299l.194-.192c.188-.185.195-.23.195-1.25v-1.06h7.617v1.06c0 1.02.008 1.065.195 1.25l.195.192h4.299l.195-.192c.187-.185.194-.231.194-1.242v-1.051l.198-.049c.434-.107.45-.215.423-2.758l-.025-2.331-.216-.454a4.354 4.354 0 00-.377-.655l-.16-.2.306-.303c.72-.709.6-1.845-.252-2.4-.296-.194-.396-.212-1.283-.237l-.961-.028-.79-1.76c-.44-.981-.859-1.809-.946-1.87-.233-.16-9.373-.16-9.606 0zm9.792 3.273c.53 1.172.962 2.157.962 2.19 0 .032-2.678.058-5.951.058-3.273 0-5.951-.026-5.952-.059 0-.032.433-1.017.962-2.189l.963-2.13h8.054l.962 2.13zm-22.762-.721v.823l-.635.621-.635.622-.635-.622-.635-.621V26.2h2.54v.823zm-2.757 2.402l.531.528-.724.567c-.398.312-.763.566-.811.566-.22-.004-.303-.185-.433-.944l-.14-.815.441-.208c.243-.114.478-.211.523-.215.044-.003.32.231.613.521zm4.072-.326l.483.202-.133.772c-.13.757-.24 1.014-.433 1.014-.054 0-.423-.255-.82-.567l-.722-.567.53-.528c.29-.29.548-.528.57-.528.024 0 .26.09.525.202zm9.317.304c0 .02-.06.16-.134.313-.121.25-.165.276-.46.276-.344 0-.517-.105-.517-.313 0-.225.183-.313.65-.313.254 0 .46.017.46.037zm15.344.14c.146.228-.034.407-.439.433-.335.022-.36.01-.488-.257a2.086 2.086 0 01-.135-.32c0-.022.22-.03.488-.017.36.017.51.06.574.16zM7.344 30.765c.197 1.059.693 1.525 1.632 1.535l.512.005.268.398.269.398-.323.632a9.79 9.79 0 00-.532 1.318c-.186.61-.213.856-.248 2.192l-.038 1.505H1.266l.043-1.388c.05-1.617.184-2.233.728-3.342a7.276 7.276 0 011.639-2.19c.701-.646 1.283-1.01 2.446-1.53 1.14-.51 1.033-.552 1.222.467zm4.612.426l.424.34-.32.481c-.299.447-.342.481-.618.481-.276 0-.32-.034-.617-.48l-.32-.48.409-.337c.225-.185.456-.339.514-.34.057-.003.295.148.528.335zm25.462.146c.436.127 1.093.775 1.222 1.204.063.21.097.914.097 2.014v1.691H22.233v-1.691c0-1.1.034-1.805.096-2.014.12-.398.784-1.076 1.173-1.197.417-.129 13.474-.136 13.916-.007zm-14.355 1.348c-.19.187-.195.223-.195 1.372 0 1.148.005 1.185.195 1.372l.194.191h3.665l.194-.191c.183-.181.195-.243.195-1.06 0-1.198.088-1.131-2.063-1.547-.938-.18-1.77-.33-1.848-.33-.079.001-.23.087-.337.193zm12.543.16c-1.38.278-1.687.365-1.805.508-.118.144-.142.323-.142 1.029 0 .803.011.866.194 1.047l.195.191h3.664l.195-.191c.19-.187.195-.224.195-1.372 0-1.149-.005-1.185-.195-1.372a.596.596 0 00-.416-.184c-.122.004-.97.159-1.885.343zM12.082 34.35c.467.904.574 1.432.612 3.011l.033 1.388h-2.554v-1.176c0-1.598.21-2.561.765-3.5.188-.32.215-.335.525-.313.32.024.334.037.62.59zm13.226-.244c.403.076.733.167.733.201 0 .035-.428.063-.952.063h-.952v-.244c0-.225.018-.24.218-.201l.953.181zm11.524.03v.234h-.952c-.524 0-.952-.026-.952-.059 0-.047 1.413-.36 1.805-.4.06-.006.1.084.1.225zm-11.425 3.987v.626h-2.54v-1.251h2.54v.626zm12.695 0v.626h-2.54v-1.251h2.54v.626z" fill="#161921"/></svg>