<svg width="146" height="108" viewBox="0 0 146 108" fill="none" xmlns="http://www.w3.org/2000/svg"><path opacity=".1" d="M121.722 9.52a.17.17 0 00-.018-.063c0 .018-.01.027-.01.045.01 0 .028.019.028.019l-.018-.019c-.01.01-.01.019-.019.019h.037zm21.91 58.15c.352-.301.667-.574.981-.847-.157-.118-.444-.264-.425-.328.101-.373.268-.728.425-1.11-.657-.391-1.212-1.01-2.119-.983-.222.01-.593-.19-.658-.382-.249-.71-1.018-1.046-1.249-1.747 1.259-1.174 2.157-2.466 1.499-4.304-.074-.219.084-.51.084-.765.018-.637-.435-1.337-1.009-1.529-.574-.19-1.13-.218-1.481.4-.333-.218-.685-.418-1-.645-.833-.6-1.333-.583-2.222.073.047.209.084.4.121.582-.361-.01-.722-.21-.704-.273.241-.637-.444-1.183-.129-1.83.12-.245-.019-.609-.037-.918-.704 1.41-1.546 2.593-3.296 2.82-.212-.418-.268-.782.047-1.173.574-.7.814-1.51.916-2.393.056-.52.324-.92.898-1.056.296-.073.583-.191.842-.355.315-.2.519-.473.13-.919-.352.11-.741.227-1.12.346a34.827 34.827 0 00-.269-.464c-.305.227-.536.41-.768.582-.648-.691-1.648-1.101-1.407-2.238-.389-.037-.842.773-1.009-.264.815-.255 1.685-.364 2.361-.783.694-.437 1.333-.446 2.073-.236.028-.073.065-.137.093-.21-.426-.218-.843-.437-1.269-.655.047-.118.093-.227.139-.346-1.222.592-2.443 1.183-3.73 1.811-.278-.455-.518-.819-.759-1.22-.139.747-.592 1.093-1.314 1.21-.445-.754.333-.9.573-1.264-.24-.4-.472-.782-.722-1.192.658.046.722-1.12 1.528-.646.324 1.365.324 1.365.972 1.674.851-1.083-.056-1.974-.389-2.875-.241-.628-.361-.856.213-1.247.537-.373.842-1.01.796-1.756-.444.318-.842.61-1.305.946-.204-.61-.01-1 .324-1.347 1.471-1.547 2.888-3.148 4.434-4.622.907-.865 1.203-2.184 2.314-2.867.111-.928.897-1.501 1.249-2.32.139-.328.371-.72.667-.865 1.166-.555 1.138-1.656 1.509-2.757-.324.218-.519.355-.704.482-.056-.837-.213-1.692.389-2.448-.222-.236-.37-.537-.583-.582-.232-.055-.75.118-.75.2-.009.373-.259.792.241 1.12.536.354.536.755.074 1.11-.232.181-.519.309-.75.49-.778.647-1.528 1.339-2.333 1.957-.231.182-.601.192-1.129.346.129-.546.259-.855.259-1.155 0-.328-.129-.665-.204-.992.047.009.084.027.13.036.157-.664.315-1.329.537-2.23.259-.282 1.222-.318 1.185-1.246h.009l-.009-.01v.01c-.278.964-1.009.491-1.796.61.666-1.02 1.231-1.857 1.768-2.712.241-.382.574-.792.583-1.192.028-.801-.129-1.602-.213-2.375.241-.164.463-.31.676-.446.305-.2.944-.264.315-.82-.019-.018.12-.163.139-.263.092-.391.222-.783.222-1.174 0-.683-.648-1.693-1.778-2.876.074.355.112.564.158.792-1.111-.228-1.435-1.12-1.824-1.884a162.46 162.46 0 01-1.351-.39c-.167-.074-.324-.201-.5-.22-1.879-.263-3.647.137-5.378.829-1.027.41-2.12.682-3.129 1.128-.546.237-1.333.073-1.638.828-.019.046-.463.028-.565-.082-.203-.218-.314-.527-.472-.8-.518.373-.518.373-.287 1.173-.314.1-.638.2-.962.3-.121-.218-.223-.4-.306-.545-.342.036-.62.054-.963.09.269-1.646 1.241-2.793 2.213-3.93-.334.045-.667.09-.991.136-.333-.719.074-1.256.38-1.82.342-.628.796-1.274.861-1.956.074-.71-.167-1.484-.398-2.193-.26-.801-.639-1.538-1.676-1.648-1.175-.127-1.407-.382-1.666-1.71-.592-.11-1.213-.31-1.842-.319-.953-.018-1.916.082-2.869.173-1.731.164-3.425.519-5.017 1.247-.204.09-.445.1-.667.164-1.481.409-2.962.81-4.443 1.219-.454.127-1.046.11-1.324.4-.463.483-.888.383-1.407.292-.194-.037-.407.072-.638.127.129.264.213.446.351.737-.722.273-1.388.528-2.1.8.008-.208.018-.345.027-.536-.907.164-1.472.837-2.046 1.392-.518.492-.907.61-1.49.228-.111-.073-.278-.082-.444-.137-.195.291-.361.546-.547.828.334-.018.574-.036.88-.045-.667 1.01-2.49 2.002-3.767 2.111l-.084-.874c-.814.61-1.638 1.22-2.499 1.866.26.127.398.191.555.273-.73.983-1.768.155-2.499.673-.157-.573.435-1.137-.12-1.638-.602.665-1.296 1.074-2.175 1.338-.25-1.174.657-1.83.953-2.548-.176-.455-.5-.865-.407-1.156.083-.282.592-.436.842-.6.176-.883-.269-1.547-.731-2.23-.565-.1-1.111-.336-1.74-.063-.223.1-.667-.082-.908-.273-.518-.41-1-.474-1.592-.146-.462.255-.99.227-1.407-.082-.388-.282-.796-.391-1.175-.182-.324.182-.546.519-.685.664-.445.028-.833-.045-1.093.091-.435.246-.759.674-1.184.947-.435.282-.944.464-1.417.691-.638.31-1.101.756-1.203 1.502-.018.155-.222.291-.36.464-.52-.373-.982-.346-1.445.064a32.853 32.853 0 01-1.87 1.51c-.63.473-1.277.938-1.925 1.374-.361.237-.74.3-1-.182-.63 1.484-.63 1.484-1.101 1.438-.111-.446.777-.71.352-1.183-.574.746-1.148 1.483-1.63 2.111-.481-.246-.833-.418-1.184-.591-.278.291-.51.537-.75.791.305.492.12.92-.195 1.329-.648-.464-.62.373-.98.5-.306.11-.556.364-1.084.728.194-.682.278-1.11.454-1.51.055-.118.453-.073.555-.2.194-.264.287-.6.463-.992-1.398.09-1.444.045-1.463-1.165 0-.1-.037-.236-.101-.3-.583-.51-.213-.91.139-1.447.379.255 1 .21.647.937-.037.082.047.31.102.319.12.027.296-.01.38-.091.342-.355.648-.728 1.027-1.165-.102-.464-.231-1.092-.398-1.866-.324.428-.518.701-.731.983-.778-.755-.76-.737-.315-1.538.195-.346.287-.755.361-.946-.675-1.147-1.583-.6-2.6-.537.379-.419.62-.682.906-.992-.389-.391-.277-.846-.13-1.292.121-.364.556-.755.112-1.074-.306-.218-.778-.227-1.185-.282-.176-.018-.361.118-.546.155-.769.173-1.518.2-2.027-.483-.63.137-.833 1.247-1.676.537-.065.437-.194.82-.712.692-.926-.228-1.648.182-2.352.664-2.323 1.61-4.646 3.213-6.97 4.823-.342.237-.675.482-1.037.746.241.128.408.219.685.364-.25.128-.407.273-.5.246-.703-.255-1.175-.018-1.536.592-.065.109-.222.173-.352.236-2.628 1.22-4.748 3.13-6.942 4.941-.407.337-.537.956-1.176 1.165.472.11.935.228 1.583.382-.601.292-1.009.483-1.444.701-.574-.5-1.083-.4-1.675.11-.861.745-1.824 1.373-2.74 2.056-.565.419-.63.41-1.055-.255-.49.155-.982.31-1.472.473.056.082.111.155.167.237-.408 1.265-1.38 2.03-2.583 2.557v.992c-1.009.446-.972.455-1.388 1.638-.102.291-.519.537-.843.664-.333.128-.731.082-1.185.128-.49.782-1 1.61-1.536 2.411-.185.282-.454.51-.722.737-.463.391-.944.755-1.416 1.138-.149-.738-.39-1.42-1.12-1.802.648-.938.648-.938 1.712-.628.88-.674 1.194-1.838 2.175-2.439a.982.982 0 00.417-.528c.222-.728.759-1.119 1.416-1.41a9.28 9.28 0 00.352-.164c-.398-.246-.898-.191-.787-.482.518-.473.86-.774 1.194-1.083.546-.5.889-1.156 1.61-1.547.556-.3 1.093-.947 1.269-1.538.166-.573.426-1.001.824-1.329-.584-.737-.39-1.465-.269-2.202.87-.109 1.213.437 1.444 1.029.519-.656.981-1.238 1.352-1.711-.195-.383-.37-.628-.408-.883-.018-.146.149-.382.297-.473.564-.346.638-.519.194-.82-.49-.327-1.018-.6-1.574-.927-.139.273-.268.518-.388.746-1.167-.31-1.343-.246-1.981.655-.13.182-.269.373-.435.528a1306.788 1306.788 0 01-4.25 4.058c0 .674.797.883.408 1.402-.333.446-.768.082-1.157.018-.065-.01-.139.01-.352.018-1.184 1.256-2.554 2.512-3.656 3.95-.63.828-1.916 1.255-1.814 2.62.018.273-.454.574-.657.883-.167.246-.352.51-.39.783-.194 1.346-1.258 2.147-2.008 3.14-.61.809-1.555 1.419-1.397 2.629.018.118-.213.264-.324.4-.084.11-.26.273-.232.319.407.646-.185.855-.509 1.192-.13.127-.342.31-.324.437.13.691-.398.964-.768 1.383-.417.464-1.028.846-1.055 1.583 0 .1-.075.255-.158.282-.935.3-.842.929-.601 1.648.064.19 0 .436-.047.655-.083.418-.018.719.296 1.092.528.618.232 1.228-.601 1.356-.417.063-.861.009-1.315.009-.037.373 0 .782-.139 1.11-.13.31-.462.537-.73.837.083.164.184.355.305.573-.232.255-.454.51-.611.674.185 1.22-.565 1.965-1.111 2.793.528.437 1.139.774 1.083 1.675-.037.628.324 1.201 1.185 1.338-.102-.337-.195-.628-.26-.856.39-.346.704-.628 1.037-.928-.203-.391-.796-.71-.388-1.147.592.146 1.092.264 1.582.383-.092.236-.157.382-.268.673.704-.2 1.11-.01 1.351.491-.11.419-.23.838-.342 1.247l.213-.064.99 1.584c.38-.046.787-.091 1.167-.137.148-.236.296-.464.527-.846.269.537.454.91.639 1.283.102.01.213.018.315.027-.74-1.146.398-1.892.305-2.775.417-.31.917-.492 1.046-.81.26-.646.787-.746 1.314-.956.584-.227 1.13-.39 1.5-1.073.296-.546.833-1.284 1.75-1.12.305.81-.695.956-.787 1.702.38-.064.74-.018.925-.173.63-.528 1.472-.873 1.685-1.793.046-.2.232-.4.407-.537.787-.646 1.648-1.21 2.38-1.92.406-.39.99-.71 1.054-1.374.287-.136.723-.218.824-.445.26-.583.704-.72 1.24-.774a202.07 202.07 0 01-.277 1.583c.481.537.944.5 1.407.037.213-.219.472-.41.63-.665.657-1.128 1.749-1.838 2.665-2.72.019-.019.13.054.25.109-.463.846-.842 1.747-1.398 2.53-.694.982-1.564 1.838-2.277 2.811-.453.62-.925 1.156-1.601 1.52-.037.018-.028.127-.046.237.287-.064.555-.119.796-.164-.047 1.12-1.046 1.793-1.065 2.857 0 .119-.176.328-.277.337-.51.018-.435.419-.565.71-.157.364-.417.682-.62 1.028-.074.118-.176.273-.158.391.158.865-.786 1.202-.934 1.911-.861.082-.584 1.12-1.204 1.393-.472 1.337-.648 2.802-1.777 3.84-.102.1-.13.273-.213.4-.231.337-.481.664-.639.892-.203.628-.25 1.247-.574 1.665-.601.774-.685 1.656-.851 2.548a3.61 3.61 0 01-.352 1.065c-.435.828-.99 1.61-1.36 2.466-.38.865-.612 1.784-.862 2.694-.037.136.14.336.278.655.296-.765.63-1.265 1.296-1.565.12.546-.102 1.046.343 1.528.444.492 1.564.292 1.425 1.338 0 .01.065.027.12.055h.926v.828c.324-.182.574-.319.824-.464.213.31.38.564.546.81.065.09.111.2.167.29-.824.874-.833.893-.352 1.502h-.01c-.073.965-.953.928-1.665 1.156.629.582 1.786-.482 2.045.828h1.852c.11.146.25.346.407.555.666-.173 1.286-.337 1.74-.455.231.364.352.774.62.901.157.073.546-.273.805-.455.204-.136.38-.31.593-.491.38.436.444.755.102 1.174-.361.445-.463 1-.324 1.829 1-1.229 1.36-2.512 1.907-3.804.13.009.407.027.907.055-.695.591-.047 1.701-1.194 1.82 0 .982-.01.973-.732 2.238-.185.337-.398.764-.333 1.11.167.947-.26 1.82-1.175 2.166-.056.018-.093.11-.176.228.037.245.083.536.13.891.73-.737 1.193-1.574 2.1-2.147.093.655.176 1.183.223 1.547-.223.455-.39.791-.547 1.119.426-.273.695.164.945.282.694-.537 1.323-1.02 2.156-1.656-.277 1.083-1.49 1.32-1.37 2.366.334.045.667.082.99.127-.082.455-.138.82-.221 1.293.694-.474.768-1.365 1.684-1.502-.083.482-.185.874-.194 1.256-.01.355.24.8.093 1.064-.287.52.175.72.37 1.083l-.944.373c.24.273.49.556.759.865.231-.082.472-.21.73-.264.704-.155 1.195.218 1.334.974.305-.191.666-.346.916-.592.445-.446.88-.382 1.333-.073.25.173.454.392.694.61.935-.428 2.092.364 2.88-.7.221.318.332.627.564.773.49.31.463.828.444 1.21-.028.801-.25 1.593-.38 2.384-.046.283-.073.574-.101.829.36.118.62.2.888.282-.157.691-1.092 1.055-.592 1.883.25-.027.49-.063.768-.091.047.419.084.765.14 1.22.314-.173.545-.301.767-.419-.166.018-.342.046-.527.064.046-1.474.694-2.84 1.796-3.576-.102.49-.14.828-.241 1.146-.204.628-.444 1.238-.667 1.866.12-.11.241-.219.361-.337.056.091.111.191.167.282l-.111 1.156c.083 0 .157 0 .24-.009-.036-.383-.083-.774-.12-1.156.297.018.593.027.852.045.574 1.02-.454 1.775-.361 2.976.407-.719.796-.983 1.407-.992.305 0 .657-.318.898-.573.259-.273.389-.655.62-.947.324-.409.61-.891 1.36-.91-.009.637-.259 1.165-.462 1.72-.195.528-.778 1.038-.296 1.866.231-.464.342-.819.564-1.083.334-.382.574-.755.648-1.283.065-.51.352-1.01 1.028-.992.139.382.259.728.314.883-.592 1.301-1.138 2.438-1.61 3.603-.213.519-.528.792-1.056.919-.61.146-.555-.446-.805-.891-.222.618-.166.964.222 1.264.519.392 1.019.801 1.583 1.247l2.157-.591c.287-.073.62-.282.842-.191.343.127.602.455.926.728h1.953c-.083.3-.139.527-.231.864.351-.155.62-.373.833-.337 1.009.201 1.684-.491 2.323-.964 1.13-.837 2.472-1.256 3.629-2.039.139-.091.49-.054.638.055.324.264.593.601.833.864.546-.491 1.093-1.082 1.731-1.537.769-.546 1.13-1.393 1.731-2.057.99-1.092 1.796-2.366 3.073-3.194a.237.237 0 00.084-.082c.62-1.538 2.305-2.393 2.712-4.068.018-.063.093-.154.148-.163.231-.046.666-.137.685-.091.194.546.75.345 1.092.591-.074-.446-.49-.819-.065-1.265.5-.519.954-1.074 1.519-1.72-.028.965.444 1.638 1.036 1.939.407.209.778.473 1.13.755.24-.146.425-.255.675-.4.065.345.713.509.24.955-.518.5-.87-.082-1.295-.328-.26.228-.51.4-.694.628-.222.264-.24.646.074.792.537.246.38.564.213.919-.14.3-.296.591-.445.9l-1.064-.218c.583.765.87 1.43 1.75 1.566.777.127 1.536.373 2.434.6.24-.109.638-.29 1.101-.51.13.365.232.629.306.847.564.182.851-.091 1.166-.41.213-.227.611-.518.842-.455 1.315.374 2.018-.39 2.685-1.264.204-.264.37-.546.564-.847.398-.036.778-.063 1.13-.09.277.309.509.582.62.7.166.655-.731.71-.37 1.401.75-.546 1.462-.992 1.314-2.047.704-.473 1.648-.51 2.23-1.32.547-.764 1.325-1.365 1.982-2.056.62-.646 1.212-1.32 1.758-1.92-.203-.564-.342-.947-.49-1.347.287-.182.528-.337.768-.482-.028.236-.055.473-.092.764.185.027.38.11.472.046 1.397-.938 2.416-2.239 3.434-3.522-.148-.346-.815-.346-.51-.901.241-.437.482-.81 1.093-.828-.102.418-.185.746-.306 1.247.593-.246 1.037-.62 1.389-.546 1.259.263 2.009-.419 2.87-1.22a44.258 44.258 0 01-.898-.418c.287-.52.555-1.001.851-1.547.306.054.62.109.926.154-.5.3-.574.72-.602 1.183.963-.336 1.176.51 1.759 1.038-.472.2-.657.436-.546.937.083.391-.139.837-.25 1.383-.907.291-.963 1.229-1.204 2.093.352 0 .648-.009.945 0a21.8 21.8 0 011.323.1c.491.046 1.009.191 1.472.11.435-.082.824-.41 1.389-.72a23.55 23.55 0 00-.102.929c.389.064.722.127 1.111.19.24-1.027 1.212-.964 1.906-1.391.148.373.26.664.445 1.11 1.129-.728 2.156-1.402 3.165-2.048.232.2.361.31.343.291.629-.309 1.101-.564 1.592-.773.602-.255 1.222-.455 1.814-.737.13-.064.167-.328.278-.564-.472-.064-.824-.11-1.361-.173.324-.382.5-.674.759-.874a546.252 546.252 0 015.11-4.077c.99-.782 2.036-1.501 3.008-2.302.37-.3.528-.855.907-1.128.343-.255.852-.291 1.407-.464a99.333 99.333 0 01-.87-1.11c.768-.183.889.436 1.25.764.527-.446 1.055-.892 1.666-1.401.074.436.139.8.222 1.255-.916.155-1.398 1.01-2.351 1.092-.361.037-.583.437-.435.856 1.018-.01 1.453-1.202 2.518-1.101-.084.19-.139.336-.222.536.268-.054.444-.09.684-.136v.9c-.351.028-.638.055-1.046.083.806 1.046-.175 1.993.019 3.057.38-.209.935-.373.926-.537-.01-.782.629-.764 1.046-1.11.25.583-.185 1.447.805 1.429.759-.446 1-1.028.602-1.83-.093-.181-.01-.454-.01-.682l.148-.027c.112.2.213.4.324.6.047-.018.093-.027.139-.045-.027-.236-.065-.464-.092-.728.324-.054.657-.027.879-.164.25-.163.204-.673.694-.627.158.873.093.837-.314 1.465-.472.737-.833 1.546-1.232 2.32.787.41 1.685.428 2.028 1.283-.963.865-1.083 1.156-1.009 2.703.555-.965 1.009-1.757 1.462-2.557v.036c.019 0 .037-.009.056-.009-.009-.01-.019-.01-.037-.018.481-.51 1.073-.938 1.12-1.73.009-.127.185-.236.25-.372.194-.41.287-.874.564-1.21.26-.319.695-.492 1.056-.728-.195-.3-.343-.537-.547-.838.426-.045.722-.082 1.009-.109.195-.81.343-.928 1.12-.928-.074.21-.148.41-.222.61.5-.374 1.204-.647.981-1.356-.24-.783.361-1.393.315-2.13-.009-.154.407-.336.805-.628-.092.683.028 1.029.584.965a60.53 60.53 0 01-.176 1.147c.907-.628 2.008-.692 2.453-1.62a38.77 38.77 0 01-.343-.938c.667-.318.889-.755 1.046-1.465.167-.755.074-1.174-.435-1.547.065-.418.12-.773.176-1.119-.056-.018-.12-.045-.176-.064-.111.219-.222.437-.361.701-.74-1.228-.305-2.875.75-3.33.315.364.574.755.926 1.037.361.3.796.5 1.305.81.102-.3.213-.628.314-.92-.555-.181-1.11-.045-1.379-.509zm-3.971-40.723c-.028.573-.472.837-.888 1.137-.204-.864-.204-.882.888-1.137zM24.678 13.243c.11.018.231.027.342.045-.055.2-.11.41-.157.61l-.25-.055c.028-.2.046-.4.065-.6zm-1.389 1.182c.037.055.074.11.12.192-.064.072-.129.145-.194.227-.055-.073-.166-.173-.148-.21.028-.09.139-.145.222-.209zm-7.285 11.42l.26.447a1.862 1.862 0 00-.167.118 13.237 13.237 0 00-.343-.4c.093-.055.176-.11.25-.164zM4.591 50.353c-.11-.227-.222-.346-.194-.437.028-.118.157-.291.25-.291.11 0 .222.146.342.227-.102.128-.213.255-.398.501zm10.479-18.61c0 .328-.112.61-.491.583-.158-.009-.296-.255-.481-.437.351-.327.657-.282.971-.145zm-1.102 9.319c-.268 1.238-.268 1.238-1.333.764.148-.737.889-.491 1.333-.764zm-1.166-14.633c.25-.109.546-.373.74.073-.324.282-.63.555-1.018.901.01-.391-.213-.755.278-.974zm-.537 15.643c.009.1-.14.21-.213.319-.102-.082-.26-.155-.287-.255-.028-.1.083-.237.176-.446.166.173.314.273.324.382zm-2.12-8.936h.972c-.25.482-.463.9-.704 1.365-.694-.364-.23-.855-.268-1.365zm0 2.266c.611-.291 1.139-.546 1.62-.783.074.728-.167 1.383-1.092 1.593.222.855.11.992-.861 1.137.11-.655.231-1.32.333-1.947zm-1.842 2.166c-.046-.62.037-.81.935-1.802.13.455.231.819.324 1.146-.481.246-.87.455-1.259.656zm1.139 8.399c-.112.173-.213.346-.324.518a5.159 5.159 0 00-.232-.19c.13-.146.269-.292.398-.437.056.036.102.072.158.109zm-.602-7.571c-.213.063-.417.136-.63.2-.027-.064-.064-.127-.092-.182.092-.064.185-.155.287-.182.12-.037.25-.027.38-.046.018.064.036.137.055.21zm-.694-4.004c.444.127.796.227 1.23.355-.416.427-.74.846-1.49.646.093-.346.167-.646.26-1.001zm-2.842 6.606c.25-.136.407-.218.592-.318-.203-.255-.416-.51-.73-.901.443-.2.786-.364 1.406-.655-.5.864.565 1.565-.37 2.302-.296-.136-.556-.264-.898-.428zm3.758 10.265c-.278.51-1.194 1.001-1.722 1.01-1.018.018-1.416-.564-1.036-1.51.083-.21.166-.41.24-.62.685-.036.25.346.38.629.11-.337.231-.674.305-.92.889-.227 1.731-.445 2.833-.737-.398.892-.667 1.538-1 2.148zm1.453-1.83c.093-.554.593-.672.861-.973 0 .482 0 .492-.86.974zm1.51-4.094c-.473.182-.732.892-1.01 1.465.148-.082.324-.127.417-.246.11-.145.157-.355.36-.427.241.573-.046.91-.24 1.283-.167.31-.61.628-.176 1.055a41.35 41.35 0 01-.972.128c-.268-.492-.518-.938-.796-1.447.324-.237.787-.4.676-1.001-.037-.228.194-.564.398-.765.592-.582 1.13-1.173 1.509-1.938.287-.573.88-.245 1.36-.3.186.51.306.855-.24 1.22-.435.309-.704.755-1.287.973zm2.082 1.137c-.343-.409-.62-.746-.935-1.128.231-.464.62-.482 1.027-.273.37.182.334.71-.092 1.401zm-.019-3.558c-.213-.655.287-1.055.62-1.547.287.028.574.064.935.1-.555.52-1.046.974-1.555 1.447zm.982-11.202c-.102-.127-.195-.264-.315-.364-.352-.254-.352-.51 0-.864.36.21.722.41 1.092.628-.26.21-.518.4-.777.6zm2.61 45.382h-.963l-.028-.3c-.037-.41.028-.792.556-.783.37 0 .527.41.435 1.083zm5.415 1.692c-.074-.027-.157-.045-.232-.073v-1.892c.51.127.87.209 1.435.346-.463.618-.833 1.119-1.203 1.62zm1.268-1.883c-.565-.437-.37-.783 0-1.22.278.446.222.792 0 1.22zm1.888-9.492c-.194-.036-.398-.063-.592-.1.028-.1.065-.282.083-.282.195.018.38.073.574.11-.018.1-.037.19-.065.272zm18.67-53.99c-.434.31-.703.264-.842-.364.38.173.611.274.843.364zm-2.99-2.42c.612.255.343.719-.009 1.183-.36-.127-.703-.255-1.12-.41.26-.545.556-1.01 1.13-.773zm-1.49 6.707l.204.018-.056.482c-.046 0-.092-.009-.148-.009v-.491zm-5.998 3.02c-.102.374-.213.71-.722.328l.722-.327zm-3.61 4.496h.232c.157.218.314.428.481.664-.25.182-.49.601-.796.164-.12-.182.046-.546.083-.828zm-4.026 4.523c.083 0 .166.09.296.182-.13.082-.213.173-.287.164-.083-.01-.148-.119-.222-.182.074-.064.148-.164.213-.164zM17.41 45.593c-.25-.583.241-.646.63-.983 0 .628-.093.928-.63.983zm7.942-5.178c-.324.264-.685.519-.888.864-.454.765-1.185 1.083-1.972 1.329 1.61-2.166 2.972-3.53 4.129-4.131-.056.5-.75 1.52-1.269 1.938zm2.925 47.81c-.092-.245-.185-.363-.157-.436.056-.136.157-.264.278-.373.018-.018.24.118.24.127-.074.164-.157.31-.36.683zm.426-50.14c-.398-.227.14-.864-.555-.737.01-.21-.074-.491.037-.6.194-.2.5-.292.889-.492.166.428.277.737.434 1.138a73.86 73.86 0 00-.805.691zm3.036-6.206c-.87.937-1.712 1.92-2.638 2.812-1.037.992-2.314 1.738-3.12 2.967-.194.3-.564.5-.85.737-.204.163-.436.31-.62.491-.991 1.001-1.963 2.011-2.945 3.021-.13.137-.23.346-.388.41-.722.291-.898.837-.833 1.52-.556-.537-.917.072-1.481.436.185-.864.518-1.547 1.018-1.838 1.212-.692 1.518-1.702 1.453-2.967.185-.018.343-.063.481-.036.324.064.713.319.935.21.398-.183.769-.528 1.01-.902.425-.637.527-1.51 1.434-1.774.148-.937.833-1.001 1.601-1.037.232-.01.528-.21.658-.41.657-.946 1.573-1.601 2.462-2.293.444-.346.75-.837 1.166-1.229.139-.127.407-.127.62-.19-.074-.237-.139-.474-.231-.765.583-.027.842.2.833.555.01.246-.222.492-.565.282zm1.102 13.44c-.25-.563.018-.7.518-.663-.148.19-.305.382-.518.664zm2.221 45.236c-.287-.937.408-.819.843-1.237.074.946-.583.782-.843 1.237zm2.037 2.448c-.315-.446-.482-.682-.657-.937-.01-.346.888-.719 1.814-.664L37.1 93.003zm.36.737c.186-.691.566-.873 1.223-.873l-.26.819c-.268.018-.564.027-.962.054zm1.241 1.757c.12.073.25.136.435.245-.259.474-.527.947-.824 1.475-.49-.282-.629-.637-.527-1.01.305-1.074.565-2.194 1.75-2.876.407 1.02-.649 1.42-.834 2.166zm5.165-64.783c-.139-.2-.24-.29-.259-.41-.01-.063.139-.217.194-.208.12.009.232.109.343.172-.065.119-.139.228-.278.446zm1.074-1.41c-.093-.11-.222-.21-.204-.246.047-.1.158-.173.241-.255.056.082.176.155.167.237 0 .073-.111.155-.204.264zm-.49-11.384c-.12.064-.047.464-.065.792-.14.118-.38.309-.611.51-.084.072-.14.272-.176.263-.981-.246-.954.755-1.435 1.128-.481.364-.898.81-1.388 1.156-.14.1-.426-.009-.861-.045.083-.073-.056 0-.12.118-.51.9-1.167 1.656-2.046 2.248-.26.172-.296.655-.472.973-.241.446.055.583.37.774.093.054.01.364.01.637-.556-.219-1.01-.4-1.547-.61-.083.1-.148.282-.25.291-1.194.182-1.85 1.183-2.72 1.811-.686.492-1.315 1.165-2 1.73-.565.463-1.157.882-1.555 1.519-.186.3-.565.473-.935.773v.938a52.964 52.964 0 00-.713-.628c-.148.136-.315.264-.444.427-.074.082-.093.3-.13.292-1.175-.055-1.259 1.192-2.018 1.638-.213.127-.305.436-.481.718.36.119.574.192.787.264-.028.082-.028.182-.074.2-.834.337-1.602.865-2.546.91a.679.679 0 00-.472.283c-.361.582-.87.491-1.407.382-.565 1.238-.963 2.584-2.333 3.294-.24.127-.407.446-.527.71-.343.819-1.01.883-2.009.864.306-.436.472-.755.713-1.01.463-.482 1.009-.864.777-1.692-.055-.182.158-.838.815-.637.13.036.555-.337.528-.437-.148-.5.36-.764.38-1.074.045-.628.36-.737.953-.682a99.52 99.52 0 00-.88-1.265c.324-.1.528-.146.722-.228.333-.145.824-.236.963-.5.583-1.056 1.546-1.647 2.508-2.266.297-.191.556-.428 1-.5l-.833 1.337c.666-.328 1.277-.682 1.425-1.429.084-.418.25-.682.74-.555v.009c0-.009-.008-.018-.008-.018.324-.09.638-.182.99-.273.13-.546.139-1.183.87-1.401.074-.027.139-.191.148-.291.102-.756.5-1.984.833-2.466.037-.046.13-.055.324-.128-.046.246-.074.419-.11.6a6.893 6.893 0 01-.14.556c.39-.082.741-.164 1.195-.255.157-.31.342-.637.823-.91.824-.473 1.916-.892 2.018-2.102-.213-.155-.407-.3-.648-.473.148-.128.241-.255.315-.246.25.027.5.11.74.173.315-1.538 1.574-2.548 2.787-2.22-.176.355-1.028.054-.778.882 1.389-.154 1.962-1.665 3.351-1.829l-.426-1.256c1.083.546 1.75.328 1.935-.591.527-.41 1.175.255 1.462-.219-.305-1-.574-1.856-.86-2.802 1.073.255.758-.865 1.416-1.41-.093.855.12 1.373.87 1.528-.213.4-.38.719-.565 1.074.926-.073 1.102-.182 1.018-.728-.092-.555-.268-1.074.102-1.63.13-.19-.046-.572-.102-1.11.352.328.519.601.75.674.204.073.49-.073.731-.11.343.447.352.784-.203 1.002l.888.464c-.546.682-.546 1.61-1.37 2.084zm5.109 4.668c.019-.8.602-.828 1.009-1.174.12.246.194.41.324.692-.435.155-.833.3-1.333.482zm7.988-9.018c.528-.082.824-.118 1.13-.164.018.11.027.21.046.319-.278.337-.583.327-1.176-.155zm6.804 81.654c-.62.628-.935 1.42-1.398 2.12-.324.482-.694.719-1.092 1.01-.093-.064-.176-.136-.269-.2.176-.346.287-.764.556-1.028 1.073-1.074 1.851-2.34 2.592-3.65.222-.39.444-.81.777-1.091.222-.192.639-.164.972-.237l.139.246c-.76.955-1.435 1.965-2.277 2.83zm6.905-52.461c-.074-.055-.157-.11-.231-.164.148-.182.296-.355.537-.646.222.582 0 .719-.306.81zm4.878-37.52c-.065-.017-.12-.045-.185-.063.056-.2.102-.4.157-.6.112.036.213.072.325.1-.093.19-.195.382-.297.564zm8.414 90.654c-.074-.055-.148-.11-.231-.164.24-.273.481-.546.713-.819.074.055.138.11.213.164l-.695.82zm5.388-9.864c.425-.382.657-.592 1.046-.938v1.256c-.334-.1-.574-.173-1.046-.318zm2.508 1.883c-.435.537-.88 1.056-1.277 1.62-.102.146.028.419-.037.61-.037.091-.25.118-.39.173-.49-.82-.453-1.083.205-1.702.166-.154.388-.31.444-.5.268-.883 1.046-1.238 1.786-1.766.148.656-.453 1.329.315 1.73-.574.509-.75 0-1.046-.165zm3.286-2.766c-.083-.191-.185-.328-.157-.364.148-.182.324-.337.5-.5l.231.2c-.176.21-.352.41-.574.664zm.796-2.038c.463.063.787.109 1.102.154-.584.646-.583.646-1.102-.154zm12.45-22.841c-.083-.073-.157-.146-.241-.228.454-.318.482-1.073 1.454-1.128-.482.537-.852.946-1.213 1.356zm1.666-2.448a4.783 4.783 0 00-.203-.273c.12-.054.231-.155.277-.127.074.036.148.163.139.245-.009.046-.139.1-.213.155zm2.166 29.538c-.027.046-.129.037-.194.055-.028-.045-.046-.091-.074-.136.111-.073.231-.146.342-.219-.027.1-.027.21-.074.3zm5.175-80.607c-.195.91-.195.91-.982 1.056.361-.391.648-.7.982-1.056zm-.639 55.92c.148-.401.25-.665.342-.929.084.037.176.046.195.082.222.446.046.673-.537.846zm-.5 13.968c-.009-.756.537-.765.972-.901-.046.564-.444.746-.972.9zm2.027-1.129c-.333.337-.638.273-.99.191.194-.327.083-.828.592-1.01.084-.027.028-.336.121-.473.416-.646.805-1.32 1.314-1.884.13-.145.685.091 1.074.155.046.446.092.828.12 1.074-.796.673-1.555 1.274-2.231 1.947zm.778 3.54c-.084-.118-.093-.382-.019-.51.204-.345.491-.245.759-.063.047.182.084.355.13.546-.296.218-.593.41-.87.027zm.805-.61l.935-.919c.13.892-.491.792-.935.92zM123.287 71c-.149.127-.149.4-.232.664a55.76 55.76 0 00-1.148.091c-.185-1.037-.185-1.037.537-1.529-.111-.127-.324-.264-.324-.4 0-.128.259-.382.333-.364.389.1.889.182 1.111.455.278.327.102.764-.277 1.083zm9.238-14.314a6.85 6.85 0 01-.232.264c-.25-.219-.49-.446-.926-.829.704.037 1.028.164 1.158.565zm-2.824 8.726c.445-.045.843-.455 1.315-.309.027.1.046.2.074.3-.38.228-.75.483-1.157.665-.148.063-.509 0-.565-.11-.13-.254-.028-.51.333-.546zm-1.444-7.77c-.185.245-.37.5-.555.745l-.232-.154.482-.801c.102.073.203.136.305.21zm7.193-36.947c.027.355.046.583.064.81-.537-.218-.425-.446-.064-.81zm.916-6.424c.12.41.231.664.259.928.046.491.093.965-.416 1.347-.917.691-1.167 1.365-1 2.439h-1.555v-1.839c1.786-.127 1.925-1.756 2.712-2.875zm-2.694-3.485c.204.309.435.6.574.937.056.127-.102.355-.185.6-.685-.473-.398-1.037-.389-1.537zm-.777 21.694l.139.136-.426.464-.195-.19c.158-.137.315-.274.482-.41zm-2.962 2.575c.463.619.148 1.174.176 1.802.814-.446 1.323-1.11 1.86-1.756 1.166-1.393 2.194-2.894 3.61-4.077.574-.473 1.148-.938 1.787-1.456.379.455-.102.837-.371 1.146a259.928 259.928 0 01-4.285 4.705c-1.231 1.338-2.49 2.648-3.712 3.95-.472-.137-.528-.374-.352-.71.12-.246.213-.5.324-.756h-.009a54.9 54.9 0 01.694-.764c-.417-.155-.685-.255-1.111-.41l1.389-1.674zm-.926 2.157c-.028.245-.046.464-.074.691-.583.164-1.166.328-1.814.5.527-.563.851-1.282 1.888-1.191zm-4.045 21.776c.278.3.509.564.75.828-.084.082-.158.164-.241.255-.296-.191-.583-.373-.907-.583.148-.19.241-.31.398-.5zm.454 8.344c-.139.064-.241.137-.315.119-.056-.01-.102-.128-.148-.2.083-.055.166-.146.25-.146.055.01.12.118.213.227zm-.982 9.073c-.092-.2-.194-.41-.314-.664.518.118.518.118.314.664zm.528-.874c-.093 0-.176-.009-.268-.009-.074-.2-.139-.39-.241-.673.231-.036.435-.073.777-.127-.111.336-.194.573-.268.81zm.944-1.319c-.166-.21-.315-.319-.305-.41.009-.09.166-.2.277-.236.056-.018.223.118.223.191.009.11-.084.218-.195.455zm2.009-5.369c-.75.673-1.574 1.256-2.268 2.03-.546.027-1.083.063-1.842.108 1.231-.873 2.712-1.228 2.888-2.911.731.209 1.231-.055 1.324-.665.453-.082.805-.1 1.138-.209.306-.1.583-.282.944-.346-.425 1.02-1.462 1.338-2.184 1.993zm4.286 10.874c.296-.19.583-.382.907-.591.176.883.129.91-.907.591zm.249-1.073c-.481-.337-.722-1.374-1.851-.71.361-.956.361-.956.954-.555.231.154.416.455.712.009.065-.1.528-.01.759.09.398.174.769.429 1.306.738-.648.155-1.213.282-1.88.428zm.769-14.023c.046-.028.222.127.426.255-.195.172-.315.318-.463.382-.056.018-.287-.191-.278-.237.074-.155.185-.31.315-.4zm-.028-.974c.185-.391.491-.473.972-.391-.25.518-.611.473-.972.391zm.62 12.922c-.315.155-.602.291-.888.437-.056-.064-.112-.119-.167-.182.204-.237.398-.483.639-.765.175.2.287.346.416.51zm-1.361-12.704l.704-.19c.028.545-.259.527-.704.19zm.537-1.11c-.111-.064-.351-.2-.666-.373.703-.619 1.296-1.21 2.508-1.165-.703.592-1.221 1.02-1.842 1.538zm1.611 10.684c.602-.537 1.009-.428 1.314-.01.102.137.139.5.047.574-.167.136-.528.264-.676.173-.269-.146-.444-.465-.685-.737zm1.25 3.603c-.334-.528-.806-1.028-.398-1.565.398-.537.87.273 1.518-.091-.5.728-.806 1.183-1.12 1.656zm4.063-20.138c.102-.118-.102-.491-.194-.774l1.388 1.092c-.194.774-.435 1.62-.611 2.485-.046.209.121.455.195.728-.843.1-.944-.756-1.528-1.038.547-.782.121-1.756.75-2.493zm-.426 18.627c-.083-.327-.027-.6.361-.773.297.482-.074.61-.361.773zm-.213-1.4c-.101-.647.195-.774.778-.556-.25.173-.5.346-.778.555zm.26-2.24c.453-.045.694-.063.935-.081.018.136.064.227.037.273-.26.373-.528.336-.972-.192zm.203-9.281c.102-.565.306-.774.685-.747.056 0 .093.255.139.41-.231.1-.463.191-.824.337zm1.639 9.409c.361.7.361.7-.5 1.183-.269-.619.49-.728.5-1.183zm.805-6.497c.435-.492.435-.492 1-.082-.38.036-.648.054-1 .082zM28.417 10.149c.63.19 1.194.364 1.759.537v1.4c.537-.281 1.037-.436 1.36-.764.195-.2.112-.664.158-1.082.805.518 1.157-.182 1.648-.565.638-.5.574-1.083.213-1.692 1.138-1.402 2.249-2.776 3.49-4.314-.075-.364-.352-.855 0-1.465.295.373.536.683.74.938-.028-.901-.065-1.802-.093-2.749-1.444.62-2.147 2.212-3.813 2.239a6.523 6.523 0 00-1.194 1.938c-.13.355.074.838.138 1.32-.12.045-.296.109-.472.164-.11.591.324 1.31-.36 1.756-1.028-.355-.204-1.338-.815-1.957-.426.419-.778.865-1.222 1.183-.74.537-.898 1.174-.574 1.984.037.082-.028.21-.056.364a14.83 14.83 0 00-.722-.082v-.691c-.898.264-.934.373-.462.964.138.2.212.446.277.574zm104.487 75.62c.296.145.518.246.898.428-.333.336-.62.618-.916.928.407.337.694.164.842-.264.453-1.274 1.314-2.266 2.12-3.322.527-.682 1.064-1.556.87-2.511.555-.346 1.129-.6 1.555-1.001.426-.391.74-.92 1.036-1.42.269-.455.445-.964.685-1.492-.916-.137-1.481.1-1.888.755-.833 1.356-1.648 2.721-2.555 4.031-.555.801-.796 1.811-1.638 2.421-.046.291-.009.637-.167.864-.148.246-.49.355-.842.583zM29.426 11.059c-.305.054-.675.209-.75.118-.37-.437-.814-.31-1.212-.21-.194-.272-.352-.482-.51-.7l-.582.664c.87.692 1.638 1.292 2.36 1.866.981-.437.5-1.183.694-1.738zm104.691 25.843c-.361.41-.695.847-1.009 1.292-.084.11-.074.283-.102.428.074.046.148.082.222.128 1.231-1.374 2.462-2.758 3.703-4.132-.102-.09-.204-.173-.297-.264-.453.437-.907.874-1.351 1.32-.398.4-.796.8-1.166 1.228zM19.642 13.425c-.01.009-.01.018-.01.036.02 0 .029 0 .047-.01l-.037-.027zm-.25.473c.12-.091.167-.282.232-.446-.546.054-1.093.109-1.666.173.407.9-.556 1.046-.861 1.574-.324-.091-.602-.164-.99-.273-.084.455-.149.828-.241 1.338.38-.146.62-.182.786-.31a73.634 73.634 0 002.74-2.056zm96.786 71.562c.444-.037.629-.019.777-.073.981-.373 1.49-1.329 2.324-1.884.194-.127.305-.382.573-.746-1.703.391-2.49 1.574-3.674 2.703zm4.239-3.185c1.287-.501 2.879-1.748 3.249-2.54-.898-.027-2.184.974-3.249 2.54zM18.809 50.835c1.416-.374 2.601-1.793 1.962-2.685-.342.382-.722.755-1.027 1.174-.333.437-.592.937-.935 1.51zM60.343 2.94c-.13.701-.24 1.265-.343 1.811.213.4.417.801.667 1.274.472-1.437.564-1.929-.324-3.085zM14.125 50.124c-.925-.2-1.397.1-1.75.728-.212.383-.545.71-.953 1.229 1.333-.346 1.889-1.21 2.703-1.957zm2.38.355c.582-.655.555-.737-.343-1.264-.861 1-.87 1.055-.296 1.874.222-.21.453-.391.638-.61zm3.517-4.595c.203.237.398.464.62.728.36-.419.666-.773 1.064-1.229-1.147-.282-1.147-.282-1.684.501zm122.694 25.289c.426.182.768.318 1.305.546-.204-.774-.148-1.43-.648-2.112l-.657 1.566zM4.351 56.276c.564-.582.62-1.338.064-2.011-.324.728-.98 1.356-.064 2.011zm36.146 47.602c-.333.318-.472.828-.74 1.328.49-.063.823-.109 1.23-.163-.212-.155-.37-.264-.518-.383.343-.591.667-1.137 1.046-1.783-.768.036-.703.71-1.018 1.001zM21.02 12.515c-.12-.3-.24-.592-.38-.92-.786.42-.675 1.22-.952 1.82.61-.036.99-.41 1.332-.9zm-1.379.91l.028.027c.01-.01.01-.027.018-.037-.018 0-.027.01-.046.01zm-.018 33.414c-.361.028-.713.055-1.12.092-.037.518-.361.955.037 1.392.407-.428.805-.865 1.212-1.292-.046-.073-.083-.137-.13-.192zm-1.065 1.511l-.028-.027.028.027zm-7.063 25.716c1.195-.464 1.222-.537.519-1.61-.185.573-.333 1.028-.519 1.61zm21.642-59.404c-.148-.628-.26-1.128-.426-1.81-.213.381-.352.627-.509.91.278.272.333.709.935.9zm.38-1.884c.055.091.48.1.574 0 .37-.382.11-.664-.306-.919-.333.228-.5.537-.268.92zm21.15 94.958c.463-.273.824-.482 1.324-.782-1.018-.492-1.083-.446-1.323.782zm82.346-82.018c.111-.6 1.481.01 1.111-1.146-.556.246-1.065.455-1.111 1.146zm2.638 4.66c-.333.473-.602.855-.916 1.31.74-.027.74-.027.916-1.31zm2.147 32.277c.334.11.593.2.834.273.185-.373.324-.664.472-.946v.009c-.621-.219-.87.255-1.306.664zM92.62 7.41c-.213-.037-.389.018-.555.09-.436.2-.87.42-1.315.628.76.1 1.352-.218 1.87-.718zm29.658-.283c-.25.665-.482 1.192-.639 1.748-.046.172.028.382.074.582.083-.755.953-1.329.565-2.33zM18.494 48.387c-.472.282-.953.554-1.462.855.583.31.962.054 1.462-.856zm.065-.037l-.028-.027c-.009.027-.027.045-.037.063.019-.018.047-.027.065-.036zm110.874 35.717h.018-.018zm-.537.883h.25c.092-.291.185-.582.278-.883-.232.046-.602.046-.63.137-.065.227.065.5.102.746zM28.741 17.81c.5-.036.843-.345 1.074-.855-.38.2-.75.41-1.13.61.02.082.038.164.056.246zm40.96 79.825l.315.082.222-.9c-.407.19-.722.409-.537.818zm-13.042 9.355c.546-.127.99-.018 1.157-.673-.537-.082-.815.136-1.157.673zm5.174-96.477l-.361 1.028c.472-.228.713-.528.361-1.028zM23.909 87.434a36.862 36.862 0 00-.86-.2c.323.655.333.664.86.2zm0 0c.019 0 .028.01.047.01.009-.019.018-.046.037-.064a.537.537 0 00-.065.036l-.019.018zm105.987-2.666c.472-.473.472-.473.203-1.01-.083.391-.148.7-.203 1.01zm4.008-.419c.009-.009.018-.018.027-.018v-.018c-.018.009-.027.018-.046.027 0 .01.009.01.019.01zm-.019-.009c-.416-.382-.907-.4-1.416-.291.444.2.842.682 1.416.291zm5.082-61.333c-.343.136-.611.236-1.074.418.87.182.87.182 1.074-.418zM30.306 94.314v-.592c-.241.164-.491.319-.908.592h.908zm0-.6c.009-.01.018-.01.027-.02 0-.017-.009-.026-.009-.035-.01 0-.01.009-.018.009v.045zm-7.683-9.283c-.056-.018-.158-.054-.167-.036-.148.182-.287.373-.426.564l.306.136c.102-.218.194-.436.287-.664zM70.617 98.91c-.074.11.075.364.13.555.093-.036.185-.073.268-.109-.018-.1-.046-.21-.055-.31-.028-.263-.194-.354-.343-.136zm63.74-16.025c.158-.19.315-.391.472-.582-.064-.055-.129-.119-.185-.173-.185.173-.37.346-.564.519a5.8 5.8 0 01.277.236zm8.748-20.902c-.195-.264 0-.892-.639-.756.204.255.416.5.639.756-.01 0 0 0 0 0zM4.073 26.2c-.083-.037-.158-.1-.185-.082-.084.055-.148.136-.222.21.074.036.166.108.212.09.084-.045.13-.145.195-.218zm111.41 59.85c-.101.064-.175.173-.268.273.083.055.157.11.305.21.074-.137.149-.237.176-.356.01-.027-.185-.145-.213-.127zM29.01 6.763c-.019-.1-.065-.182-.102-.282-.065.028-.185.064-.176.073.018.1.065.2.111.31.065-.037.176-.082.167-.1zm-2.11 13.34c-.038 0-.066-.008-.103-.008.01.018.019.027.028.045l.074-.036zm.333-.2l-.334.192c.13.009.269.027.398.036a2.978 2.978 0 00-.064-.227zm110.558 3.823c-.462-.1-.749-.164-1.027-.228.213.3.444.537 1.027.228zM2.185 28.503c-.093-.036-.176-.073-.269-.11-.028.065-.083.165-.065.192.056.073.158.11.232.155a3.53 3.53 0 01.102-.237zm9.84 24.652c.064.027.12.054.221.109l.167-.218c-.065-.037-.148-.11-.176-.091-.083.045-.139.136-.213.2zM106.32 90.8c.064.055.138.164.203.164.093 0 .195-.073.296-.118-.166-.137-.231-.228-.259-.219-.092.037-.166.11-.24.173zm22.548-7.344c.232.237.398.41.556.583-.01-.446-.056-.492-.556-.583zm.556.601c.009 0 .027.01.027.01l-.027-.028v.018zM21.104 37.385c0 .009.01.018.01.027h.018c.01-.01.01-.027.019-.036-.018 0-.037 0-.046.009zm-.601.154c.278-.072.444-.109.602-.154a46.545 46.545 0 01-.223-.71c-.166.382-.25.555-.379.864zm5.637-5.269l-.055-.919c-.065.31-.12.61-.186.91.075.01.158.01.241.01z" fill="#E30D16"/></svg>