<svg width="40" height="40" viewBox="0 0 40 40" fill="none" xmlns="http://www.w3.org/2000/svg"><path fill-rule="evenodd" clip-rule="evenodd" d="M19.718.072c-.09.037-.24.163-.332.28l-.167.212v18.109l-2.442 3.976c-1.342 2.186-2.459 3.976-2.48 3.977-.022 0-.69-1.06-1.485-2.359-.794-1.298-1.535-2.462-1.645-2.587-.268-.302-.776-.322-1.05-.04C9.833 21.93 0 38.975 0 39.175c0 .285.17.579.402.7.324.167 38.872.167 39.196 0 .233-.121.402-.415.402-.7 0-.2-9.833-17.244-10.117-17.535-.274-.282-.782-.262-1.05.04-.11.125-.85 1.29-1.645 2.587-.795 1.298-1.463 2.36-1.485 2.359-.021 0-1.137-1.79-2.48-3.977l-2.442-3.976V9.368h5.945c5.407 0 5.965-.011 6.165-.13.356-.21.487-.636.302-.983-.05-.09-.703-.932-1.454-1.869l-1.365-1.704 1.365-1.704c.75-.937 1.405-1.778 1.454-1.87.185-.345.054-.772-.302-.982-.2-.119-.783-.13-6.614-.125-3.517.003-6.468.035-6.56.071zM30.61 1.89c-1.997 2.468-2.082 2.596-1.987 2.978.04.157.608.903 1.987 2.606l.268.332H20.781V1.558h10.097l-.268.332zm-5.051 27.532l5.517 8.962-5.538.02c-3.046.011-8.03.011-11.076 0l-5.538-.02 5.517-8.962c3.034-4.93 5.536-8.963 5.559-8.963.023 0 2.525 4.034 5.559 8.963zm-13.57-3.51c.721 1.173 1.316 2.178 1.321 2.233.006.055-1.396 2.39-3.115 5.188L7.07 38.42l-2.441.001c-1.343 0-2.441-.018-2.441-.043 0-.064 8.452-14.651 8.473-14.623.01.012.608.983 1.329 2.156zm21.635 5.184c2.304 3.981 4.188 7.259 4.188 7.283 0 .025-1.098.044-2.44.043l-2.442-.001-3.125-5.088c-1.72-2.798-3.12-5.133-3.115-5.187.016-.167 2.643-4.396 2.695-4.341.028.029 1.935 3.31 4.239 7.29zM19.718 24.44c-.246.1-.5.462-.5.714 0 .313.36.688.713.744.238.038.323.008.545-.19.22-.196.263-.29.263-.563 0-.272-.044-.368-.254-.555-.256-.23-.468-.27-.767-.15zm1.716 2.575a.832.832 0 00-.293.25c-.304.434-.285.47 2.494 4.987 1.441 2.341 2.69 4.327 2.776 4.413.11.11.26.156.512.156.293 0 .39-.038.545-.219.4-.464.425-.41-2.431-5.053-1.441-2.34-2.683-4.32-2.759-4.396-.165-.165-.61-.238-.844-.138z" fill="#E30D16"/></svg>