<svg width="50" height="50" viewBox="0 0 50 50" fill="none" xmlns="http://www.w3.org/2000/svg"><path d="M49.994 24.583c-.29-.47-.302-1.128-.38-1.73-.045-.514-.157-1.05-.381-1.463-.135-.235-.068-.67-.27-.86-.01.056-.022.078-.033.112-.011.2.202.513.067.57-.157.055-.123-.358-.19-.537-.18-.524-.291-1.071-.426-1.618-.09-.335-.179-.67-.358-.927a.987.987 0 01-.168-.324c-.28-.904-.784-1.63-1.176-2.511-.19-.436-.516-.849-.84-1.25l-.953-1.318-1.042-1.25-.179-.179c.045.29.168.58.359.904.168.302.246.514.537.536.112 0 .202.179.146.268-.1.19.045.39.202.614 1.008 1.329 1.792 2.791 2.486 4.32.247.47.415.96.55 1.519.055.346.347.636.403 1.049.033.212.09.413-.056.447-.112.022-.247-.056-.28-.302-.168-.904-.594-1.63-.93-2.4-.235-.447-.403-.938-.672-1.362-.336-.536-.605-.592-.784-.246-.045.09.022.179.056.29.1.347.336.648.37 1.017.01.089.078.256.022.256-.28-.022-.415.335-.717.257-.056-.011-.135-.045-.157-.145-.034-.123.045-.112.1-.123.225 0 .258-.446.583-.212-.1-.246-.179-.424-.257-.614-.09-.2-.112-.458-.303-.58.023.212-.18.111-.213.212-.067.19-.157.223-.347.055-.09-.078-.134-.022-.18.023-.055.067-.111.123-.2-.023-.08-.134-.012-.212.044-.256.045-.034.123-.023.19-.034.056-.011.135-.056.101-.123-.28-.502.045-.301.146-.29.258.023.235-.167.078-.502-.09-.201-.19-.38-.403-.67.112.223-.134.2.112.447.09.089.258.234.258.424 0 .2-.19.01-.27.056-.122.067-.313-.302-.402-.146-.079.123-.169.146-.314.112-.09-.179.201-.134.011-.346-.078-.1-.213-.112-.325-.156-.056-.592.303-.625.639-.692.033-.012.123.044.1 0-.235-.358.079-.335.012-.592-.18.134-.359.022-.56-.324-.079-.134-.19-.257-.292-.38-.179-.223-.459-.435-.224-.703-.627-.022-.716-.68-1.086-.993-.325-.29-.684-.58-.93-.983a.447.447 0 00-.37-.212c.348.447.74.849 1.132 1.24a.653.653 0 01.168.234c.078.234.112.424.403.513.135.045.291.268.157.402-.224.223-.538.268-.896.268-.068-.312.112-.368.246-.457.067-.045.18-.067.067-.224-.09-.123-.179-.156-.257-.044-.101.133-.112.49-.538.066-.011-.01-.056 0-.056 0-.022.235-.302.168-.414.28-.224.2-.437.122-.717-.302-.202-.312-.19-.591.033-.703.19-.09.213-.335.314-.514.045-.067.1-.145.235-.055.135.089.079.156.101.256.034-.033.067-.055.09-.089.067-.09.112-.246-.012-.38-.156-.178-.28-.078-.38 0-.168.123-.437.134-.359.47.034.133-.168-.09-.258-.012-.123.112-.313.145-.37.335-.01.045-.078.067-.145.078-.067.011-.246-.145-.246-.022s.157.156.257.234c.381.302.717.648 1.076.983.112.1.033.178.033.256 0 .1-.09.079-.168.056-.1-.022-.157-.134-.257-.19-.023.18.157.414-.034.492-.067.033.078.2.123.257.213.178.18.245.045.323-.213.134-.392.302-.594.458-.044.033-.134.033-.078.156.045.1.123.212.202.201.145-.022.313.145.459.1.09-.022.202.023.246.157.034.111-.033.2-.112.2-.157 0-.28.046-.425.057-.135.01-.258-.112-.314-.268-.135-.346-.47-.514-.661-.826-.056-.079-.112-.045-.134.01-.124.258-.258.19-.449-.11-.111-.19-.28-.224-.358-.079-.033.067-.09.067-.145.011-.135-.111-.303-.167-.381-.312-.056-.1.09-.079.168-.09.325-.067.448-.368.672-.547.112-.089.168-.335.302.1.056.19.235.18.359.235.157.067-.023-.1.033-.134.19-.09.314-.257.426-.458.056-.1.213.19.37.246-.18-.212-.079-.313-.023-.435.034-.056.067-.123-.011-.212-.078-.1-.134-.056-.213-.045-.202.011-.336.09-.347.324-.011.212-.269.2-.37.335-.033.033-.1 0-.145-.056-.112-.134.033-.19-.023-.313-.314.067-.493.28-.784.369-.168.055-.291.212-.437.323-.112.09-.201.056-.302-.044-.112-.1-.079-.212.01-.257.326-.156.516-.458.83-.625.258-.145.571-.313.638-.692.045-.235.168-.503.47-.547.08-.012.113-.034.08-.123a.325.325 0 00-.157-.19c-.101-.056-.18-.078-.202.011-.101.313-.47.391-.605.67a2.32 2.32 0 01-.706.86c-.314.223-.582.513-.93.725-.09-.603-.123-.591.18-.725-.247-.045-.404-.146-.516-.324-.033-.056-.022-.156-.112-.156a.202.202 0 00-.179.1c-.168.29-.515.413-.762.636-.01.012-.067 0-.078-.01-.056-.045-.045-.101-.022-.135.123-.19.179-.413.324-.591.112-.123-.09-.514-.29-.626-.124-.067-.572.112-.538.224.067.223-.045.268-.27.223-.123-.022-.235-.011-.29.09-.023.055-.09.1-.18.033-.1-.067-.056-.145 0-.19.112-.1.235-.19.359-.268.1-.067.1-.179.044-.29-.056-.1-.19-.112-.29-.112-.18 0-.191.134-.158.212.079.201-.145.145-.235.212-.067.045-.123.012-.18-.044-.089-.112-.133-.224-.044-.313.112-.111.056-.257-.078-.323-.292-.157-.19-.235-.09-.358.067-.09.09-.2-.034-.324a.345.345 0 00-.37-.044c-.044.022-.1.044-.167 0-.336-.235-.415-.034-.527.111-.157.19-.1.436-.157.648-.022.09.068.09.124.112.224.111.179.234.1.357-.033.044-.09.067-.168.056-.078-.023-.09-.079-.112-.134-.022-.123.079-.324-.268-.224-.124.034-.18-.122-.157-.212.033-.167-.012-.335-.079-.49-.044-.113-.044-.213.101-.28.067-.034.112-.09.157-.134.056-.078.1-.167-.034-.245-.145-.09-.212.01-.268.055-.18.145-.314.168-.437-.134-.034.201-.09.313.224.346.168.011.201.503.045.592-.09.045-.213.056-.146.212s-.067.29-.28.28c-.247-.012-.258-.168-.247-.313a.537.537 0 00-.134-.425c-.168-.2-.347-.145-.47-.022-.236.212-.213.223-.46-.033.011.078.034.134.034.2 0 .112-.067.19-.213.19-.157 0-.28-.056-.302-.19l-.034-.379c0-.067.022-.134-.011-.19-.067-.123 0-.312-.235-.357-.225-.022-.348.1-.482.234-.168.168-.348.38-.728.28-.124-.034-.168.044-.19.111-.057.134-.124.302-.37.246-.224-.045-.236-.223-.27-.357-.01-.056.034-.112.057-.201-.247.089-.18.212-.18.312-.01.112.034.246-.168.29-.246.056-.548.168-.728.079-.145-.09-.168-.347-.19-.525-.023-.145-.023-.29-.224-.346-.224-.067-.37.078-.56.145-.392.134-.336.458-.583.659-.022.022-.022.078 0 .1.101.067.18.145 0 .235-.179.089-.403.156-.537.044-.112-.09-.292-.167-.337-.312-.044-.18-.224-.213-.436-.134-.19.067-.292.122-.27.323.012.157-.122.346-.223.514-.09.145-.325.167-.415.044-.044-.066-.056-.145-.09-.223-.044-.09-.01-.279-.19-.212-.134.067-.336.257-.19.413.078.078.078.168-.011.257-.09.09-.157.033-.236 0-.157-.056-.157-.022-.145.123.01.1-.101.29-.27.335-.257.067-.436.279-.671.368-.18.078-.336.168-.515.056-.168-.1-.482.112-.493.324-.012.2-.112.335-.303.446-.09.056-.19.112-.258.179-.212.2-.324.29-.358-.023-.011-.167-.146-.167-.28-.167-.078 0-.168.022-.202.112-.044.122-.056.245.045.323.079.056-.112.525-.235.648-.224.212-.38.29-.56.123-.034-.034-.056-.067-.101-.09-.202-.134-.38-.022-.47.268-.068.201-.023.369.01.525.034.123-.033.178-.145.212-.325.067-.403.357-.493.625-.045.123-.022.268-.179.357-.18.1-.224-.055-.325-.089-.112-.033-.146-.279-.302-.145-.135.134.033.257.01.402-.022.111.023.178.08.245.111.123.111.29.01.48-.1.201-.235.18-.37.157-.055-.011-.111-.011-.167.067-.023.067.011.078.045.09.09.01.212-.012.123.178-.067.145-.18.245-.28.134-.101-.123-.157-.012-.168.078-.034.312-.258.591-.19.926.055.235-.068.58-.258.815-.392.447-.392 1.05-.56 1.585-.068.19-.034.413-.101.603-.123.48-.146.971-.168 1.463-.079.58-.034 1.172-.067 1.741-.034.28.033.558.056.826l.156 1.329c.101.435.213.86.336 1.284.325.814.55 1.663 1.042 2.4.19.346.224.57.034.96.145.067.269.01.403.067.246.09.403.245.527.49.168.313.414.56.638.816.336.39.74.714 1.02 1.15.201.245.459.435.75.58.336.19.582.514.874.782.325.323.706.547 1.098.692.403.167.672.469 1.041.647.247.134.448.29.75.201.191-.033.494.1.684.268.146.112.269.168.437.145.202-.033.336.067.482.19.38.313.918.424 1.411.514.101.022.135-.045.18-.1.123-.168.28-.168.436 0 .09.1.235.133.348.144.324.045.66-.022.985.078.112.023.202-.044.247-.122.044-.067.145-.134.224-.09.403.212.795-.022 1.198-.044.19-.023.392.055.527.134.269.156.47.033.605-.146a.462.462 0 01.437-.19c.302.079.571-.111.862-.066.045 0 .101 0 .135-.023.414-.301.952-.357 1.411-.58.46-.179.885-.525 1.367-.636.616-.146 1.008-.715 1.635-.838.202-.446.627-.547 1.02-.748.044-.033.056-.122.1-.178.18-.246.325-.492.673-.547.19-.023.37-.157.425-.436.079-.312.381-.513.616-.748.661-.848 1.412-1.618 1.938-2.567.348-.558.594-1.184.997-1.708.09-.112.09-.224.101-.335-.078-.76.269-1.362.75-1.853.045-.045.124-.067.124-.145.022-.58.414-.693.66-.938.169-.156.37-.235.527-.458.135-.178.37-.1.538-.312.224-.28.481-.313.74-.212.089.033.122-.012.145-.18.022-.256.145-.234.246-.189.112.045.068.179.056.346-.022.38-.269.58-.28.95 0 .088-.09.189.011.256.056.033.135.022.168-.078.124-.358.213-.168.28.055.079.268.169.347.337.18.056-.057.134-.068.201-.124.079-.056.157-.134.213.011.056.146.1.302 0 .47-.123.223-.146.345.056.368.168.022.291.29.504.178.09-.044.045.212.056.346.011.402-.18.882-.033 1.228.1-.19.19-.368.324-.413.19-.067.303.09.213.436-.09.335-.145.58.135.446.056-.022.1.011.1.09-.033.49.157.346.348.234a.34.34 0 01.224-.045c.157.034.201.168.045.491-.135.268-.27.536-.392.804a1.495 1.495 0 00-.225.748c-.01.268.034.357.202.235.112-.078.168-.067.213.089.067.257.302.112.493.078.179-.033.37-.134.549-.178.112-.023.19.067.033.312-.593.96-.985 1.987-1.377 3.059-.56 1.328-1.378 2.545-2.275 3.695-.313.413-.246.011-.403.033-.022.235-.011.436-.168.715-.09.167-.157.346-.37.39-.111.023-.111.101-.168.19-.235.335-.37.693-.828.96-.729.447-1.233 1.184-1.938 1.697-.112.09-.202.201-.348.28-.582.312-.56.334-1.109.904a15.77 15.77 0 001.916-1.262c.795-.658 1.624-1.34 2.397-2.065.672-.703 1.378-1.384 1.916-2.222.47-.636.963-1.25 1.4-1.897.202-.28.336-.614.582-.86.112-.134.202-.245.292-.212.078.033.044.19 0 .335a4.23 4.23 0 01-.202.469c-.448.826-.863 1.674-1.49 2.411-.482.625-.851 1.328-1.422 1.92-.337.346-.684.625-1.02 1.05-.538.647-1.232 1.317-1.96 1.786-.527.368-.874.736-1.322 1.105-.807.536-1.49 1.306-2.52 1.607-.28.09-.583.324-.93.525.571-.022.358.145-.146.424-.605.313-1.22.58-1.837.849-.414.178-.74.39-1.143.535-.056.023-.1.068-.156.079-1.076.212-1.938.725-3.047.848-.773.134-1.647.212-2.398.436-.123.044-.548-.034-.75-.101a.408.408 0 00-.347.011c-.415.179-.908.09-1.412.067-.481-.022-1.053-.212-1.467.011-.079.045-.18-.01-.27-.044-.56-.224-1.108-.391-1.78-.335-.101.01-.314-.045-.415-.09-.425-.245-.773-.268-1.109-.178-.257-.045-.425-.123-.537-.257-.112-.123-.314-.178-.516-.145-.313.078-.504.011-.717-.257-.156-.19-.504-.279-.784-.268-.257.011-.224.09.09.235.146.067.123.134.011.145-.145.022-.022.044.034.111.325.358.907.402 1.344.559.134.055.336.067.448.01-.19-.089-.392-.122-.594-.167-.235-.056-.29-.167-.347-.256-.022-.045-.056-.1.045-.079.168.034.269.112.414.168.292.123.639.212.964.301.033.011.09-.078.134-.111.303.067.381.268.728.323.079.012.112.067.09.112-.067.134-.919.223-1.277.112a29.99 29.99 0 01-3.17-1.027 47.346 47.346 0 01-2.14-.972c-.93-.457-1.803-1.015-2.688-1.563-.37-.267-.157-.312-.023-.312.202 0 .448.033.717.078.224.045.359.034.46-.033-1.053-.559-1.009-.614-1.311-.179-.135.2-.908-.19-1.512-.76-.292-.267-.19-.312-.079-.356.067-.023.18 0 .314.156.37.413.717.514 1.042.547.28.022.403-.033-.056-.39-.045-.034-.112-.079-.146-.124-.269-.346-.504-.457-.818-.38-.078.023-.123.068-.28-.033-.1-.089-.09-.145-.09-.2.012-.079.191-.09-.1-.28-.224-.145-.348-.111-.404 0-.01.023.034.112.079.168.09.145.426.38.246.435-.156.045-.459-.167-.672-.368-.437-.424-.93-.77-1.333-1.24-.336-.401-.75-.747-1.12-1.16-1.367-1.54-2.532-3.249-3.529-5.057-.784-1.418-1.366-2.948-1.904-4.466-.258-.949-.594-1.909-.784-2.891-.18-1.005-.37-2.043-.381-3.07 0-.067-.022-.156-.011-.19.157-.536-.056-.904-.157-1.317-.045-.168-.067-.302-.045-.48a21.61 21.61 0 00.258-2.98c0-.336.112-.738.19-1.106.034-.156.034-.48.168-.402.101.067.168.257.101.57-.056.256-.157.513-.056.725.09-.145.034-.212.045-.301.034-.246.056-.57.18-.681.1-.09.167.1.19.268.033.19.1.424-.101.602-.123.112-.034.257-.011.335.123.48.414.47.795.034-.067-.212-.18-.023-.269-.034-.112-.01-.28.112-.302-.245-.012-.212-.023-.491.078-.67.123-.223.235.045.37-.078.01-.011.033.056.056.1.045.09.078.19.157.045a.44.44 0 00.09-.257c0-.19-.068-.279-.135-.257-.37.1-.639-.334-.997-.279-.157.034-.247-.178-.146-.602.146-.581.224-1.15.403-1.753.09-.357.236-.826.359-1.217.123-.424.291-.77.46-1.15.145-.335.324-.68.335-1.016 0-.123.101-.167.135-.256.224-.436.549-.838.605-1.329.022-.156.112-.212.179-.301.112-.145.269-.357.302-.492.235-.881.84-1.518 1.39-2.165.1-.112.234-.29.257-.369.157-.636.706-.993 1.098-1.45.38-.414.773-.76 1.12-1.251.437-.648.997-.826 1.546-1.027-.034-.078-.056-.123-.067-.179-.023-.09-.045-.2.134-.346.213-.178.157 0 .19.056.023.045.034.09.157 0 .101-.078.157-.168.146-.223-.023-.335.537-.704.784-1.016.045-.067.157-.123.258-.156.38-.123.459.167 1.03-.213.101-.067-.022.157-.145.257-.202.168-.404.313-.594.491-.213.212-.18.29-.112.369.045.044.1.044.246-.067.18-.145.336-.313.291-.402-.056-.112-.033-.212.225-.39.29-.202.302-.068.347.021.313-.245.258-.38.28-.535.056-.257.134-.48.717-.715a1.23 1.23 0 00.571-.458c-.056-.078-.325.157-.414.101-.045-.034-.079-.056-.023-.134a.343.343 0 01.202-.134c.358-.045.627-.313.93-.513.492-.302.65-.313.582-.056-.011.067-.011.122.112.067.235-.112.605-.168.661-.369.067-.2.358-.268.426-.256.325.089.694-.168 1.086-.302.146-.056.348-.2.437-.112.079.067-.1.18-.257.28-.202.145-.437.134-.65.234-.213.112-.448.212-.538.357a.283.283 0 01-.269.134c-.537-.022-.504.156-.47.335.011.078-.112.235.112.19.235-.045.213-.223.28-.246.504-.178.694-.502 1.109-.714.28-.123.392-.09.482-.034.313.19.224.558.593.726.101.045-.145.167-.168.246-.067.178-.246.368.011.468.236.1.012.302-.37.503-.268.145-.414.234-.178.324.123.044.156.178.1.323-.022.067-.067.145.045.145a.286.286 0 00.146-.067c.1-.089.168-.2.1-.223-.29-.067-.022-.324.135-.558.134.167.661-.022.65.212 0 .045.09.034.168 0a.472.472 0 00.134-.112c.067-.111.213-.279.146-.334-.303-.257.336-.559.66-.882.214.312.942.424 1.12.781-.145-.246.135-.48.46-.714.146-.1-.033-.123-.056-.19-.022-.078.023-.19.224-.246.247-.056.157.078.168.134.045.268.123.525.415.726.291-.112.313-.257.291-.335-.067-.268.549-.402.728-.625.067-.078.213-.045.247.01.044.079.078.168.134.302.112-.279.078-.502.347-.725.056-.045.079-.1-.045-.112-.1-.011-.403.123-.28-.045a.648.648 0 01.449-.212c.179-.01.145.09.179.157.056.156-.056.323-.079.49-.01.202.023.37.628.246.336-.044.459.045.448.179-.011.09.01.167.022.268.258-.067.258-.145.291-.223.101-.246.18-.503.919-.525.056 0 .134-.045.18-.067.078-.056.078-.167.29-.145.213.022.135.134.18.2.01.023 0 .057-.012.079-.033.156.068.279.404.313.425.033.257-.168.358-.268.112-.1-.123-.268.37-.28.425-.01.537.034.392.201-.056.067-.101.123-.168.201.269-.01.549.056.66-.1.023-.034.146-.045.202-.011.146.089.325.167.516.09.145-.068.526-.101.078-.314.616.112.784.257.616.436-.045.056-.145.09-.19.145-.056.067-.023.145.123.2.213.08.269-.01.336-.055.213-.145.168-.368.437-.502.1-.056.157-.157.38-.078.202.067.046.134.023.19l-.112.245c-.033.09.034.167.224.223.202.045.336.045.403-.044.023-.034.068-.056.124-.067.112-.045.179-.157.425-.067.224.078.124.156.101.234-.033.123.19.246.415.268.515.078.515.067.37.301.414.034.582-.089.739-.2.1-.068.179-.168.425-.056.18.089.101.2.079.279-.045.123-.056.234.112.413.448-.023.045-.57.907-.346-.224.156.067.435-.168.591-.168.1.1.346.46.503 1.086.58 2.195.614 2.296.033.011-.078-.034-.167-.157-.268-.112-.089-.157-.156.033-.1.381.111.225.38.662.536.044.01-.012.134-.101.134-.325-.034-.37.078-.124.368.09.1.023.134-.056.134-.313.033-.145.335-.19.513-.022.079.1.201.258.257.179.056.201-.022.112-.134-.19-.245.044-.167.145-.223.18-.09.605.067.672-.134.023-.056.157-.033.247.045.1.089.291.19.291.279 0 .067-.067.078-.213-.023-.1-.066-.179-.066-.145.012.067.19.067.19-.19.145.089.268.806.301.627.68.179-.077.134-.267.38-.133.202.111.023.167.19.301.438-.212 1.009.57 1.535.76-.201.156-.257.424-.616.39-.067 0-.1.067-.224-.033-.09-.067-.09-.123-.1-.19-.023-.1.078-.179-.146-.346-.123-.023-.101.089-.157.134-.157.134-.09.268.302.424.045.022.124.056.146.078.515.76 1.356 1.105 1.972 1.764.313.357.773.714 1.176 1.05.258.211.224.256.078.256-.157.011-.112.123.023.324.145.2.28.368.414.301.067-.033.056-.223.235-.011.157.19.056.234.034.324-.09.234.19.446.358.68.65 1.005 1.39 1.999 1.793 3.227-.303-.246-.493-.402-.661-.87-.247-.626-.762-1.14-1.02-1.787-.044-.1-.179-.168-.235-.145-.078.022-.022.167.056.279.392.525.594 1.172 1.03 1.675.146.19.225.435.292.658.056.223.135.413.28.592.325.38.415.882.583 1.34a23.81 23.81 0 011.826 6.575c.078.446.123.893.1 1.362zM14.327 46.776c-.01.044-.246-.012-.022.156.146.111.314.223.426.145.067-.045.201-.145.325.145.044.1.1.067.134.045.224-.112.526.1.829.245.123.067.202.157.38.201.102.023.068-.212.27.056.1.134.01.168-.19.134-.09-.022-.258-.112-.146.045a.73.73 0 00.481.29c.09.022.224.1.202-.011-.067-.335.291-.145.683.056.202.111.247.089.314.033-.011-.09-.101-.156-.303-.212-.325-.078-.761-.145-.784-.458 0-.044-.157-.089-.257-.123-.617-.19-1.221-.401-1.703-.86-.202-.2-.426-.2-.527-.122-.1.045-.1.145-.112.235zM4.66 12.839c-.045-.011-.09-.045-.157.067-.067.111-.045.178-.033.234a.703.703 0 01-.101.469c-.146.245-.224.1-.347.167-.124.067.01-.245.044-.402.023-.111.045-.223.101-.446-.302.58-.515 1.016-.336 1.261.034.045 0 .18 0 .28-.011.346-.1.636-.336.68-.235.045-.18.257-.19.425-.012.1.022.178.033.279 0 .134.023.279-.09.435-.089.123-.134.056-.179-.022-.033-.056-.044-.168-.1-.168-.135-.01-.314-.111-.47.324-.158.402-.158.86-.203 1.273-.01.156.034.268.135.212.146-.09.045-.223.078-.335.09-.346.157-.748.325-1.016.157-.268.247-.033.381-.033.078 0 .168-.09.247-.09.156-.01.201-.122.235-.413.067-.49.19-1.05.504-1.496.157-.234.213-.357.201-.547 0-.1-.01-.223.101-.368.112-.156.18-.112.236-.067.134.112.313.123.504.123.067 0 .134.067.201-.134.067-.157-.011-.201-.078-.201-.269.022-.448-.1-.538-.424 0-.079-.1-.045-.168-.067zm3.26-5.203c-.258-.044-.616.09-.874.023.213.056.202.312.258.513.056.224-.034.436-.37.637a.904.904 0 00-.302.312c-.404.603-.448 1.24-1.053 1.842a.472.472 0 00-.068.157c.023.334-.302.703-.425 1.027-.101.066-.09 0-.112-.023-.034-.056-.023-.234-.157-.033-.134.178-.067.245-.011.301.224.19.493-.033.74-.636.133-.324.313-.536.402-.413.124.167.292.268.47.346.068.033-.022.357.169.156.18-.179.1-.346.168-.536.067-.2-.034-.2-.1-.245-.113-.079-.247-.145-.259-.38-.01-.09-.033-.2.101-.301.55-.391.415-.58.37-.815-.023-.123.022-.28.09-.503.414.056.582-.446.85-.815.236-.323.337-.569.113-.614zm2.901-2.333c-.571.29-.47-.01-.313-.39-.146.223-.538.38-.505.602.045.268.605.1.336.614.482-.279.168.302.482.213.09-.023.079.167.291-.056.135-.145.325-.335.224-.436-.156-.156-.403-.234-.414-.513 0-.022-.056-.056-.1-.034zM12.2 4.79c-.258-.067-.28-.302-.527-.369-.224.235-.358.425-.078.402.258-.022.291.179.18.324-.28.424-.023.435.167.514.314-.38.527-.793.258-.871zm3.305-2.512c-.55.09-.37-.145-.236-.38.068-.111.112-.267-.1-.223a1.03 1.03 0 00-.628.424c-.045.067-.045.123-.067.179-.045.145-.078.313-.392.413-.38.134-.022-.167-.056-.234-.011-.012-.056 0-.1.01-.259.168-.315.336-.46.503-.314.324-.74.558-1.12.603-.079.167.044.2.134.257.112.067-.034.346.18.279.313-.1.29-.346.492-.525.157-.134.269-.178.403-.19.112-.01.224.023.09.134-.336.28-.157.57-.795.893-.168.09-.101.19-.101.268 0 .078.168.045.112.168-.157.38.045.48.437.402.224-.045.157.033.033.19-.1.122-.033.133.056.122.112-.022.19-.111.236-.19.078-.111.056-.2.022-.256-.067-.1-.246-.145.112-.425.034-.033.1-.078 0-.033-.616.29-.112-.346-.403-.324.291-.301.605-.57.907-.86h.079c.302.023.436-.178.582-.368.09-.123.067-.223.325-.368.347-.156.538-.514.258-.469zm1.714.09c.123-.068.246-.146.37-.202.089-.055.111-.122.066-.156-.044-.033-.123-.011-.235.045-.325.145-.347.134-.213-.056.168-.234.37-.48.426-.681.011-.067.022-.145-.146-.123-.145.011-.201.112-.28.179-.28.245-.549.469-.302.603.067.044.011.2-.19.279-.213.089-.27.01-.247-.09.034-.156-.134-.2-.314-.301-.112.28-.392.58.045.58-.246.48.168.715-.045 1.184-.044.09.056.134.202.111.18-.022.258-.134.358-.223.404-.357.381-.67.224-.781-.235-.168.068-.246.28-.369zm18.64 5.492c-.112-.123-.224-.157-.314-.112-.359.179-.594.413-.605.793 0 .056.011.089.112.123.246.078.46-.023.403-.213-.1-.334-.056-.569.404-.591zm3.315 2.645c.09-.033.011-.223-.123-.312-.202-.134-.134.033-.157.078-.078.123-.123.257-.201.368-.045.056-.157.146-.258.012-.235-.346-.482-.213-.717-.335.112.134.291.2.415.424-.28-.123-.292.045-.37.145-.045.056-.101.134-.023.212a.55.55 0 00.292.112c.09 0 .246 0 .179-.134-.1-.19.033-.19.157-.201.38-.011.526-.257.806-.369z" fill="#E30D16"/></svg>