<svg width="40" height="40" viewBox="0 0 40 40" fill="none" xmlns="http://www.w3.org/2000/svg"><path fill-rule="evenodd" clip-rule="evenodd" d="M18.428.022C12.656.545 7.424 3.422 4 7.954c-1.101 1.456-2.177 3.435-2.825 5.192-.394 1.07-.855 2.932-1.028 4.15-.196 1.38-.196 4.152 0 5.435.66 4.341 2.552 8.18 5.521 11.21 1.657 1.69 3.245 2.866 5.232 3.871 4.985 2.523 10.778 2.88 15.95.986 1.813-.663 4.093-1.941 5.609-3.142.81-.64 2.4-2.215 3.065-3.032a20.056 20.056 0 003.993-17.01c-.31-1.386-.434-1.735-.72-2.022-.25-.25-.29-.262-.695-.229-.488.04-.762.239-.898.65-.07.211-.038.427.19 1.311.423 1.634.593 2.973.591 4.67-.002 2.838-.533 5.22-1.722 7.722a18.086 18.086 0 01-5.982 7.076C27.24 36.906 23.762 37.994 20.03 38c-1.52.002-2.22-.064-3.598-.34-5.472-1.091-10.203-4.733-12.626-9.717-1.725-3.547-2.253-7.405-1.539-11.236A18.169 18.169 0 015.947 8.7c.628-.778 2.008-2.167 2.73-2.75 1.494-1.203 3.75-2.427 5.577-3.026 2.194-.72 3.87-.958 6.27-.896 1.683.044 2.757.197 4.303.612.755.203.924.225 1.152.15.422-.14.663-.485.663-.952 0-.34-.035-.428-.255-.648-.165-.165-.421-.303-.724-.392A26.812 26.812 0 0022.72.164c-.779-.116-3.564-.208-4.291-.142zm13.957 2.21c-.167.125-1.63 1.559-3.25 3.188-2.481 2.493-2.96 3.01-3.032 3.273-.05.182-.085 1.048-.086 2.07v1.757l-3.436 3.444c-3 3.007-3.443 3.48-3.49 3.736-.073.394.005.661.27.926.264.264.532.342.925.27.257-.047.726-.485 3.738-3.489l3.444-3.435h1.759c1.023 0 1.889-.036 2.071-.086.264-.071.78-.55 3.275-3.03 1.63-1.62 3.064-3.082 3.188-3.25.259-.349.299-.774.108-1.143-.205-.397-.336-.426-2.15-.468l-1.683-.039-.039-1.681c-.042-1.814-.07-1.945-.468-2.15a1.066 1.066 0 00-1.144.108zm-.202 5.234c.22.385.527.484 1.5.484h.9l-1.994 1.995-1.994 1.994h-2.544v-2.54l1.976-1.977 1.975-1.976.04.92c.023.545.08.993.141 1.1zM18 6.12c-5.205.808-9.434 4.33-11.14 9.276a13.918 13.918 0 00.658 10.659c3.043 6.228 10.245 9.285 16.856 7.154 1-.322 2.534-1.07 3.442-1.679 3.065-2.05 5.21-5.265 5.953-8.916.168-.828.294-3.223.196-3.742-.117-.626-.781-1.033-1.315-.806-.14.06-.342.202-.447.315-.185.2-.19.243-.204 1.594-.011 1.047-.054 1.582-.176 2.182-.983 4.837-4.534 8.437-9.373 9.503-.653.143-1.027.17-2.38.174-1.37.002-1.714-.022-2.367-.168-2.456-.55-4.366-1.585-6.088-3.3-1.732-1.727-2.845-3.808-3.333-6.233-.212-1.054-.19-3.545.04-4.59a12.196 12.196 0 011.08-3.037c1.7-3.32 4.705-5.581 8.427-6.337.601-.122 1.135-.165 2.194-.176l1.4-.015.263-.286c.324-.354.354-.755.085-1.157-.314-.47-.567-.54-1.896-.532-.645.004-1.49.057-1.875.117zm.943 5.902c-2.545.392-4.802 1.992-5.943 4.212-1.958 3.807-.622 8.46 3.035 10.572 1.368.79 2.728 1.125 4.31 1.062 1.288-.052 2.081-.249 3.207-.795 2.622-1.272 4.398-3.965 4.446-6.74.014-.782.01-.8-.216-1.037-.57-.596-1.465-.389-1.689.392a2.975 2.975 0 00-.076.665c0 .552-.261 1.53-.584 2.19a6.093 6.093 0 01-3.853 3.17c-.726.193-2.014.229-2.722.076a6.063 6.063 0 01-4.59-4.368c-.223-.836-.224-2.17-.001-3.002a6.054 6.054 0 014.35-4.29c.34-.086.797-.157 1.017-.157.785-.001 1.222-.245 1.372-.768.096-.337-.023-.717-.311-.993-.21-.2-.301-.23-.764-.244a6.518 6.518 0 00-.988.055z" fill="#E30D16"/></svg>