<svg width="50" height="50" viewBox="0 0 50 50" fill="none" xmlns="http://www.w3.org/2000/svg"><path d="M49.994 24.583c-.29-.469-.302-1.127-.38-1.73-.045-.514-.157-1.05-.381-1.463-.135-.234-.068-.67-.27-.86-.01.057-.022.079-.033.112-.011.201.202.514.067.57-.157.056-.123-.357-.19-.536-.18-.525-.291-1.072-.426-1.619-.09-.335-.179-.67-.358-.926a.987.987 0 01-.168-.324c-.28-.904-.784-1.63-1.176-2.512-.19-.435-.516-.848-.84-1.25l-.953-1.318-1.042-1.25-.179-.178c.045.29.168.58.359.904.168.301.246.513.537.536.112 0 .202.178.146.268-.1.19.045.39.202.614 1.008 1.328 1.792 2.79 2.486 4.32.247.469.415.96.55 1.518.055.346.347.636.403 1.05.033.212.09.413-.056.446-.112.022-.247-.056-.28-.301-.168-.905-.594-1.63-.93-2.4-.235-.447-.403-.938-.672-1.363-.336-.535-.605-.591-.784-.245-.045.09.022.178.056.29.1.346.336.648.37 1.016.01.09.078.257.022.257-.28-.023-.415.335-.717.256-.056-.01-.135-.044-.157-.145-.034-.122.045-.111.1-.122.225 0 .258-.447.583-.213-.1-.245-.179-.424-.257-.613-.09-.201-.112-.458-.303-.581.023.212-.18.112-.213.212-.067.19-.157.223-.347.056-.09-.078-.134-.022-.18.022-.055.067-.111.123-.2-.022-.08-.134-.012-.212.044-.257.045-.033.123-.022.19-.033.056-.011.135-.056.101-.123-.28-.503.045-.302.146-.29.258.022.235-.168.078-.503-.09-.2-.19-.38-.403-.67.112.224-.134.201.112.447.09.09.258.234.258.424 0 .201-.19.011-.27.056-.122.067-.313-.301-.402-.145-.079.123-.169.145-.314.112-.09-.18.201-.134.011-.347-.078-.1-.213-.111-.325-.156-.056-.591.303-.625.639-.692.033-.011.123.045.1 0-.235-.357.079-.335.012-.592-.18.134-.359.023-.56-.323-.079-.134-.19-.257-.292-.38-.179-.223-.459-.435-.224-.703-.627-.023-.716-.681-1.086-.994-.325-.29-.684-.58-.93-.982a.447.447 0 00-.37-.212c.348.446.74.848 1.132 1.239a.653.653 0 01.168.234c.078.235.112.425.403.514.135.044.291.268.157.402-.224.223-.538.268-.896.268-.068-.313.112-.369.246-.458.067-.045.18-.067.067-.223-.09-.123-.179-.157-.257-.045-.101.134-.112.491-.538.067-.011-.011-.056 0-.056 0-.022.234-.302.167-.414.28-.224.2-.437.122-.717-.302-.202-.313-.19-.592.033-.704.19-.089.213-.335.314-.513.045-.067.1-.145.235-.056.135.09.079.156.101.257.034-.034.067-.056.09-.09.067-.089.112-.245-.012-.379-.156-.179-.28-.078-.38 0-.168.123-.437.134-.359.469.034.134-.168-.09-.258-.011-.123.111-.313.145-.37.335-.01.044-.078.066-.145.078-.067.01-.246-.145-.246-.023 0 .123.157.157.257.235.381.301.717.647 1.076.982.112.1.033.179.033.257 0 .1-.09.078-.168.056-.1-.023-.157-.134-.257-.19-.023.179.157.413-.034.491-.067.034.078.201.123.257.213.179.18.245.045.324-.213.134-.392.301-.594.457-.044.034-.134.034-.078.157.045.1.123.212.202.2.145-.022.313.146.459.101.09-.022.202.022.246.156.034.112-.033.201-.112.201-.157 0-.28.045-.425.056-.135.011-.258-.111-.314-.268-.135-.346-.47-.513-.661-.826-.056-.078-.112-.044-.134.011-.124.257-.258.19-.449-.111-.111-.19-.28-.224-.358-.079-.033.067-.09.067-.145.012-.135-.112-.303-.168-.381-.313-.056-.1.09-.078.168-.09.325-.066.448-.368.672-.546.112-.09.168-.335.302.1.056.19.235.179.359.235.157.067-.023-.1.033-.134.19-.09.314-.257.426-.458.056-.1.213.19.37.246-.18-.213-.079-.313-.023-.436.034-.056.067-.123-.011-.212-.078-.1-.134-.056-.213-.045-.202.012-.336.09-.347.324-.011.212-.269.201-.37.335-.033.034-.1 0-.145-.056-.112-.134.033-.19-.023-.312-.314.067-.493.279-.784.368-.168.056-.291.212-.437.324-.112.09-.201.056-.302-.045-.112-.1-.079-.212.01-.256.326-.157.516-.458.83-.626.258-.145.571-.312.638-.692.045-.234.168-.502.47-.547.08-.011.113-.033.08-.123a.325.325 0 00-.157-.19c-.101-.055-.18-.078-.202.012-.101.312-.47.39-.605.67a2.32 2.32 0 01-.706.86c-.314.222-.582.513-.93.725-.09-.603-.123-.592.18-.726-.247-.045-.404-.145-.516-.324-.033-.055-.022-.156-.112-.156a.202.202 0 00-.179.1c-.168.29-.515.414-.762.637-.01.011-.067 0-.078-.011-.056-.045-.045-.1-.022-.134.123-.19.179-.413.324-.592.112-.123-.09-.513-.29-.625-.124-.067-.572.112-.538.223.067.224-.045.268-.27.224-.123-.023-.235-.012-.29.089-.023.056-.09.1-.18.033-.1-.067-.056-.145 0-.19.112-.1.235-.19.359-.267.1-.067.1-.179.044-.29-.056-.101-.19-.112-.29-.112-.18 0-.191.134-.158.212.079.2-.145.145-.235.212-.067.045-.123.011-.18-.045-.089-.111-.133-.223-.044-.312.112-.112.056-.257-.078-.324-.292-.156-.19-.234-.09-.357.067-.09.09-.201-.034-.324a.345.345 0 00-.37-.045c-.044.023-.1.045-.167 0-.336-.234-.415-.033-.527.112-.157.19-.1.435-.157.647-.022.09.068.09.124.112.224.112.179.235.1.357-.033.045-.09.067-.168.056-.078-.022-.09-.078-.112-.134-.022-.123.079-.324-.268-.223-.124.033-.18-.123-.157-.212.033-.168-.012-.335-.079-.491-.044-.112-.044-.213.101-.28.067-.033.112-.089.157-.133.056-.079.1-.168-.034-.246-.145-.09-.212.011-.268.056-.18.145-.314.167-.437-.134-.034.2-.09.312.224.346.168.011.201.502.045.591-.09.045-.213.056-.146.213.067.156-.067.29-.28.279-.247-.011-.258-.168-.247-.313a.537.537 0 00-.134-.424c-.168-.201-.347-.145-.47-.022-.236.212-.213.223-.46-.034.011.078.034.134.034.201 0 .112-.067.19-.213.19-.157 0-.28-.056-.302-.19l-.034-.38c0-.066.022-.133-.011-.19-.067-.122 0-.312-.235-.357-.225-.022-.348.101-.482.235-.168.167-.348.38-.728.279-.124-.034-.168.045-.19.112-.057.134-.124.301-.37.245-.224-.044-.236-.223-.27-.357-.01-.056.034-.112.057-.2-.247.088-.18.211-.18.312-.01.111.034.245-.168.29-.246.056-.548.167-.728.078-.145-.09-.168-.346-.19-.525-.023-.145-.023-.29-.224-.346-.224-.067-.37.078-.56.145-.392.134-.336.458-.583.66-.022.021-.022.077 0 .1.101.067.18.145 0 .234-.179.09-.403.156-.537.045-.112-.09-.292-.168-.337-.313-.044-.179-.224-.212-.436-.134-.19.067-.292.123-.27.324.012.156-.122.346-.223.513-.09.146-.325.168-.415.045-.044-.067-.056-.145-.09-.223-.044-.09-.01-.28-.19-.212-.134.067-.336.256-.19.413.078.078.078.167-.011.256-.09.09-.157.034-.236 0-.157-.055-.157-.022-.145.123.01.1-.101.29-.27.335-.257.067-.436.28-.671.368-.18.079-.336.168-.515.056-.168-.1-.482.112-.493.324-.012.201-.112.335-.303.447-.09.055-.19.111-.258.178-.212.201-.324.29-.358-.022-.011-.168-.146-.168-.28-.168-.078 0-.168.023-.202.112-.044.123-.056.246.045.324.079.056-.112.524-.235.647-.224.212-.38.29-.56.123-.034-.033-.056-.067-.101-.09-.202-.133-.38-.021-.47.269-.068.2-.023.368.01.524.034.123-.033.179-.145.213-.325.066-.403.357-.493.625-.045.122-.022.268-.179.357-.18.1-.224-.056-.325-.09-.112-.033-.146-.279-.302-.145-.135.134.033.257.01.402-.022.112.023.179.08.246.111.123.111.29.01.48-.1.2-.235.179-.37.156-.055-.01-.111-.01-.167.067-.023.067.011.078.045.09.09.01.212-.012.123.178-.067.145-.18.246-.28.134-.101-.123-.157-.011-.168.078-.034.313-.258.592-.19.927.055.234-.068.58-.258.815-.392.446-.392 1.05-.56 1.585-.068.19-.034.413-.101.603-.123.48-.146.971-.168 1.462-.079.58-.034 1.172-.067 1.742-.034.279.033.558.056.826l.156 1.328c.101.436.213.86.336 1.284.325.815.55 1.663 1.042 2.4.19.346.224.57.034.96.145.067.269.011.403.067.246.09.403.246.527.491.168.313.414.559.638.815.336.391.74.715 1.02 1.15.201.246.459.436.75.58.336.19.582.514.874.782.325.324.706.547 1.098.692.403.168.672.47 1.041.648.247.134.448.29.75.2.191-.033.494.101.684.269.146.111.269.167.437.145.202-.034.336.067.482.19.38.312.918.424 1.411.513.101.022.135-.045.18-.1.123-.168.28-.168.436 0 .09.1.235.133.348.145.324.044.66-.023.985.078.112.022.202-.045.247-.123.044-.067.145-.134.224-.09.403.213.795-.022 1.198-.044.19-.022.392.056.527.134.269.156.47.033.605-.145a.463.463 0 01.437-.19c.302.078.571-.111.862-.067.045 0 .101 0 .135-.022.414-.302.952-.357 1.411-.58.46-.18.885-.525 1.367-.637.616-.145 1.008-.715 1.635-.837.202-.447.627-.547 1.02-.748.044-.034.056-.123.1-.179.18-.245.325-.491.673-.547.19-.022.37-.156.425-.435.079-.313.381-.514.616-.748.661-.849 1.412-1.619 1.938-2.568.348-.558.594-1.183.997-1.708.09-.111.09-.223.101-.335-.078-.759.269-1.362.75-1.853.045-.044.124-.067.124-.145.022-.58.414-.692.66-.938.169-.156.37-.234.527-.457.135-.179.37-.1.538-.313.224-.279.481-.313.74-.212.089.034.122-.011.145-.179.022-.256.145-.234.246-.19.112.045.068.18.056.347-.022.38-.269.58-.28.948 0 .09-.09.19.011.257.056.034.135.023.168-.078.124-.357.213-.167.28.056.079.268.169.346.337.179.056-.056.134-.067.201-.123.079-.056.157-.134.213.011.056.145.1.301 0 .469-.123.223-.146.346.056.368.168.023.291.29.504.179.09-.045.045.212.056.346.011.402-.18.882-.033 1.228.1-.19.19-.369.324-.413.19-.067.303.09.213.435-.09.335-.145.58.135.447.056-.023.1.01.1.089-.033.491.157.346.348.235.078-.045.157-.056.224-.045.157.033.201.167.045.491-.135.268-.27.536-.392.804a1.494 1.494 0 00-.225.748c-.01.268.034.357.202.234.112-.078.168-.067.213.09.067.256.302.111.493.078.179-.034.37-.134.549-.179.112-.022.19.067.033.313-.593.96-.985 1.987-1.377 3.058-.56 1.329-1.378 2.546-2.275 3.695-.313.413-.246.012-.403.034-.022.234-.011.435-.168.714-.09.168-.157.346-.37.391-.111.023-.111.1-.168.19-.235.335-.37.692-.828.96-.729.447-1.233 1.183-1.938 1.697-.112.09-.202.2-.348.279-.582.313-.56.335-1.109.904.74-.424 1.311-.792 1.916-1.261.795-.659 1.624-1.34 2.397-2.066.672-.703 1.378-1.384 1.916-2.221.47-.636.963-1.25 1.4-1.898.202-.279.336-.614.582-.86.112-.133.202-.245.292-.212.078.034.044.19 0 .335a4.223 4.223 0 01-.202.47c-.448.825-.863 1.674-1.49 2.41-.482.626-.851 1.329-1.422 1.92-.337.347-.684.626-1.02 1.05-.538.648-1.232 1.317-1.96 1.786-.527.368-.874.737-1.322 1.105-.807.536-1.49 1.306-2.52 1.608-.28.09-.583.324-.93.525.571-.023.358.145-.146.424-.605.312-1.22.58-1.837.848-.414.179-.74.39-1.143.536-.056.022-.1.067-.156.078-1.076.212-1.938.726-3.047.849-.773.134-1.647.212-2.398.435-.123.045-.548-.033-.75-.1a.408.408 0 00-.347.01c-.415.18-.908.09-1.412.068-.481-.023-1.053-.212-1.467.01-.079.045-.18-.01-.27-.044-.56-.223-1.108-.39-1.78-.335-.101.011-.314-.044-.415-.09-.425-.245-.773-.267-1.109-.178-.257-.044-.425-.122-.537-.256-.112-.123-.314-.179-.516-.146-.313.079-.504.012-.717-.256-.156-.19-.504-.28-.784-.268-.257.01-.224.09.09.234.146.067.123.134.011.145-.145.023-.022.045.034.112.325.357.907.402 1.344.558.134.056.336.067.448.011-.19-.089-.392-.122-.594-.167-.235-.056-.29-.168-.347-.257-.022-.045-.056-.1.045-.078.168.033.269.112.414.167.292.123.639.213.964.302.033.011.09-.078.134-.112.303.067.381.268.728.324.079.011.112.067.09.111-.067.135-.919.224-1.277.112a29.99 29.99 0 01-3.17-1.027 47.346 47.346 0 01-2.14-.971c-.93-.458-1.803-1.016-2.688-1.563-.37-.268-.157-.313-.023-.313.202 0 .448.034.717.079.224.044.359.033.46-.034-1.053-.558-1.009-.614-1.311-.178-.135.2-.908-.19-1.512-.76-.292-.268-.19-.312-.079-.357.067-.022.18 0 .314.156.37.413.717.514 1.042.547.28.023.403-.033-.056-.39-.045-.034-.112-.078-.146-.123-.269-.346-.504-.458-.818-.38-.078.023-.123.067-.28-.033-.1-.09-.09-.145-.09-.201.012-.078.191-.09-.1-.28-.224-.144-.348-.11-.404 0-.01.023.034.112.079.168.09.145.426.38.246.436-.156.044-.459-.168-.672-.369-.437-.424-.93-.77-1.333-1.239-.336-.402-.75-.748-1.12-1.16-1.367-1.541-2.532-3.25-3.529-5.058-.784-1.418-1.366-2.947-1.904-4.465-.258-.95-.594-1.91-.784-2.892-.18-1.004-.37-2.043-.381-3.07 0-.067-.022-.156-.011-.19.157-.535-.056-.904-.157-1.317a1.155 1.155 0 01-.045-.48c.157-.982.235-1.942.258-2.98 0-.335.112-.737.19-1.105.034-.157.034-.48.168-.402.101.067.168.256.101.569-.056.257-.157.513-.056.726.09-.146.034-.213.045-.302.034-.245.056-.57.18-.68.1-.09.167.1.19.267.033.19.1.424-.101.603-.123.112-.034.257-.011.335.123.48.414.469.795.033-.067-.212-.18-.022-.269-.033-.112-.011-.28.111-.302-.246-.012-.212-.023-.49.078-.67.123-.223.235.045.37-.078.01-.01.033.056.056.1.045.09.078.19.157.045a.44.44 0 00.09-.256c0-.19-.068-.28-.135-.257-.37.1-.639-.335-.997-.28-.157.034-.247-.178-.146-.602.146-.58.224-1.15.403-1.753.09-.357.236-.826.359-1.216.123-.425.291-.77.46-1.15.145-.335.324-.681.335-1.016 0-.123.101-.168.135-.257.224-.435.549-.837.605-1.328.022-.157.112-.213.179-.302.112-.145.269-.357.302-.491.235-.882.84-1.518 1.39-2.166.1-.111.234-.29.257-.368.157-.636.706-.994 1.098-1.451.38-.413.773-.76 1.12-1.25.437-.648.997-.827 1.546-1.028-.034-.078-.056-.122-.067-.178-.023-.09-.045-.201.134-.346.213-.179.157 0 .19.055.023.045.034.09.157 0 .101-.078.157-.167.146-.223-.023-.335.537-.703.784-1.016.045-.067.157-.123.258-.156.38-.123.459.167 1.03-.212.101-.067-.022.156-.145.257-.202.167-.404.312-.594.49-.213.213-.18.291-.112.37.045.044.1.044.246-.068.18-.145.336-.312.291-.402-.056-.111-.033-.212.225-.39.29-.201.302-.067.347.022.313-.246.258-.38.28-.536.056-.257.134-.48.717-.714a1.23 1.23 0 00.571-.458c-.056-.078-.325.156-.414.1-.045-.033-.079-.055-.023-.134a.343.343 0 01.202-.133c.358-.045.627-.313.93-.514.492-.301.65-.313.582-.056-.011.067-.011.123.112.067.235-.111.605-.167.661-.368.067-.201.358-.268.426-.257.325.09.694-.167 1.086-.301.146-.056.348-.201.437-.112.079.067-.1.179-.257.279-.202.145-.437.134-.65.234-.213.112-.448.213-.538.358a.283.283 0 01-.269.134c-.537-.023-.504.156-.47.335.011.078-.112.234.112.19.235-.045.213-.224.28-.246.504-.179.694-.503 1.109-.715.28-.123.392-.089.482-.033.313.19.224.558.593.725.101.045-.145.168-.168.246-.067.179-.246.368.011.469.236.1.012.301-.37.502-.268.145-.414.235-.178.324.123.045.156.179.1.324-.022.067-.067.145.045.145a.286.286 0 00.146-.067c.1-.09.168-.201.1-.223-.29-.067-.022-.324.135-.559.134.168.661-.022.65.213 0 .044.09.033.168 0a.472.472 0 00.134-.112c.067-.112.213-.28.146-.335-.303-.257.336-.558.66-.882.214.313.942.424 1.12.782-.145-.246.135-.48.46-.715.146-.1-.033-.123-.056-.19-.022-.078.023-.19.224-.245.247-.056.157.078.168.134.045.268.123.524.415.725.291-.111.313-.256.291-.335-.067-.268.549-.402.728-.625.067-.078.213-.044.247.011.044.079.078.168.134.302.112-.28.078-.503.347-.726.056-.044.079-.1-.045-.111-.1-.012-.403.122-.28-.045a.648.648 0 01.449-.212c.179-.011.145.09.179.156.056.156-.056.324-.079.491-.01.201.023.369.628.246.336-.045.459.045.448.178-.011.09.01.168.022.268.258-.067.258-.145.291-.223.101-.245.18-.502.919-.525.056 0 .134-.044.18-.067.078-.055.078-.167.29-.145.213.023.135.134.18.201.01.023 0 .056-.012.078-.033.157.068.28.404.313.425.033.257-.167.358-.268.112-.1-.123-.268.37-.279.425-.011.537.033.392.2-.056.068-.101.124-.168.202.269-.011.549.056.66-.1.023-.034.146-.045.202-.012.146.09.325.168.516.09.145-.067.526-.1.078-.313.616.112.784.257.616.435-.045.056-.145.09-.19.145-.056.067-.023.146.123.201.213.079.269-.01.336-.055.213-.146.168-.369.437-.503.1-.056.157-.156.38-.078.202.067.046.134.023.19l-.112.245c-.033.09.034.168.224.224.202.044.336.044.403-.045.023-.033.068-.056.124-.067.112-.045.179-.156.425-.067.224.078.124.156.101.235-.033.122.19.245.415.267.515.079.515.067.37.302.414.033.582-.09.739-.201.1-.067.179-.168.425-.056.18.09.101.201.079.28-.045.122-.056.234.112.412.448-.022.045-.57.907-.346-.224.156.067.436-.168.592-.168.1.1.346.46.502 1.086.58 2.195.614 2.296.034.011-.078-.034-.168-.157-.268-.112-.09-.157-.157.033-.1.381.11.225.379.662.535.044.011-.012.134-.101.134-.325-.033-.37.078-.124.369.09.1.023.133-.056.133-.313.034-.145.335-.19.514-.022.078.1.2.258.257.179.056.201-.023.112-.134-.19-.246.044-.168.145-.223.18-.09.605.067.672-.134.023-.056.157-.034.247.044.1.09.291.19.291.28 0 .066-.067.077-.213-.023-.1-.067-.179-.067-.145.011.067.19.067.19-.19.145.089.268.806.302.627.681.179-.078.134-.268.38-.134.202.112.023.168.19.302.438-.212 1.009.569 1.535.759-.201.156-.257.424-.616.39-.067 0-.1.068-.224-.033-.09-.067-.09-.123-.1-.19-.023-.1.078-.178-.146-.346-.123-.022-.101.09-.157.134-.157.134-.09.268.302.424.045.023.124.056.146.079.515.759 1.356 1.105 1.972 1.763.313.358.773.715 1.176 1.05.258.212.224.256.078.256-.157.012-.112.123.023.324.145.201.28.369.414.302.067-.034.056-.224.235-.012.157.19.056.235.034.324-.09.235.19.447.358.681.65 1.005 1.39 1.998 1.793 3.226-.303-.245-.493-.402-.661-.87-.247-.626-.762-1.139-1.02-1.787-.044-.1-.179-.167-.235-.145-.078.023-.022.168.056.28.392.524.594 1.172 1.03 1.674.146.19.225.435.292.659.056.223.135.413.28.591.325.38.415.882.583 1.34a23.81 23.81 0 011.826 6.575c.078.447.123.893.1 1.362zM14.327 46.776c-.01.045-.246-.011-.022.156.146.112.314.224.426.145.067-.044.201-.145.325.146.044.1.1.067.134.044.224-.111.526.1.829.246.123.067.202.156.38.2.102.023.068-.211.27.057.1.134.01.167-.19.134-.09-.023-.258-.112-.146.044a.73.73 0 00.481.29c.09.023.224.1.202-.01-.067-.336.291-.146.683.055.202.112.247.09.314.034-.011-.09-.101-.157-.303-.212-.325-.079-.761-.146-.784-.458 0-.045-.157-.09-.257-.123-.617-.19-1.221-.402-1.703-.86-.202-.2-.426-.2-.527-.122-.1.044-.1.145-.112.234zM4.66 12.84c-.045-.011-.09-.045-.157.067s-.045.179-.033.235a.703.703 0 01-.101.468c-.146.246-.224.1-.347.168-.124.067.01-.246.044-.402.023-.112.045-.223.101-.447-.302.581-.515 1.016-.336 1.262.034.045 0 .178 0 .279-.011.346-.1.636-.336.681-.235.045-.18.257-.19.424-.012.1.022.179.033.28 0 .133.023.278-.09.435-.089.122-.134.055-.179-.023-.033-.055-.044-.167-.1-.167-.135-.011-.314-.112-.47.324-.158.402-.158.86-.203 1.272-.01.157.034.268.135.212.146-.089.045-.223.078-.334.09-.347.157-.748.325-1.016.157-.268.247-.034.381-.034.078 0 .168-.09.247-.09.156-.01.201-.122.235-.412.067-.492.19-1.05.504-1.496.157-.235.213-.357.201-.547 0-.1-.01-.223.101-.369.112-.156.18-.111.236-.066.134.111.313.122.504.122.067 0 .134.067.201-.134.067-.156-.011-.2-.078-.2-.269.022-.448-.101-.538-.425 0-.078-.1-.045-.168-.067zm3.26-5.202c-.258-.045-.616.09-.874.022.213.056.202.313.258.514.056.223-.034.435-.37.636a.904.904 0 00-.302.313c-.404.603-.448 1.239-1.053 1.842a.471.471 0 00-.068.156c.023.335-.302.703-.425 1.027-.101.067-.09 0-.112-.022-.034-.056-.023-.235-.157-.034-.134.179-.067.246-.011.302.224.19.493-.034.74-.637.133-.323.313-.536.402-.413a1.1 1.1 0 00.47.346c.068.034-.022.357.169.157.18-.179.1-.347.168-.536.067-.201-.034-.201-.1-.246-.113-.078-.247-.145-.259-.38-.01-.089-.033-.2.101-.3.55-.392.415-.581.37-.816-.023-.123.022-.279.09-.502.414.056.582-.447.85-.815.236-.324.337-.57.113-.614zm2.901-2.333c-.571.29-.47-.011-.313-.39-.146.222-.538.379-.505.602.045.268.605.1.336.614.482-.28.168.301.482.212.09-.022.079.167.291-.056.135-.145.325-.335.224-.435-.156-.156-.403-.235-.414-.514 0-.022-.056-.056-.1-.033zM12.2 4.79c-.258-.067-.28-.301-.527-.368-.224.234-.358.424-.078.402.258-.023.291.178.18.324-.28.424-.023.435.167.513.314-.38.527-.793.258-.87zm3.305-2.511c-.55.089-.37-.146-.236-.38.068-.112.112-.268-.1-.223a1.03 1.03 0 00-.628.424c-.045.067-.045.123-.067.179-.045.145-.078.312-.392.413-.38.134-.022-.168-.056-.235-.011-.011-.056 0-.1.011-.259.168-.315.335-.46.503-.314.323-.74.558-1.12.602-.079.168.044.201.134.257.112.067-.034.346.18.28.313-.101.29-.347.492-.525.157-.134.269-.179.403-.19.112-.011.224.022.09.134-.336.279-.157.57-.795.893-.168.09-.101.19-.101.268 0 .078.168.044.112.167-.157.38.045.48.437.402.224-.044.157.034.033.19-.1.123-.033.134.056.123.112-.023.19-.112.236-.19.078-.112.056-.201.022-.257-.067-.1-.246-.145.112-.424.034-.033.1-.078 0-.033-.616.29-.112-.347-.403-.324.291-.302.605-.57.907-.86h.079c.302.023.436-.178.582-.368.09-.123.067-.223.325-.369.347-.156.538-.513.258-.468zm1.714.089c.123-.067.246-.145.37-.201.089-.056.111-.123.066-.156-.044-.034-.123-.012-.235.044-.325.145-.347.134-.213-.056.168-.234.37-.48.426-.68.011-.068.022-.146-.146-.123-.145.01-.201.111-.28.178-.28.246-.549.47-.302.603.067.045.011.201-.19.28-.213.089-.27.01-.247-.09.034-.156-.134-.201-.314-.302-.112.28-.392.581.045.581-.246.48.168.714-.045 1.183-.044.09.056.134.202.112.18-.022.258-.134.358-.223.404-.358.381-.67.224-.782-.235-.167.068-.245.28-.368zm18.64 5.492c-.112-.123-.224-.156-.314-.111-.359.178-.594.413-.605.792 0 .056.011.09.112.123.246.078.46-.022.403-.212-.1-.335-.056-.57.404-.592zm3.315 2.646c.09-.034.011-.223-.123-.313-.202-.133-.134.034-.157.079-.078.122-.123.256-.201.368-.045.056-.157.145-.258.011-.235-.346-.482-.212-.717-.335.112.134.291.201.415.424-.28-.122-.292.045-.37.146-.045.055-.101.134-.023.212a.55.55 0 00.292.111c.09 0 .246 0 .179-.134-.1-.19.033-.19.157-.2.38-.012.526-.257.806-.369z" fill="#FFC000"/><path d="M4.313 38.839a14.16 14.16 0 01-1.098-1.808c-.65-1.15-1.143-2.412-1.602-3.64C1.008 31.817.526 30.176.37 28.48c-.045-.502-.18-.993-.37-1.54.504 6.14 3.271 11.844 7.427 15.997-.504-.659-2.577-3.249-3.114-4.097zm39.599-24.571c-.202-.29-.392-.58-.65-.837-.1-.111-.235-.234-.303-.167-.179.178-.436.256-.593.502.38.19.605-.134 1.008.29-.314-.178-.258.134-.314.313-.045.167.011.2.146.223.19.022.336-.1.571.045-.033-.212.448.1.135-.369zm2.588 5.258c.089-.067.022-.324-.08-.458-.111-.167-.122-.368-.19-.547-.022-.078-.044-.167-.111-.19-.057-.01-.079.056-.057.134.034.213-.056.224-.156.268-.157.079-.325.157-.437.402.157 0 .302-.111.403.324.045.168.19.179.235-.022.023-.112-.067-.29.023-.391.022.078.033.134.044.19.09.245.247.346.325.29zM20.32 1.385c.247-.044.381-.133.46-.267.168-.29-.157-.47-.023-.748.045-.1.347-.257.056-.28-.213-.01-.347.18-.582.235-.19.056-.157.134-.135.19.112.223-.235.547.112.714.034.067-.168.212.112.156zm21.205 15.63c-.145-.067-.201-.447-.436-.436-.314.011-.639 0-.807.313-.034.067-.067.111.011.2.067.079.146.135.213.056.202-.245.46-.457.851.045.056.078.135.078.18.034.056-.056.044-.112-.012-.212zm1.199-9.579c.135.156.168.056.258.078.202.045.224-.1.403-.167.034.2-.09.312.202.457.314.146.538.1.605-.033.067-.145-.269-.212-.404-.346l-.19-.212c-.1-.112-.201-.19-.291-.168-.213.045-.437.078-.639.134-.09.011-.044.134.056.257zm4.044 14.088c.112.078.202.09.19-.123-.01-.245-.078-.625-.19-.636-.246-.011-.504-.033-.75.168.257.268.481.089.784.223-.18.2-.47-.234-.47.324 0 .29.1.424.246.535 0-.267-.09-.68.19-.49zM33.046 11.388c-.034-.067-.067-.156-.1-.223-.023-.056-.035-.112-.113-.145-.09-.034-.123 0-.157.056a.768.768 0 01-.123.145c-.067.067-.291.056-.202.178a.81.81 0 00.437.324c.18.067.336-.011.437-.123.146-.167-.145-.123-.18-.212zM19.503.359c.201-.146.246-.224.201-.324-.022-.045-.123-.045-.235-.011-.258.078-.415.178-.538.312a.45.45 0 00-.134.313c-.011.324 0 .636.112.971.358-.268.246-.424.314-.603.078-.223-.113-.39.28-.658zm17.083 2.947c.414.19.773.134.549-.1-.493-.514.044-.146.269-.079.179.056.448.201.481.056.023-.112-.145-.301-.358-.335-.336-.067-.773-.234-.885-.011-.056.111-.034.257-.236.312-.134.012.045.1.18.157z" fill="#FFC000"/></svg>