<svg width="287" height="206" viewBox="0 0 287 206" fill="none" xmlns="http://www.w3.org/2000/svg"><g clip-path="url(#clip0_1432_18)"><g clip-path="url(#clip1_1432_18)"><mask id="a" style="mask-type:alpha" maskUnits="userSpaceOnUse" x="0" y="-144" width="287" height="350"><path d="M287-144H0v350h287v-350z" fill="#C4C4C4"/></mask><g mask="url(#a)" fill="#E30D16"><path d="M383.869 35.417c2.317-1.767 4.634-3.533 6.766-5.622 2.882-2.521 5.579-5.364 8.211-7.741 1.881-1.944 3.698-3.422 5.579-5.365 4.134-3.244 8.268-6.489 12.216-10.054l8.648-7.565c.75-.434 1.501-.867 2.438-.979.686.033 1.437-.401 1.752-1.012.751-.433 1.566-1.333 2.131-2.088.251-.144.937-.112 1.373.065-.065.466-.13.933-.444 1.543-.065.466-.315.611-.566.755-1.065 1.044-2.196 2.554-3.447 3.277l-8.648 7.565c-2.066 1.622-4.133 3.244-6.636 4.689-2.003 1.156-2.826 3.775-4.207 5.43 0 0-.065.466.121.787l.436.177c1.752-1.011 3.754-2.167 5.321-3.5 4.634-3.533 9.333-7.533 13.967-11.066 3.383-2.81 6.766-5.621 9.964-8.753 3.132-2.666 5.644-5.831 8.591-8.819.815-.899 1.566-1.333 2.567-1.911l8.841-8.963c.565-.755 1.567-1.333 2.132-2.088l.5-.289c.186.322.121.788.121.788-1.13 1.51-2.446 2.698-4.012 4.031-1.882 1.944-3.698 3.422-5.58 5.365-.5.289-.815.9-.759 2.153.121.788-.694 1.688-1.259 2.443-.566.755-1.317 1.188-1.817 1.477-2.382 2.233-4.828 4.932-7.21 7.164-.816.9-1.882 1.944-2.883 2.522-2.317 1.766-4.699 3.999-6.273 7.052-.88 1.365-1.946 2.409-2.762 3.309-2.567 1.911-4.328 4.642-5.281 8.194-.379 1.076-1.13 1.51-1.51 2.586-.25.145-.129.932-.193 1.398.435.177.871.354 1.122.21l.25-.145c2.067-1.622 4.319-2.922 6.136-4.4 2.067-1.622 4.134-3.244 5.83-5.509 1.76-2.731 4.327-4.642 6.459-6.73.5-.289.63-1.221 1.13-1.51-.686-.033-1.372-.066-1.622.079-1.252.722-2.067 1.622-3.133 2.666l-1.252.723c-.25.144-.435-.177-.686-.033.065-.466-.121-.788.129-.932.065-.466.315-.611.566-.755 2.067-1.622 3.883-3.1 5.95-4.722 1.066-1.044 2.067-1.622 3.625-1.235.436.177.686.032.937-.112 2.567-1.911 4.699-3.999 7.266-5.91 1.567-1.334 3.133-2.667 5.135-3.823 2.939-1.268 5.256-3.034 7.452-5.588 1.195-1.976 2.826-3.776 4.457-5.575.816-.899 1.752-1.011 2.81-.336 1.057.676 1.558.387 2.123-.368 1.446-2.121 3.262-3.598 5.636-4.111.936-.112 1.566-1.333 2.382-2.233.565-.755 1.316-1.188 1.881-1.943.25-.145.686.032.686.032.186.322.121.788.121.788-.315.61-.63 1.221-.88 1.365-3.569 2.489-6.144 6.12-9.527 8.931l-.251.144c-.129.932-.444 1.543-.573 2.475l1.752-1.011c1.001-.578 1.816-1.478 3.068-2.201 1.316-1.188 2.818-2.055 4.384-3.388l.751-.434c-.25.145-.315.611-.565.755-2.011 2.876-4.207 5.43-6.218 8.306-.315.611-.379 1.077.493 1.431l.306 1.109c-.565.755-1.316 1.188-1.881 1.943-1.566 1.334-3.133 2.667-3.521 5.463-.129.932-.629 1.221-1.13 1.51-2.632 2.377-5.7 4.577-8.332 6.954-.501.289-1.252.723-.009 1.72l.122.788c-.251.144-.315.61-.816.899-2.253 1.301-4.32 2.923-6.822 4.368l-.751.433c-2.132 2.088-4.514 4.321-7.016 5.766-.501.289-.881 1.366-.76 2.153.057 1.254-.508 2.009-1.259 2.442-.251.145-.687-.032-.808-.82-.056-1.253-.492-1.43-.992-1.141l-.751.433c-3.884 3.1-7.517 6.055-11.401 9.154-.5.289-1.437.401-.944 1.832.742 1.286 1.307.531 1.994.564l1.001-.578c2.632-2.377 5.514-4.899 8.146-7.276.251-.145.566-.755 1.002-.578l1.501-.867c-.315.61-.63 1.221-.88 1.366-.25.144-.065.466-.129.932.25-.145.436.177.686.032 1.817-1.477 3.633-2.955 5.7-4.577.816-.9 2.067-1.622 3.068-2.2.251-.145.687.032.687.032-.065.466.121.788-.13.933-.815.899-1.445 2.12-2.697 2.843-4.949 4.143-9.156 9.573-14.476 13.074-2.317 1.766-4.449 3.855-6.581 5.943l-9.592 9.396c-1.631 1.799-3.197 3.132-5.014 4.61-3.197 3.132-6.394 6.264-9.777 9.075-2.697 2.843-5.83 5.509-8.526 8.352-2.447 2.699-4.893 5.398-7.776 7.919-.315.611-.815.9-1.566 1.333l-1.696 2.266c-.565.755-1.195 1.976-1.575 3.052-.314.611-.565.755-.88 1.366-.25.144-.064.466-.129.932.25-.145.436.177.686.033l1.252-.723c2.817-2.056 5.7-4.577 8.332-6.954.751-.434 1.381-1.655 1.946-2.41.25-.144.315-.61.565-.755 2.753-1.59 5.321-3.501 7.767-6.199.565-.755 1.316-1.189 2.067-1.622.501-.289.88-1.366 1.809.242 1.001-.578 1.937-.69 2.938-1.268 1.252-.723 2.568-1.911 3.634-2.955.25-.145.686.032.686.032-.065.466-.315.611-.129.932-1.882 1.944-3.949 3.566-5.58 5.365-.5.289-1.065 1.044-1.38 1.655-.945 1.831-2.511 3.164-3.828 4.353-.815.9-1.881 1.944-2.696 2.843-3.068 2.2-6.322 4.079-9.39 6.279l-.501.289-14.654 11.033c-2.567 1.911-4.763 4.465-7.21 7.164-.25.144-.315.61-.38 1.076.251-.144.687.033.937-.112 1.316-1.188 2.632-2.377 4.198-3.71l.251-.144c2.939-1.268 4.763-4.466 7.767-6.2 8.824-5.523 16.721-12.655 24.803-19.464 3.883-3.1 7.46-7.309 11.158-10.73l1.252-.723 1.752-1.011c3.568-2.489 7.137-4.978 10.52-7.789 3.569-2.489 6.952-5.3 10.52-7.789 1.502-.867 3.189-1.412 4.691-2.279l.436.177-.065.466c-2.696 2.843-5.393 5.686-8.276 8.208-1.065 1.044-2.317 1.767-3.132 2.666-2.132 2.088-4.199 3.71-6.33 5.798-2.883 2.522-6.016 5.188-8.898 7.71-3.698 3.421-7.331 6.376-11.215 9.476-1.816 1.477-4.255 2.456-6.071 3.934-1.502.867-2.818 2.055-4.134 3.244-.816.899-1.881 1.944-2.697 2.843a6178.097 6178.097 0 00-22.3 18.02l-3.254 1.878c-1.316 1.189-2.632 2.378-4.013 4.032-1.881 1.944-3.576 4.209-5.458 6.153-1.066 1.044-1.881 1.943-2.947 2.987s-2.382 2.233-3.447 3.277c-1.631 1.799-3.513 3.743-5.144 5.542-.25.144-.315.61-.565.755-3.383 2.81-7.016 5.766-10.214 8.898-.815.899-1.881 1.943-2.511 3.164-.25.145.121.788-.129.932.25-.144.436.178.686.033 1.817-1.478 3.698-3.421 5.515-4.899l2.753-1.589c.25-.145.436.177.622.498 0 0-.065.466.121.788l-.945 1.832c-.315.61-1.066 1.044-1.567 1.333-3.132 2.666-4.651 6.972-7.041 10.925-1.195 1.976-2.575 3.63-3.956 5.285-3.327 4.064-7.461 7.308-11.344 10.408l-8.647 7.565c-1.567 1.333-2.762 3.309-4.078 4.498-1.946 2.409-4.328 4.642-6.459 6.73-.816.9-1.631 1.799-2.261 3.02-.25.145-.315.611-.129.932-.13.932.678 1.752.993 1.142.75-.434 1.316-1.189 1.816-1.478 1.066-1.044 2.317-1.766 3.633-2.955l6.201-4.866c.501-.289.816-.899 1.066-1.044l10.9-8.865c1.316-1.189 2.382-2.233 3.698-3.422.25-.144.565-.755 1.001-.578 1.437-.401 2.503-1.445 3.633-2.955.25-.144.686.033.686.033l-.129.932c-.315.61-.38 1.077-.88 1.366-2.568 1.911-4.513 4.32-7.081 6.231-4.069 2.778-7.21 7.164-11.279 9.942-3.319 2.345-6.266 5.333-9.649 8.143-2.317 1.767-4.449 3.855-6.58 5.943l-1.696 2.265c-1.13 1.51-2.511 3.165-3.827 4.353-7.331 6.377-14.848 12.432-22.365 18.486-4.384 3.389-9.018 6.922-13.402 10.311-1.316 1.188-2.883 2.521-4.385 3.388-4.133 3.244-8.703 6.312-12.837 9.556-2.568 1.911-5.2 4.288-7.025 7.485-2.39 3.952-5.829 5.509-8.776 8.497-1.066 1.044-2.317 1.767-2.39 3.952-.065.466-.38 1.077-.88 1.366-1.316 1.189-2.632 2.377-3.577 4.209-.63 1.221-1.631 1.799-2.447 2.698-.25.145-.064.466-.129.933 1.679 1.174.492 1.43-.008 1.719-1.066 1.044-1.696 2.265-3.625 1.236-.436-.177-.751.433-1.001.578-2.818 2.055-5.2 4.288-8.018 6.343l-.5.289c-2.705 4.563-6.896 6.554-10.279 9.364L178.18 313.23c-2.632 2.377-5.014 4.609-7.646 6.986-2.382 2.233-4.949 4.144-7.396 6.843-7.21 7.164-14.727 13.218-22.494 19.418-6.515 5.476-13.281 11.098-19.797 16.574l-25.748 21.297c-1.566 1.333-2.947 2.988-4.578 4.787-.315.61-.816.899-1.566 1.333l-6.201 4.866c-1.001.578-1.631 1.799-1.64 3.519-.008 1.719-.573 2.474-1.574 3.052-3.383 2.811-7.016 5.766-10.214 8.898-.5.289-.815.9-.944 1.832-.194 1.398-.76 2.153-1.76 2.731-2.568 1.911-5.136 3.822-7.517 6.055-.501.289-.816.9-.695 1.687.056 1.254-.509 2.009-1.074 2.764-1.316 1.189-2.196 2.554-2.52 4.884-.258 1.865-1.074 2.764-2.075 3.342-2.188.835-3.197 3.132-4.763 4.465-.5.289-.566.755-1.066 1.044-2.253 1.301-3.512 3.743-4.772 6.185-.695 1.687-1.825 3.198-3.076 3.92l-9.205 6.6c-2.567 1.911-4.142 4.964-7.266 5.911-.25.144-.5.289-.565.755-2.39 3.952-5.337 6.94-8.35 10.393-1.63 1.799-3.261 3.599-4.642 5.253-.815.9-1.26 2.442-2.075 3.342-.816.899-1.631 1.799-2.632 2.377-1.316 1.189-2.382 2.233-3.884 3.1-2.317 1.766-4.82 3.211-7.573 4.801-1.001.578-1.566 1.333-2.568 1.911-2.066 1.622-4.505 2.601-7.556 1.362-1.308-.532-2.745-.131-3.932.126-1.187.256-1.622.079-2.55-1.528-1.3-2.251-2.98-3.425-4.295-2.237l-1.002.578c-.75.434-1.186.257-1.679-1.174-.492-1.431-1.113-1.929-2.171-2.605-4.666-2.88-9.332-5.759-13.618-9.715-.807-.821-1.8-1.962-2.793-3.104-1.364-1.785-2.05-1.817-2.93-.452-.566.755-.945 1.832-1.696 2.266-.25.144-.751.433-1.187.256-.371-.643-.492-1.431-.428-1.897.065-.466.13-.932.444-1.542.315-.611.816-.9 1.381-1.655 1.066-1.044.517-3.728-1.162-4.903-.436-.177-.872-.354-1.372-.065-.751.434-1.316 1.189-2.132 2.088-1.695 2.266-4.311 1.203-6.353-2.334-.928-1.607-1.671-2.894-2.163-4.324-.307-1.109-1.114-1.93-1.671-2.894-.743-1.286-1.735-2.428-2.914-3.891-1.178-1.464-2.107-3.071-3.035-4.679-.371-.643-1.178-1.463-1.3-2.251-1.476-4.292-4.02-7.54-6.311-10.932-.929-1.608-1.615-1.641-2.245-.42-.315.611-.88 1.366-1.195 1.977-.815.899-1.501.867-2.309.046-.807-.82-1.049-2.395-.484-3.15.63-1.221.824-2.619 1.64-3.519.815-.899.508-2.008.016-3.439-.557-.965-.864-2.074-1.42-3.039-.493-1.43-.993-1.141-1.494-.852-1.001.578-1.817 1.477-2.567 1.911-.5.289-.566.755-1.252.722-.25.145-1.122-.209-1.308-.531-.185-.321-.306-1.109-.242-1.575l.065-.466c1.316-1.189.638-2.941-.225-5.015-1.235-2.717-.476-4.87-.218-6.734.194-1.398.073-2.186-.92-3.327-.992-1.142-1.493-.853-2.244-.42l-.75.434c-2.189.834-2.81.336-4.481-2.558-1.3-2.251-1.727-4.148-1.033-5.835.38-1.076.509-2.008.017-3.439-.121-.788-.492-1.431-.428-1.897-.056-1.254-.363-2.363-1.105-3.649-.557-.964-.799-2.54-1.607-3.36-.621-.498-1.808-.242-2.494-.274-1.558-.387-2.495-.275-3.56.769-.566.755-1.873.224-2.996.014-.129.932-.686-.032-.871-.354-.372-.643-.493-1.431-.614-2.218-.678-1.752-1.986-2.284-2.615-1.062-.315.61-.445 1.542-1.688.545-.807-.82-1.235-2.717-.92-3.327.945-1.832 1.704-3.985 3.206-4.852.501-.289.815-.9 1.13-1.51.251-.145-.121-.788-.056-1.254-.436-.177-.872-.354-1.122-.21-1.567 1.333-3.133 2.667-4.449 3.855-.565.755-1.066 1.044-2.123.369-.807-.821-1.55-2.107-1.606-3.36-.186-.322.064-.466-.121-.788-.186-.322-.121-.788-.307-1.109l-.751.433c-.315.611-.88 1.366-1.195 1.976-.315.611-.509 2.009-1.938.69-.992-1.141-1.485-2.572-.855-3.793.565-.755 1.131-1.51 1.631-1.799 2.317-1.767 4.635-3.533 6.395-6.264.63-1.222.444-1.543-.234-3.295-2.413-4.18-4.956-7.428-7.684-10.998-1.55-2.106-1.978-4.003-2.155-6.044.129-.932.008-1.72-.734-3.006-.743-1.286-.614-2.219.137-2.652.501-.289.88-1.366 1.381-1.655.315-.61.63-1.221.073-2.185-.678-1.753-.113-2.508.452-3.263.565-.755 1.381-1.654 1.76-2.731.63-1.221.259-1.864-.863-2.074-1.558-.386-2.301-1.673-2.664-4.035-.121-.788-.613-2.219-.984-2.862-1.114-1.929-1.663-4.613-.597-5.657 1.566-1.333 1.454-3.841 2.398-5.672 1.325-2.909 1.406-6.814 3.352-9.224.25-.144.129-.932.258-1.864-.686-.032-1.429-1.319-1.994-.564-1.881 1.944-3.948 3.566-6.079 5.654-1.317 1.189-2.447 2.699-3.513 3.743l-1.695 2.265-.751.434c-.186-.322-.557-.965-.493-1.431l.453-3.262c1.074-2.764 2.334-5.206 3.408-7.97.315-.611.815-.9 1.316-1.189 1.566-1.333 3.318-2.344 4.328-4.642.315-.611 1.065-1.044 1.566-1.333l1.696-2.265c.815-.9 1.631-1.799 2.381-2.233 1.817-1.477 3.262-3.598 4.086-6.217 1.01-2.298 1.147-4.95 1.721-7.425 0 0 .064-.466.315-.61 1.13-1.51 2.511-3.165 3.827-4.353 1.816-1.478 3.819-2.634 5.635-4.111 2.067-1.623 3.949-3.566 5.765-5.044 1.566-1.333 2.883-2.521 4.635-3.533.75-.433 1.687-.545 2.438-.979 1.937-.69 3.504-2.023 4.699-3.999.38-1.077.945-1.832 1.946-2.41 1.752-1.011 3.318-2.344 4.448-3.854 1.066-1.044 2.011-2.876 2.891-4.242.25-.144.315-.61.565-.755 2.495.275 3.755-2.167 5.507-3.179 2.002-1.156 3.754-2.167 5.57-3.645 2.067-1.622 3.949-3.566 6.08-5.654.5-.289.566-.755 1.252-.722.25-.145.872.354 1.057.675 1.05 2.396 1.05 2.396 2.672 2.316.25-.144.25-.144.686.033.25-.145.436.177.622.498.186.322.121.788-.13.933-.314.61-1.065 1.044-.322 2.33.992 1.141 1.186-.257 1.687-.546 1.251-.722 2.317-1.766 3.383-2.81.75-.434 1.502-.867 2.81-.336.435.177.807.82 1.178 1.463.186.322-.13.932-.38 1.077-.315.61-1.065 1.044-1.195 1.976-.064.466.307 1.109.242 1.575.25-.144.686.033.937-.112 2.317-1.767 4.384-3.389 6.701-5.155 2.067-1.622 3.763-3.887 5.894-5.975.25-.145.315-.611 1.001-.579.25-.144.687.033 1.123.21-.065.466-.13.932-.38 1.077-1.51 2.586-2.77 5.029-5.087 6.795-2.317 1.767-4.449 3.855-6.58 5.943-.25.144-.315.611-.816.9-.064.466-.129.932-.38 1.076.251-.144.687.033 1.188-.256l.5-.289c.686.032.872.354.993 1.141l-.259 1.865c.121.787.614 2.218 1.235 2.716.622.499 1.558.387 1.623-.079 3.763-3.887 7.525-7.774 11.538-11.806 1.38-1.655 3.197-3.132 4.764-4.465 2.632-2.378 5.078-5.076 7.46-7.309 1.566-1.333 2.883-2.521 4.449-3.855 1.566-1.333 3.133-2.666 4.764-4.465 1.065-1.044 2.066-1.622 3.132-2.666.5-.289 1.187-.256 1.744.708 1.735 2.428 2.3 1.673 3.617.485 1.566-1.334 2.947-2.988 4.448-3.855 2.318-1.767 4.635-3.533 7.138-4.978 1.501-.867 3.003-1.734 4.32-2.923 3.632-2.955 7.015-5.766 10.834-8.399l.5-.289c.251-.145.687.032 1.373.065-.064.466.057 1.253-.258 1.864-.315.611-.816.9-1.066 1.044-1.817 1.478-3.883 3.1-5.7 4.577-.565.755-1.195 1.976-1.575 3.053-.064.466.242 1.575.614 2.218.185.322.871.354 1.307.531.436.178.5-.289 1.001-.578 4.134-3.244 8.203-6.022 12.337-9.266 5.2-4.288 10.4-8.576 15.413-13.186 1.817-1.478 4.005-2.312 6.314-2.359.686.033 1.437-.401 1.938-.69 2.131-2.088 4.263-4.176 5.652-7.55.694-1.688 2.26-3.021 3.391-4.531 2.447-2.698 5.079-5.076 7.71-7.453 2.383-2.232 5.2-4.288 7.768-6.199 3.448-3.277 6.895-6.553 10.278-9.364a280.237 280.237 0 014.95-4.144c6.45-5.01 12.716-10.343 19.167-15.353 1.066-1.044 2.253-1.301 3.318-2.345l.501-.289c1.445-2.12 3.819-2.633 5.45-4.433.815-.899 1.881-1.943 2.697-2.843 1.316-1.188 3.253-1.878 4.569-3.067 2.067-1.622 3.698-3.421 5.58-5.365.25-.144.5-.289.565-.755 1.074-2.763 2.89-4.241 4.707-5.718 6.701-5.156 12.967-10.488 19.668-15.643 3.633-2.955 7.703-5.733 11.522-8.367 2.317-1.767 4.884-3.678 7.387-5.123.751-.433 1.066-1.044 2.309-.047.186.322.436.178.686.033.751-.433 1.688-.545 2.003-1.156 4.133-3.244 8.453-6.167 12.587-9.411 1.501-.867 2.753-1.589 4.376-1.669 2.123-.368 4.246-.737 6.063-2.214 4.384-3.389 9.018-6.922 13.402-10.311 2.568-1.911 4.95-4.143 7.889-5.411l7.008-4.046 2.002-1.156c2.818-2.056 5.886-4.256 8.703-6.312l10.706-7.467c3.569-2.489 6.952-5.3 10.27-7.644 2.318-1.767 4.57-3.067 7.194-3.725l1.752-1.011c2.818-2.056 5.636-4.111 8.704-6.311 1.251-.723 2.317-1.767 3.318-2.345.25-.144.872.354 1.308.531l-.194 1.398c-4.635 3.534-9.519 7.211-14.154 10.744-2.317 1.767-5.07 3.356-7.387 5.123-8.018 6.344-16.221 12.366-24.488 18.854-3.569 2.489-6.702 5.155-10.27 7.644-.751.434-1.752 1.012-1.325 2.909.186.321-.129.932-.379 1.076-.816.9-1.631 1.799-2.196 2.554-3.698 3.422-7.832 6.666-11.53 10.087l-2.447 2.699c-2.131 2.088-4.263 4.176-6.209 6.586l-.25.144c-.065.466-.129.932.056 1.254.436.177.872.354 1.123.209l4.004-2.312.751-.433c.436.177 1.122.209 1.057.675.186.322.307 1.11-.008 1.72-.064.466-.565.755-1.066 1.044-3.883 3.1-8.017 6.344-11.901 9.444-4.133 3.244-8.453 6.166-12.587 9.41-2.817 2.056-5.385 3.967-8.203 6.023-.751.433-1.752 1.011-.824 2.619.743 1.286 1.744.708 2.309-.047 3.569-2.489 6.952-5.3 10.335-8.11 2.568-1.911 5.385-3.967 8.51-4.913 1.437-.401 2.503-1.445 4.004-2.312.751-.434 1.131-1.511.824-2.62-.056-1.253.259-1.864.945-1.831l.5-.289c2.43.74 3.811-.914 5.377-2.247 3.319-2.345 6.516-5.477 10.206-7.179 5.692-2.857 10.455-7.322 15.59-11.144 5.135-3.823 10.085-7.966 15.034-12.11 1.817-1.478 3.819-2.634 5.571-3.645.25-.145.936-.112 1.372.065-.064.466.057 1.254-.008 1.72-.315.61-.63 1.221-1.13 1.51-3.383 2.81-7.017 5.766-10.214 8.898-3.197 3.132-6.645 6.409-9.842 9.541-2.132 2.088-4.328 4.642-6.831 6.087-8.825 5.524-16.285 12.832-24.738 18.999-1.252.722-1.882 1.943-2.947 2.988-.251.144-.065.466-.315.61l.5-.289c.251-.144.436.177.686.033-.064.466.121.787-.129.932-.315.61-.88 1.365-1.381 1.654-1.316 1.189-2.882 2.522-4.012 4.032l-1.502.867c-1.817 1.478-3.633 2.955-5.264 4.754-.251.145-.13.932.056 1.254.436.177.622.499.872.354.936-.112 1.687-.545 2.438-.979l4.756-2.746c5.385-3.966 10.77-7.933 15.97-12.221 7.452-5.589 14.718-11.499 22.171-17.088 1.251-.722 2.252-1.3 3.318-2.344.751-.434 1.381-1.655 2.132-2.088 1.566-1.333 3.318-2.345 4.884-3.678 1.502-.867 2.818-2.056 3.884-3.1 1.251-.722 2.503-1.445 3.568-2.489 1.002-.578 1.381-1.654 2.382-2.232 4.635-3.533 8.833-7.244 13.468-10.777 1.566-1.333 2.882-2.521 4.634-3.533 1.066-1.044 2.382-2.233 4.005-2.312.435.177.75-.433 1.251-.722 1.316-1.189 2.818-2.056 4.134-3.245.5-.289.815-.899 1.873-.224.621.499 1.187-.256 1.937-.69 5.2-4.288 10.335-8.11 15.535-12.398 2.882-2.522 5.95-4.722 8.833-7.243 2.632-2.377 5.7-4.578 8.146-7.276 5.458-6.153 12.281-10.52 18.11-16.03 2.632-2.377 4.829-4.931 7.461-7.308 2.067-1.622 4.319-2.923 6.136-4.4 2.067-1.622 4.691-2.28 6.136-4.4.25-.145.501-.289.565-.755 4.384-3.389 8.833-7.244 13.217-10.632l.751-.434c5.127-2.102 9.14-6.134 13.588-9.989l.501-.289c2.939-1.268 4.764-4.465 7.517-6.054.5-.29.815-.9 1.381-1.655l.435.177c.057 1.254.743 1.286 1.058.676 2.632-2.377 5.264-4.755 8.332-6.955 1.316-1.188 2.818-2.055 4.32-2.922.5-.29 1.251-.723 1.752-1.012l8.647-7.565c4.949-4.143 10.084-7.965 15.034-12.11 2.317-1.766 4.513-4.32 6.645-6.408 2.446-2.699 5.329-5.22 7.775-7.919l2.447-2.699c1.316-1.188 2.381-2.232 3.697-3.421 2.447-2.698 5.079-5.076 7.526-7.774 2.696-2.843 5.514-4.899 8.953-6.456.251-.144.251-.144.687.033l-.065.466c-.509 2.008-2.196 2.554-3.262 3.598-2.697 2.843-5.394 5.686-8.341 8.674-2.381 2.232-4.327 4.642-6.524 7.196-2.131 2.088-3.827 4.354-5.958 6.442-1.631 1.799-3.077 3.92-5.079 5.075-1.502.867-2.697 2.844-4.263 4.177a279.149 279.149 0 01-4.949 4.143c-.566.755-1.567 1.334-1.696 2.266-.694 1.687-2.011 2.875-3.262 3.598-5.45 4.433-10.835 8.4-16.099 13.153-1.316 1.189-2.197 2.555-3.327 4.065-.816.9-1.631 1.799-2.196 2.554l-6.589 7.662c-.25.145-.25.145-.315.611.25-.145.436.177.686.032l.251-.144c3.068-2.2 6.136-4.4 9.454-6.745l2.753-1.59c3.319-2.344 6.637-4.689 9.77-7.355 1.316-1.188 2.382-2.232 3.698-3.42 1.631-1.8 3.262-3.599 5.078-5.077.251-.144.565-.755 1.001-.578 2.124-.368 3.254-1.878 4.635-3.533.315-.61.815-.9 1.066-1.044 5.449-4.432 10.649-8.72 16.099-13.153 2.882-2.522 5.579-5.365 8.211-7.742 1.567-1.333 2.697-2.844 4.264-4.177l.75-.433.436.177c.186.322-.064.466.121.788l-.25.144c-1.445 2.12-2.64 4.097-4.086 6.218l-.5.289c-1.809-.243-2.753 1.59-3.819 2.633-1.252.723-2.382 2.233-3.448 3.277-.565.755-1.316 1.188-2.317 1.766-5.45 4.433-11.15 9.01-16.6 13.443-.501.289-.816.9-1.131 1.51.501-.289 1.187-.256 1.438-.4 2.002-1.157 3.883-3.1 6.442-3.292.937-.112 1.938-.69 2.689-1.123.25-.145.436.177.872.354-.065.466.121.787-.13.932-1.816 1.477-3.447 3.276-5.014 4.61-1.316 1.188-2.632 2.377-4.384 3.388l-6.2 4.866c-.751.434-1.066 1.044-1.446 2.121-.129.932.428 1.897 1.114 1.93.686.032.937-.113 1.437-.402 1.817-1.477 3.698-3.42 5.515-4.898 2.317-1.767 4.569-3.067 7.072-4.512.251-.145.686.032.937-.112-.065.466.121.787-.129.932-.315.61-.881 1.365-1.381 1.654-1.567 1.333-3.383 2.81-4.949 4.144-.566.755-1.381 1.655-1.946 2.41-.251.144-.065.466-.13.932.251-.145.436.177.687.032.936-.112 1.622-.08 2.438-.979 1.38-1.654 2.947-2.987 4.578-4.787 2.131-2.088 4.077-4.497 6.209-6.585 2.196-2.554 4.392-5.109 7.517-6.055.936-.112 1.752-1.012 3.18.307l-1.695 2.265c-2.568 1.911-5.385 3.967-7.21 7.164-.315.61-.566.755-.445 1.543-.008 1.72-.573 2.475-1.324 2.908-3.383 2.81-6.701 5.155-10.084 7.966-.251.144-.315.61-.315.61l.5-.289 1.252-.722c.25-.145.436.177.872.354-.065.466.121.788-.13.932-.565.755-1.065 1.044-1.816 1.478-2.002 1.156-3.819 2.633-5.45 4.432-1.381 1.655-3.569 2.489-5.135 3.822-3.318 2.345-6.822 4.368-8.777 8.497-.315.611-.815.9-1.316 1.189l-10.149 8.432c-1.066 1.044-1.946 2.41-3.197 3.132-2.253 1.301-3.948 3.566-5.644 5.831-.315.61-.815.899-1.316 1.188-2.818 2.056-5.571 3.646-8.203 6.023-8.017 6.343-15.849 13.009-23.931 19.819-1.567 1.333-2.697 2.843-4.078 4.497-.5.289-.815.9-1.316 1.189-2.632 2.377-5.7 4.577-8.518 6.633-1.566 1.333-3.068 2.2-4.634 3.533-1.817 1.477-3.448 3.277-5.014 4.61-.816.899-1.566 1.333-2.568 1.911-1.316 1.188-2.817 2.055-4.384 3.388-.25.145-.5.289-.315.611-2.382 2.232-4.699 3.999-7.081 6.232l-2.446 2.698c-.25.145-.315.611-.38 1.077-.064.466.121.788.057 1.254.25-.145.686.032.936-.112l5.45-4.433c1.316-1.189 2.568-1.911 3.884-3.1.5-.289.565-.755 1.251-.722.25-.145.937-.112 1.373.065-.065.466-.315.61-.63 1.221l-.945 1.832c.501-.289.815-.9 1.566-1.333.501-.289 1.066-1.045 1.381-1.655 2.067-1.622 4.384-3.389 6.451-5.011 6.766-5.621 13.282-11.098 20.048-16.719 2.317-1.767 4.263-4.176 6.144-6.12l2.002-1.156c2.318-1.766 4.699-3.999 6.831-6.087 1.066-1.044 2.317-1.767 3.383-2.811l8.647-7.565c1.066-1.044 2.067-1.622 3.625-1.235.686.032 1.688-.546 2.438-.979.251-.145.687.032.687.032-.065.466.121.788.056 1.254-.065.466-.565.755-.63 1.221-1.066 1.044-1.51 2.587-.21 4.838.185.321.371.643.121.787-.009 1.72.363 2.363 1.614 1.641l.436.177c.186.321-.065.466-.065.466-.25.144-.314.61-.75.433-3.69 1.702-6.387 4.545-9.334 7.533-.5.289-.815.899-1.066 1.044-2.632 2.377-5.264 4.754-8.146 7.275-1.567 1.333-2.883 2.522-4.263 4.177-2.011 2.875-4.393 5.108-5.225 9.447-.258 1.864-1.575 3.053-2.269 4.74-.065.466-.38 1.076-.63 1.221.501-.289.937-.112 1.437-.401 2.568-1.911 5.2-4.288 8.268-6.488zm44.71-6.95c4.384-3.388 8.332-6.954 12.531-10.664 3.132-2.666 6.015-5.188 8.962-8.175.751-.434 1.13-1.511 1.696-2.266.25-.144.064-.466.129-.932-.25.145-.436-.177-.686-.032l-4.005 2.312c-1.251.722-2.567 1.911-3.633 2.955-3.068 2.2-6.758 3.901-9.64 6.423-5.45 4.433-11.271 8.222-16.164 13.62-1.882 1.943-3.828 4.353-5.523 6.618-.315.611-.38 1.077-.695 1.687-.064.466.121.788.307 1.109.25-.144.436.177.686.033l1.252-.723c2.131-2.088 4.448-3.854 6.83-6.087 2.503-1.445 5.135-3.822 7.953-5.878zM393.258-35.6c2.317-1.766 4.635-3.533 6.766-5.621.25-.145.565-.755.63-1.221-.807-.82-.307-1.109-.056-1.254.315-.61.444-1.542.759-2.153-.501.289-1.187.256-1.688.545l-1.001.579c-3.383 2.81-6.766 5.621-9.963 8.753-.751.433-1.381 1.655-2.559.191-.186-.321-.436-.177-.686-.032-.816.899-2.439.979-3.44 1.557-2.252 1.3-4.319 2.922-6.322 4.078-1.001.578-1.195 1.977-.953 3.552.428 1.896 1.421 3.038 2.672 2.316l1.002-.578 2.502-1.445c2.503-1.445 4.57-3.067 7.073-4.513 1.381-1.654 3.197-3.132 5.264-4.754zM460.35.264c-.5.289-1.001.578-1.566 1.333-.816.899-1.696 2.265-2.511 3.164-.065.466-.13.932-.445 1.543.251-.145.937-.112 1.187-.256l.501-.289c4.634-3.534 8.461-7.887 11.917-12.883.251-.145.315-.611.566-.755l-.751.433c-.501.289-1.001.578-1.316 1.189-2.568 1.911-4.95 4.143-7.582 6.521zm-566.089 263.379c1.566-1.333 2.947-2.987 4.328-4.642.25-.144.315-.61.379-1.076-.25.144-.686-.033-.936.112l-.501.289c-2.067 1.622-3.762 3.887-6.201 4.866l-.25.144c-.065.466-.129.932-.63 1.221.436.177 1.058.676 1.308.532 1.187-.257 1.752-1.012 2.503-1.446zM169.043 98.567c-.501.289-1.066 1.044-1.631 1.799l-.065.466c.186.322.436.178.621.499l.251-.144c1.316-1.189 2.632-2.378 3.698-3.422.25-.144.25-.144.315-.61l-.436-.177-2.753 1.589z"/><path d="M-.167 199.69a45276.1 45276.1 0 00-8.453 6.167c-2.568 1.911-4.764 4.465-7.582 6.52-1.065 1.045-2.317 1.767-3.819 2.634-1.251.723-2.317 1.767-3.633 2.955-3.883 3.1-7.832 6.665-11.715 9.765l-.25.145c-.501.289-1.066 1.044-1.623.079-.743-1.286.194-1.398.694-1.687 2.197-2.554 4.578-4.787 7.517-6.055.751-.433 1.316-1.188 2.317-1.766 1.502-.867 3.254-1.879 4.57-3.068 1.252-.722 2.317-1.766 3.012-3.453.315-.611.815-.9 1.066-1.044 1.816-1.478 3.568-2.489 5.385-3.967.75-.433 1.38-1.655 2.131-2.088l2.503-1.445 1.252-.723c2.576-3.63 6.08-5.653 9.705-6.889.25-.144.686.033 1.122.21-.065.466-.13.932-.38 1.076-1.251.723-2.753 1.59-3.819 2.634zM174.53 47.382c-.565.755-2.123.368-2.93-.452-.807-.82-1.114-1.929-.549-2.684.565-.756 2.123-.369 3.116.773 1.058.675 1.364 1.785.363 2.363zM8.601 192.913c-.75.433-1.501.867-2.438.978-.25.145-.686-.032-.872-.354.065-.466-.056-1.253-.056-1.253l3.003-1.734c.25-.145.436.177.622.498.186.322.12.788.12.788-.064.466-.128.932-.379 1.077zm7.016-5.767l-1.752 1.012c-.25.144-.621-.499-.807-.82-.185-.322-.12-.788-.12-.788.064-.466.564-.755.815-.899l2.002-1.156c.25-.145.686.032 1.122.209-.064.466-.13.932-.38 1.077.122.787-.379 1.076-.88 1.365zm34.073-26.53l-.501.289-.436-.177.065-.466c.565-.755 1.195-1.976 1.76-2.731.25-.145.686.032.872.354-.065.466.12.787-.13.932-.315.61-1.065 1.044-1.63 1.799-.186-.322-.186-.322 0 0zM34.406 172.87c-.25.145-.687-.033-.937.112l-.371-.643c.315-.611.565-.755.88-1.366l.5-.289c.25-.144.436.177.872.354-.064.466.121.788-.13.932-.064.467-.314.611-.814.9z"/></g></g></g><defs><clipPath id="clip0_1432_18"><path fill="#fff" d="M0 0h287v206H0z"/></clipPath><clipPath id="clip1_1432_18"><path fill="#fff" transform="translate(0 -144)" d="M0 0h287v350H0z"/></clipPath></defs></svg>