<svg width="129" height="129" viewBox="0 0 129 129" fill="none" xmlns="http://www.w3.org/2000/svg"><path fill-rule="evenodd" clip-rule="evenodd" d="M117.393.061c-6.354.81-12.441 3.181-17.261 6.725-1.218.896-6.102 5.536-11.95 11.355l-9.89 9.839-3.496-.295c-4.956-.418-4.608-.277-4.318-1.74.42-2.121-.741-5.334-2.494-6.903-.26-.232-1.096-.738-1.86-1.126-1.156-.585-1.708-.703-3.284-.701-2.913.004-3.765.503-7.98 4.68l-3.58 3.547-2.87-.28c-1.578-.154-3.335-.34-3.904-.412l-1.035-.131.112-1.82c.198-3.195-1.245-5.849-4.013-7.381-1.22-.676-1.577-.75-3.627-.748-3.07.003-3.722.381-8.09 4.696l-3.545 3.501-5.28-.512c-2.904-.282-5.576-.447-5.937-.368-.416.091-2.904 2.392-6.789 6.276C.754 33.811.157 34.489.038 35.385c-.101.758-.01 1.145.393 1.655.323.409 3.484 2.21 8.17 4.655 8.614 4.496 9.035 4.626 10.32 3.187.403-.45.732-1.106.732-1.458 0-1.507-.544-1.956-5.48-4.525-2.612-1.359-5.357-2.81-6.1-3.226l-1.353-.755 3.962-3.965c3.044-3.046 4.09-3.946 4.51-3.882.3.046 13.39 1.287 29.086 2.758 15.696 1.471 28.703 2.727 28.905 2.792.235.075-3.98 4.46-11.827 12.303L49.163 57.11l-6.483-3.385c-7.414-3.87-8.165-4.102-9.377-2.89-.83.83-.993 1.808-.483 2.925.28.615 1.378 1.25 9.72 5.62l2.808 1.471-3.62 3.738c-3.89 4.02-6.423 7.045-8.915 10.651-1.529 2.213-1.6 2.276-2.755 2.44-.653.091-3.914.188-7.248.214-3.333.026-8.02.121-10.414.211l-4.354.164-3.413 3.404c-2.043 2.038-3.517 3.72-3.673 4.191-.319.967-.02 1.864.848 2.547.344.27 5.155 2.007 10.69 3.859 5.535 1.851 10.103 3.397 10.15 3.434.047.038-.319 1.695-.813 3.684-1.366 5.488-1.587 7.109-1.073 7.893.856 1.306 1.473 1.502 3.637 1.158 1.073-.171 3.52-.709 5.44-1.196 1.918-.487 3.52-.845 3.559-.796.039.049 1.59 4.623 3.446 10.165 2.11 6.296 3.591 10.332 3.951 10.759.7.832 1.714 1.063 2.729.621.416-.181 2.235-1.819 4.04-3.639l3.284-3.311.167-4.729c.091-2.601.184-7.625.207-11.165.022-3.539.117-6.627.212-6.862.094-.235 1.194-1.133 2.445-1.997 3.615-2.497 6.64-5.026 10.664-8.916l3.746-3.623 11.565 22.16c6.361 12.188 11.797 22.369 12.079 22.625.334.302.9.464 1.621.464h1.109l6.181-6.173c3.917-3.912 6.234-6.413 6.325-6.829.079-.361-.087-3.031-.368-5.933l-.513-5.277 3.504-3.542c4.317-4.365 4.696-5.017 4.698-8.085.002-2.048-.072-2.404-.747-3.624-1.533-2.764-4.19-4.209-7.38-4.011l-1.816.112-.136-.908c-.074-.499-.261-2.256-.414-3.905l-.278-2.998 3.546-3.574c4.188-4.222 4.683-5.067 4.664-7.971-.017-2.678-1.243-5.06-3.307-6.421-1.447-.955-3.917-1.507-5.414-1.212-1.462.29-1.318.643-1.75-4.306l-.304-3.484 9.846-9.893c11.171-11.225 12.077-12.298 14.55-17.236 2.614-5.222 3.457-9.003 3.454-15.497-.003-6.443-.275-7.328-2.414-7.847-1.09-.265-7.801-.502-9.193-.325zm6.515 5.194c.42.42.387 4.295-.061 7.27-.693 4.593-2.178 8.41-4.854 12.476-1.535 2.333-4.066 4.932-31.121 31.965-18.153 18.137-30.497 30.276-32.176 31.64-7.94 6.45-17.385 11.267-26.791 13.661-1.371.349-2.542.586-2.601.527-.42-.421 2.616-9.769 4.483-13.797 3.597-7.767 7.31-13.177 13.725-20.005 5.718-6.084 56.496-56.57 58.106-57.77 4.232-3.157 9.235-5.27 14.183-5.993 2.338-.342 6.756-.325 7.107.026zM37.296 19.95c1.25.646 1.711 2.615.857 3.657-.434.53-.498.534-3.725.238-1.806-.166-3.334-.342-3.395-.391-.174-.14 2.548-2.855 3.395-3.387.904-.567 1.917-.608 2.868-.117zm26.686 2.562c1.027.487 1.739 1.843 1.511 2.878-.281 1.282-.54 1.346-4.096 1.012-1.776-.167-3.28-.35-3.34-.409-.207-.196 2.88-3.172 3.647-3.518.988-.445 1.272-.44 2.278.037zm21.616 17.621c-2.19 1.213-1.273 4.696 1.235 4.696 1.28 0 2.526-1.233 2.526-2.5 0-1.894-2.096-3.118-3.76-2.196zm-60.587 5.581c-.905.393-1.671 1.783-1.418 2.571.493 1.532 1.209 2.096 2.658 2.096.509 0 1.012-.247 1.503-.737 1.295-1.294.85-3.453-.83-4.039-.95-.33-.894-.334-1.913.109zm53.488 1.531c-1.06.719-20.718 20.378-21.105 21.106-.59 1.111-.449 1.933.496 2.878.945.944 1.767 1.086 2.88.497 1.074-.569 20.95-20.622 21.261-21.452.796-2.122-1.705-4.267-3.532-3.029zM99.36 85.168l2.804 29.194-3.933 3.97c-2.163 2.183-4.024 3.879-4.135 3.767-.112-.111-5.129-9.621-11.15-21.132l-10.945-20.93 12.14-12.168c6.677-6.692 12.202-12.106 12.277-12.03.076.074 1.4 13.273 2.942 29.33zm6.041-21.264c1.174.557 1.785 1.893 1.421 3.108-.255.847-3.404 4.327-3.667 4.051-.209-.22-.705-6.53-.534-6.806.191-.31 1.063-.71 1.599-.736.188-.008.719.164 1.181.383zM27.988 83.072c0 .073-.385.896-.855 1.83-.767 1.522-1.87 4.016-2.449 5.537-.21.553-.287.534-7.231-1.815a2170 2170 0 01-8.24-2.798l-1.221-.425 1.077-1.097 1.077-1.097 2.796-.08c5.299-.151 15.046-.187 15.046-.055zm80.276 7.799c1.214.627 1.645 2.29.94 3.628-.387.732-3.356 3.755-3.506 3.57-.05-.062-.226-1.59-.392-3.394-.296-3.224-.292-3.288.238-3.722.653-.535 1.778-.569 2.72-.082zm-62.177 19.126l-.166 8.886-1.064 1.084c-.734.747-1.118.985-1.238.768-.095-.174-1.376-3.869-2.846-8.212l-2.672-7.895.69-.26c1.202-.453 5.2-2.252 6.118-2.753.486-.266.987-.487 1.114-.493.138-.006.164 3.567.064 8.875z" fill="#E30D16"/></svg>