<svg width="134" height="134" viewBox="0 0 134 134" fill="none" xmlns="http://www.w3.org/2000/svg"><path fill-rule="evenodd" clip-rule="evenodd" d="M60.849.172c-.288.122-.76.484-1.048.804-.501.556-.528 1.006-.599 10.243l-.075 9.661h-6.553c-7.035 0-7.703.11-8.413 1.378-.212.379-.364 2.088-.428 4.825l-.098 4.238-4.553.082-4.554.082-.725.726-.726.725-.083 4.425-.082 4.425-3.122.087c-3.01.084-3.148.113-3.847.813l-.726.725-.08 11.713-.081 11.712-6.208 3.743c-3.414 2.058-6.394 3.884-6.623 4.058-.537.41-1.025 1.331-1.025 1.938 0 .34 10.723 36.799 13.527 45.993.124.407.068.439-.362.209-.28-.149-1.671-.47-3.093-.712-6.243-1.064-11.44.392-17.346 4.858-2.714 2.052-3.66 3.023-3.868 3.967a2.398 2.398 0 001.315 2.701c1.556.738 1.556.738 5.487-2.235 5.023-3.799 9.607-5.139 13.826-4.04.811.211 2.634.904 4.052 1.541 4.266 1.916 6.595 2.536 10.173 2.708 4.02.193 6.162-.313 10.807-2.553 8.791-4.238 11.37-4.34 19.005-.753 7.105 3.339 10.31 4.131 14.71 3.635 2.818-.318 4.804-1.001 9.02-3.105 4.075-2.033 6.081-2.776 8.202-3.038 2.653-.328 6.385.567 10.738 2.575 6.84 3.157 13.429 3.003 19.218-.446 1.546-.922 5.151-3.689 6.335-4.863 1.52-1.506 1.377-3.517-.307-4.315-1.598-.758-1.637-.741-5.65 2.518-2.535 2.058-4.547 3.185-6.677 3.74-1.75.455-4.407.511-6.146.128-1.804-.396-4.978-1.647-4.978-1.961 0-.154 3.065-10.583 6.812-23.176 3.746-12.594 6.812-23.112 6.812-23.375 0-.608-.488-1.53-1.025-1.939-.229-.174-3.21-2-6.624-4.058l-6.207-3.743-.081-11.712-.08-11.713-.726-.726c-.7-.7-.838-.729-3.847-.812l-3.122-.087-.083-4.425-.082-4.425-.726-.725-.726-.726-4.553-.082-4.553-.082-.099-4.238c-.064-2.737-.215-4.446-.427-4.825-.71-1.269-1.378-1.378-8.413-1.378h-6.554l-.075-9.683-.074-9.683-.726-.725-.726-.726-5.955-.056c-3.276-.03-6.191.044-6.48.165zm8.777 12.853v7.855h-5.24V5.17h5.24v7.856zm15.196 15.71v2.62H49.19v-5.238h35.632v2.619zM95.826 39.21v2.619h-57.64v-5.237h57.64v2.618zm-38.658 8.087c-.176.163-20.58 12.552-26.646 16.179-.108.065-.196-3.601-.196-8.146v-8.264H43.87c7.831 0 13.44.097 13.297.23zm46.518 8.033c0 4.545-.089 8.21-.197 8.146-6.066-3.627-26.47-16.016-26.645-16.18-.144-.133 5.465-.23 13.296-.23h13.546v8.264zm-39.3 30.334v36.504l-1.255-.477c-4.08-1.549-9.331-1.691-13.366-.36-.677.223-3.117 1.339-5.422 2.481-5.149 2.55-7.36 3.103-10.663 2.667-1.15-.152-2.19-.377-2.312-.501-.263-.27-14.485-48.02-14.344-48.16.122-.123 47.205-28.645 47.296-28.652.036-.003.066 16.421.066 36.498zM94.11 63.937c12.53 7.582 22.825 13.83 22.878 13.882.052.052-2.793 9.799-6.324 21.658-4.625 15.534-6.516 21.537-6.765 21.469-1.261-.341-4.64-.59-6.633-.489-2.99.151-5.777 1.066-10.956 3.597-4.504 2.201-5.87 2.611-8.694 2.606-2.404-.004-3.732-.26-6.223-1.201l-1.768-.668V49.118l.851.517L94.11 63.937zm-37.723-2.89c-1.735.757-1.89 3.112-.29 4.408 1.221.99 3.537.11 3.94-1.497.238-.945-.459-2.388-1.383-2.866-.949-.49-1.23-.496-2.267-.044zm20.266.345c-1.505.934-1.666 2.607-.373 3.899 1.146 1.145 2.176 1.186 3.356.131.703-.628.85-.948.85-1.86 0-.91-.147-1.231-.85-1.859-.965-.862-1.93-.963-2.983-.31zm-30.751 6.176c-8.617 5.323-15.547 9.778-16.036 10.31-.637.692-.789 2.105-.32 2.981.403.752 1.776 1.371 2.652 1.196.414-.083 4.711-2.645 9.549-5.693 7.155-4.508 8.872-5.7 9.202-6.394.493-1.033.296-2.017-.58-2.893-.999-.998-2.282-.856-4.467.493zm39.734-.76c-1.52.842-1.74 2.63-.488 3.931.905.94 16.616 10.706 17.998 11.188 2.431.847 4.255-2.282 2.438-4.185-.575-.603-15.266-9.819-17.536-11-.747-.39-1.634-.365-2.412.067z" fill="#E30D16"/></svg>