<svg width="120" height="120" viewBox="0 0 120 120" fill="none" xmlns="http://www.w3.org/2000/svg"><path opacity=".15" fill-rule="evenodd" clip-rule="evenodd" d="M41.955.84c-3.554 1.31-4.659 1.773-6.973 2.927-1.922.959-2.112 1.008-2.768.722-.387-.169-1.356-.312-2.154-.317-1.672-.013-2.854.52-6.78 3.06-6.539 4.227-11.817 9.506-16.044 16.044-2.539 3.927-3.072 5.11-3.06 6.782.006.797.149 1.766.318 2.154.286.655.236.845-.715 2.753-1.112 2.23-2.528 5.702-3.366 8.25-.64 1.947-.54 3.463.326 4.94.91 1.554 2.07 2.193 5.769 3.178 1.815.484 3.354.934 3.42 1 .067.067.017.59-.112 1.162-.968 4.319-1.261 12.711-.624 17.816 1.322 10.584 5.652 20.538 12.547 28.844 8.608 10.371 20.966 17.27 34.768 19.412 3.717.577 11.913.577 15.81.002 20.294-2.999 37.201-16.682 44.38-35.917 1.119-3 2.321-7.753 2.858-11.3.59-3.907.594-12.068.008-15.845-2.144-13.823-9.04-26.168-19.429-34.785-8.427-6.99-18.094-11.194-28.823-12.534-5.105-.638-13.497-.344-17.815.624-.573.128-1.088.186-1.146.128-.058-.057-.51-1.6-1.006-3.43-1.011-3.733-1.642-4.87-3.211-5.79-1.696-.994-3.238-.964-6.178.12zm3.947 4.091c.227.273 3.573 12.492 3.557 12.986-.004.116-1.327.727-2.94 1.359-12.332 4.825-22.415 14.909-27.24 27.241-.631 1.613-1.253 2.937-1.383 2.94-.633.02-12.717-3.349-12.995-3.621-.27-.266-.237-.566.21-1.923.728-2.21 2.642-6.651 3.76-8.726 1.063-1.972 1.196-3.158.458-4.096-.258-.328-.47-.795-.47-1.038 0-.51 2.223-4.226 4.175-6.98 1.79-2.525 7.406-8.137 9.99-9.982 2.863-2.044 6.5-4.235 7.032-4.235.242 0 .71.211 1.038.47.949.745 2.175.61 4.124-.457 1.983-1.085 4.838-2.343 7.793-3.435 2.409-.89 2.55-.914 2.891-.503zm26.214 9.079c12.673 2.09 23.313 8.143 31.58 17.964 9.413 11.182 13.586 27.066 10.9 41.493-2.691 14.456-11.284 26.929-23.821 34.579-14.72 8.982-33.332 9.777-48.785 2.083-10.313-5.134-18.395-13.201-23.268-23.224-4.024-8.277-5.607-16.174-5.13-25.586.134-2.657.744-7.185 1.029-7.646.053-.087.81.04 1.681.282 2 .554 2.517.546 3.824-.063.88-.41 1.546-.498 3.99-.523 2.861-.03 2.979-.053 4.695-.879 2.471-1.19 3.69-2.38 6.04-5.897 3.654-5.471 6.274-8.09 11.748-11.748 3.447-2.303 4.602-3.489 5.867-6.025.862-1.728.873-1.783.894-4.695.015-2.235.113-3.124.404-3.684.635-1.225.693-2.407.203-4.137-.248-.874-.38-1.633-.293-1.687.461-.285 4.989-.895 7.645-1.03 3.442-.174 8.342.018 10.797.423zm-36.003 1.277c-1.831 1.014-1.444 3.888.575 4.267 2.466.463 3.862-2.39 1.955-3.994-.783-.659-1.663-.754-2.53-.274zm29.314 3.772c-.374.207-1.48 1.885-3.038 4.61-2.79 4.877-2.94 5.469-1.675 6.6.921.823 2.087.872 2.946.124.783-.683 5.288-8.565 5.288-9.254a2.359 2.359 0 00-3.521-2.08zm-16.994 7.499c-.633 1.516-1.592 2.491-3.994 4.064-6.241 4.087-9.704 7.55-13.812 13.815-2.127 3.245-3.632 4.324-6.03 4.324h-1.178l.461-1.17c3.97-10.07 13.266-19.421 23.473-23.611l1.291-.53.07 1.133c.04.637-.083 1.502-.28 1.975zm39.057-.872c-.194.063-2.236 1.188-4.54 2.499-4.217 2.4-4.849 2.94-4.849 4.144 0 1.236 1.15 2.347 2.429 2.347.648 0 7.957-4.14 9.014-5.105.592-.54.763-.887.763-1.548 0-1.392-1.614-2.731-2.817-2.337zm-71.328 9.553c-1.257.697-1.54 2.282-.606 3.393 1.08 1.285 3.04 1.17 3.76-.221.435-.841.431-1.47-.014-2.33-.597-1.155-1.93-1.513-3.14-.842zm43.302 1.458c-6.989 1.262-13.388 5.268-17.695 11.078-8.395 11.323-6.97 27.297 3.308 37.06 2.93 2.782 7.398 5.52 9.011 5.52 1.712 0 2.76-1.593 2.096-3.184-.282-.674-.672-.994-2.066-1.695-6.302-3.172-10.555-8.402-12.45-15.314-.405-1.475-.498-2.503-.513-5.674-.022-4.617.376-6.468 2.197-10.211 2.448-5.034 6.246-8.766 11.35-11.154 2.892-1.354 5.191-1.89 8.73-2.038 3.522-.147 5.991.22 9.13 1.356 7.572 2.74 13.221 9.425 14.959 17.704.418 1.992.355 6.887-.118 9.062-.535 2.467-1.775 5.52-3.115 7.671-2.137 3.432-6.002 6.888-9.867 8.823-.669.334-1.382.845-1.584 1.134-.96 1.37.126 3.52 1.775 3.52 1.849 0 6.636-2.977 9.666-6.011 3.98-3.985 6.568-8.82 7.805-14.575.595-2.773.562-8.012-.07-10.915-2.527-11.616-11.39-20.192-22.92-22.176-2.563-.44-7.133-.432-9.629.019zm34.134 5.753c-.905.36-1.391.907-1.547 1.737-.164.874.355 2.077 1.06 2.454.27.145 2.55.242 5.703.242h5.253l.631-.659c1.282-1.338.564-3.521-1.28-3.89-1.169-.234-9.18-.14-9.82.116zm-30.771 3.945c-1.818 1.818.309 4.841 2.579 3.667.673-.348 1.429-1.415 1.429-2.017 0-.612-.766-1.82-1.313-2.069-1.028-.468-1.952-.324-2.695.42zm-7.61 1.687c-1.455.837-1.741 2.612-.605 3.748.934.935 2.077.937 3.119.006 1.48-1.323.752-3.627-1.236-3.909-.445-.063-1.02.007-1.278.155zm16.43 0c-1.454.837-1.741 2.612-.605 3.748.935.935 2.077.937 3.119.006 1.48-1.323.752-3.627-1.236-3.909-.445-.063-1.02.007-1.278.155zm-22.8 6.259c-1.79 1.45-.905 4.15 1.36 4.15 1.244 0 2.31-1.088 2.31-2.358 0-1.76-2.314-2.89-3.67-1.792zm28.36.17c-.881.74-1.083 1.536-.654 2.565.993 2.376 4.365 1.656 4.365-.931 0-.624-.18-1.03-.686-1.534-.89-.89-2.042-.928-3.026-.1zm-15.469.928c-2.426.758-4.582 2.637-5.753 5.015-1.383 2.807-1.125 6.42.653 9.132 2.008 3.063 5.947 4.763 9.394 4.056 3.964-.813 6.796-3.646 7.61-7.61.904-4.409-1.965-9.121-6.394-10.5-1.617-.503-4.065-.545-5.51-.093zm-41.523 4.693c-1.578.683-2.004 2.488-.852 3.614.356.348 2.472 1.673 4.704 2.946 3.661 2.088 4.142 2.3 4.929 2.176 1.18-.188 1.927-1.077 1.927-2.291 0-.66-.156-1.091-.528-1.46-.573-.566-8.21-4.97-8.978-5.176-.258-.069-.799.017-1.202.191zm46.823.434c2.447 1.62 2.757 5.014.65 7.122-2.877 2.876-7.553 1.12-7.848-2.947-.144-1.993.749-3.532 2.653-4.571 1.098-.6 3.335-.405 4.545.395zm32.262-.424c-.736.315-1.482 1.38-1.482 2.116 0 1.116.736 1.733 5.004 4.197 4.834 2.791 5.379 2.943 6.515 1.806.883-.883.954-2.284.158-3.143-.614-.663-7.993-4.96-8.861-5.16-.322-.074-.923.009-1.334.184zm-52.903 2.684c-.744.744-.887 1.668-.42 2.696.25.547 1.457 1.313 2.07 1.313.602 0 1.668-.756 2.017-1.43 1.174-2.27-1.85-4.396-3.667-2.578zm32.86 0c-1.316 1.316-.65 3.487 1.192 3.892.886.194 2.002-.397 2.475-1.313 1.174-2.27-1.85-4.396-3.667-2.578zm-30.41 7.946c-1.79 1.45-.905 4.15 1.36 4.15 1.244 0 2.31-1.088 2.31-2.358 0-1.76-2.314-2.89-3.67-1.792zm28.36.17c-.881.741-1.083 1.537-.654 2.565.48 1.15 1.578 1.68 2.752 1.328 1.105-.331 1.613-1.025 1.613-2.202 0-1.96-2.2-2.963-3.712-1.69zm-21.782 5.512c-.793.321-1.5 1.397-1.5 2.285 0 1.164 1.062 2.18 2.278 2.18 1.177 0 1.87-.508 2.201-1.614.35-1.169-.178-2.27-1.318-2.747-.901-.377-.974-.381-1.661-.104zm16.43 0c-1.528.618-1.96 2.631-.813 3.779 1.264 1.264 3.286.762 3.798-.945.344-1.15-.192-2.257-1.324-2.73-.901-.377-.974-.381-1.66-.104zm23.319 2.116c-.842.662-1.123 1.604-.777 2.6.436 1.254 4.57 8.269 5.14 8.722 1.289 1.025 3.333.161 3.601-1.52.127-.8-.076-1.26-2.172-4.93-1.271-2.227-2.597-4.34-2.947-4.694a2.11 2.11 0 00-2.845-.178zm-32.347.688c-1.316 1.316-.651 3.486 1.191 3.891.887.195 2.002-.396 2.476-1.312 1.174-2.27-1.85-4.397-3.667-2.58zM24.21 82.656c-.88.881-1.008 1.635-.457 2.702.58 1.12 1.219 1.228 6.802 1.15l5.104-.073.566-.658c.607-.707.754-1.956.325-2.758-.548-1.024-1.323-1.161-6.577-1.161h-4.965l-.798.798zm38.617 5.991c-1.136 1.136-.828 2.96.614 3.645.95.451 1.135.452 1.993.008 2.22-1.148 1.43-4.339-1.073-4.339-.625 0-1.03.181-1.534.686zm20.53 3.535c-.273.11-.728.494-1.01.853-.5.635-.512.803-.444 5.909l.071 5.255.659.566c.966.831 2.332.78 3.232-.12l.686-.686V93.548l-.798-.798c-.806-.807-1.436-.956-2.397-.568zm-39.843 4.45c-2.176 1.269-4.18 2.531-4.454 2.805-.345.345-.498.793-.498 1.46 0 .788.138 1.084.762 1.642.484.433 1.019.68 1.471.68.924 0 9.194-4.725 9.564-5.465.893-1.78-.027-3.465-1.88-3.443-.84.01-1.668.397-4.965 2.32zm22.265 1.401c-.258.11-.641.398-.851.64-.471.54-4.602 7.635-4.895 8.406-.3.79.12 2.116.813 2.571.69.452 2.194.48 2.759.051.687-.522 5.153-8.41 5.279-9.324.096-.697-.003-.979-.555-1.585-.71-.78-1.767-1.094-2.55-.759z" fill="#FFC000"/></svg>