<svg width="50" height="50" viewBox="0 0 50 50" fill="none" xmlns="http://www.w3.org/2000/svg"><path fill-rule="evenodd" clip-rule="evenodd" d="M17.481.35c-1.48.545-1.94.739-2.905 1.22-.8.399-.88.42-1.153.3-.162-.07-.566-.13-.898-.132-.697-.005-1.189.217-2.825 1.275a22.132 22.132 0 00-6.685 6.685c-1.058 1.637-1.28 2.13-1.275 2.826.002.332.062.736.132.898.12.273.099.352-.297 1.147a29.5 29.5 0 00-1.403 3.437c-.267.812-.225 1.443.136 2.059.38.647.862.913 2.403 1.324.757.201 1.398.389 1.426.416.028.028.007.246-.047.485-.403 1.799-.526 5.296-.26 7.423.551 4.41 2.355 8.558 5.228 12.018 3.587 4.321 8.736 7.196 14.487 8.089 1.548.24 4.963.24 6.587 0a23.322 23.322 0 0018.492-14.965c.466-1.25.967-3.23 1.19-4.709.246-1.627.248-5.027.004-6.602-.893-5.759-3.767-10.903-8.096-14.493-3.51-2.913-7.539-4.664-12.01-5.223-2.126-.265-5.623-.143-7.422.26-.239.054-.453.078-.477.054-.024-.024-.213-.667-.42-1.43C20.973 1.158 20.71.684 20.055.3c-.706-.414-1.349-.402-2.574.05zm1.645 1.705c.094.113 1.489 5.205 1.482 5.41-.002.049-.553.303-1.225.566-5.138 2.011-9.34 6.213-11.35 11.351-.263.672-.522 1.224-.576 1.225-.264.008-5.3-1.395-5.415-1.509-.112-.11-.099-.235.088-.8.303-.921 1.1-2.772 1.567-3.637.442-.821.498-1.316.19-1.706-.107-.137-.195-.332-.195-.433 0-.213.925-1.76 1.739-2.909.745-1.051 3.086-3.39 4.162-4.158 1.193-.852 2.709-1.765 2.93-1.765.101 0 .296.088.433.196.395.31.906.254 1.718-.19.826-.453 2.016-.977 3.247-1.432 1.004-.37 1.063-.38 1.205-.21zm10.922 3.783c5.28.87 9.714 3.392 13.159 7.484 3.922 4.66 5.66 11.278 4.541 17.29a21.395 21.395 0 01-9.925 14.407c-6.133 3.743-13.889 4.074-20.327.868-4.297-2.14-7.665-5.5-9.695-9.677-1.677-3.448-2.337-6.739-2.138-10.66.056-1.107.31-2.994.43-3.186.021-.036.337.017.7.117.833.231 1.048.228 1.593-.026.367-.171.644-.207 1.663-.218 1.191-.013 1.24-.022 1.956-.366 1.03-.496 1.537-.992 2.516-2.457 1.523-2.28 2.614-3.371 4.895-4.895 1.436-.96 1.918-1.454 2.445-2.51.36-.72.364-.744.372-1.957.007-.931.047-1.301.168-1.535.265-.51.29-1.003.085-1.724-.103-.364-.158-.68-.122-.702.192-.12 2.079-.373 3.186-.43 1.434-.072 3.475.008 4.498.177zm-15.001.531c-.763.423-.602 1.62.24 1.779 1.027.192 1.609-.996.814-1.665-.326-.274-.693-.314-1.054-.114zm12.214 1.572c-.155.086-.616.786-1.266 1.921-1.162 2.032-1.225 2.279-.697 2.75.383.343.869.363 1.227.052.326-.285 2.203-3.57 2.203-3.856a.983.983 0 00-1.467-.867zm-7.08 3.125c-.264.631-.664 1.038-1.665 1.693-2.6 1.703-4.043 3.146-5.755 5.757-.886 1.351-1.513 1.8-2.512 1.8h-.491l.192-.486c1.654-4.196 5.527-8.093 9.78-9.838l.538-.221.03.472c.016.265-.035.626-.117.823zm16.273-.364c-.08.027-.932.495-1.892 1.042-1.757 1-2.02 1.225-2.02 1.726 0 .516.48.978 1.012.978.27 0 3.316-1.724 3.756-2.127.247-.225.318-.37.318-.645 0-.58-.673-1.138-1.174-.973zm-29.72 3.98a.915.915 0 00-.252 1.415c.45.535 1.267.487 1.566-.093.181-.35.18-.612-.005-.97-.25-.482-.805-.63-1.309-.351zm18.043.608c-2.912.526-5.579 2.195-7.373 4.616-3.498 4.718-2.904 11.374 1.378 15.442 1.22 1.16 3.083 2.3 3.755 2.3.713 0 1.15-.664.873-1.327-.117-.28-.28-.414-.86-.706-2.627-1.322-4.399-3.501-5.189-6.38-.168-.615-.207-1.044-.213-2.365-.01-1.924.157-2.695.915-4.255 1.02-2.097 2.603-3.652 4.73-4.647 1.205-.564 2.162-.788 3.637-.85 1.468-.06 2.496.092 3.804.566 3.155 1.141 5.509 3.927 6.233 7.377.174.83.148 2.869-.049 3.775-.223 1.028-.74 2.3-1.298 3.197-.89 1.43-2.5 2.87-4.111 3.676-.279.139-.576.352-.66.472-.4.57.052 1.467.74 1.467.77 0 2.764-1.24 4.027-2.505 1.658-1.66 2.737-3.674 3.252-6.073.248-1.155.234-3.338-.029-4.547-1.053-4.84-4.746-8.414-9.55-9.24-1.068-.184-2.972-.18-4.012.007zm14.222 2.398c-.377.15-.58.378-.645.723-.068.364.149.866.442 1.023.113.06 1.063.1 2.377.1h2.188l.263-.274c.534-.558.235-1.467-.533-1.62-.487-.098-3.826-.059-4.092.047zM26.178 19.33c-.757.758.128 2.018 1.074 1.528.281-.145.596-.59.596-.84 0-.255-.32-.758-.547-.862-.428-.195-.813-.136-1.123.174zm-3.171.703c-.606.349-.725 1.089-.252 1.562.39.39.865.39 1.3.002.616-.551.313-1.51-.515-1.628-.186-.027-.425.002-.533.064zm6.846 0c-.606.349-.726 1.089-.252 1.562.39.39.865.39 1.3.002.616-.551.313-1.51-.516-1.628-.185-.027-.425.002-.532.064zm-9.5 2.608c-.746.604-.377 1.73.567 1.73.518 0 .962-.454.962-.983 0-.734-.964-1.205-1.529-.747zm11.816.07c-.366.31-.45.641-.272 1.07.414.99 1.819.69 1.819-.388 0-.26-.076-.429-.286-.64-.37-.37-.85-.386-1.26-.041zm-6.445.387c-1.01.317-1.909 1.1-2.397 2.09-.576 1.17-.469 2.675.272 3.805.837 1.276 2.478 1.985 3.914 1.69 1.652-.339 2.832-1.519 3.17-3.17.378-1.838-.818-3.801-2.663-4.376-.674-.21-1.694-.227-2.296-.039zM8.423 25.055c-.658.285-.835 1.037-.355 1.506.148.145 1.03.697 1.96 1.227 1.525.87 1.726.959 2.053.907.492-.079.804-.449.804-.955 0-.275-.065-.454-.22-.608-.24-.236-3.421-2.07-3.741-2.156-.108-.03-.333.006-.501.08zm19.51.18c1.02.675 1.148 2.09.27 2.968-1.198 1.199-3.147.467-3.27-1.227-.06-.831.312-1.472 1.106-1.905.457-.25 1.39-.169 1.893.165zm13.442-.176c-.307.131-.618.575-.618.882 0 .465.307.722 2.085 1.749 2.015 1.163 2.242 1.226 2.715.752.368-.368.398-.952.066-1.31-.256-.276-3.33-2.066-3.692-2.15-.134-.03-.385.004-.556.077zm-22.043 1.119c-.31.31-.37.695-.175 1.123.104.228.607.547.862.547.251 0 .696-.315.84-.596.49-.946-.77-1.832-1.527-1.074zm13.692 0c-.548.548-.272 1.452.496 1.621.37.081.834-.165 1.032-.547.489-.946-.771-1.832-1.528-1.074zm-12.67 3.31c-.747.605-.378 1.73.566 1.73.518 0 .962-.454.962-.983 0-.733-.964-1.204-1.529-.747zm11.815.071c-.366.309-.45.64-.272 1.069.2.479.658.7 1.147.553.46-.138.672-.427.672-.917 0-.817-.917-1.235-1.547-.705zm-9.075 2.297c-.33.134-.625.582-.625.952 0 .485.442.908.949.908.49 0 .779-.212.917-.672.146-.487-.074-.946-.55-1.145-.375-.157-.405-.159-.691-.043zm6.846 0c-.637.257-.818 1.096-.34 1.574.528.527 1.37.318 1.583-.393.144-.48-.08-.94-.551-1.138-.376-.157-.406-.159-.692-.043zm9.716.882c-.351.275-.468.668-.324 1.083.182.522 1.904 3.445 2.142 3.634.537.427 1.388.067 1.5-.634.053-.332-.031-.524-.905-2.053-.53-.928-1.082-1.809-1.227-1.956a.88.88 0 00-1.186-.074zm-13.478.286c-.548.548-.271 1.453.496 1.621.37.082.835-.165 1.032-.546.489-.946-.77-1.832-1.528-1.075zm-16.09 1.416c-.367.367-.42.681-.19 1.126.24.466.507.511 2.833.479l2.127-.03.236-.275c.253-.294.314-.815.135-1.149-.228-.427-.551-.483-2.74-.483H10.42l-.332.332zm16.09 2.496a.93.93 0 00.256 1.52c.395.187.473.187.83.002a.95.95 0 00-.447-1.808c-.26 0-.429.076-.64.286zm8.554 1.473c-.114.046-.303.206-.42.356-.209.264-.214.334-.186 2.462l.03 2.19.274.235a.974.974 0 001.347-.05l.286-.286v-4.338l-.333-.332c-.336-.337-.598-.399-.998-.237zM18.13 40.263c-.907.529-1.742 1.055-1.856 1.17-.144.143-.207.33-.207.607 0 .329.057.452.317.684.202.18.425.284.613.284.385 0 3.83-1.969 3.985-2.277.372-.742-.012-1.444-.783-1.435-.35.004-.695.166-2.069.967zm9.277.584a1.19 1.19 0 00-.355.267c-.196.225-1.917 3.181-2.04 3.502-.124.33.05.882.34 1.071.287.189.914.2 1.149.022.287-.218 2.147-3.504 2.2-3.885.04-.29-.002-.408-.232-.66-.296-.326-.736-.457-1.062-.317z" fill="#161921"/></svg>