<svg width="50" height="50" viewBox="0 0 50 50" fill="none" xmlns="http://www.w3.org/2000/svg"><path fill-rule="evenodd" clip-rule="evenodd" d="M22.729.091c-4.707.42-9.284 2.243-13.196 5.254-1.904 1.466-4.377 4.221-5.806 6.468-.617.971-1.819 3.43-2.249 4.604C.997 17.73.484 19.736.232 21.292c-.31 1.905-.31 5.521 0 7.426.252 1.557.765 3.562 1.246 4.875.43 1.174 1.632 3.633 2.25 4.604 1.994 3.138 4.914 6.057 8.053 8.052.971.617 3.431 1.818 4.606 2.248 3.96 1.45 8.615 1.877 12.744 1.167 7.172-1.234 13.172-5.245 17.05-11.4.57-.903 1.22-2.115 1.162-2.167a17.24 17.24 0 00-.738-.38l-.707-.355-.258.51c-.586 1.156-1.766 2.927-2.72 4.084-.599.725-2.306 2.425-3.037 3.023-.819.671-2.07 1.57-2.185 1.57-.045 0-.331-.374-.636-.831l-.552-.831-.682.453c-.402.267-.655.497-.617.562.035.06.28.431.544.825.264.394.462.734.44.756-.02.02-.585.3-1.254.62-2.578 1.231-5.763 2.042-8.571 2.182l-.513.025v-1.612h-1.76v1.652l-.513-.048c-3.068-.287-4.79-.67-7.11-1.579-.916-.358-2.582-1.123-2.722-1.25-.018-.016.183-.352.447-.746s.509-.765.544-.825c.038-.065-.215-.295-.617-.563l-.681-.452-.553.83c-.305.458-.584.831-.62.831-.088 0-1.04-.676-1.908-1.355-.88-.688-2.892-2.699-3.58-3.58-.68-.868-1.356-1.819-1.356-1.906 0-.037.374-.316.831-.62l.831-.553-.453-.681c-.267-.402-.498-.655-.562-.617-.06.035-.432.28-.826.544-.394.263-.73.464-.746.446-.127-.14-.892-1.804-1.25-2.72-.91-2.32-1.293-4.044-1.58-7.106l-.047-.51 1.241-.027 1.241-.027v-1.661l-1.241-.028-1.241-.027.047-.51c.287-3.062.67-4.787 1.58-7.106.358-.915 1.123-2.58 1.25-2.72.016-.018.352.183.746.447s.766.508.826.543c.064.038.295-.215.562-.617l.453-.68-.831-.554c-.457-.304-.831-.583-.831-.62 0-.087.676-1.038 1.355-1.906.689-.88 2.7-2.892 3.581-3.58.869-.68 1.82-1.355 1.907-1.355.037 0 .316.374.62.83l.554.832.68-.453c.403-.268.656-.498.618-.562-.035-.06-.28-.432-.544-.826-.264-.394-.465-.73-.447-.746.14-.126 1.806-.891 2.721-1.25 2.321-.91 4.043-1.292 7.111-1.579l.513-.048v1.652h1.76V1.7l.513.025c2.808.14 5.993.951 8.571 2.183.669.32 1.233.598 1.255.62.021.021-.177.36-.441.755a40.76 40.76 0 00-.544.826c-.038.064.215.294.617.562l.681.453.553-.831c.305-.457.602-.83.661-.83.17.004 1.987 1.388 2.845 2.169 2.056 1.873 3.964 4.321 5.072 6.507l.258.509.707-.354c.389-.194.72-.366.738-.381.057-.051-.593-1.264-1.161-2.166-3.096-4.913-7.543-8.473-12.922-10.344C29.972.258 26.165-.216 22.73.09zm-.049 7.57c-3.906.551-7.312 2.24-10.062 4.99a17.427 17.427 0 000 24.709c3.473 3.472 8.026 5.268 12.946 5.107 3.08-.1 5.73-.871 8.357-2.43.537-.32 1.105-.684 1.26-.81l.284-.23-.473-.644c-.26-.355-.485-.645-.5-.645-.015 0-.412.251-.883.558a16.293 16.293 0 01-5.587 2.284c-1.075.215-3.317.347-4.143.244l-.556-.07-.028-3.227-.029-3.226-.223-.181c-.123-.1-.475-.253-.782-.341-.307-.088-.946-.355-1.42-.592-.475-.238-.978-.432-1.12-.432-.205 0-.718.459-2.53 2.265l-2.274 2.265-.566-.53a28.146 28.146 0 01-1.095-1.099l-.529-.568 2.264-2.27c1.805-1.811 2.264-2.324 2.264-2.529 0-.141-.194-.645-.432-1.119s-.504-1.113-.593-1.42c-.088-.307-.241-.659-.34-.781l-.181-.224-3.223-.028-3.222-.028-.06-.363c-.077-.468-.077-2.113 0-2.582l.06-.362 3.223-.029 3.222-.028.18-.223c.1-.123.253-.475.341-.782.089-.307.355-.946.593-1.42s.432-.978.432-1.119c0-.205-.459-.717-2.264-2.528l-2.264-2.271.53-.568c.29-.312.783-.806 1.094-1.098l.566-.531 2.273 2.265c1.813 1.807 2.326 2.266 2.531 2.266.142 0 .645-.195 1.12-.433.474-.237 1.113-.504 1.42-.592.307-.088.66-.241.782-.34l.224-.181.028-3.227.028-3.227.556-.07c.826-.103 3.067.03 4.143.244a16.293 16.293 0 015.587 2.284c.47.307.868.558.883.558.015 0 .24-.29.5-.644l.473-.645-.283-.23c-.49-.397-2.202-1.373-3.141-1.79-1.11-.495-2.8-1.012-4.034-1.235-1.261-.228-4.043-.279-5.327-.097zm-1.028 4.47l-.002 2.565-.866.354-.867.355-1.819-1.82-1.818-1.82.805-.456c1.339-.756 2.275-1.157 3.608-1.542 1.063-.307.96-.56.959 2.364zm7.648 1.45c-2.198.462-4.043 1.43-5.7 2.994-.825.777-1.63 1.818-2.09 2.702-.376.72-.38.918-.024 1.306l.202.22h8.716l2.1 2.101 2.1 2.101-2.1 2.101-2.1 2.1h-8.716l-.202.22c-.355.39-.352.587.024 1.308.918 1.762 2.678 3.491 4.653 4.572 2.622 1.436 6.243 1.746 9.13.78A13.32 13.32 0 0038.43 34.5c.936-.66 2.16-1.91 2.793-2.85l.518-.77 3.894-.03 3.894-.03.236-.274.236-.274V19.739l-.236-.274-.236-.274-3.894-.03-3.894-.03-.518-.77c-1.658-2.463-4.549-4.32-7.53-4.84-1.18-.206-3.26-.178-4.392.06zm4.784 1.73c1.922.522 3.473 1.444 4.803 2.857.456.484 1.015 1.192 1.242 1.573.696 1.172.232 1.062 4.495 1.062h3.714v8.404h-3.714c-4.263 0-3.8-.11-4.495 1.062-.58.975-1.898 2.339-2.924 3.025-1.605 1.073-3.173 1.578-5.136 1.654-1.33.051-2.149-.043-3.28-.375-1.782-.524-3.504-1.635-4.68-3.02l-.54-.636 3.758-.049c3.657-.047 3.767-.054 4.052-.26.162-.116 1.404-1.33 2.762-2.699 2.45-2.47 2.468-2.49 2.468-2.904 0-.414-.017-.434-2.468-2.904-1.358-1.368-2.6-2.583-2.762-2.699-.285-.205-.395-.212-4.052-.26l-3.758-.049.54-.635c1.449-1.707 3.327-2.77 5.853-3.314.77-.166 3.268-.064 4.122.167zM15.02 20.813l-.354.867-2.566.001c-1.627.001-2.566-.034-2.566-.095 0-.206.404-1.553.682-2.274.342-.888.454-1.12 1.062-2.196l.455-.805 1.821 1.818 1.82 1.818-.354.866zm9.501 1.759c-1.942.359-2.693 2.787-1.295 4.184 1.551 1.551 4.215.444 4.215-1.75a2.458 2.458 0 00-2.92-2.434zm1.013 1.864c.504.473.152 1.35-.542 1.35-.468 0-.796-.316-.796-.767a.79.79 0 011.338-.583zM15.02 29.197l.355.867-1.82 1.818-1.822 1.817-.455-.804c-.608-1.076-.72-1.309-1.062-2.196-.278-.722-.682-2.069-.682-2.275 0-.061.939-.096 2.566-.095l2.566.002.354.866zm6.633 8.682c.001 1.627-.034 2.565-.095 2.565-.206 0-1.554-.403-2.275-.681-.888-.342-1.121-.455-2.197-1.062l-.805-.455 1.818-1.82 1.819-1.82.867.354.866.354.002 2.565z" fill="#161921"/></svg>