<svg width="147" height="105" viewBox="0 0 147 105" fill="none" xmlns="http://www.w3.org/2000/svg"><path fill-rule="evenodd" clip-rule="evenodd" d="M5.026.383C2.698 1.31 1.238 2.83.415 5.185.096 6.1.023 12.37.013 39.797L0 73.293l.675.8c.567.673.96.823 2.443.932l1.768.13v4.208c0 4.94.455 6.658 2.225 8.388 1.9 1.858 2.683 2.117 6.755 2.241l3.665.112v.718c0 1.177 1.67 5.108 2.97 6.99 2.205 3.189 6.093 5.803 10.05 6.755 3.5.843 7.607.369 11.159-1.286 4.444-2.071 8.225-6.857 9.24-11.696l.324-1.54h44.595l.323 1.54c1.588 7.567 8.84 13.432 16.588 13.415 5.395-.011 10.86-2.846 13.86-7.188 1.305-1.888 2.972-5.814 2.972-6.998v-.727l6.107-.095c6.795-.104 7.383-.252 9.308-2.341 2.094-2.274 1.972-.931 1.972-21.659V47.366l-.646-1.233c-.356-.679-4.763-5.966-9.794-11.75-8.155-9.372-9.308-10.584-10.616-11.159-1.432-.629-1.749-.644-13.396-.644h-11.929l-.088-8.433c-.082-7.851-.13-8.524-.692-9.753-.785-1.713-1.924-2.852-3.707-3.706L94.694 0 50.293.02C17.029.033 5.674.124 5.026.382zM94.75 5.688l.806.709.076 31.85.075 31.852H4.886V6.695l.84-.857.84-.857h87.377l.807.707zm15.607 34.895c0 10.894.071 13.222.437 14.28.937 2.712 2.913 4.41 5.754 4.947 1.024.193 6.336.316 13.691.316h12.018v23.218l-.847.863-.846.865-5.372-.08-5.371-.08-.379-1.511c-1.266-5.052-4.759-9.443-9.187-11.55-3.308-1.572-4.586-1.752-12.454-1.752h-7.215V27.567h9.771v13.016zm14.188-12.356c1.719 1.591 17.435 19.959 17.578 20.543.087.357.121 1.903.074 3.436l-.084 2.786-11.884.077c-7.622.05-12.285-.033-13.002-.23-2.005-.552-1.985-.4-1.985-14.645V27.567h4.295c4.051 0 4.335.037 5.008.66zM21.562 75.892c-2.234 2.929-2.839 4.2-4.205 8.826-.09.305-.793.371-3.125.294-4.29-.143-4.289-.14-4.41-5.68l-.093-4.247h12.448l-.615.807zm15.908-.364c6.44 1.712 10.333 8.498 8.659 15.092-2.373 9.346-13.71 12.52-20.385 5.708-5.442-5.554-4.596-14.764 1.75-19.063 3.042-2.06 6.496-2.662 9.976-1.737zm21.444 4.544v4.986h-3.88c-3.83 0-3.879-.008-3.885-.66-.017-1.771-1.85-5.643-4.027-8.506l-.613-.807h12.405v4.987zm22.13 0v4.986H63.8v-9.973h17.243v4.987zm18.976-4.18c-2.177 2.863-4.01 6.735-4.027 8.506-.006.66-.013.66-5.035.66h-5.03v-9.973h14.706l-.614.807zm16.104-.339c4.013 1.203 7.113 4.32 8.358 8.4 2.027 6.648-1.964 13.864-8.653 15.647-8.942 2.383-17.15-6.065-14.809-15.24 1.693-6.636 8.706-10.725 15.104-8.807zM32.03 80.445c-3.349 1.377-5.236 4.29-4.956 7.653.425 5.112 5.624 8.36 10.046 6.277 1.94-.915 3.012-2.008 3.908-3.99 1.579-3.489-.044-7.856-3.563-9.588-1.341-.66-4.23-.847-5.435-.352zm78.467 0c-2.323.966-3.956 2.663-4.694 4.877-1.563 4.691 2.516 10.025 7.381 9.651 4.086-.315 6.8-3.277 6.8-7.421 0-3.108-1.404-5.447-4.051-6.75-1.35-.664-4.24-.854-5.436-.357zm-74.551 5.47c.506.517.84 1.167.84 1.637 0 1.028-1.435 2.493-2.443 2.493-.913 0-2.443-1.447-2.443-2.31 0-2.374 2.431-3.467 4.046-1.82zm77.958-.531c.75.349 1.338 1.382 1.338 2.35 0 .864-1.529 2.31-2.442 2.31-1.009 0-2.443-1.463-2.443-2.492 0-.932 1.417-2.494 2.263-2.494.321 0 .899.147 1.284.326z" fill="#E30D16"/></svg>