<svg width="120" height="120" viewBox="0 0 120 120" fill="none" xmlns="http://www.w3.org/2000/svg"><path opacity=".15" fill-rule="evenodd" clip-rule="evenodd" d="M41.718.056c-4.474.61-9.025 1.963-12.54 3.73-2.634 1.323-3.114 1.937-2.446 3.132.671 1.203 1.29 1.184 4.235-.128 5.807-2.589 10.575-3.53 16.69-3.293 3.805.146 6.245.576 9.662 1.7 12.098 3.982 21.313 14.245 24.034 26.77 1.322 6.086.97 12.792-.987 18.797-4.064 12.471-14.5 21.705-27.46 24.298-3.746.75-9.722.75-13.468 0C21.38 71.449 8.939 55.122 10.319 36.85c.683-9.026 4.099-16.373 10.701-23.013 2.733-2.748 3.118-3.232 3.118-3.908 0-1.16-1.13-1.97-2.186-1.567-1.523.582-6.301 5.67-8.639 9.199-7.598 11.472-8.75 26.24-3.007 38.552l.91 1.95H7.96c-5.058 0-6.547.534-7.525 2.7-.409.903-.43 2.203-.436 25.86-.004 21.892.039 25.015.356 25.777.863 2.077 2.042 2.65 5.45 2.65h2.547l.561 1.204c1.58 3.386 5.783 4.725 9.115 2.902 1.186-.648 2.416-2.061 3.01-3.458l.276-.648h5.087l.561 1.204c.683 1.464 2.217 2.871 3.676 3.371 3.411 1.167 6.99-.495 8.45-3.927l.275-.648h5.087l.56 1.204c.31.662 1.02 1.608 1.578 2.102 3.404 3.01 8.705 1.726 10.49-2.54l.32-.766h8.216c7.903 0 8.234-.018 8.684-.471.632-.634.62-1.909-.024-2.495-.462-.42-1.012-.452-8.746-.515l-8.252-.068-.279-.773c-.438-1.216-1.817-2.657-3.188-3.331-1.645-.809-3.783-.85-5.504-.106-1.315.568-2.924 2.164-3.445 3.417l-.336.81h-5.291l-.281-.781c-.441-1.224-1.817-2.664-3.192-3.34-1.645-.809-3.783-.85-5.504-.106-1.315.568-2.923 2.164-3.444 3.417l-.337.81h-5.291l-.281-.781c-.44-1.224-1.817-2.664-3.192-3.34-1.644-.809-3.782-.85-5.504-.106-1.314.568-2.923 2.164-3.444 3.417l-.337.81H6.112c-1.896 0-2.342-.067-2.459-.372-.207-.544-.174-31.417.034-31.421.097-.002 19.241 5.534 42.543 12.302l42.368 12.306v7.185h-4.091c-4.364 0-5.06.139-5.494 1.097-.366.807-.328 1.107.226 1.815l.486.62h20.753l.686 1.348c1.666 3.273 5.445 4.52 8.717 2.877 1.582-.794 2.471-1.706 3.142-3.224l.443-1.001h1.639c2.421 0 3.766-.784 4.542-2.65.309-.744.359-2.643.352-13.414-.006-11.289-.048-12.665-.414-13.724-.444-1.284-7.191-11.489-8.433-12.754a8.753 8.753 0 00-1.758-1.314c-.958-.515-1.246-.536-9.076-.65l-8.087-.117-.117-4.71c-.124-4.956-.174-5.197-1.328-6.27-1.23-1.146-1.627-1.239-5.734-1.34l-3.898-.096 1.002-2.156c4.51-9.693 4.662-21.573.407-31.7C78.188 13.738 69.05 5.298 58.36 1.801 54.416.512 51.907.12 46.992.028c-2.45-.046-4.823-.034-5.274.028zM37.3 23.141c-.432.214-1.064.813-1.406 1.331l-.62.943-.072 13.322c-.04 7.327-.006 13.777.074 14.333.171 1.184 1.247 2.548 2.389 3.027.976.41 27.528.472 28.592.067.828-.315 1.645-1.07 2.147-1.986.346-.629.396-2.145.456-13.87.046-8.827-.016-13.558-.186-14.364-.288-1.356-.741-2.004-1.897-2.712-.784-.48-1.039-.488-14.744-.484-12.485.004-14.03.045-14.733.393zm8.873 7.942v4.81l.6.717c.822.981 1.82 1.202 5.377 1.188 3.536-.014 4.46-.258 5.207-1.374.513-.767.536-.996.536-5.481v-4.681l3.691.065 3.692.065v26.374H38.788l-.06-12.952c-.034-7.123-.011-13.084.05-13.246.084-.218 1.057-.294 3.753-.294h3.64v4.81zm8.204-.806v4.003h-4.688v-8.006h4.688v4.003zm-31.481.733c-1.084.633-.929 2.608.24 3.055.31.118 1.915.215 3.565.215 2.68 0 3.066-.052 3.618-.488.774-.611.847-1.872.149-2.573-.426-.428-.776-.47-3.809-.464-1.895.004-3.523.114-3.763.255zm-5.213 7.38c-.317.318-.576.853-.576 1.188 0 .336.26.87.576 1.188l.575.579h5.722c5.433 0 5.753-.025 6.34-.489.773-.611.846-1.871.148-2.573-.444-.446-.781-.47-6.34-.47h-5.87l-.575.578zm5.213 6.748c-1.082.633-.95 2.471.215 3.005.335.154 1.852.266 3.586.266 2.685 0 3.07-.052 3.622-.488.774-.612.847-1.872.149-2.573-.426-.428-.776-.47-3.809-.464-1.895.004-3.523.114-3.763.255zm-8.35 18.165c1.731 2.355 5.793 6.412 8.187 8.177 1.096.808 2.026 1.5 2.067 1.538.04.039-1.266 1.729-2.905 3.756-2.155 2.665-3.08 3.646-3.345 3.544-.287-.11-7.261-2.143-14.276-4.16l-.762-.22V62.052l.528-.213c.29-.117 2.49-.22 4.89-.228l4.362-.015 1.255 1.707zm73.659-1.413c.37.274.394 1.654.337 19.514l-.06 19.218-17.346-5.039L38.32 86.05c-8.508-2.472-15.507-4.528-15.552-4.568-.045-.04 1.11-1.552 2.569-3.36l2.65-3.288 1.3.585c3.825 1.726 7.247 2.785 11.026 3.414 2.313.385 9.459.374 11.837-.019 6.37-1.052 12.413-3.594 17.51-7.368 2.388-1.767 6.468-5.845 8.145-8.142l1.248-1.707h4.376c3.133 0 4.49.084 4.776.294zM98.91 81.566v7.49l.672 1.063c1.209 1.915 1.429 1.961 9.7 2.043l7.208.072v9.27c0 5.098-.064 9.437-.142 9.642-.109.284-.486.372-1.594.372-1.431 0-1.455-.011-1.732-.781-.441-1.224-1.817-2.664-3.192-3.34-3.253-1.599-7.667.032-8.829 3.261l-.31.86h-8.579V74.077h6.798v7.489zm9.499-6.783c.789.74 7.288 10.324 7.744 11.418.185.447.337 1.186.337 1.644v.831h-6.75c-4.939 0-6.827-.075-7.032-.282-.207-.207-.282-2.16-.282-7.32v-7.038l2.678.08c2.476.072 2.724.122 3.305.667zm-92 35.915c.897.466 1.4 1.476 1.4 2.813 0 3.248-4.668 4.062-5.822 1.016-.46-1.218-.182-2.441.777-3.404.658-.662.946-.782 1.868-.782.6 0 1.4.161 1.778.357zm18.05 0c.896.466 1.398 1.476 1.398 2.813 0 3.248-4.667 4.062-5.82 1.016-.462-1.218-.183-2.441.776-3.404.658-.662.946-.782 1.868-.782.6 0 1.4.161 1.777.357zm18.048 0c.896.466 1.399 1.476 1.399 2.813 0 3.248-4.667 4.062-5.821 1.016-.462-1.218-.183-2.441.776-3.404.659-.662.947-.782 1.869-.782.6 0 1.399.161 1.777.357zm55.99-.016c1.428.741 1.952 2.445 1.22 3.965-1.221 2.533-4.558 2.411-5.552-.203-.336-.883-.357-1.209-.127-1.979.543-1.82 2.716-2.689 4.459-1.783z" fill="#FFC000"/></svg>