<svg width="120" height="76" viewBox="0 0 120 76" fill="none" xmlns="http://www.w3.org/2000/svg"><path opacity=".15" fill-rule="evenodd" clip-rule="evenodd" d="M60.91.308c-1.078.828-1.174 2.066-.233 3.007l.687.686h11.435l1.35 2.879c.741 1.583 1.347 2.957 1.346 3.054 0 .097-4.097.177-9.104.179-9.982.003-10.355.043-13.202 1.438-1.887.924-4.61 3.554-5.501 5.314l-.625 1.233H29.694c-17.23 0-17.38.004-18.727.509-4.72 1.766-6.727 8.472-3.226 10.78.38.25.876.456 1.102.457.76.003.411.35-.942.937-1.744.756-5.355 3.13-5.678 3.733-.396.742-.296 1.865.213 2.374.844.845 1.554.843 2.894-.008 4.055-2.57 6.938-3.8 10.398-4.431 1.86-.34 6.149-.36 8.127-.037 8.334 1.359 15.398 7.185 18.523 15.276 1.078 2.792 1.435 4.904 1.55 9.177.097 3.636.17 4.232.628 5.156.285.575.817 1.262 1.182 1.528.645.469.985.483 12.898.547 13.47.071 13.53.066 15.264-1.364 1.508-1.243 1.998-2.684 2.154-6.337.075-1.745.25-3.806.387-4.582.819-4.6 3.323-9.34 6.645-12.572 1.525-1.484 4.317-3.748 4.63-3.754.141-.003 1.932 3.552 1.824 3.622-2.344 1.526-5.22 4.427-6.49 6.55-2.117 3.535-2.984 7.053-2.788 11.308.156 3.359.54 4.913 1.937 7.808 2.562 5.316 7.212 9.126 13.026 10.672 2.76.734 7.049.738 9.747.009 7.13-1.926 12.592-7.312 14.485-14.283.678-2.498.73-7.427.104-9.83-1.921-7.364-7.585-12.978-14.831-14.699-3.23-.767-8.285-.56-10.938.45-.575.218-.636.154-1.474-1.54-.482-.973-.844-1.799-.805-1.834.19-.177 3.375-1.058 4.673-1.294.81-.147 2.644-.261 4.073-.254 3.757.02 6.494.625 10.086 2.227 1.689.753 2.294.77 3.071.087.839-.739.999-1.784.391-2.557-1.109-1.41-7.166-3.355-11.546-3.708-3.82-.308-8.88.348-11.665 1.512-.486.203-.913.285-.947.183-.034-.103-.752-1.604-1.594-3.335-.843-1.73-1.496-3.183-1.452-3.227.044-.044.813.075 1.708.265.896.19 2.274.347 3.064.349 1.242.003 1.52-.08 2.056-.615l.619-.62v-8.532c0-5.753-.085-8.72-.26-9.105-.356-.779-1.153-1.095-2.746-1.09-3.39.01-7.813 1.769-10.112 4.02l-1.214 1.19-2.09-4.35C76.365 2.24 75.35.417 75.061.263c-.705-.377-13.655-.335-14.151.046zm29.147 13.766v5.843l-.999-.19c-1.59-.303-2.913-.844-4.277-1.75-1.046-.695-1.394-1.111-1.99-2.384-.396-.848-.72-1.773-.72-2.056 0-.696 1.195-2.54 2.027-3.126 1.567-1.104 4.086-2.106 5.43-2.16l.529-.02v5.843zM79.784 20.1l2.995 5.996-15.488-.063c-15.305-.063-15.495-.07-16.15-.556-2.474-1.837-.457-7.874 3.383-10.125 2.022-1.184 2.339-1.215 12.633-1.232l9.633-.016 2.994 5.996zm-33.887 3.99v1.997h-17.97c-17.61 0-17.969-.01-17.969-.455 0-.693.444-1.715 1.014-2.336 1.11-1.208.75-1.184 18.424-1.194l16.5-.01v1.998zm4.061 5.345l.99.528 17.164.065 17.165.064.404.846c.221.465.372.868.334.896-.038.027-.677.448-1.42.933-.743.487-1.41.98-1.482 1.096-.075.122-6.051.212-14.084.212-13.476 0-13.998.016-15.236.48-1.413.528-2.762 1.824-3.382 3.246-.254.584-.377 1.607-.388 3.221-.014 2.184.039 2.473.694 3.76.838 1.643 2.278 2.74 4.114 3.135.733.157 4.476.255 9.751.255 4.71 0 8.558.079 8.553.176-.006.097-.201.97-.434 1.938l-.424 1.762-6.59.118c-6.054.108-6.628.154-7.082.565-.31.28-.494.733-.494 1.214 0 2.122.326 2.215 7.74 2.215h6.119v1.273c0 2.852.613 2.721-12.754 2.721H48.083l-.148-3.935c-.096-2.553-.308-4.638-.603-5.933-1.943-8.526-7.133-15.276-14.727-19.152l-2.064-1.053h16.221l1.036-.57c.57-.314 1.066-.578 1.103-.588.038-.01.513.22 1.057.512zm-31.92 6.795C9.867 36.908 3.112 42.507.655 50.639.097 52.487.015 53.167 0 56.042c-.013 2.722.073 3.6.501 5.089 1.352 4.703 3.868 8.363 7.695 11.19 1.88 1.388 3.66 2.264 6.155 3.029 1.828.56 2.458.634 5.472.642 2.827.009 3.712-.077 5.204-.506 5.72-1.643 10.242-5.352 12.833-10.524 3.242-6.472 2.484-14.98-1.846-20.716-4.311-5.712-10.812-8.61-17.977-8.016zm58.744 4.429c-.952 1.424-1.798 2.803-1.88 3.064-.149.467-.297.473-9.875.406l-9.724-.069-.598-.598c-1.18-1.18-.954-4.43.353-5.09.448-.226 3.283-.297 12.02-.3l11.433-.003-1.73 2.59zm-52.873-.012c4.596 1.176 8.242 4.196 10.36 8.582 1.215 2.514 1.589 4.19 1.58 7.075-.018 6.05-3.37 11.38-8.86 14.094-2.745 1.356-4.955 1.823-7.87 1.663-4.248-.234-7.42-1.663-10.47-4.72-1.042-1.045-2.223-2.482-2.625-3.193-1.877-3.326-2.563-7.445-1.837-11.03 1.275-6.294 5.77-11.014 11.996-12.596 1.865-.474 5.622-.413 7.726.125zm80.947.184c4.61 1.648 7.671 4.32 9.622 8.398 1.196 2.5 1.521 3.978 1.526 6.93.008 4.55-1.331 7.789-4.572 11.06-2.172 2.192-3.703 3.165-6.517 4.144-1.589.552-2.182.633-4.64.631-1.96-.002-3.279-.129-4.326-.416-9.874-2.713-14.69-13.654-10.047-22.819.727-1.437 1.437-2.364 3.01-3.935 1.133-1.13 2.154-2.056 2.27-2.056.346 0 3.633 7.138 3.416 7.418-1.676 2.159-2.25 3.662-2.24 5.856.028 5.727 5.984 9.285 11.224 6.705 2.657-1.309 4.159-3.758 4.188-6.83.015-1.547-.081-1.97-.753-3.337-1.4-2.844-3.894-4.406-7.045-4.41l-1.577-.004-1.703-3.56c-.937-1.958-1.653-3.61-1.592-3.671.06-.061.668-.253 1.35-.426 1.833-.466 6.727-.278 8.406.322zm-87.897 7.902c-1.639.675-2.662 1.503-3.622 2.931-1.016 1.513-1.357 2.691-1.348 4.66.014 3.055 1.795 5.709 4.753 7.081 1.89.877 4.518.872 6.422-.01 1.584-.736 3.124-2.24 3.938-3.85.848-1.676.942-4.396.22-6.32-.715-1.908-2.637-3.843-4.514-4.545-1.863-.697-4.073-.677-5.85.053zm5.15 4.055c1.079.805 1.545 1.641 1.655 2.969.25 3.01-2.461 5.116-5.228 4.059-1.803-.689-2.858-2.5-2.556-4.39.166-1.039 1.297-2.486 2.299-2.94.991-.45 3.04-.288 3.83.302zm79.535-.302c1.682.703 2.745 2.855 2.274 4.603-.512 1.901-2.531 3.288-4.356 2.992-2.59-.42-4.195-3.343-3.05-5.556.316-.612.43-.66 1.3-.543.78.105 1.06.03 1.532-.415.318-.299.578-.736.578-.972 0-.52.64-.56 1.722-.109z" fill="#FFC000"/></svg>