<svg width="70" height="70" viewBox="0 0 70 70" fill="none" xmlns="http://www.w3.org/2000/svg"><path fill-rule="evenodd" clip-rule="evenodd" d="M63.701.033c-3.447.44-6.75 1.726-9.366 3.65-.66.486-3.31 3.003-6.484 6.16l-5.367 5.34-1.897-.16c-2.69-.227-2.5-.15-2.343-.944.228-1.151-.402-2.895-1.353-3.746-.141-.126-.595-.4-1.01-.611-.627-.318-.926-.382-1.782-.38-1.58.002-2.042.273-4.33 2.539l-1.943 1.925-1.557-.152a108.67 108.67 0 01-2.119-.224l-.561-.071.06-.988c.108-1.733-.675-3.173-2.177-4.005-.662-.366-.856-.406-1.968-.405-1.666.001-2.02.206-4.39 2.548l-1.924 1.9-2.865-.278c-1.576-.153-3.025-.243-3.221-.2-.226.05-1.576 1.298-3.684 3.405-3.011 3.011-3.335 3.38-3.4 3.865-.054.411-.004.621.214.898.175.222 1.89 1.2 4.433 2.526 4.675 2.44 4.903 2.51 5.6 1.73.219-.245.398-.6.398-.791 0-.818-.296-1.062-2.974-2.456a208.631 208.631 0 01-3.31-1.75l-.735-.41 2.15-2.152c1.652-1.653 2.22-2.141 2.448-2.106.163.024 7.265.698 15.783 1.496 8.517.799 15.575 1.48 15.685 1.515.127.04-2.16 2.42-6.418 6.676l-6.616 6.613-3.518-1.836c-4.023-2.1-4.43-2.226-5.088-1.569-.451.45-.54.982-.263 1.588.152.334.748.678 5.274 3.05l1.524.798-1.963 2.028c-2.112 2.18-3.486 3.823-4.838 5.78-.83 1.2-.87 1.235-1.496 1.323-.354.05-2.123.102-3.932.116-1.81.015-4.353.066-5.652.115l-2.362.09-1.852 1.846C1.403 45.425.603 46.338.519 46.594c-.173.524-.011 1.011.46 1.382.187.147 2.797 1.089 5.8 2.093 3.004 1.005 5.483 1.844 5.508 1.864.026.02-.173.92-.441 1.999-.741 2.978-.86 3.858-.582 4.283.465.709.8.815 1.974.628.582-.092 1.91-.384 2.951-.649 1.041-.264 1.91-.458 1.932-.431.02.026.862 2.508 1.87 5.515 1.144 3.417 1.948 5.607 2.144 5.839.38.451.93.576 1.48.337.227-.098 1.213-.987 2.193-1.975l1.782-1.797.09-2.566c.05-1.411.1-4.137.113-6.058.012-1.921.063-3.597.115-3.724.051-.127.648-.615 1.326-1.083 1.962-1.355 3.603-2.728 5.787-4.839l2.033-1.965L43.33 57.47c3.451 6.614 6.4 12.138 6.554 12.277.181.164.488.252.88.252h.601l3.354-3.35c2.126-2.123 3.383-3.48 3.432-3.706.044-.195-.047-1.644-.2-3.219l-.278-2.863 1.902-1.922c2.343-2.37 2.548-2.723 2.55-4.387 0-1.112-.04-1.305-.406-1.967-.832-1.5-2.274-2.284-4.005-2.177l-.985.061-.074-.492a62.427 62.427 0 01-.225-2.12l-.15-1.626 1.924-1.94c2.272-2.29 2.54-2.75 2.53-4.325-.009-1.453-.674-2.746-1.794-3.484-.785-.518-2.125-.818-2.938-.658-.793.157-.715.35-.95-2.337l-.164-1.89 5.342-5.368c6.062-6.092 6.554-6.674 7.896-9.353 1.418-2.834 1.876-4.886 1.874-8.41C69.999.971 69.85.491 68.69.21c-.592-.143-4.233-.272-4.989-.176zm3.536 2.818c.228.228.21 2.331-.033 3.945-.376 2.493-1.182 4.564-2.634 6.77-.833 1.266-2.206 2.677-16.888 17.346-9.85 9.841-16.548 16.428-17.46 17.169-4.308 3.5-9.433 6.114-14.537 7.413-.744.19-1.38.318-1.412.286-.228-.229 1.42-5.301 2.433-7.487 1.952-4.215 3.967-7.15 7.448-10.855 3.103-3.302 30.657-30.697 31.53-31.349 2.297-1.713 5.011-2.86 7.697-3.252 1.268-.185 3.665-.176 3.856.014zm-47 7.974c.68.351.93 1.42.466 1.985-.235.287-.27.29-2.021.129-.98-.09-1.81-.185-1.842-.212-.095-.077 1.382-1.55 1.842-1.838.49-.308 1.04-.33 1.556-.063zm14.482 1.39c.557.265.943 1 .82 1.562-.153.696-.293.73-2.223.55-.964-.09-1.78-.19-1.813-.222-.111-.107 1.563-1.722 1.98-1.91.536-.24.69-.238 1.236.02zm11.73 9.563c-1.188.658-.691 2.548.67 2.548.694 0 1.37-.67 1.37-1.357 0-1.028-1.137-1.692-2.04-1.191zm-32.877 3.028c-.491.213-.907.967-.77 1.395.268.831.656 1.138 1.443 1.138.276 0 .549-.134.816-.4.702-.702.46-1.874-.452-2.192-.515-.18-.484-.181-1.037.06zm29.024.83c-.575.39-11.242 11.058-11.452 11.454-.32.603-.243 1.049.27 1.561.512.512.958.59 1.562.27.583-.309 11.368-11.19 11.537-11.64.432-1.152-.925-2.316-1.917-1.644zm11.32 20.58l1.522 15.84-2.134 2.155c-1.174 1.185-2.184 2.105-2.244 2.044-.06-.06-2.783-5.22-6.05-11.467l-5.94-11.357 6.588-6.603c3.624-3.631 6.621-6.569 6.663-6.528.04.04.759 7.202 1.596 15.915zm3.279-11.54c.637.303.969 1.028.77 1.687-.137.46-1.846 2.348-1.989 2.198-.114-.12-.382-3.543-.29-3.693.104-.168.577-.385.868-.399.102-.005.39.089.64.207zM15.187 45.078c0 .04-.209.486-.464.993a38.852 38.852 0 00-1.329 3.004c-.114.3-.155.29-3.923-.984-2.095-.708-4.107-1.392-4.471-1.519l-.663-.23.584-.596.584-.595 1.518-.043c2.875-.082 8.164-.102 8.164-.03zm43.56 4.232c.66.34.894 1.243.51 1.968-.209.398-1.82 2.038-1.902 1.937-.027-.033-.122-.862-.212-1.84-.161-1.75-.159-1.785.129-2.02.354-.291.965-.31 1.476-.045zM25.01 59.688l-.09 4.822-.578.588c-.398.406-.607.535-.672.417-.052-.094-.746-2.1-1.544-4.456l-1.45-4.284.374-.141c.653-.246 2.822-1.222 3.32-1.494.264-.144.536-.264.605-.268.075-.003.088 1.936.035 4.816z" fill="#E30D16"/></svg>