<svg width="70" height="70" viewBox="0 0 70 70" fill="none" xmlns="http://www.w3.org/2000/svg"><path fill-rule="evenodd" clip-rule="evenodd" d="M31.787.09c-.15.064-.397.252-.548.42-.262.29-.275.525-.313 5.35l-.038 5.048h-3.424c-3.675 0-4.024.057-4.395.72-.11.197-.19 1.09-.223 2.52l-.052 2.214-2.378.043-2.379.043-.379.378-.38.38-.042 2.31-.043 2.312-1.631.046c-1.572.044-1.644.059-2.01.424l-.379.38-.042 6.118-.042 6.118-3.243 1.955c-1.783 1.076-3.34 2.03-3.46 2.12-.28.214-.535.696-.535 1.013 0 .177 5.601 19.223 7.066 24.026.065.212.036.23-.189.11-.146-.079-.873-.246-1.616-.373-3.261-.556-5.976.205-9.061 2.538C.633 67.375.139 67.883.03 68.376a1.25 1.25 0 00.686 1.41c.813.386.813.386 2.867-1.167 2.623-1.985 5.018-2.685 7.222-2.11.424.11 1.376.472 2.117.804 2.228 1.001 3.445 1.325 5.314 1.415 2.1.1 3.22-.164 5.646-1.334 4.592-2.213 5.939-2.267 9.927-.393 3.712 1.744 5.386 2.158 7.685 1.899 1.472-.166 2.51-.523 4.712-1.622 2.128-1.062 3.177-1.45 4.284-1.587 1.387-.172 3.336.296 5.61 1.345 3.573 1.649 7.015 1.569 10.039-.233.808-.482 2.69-1.927 3.31-2.54.794-.787.719-1.837-.161-2.255-.835-.396-.855-.387-2.952 1.316-1.324 1.075-2.375 1.664-3.488 1.953-.914.238-2.302.267-3.21.068-.942-.207-2.6-.86-2.6-1.025 0-.08 1.6-5.528 3.558-12.107 1.957-6.578 3.558-12.073 3.558-12.21 0-.318-.254-.8-.535-1.013-.12-.091-1.677-1.045-3.46-2.12l-3.243-1.956-.042-6.118-.042-6.118-.379-.38c-.365-.365-.438-.38-2.01-.424l-1.63-.046-.044-2.311-.043-2.312-.379-.378-.38-.38-2.378-.042-2.378-.043-.052-2.214c-.033-1.43-.112-2.323-.223-2.52-.371-.663-.72-.72-4.395-.72H39.12l-.04-5.059-.038-5.058-.38-.379-.379-.38-3.11-.028c-1.712-.016-3.235.022-3.385.086zm4.585 6.714v4.104h-2.738V2.7h2.738v4.104zm7.938 8.207v1.368H25.696v-2.736H44.31v1.368zm5.748 5.472v1.368h-30.11v-2.736h30.11v1.368zm-20.194 4.224c-.092.085-10.75 6.557-13.92 8.452-.056.034-.102-1.881-.102-4.255v-4.317h7.076c4.09 0 7.02.05 6.946.12zm24.3 4.197c0 2.374-.046 4.289-.102 4.255-3.17-1.895-13.828-8.366-13.92-8.452-.075-.07 2.855-.12 6.946-.12h7.076v4.317zM33.634 44.75v19.07l-.655-.25c-2.132-.81-4.875-.883-6.982-.188-.354.116-1.628.7-2.833 1.296-2.69 1.332-3.845 1.62-5.57 1.393-.6-.08-1.145-.197-1.208-.261-.137-.142-7.567-25.085-7.493-25.16.064-.063 24.66-14.963 24.707-14.966.019-.002.034 8.578.034 19.066zM49.162 33.4c6.546 3.96 11.924 7.224 11.952 7.252.027.027-1.46 5.118-3.304 11.313-2.416 8.115-3.404 11.251-3.534 11.216-.658-.178-2.424-.308-3.465-.256-1.562.08-3.017.557-5.723 1.88-2.353 1.15-3.066 1.363-4.542 1.36-1.256-.001-1.95-.135-3.25-.627l-.924-.349V25.66l.444.27 12.346 7.47zm-19.705-1.51c-.907.396-.988 1.626-.152 2.303.638.517 1.848.057 2.058-.782.125-.494-.24-1.248-.722-1.497-.496-.256-.643-.26-1.184-.023zm10.586.18c-.786.488-.87 1.362-.195 2.037.599.599 1.137.62 1.753.069.368-.328.444-.496.444-.972s-.076-.643-.444-.971c-.504-.45-1.008-.503-1.558-.162zM23.98 35.298c-4.501 2.78-8.121 5.108-8.377 5.385-.333.362-.412 1.1-.167 1.558.21.393.928.716 1.385.624.217-.043 2.461-1.381 4.989-2.973 3.738-2.355 4.634-2.978 4.807-3.34.258-.54.154-1.054-.303-1.512-.522-.521-1.192-.447-2.334.258zm20.757-.397c-.794.44-.91 1.373-.255 2.053.473.491 8.68 5.593 9.402 5.844 1.27.443 2.222-1.191 1.273-2.186-.3-.315-7.974-5.129-9.16-5.746a1.318 1.318 0 00-1.26.035z" fill="#E30D16"/></svg>