<svg width="120" height="120" viewBox="0 0 120 120" fill="none" xmlns="http://www.w3.org/2000/svg"><path opacity=".15" fill-rule="evenodd" clip-rule="evenodd" d="M54.548.22C43.252 1.227 32.267 5.6 22.88 12.827c-4.57 3.519-10.505 10.13-13.935 15.524-1.481 2.33-4.365 8.233-5.398 11.05C2.393 42.552 1.162 47.365.556 51.1c-.741 4.571-.741 13.251 0 17.823.606 3.735 1.837 8.549 2.991 11.699 1.033 2.817 3.917 8.72 5.398 11.05 4.789 7.53 11.797 14.536 19.33 19.324 2.33 1.48 8.235 4.363 11.053 5.395 9.503 3.482 20.676 4.505 30.587 2.801 17.213-2.96 31.612-12.588 40.921-27.361 1.365-2.165 2.925-5.075 2.787-5.198-.041-.036-.838-.448-1.771-.915l-1.696-.85-.62 1.223c-1.407 2.775-4.238 7.026-6.529 9.802-1.437 1.74-5.533 5.819-7.287 7.257-1.965 1.61-4.967 3.765-5.244 3.765-.11 0-.796-.897-1.526-1.994l-1.327-1.994-1.635 1.087c-.965.641-1.572 1.194-1.482 1.349.085.144.672 1.036 1.305 1.981.634.946 1.11 1.762 1.058 1.813-.05.051-1.406.721-3.01 1.488-6.187 2.956-13.831 4.902-20.571 5.238l-1.232.061v-3.87h-4.222v3.965l-1.232-.115c-7.364-.689-11.496-1.606-17.066-3.789-2.197-.861-6.194-2.697-6.53-3-.044-.039.44-.845 1.072-1.791a97.195 97.195 0 001.305-1.981c.091-.155-.516-.708-1.48-1.349l-1.636-1.087-1.327 1.994c-.73 1.097-1.4 1.994-1.489 1.994-.209 0-2.492-1.622-4.577-3.252-2.114-1.652-6.941-6.478-8.594-8.591-1.63-2.085-3.253-4.367-3.253-4.576 0-.089.897-.758 1.995-1.488l1.994-1.327-1.087-1.635c-.642-.964-1.195-1.571-1.35-1.48a91.01 91.01 0 00-1.982 1.304c-.946.633-1.752 1.116-1.79 1.072-.304-.336-2.14-4.331-3.002-6.528-2.182-5.567-3.102-9.707-3.789-17.054l-.115-1.224 2.98-.066 2.979-.065v-3.987l-2.98-.066-2.979-.065.115-1.224c.687-7.348 1.607-11.488 3.79-17.055.86-2.196 2.697-6.192 3-6.528.04-.043.845.44 1.791 1.073s1.838 1.22 1.982 1.304c.155.091.708-.516 1.35-1.48l1.087-1.635-1.994-1.327c-1.098-.73-1.995-1.4-1.995-1.488 0-.209 1.623-2.491 3.253-4.576 1.653-2.113 6.48-6.939 8.594-8.591 2.085-1.63 4.368-3.252 4.577-3.252.089 0 .759.897 1.489 1.994l1.327 1.994 1.635-1.087c.965-.642 1.572-1.195 1.481-1.35a97.639 97.639 0 00-1.305-1.98c-.633-.947-1.116-1.752-1.072-1.791.336-.303 4.333-2.14 6.53-3 5.57-2.183 9.701-3.1 17.066-3.79l1.232-.115V7.95h4.222V4.08l1.232.06c6.74.336 14.384 2.283 20.57 5.24 1.605.766 2.96 1.435 3.011 1.487.052.051-.424.866-1.058 1.812a97.367 97.367 0 00-1.305 1.982c-.09.155.517.707 1.482 1.349l1.635 1.087 1.327-1.994c.73-1.097 1.444-1.992 1.585-1.99.41.007 4.77 3.33 6.827 5.204 4.935 4.495 9.516 10.37 12.174 15.615l.62 1.223 1.696-.85c.933-.466 1.73-.878 1.771-.914.138-.123-1.422-3.033-2.787-5.198-7.429-11.79-18.102-20.334-31.011-24.826C71.933.62 62.797-.517 54.548.219zm-.116 18.165c-9.375 1.325-17.548 5.378-24.148 11.976a41.824 41.824 0 000 59.303c8.336 8.333 19.262 12.644 31.068 12.257 7.393-.242 13.752-2.092 20.058-5.834 1.29-.766 2.652-1.64 3.026-1.944l.68-.55-1.136-1.547c-.625-.85-1.164-1.546-1.2-1.546-.035 0-.989.603-2.12 1.34-4.012 2.614-8.737 4.545-13.407 5.48-2.581.516-7.96.833-9.943.585l-1.335-.167-.068-7.744-.067-7.744-.537-.434c-.295-.239-1.14-.607-1.877-.819-.737-.21-2.27-.85-3.409-1.42-1.137-.571-2.346-1.038-2.686-1.038-.492 0-1.723 1.102-6.074 5.437L35.8 89.413l-1.358-1.274a67.375 67.375 0 01-2.628-2.637l-1.27-1.362 5.433-5.45c4.333-4.346 5.434-5.575 5.434-6.068 0-.34-.467-1.548-1.037-2.685-.57-1.138-1.21-2.671-1.422-3.408-.211-.737-.58-1.582-.818-1.876l-.434-.537-7.733-.067-7.734-.068-.144-.87c-.186-1.124-.186-5.073 0-6.197l.144-.87 7.733-.068 7.734-.068.434-.536c.239-.295.607-1.139.818-1.876.212-.737.852-2.27 1.422-3.408.57-1.137 1.037-2.346 1.037-2.685 0-.493-1.1-1.722-5.434-6.068l-5.433-5.45 1.27-1.363a67.636 67.636 0 012.628-2.636l1.358-1.274 5.456 5.437c4.35 4.335 5.582 5.436 6.074 5.436.34 0 1.549-.466 2.686-1.037 1.138-.57 2.672-1.21 3.41-1.42.737-.212 1.581-.58 1.876-.82l.537-.433.067-7.744.068-7.745 1.335-.166c1.982-.248 7.362.069 9.943.585 4.67.935 9.395 2.866 13.407 5.48 1.131.737 2.085 1.34 2.12 1.34.036 0 .575-.696 1.2-1.546l1.136-1.547-.68-.55c-1.177-.955-5.284-3.297-7.538-4.3-2.666-1.187-6.72-2.428-9.68-2.963-3.028-.547-9.705-.669-12.786-.234zm-2.467 10.73l-.004 6.156-2.08.85-2.08.85-4.365-4.368-4.364-4.368 1.932-1.093c3.213-1.816 5.46-2.777 8.659-3.701 2.552-.738 2.306-1.344 2.302 5.674zm18.356 3.48c-5.275 1.107-9.704 3.433-13.683 7.185-1.977 1.865-3.91 4.363-5.015 6.484-.9 1.729-.91 2.204-.056 3.136l.484.528h20.918l5.04 5.042 5.039 5.042-5.04 5.043-5.04 5.042H52.05l-.483.527c-.853.933-.845 1.408.056 3.137 2.204 4.228 6.428 8.38 11.168 10.975 6.294 3.445 14.983 4.188 21.914 1.871 2.427-.811 5.432-2.333 7.525-3.81 2.246-1.585 5.184-4.583 6.703-6.84l1.244-1.846 9.345-.073 9.346-.072.566-.658.566-.658V47.375l-.566-.658-.566-.658-9.346-.073-9.345-.072-1.244-1.847c-3.98-5.911-10.917-10.37-18.071-11.618-2.833-.493-7.824-.425-10.541.146zm11.482 4.152c4.61 1.251 8.335 3.466 11.526 6.855 1.096 1.163 2.436 2.863 2.98 3.777 1.67 2.812.557 2.55 10.789 2.55h8.914v20.168h-8.914c-10.232 0-9.118-.263-10.79 2.548-1.39 2.34-4.554 5.614-7.015 7.26-3.853 2.576-7.615 3.788-12.329 3.97-3.188.123-5.156-.102-7.87-.9-4.276-1.256-8.41-3.924-11.235-7.25l-1.294-1.524 9.02-.117c8.778-.115 9.04-.131 9.726-.625.387-.278 3.369-3.193 6.627-6.477 5.882-5.928 5.923-5.977 5.923-6.97 0-.993-.041-1.042-5.923-6.97-3.258-3.283-6.24-6.198-6.627-6.477-.685-.493-.948-.51-9.725-.624l-9.021-.117 1.294-1.524c3.48-4.097 7.988-6.65 14.05-7.955 1.846-.398 7.844-.154 9.894.402zM36.046 49.951l-.85 2.08-6.158.004c-3.906.002-6.158-.081-6.158-.228 0-.494.969-3.728 1.635-5.46.821-2.13 1.091-2.688 2.55-5.27l1.093-1.931 4.37 4.363 4.369 4.363-.85 2.08zm22.802 4.221c-4.66.862-6.463 6.69-3.108 10.044 3.723 3.721 10.117 1.065 10.117-4.204a5.9 5.9 0 00-7.009-5.84zm2.43 4.474c1.21 1.136.365 3.242-1.3 3.242-1.122 0-1.91-.76-1.91-1.843a1.894 1.894 0 013.21-1.399zM36.047 70.073l.85 2.08-4.369 4.363-4.37 4.363-1.091-1.932c-1.46-2.581-1.73-3.14-2.55-5.27-.667-1.731-1.636-4.965-1.636-5.46 0-.146 2.252-.23 6.158-.227l6.158.004.85 2.08zM51.965 90.91c.002 3.904-.081 6.156-.228 6.156-.495 0-3.729-.968-5.46-1.635-2.132-.82-2.69-1.09-5.273-2.55l-1.932-1.091 4.364-4.369 4.365-4.368 2.08.85 2.08.851.004 6.156z" fill="#FFC000"/></svg>