<svg width="50" height="34" viewBox="0 0 50 34" fill="none" xmlns="http://www.w3.org/2000/svg"><path fill-rule="evenodd" clip-rule="evenodd" d="M14.448.166C13.186.5 11.86 1.341 11.135 2.27c-.227.29-.791 1.342-1.265 2.357-.868 1.86-1.394 2.825-1.826 3.35l-.239.29v-.802c0-.72-.024-.824-.24-1.037l-.24-.237H2.813l-.24.237c-.233.23-.24.276-.24 1.678 0 1.24.025 1.472.174 1.655.14.17.459.269 1.588.494a58.39 58.39 0 011.5.31c.048.014-.643.604-1.535 1.308-.893.705-1.827 1.506-2.076 1.78-.637.7-1.233 1.748-1.618 2.846l-.329.938-.029 7.24c-.022 5.547 0 7.343.092 7.676.158.565.945 1.358 1.512 1.523.564.165 7.131.165 7.696 0 .536-.156 1.346-.956 1.504-1.486.066-.219.119-.816.119-1.328v-.93H39.07v.93c0 .512.053 1.11.118 1.328.158.53.968 1.33 1.505 1.486.564.165 7.13.165 7.695 0 .567-.165 1.354-.958 1.512-1.523.093-.333.114-2.13.092-7.675l-.03-7.24-.328-.939c-.385-1.098-.98-2.146-1.617-2.846-.25-.274-1.185-1.075-2.077-1.78l-1.623-1.282 1.494-.3c1.946-.393 1.856-.287 1.856-2.185 0-1.402-.007-1.448-.24-1.678l-.24-.237h-4.512l-.24.237c-.216.213-.24.316-.24 1.037v.801l-.239-.29c-.432-.524-.958-1.49-1.826-3.349-.474-1.015-1.038-2.067-1.265-2.357C38.126 1.324 36.8.49 35.507.16c-.854-.217-20.232-.212-21.059.006zm21.44 1.756c.748.35 1.388.828 1.768 1.32.186.241 1.747 3.396 2.164 4.372.041.097-2.96.121-14.82.121s-14.861-.024-14.82-.12c.417-.977 1.978-4.132 2.164-4.373.513-.664 1.64-1.386 2.47-1.582.206-.048 4.753-.08 10.381-.07l10.015.015.678.317zm-29.647 6.5c0 .653-.01.684-.207.634-.114-.03-.642-.132-1.172-.227l-.966-.173v-.92h2.345v.686zM46.104 8.2v.464l-.904.171-1.173.224-.268.053V7.735h2.345V8.2zm-4.756 1.54c.381.51 1.963 2.058 2.537 2.482.204.151.336.308.294.348-.043.041-1.31.559-2.814 1.15l-2.736 1.076-1.125 1.104-1.125 1.104h-9.356l-1.011.984L25 18.97l-1.012-.983-1.011-.984H13.62l-1.125-1.104-1.125-1.104-2.736-1.076c-1.505-.591-2.77-1.109-2.813-1.15-.043-.04.089-.197.293-.348.574-.424 2.156-1.972 2.537-2.483l.342-.458h32.014l.341.458zM7.414 14.892c1.639.645 3.021 1.21 3.072 1.255.057.05-.057.236-.288.469l-.381.386H6.77c-1.675 0-3.184-.027-3.354-.061-.386-.076-.855-.5-.945-.852-.082-.324.094-.717.577-1.287.412-.488 1.111-1.082 1.272-1.083.062 0 1.454.528 3.093 1.173zm38.782-.839c.897.74 1.447 1.582 1.332 2.036-.09.352-.56.776-.945.852-.17.034-1.679.06-3.354.06h-3.046l-.38-.383c-.208-.212-.347-.417-.307-.456.109-.108 5.947-2.423 6.134-2.434.09-.004.344.142.566.325zm-33.84 3.914l.61.58h9.338l1.186 1.158c1.036 1.013 1.226 1.159 1.51 1.159.284 0 .474-.146 1.51-1.159l1.186-1.158h9.338l.627-.595.626-.595.633.6.632.6 3.74-.031c4.062-.034 4.058-.033 4.743-.603l.293-.244.06.217c.031.119.058.835.06 1.592v1.375h-2.16c-2.406 0-2.933.082-3.939.61-.832.437-1.228.834-1.228 1.23 0 .708.77 1.007 1.352.524.16-.133.548-.36.862-.504.49-.224.727-.267 1.681-.299l1.11-.037-.038.683c-.042.73-.191 1.028-.706 1.408-.24.177-.45.204-1.932.247-1.602.047-1.67.057-1.85.276-.263.322-.237.744.063 1.041l.25.246 1.729-.036c1.647-.035 1.752-.048 2.228-.294.736-.38 1.044-.672 1.401-1.335.267-.494.33-.732.372-1.405l.051-.81h.754v2.089c0 1.357-.041 2.227-.118 2.486-.159.53-.968 1.33-1.505 1.486-.279.082-1.355.118-3.51.118H40.21L39.077 27.5c-1.217-1.171-1.867-1.584-2.904-1.849-.53-.135-1.86-.153-11.368-.153-9.508 0-10.838.018-11.369.153-1.037.265-1.687.678-2.904 1.849l-1.131 1.088H6.489c-2 0-3.038-.037-3.314-.118-.537-.156-1.346-.956-1.505-1.486-.077-.259-.118-1.129-.118-2.486v-2.089h.754l.05.8c.081 1.288.59 2.113 1.658 2.683l.615.329 1.73.034 1.729.034.249-.246c.3-.297.326-.719.063-1.04-.18-.22-.248-.23-1.85-.277-1.483-.043-1.692-.07-1.932-.247-.515-.38-.664-.678-.706-1.408l-.039-.683 1.11.037c.955.032 1.192.075 1.682.3.314.143.702.37.862.503.575.478 1.352.184 1.352-.51 0-.411-.384-.8-1.228-1.244-1.006-.528-1.533-.61-3.94-.61h-2.16l.002-1.375c0-.757.028-1.473.06-1.592l.059-.217.293.244c.685.57.681.57 4.745.603l3.74.031.607-.582c.334-.321.625-.584.647-.585.022-.001.316.259.651.577zm24.037 9.396c.342.156.8.476 1.071.748l.474.476H11.672l.435-.443c.456-.462.95-.76 1.608-.968.31-.097 2.665-.119 11.236-.104l10.845.018.597.273zm-30.232 2.75l3.207.03v.916c0 .843-.02.934-.24 1.152l-.24.237H2.031l-.24-.237c-.23-.228-.24-.286-.24-1.527v-1.29l.702.345.702.344 3.206.03zm42.287.554c0 1.26-.008 1.316-.24 1.544l-.24.237h-6.856l-.24-.237c-.22-.218-.24-.309-.24-1.152v-.916l3.203-.03 3.202-.03.681-.347c.375-.191.693-.354.706-.362.013-.008.024.573.024 1.293z" fill="#161921"/></svg>