<svg width="50" height="32" viewBox="0 0 50 32" fill="none" xmlns="http://www.w3.org/2000/svg"><path fill-rule="evenodd" clip-rule="evenodd" d="M25.379.13c-.449.348-.489.87-.097 1.266l.286.289h4.765l.562 1.212c.31.666.562 1.245.561 1.286 0 .04-1.707.074-3.793.075-4.16.001-4.314.018-5.5.605-.787.39-1.922 1.497-2.293 2.238l-.26.52h-7.237c-7.18 0-7.242.001-7.803.213-1.967.744-2.803 3.568-1.345 4.54.159.105.365.192.46.192.316.001.171.147-.393.394-.727.319-2.231 1.318-2.366 1.572-.165.313-.123.786.089 1 .352.355.647.355 1.206-.003 1.69-1.083 2.89-1.6 4.332-1.866.775-.143 2.562-.151 3.387-.016 3.472.572 6.415 3.025 7.718 6.432.449 1.176.597 2.065.645 3.864.04 1.531.07 1.782.262 2.171.119.242.34.532.492.643.27.198.41.204 5.375.23 5.613.03 5.637.029 6.36-.574.628-.523.832-1.13.897-2.668.032-.734.104-1.602.162-1.929.34-1.937 1.384-3.933 2.768-5.293.635-.625 1.799-1.579 1.929-1.581.06-.001.805 1.496.76 1.525-.976.642-2.174 1.864-2.704 2.758-.882 1.488-1.243 2.97-1.161 4.761.064 1.414.225 2.069.806 3.288 1.068 2.238 3.006 3.842 5.428 4.493 1.15.31 2.937.31 4.062.004 2.97-.811 5.246-3.079 6.035-6.014.282-1.052.304-3.127.043-4.139-.8-3.1-3.16-5.464-6.18-6.189-1.345-.323-3.452-.236-4.557.19-.24.091-.265.064-.614-.65-.2-.409-.352-.756-.336-.771.08-.075 1.407-.446 1.948-.545.337-.062 1.101-.11 1.697-.107 1.565.009 2.705.263 4.202.938.704.317.956.324 1.28.036.35-.31.416-.75.163-1.076-.462-.594-2.986-1.413-4.811-1.562-1.592-.129-3.7.147-4.86.637-.203.086-.38.12-.395.077a62.976 62.976 0 00-.664-1.404c-.351-.729-.624-1.34-.605-1.359.018-.018.338.032.711.112.373.08.948.146 1.277.147.517.001.633-.034.856-.26l.258-.26V5.979c0-2.422-.035-3.671-.108-3.834-.148-.327-.48-.46-1.144-.459-1.412.005-3.255.745-4.213 1.693l-.506.501-.871-1.83c-.526-1.107-.95-1.875-1.07-1.94-.293-.158-5.689-.14-5.896.02zm12.145 5.796v2.46l-.416-.08a4.636 4.636 0 01-1.782-.737c-.437-.292-.581-.468-.83-1.004-.165-.357-.3-.746-.3-.865 0-.293.498-1.07.845-1.316.653-.465 1.702-.887 2.262-.91l.22-.009v2.46zm-4.28 2.537l1.247 2.525-6.453-.027c-6.377-.026-6.457-.03-6.73-.234-1.03-.773-.19-3.315 1.41-4.263.843-.499.975-.512 5.264-.519l4.014-.006 1.247 2.524zm-14.12 1.68v.84h-7.487c-7.338 0-7.488-.003-7.488-.19 0-.292.185-.723.423-.984.462-.509.312-.499 7.676-.503l6.876-.004v.84zm1.692 2.25l.412.223 7.152.027 7.152.027.168.357c.093.195.155.365.14.377a71 71 0 01-.592.393c-.31.204-.587.412-.618.461-.031.051-2.52.09-5.868.09-5.615 0-5.832.006-6.348.201-.589.223-1.15.768-1.41 1.367-.105.246-.157.677-.161 1.356-.006.92.016 1.042.29 1.583a2.446 2.446 0 001.713 1.32c.305.067 1.865.108 4.063.108 1.963 0 3.566.033 3.564.074-.002.04-.084.408-.181.816l-.177.742-2.745.05c-2.523.045-2.762.064-2.951.238a.697.697 0 00-.206.51c0 .894.136.933 3.225.933h2.55v.536c0 1.201.255 1.146-5.315 1.146h-4.639l-.061-1.657c-.04-1.075-.129-1.953-.252-2.498-.809-3.59-2.971-6.432-6.136-8.064l-.86-.444h6.76l.43-.24c.238-.131.445-.243.46-.247.016-.004.214.093.44.215zm-13.3 2.862c-3.405.285-6.22 2.643-7.243 6.066-.232.779-.266 1.065-.272 2.276-.006 1.146.03 1.516.208 2.142.563 1.98 1.612 3.522 3.206 4.712.783.584 1.525.953 2.565 1.275.762.236 1.024.267 2.28.27 1.178.004 1.547-.032 2.168-.212 2.383-.692 4.268-2.254 5.347-4.431 1.351-2.726 1.035-6.308-.769-8.723-1.796-2.405-4.505-3.626-7.49-3.375zm24.476 1.864c-.396.6-.749 1.18-.783 1.29-.062.197-.124.2-4.114.171l-4.052-.028-.25-.252c-.49-.497-.397-1.865.148-2.143.187-.096 1.368-.125 5.008-.127l4.764-.001-.72 1.09zm-22.03-.005c1.915.496 3.434 1.767 4.317 3.614.506 1.059.662 1.764.658 2.979-.008 2.548-1.404 4.792-3.692 5.934-1.143.571-2.064.768-3.279.7-1.77-.098-3.091-.7-4.362-1.987-.434-.44-.927-1.045-1.094-1.344-.782-1.4-1.068-3.135-.765-4.644.53-2.65 2.404-4.638 4.998-5.304.777-.2 2.342-.174 3.219.052zm33.728.078c1.92.694 3.196 1.82 4.01 3.536.497 1.053.633 1.675.635 2.918.003 1.916-.555 3.28-1.905 4.656-.905.924-1.543 1.333-2.715 1.745-.662.233-.91.267-1.934.266-.816 0-1.366-.054-1.802-.175-4.114-1.142-6.121-5.749-4.187-9.608.304-.605.6-.995 1.255-1.657.472-.476.897-.866.945-.866.145 0 1.514 3.006 1.424 3.124-.698.909-.938 1.542-.933 2.466.011 2.41 2.493 3.91 4.676 2.823 1.107-.551 1.733-1.582 1.745-2.876.006-.651-.033-.83-.314-1.405-.583-1.197-1.622-1.855-2.935-1.857l-.657-.001-.71-1.5c-.39-.824-.688-1.52-.663-1.545.025-.026.279-.107.563-.18.763-.196 2.803-.117 3.502.136zM7.066 20.519c-.683.284-1.109.633-1.509 1.234-.423.637-.565 1.134-.562 1.962.006 1.287.749 2.404 1.98 2.982.788.369 1.884.367 2.677-.005.66-.31 1.301-.943 1.64-1.62.354-.706.393-1.851.092-2.662-.298-.803-1.099-1.617-1.88-1.913-.777-.294-1.698-.285-2.438.022zm2.146 1.708c.45.339.644.69.69 1.25.104 1.267-1.026 2.154-2.178 1.709a1.688 1.688 0 01-1.066-1.849c.07-.437.54-1.046.958-1.238.413-.189 1.267-.12 1.596.128zm33.14-.128c.7.296 1.143 1.202.947 1.939-.213.8-1.054 1.384-1.815 1.26-1.079-.178-1.748-1.408-1.271-2.34.132-.258.18-.278.542-.229.325.044.441.012.639-.174.132-.126.24-.31.24-.41 0-.219.267-.236.718-.046z" fill="#161921"/></svg>