<svg width="70" height="50" viewBox="0 0 70 50" fill="none" xmlns="http://www.w3.org/2000/svg"><path fill-rule="evenodd" clip-rule="evenodd" d="M2.393.182C1.285.624.59 1.348.198 2.47.046 2.904.01 5.891.006 18.951L0 34.9l.321.382c.27.32.457.391 1.164.443l.841.062v2.004c0 2.352.218 3.17 1.06 3.994.905.885 1.278 1.008 3.217 1.067l1.745.054v.342c0 .56.796 2.432 1.415 3.328 1.05 1.519 2.9 2.763 4.785 3.217 1.667.401 3.623.176 5.314-.612 2.116-.987 3.917-3.266 4.4-5.57l.154-.733h21.236l.154.733c.756 3.603 4.21 6.396 7.899 6.388 2.569-.005 5.171-1.355 6.6-3.423.621-.899 1.415-2.768 1.415-3.332v-.347l2.908-.045c3.236-.05 3.516-.12 4.432-1.115.998-1.082.94-.443.94-10.313v-8.87l-.308-.587c-.17-.323-2.268-2.84-4.664-5.595-3.883-4.463-4.432-5.04-5.055-5.314-.682-.3-.833-.307-6.38-.307h-5.68l-.042-4.015c-.039-3.739-.061-4.06-.33-4.645-.373-.815-.915-1.358-1.764-1.764L45.093 0 23.949.01C8.109.015 2.702.06 2.393.181zM45.12 2.71l.384.337.036 15.167.036 15.167H2.326V3.188l.4-.408.4-.408h41.609l.384.337zm7.432 16.616c0 5.188.034 6.296.208 6.8.446 1.292 1.387 2.1 2.74 2.356.488.092 3.017.15 6.52.15h5.722v11.056l-.403.412-.403.411-2.558-.038-2.558-.038-.18-.72c-.603-2.405-2.266-4.496-4.375-5.499-1.575-.749-2.184-.835-5.93-.835h-3.436V13.127h4.651v6.198zm6.756-5.884c.819.758 8.302 9.505 8.37 9.783.042.17.058.906.036 1.636l-.04 1.327-5.66.036c-3.629.024-5.85-.016-6.19-.11-.956-.262-.946-.19-.946-6.973v-6.013h2.045c1.93 0 2.065.018 2.385.314zM10.267 36.14c-1.063 1.395-1.351 2-2.002 4.203-.042.145-.377.177-1.488.14-2.043-.068-2.042-.067-2.1-2.705l-.044-2.022h5.927l-.293.384zm7.576-.173c3.066.815 4.92 4.046 4.123 7.187-1.13 4.45-6.529 5.961-9.707 2.718-2.591-2.645-2.189-7.03.833-9.078 1.449-.981 3.094-1.268 4.75-.827zm10.212 2.163v2.375h-1.848c-1.824 0-1.848-.004-1.85-.314-.008-.844-.881-2.688-1.918-4.051l-.292-.384h5.908v2.374zm10.537 0v2.375h-8.211v-4.75h8.211v2.374zm9.037-1.99c-1.037 1.363-1.91 3.207-1.918 4.05-.003.315-.006.315-2.398.315h-2.395v-4.75h7.002l-.291.384zm7.668-.161c1.91.572 3.388 2.057 3.98 4 .965 3.165-.935 6.601-4.12 7.45-4.258 1.135-8.167-2.887-7.052-7.256.806-3.16 4.145-5.108 7.192-4.194zm-40.044 2.33c-1.595.655-2.494 2.042-2.36 3.643.202 2.435 2.678 3.982 4.783 2.99.924-.436 1.434-.957 1.861-1.9.752-1.662-.02-3.742-1.696-4.566-.64-.314-2.015-.404-2.589-.168zm37.365 0c-1.107.46-1.884 1.267-2.235 2.322-.745 2.233 1.198 4.773 3.514 4.595 1.946-.15 3.238-1.56 3.238-3.534 0-1.48-.668-2.594-1.929-3.214-.643-.316-2.02-.406-2.588-.17zm-35.501 2.604c.241.246.4.556.4.78 0 .49-.683 1.187-1.163 1.187-.435 0-1.163-.69-1.163-1.1 0-1.13 1.157-1.651 1.926-.867zm37.123-.253c.357.166.637.658.637 1.12 0 .41-.728 1.1-1.163 1.1-.48 0-1.163-.698-1.163-1.188 0-.444.675-1.187 1.078-1.187.152 0 .428.07.611.155z" fill="#E30D16"/></svg>