<svg width="36" height="50" viewBox="0 0 36 50" fill="none" xmlns="http://www.w3.org/2000/svg"><path fill-rule="evenodd" clip-rule="evenodd" d="M21 .467c-.37.258-.897.667-1.174.909-1.213 1.06-2.426 3.088-2.912 4.869-.3 1.1-.405 3.097-.226 4.261.43 2.781 1.983 5.284 4.25 6.85.454.313.684.535.684.66 0 .182-.094.19-2.3.191-2.565.002-3.09.08-4.141.618-.913.466-1.679 1.275-2.874 3.038l-1.059 1.56H8.56l-.047-.756c-.041-.668-.076-.783-.302-.984l-.256-.228H.466l-.233.241-.233.242v9.693c0 5.331.027 9.765.059 9.853.155.419.418.447 4.15.447 2.125 0 3.655-.04 3.803-.098.323-.127.523-.635.523-1.326v-.545h2.859l1.06 1.001c1.448 1.367 1.912 1.738 2.586 2.068.985.482 1.64.57 4.235.572l2.347.002.002.96c.003 1.808.409 2.971 1.392 3.992 1.887 1.959 4.853 1.918 6.664-.091.963-1.069 1.329-2.165 1.33-3.986l.001-.848.467-.057c.908-.112 1.67-.67 2.109-1.546.199-.398.222-.572.222-1.722 0-1.032-.033-1.346-.168-1.62-.146-.293-.15-.35-.03-.42.343-.199.743-.626.982-1.047.235-.416.262-.564.293-1.63.037-1.284-.045-1.727-.437-2.34l-.244-.384.21-.295c.369-.517.484-1.032.484-2.158 0-1.475-.3-2.245-1.08-2.776l-.303-.207.18-.551c.145-.446.172-.758.141-1.634-.032-.935-.072-1.152-.289-1.587-.407-.814-1.161-1.345-2.102-1.48l-.435-.061.003-2.177.004-2.177.63-.394c.768-.48 2.124-1.845 2.677-2.695.58-.891 1.183-2.276 1.442-3.31.308-1.225.311-3.735.006-4.89-.688-2.612-2.257-4.833-4.333-6.13-.756-.473-.95-.464-1.493.072-.012.011-.044 1.836-.071 4.054l-.05 4.034-1.707.957c-.94.527-1.75.959-1.802.96-.052 0-.863-.43-1.802-.956l-1.707-.959-.048-4.002-.047-4.002-.23-.254c-.347-.383-.697-.331-1.483.22zm.433 9.012c.306.301 4.628 2.623 4.882 2.623.268 0 4.819-2.47 4.956-2.691.04-.063.093-1.702.12-3.643l.047-3.53.459.42c1.006.92 2.03 2.702 2.4 4.178.265 1.06.245 3.29-.04 4.311-.57 2.047-1.813 3.796-3.508 4.934l-.672.451h-7.498l-.539-.33c-1.72-1.05-3.176-3.07-3.703-5.133-.269-1.053-.248-3.374.039-4.41.41-1.475 1.277-2.96 2.316-3.964l.504-.486.047 3.565c.04 2.996.07 3.587.19 3.705zm8.06 10.647v2.018H23.14v-4.036h6.354v2.018zm-7.87.836v1.182h-3.13v1.571l6.589.026 6.59.027.31.322.31.322v1.021c0 .882-.027 1.052-.19 1.242-.389.453-.64.49-3.32.49h-2.52l.027.762.028.763 3.256.05 3.256.049.276.321c.263.305.277.368.277 1.211 0 .602-.046.983-.144 1.178-.284.57-.394.588-3.834.588h-3.135v1.575h3.154c4.032 0 3.959-.032 3.959 1.776 0 .831-.015.896-.277 1.2l-.276.322-3.256.049-3.256.05-.028.762-.028.763h2.52c2.682 0 2.932.037 3.32.489.164.19.19.36.19 1.234 0 .873-.026 1.043-.19 1.233-.426.497-.305.49-7.844.488-8.7-.002-8.272.06-9.923-1.455l-1.6-1.47-.781-.716H8.535V25l1.589-.002c1.078 0 1.664-.04 1.825-.124.13-.068.797-.942 1.481-1.943 1.405-2.055 1.962-2.602 3.002-2.944.518-.17.873-.195 2.89-.2l2.3-.005v1.181zM7.017 29.133v6.104h-5.5V23.03h5.5v6.103zm-.022 9.426l-.026 1.748-2.726.026-2.727.026v-3.547h5.505l-.026 1.747zm-3.235-.75c-.096.059-.236.256-.31.44-.355.883.65 1.614 1.354.985.577-.514.197-1.54-.566-1.533-.167.002-.382.05-.478.108zm20.73 6.41c-.029.54.002.678.252 1.122.22.392.397.564.782.763.968.5 1.928.242 2.53-.681.292-.449.312-.533.284-1.151l-.03-.668h1.208l-.04 1.157c-.035.976-.079 1.243-.282 1.703-.332.748-.726 1.184-1.429 1.58-.552.31-.658.335-1.45.335-.79 0-.896-.024-1.449-.335-.703-.396-1.097-.832-1.428-1.58-.204-.46-.248-.727-.282-1.703l-.04-1.156h1.407l-.033.615zm2.164-.316c.208.116.25.578.07.765a.495.495 0 01-.314.118c-.439 0-.585-.563-.216-.831.25-.182.23-.18.46-.052z" fill="#161921"/></svg>