<svg width="120" height="82" viewBox="0 0 120 82" fill="none" xmlns="http://www.w3.org/2000/svg"><path opacity=".15" fill-rule="evenodd" clip-rule="evenodd" d="M34.676.401c-3.029.803-6.213 2.834-7.953 5.074-.543.699-1.897 3.236-3.035 5.685-2.083 4.483-3.346 6.811-4.383 8.077l-.572.699-.001-1.931c-.001-1.74-.058-1.989-.577-2.503l-.575-.572H6.75l-.576.572c-.56.555-.575.667-.575 4.048 0 2.99.058 3.55.418 3.99.335.41 1.1.65 3.81 1.193 1.866.373 3.486.709 3.6.745.115.037-1.543 1.458-3.685 3.157-2.141 1.7-4.383 3.631-4.983 4.293-1.528 1.688-2.958 4.216-3.881 6.864l-.79 2.263-.07 17.462C-.035 72.892.017 77.225.24 78.027c.379 1.363 2.267 3.276 3.627 3.675 1.355.397 17.116.397 18.47 0 1.288-.378 3.23-2.306 3.611-3.585.157-.528.285-1.968.285-3.202v-2.243h67.532v2.243c0 1.234.128 2.674.285 3.201.38 1.28 2.323 3.208 3.61 3.586 1.355.397 17.116.397 18.471 0 1.36-.399 3.248-2.312 3.627-3.675.223-.802.275-5.135.222-18.51l-.07-17.462-.79-2.263c-.923-2.648-2.353-5.176-3.881-6.864-.6-.662-2.842-2.594-4.984-4.294l-3.895-3.09 3.586-.726c4.669-.946 4.453-.69 4.453-5.268 0-3.381-.016-3.493-.575-4.048l-.576-.572H102.42l-.575.572c-.519.514-.576.763-.577 2.503l-.001 1.93-.572-.698c-1.037-1.266-2.3-3.594-4.382-8.077-1.139-2.45-2.493-4.986-3.036-5.685-1.774-2.283-4.958-4.293-8.06-5.088-2.049-.525-48.556-.512-50.541.014zm51.456 4.235c1.795.844 3.33 1.997 4.242 3.183.447.581 4.194 8.19 5.194 10.545.099.232-7.105.291-35.568.291-28.463 0-35.667-.059-35.568-.29 1-2.357 4.747-9.965 5.194-10.546 1.23-1.602 3.934-3.342 5.928-3.815.495-.117 11.407-.192 24.915-.17l24.035.037 1.628.765zM14.979 20.312c0 1.574-.025 1.65-.498 1.528-.273-.071-1.54-.317-2.813-.547l-2.317-.417v-2.22h5.628v1.656zm95.67-.538v1.12l-2.169.412c-1.193.226-2.46.47-2.814.54l-.645.127v-3.318h5.628v1.12zm-11.413 3.713c.914 1.23 4.71 4.964 6.089 5.988.489.363.806.741.703.84-.102.097-3.141 1.346-6.752 2.773l-6.565 2.595-2.7 2.662-2.7 2.662H64.855l-2.428 2.373L60 45.752l-2.428-2.372-2.428-2.373H32.69l-2.7-2.662-2.7-2.662-6.566-2.595c-3.611-1.427-6.65-2.676-6.752-2.774-.103-.098.213-.476.703-.839 1.379-1.024 5.175-4.757 6.089-5.988l.82-1.106h76.832l.82 1.106zM17.793 35.919c3.933 1.556 7.252 2.918 7.375 3.027.135.12-.14.568-.693 1.13l-.915.931h-7.31c-4.02 0-7.642-.066-8.05-.147-.925-.184-2.052-1.205-2.267-2.054-.197-.781.225-1.73 1.384-3.106.99-1.175 2.667-2.609 3.053-2.61.15 0 3.49 1.273 7.423 2.829zm93.078-2.023c2.152 1.785 3.473 3.814 3.196 4.91-.215.849-1.342 1.87-2.267 2.054-.408.081-4.03.147-8.05.147h-7.31l-.911-.927c-.502-.51-.834-1.005-.738-1.1.26-.258 14.272-5.843 14.722-5.868.213-.012.824.341 1.358.784zm-81.218 9.44l1.465 1.396h22.411l2.846 2.794c2.488 2.442 2.944 2.794 3.625 2.794.68 0 1.137-.352 3.625-2.794l2.846-2.794h22.411l1.504-1.434 1.504-1.433 1.517 1.446 1.517 1.447 8.976-.075c9.749-.081 9.739-.08 11.383-1.454l.705-.589.141.523c.077.287.142 2.015.144 3.84l.003 3.317h-5.183c-5.775 0-7.04.197-9.455 1.471-1.997 1.054-2.948 2.01-2.948 2.966 0 1.707 1.85 2.429 3.244 1.264.386-.322 1.317-.87 2.07-1.216 1.175-.54 1.746-.643 4.035-.72l2.665-.091-.093 1.648c-.1 1.761-.458 2.478-1.693 3.395-.577.428-1.08.493-4.638.596-3.844.113-4.008.137-4.439.667-.632.775-.57 1.794.15 2.51l.599.593 4.15-.087c3.953-.083 4.207-.117 5.347-.708 1.767-.915 2.506-1.623 3.364-3.221.639-1.191.791-1.766.893-3.388l.122-1.953h1.81v5.037c0 3.274-.1 5.372-.285 5.995-.38 1.279-2.323 3.208-3.611 3.586-.669.196-3.253.283-8.422.283h-7.457l-2.716-2.624c-2.922-2.824-4.48-3.82-6.97-4.458-1.273-.326-4.465-.369-27.284-.369s-26.011.043-27.284.369c-2.49.637-4.048 1.634-6.97 4.458l-2.716 2.624h-6.988c-4.801 0-7.29-.089-7.953-.283-1.288-.378-3.23-2.307-3.611-3.586-.185-.623-.285-2.721-.285-5.995v-5.037h1.81l.12 1.93c.196 3.105 1.418 5.094 3.979 6.47l1.477.793 4.15.082 4.15.083.599-.594c.72-.716.782-1.735.15-2.51-.431-.53-.595-.554-4.439-.666-3.558-.104-4.061-.17-4.638-.597-1.235-.917-1.592-1.634-1.693-3.395l-.093-1.648 2.665.09c2.289.078 2.86.18 4.035.721.753.347 1.684.894 2.07 1.216 1.378 1.152 3.244.444 3.244-1.232 0-.99-.923-1.93-2.948-2.998-2.415-1.274-3.68-1.47-9.455-1.47H3.724l.003-3.319c.002-1.824.067-3.552.144-3.84l.14-.522.706.59c1.643 1.372 1.633 1.37 11.386 1.452l8.979.075 1.456-1.405c.8-.773 1.499-1.408 1.552-1.41.054-.002.757.624 1.563 1.392zm57.69 22.66c.82.376 1.92 1.147 2.57 1.804l1.139 1.147h-63.04l1.046-1.067c1.093-1.116 2.279-1.833 3.86-2.334.74-.235 6.394-.288 26.965-.253l26.027.045 1.433.657zm-72.556 6.632l7.696.073v2.208c0 2.034-.046 2.253-.576 2.78l-.576.57H4.875l-.576-.57c-.553-.55-.575-.69-.575-3.683v-3.112l1.684.831 1.684.83 7.695.073zm101.489 1.335c0 3.038-.021 3.175-.575 3.725l-.576.572H98.669l-.576-.572c-.53-.526-.576-.745-.576-2.78v-2.207l7.686-.073 7.686-.072 1.635-.838c.899-.46 1.661-.854 1.694-.873.032-.02.058 1.383.058 3.118z" fill="#FFC000"/></svg>