<svg width="50" height="50" viewBox="0 0 50 50" fill="none" xmlns="http://www.w3.org/2000/svg"><path fill-rule="evenodd" clip-rule="evenodd" d="M17.383.023c-1.865.255-3.76.818-5.226 1.554-1.097.552-1.297.808-1.019 1.306.28.5.538.493 1.765-.054 2.42-1.078 4.406-1.47 6.954-1.372 1.586.061 2.602.24 4.026.708 5.04 1.66 8.88 5.936 10.014 11.154.55 2.536.404 5.33-.411 7.833-1.694 5.196-6.042 9.043-11.442 10.124-1.56.312-4.05.312-5.612 0C8.91 29.77 3.725 22.967 4.3 15.354c.284-3.76 1.707-6.822 4.458-9.589 1.139-1.145 1.3-1.346 1.3-1.628 0-.483-.472-.82-.911-.653-.635.242-2.626 2.363-3.6 3.833-3.166 4.78-3.646 10.934-1.253 16.064l.38.812H3.316c-2.108 0-2.728.223-3.135 1.125-.17.376-.18.918-.182 10.775-.002 9.122.016 10.423.148 10.74.36.866.851 1.105 2.271 1.105H3.48l.233.501c.658 1.411 2.41 1.969 3.798 1.21.494-.27 1.007-.86 1.255-1.441l.114-.27H11l.234.501c.284.61.923 1.197 1.531 1.405 1.422.486 2.912-.207 3.52-1.636l.116-.27h2.12l.233.501c.129.276.424.67.657.876 1.418 1.254 3.627.72 4.37-1.058l.134-.32h3.424c3.293 0 3.43-.007 3.618-.196.263-.264.258-.795-.01-1.04-.192-.174-.422-.188-3.644-.214l-3.439-.028-.116-.322c-.182-.507-.757-1.107-1.328-1.388-.686-.337-1.576-.354-2.294-.044-.547.236-1.218.901-1.435 1.423l-.14.338h-2.204l-.118-.326c-.183-.51-.757-1.11-1.33-1.391-.685-.337-1.576-.354-2.293-.044-.548.236-1.218.901-1.435 1.423l-.14.338H8.827l-.117-.326c-.184-.51-.757-1.11-1.33-1.391-.685-.337-1.576-.354-2.293-.044-.548.236-1.218.901-1.435 1.423l-.14.338h-.966c-.79 0-.975-.028-1.024-.155-.086-.227-.073-13.09.014-13.092.04-.001 8.017 2.306 17.727 5.126l17.653 5.127v2.994H35.21c-1.818 0-2.108.058-2.289.457-.152.336-.137.461.094.756l.203.259h8.647l.285.561c.695 1.364 2.27 1.883 3.633 1.2.659-.332 1.03-.712 1.309-1.344l.184-.417h.684c1.008 0 1.569-.327 1.892-1.105.129-.31.15-1.101.147-5.589-.003-4.703-.02-5.277-.173-5.718-.185-.535-2.996-4.787-3.514-5.315a3.656 3.656 0 00-.732-.547c-.4-.214-.52-.223-3.782-.27l-3.37-.05-.048-1.962c-.052-2.065-.073-2.165-.553-2.613-.513-.477-.678-.515-2.39-.558l-1.624-.04.418-.898c1.879-4.039 1.942-8.989.17-13.209-1.824-4.34-5.632-7.856-10.085-9.313C22.674.213 21.627.05 19.58.01c-1.02-.019-2.01-.013-2.197.012zm-1.842 9.62c-.18.088-.443.338-.586.554l-.258.393-.03 5.55c-.016 3.053-.002 5.74.031 5.972.071.494.52 1.062.995 1.262.407.17 11.47.197 11.914.028.345-.131.685-.446.894-.828.144-.262.165-.893.19-5.779.02-3.678-.006-5.65-.078-5.985-.12-.565-.308-.835-.79-1.13-.326-.2-.432-.204-6.143-.202-5.202.002-5.846.02-6.139.164zm3.697 3.308v2.004l.25.3c.343.408.759.5 2.24.494 1.474-.006 1.859-.107 2.17-.572.214-.32.224-.416.224-2.284v-1.95l1.538.027 1.538.026v10.99H16.162l-.026-5.397c-.014-2.968-.004-5.451.022-5.519.034-.09.44-.123 1.563-.123h1.517v2.004zm3.419-.336v1.668h-1.954v-3.336h1.954v1.668zm-13.118.306c-.451.264-.386 1.087.1 1.273.13.049.799.09 1.486.09 1.117 0 1.278-.022 1.508-.204a.74.74 0 00.062-1.072c-.178-.178-.324-.196-1.588-.193-.789.001-1.468.047-1.568.106zm-2.172 3.075c-.131.132-.24.355-.24.495s.109.363.24.495l.24.24h2.384c2.264 0 2.397-.01 2.642-.203a.74.74 0 00.062-1.072c-.185-.185-.326-.196-2.642-.196H7.607l-.24.241zm2.172 2.812c-.45.263-.395 1.03.09 1.252.14.064.772.11 1.494.11 1.119 0 1.28-.021 1.51-.203a.741.741 0 00.062-1.072c-.178-.178-.324-.196-1.588-.193-.789.001-1.468.047-1.568.106zm-3.478 7.568c.72.982 2.413 2.672 3.41 3.407.457.337.845.625.862.641.017.016-.528.72-1.21 1.565-.898 1.11-1.284 1.52-1.394 1.477-.12-.046-3.026-.893-5.949-1.734l-.317-.091v-5.786l.22-.089c.12-.049 1.038-.091 2.037-.095l1.818-.006.523.711zm30.69-.588c.155.114.165.689.141 8.13l-.025 8.008-7.227-2.1a496946.2 496946.2 0 01-13.674-3.972c-3.545-1.03-6.46-1.887-6.48-1.904-.019-.016.463-.646 1.07-1.4l1.105-1.37.541.244c1.594.72 3.02 1.16 4.595 1.423.963.16 3.94.155 4.932-.008a16.93 16.93 0 007.296-3.07c.995-.737 2.695-2.436 3.394-3.393l.52-.711h1.823c1.305 0 1.87.035 1.99.123zm4.462 8.198v3.12l.28.444c.503.797.595.817 4.042.85l3.003.03v3.863c0 2.124-.027 3.932-.06 4.018-.044.118-.202.155-.663.155-.597 0-.607-.005-.722-.326-.184-.51-.757-1.11-1.33-1.391-1.355-.666-3.194.013-3.679 1.359l-.129.358h-3.574v-15.6h2.832v3.12zm3.958-2.826c.328.308 3.037 4.301 3.226 4.757.078.186.141.494.141.685v.347h-2.813c-2.057 0-2.844-.032-2.93-.118-.086-.087-.117-.9-.117-3.05v-2.933l1.116.033c1.032.03 1.135.052 1.377.279zM6.838 46.124c.373.194.583.615.583 1.172 0 1.354-1.945 1.693-2.426.423-.192-.507-.076-1.016.324-1.418.274-.276.394-.326.778-.326.25 0 .583.067.74.15zm7.52 0c.373.194.583.615.583 1.172 0 1.354-1.945 1.693-2.426.423-.192-.507-.075-1.016.324-1.418.274-.276.394-.326.778-.326.25 0 .583.067.741.15zm7.52 0c.374.194.583.615.583 1.172 0 1.354-1.944 1.693-2.425.423-.193-.507-.076-1.016.323-1.418.275-.276.395-.326.779-.326.25 0 .583.067.74.15zm23.33-.007c.595.31.813 1.02.508 1.653-.509 1.055-1.9 1.004-2.313-.085-.14-.368-.15-.504-.053-.825.226-.758 1.131-1.12 1.858-.742z" fill="#000"/></svg>