<svg width="40" height="40" viewBox="0 0 40 40" fill="none" xmlns="http://www.w3.org/2000/svg"><path fill-rule="evenodd" clip-rule="evenodd" d="M24.961.03c-4.896.533-9.055 3.46-11.146 7.844-.784 1.645-1.315 3.916-1.315 5.628 0 .4.03.505.192.667.248.248.613.254.854.013.158-.159.184-.281.227-1.075.228-4.21 2.466-7.924 6.088-10.1a12.62 12.62 0 014.811-1.66c5.253-.694 10.449 2.1 12.787 6.878.447.913.916 2.34 1.106 3.361.202 1.084.202 3.212.001 4.299-.91 4.924-4.474 8.756-9.269 9.969-.699.176-.937.271-1.074.428-.207.238-.217.355-.057.665.164.317.428.36 1.21.2 3.17-.646 6.239-2.686 8.246-5.479.571-.795 1.485-2.582 1.796-3.513.505-1.513.581-2.084.582-4.368 0-2.316-.074-2.91-.551-4.37-.331-1.012-1.224-2.774-1.85-3.649A13.953 13.953 0 0028.868.207C28.028.05 25.73-.054 24.96.03zm-.362 2.6c-.176.142-.186.206-.224 1.335l-.039 1.186-.424.15c-1.38.484-2.555 1.71-3.025 3.153-.286.877-.302 2.082-.038 2.937.44 1.425 1.453 2.58 2.778 3.166.68.3 1.074.368 2.442.42 1.11.042 1.29.068 1.48.21.41.306.537.555.537 1.05 0 .494-.127.744-.537 1.05-.206.153-.343.163-2.886.2-3.018.044-3.005.042-3.557.67-.683.775-.642 1.753.103 2.498.509.51.776.584 2.101.584h1.065v1.058c0 1.02.008 1.066.192 1.25.19.191.204.193 1.683.193 1.48 0 1.494-.002 1.684-.192.186-.186.191-.226.191-1.331 0-1.017.015-1.144.137-1.183 2.536-.797 4.029-3.296 3.497-5.852-.356-1.711-1.754-3.22-3.477-3.753-.294-.09-.855-.149-1.772-.183-1.187-.045-1.367-.07-1.558-.212-.41-.306-.538-.556-.538-1.05s.128-.744.538-1.05c.205-.154.343-.163 2.886-.2 3.02-.045 3.004-.042 3.539-.65.701-.796.668-1.765-.085-2.518-.509-.51-.776-.584-2.101-.584h-1.066V3.923c0-1.02-.006-1.065-.191-1.25-.19-.19-.205-.192-1.671-.192-1.34 0-1.497.014-1.664.15zm2.276 2.16c0 1.02.008 1.066.192 1.25.19.191.204.193 1.683.193 1.48 0 1.494.001 1.684.191a.61.61 0 01.042.835l-.149.185-2.683.04c-2.659.038-2.686.04-3.073.232-.5.248-.969.717-1.21 1.213-.262.542-.27 1.552-.016 2.073.27.555.587.886 1.122 1.171.488.26.51.264 1.822.318 1.504.063 1.885.152 2.587.606.597.386.999.851 1.328 1.537 1.043 2.178-.213 4.72-2.606 5.275-.661.153-.723.284-.723 1.536v1.044h-1.25V21.43c0-1.02-.007-1.065-.191-1.25-.19-.19-.204-.192-1.684-.192-1.479 0-1.493-.002-1.683-.192a.61.61 0 01-.042-.835l.149-.184 2.683-.04 2.683-.038.492-.268c.548-.297.785-.543 1.09-1.131.177-.34.208-.499.21-1.063.001-.61-.02-.706-.265-1.16-.29-.537-.624-.856-1.174-1.119-.3-.143-.556-.178-1.682-.226-1.502-.065-1.886-.155-2.586-.608-.597-.386-1-.851-1.328-1.538-1.043-2.177.213-4.719 2.606-5.274.661-.153.722-.284.722-1.536V3.732h1.25V4.79zM8.942 7.05c-.158.157-.192.269-.192.625v.433h-.433c-.521 0-.817.226-.817.626 0 .399.296.625.817.625h.433v.433c0 .522.226.817.625.817.4 0 .625-.295.625-.817V9.36h.433c.522 0 .817-.226.817-.625 0-.4-.295-.626-.817-.626H10v-.433c0-.522-.226-.817-.625-.817a.63.63 0 00-.433.192zm3.188 8.056c-.202.141-.237.253-1.7 5.351-.903 3.15-1.107 3.777-1.347 4.142-.311.475-.965 1.134-1.34 1.353l-.243.141v-.36c0-.277-.044-.403-.192-.551l-.191-.192H.384l-.192.192-.192.192v14.238l.192.192.192.192h6.733l.191-.192c.14-.14.192-.276.192-.508 0-.174.022-.316.049-.316.027 0 .835.23 1.797.51l1.748.51 5.684-.022 5.683-.021.446-.219c.559-.274 1.101-.865 1.276-1.39.24-.726.118-1.75-.27-2.256l-.148-.192.355-.313c.53-.466.802-1.096.802-1.854 0-.517-.033-.663-.255-1.102l-.255-.507.344-.299c.516-.449.791-1.09.791-1.843 0-.517-.033-.663-.254-1.101l-.254-.505.367-.328c.206-.184.462-.522.586-.774.186-.38.219-.542.217-1.073-.002-.559-.03-.677-.268-1.12-.286-.532-.615-.848-1.172-1.126-.353-.176-.368-.176-4.716-.199l-4.362-.023.046-.29c.272-1.708.522-4.115.48-4.636-.15-1.897-1.222-3.264-2.9-3.701-.583-.152-.97-.152-1.188 0zm1.33 1.366c.541.254.892.596 1.152 1.125.444.902.45 1.226.085 4.123-.177 1.404-.322 2.622-.322 2.707 0 .085.067.238.15.34l.149.184 4.767.04c4.662.037 4.772.042 4.983.2.41.306.537.555.537 1.05 0 .494-.127.743-.537 1.05-.2.15-.352.164-2.17.2-1.939.039-1.957.04-2.105.224a.636.636 0 000 .803c.147.18.182.185 1.792.224 1.797.042 1.845.055 2.234.577.226.302.226 1.044 0 1.346-.398.534-.4.535-2.547.578-1.938.038-1.956.04-2.104.223a.636.636 0 000 .803c.147.181.182.186 1.792.224 1.797.043 1.845.055 2.234.577.226.303.226 1.044 0 1.347-.398.534-.4.534-2.547.577-1.938.039-1.956.04-2.104.224a.636.636 0 000 .803c.147.18.182.185 1.792.224 1.502.035 1.66.052 1.858.2.41.306.537.556.537 1.05s-.128.744-.538 1.05c-.212.16-.299.162-5.717.183l-5.502.02-1.387-.396c-.763-.219-1.624-.467-1.915-.552l-.527-.155.002-5.097.002-5.096.618-.293c.767-.362 1.41-.944 1.992-1.802l.434-.64 1.17-4.104a577.03 577.03 0 011.209-4.2c.05-.134.145-.124.534.059zM6.25 32.493v6.253h-5V26.24h5v6.252zm25.817-2.309c-.157.157-.191.27-.191.625v.434h-.434c-.521 0-.817.226-.817.625s.296.625.817.625h.434v.433c0 .522.226.818.625.818s.625-.296.625-.818v-.433h.433c.521 0 .817-.226.817-.625 0-.4-.296-.625-.817-.625h-.433v-.434c0-.521-.226-.817-.625-.817a.63.63 0 00-.434.192z" fill="#E30D16"/></svg>