<svg width="40" height="40" viewBox="0 0 40 40" fill="none" xmlns="http://www.w3.org/2000/svg"><path fill-rule="evenodd" clip-rule="evenodd" d="M19.183.376c-.342.214-4.735 3.076-9.763 6.36-9.779 6.39-9.518 6.202-9.383 6.741.03.121.156.322.28.445.393.395.644.331 1.89-.48.594-.386 1.098-.703 1.119-.703.02 0 .047 5.746.058 12.77l.02 12.77.18.336c.276.518.69.929 1.175 1.167l.442.218h29.611l.443-.218c.485-.238.899-.65 1.175-1.167l.18-.336.02-12.77c.011-7.024.05-12.77.085-12.77.036 0 .326.183.644.407 1.528 1.075 1.923 1.195 2.393.725.25-.25.272-.307.233-.599-.026-.19-.118-.395-.225-.5C39.58 12.596 20.82.324 20.392.102c-.353-.182-.548-.138-1.209.274zm8.393 6.379l7.43 4.85v13.047c.002 11.693-.011 13.073-.12 13.285-.212.41-.466.46-2.337.46h-1.682V30.41c0-8.854.028-8.377-.506-8.63-.233-.11-1.324-.124-10.354-.124s-10.122.013-10.354.124c-.534.253-.506-.224-.506 8.63v7.986H7.465c-1.871 0-2.125-.05-2.337-.459-.11-.212-.122-1.59-.12-13.285l.003-13.048 7.44-4.864c4.091-2.675 7.496-4.857 7.566-4.85.07.008 3.472 2.197 7.559 4.865zm-13.712 5.001a.78.78 0 00-.498.748c0 .35.18.61.516.752.386.161 11.864.161 12.25 0 .336-.141.516-.403.516-.752 0-.35-.18-.61-.516-.751-.38-.16-11.902-.156-12.268.003zm-.27 4.34a.828.828 0 00.162 1.284c.2.119.764.13 6.25.13 5.487 0 6.052-.011 6.252-.13a.828.828 0 00.162-1.284l-.229-.228H13.823l-.229.228zm15.554 14.79v7.51h-1.64v-3.015c0-2.584-.018-3.05-.123-3.253-.202-.39-.495-.459-1.946-.459h-1.291v-3.015c0-3.271-.01-3.35-.428-3.54-.149-.069-1.162-.094-3.724-.094-3.834 0-3.842 0-4.045.447-.056.123-.085 1.198-.085 3.194v3.008h-1.292c-1.45 0-1.744.07-1.945.46-.105.203-.122.668-.122 3.252v3.015h-1.641V23.377h18.282v7.51zm-6.641-1.72v2.503h-5v-5.006h5v2.503zm-3.36 6.728V38.4l-2.48-.021-2.48-.02-.021-2.484-.021-2.484h5.003v2.504zm6.701-.02l-.02 2.483-2.481.02-2.48.022V33.39h5.002l-.02 2.484z" fill="#E30D16"/></svg>