<svg width="246" height="198" viewBox="0 0 246 198" fill="none" xmlns="http://www.w3.org/2000/svg"><path d="M-104.398 197.697l150-197m-142 197l150-197m-142 197l150-197m-142 197l150-197m-142 197l150-197m-142 197l150-197m-142 197l150-197m-142 197l150-197m-142 197l150-197m-142 197l150-197m-142 197l150-197m-142 197l150-197m-142 197l150-197m-142 197l150-197m-142 197l150-197m-142 197l150-197m-142 197l150-197m-142 197l150-197m-142 197l150-197m-142 197l150-197m-142 197l150-197m-142 197l150-197m-142 197l150-197m-142 197l150-197m-142 197l150-197m-142 197l150-197m-142 197l150-197m-142 197l150-197m-142 197l150-197m-142 197l150-197m-142 197l150-197m-142 197l150-197m-142 197l150-197m-142 197l150-197m-142 197l150-197m-142 197l150-197m-142 197l150-197m-142 197l150-197m-142 197l150-197" opacity=".3" stroke="#fff"/></svg>