<svg width="27" height="36" viewBox="0 0 27 36" fill="none" xmlns="http://www.w3.org/2000/svg"><path fill-rule="evenodd" clip-rule="evenodd" d="M15.75.336c-.277.186-.673.48-.88.654-.91.764-1.82 2.224-2.184 3.506-.225.792-.304 2.23-.17 3.068a7.343 7.343 0 003.188 4.932c.34.225.513.386.513.476 0 .13-.071.136-1.725.137-1.924.002-2.318.058-3.107.445-.684.335-1.258.918-2.155 2.187l-.794 1.124H6.42l-.035-.545c-.031-.48-.057-.563-.227-.709l-.191-.164H.349l-.174.174-.175.174v6.98c0 3.838.02 7.03.044 7.093.116.302.313.322 3.113.322 1.594 0 2.74-.028 2.852-.07.242-.092.392-.458.392-.955v-.392h2.144l.795.72c1.086.985 1.434 1.252 1.94 1.489.739.347 1.23.41 3.176.412l1.76.001.002.691c.002 1.302.307 2.14 1.044 2.875 1.415 1.41 3.64 1.381 4.998-.066.722-.77.996-1.558.998-2.87v-.61l.35-.041c.682-.08 1.253-.483 1.582-1.113.15-.286.166-.412.166-1.24 0-.743-.024-.969-.126-1.166-.109-.212-.112-.252-.021-.303.257-.143.557-.45.736-.754.176-.299.196-.406.22-1.173.027-.924-.034-1.244-.328-1.686l-.183-.275.158-.213c.276-.372.362-.743.362-1.554 0-1.062-.224-1.616-.81-1.998l-.227-.15.134-.396c.11-.322.13-.546.107-1.177-.024-.673-.054-.83-.217-1.142-.305-.587-.87-.969-1.576-1.065l-.327-.045.003-1.567.002-1.568.472-.283c.577-.347 1.594-1.329 2.008-1.94a8.79 8.79 0 001.083-2.384c.23-.882.232-2.689.004-3.52-.516-1.882-1.693-3.48-3.25-4.414-.567-.34-.713-.334-1.12.051-.009.009-.033 1.322-.053 2.92l-.038 2.904-1.28.69c-.704.378-1.312.69-1.351.69-.04 0-.648-.309-1.352-.689l-1.28-.69-.036-2.881L17.035.36l-.173-.183c-.26-.275-.522-.238-1.112.158zm.325 6.489c.229.217 3.47 1.889 3.661 1.889.201 0 3.614-1.78 3.718-1.938.03-.045.07-1.226.089-2.623l.035-2.541.345.302c.754.662 1.522 1.945 1.8 3.008.199.763.183 2.368-.03 3.104a6.301 6.301 0 01-2.631 3.552l-.504.325h-5.624l-.404-.237c-1.29-.757-2.382-2.21-2.777-3.697-.202-.757-.187-2.429.029-3.174.307-1.063.958-2.132 1.737-2.854l.378-.35.035 2.566c.03 2.158.053 2.583.143 2.668zm6.045 7.665v1.454h-4.765v-2.907h4.765v1.453zm-5.903.603v.85H13.87v1.132l4.941.019 4.942.019.233.232.232.231v.736c0 .635-.019.757-.142.894-.291.326-.479.352-2.49.352h-1.89l.02.55.021.549 2.443.035 2.441.036.208.231c.197.22.207.265.207.872 0 .434-.034.708-.108.848-.213.411-.295.423-2.875.423h-2.351v1.134h2.365c3.024.001 2.97-.023 2.97 1.28 0 .598-.012.644-.208.863l-.208.232-2.441.035-2.442.036-.021.55-.021.548h1.89c2.011 0 2.199.027 2.49.352.123.138.142.26.142.889s-.02.751-.142.888c-.32.358-.229.352-5.883.351-6.526-.002-6.204.044-7.442-1.047L9.55 28.154l-.585-.515H6.4v-9.64l1.192-.001c.808 0 1.248-.03 1.369-.09.098-.048.598-.678 1.11-1.399 1.054-1.48 1.472-1.873 2.252-2.119.389-.123.655-.14 2.168-.144l1.725-.004v.85zM5.263 20.976v4.395H1.138v-8.79h4.125v4.395zm-.016 6.787l-.02 1.258-2.044.019-2.045.018v-2.553h4.129l-.02 1.258zm-2.426-.54c-.073.042-.177.184-.233.317-.266.635.488 1.162 1.016.709.432-.37.148-1.11-.425-1.104a.885.885 0 00-.358.078zm15.547 4.615c-.021.39.002.488.19.808.165.282.297.406.586.549.726.36 1.446.174 1.897-.49.219-.324.235-.384.213-.83l-.023-.48h.907l-.03.833c-.026.702-.06.895-.212 1.226-.248.539-.544.852-1.071 1.137-.415.224-.494.242-1.087.242-.594 0-.673-.018-1.088-.242-.527-.285-.822-.598-1.07-1.137-.154-.331-.187-.524-.212-1.226l-.03-.833h1.054l-.025.443zm1.623-.228c.156.084.188.416.052.55a.38.38 0 01-.234.086c-.33 0-.44-.405-.162-.599.187-.13.171-.129.344-.037z" fill="#fff"/></svg>