<svg width="36" height="36" viewBox="0 0 36 36" fill="none" xmlns="http://www.w3.org/2000/svg"><path fill-rule="evenodd" clip-rule="evenodd" d="M1.249.046C.448.304.005.882 0 1.675c-.014 2.045 2.894 2.373 3.403.384.172-.672-.184-1.46-.827-1.83-.348-.201-.996-.29-1.327-.183zm13.959.66c-.033.087-.217.626-.408 1.197l-.348 1.04-.36.133c-.197.074-.536.212-.752.307l-.394.173-1.138-.56-1.139-.56-2.355 2.317L5.958 7.07l.566 1.112.566 1.112-.32.752-.321.753-1.187.387-1.187.387-.019 3.28-.018 3.278 1.205.396 1.206.395.297.69c.164.378.298.726.298.773 0 .046-.163.368-.362.716l-.363.632H2.894v11.403h4.078v-1.689h4.402l.855.843.856.843 1.576.02 1.576.018.038.598c.044.7.215 1.108.653 1.552a2.32 2.32 0 002.898.31c.668-.426.992-1.008 1.069-1.918l.049-.577h2.21c2.437 0 2.524-.013 2.98-.444.386-.364.543-.722.545-1.245.001-.375-.036-.525-.205-.827-.195-.347-.2-.378-.089-.499.198-.215.354-.767.315-1.112a2.307 2.307 0 00-.223-.667c-.175-.332-.179-.363-.07-.525a2.24 2.24 0 00.199-.416c.058-.167.788-.951 2.33-2.504l2.244-2.261-.562-1.112-.561-1.112.254-.589c.14-.323.276-.657.302-.742.038-.127.26-.224 1.26-.552l1.214-.398-.019-3.278-.018-3.279-1.17-.384-1.17-.383-.14-.326c-.076-.18-.224-.51-.329-.735l-.19-.408.551-1.088c.304-.598.552-1.127.552-1.176 0-.048-1.046-1.116-2.325-2.374l-2.325-2.286-1.163.567-1.163.568-.703-.296c-.386-.162-.729-.323-.76-.357-.032-.034-.23-.576-.44-1.205L21.892.547h-6.624l-.06.159zM1.96 1.214c.27.137.375.436.255.718-.098.227-.227.304-.512.304a.542.542 0 01-.24-1.035c.228-.113.252-.112.497.013zm19.462 1.545l.368 1.086.586.21c.323.115.87.339 1.215.496l.63.286 1.034-.508 1.035-.507 1.747 1.718 1.747 1.717-.496.973c-.272.535-.495 1.017-.495 1.072 0 .054.119.345.264.646.145.3.362.816.483 1.146l.219.6 1.092.355 1.092.355-.019 2.46-.019 2.46-1.077.351-1.078.35-.163.464c-.09.255-.311.791-.492 1.19l-.33.727.506.999.506.998-1.701 1.724c-.936.948-1.727 1.699-1.76 1.668-.031-.031-.018-.11.03-.176.17-.23.32-.614.355-.904.08-.686-.48-1.537-1.139-1.723a2.942 2.942 0 01-.34-.11c-.015-.011.296-.337.691-.723 2.043-1.992 3.096-4.486 3.093-7.323-.001-1.458-.221-2.558-.78-3.904-1.36-3.271-4.361-5.608-8.018-6.24-.872-.15-2.748-.114-3.649.072-4.206.867-7.335 3.925-8.24 8.052-.19.867-.228 2.84-.07 3.709.396 2.181 1.336 3.963 2.942 5.578l.754.757H7.04l.12-.23c.066-.125.373-.679.683-1.23l.563-1.001-.277-.547a12.836 12.836 0 01-.509-1.189c-.228-.631-.236-.643-.529-.73-.164-.047-.66-.213-1.103-.368l-.806-.281.019-2.439.019-2.438 1.073-.358 1.073-.359.259-.662c.142-.364.37-.9.507-1.19l.249-.528-.507-1.003-.506-1.004 1.758-1.73 1.758-1.73 1.024.505 1.024.504.758-.35c.418-.192.936-.404 1.152-.471.217-.067.43-.158.474-.202.045-.043.218-.491.386-.994.167-.504.333-.97.368-1.039.06-.113.254-.123 2.525-.123h2.46l.367 1.086zM1.106 5.682v.566h1.222l-.02-.545-.022-.546-.59-.02-.59-.02v.565zm18.28.075c1.475.135 2.943.612 4.072 1.323 2.747 1.73 4.398 4.622 4.404 7.711.004 2.52-.994 4.85-2.842 6.632l-.616.594-.202-.415c-.11-.228-.251-.454-.311-.503-.095-.078-.044-.153.378-.556 2.5-2.387 3.136-6.069 1.59-9.202-1.155-2.34-3.476-4.018-6.075-4.392-.926-.133-2.456-.051-3.294.176-2.608.71-4.63 2.544-5.584 5.071-.221.584-.347 1.159-.419 1.912a7.921 7.921 0 001.32 5.164c.346.519 1.403 1.629 1.89 1.986l.25.184-.405.403-.406.404-.192-.124c-.106-.068-.45-.366-.767-.662-2.418-2.27-3.407-5.567-2.632-8.774.681-2.82 2.844-5.265 5.597-6.328.977-.378 1.948-.573 3.313-.666.079-.005.497.023.93.062zM1.105 8.571v.563h1.216V8.008H1.106v.563zM20.3 8.21a7.192 7.192 0 014.371 3.328c.984 1.68 1.132 3.995.372 5.844-.439 1.07-1.31 2.19-2.262 2.911l-.416.315h-1.442v-2.712l1.148-1.126 1.148-1.125-.021-1.83c-.02-1.703-.032-1.853-.176-2.16a2.424 2.424 0 00-1.187-1.151c-.403-.178-.528-.198-1.27-.203l-.822-.005-.02 1.613c-.012 1.045-.046 1.646-.098 1.707-.058.069-.323.093-1.012.093-.768 0-.957-.02-1.064-.116-.12-.107-.131-.257-.131-1.734V10.24l-.858.035c-.78.031-.899.055-1.317.257-.53.257-.845.579-1.11 1.132-.182.383-.186.423-.208 2.179l-.024 1.789 1.188 1.17 1.187 1.17-.02 1.3-.019 1.299-.72.02-.719.02-.466-.348c-1.18-.878-2.087-2.22-2.509-3.709-.133-.47-.159-.74-.16-1.72-.002-1.37.106-1.85.673-2.99a6.9 6.9 0 014.618-3.647c.774-.179.798-.18 1.823-.157.692.016 1.124.064 1.523.168zM1.137 10.916c-.021.053-.029.316-.017.583l.022.486h1.144v-1.126l-.555-.02c-.423-.017-.565.002-.594.076zm15.136 1.788v1.248l.445.442.445.441h2.88l.44-.45.44-.452v-2.476h.169c.207 0 .59.25.79.515.14.184.152.306.172 1.684l.022 1.486-1.022 1.008-1.023 1.008h-2.937L16.07 16.15l-1.024-1.01.023-1.436c.021-1.298.038-1.46.17-1.683.184-.306.561-.563.83-.563h.204v1.247zm3.434 6.742v1.161h-2.289v-2.323h2.289v1.162zm3.33 2.46c.11.109.176.253.176.39a.563.563 0 01-.176.39l-.175.174h-6.269l-1.25 1.231-1.25 1.232.41.404.41.403.68-.666.68-.666v7.212h-2.685l-.856-.845-.857-.845H6.972v-6.334h6.048l1.143-1.127 1.143-1.126h7.556l.176.173zm-17.28 5.529v4.575H4.038v-9.15h1.717v4.575zm12.842-3.107c-.055.398.051.872.261 1.16l.146.201-.203.363a1.666 1.666 0 00.002 1.642l.204.365-.145.181c-.08.1-.184.344-.233.542-.105.431-.003 1 .23 1.292l.148.185-.204.365c-.266.474-.285 1.125-.046 1.572.163.305.691.799.854.799.07 0 .094.142.094.553 0 .455-.028.594-.161.791-.225.335-.754.583-1.113.524-.4-.067-.703-.274-.87-.596-.142-.275-.145-.387-.145-5.281v-5h1.229l-.047.342zm6.574-.244a.54.54 0 01-.032 1.018c-.321.11-4.68.11-5.001 0-.478-.163-.509-.818-.048-1.015.329-.141 4.74-.144 5.08-.003zm8.516-.006c-.02.053-.029.316-.017.583l.022.486h1.144v-1.126l-.555-.02c-.423-.016-.565.002-.594.077zm-8.33 2.406c.234.245.222.574-.028.786l-.195.165h-4.992l-.194-.165c-.25-.212-.262-.54-.028-.786l.168-.176h5.1l.168.176zm8.299.95v.564h1.216V26.87h-1.216v.564zm-8.485 1.225a.54.54 0 01-.032 1.018c-.321.11-4.68.11-5.001 0-.478-.163-.509-.818-.048-1.015.329-.14 4.74-.143 5.08-.003zm8.5 1.644l.02.545.591.02.59.021v-1.132h-1.222l.02.546zm-8.315.756c.235.245.223.574-.027.786l-.195.165h-4.992l-.194-.165c-.25-.212-.262-.54-.028-.786l.168-.176h5.1l.168.176zm8.497 1.587c-.61.148-1.114.66-1.278 1.3-.174.68.183 1.46.845 1.842.448.259 1.183.279 1.631.044a1.698 1.698 0 00-.608-3.215 2.064 2.064 0 00-.59.03zm.73 1.192c.072.038.166.169.21.29.1.283-.019.551-.302.685-.575.27-1.077-.575-.568-.956.141-.105.478-.115.66-.019z" fill="#fff"/></svg>