<svg width="40" height="40" viewBox="0 0 40 40" fill="none" xmlns="http://www.w3.org/2000/svg"><path fill-rule="evenodd" clip-rule="evenodd" d="M1.865.091C1.175.308.485.925.169 1.608L0 1.974v25.349l.22.469c.28.598.86 1.152 1.432 1.365.417.157.574.16 6.212.16h5.784l.162-.206c.215-.273.205-.595-.027-.865l-.189-.22-5.74-.038-5.74-.04-.264-.187a1.495 1.495 0 01-.41-.509c-.14-.308-.145-.794-.147-12.579 0-8.475.024-12.326.082-12.479.046-.12.178-.321.293-.445.392-.418.53-.44 2.828-.44h2.113l.022 5.854.022 5.854.236.46c.406.793 1.318 1.294 2.131 1.173.196-.03 1.487-.508 2.87-1.064 1.42-.571 2.623-1.01 2.766-1.01.144 0 1.368.446 2.818 1.028 2.38.955 2.6 1.03 3.073 1.028.3 0 .63-.055.804-.131.399-.175.892-.633 1.1-1.02.17-.319.17-.328.192-6.245l.021-5.927 2.131.002c2.39.002 2.592.04 2.961.556l.188.264.04 6.692c.035 6.152.05 6.71.173 6.898.173.264.526.344.828.187.128-.066.253-.176.28-.246.027-.07.049-3.15.049-6.846 0-6.58-.003-6.727-.16-7.147-.214-.571-.768-1.151-1.366-1.431l-.47-.22L14.755.003C4.575-.009 2.13.008 1.865.091zM21.33 7.053v5.745l-.198.235c-.375.445-.414.437-3.306-.726-2.438-.979-2.683-1.062-3.146-1.062-.46 0-.716.085-3.051 1.01a135.803 135.803 0 01-2.72 1.06c-.093.027-.297-.004-.452-.069-.529-.22-.512-.018-.512-6.301V1.309H21.33v5.744zm-6.9 9.654c-.168.07-2.953 2.667-3.047 2.843-.187.348.05.872.427.944.304.058.542-.09 1.373-.861l.783-.727.023 2.7c.021 2.582.029 2.707.179 2.857.268.267.6.284.885.044l.248-.209.02-2.704.02-2.705.846.794c.739.695.879.794 1.119.794.51 0 .86-.64.558-1.02-.273-.34-2.823-2.671-2.996-2.737-.227-.086-.257-.087-.438-.012zm13.005.688c-2.768.341-5.52 1.776-7.255 3.786-.64.74-1.34 1.784-1.4 2.087-.064.315.274.73.593.73.372 0 .461-.074.915-.757a10.74 10.74 0 011.975-2.216c.863-.723.806-.72 1.187-.06.525.909.723 1.063 1.167.909.224-.079.47-.405.47-.626 0-.054-.18-.414-.4-.801-.368-.647-.39-.71-.264-.802.38-.278 2.16-.79 3.188-.918l.372-.047v.55c0 .685.137 1.03.46 1.165.198.082.29.082.482.002.33-.136.389-.287.389-.997 0-.34.017-.635.038-.656.065-.065 1.142.089 1.801.256.702.18 1.815.59 1.879.695.023.037-.12.343-.32.68-.458.774-.504 1.017-.246 1.317.146.17.262.224.474.224.361 0 .53-.159.92-.865.174-.314.346-.589.382-.611.186-.115 2.242 1.814 2.607 2.446l.137.238-.696.398c-.494.283-.722.463-.788.62-.183.444.108.904.571.904.162 0 .493-.137.905-.375.358-.206.678-.345.713-.309.255.267.828 2.212.91 3.088l.05.538h-.523c-.869 0-1.316.317-1.185.84.1.394.3.49 1.032.49h.676l-.048.567a9.01 9.01 0 01-.207 1.193c-.154.606-.592 1.816-.702 1.937-.03.033-.369-.116-.753-.332-.385-.216-.782-.392-.882-.392-.24 0-.64.405-.64.648 0 .297.26.559.943.952.408.236.609.395.574.457-.358.627-1.946 2.214-2.59 2.587-.061.036-.22-.163-.456-.573-.394-.683-.656-.942-.953-.942-.245 0-.649.4-.649.643 0 .102.179.496.397.877.218.38.368.717.333.75-.125.113-1.325.549-1.943.705-.344.087-.881.18-1.194.207l-.567.049v-.677c0-.73-.096-.932-.49-1.03-.524-.132-.84.315-.84 1.184v.522l-.539-.05c-.874-.081-2.821-.654-3.088-.908-.035-.034.117-.382.34-.773.327-.575.394-.754.353-.94a.66.66 0 00-.908-.479c-.165.069-.338.287-.626.79l-.398.696-.248-.138c-.324-.18-2.165-2.02-2.345-2.344l-.14-.25.617-.356c.758-.437.907-.594.907-.957 0-.318-.308-.65-.603-.65-.095 0-.486.176-.87.39-.383.216-.71.392-.728.392-.062 0-.407-.857-.602-1.496-.243-.794-.436-2.022-.437-2.766v-.545l.53.526c.454.45.57.526.808.526.378 0 .618-.26.618-.67 0-.291-.058-.365-1.162-1.462-1.542-1.532-1.382-1.528-2.85-.079-.598.592-1.14 1.175-1.203 1.295-.215.408.112.916.59.916.237 0 .352-.075.795-.514l.519-.514.046.963c.025.53.122 1.314.215 1.742.975 4.484 4.356 7.847 8.867 8.82 1.14.247 3.336.246 4.491 0 4.57-.978 8.01-4.472 8.92-9.062.21-1.056.192-3.248-.036-4.306-.481-2.232-1.537-4.19-3.111-5.767-1.56-1.564-3.441-2.585-5.71-3.1-.689-.157-2.869-.27-3.56-.185zM2.851 21.566l-.229.229v2.161c0 2.26.037 2.53.356 2.653.07.027 1.123.048 2.34.048 2.122 0 2.223-.006 2.42-.162a.478.478 0 00.207-.424c0-.698-.14-.744-2.266-.744H3.953l-.003-1.78c-.002-1.864-.014-1.932-.364-2.119-.275-.146-.49-.106-.735.138zm25.39.117l-.219.188-.039 2.116-.039 2.116-.484.242c-.543.271-.863.595-1.18 1.196-.19.361-.214.492-.214 1.15 0 .698.016.774.266 1.236.313.577.658.902 1.256 1.182.6.281 1.568.288 2.177.016.506-.227 1.2-.95 1.39-1.451l.137-.356h1.482c.815 0 1.545-.034 1.622-.076.241-.129.355-.51.236-.795-.164-.397-.434-.46-1.98-.46H31.29l-.209-.426c-.272-.557-.82-1.087-1.345-1.305l-.421-.175v-4.203l-.192-.192c-.25-.249-.593-.25-.88-.003zm1.076 5.859c.796.42.927 1.48.26 2.103-.445.417-.973.485-1.519.197a1.327 1.327 0 01-.522-1.814c.354-.624 1.122-.834 1.781-.486z" fill="#E30D16"/></svg>