<svg width="150" height="50" viewBox="0 0 150 50" fill="none" xmlns="http://www.w3.org/2000/svg"><path fill-rule="evenodd" clip-rule="evenodd" d="M132.262.166a1.76 1.76 0 00-.337.29c-.103.137-1.637 2.262-1.713 2.375-.032.047-.252.127-.697.252l-3.469.976a7326.328 7326.328 0 00-9.804 2.76l-3.962 1.116c-1.399.394-2.549.71-2.556.703-.007-.007.05-.087.127-.178.538-.642 2.484-3.13 2.544-3.251.191-.394.1-.721-.24-.869-.167-.072-.294-.066-.523.022-.243.094-.326.184-1.125 1.223-1.899 2.47-2.933 3.805-2.98 3.843a1.368 1.368 0 01-.288.119l-2.037.658-2.037.66a404.884 404.884 0 00-1.819.59c-.15.047-.699.225-1.219.394a2151.967 2151.967 0 00-4.183 1.353l-5.366 1.739a1932.685 1932.685 0 01-3.76 1.214c-.297.097-.545.17-.55.164-.006-.007.753-1.038 1.686-2.292 1.152-1.548 1.723-2.346 1.779-2.485.07-.175.077-.232.048-.39-.05-.267-.091-.362-.209-.473-.273-.26-.691-.24-1.088.049-.198.145-.411.413-1.622 2.043l-2.07 2.784-1.007 1.357-.448.605-2.828 1.045c-1.555.575-2.98 1.12-3.168 1.21-.675.327-1.563 1.08-1.978 1.68-.609.877-.73 1.6-.256 1.516.233-.041.718-.413 1.082-.83.481-.55.802-.828 1.079-.936.246-.095 4.29-1.49 4.321-1.49.01 0-.325.36-.745.8-7.713 8.08-10.626 11.118-10.801 11.266-.114.095-.18.123-.302.123-.21 0-.38-.08-.48-.225-.079-.115-.081-.136-.045-.406.044-.326.135-.526.51-1.125.455-.73 5.903-10.166 5.982-10.363.069-.171.073-.218.038-.427-.07-.42-.23-.565-.62-.556a.728.728 0 00-.433.127c-.358.211-.947.842-1.428 1.529-.105.15-.194.273-.197.273-.003 0 0-.149.008-.33a4.988 4.988 0 00-.395-2.048c-.368-.816-1.153-1.384-2.08-1.505-.747-.098-1.834.066-2.7.407-.9.354-2.42 1.239-3.749 2.182-.419.297-.767.534-.775.526-.008-.008.025-.097.074-.197.049-.1.118-.313.154-.472.058-.258.06-.303.012-.432-.11-.302-.341-.296-.927.024-.497.271-.96.605-1.487 1.071l-.819.725c-.328.292-1.285 1.277-1.91 1.968-1.653 1.826-3.917 4.637-5.256 6.527-.71 1.001-1.332 1.913-1.502 2.2-.267.454-.547.881-.978 1.497a24.7 24.7 0 00-1.185 1.836c-.87 1.464-1.105 2.175-.924 2.79.049.167.113.294.184.364.104.103.114.106.278.063a.97.97 0 00.346-.197c.313-.274.788-.971 1.199-1.763.538-1.037.941-1.728 1.427-2.445.31-.458 1.09-1.509 1.107-1.491.006.005-.057.229-.139.497-.404 1.322-.56 2.464-.477 3.514.057.712.157 1.106.426 1.679.18.38.226.445.515.725.658.636 1.504.907 2.65.848a8.831 8.831 0 003.22-.788c1.082-.506 1.52-.749 2.282-1.27 1.413-.963 2.839-2.242 4.935-4.425.678-.706 1.235-1.283 1.238-1.283.003 0-.001.128-.009.285-.015.312.062.722.181.965.038.078.163.24.278.363.542.575 1.345.616 2.285.117.49-.26.868-.589 2.289-1.992.2-.198.642-.63.982-.96.34-.331.79-.771 1-.979.21-.207.947-.927 1.637-1.599l1.656-1.616c1.22-1.2 1.169-1.164.895-.641-.325.621-.959 1.966-1.073 2.28-.218.598-.423 1.567-.423 2.004 0 .165.018.431.04.591.168 1.253 1.066 1.857 2.161 1.454.38-.14 1.147-.526 1.604-.806 1.265-.777 2.152-1.538 4.375-3.752.427-.426.79-.779.804-.785.015-.006.038.11.052.26.042.468.377 1.032.706 1.188.205.097.847.085 1.226-.023.672-.191 1.467-.691 2.438-1.534l.4-.347.072.14c.04.076.188.26.328.408.29.305.394.351.807.351.448 0 .796-.155 1.448-.65.642-.487.803-.646 2.885-2.867l2.206-2.351 1.202-1.28c.839-.892 3.562-3.808 3.847-4.119.132-.144.248-.254.257-.244.009.01-.102.29-.247.62a912.144 912.144 0 00-1.163 2.671c-1.027 2.347-1.132 2.611-1.297 3.287-.166.677-.13 1.23.108 1.664.141.257.477.54.715.602.249.065.687.026.952-.086.353-.149 1.05-.637 1.453-1.018.544-.514 1.592-1.813 2.155-2.671.132-.202.25-.367.262-.367.012 0 .041.108.064.24.046.257.26.642.416.748.129.087.476.178.676.178.103 0 .356-.054.577-.123.64-.2 1.143-.594 1.9-1.485.127-.15.243-.273.257-.273.014 0 .071.09.128.198.262.506.558.776.958.875.321.08.541.062.908-.07.353-.128.578-.266.971-.596.685-.575 1.127-1.153 2.008-2.626.381-.638 1.021-1.658 1.074-1.712.042-.042.041-.04-.075.508-.26 1.224-.303 1.896-.153 2.445.127.472.295.725.622.942.34.225.788.181 1.289-.127.51-.314.674-.507 3.056-3.58.818-1.055 1.686-2.173 1.928-2.483.384-.491 1.38-1.776 4.087-5.267.368-.476.694-.89.722-.922.045-.049.047-.044.017.038-.027.074-1.472 3.437-2.439 5.674l-.168.388-.344.189c-1.03.565-1.539 1.116-1.728 1.87-.085.34-.009.749.254 1.354l.095.22-.56 1.256c-.69 1.549-.711 1.604-.741 2.046-.034.5.06.732.358.89.311.163.705.05 1.013-.293.221-.245.388-.608.779-1.687.045-.124.24-.64.433-1.147l.351-.922.613-.216c1.531-.539 2.659-1.181 3.955-2.253.049-.04 1.202.077 2.085.213 1.136.174 3.091.684 4.11 1.073 1.084.414 2.264.937 2.987 1.323.784.42 1.815 1.047 2.292 1.396l.546.395c.27.194.566.436 1.165.952.921.793 1.909 1.998 2.646 3.228.326.544.414.73.695 1.47.411 1.079.417 1.1.553 1.862.206 1.16.226 1.921.066 2.476-.089.31-.327.817-.556 1.183-.342.548-1.165 1.344-2.041 1.974-.325.234-1.656 1.059-1.91 1.183l-.782.39c-2.121 1.06-5.89 2.416-8.943 3.218-.524.137-1.23.325-1.57.417-.34.093-.815.21-1.055.26-.24.05-.551.124-.691.164a9.88 9.88 0 01-.692.152c-.24.045-.592.12-.782.168-.19.048-.55.133-.8.19-.25.055-.725.177-1.055.27-.713.201-2.312.625-3.329.881-.4.101-1.136.293-1.637.426-.5.133-1.097.287-1.327.343-.23.056-.902.225-1.492.377-.59.151-1.474.37-1.964.487-.49.117-1.26.305-1.71.418-.45.113-1.277.315-1.837.449-.56.133-1.826.436-2.812.674a322.432 322.432 0 01-7.883 1.771c-1.188.255-2.819.592-4.002.826-.48.095-.994.199-1.142.23-.318.066-1.005.195-1.768.332a1337 1337 0 00-1.673.303c-.62.112-1.406.247-1.746.299l-1.82.283a55.759 55.759 0 01-3.71.472c-.4.034-.957.087-1.237.117-.9.097-2.741.145-3.547.092-1.074-.07-1.95-.236-2.346-.443-.156-.082-.411-.302-.461-.398-.108-.208.026-.641.292-.948.559-.645 1.241-.883 3.457-1.204.935-.136 2.674-.167 4.889-.089 1.4.05 1.71.027 2.087-.154.307-.147.522-.373.522-.548 0-.433-.406-.812-1.241-1.16a4.787 4.787 0 00-1.26-.327c-.416-.045-1.853-.044-2.5.002-1.395.098-3.542.431-4.239.657-1.225.398-1.767.651-2.4 1.123-.276.205-.655.578-.787.773-.1.148-.3.599-.36.814-.099.353-.093 1.009.012 1.411.112.433.256.665.643 1.043.361.353.608.5 1.325.79.57.23.982.33 1.86.447.704.095.827.1 2.29.1 2.058-.002 3.28-.088 5.165-.366 2.907-.428 5.326-.868 7.167-1.3.17-.04 1.193-.258 2.274-.485a6001.638 6001.638 0 005.311-1.113c1.779-.373 2.975-.642 4.256-.958.379-.093 4.78-1.137 5.511-1.307.548-.127 10.227-2.624 12.351-3.186 1.685-.446 3.248-.858 4.656-1.227 1.529-.402 3.35-.914 4.074-1.146.92-.295 4.064-1.4 4.584-1.61 1.925-.782 2.756-1.138 3.747-1.606.18-.086.442-.21.582-.275 1.566-.739 3.128-1.697 4.129-2.534.538-.45 1.139-1.077 1.413-1.477.193-.28.231-.367.348-.8.072-.267.164-.714.205-.994a3.74 3.74 0 00.037-1.031 9.626 9.626 0 00-.131-1.005c-.46-2.341-1.777-4.52-4.261-7.048a19.582 19.582 0 00-4.414-3.393c-1.812-1.017-2.729-1.42-4.693-2.062-1.155-.378-2.48-.671-3.909-.864a10.87 10.87 0 01-.59-.089c-.005-.005.08-.148.189-.317.763-1.178 1.797-3.226 2.066-4.09.231-.743.283-1.497.136-1.957-.212-.66-.608-.943-1.523-1.09-.508-.081-.923.022-.97.242-.055.258.104.544.585 1.047.519.544.602.697.625 1.157.016.31.005.39-.096.746-.165.576-.455 1.18-.873 1.818-.388.59-1.091 1.543-1.444 1.956l-.211.248-.476-.025c-.656-.035-2.109-.139-2.121-.151-.006-.006.377-.89.849-1.963a2660.08 2660.08 0 001.662-3.778c.051-.113.349-.79.663-1.505.683-1.551.697-1.58.761-1.58.028 0 .752-.178 1.609-.396l1.777-.45c.12-.031.49-.072.821-.092.923-.056 1.11-.16 1.104-.616a.948.948 0 00-.226-.614c-.176-.211-.689-.337-1.136-.279-.155.02-1.014.223-1.909.452-.896.228-1.643.415-1.66.415-.018 0 .146-.244.365-.542.224-.305.456-.67.532-.836.121-.264.133-.316.116-.515-.027-.304-.118-.402-.369-.4-.155.001-.223.028-.426.166zm-3.603 4.639l-.707.874a15280.395 15280.395 0 01-8.335 10.299 49.72 49.72 0 01-.903 1.1c-.008 0-.006-.02.002-.047a22.94 22.94 0 00.55-2.022c.205-.94.218-1.345.064-1.972-.152-.622-.34-.86-.914-1.154-.286-.146-.35-.164-.629-.177-.306-.014-.314-.012-.472.112-.202.16-.271.348-.306.839-.019.276-.01.46.037.748l.063.382-1.51 2.163c-1.613 2.308-1.879 2.643-2.228 2.803-.247.113-.317.116-.402.02-.133-.152-.057-.363.573-1.6 1.233-2.423 1.224-2.399 1.012-2.618-.092-.095-.134-.11-.3-.108-.216.001-1.001.159-1.05.21a8.9 8.9 0 00-.29.672 8.592 8.592 0 01-.343.771l-.429.677a6.735 6.735 0 01-1.993 2.05c-.481.32-.725.391-.891.261-.063-.05-.072-.099-.07-.384.002-.334.056-.613.275-1.424.14-.518.129-.663-.061-.745-.109-.047-.149-.047-.3-.001-.289.089-.386.182-1.304 1.263-2.529 2.98-3.645 4.17-4.08 4.357-.15.064-.353.025-.425-.082-.145-.214.032-.912.442-1.74a2716.473 2716.473 0 014.898-9.424c.134-.258.255-.49.27-.513.016-.025 1.378-.428 3.029-.897l6.821-1.938 5.62-1.595c.99-.28 2.357-.67 3.038-.865.68-.195 1.251-.356 1.269-.358.018-.002.009.026-.021.063zm-13.762 5.66c-.184.067-.44.291-.609.533-.354.509-.574.97-.574 1.204 0 .15.114.386.218.45.066.04.182.062.324.062.189 0 .249-.018.412-.127.313-.207.691-.723.831-1.133.227-.665-.085-1.177-.602-.989zm-2.591.834a2.461 2.461 0 00-.72.431c-.335.31-.83 1.094-.927 1.468-.081.315.017.57.272.713.144.08.624.077.892-.007.299-.092.462-.23.764-.645.211-.289.31-.47.431-.783.241-.628.24-.872-.007-1.11-.115-.112-.472-.145-.705-.067zm-6.493.093c-.04.06-1.053 1.193-3.249 3.636l-2.09 2.331c-.111.123-.332.37-.492.546-.16.177-.684.762-1.165 1.3a443.75 443.75 0 01-1.855 2.068l-.71.79-.69.77c-1.17 1.31-1.282 1.424-1.637 1.67-.143.098-.239.137-.338.137-.124 0-.145-.014-.192-.13-.11-.274-.042-.743.158-1.092.18-.314.35-.515 1.006-1.185.627-.64.837-.939.963-1.368.103-.35.1-.517-.016-.659-.125-.153-.284-.203-.51-.159a2.77 2.77 0 00-.908.414c-.1.077-.201.152-.225.166-.028.018-.097-.066-.194-.235-.285-.496-.593-.684-1.2-.733-.446-.037-1.044.152-1.735.546l-.261.15-.057-.197a2.112 2.112 0 01-.056-.225c0-.016-.067-.139-.149-.274-.131-.216-.171-.254-.342-.32-.265-.102-.387-.062-.647.213a9.391 9.391 0 00-.968 1.323c-.074.136-.247.476-.384.756a12.822 12.822 0 01-1.299 2.145c-.49.675-.786 1.038-1.499 1.837a43.8 43.8 0 00-.697.798c-1.365 1.648-2.285 2.584-3.369 3.428-.491.383-.82.55-1.147.585-.37.04-.554-.056-.655-.34-.068-.189-.056-.362.045-.686.115-.367.255-.66.922-1.936a2799.274 2799.274 0 001.623-3.104 2805.798 2805.798 0 002.63-5.04l.472-.902.649-.22a5498.092 5498.092 0 018.034-2.717c.331-.113 1.622-.55 3.729-1.26l1.946-.658c.26-.09.755-.257 3.711-1.256a1025.969 1025.969 0 002.885-.98c.006-.001-.011.029-.037.067zm23.384 2.632c-.045.075-.577.466-.867.637a4.413 4.413 0 01-.673.31c-.412.142-.966.304-.982.287-.01-.01.425-1.046.504-1.199.031-.06.119-.066 1.035-.066.551 0 .993.014.983.031zm-86.482.396c-.064.024-.193.11-.287.191-.148.128-.215.242-.5.847-.384.82-.734 1.417-1.185 2.026-.379.513-.662.807-1.658 1.722-1.026.943-1.613 1.391-5.574 4.253l-2.987 2.158-1.94 1.4-.412-.079a15.987 15.987 0 00-2.656-.265c-.928 0-2.988.212-3.892.4-.114.024-.003-.114.853-1.06.131-.144.418-.466.638-.714l.655-.734.655-.734.654-.734 1.055-1.185 1.055-1.184 1.055-1.184c.44-.495 1.022-1.146 1.293-1.448.736-.817.92-1.101 1.002-1.537.039-.211.036-.257-.027-.43-.085-.23-.335-.477-.555-.546-.324-.1-.855-.038-1.222.145-.532.266-.882.589-1.765 1.63-.28.33-.776.914-1.104 1.298a1176.902 1176.902 0 00-3.046 3.577 756.892 756.892 0 00-2.47 2.897c-.1.115-.402.47-.673.789-1.177 1.389-1.346 1.575-1.446 1.595-.055.012-.255.048-.445.08-2.7.464-4.212.954-5.816 1.886-.533.31-.597.356-1.15.829-.688.587-1.373 1.5-1.531 2.04-.109.37-.03.882.196 1.275.328.572 1.14 1.084 1.974 1.246.37.072.37.073.102.386-.254.296-1.57 1.84-2.43 2.853-.29.341-.537.629-.548.64-.01.01-.191.221-.401.47l-.495.582-2.47 2.897c-.778.914-1.092 1.283-2.324 2.726-.478.56-.98 1.153-1.113 1.319-.518.641-.757 1.078-.856 1.56l-.05.245.116.124c.152.163.438.251.718.22.38-.04.286.05 2.418-2.34a2851.32 2851.32 0 012.381-2.667l2.42-2.714a3982.743 3982.743 0 004.111-4.605l.85-.95c.327-.367.6-.667.605-.667l.952-.152c1.022-.165 2.554-.511 3.305-.747l.902-.285c1.521-.483 4.407-2.046 7.486-4.055.548-.357 1.884-1.12 1.963-1.12.136 0 1.433.25 1.763.34 1.065.288 1.347.369 2.016.582.769.244 1.916.73 2.511 1.063 1.195.668 2.198 1.584 2.874 2.622.401.615.788 1.61.948 2.439.247 1.279.219 2.41-.094 3.714-.517 2.155-1.612 4.201-3.025 5.65-1.363 1.399-2.688 2.241-4.248 2.702a6.632 6.632 0 01-2.321.281c-.512-.02-.671-.043-1.208-.174-1.14-.279-1.613-.56-1.853-1.1-.084-.19-.115-.691-.061-1.007.022-.135.164-.595.314-1.022.302-.86.327-1.023.19-1.23-.114-.174-.302-.234-.67-.216-.255.013-.32.03-.448.123-.198.142-.44.46-.614.809-.173.346-.23.535-.333 1.09-.075.408-.077.467-.037 1.01.05.662.1.895.275 1.271.185.397.405.675.883 1.116a4.553 4.553 0 001.845 1.071c1.538.48 3.006.34 4.975-.475 1.818-.753 3.773-2.162 5.593-4.03 1.117-1.147 2.274-2.81 2.832-4.07.193-.435.224-.521.46-1.235.196-.595.243-.794.328-1.373.088-.609.096-.747.08-1.373-.029-1.023-.116-1.432-.52-2.439a7.687 7.687 0 00-1.252-2.108 15.237 15.237 0 00-1.42-1.459c-.71-.62-1.798-1.349-2.855-1.915-1.229-.66-2.39-1.11-4.163-1.616l-.816-.233.38-.263c.209-.145.617-.415.907-.602 2.648-1.699 5.295-3.585 6.803-4.847.37-.31.746-.623.836-.695.324-.261 1.932-1.91 2.257-2.314.684-.85 1.093-1.558 1.377-2.381.229-.666.223-1.101-.02-1.55a.697.697 0 00-.875-.326zm27.875 4.14c.325.154.575.503.689.96.135.542.019 1.779-.255 2.713-.348 1.188-.592 1.83-.937 2.464-.068.124-.3.556-.517.959-.453.842-1.536 2.527-2.03 3.156-.918 1.172-1.145 1.44-1.886 2.232-1.491 1.595-3.538 3.274-5.415 4.443-1.024.637-2.964 1.667-3.48 1.846-.62.216-1.289.218-1.655.006-.407-.236-.701-.75-.834-1.459-.06-.32-.065-.43-.034-.884a7.943 7.943 0 01.256-1.617c.143-.554.463-1.571.694-2.203.167-.456.591-1.47.65-1.55.014-.022.113-.208.219-.415.493-.966 1.12-1.96 1.633-2.596 1.105-1.366 2.062-2.37 3.46-3.628 1.234-1.111 3.003-2.355 4.275-3.005 1.801-.922 2.622-1.22 4.201-1.526.05-.01.24-.013.422-.007.267.008.371.03.544.111zm21.84 2.426c.16.108.294.34.294.512 0 .352-.154.709-.819 1.9-.473.848-.489.88-.597 1.141-.18.435-1.236 1.323-2.1 1.766-.507.26-.523.265-.858.283-.4.021-.518-.023-.651-.245-.077-.126-.086-.185-.083-.537.003-.48.053-.664.329-1.2.24-.467.44-.759.947-1.377 1.245-1.518 2.513-2.413 3.287-2.32a.7.7 0 01.25.077zM25.87 28.09c.591.05.746.075.71.11-.026.025-.357.27-.738.547-2.232 1.621-5.022 3.093-7.148 3.77a7.372 7.372 0 01-1.858.288h-.367l.067-.09c.037-.05.336-.401.666-.781a794.39 794.39 0 003.018-3.502c.013-.015.26-.054.55-.085l2.09-.225a15.545 15.545 0 013.01-.032zm-9.33 1.435a54.22 54.22 0 01-.797.968l-1.657 1.992-.906 1.091-.29.013c-.8.034-1.6-.324-1.844-.825-.125-.256-.139-.642-.03-.88.293-.652 1.605-1.62 2.64-1.95.16-.052.586-.163.948-.249.54-.127.76-.16 1.236-.186l.665-.037c.074-.005.078.002.036.063zm27.988 3.543c-.242.09-.522.35-.709.656-.133.217-.139.24-.123.477.02.31.143.56.442.89.232.258.348.335.602.403.173.046.468 0 .65-.1.33-.183.359-1.191.053-1.91-.108-.257-.173-.333-.357-.42-.184-.088-.314-.087-.558.004z" fill="#E30D16"/></svg>